<svg id="b0e1da54-e267-4848-86d9-77e9bdc3c78b" data-name="Layer 2" xmlns="http://www.w3.org/2000/svg" viewBox="0 0 444.78 177.11">
  <defs>
    <style>
      .\31 3bac2bb-80fb-4203-a963-b6a17ec5eeb7 {
        fill: #2f404f;
      }

      .\38 6b37b62-dc71-4548-88f3-300ecc4a62c6 {
        fill: #fff;
      }

      .\30 66459d7-c5ba-44e3-88d0-3f6b370b4dd2, .\33 978a80b-2e9c-41fb-97b4-8722cecaab5d, .\37 56a5e1b-f8e8-4ca9-90da-af469a869c6f, .\37 9ecb75d-01d2-4e6d-bf24-b9e65d4a3d84, .\38 6b37b62-dc71-4548-88f3-300ecc4a62c6 {
        stroke: #2f404f;
        stroke-miterlimit: 10;
      }

      .\30 66459d7-c5ba-44e3-88d0-3f6b370b4dd2, .\37 56a5e1b-f8e8-4ca9-90da-af469a869c6f, .\37 9ecb75d-01d2-4e6d-bf24-b9e65d4a3d84, .\38 6b37b62-dc71-4548-88f3-300ecc4a62c6 {
        stroke-width: 3px;
      }

      .\33 978a80b-2e9c-41fb-97b4-8722cecaab5d, .\37 56a5e1b-f8e8-4ca9-90da-af469a869c6f {
        fill: #ffe66d;
      }

      .\33 978a80b-2e9c-41fb-97b4-8722cecaab5d {
        stroke-width: 4px;
      }

      .\37 9ecb75d-01d2-4e6d-bf24-b9e65d4a3d84 {
        fill: #f7fff7;
      }

      .\30 66459d7-c5ba-44e3-88d0-3f6b370b4dd2 {
        fill: #ff6b6b;
      }
    </style>
  </defs>
  <title>asd</title>
  <g id="b43d50de-92d1-41e0-af3e-be92a0f9bf77" data-name="drop">
    <path class="13bac2bb-80fb-4203-a963-b6a17ec5eeb7" d="M421.17,177.11a10.67,10.67,0,0,1-10-14.38c2-7.26,7.66-13.18,7.9-13.43a2.57,2.57,0,0,1,1.82-.78h0a2.59,2.59,0,0,1,1.78.75c6.22,6.22,8.19,11.73,8.81,14.47a10.45,10.45,0,0,1,.32,2,7,7,0,0,1,0,.72A10.69,10.69,0,0,1,421.17,177.11Zm-0.31-26.33a0.29,0.29,0,0,0-.19.09c-0.22.23-5.5,5.77-7.36,12.51l0,0.1a8.42,8.42,0,1,0,16.31,3v0h0a4.85,4.85,0,0,0,0-.49v0a8.17,8.17,0,0,0-.25-1.59v0c-0.56-2.5-2.37-7.56-8.21-13.39A0.33,0.33,0,0,0,420.86,150.77Z"/>
    <path class="13bac2bb-80fb-4203-a963-b6a17ec5eeb7" d="M421.47,173.59a0.85,0.85,0,0,1-.12-1.69,6.25,6.25,0,0,0,5.05-4.14,0.85,0.85,0,0,1,1.6.56,7.94,7.94,0,0,1-6.42,5.26h-0.12Z"/>
  </g>
  <g id="1029ba9c-a290-498a-830c-b86d93f465d8" data-name="drop">
    <path class="13bac2bb-80fb-4203-a963-b6a17ec5eeb7" d="M402,120.19a12.84,12.84,0,0,1-12.06-17.31c2.44-8.73,9.21-15.85,9.5-16.15a3.09,3.09,0,0,1,2.19-.94h0.06a3.12,3.12,0,0,1,2.14.9c7.48,7.48,9.85,14.11,10.6,17.41a12.58,12.58,0,0,1,.38,2.41,8.43,8.43,0,0,1,0,.87A12.86,12.86,0,0,1,402,120.19Zm-0.37-31.68a0.35,0.35,0,0,0-.23.11c-0.27.28-6.61,6.95-8.85,15.05l0,0.11a10.13,10.13,0,1,0,19.63,3.58v0h0a5.84,5.84,0,0,0,0-.58v0a9.83,9.83,0,0,0-.3-1.92v-0.06c-0.68-3-2.86-9.09-9.88-16.11A0.4,0.4,0,0,0,401.61,88.51Z"/>
    <path class="13bac2bb-80fb-4203-a963-b6a17ec5eeb7" d="M402.34,116a1,1,0,0,1-.14-2,7.52,7.52,0,0,0,6.08-5,1,1,0,0,1,1.92.67,9.55,9.55,0,0,1-7.72,6.33h-0.14Z"/>
  </g>
  <g id="b54b91e1-d994-4b53-aa09-9c26df5e0864" data-name="drop">
    <path class="13bac2bb-80fb-4203-a963-b6a17ec5eeb7" d="M411.87,136.36a12.84,12.84,0,0,1-12.06-17.31c2.44-8.73,9.21-15.85,9.5-16.15a3.09,3.09,0,0,1,2.19-.94h0.06a3.12,3.12,0,0,1,2.14.9c7.48,7.48,9.85,14.11,10.6,17.41a12.58,12.58,0,0,1,.38,2.41,8.43,8.43,0,0,1,0,.87A12.86,12.86,0,0,1,411.87,136.36Zm-0.37-31.68a0.35,0.35,0,0,0-.23.11c-0.27.28-6.61,6.95-8.85,15.05l0,0.11A10.13,10.13,0,1,0,422,123.53v0h0a5.84,5.84,0,0,0,0-.58v0a9.83,9.83,0,0,0-.3-1.92v-0.06c-0.68-3-2.86-9.09-9.88-16.11A0.4,0.4,0,0,0,411.5,104.68Z"/>
    <path class="13bac2bb-80fb-4203-a963-b6a17ec5eeb7" d="M412.23,132.12a1,1,0,0,1-.14-2,7.52,7.52,0,0,0,6.08-5,1,1,0,0,1,1.92.67,9.55,9.55,0,0,1-7.72,6.33h-0.14Z"/>
  </g>
  <polyline class="86b37b62-dc71-4548-88f3-300ecc4a62c6" points="0 121.27 384.5 121.27 384.5 148.27 436.5 148.27 436.5 119.92 436.5 77.27 0 77.27"/>
  <rect class="3978a80b-2e9c-41fb-97b4-8722cecaab5d" x="140.2" y="69.77" width="201.6" height="60"/>
  <circle class="13bac2bb-80fb-4203-a963-b6a17ec5eeb7" cx="240.3" cy="99.77" r="13.98"/>
  <circle class="13bac2bb-80fb-4203-a963-b6a17ec5eeb7" cx="131.37" cy="85.79" r="2.49"/>
  <circle class="13bac2bb-80fb-4203-a963-b6a17ec5eeb7" cx="131.37" cy="113.74" r="2.49"/>
  <rect class="756a5e1b-f8e8-4ca9-90da-af469a869c6f" x="378.79" y="140.73" width="64.49" height="15.57"/>
  <g>
    <rect class="79ecb75d-01d2-4e6d-bf24-b9e65d4a3d84" x="256.02" y="28.42" width="12.6" height="78.8" transform="translate(83.86 -136.05) rotate(34.31)"/>
    <rect class="066459d7-c5ba-44e3-88d0-3f6b370b4dd2" x="275.97" y="1.86" width="18.98" height="64.11" transform="translate(68.77 -154.99) rotate(34.31)"/>
  </g>
</svg>
