<?xml version="1.0" encoding="utf-8"?>
<!-- Generator: Adobe Illustrator 19.2.1, SVG Export Plug-In . SVG Version: 6.00 Build 0)  -->
<svg version="1.1" id="_x31_3fceff4-07f0-4e2a-9946-ed2fbc32cac2"
	 xmlns="http://www.w3.org/2000/svg" xmlns:xlink="http://www.w3.org/1999/xlink" x="0px" y="0px" viewBox="0 0 500 500"
	 style="enable-background:new 0 0 500 500;" xml:space="preserve">
<style type="text/css">
	
	.st1{fill:none;stroke:#FFE66D;stroke-width:4;stroke-linecap:round;stroke-linejoin:round;}
	.innerCir{fill:#FFFFFF;}
	.st3{fill:#2F404F;}
</style>


<g class="bulbBody">
    <circle id="outerCir" class="st1" cx="250" cy="250" r="118"/>
    <circle class="innerCir" cx="250" cy="250" r="150"/>
	<path class="st3" d="M277.9,316.2h-55.8c-2.1,0-3.7,1.7-3.7,3.7s1.7,3.7,3.7,3.7h55.8c2.1,0,3.7-1.7,3.7-3.7S280,316.2,277.9,316.2
		z"/>
	<path class="st3" d="M277.9,328.8h-55.8c-2.1,0-3.7,1.7-3.7,3.7s1.7,3.7,3.7,3.7h55.8c2.1,0,3.7-1.7,3.7-3.7S280,328.8,277.9,328.8
		z"/>
	<path class="st3" d="M269.2,341.3h-38.4c-2.1,0-3.7,1.7-3.7,3.7s1.7,3.7,3.7,3.7h38.4c2.1,0,3.7-1.7,3.7-3.7
		S271.3,341.3,269.2,341.3z"/>
	<path class="st3" d="M260.5,353.9h-20.9c-2.1,0-3.7,1.7-3.7,3.7s1.7,3.7,3.7,3.7h20.9c2.1,0,3.7-1.7,3.7-3.7
		C264.2,355.6,262.5,353.9,260.5,353.9L260.5,353.9z"/>
	<path class="st3" d="M250,138.6c-43.1,0-78.1,35-78.1,78.1c0,2.7,0.1,5.4,0.4,8.1c4.3,52.7,49.2,62.8,49.2,86.2h56.8
		c0-23.4,45-33.5,49.3-86.2c4.5-42.9-26.7-81.3-69.6-85.8C255.4,138.8,252.7,138.6,250,138.6z M320.3,224.1v0.2
		c-2.3,28.3-17.1,42.8-30.3,55.5c-7.8,7.6-15.2,14.8-17.9,23.8H255l28-62.2c1-1.8,0.3-4.1-1.5-5c-1.8-1-4.1-0.3-5,1.5
		c-0.1,0.2-0.2,0.4-0.2,0.5L250,296.8l-26.3-58.3c-1-1.8-3.2-2.5-5-1.5c-1.6,0.9-2.3,2.8-1.7,4.5l28,62.2h-17
		c-2.7-9-10.1-16.3-17.9-23.8c-13.1-12.8-28-27.2-30.3-55.5v-0.1c-0.3-2.5-0.4-4.9-0.4-7.4c0-39,31.6-70.7,70.7-70.7
		s70.7,31.6,70.7,70.7C320.7,219.2,320.6,221.7,320.3,224.1z"/>
</g>
</svg>
