<svg id="7f7bbe4d-b49b-45c7-9dc1-b23d3078c48a" data-name="hint" xmlns="http://www.w3.org/2000/svg" viewBox="0 0 366.48 455">
  <defs>
    <style>
      .hitZone {
        fill: #fff;
        opacity: 0.07;
      }

      .\34 e468953-37f4-4f33-9f5c-5d4822cfce70, .\36 6d218f4-4c88-41ca-9186-0c00c371aa53, .\38 9b27613-7818-480d-903b-38bf08746f8e {
        fill: none;
      }
 
      .dottedCir {
        fill: none;
        stroke: #fff;
        stroke-miterlimit: 10;
        stroke-width: 4px;
        stroke-dasharray: 12.12 12.12;
      }

      .\35 fee0bf2-8950-4bf3-a304-cbecf339a938 {
        fill: #fff;
      }

      .\34 e468953-37f4-4f33-9f5c-5d4822cfce70, .\36 6d218f4-4c88-41ca-9186-0c00c371aa53 {
        stroke: #353535;
        stroke-linejoin: round;
      }

      .\36 6d218f4-4c88-41ca-9186-0c00c371aa53 {
        stroke-linecap: round;
        stroke-width: 8px;
      }

      .\30 4a72d53-bb84-48de-9963-bff0160a2626 {
        fill: #353535;
      }

      .\37 80c1484-fe6c-46a1-bc3f-b38b0effecbf {
        fill: #1a535c;
      }

      .\34 e468953-37f4-4f33-9f5c-5d4822cfce70 {
        stroke-width: 9px;
      }
    </style>
  </defs>
  <title>elec-part1</title>
  <g>
    <circle class="hitZone" cx="183.24" cy="271.76" r="181.24"/>
    <circle class="dottedCir" cx="183.24" cy="271.76" r="181.24"/>
  </g>
  <g class="hintText">
    <path class="5fee0bf2-8950-4bf3-a304-cbecf339a938" d="M81.3,335h2.85l5.54,19.39H86.81l-1-3.6H79.61l-1,3.6H75.76Zm-0.94,13h4.74c-0.5-1.74-1.05-3.52-2.38-8.17Z"/>
    <path class="5fee0bf2-8950-4bf3-a304-cbecf339a938" d="M92.18,335h10.5v2.74H98.83v16.64H96V337.77H92.18V335Z"/>
    <path class="5fee0bf2-8950-4bf3-a304-cbecf339a938" d="M106.28,335h10.5v2.74h-3.85v16.64h-2.8V337.77h-3.85V335Z"/>
    <path class="5fee0bf2-8950-4bf3-a304-cbecf339a938" d="M124.95,335h2.85l5.54,19.39h-2.88l-1-3.6h-6.23l-1,3.6h-2.88Zm-0.94,13h4.74c-0.5-1.74-1.05-3.52-2.38-8.17Z"/>
    <path class="5fee0bf2-8950-4bf3-a304-cbecf339a938" d="M149,349.32c0,3.9-2.69,5.23-5.57,5.23-5.54,0-6.26-4.46-6.26-9.83s0.72-9.83,6.26-9.83c2.88,0,5.57,1.38,5.57,5.23v1.25H146.3v-1.25c0-1.77-1.08-2.49-2.83-2.49-3.1,0-3.49,2.8-3.49,7.09s0.39,7.09,3.49,7.09c1.72,0,2.8-.8,2.8-2.49v-1.25H149v1.25Z"/>
    <path class="5fee0bf2-8950-4bf3-a304-cbecf339a938" d="M154.3,335h2.8v9.36h5.15V335H165v19.39h-2.8v-7.28H157.1v7.28h-2.8V335Z"/>
    <path class="5fee0bf2-8950-4bf3-a304-cbecf339a938" d="M176.9,335h10.5v2.74h-3.85v16.64h-2.8V337.77H176.9V335Z"/>
    <path class="5fee0bf2-8950-4bf3-a304-cbecf339a938" d="M192.11,335h2.8v9.36h5.15V335h2.8v19.39h-2.8v-7.28H194.9v7.28h-2.8V335Z"/>
    <path class="5fee0bf2-8950-4bf3-a304-cbecf339a938" d="M208.11,335h9.11v2.74h-6.31v6h5.26v2.74h-5.26v5.15h6.51v2.74h-9.31V335Z"/>
    <path class="5fee0bf2-8950-4bf3-a304-cbecf339a938" d="M230.1,335h5.43c4.26,0,5.29,3.07,5.29,5.54a5.67,5.67,0,0,1-1.33,3.71,5.43,5.43,0,0,1,2.35,4.54c0,2.49-.83,5.59-6.31,5.59H230.1V335Zm2.8,8.2h2.35c2.38,0,2.77-1.58,2.77-2.66s-0.19-2.8-2.49-2.8H232.9v5.46Zm0,8.45h2.63c3.07-.08,3.52-1.3,3.52-2.85s-0.66-2.85-3.79-2.85H232.9v5.71Z"/>
    <path class="5fee0bf2-8950-4bf3-a304-cbecf339a938" d="M248.93,335v13.74c0,2,.83,3,3,3s3-1,3-3V335h2.8v13.74c0,4.1-2.3,5.79-5.84,5.79s-5.76-1.69-5.76-5.79V335h2.8Z"/>
    <path class="5fee0bf2-8950-4bf3-a304-cbecf339a938" d="M263.14,335h2.77v16.53h6.15v2.85h-8.92V335Z"/>
    <path class="5fee0bf2-8950-4bf3-a304-cbecf339a938" d="M276.77,335h5.43c4.26,0,5.29,3.07,5.29,5.54a5.67,5.67,0,0,1-1.33,3.71,5.43,5.43,0,0,1,2.35,4.54c0,2.49-.83,5.59-6.31,5.59h-5.43V335Zm2.8,8.2h2.35c2.38,0,2.77-1.58,2.77-2.66s-0.19-2.8-2.49-2.8h-2.63v5.46Zm0,8.45h2.63c3.07-.08,3.52-1.3,3.52-2.85S285,346,281.92,346h-2.35v5.71Z"/>
  </g>
  <g>
    <path class="66d218f4-4c88-41ca-9186-0c00c371aa53" d="M154.11,136.59a29.43,29.43,0,0,1,58.87,0"/>
    <polygon class="89b27613-7818-480d-903b-38bf08746f8e" points="150.43 199.14 135.72 199.14 135.72 213.86 231.37 213.86 231.37 199.14 209.3 199.14 150.43 199.14"/>
    <polygon class="89b27613-7818-480d-903b-38bf08746f8e" points="135.72 177.07 150.43 177.07 209.3 177.07 231.37 177.07 231.37 162.35 135.72 162.35 135.72 177.07"/>
    <path class="04a72d53-bb84-48de-9963-bff0160a2626" d="M253.45,224.89V151.31a11.32,11.32,0,0,0-11-11H224a11,11,0,0,0-22.08,0H165.15a11,11,0,0,0-22.08,0h-18.4a11.32,11.32,0,0,0-11,11v75.06c-1.91.74,1.46,1.62-.41,2.42H253.16l-0.44-.21C253.45,227.84,253.45,226.37,253.45,224.89Z"/>
    <polygon class="780c1484-fe6c-46a1-bc3f-b38b0effecbf" points="231.37 213.86 135.72 213.86 135.72 199.14 150.43 199.14 209.3 199.14 231.37 199.14 231.37 213.86"/>
    <polygon class="780c1484-fe6c-46a1-bc3f-b38b0effecbf" points="231.37 177.07 209.3 177.07 150.43 177.07 135.72 177.07 135.72 162.35 231.37 162.35 231.37 177.07"/>
  </g>
  <line class="4e468953-37f4-4f33-9f5c-5d4822cfce70" x1="183.55" y1="107.16" x2="183.55"/>
</svg>
