<svg id="908ae42c-7599-44ab-90ac-feab5a28d59f" data-name="bulb_body" xmlns="http://www.w3.org/2000/svg" viewBox="0 0 366.48 908">
  <defs> 
    <style>
      .\33 3a3ffcb-0899-41e4-bee6-6b80f5a3b13f {
        fill: #1A535C;
      }

      .\33 52a9e97-db7f-48a0-8313-ee8558861877, .da4f92ee-68c0-4d24-be3e-072289442f3e, .dottedCir, .f14d2c7d-b232-4bca-b307-89a3742ee606 {
        fill: none;
      }

      .\30 614c13b-e7c5-4caa-8855-a4e56a16ce17, .hitZone {
        fill: #fff;
      }

      .hitZone {
        opacity: 0.07;
        isolation: isolate;
      }

      .dottedCir {
        stroke: #fff;
        stroke-width: 4px;
        stroke-dasharray: 12.12 12.12;
      }

      .\33 52a9e97-db7f-48a0-8313-ee8558861877, .da4f92ee-68c0-4d24-be3e-072289442f3e, .dottedCir {
        stroke-miterlimit: 10;
      }

      .da4f92ee-68c0-4d24-be3e-072289442f3e {
        stroke: #353535;
        stroke-width: 5px;
      }

      .\38 7e6caf0-e100-4e16-8f45-571eed4cd459 {
        fill: #353535;
      }

      .\33 52a9e97-db7f-48a0-8313-ee8558861877 {
        stroke: #353535;
        stroke-width: 9px;
      }
    </style>
  </defs>
  <title>elec-bulb-tail</title>
  <g id="bulb_glass_1" data-name="bulb_glass_0">
    <path class="33a3ffcb-0899-41e4-bee6-6b80f5a3b13f" d="M133.86,229.71h98.78a6.59,6.59,0,0,0,0-13.17H133.86a6.59,6.59,0,0,0,0,13.17h0Z"/>
    <path class="33a3ffcb-0899-41e4-bee6-6b80f5a3b13f" d="M133.86,207.5h98.78a6.59,6.59,0,0,0,0-13.17H133.86a6.59,6.59,0,0,0,0,13.17h0Z"/>
    <path class="33a3ffcb-0899-41e4-bee6-6b80f5a3b13f" d="M149.33,185.27h67.84a6.59,6.59,0,0,0,0-13.16H149.35a6.59,6.59,0,0,0-.6,13.16h0.58Z"/>
    <path class="33a3ffcb-0899-41e4-bee6-6b80f5a3b13f" d="M164.82,163.08h37a6.59,6.59,0,0,0,0-13.17h-37A6.59,6.59,0,0,0,164.82,163.08Z"/>
    <g>
      <path class="33a3ffcb-0899-41e4-bee6-6b80f5a3b13f" d="M183.25,410.86a20.81,20.81,0,0,0,20.83-20.78h0V229.71H191.16V390.08a7.92,7.92,0,1,1-15.84,0h0V229.71H162.47V390.08A20.81,20.81,0,0,0,183.25,410.86Z"/>
      <path class="33a3ffcb-0899-41e4-bee6-6b80f5a3b13f" d="M219.11,229.71V407.53h0A14.09,14.09,0,0,1,205,421.6H161.48a14.09,14.09,0,0,1-14.09-14.07V229.71H134.53V407.53a27,27,0,0,0,26.92,26.94H205a27,27,0,0,0,26.92-26.94V229.71H219.11Z"/>
    </g>
  </g>
  <g id="bulb_glass_1" data-name="bulb_glass_0">
    <path class="33a3ffcb-0899-41e4-bee6-6b80f5a3b13f" d="M143.32,211.85h80.36a5.32,5.32,0,0,0,5.33-5.33,5.41,5.41,0,0,0-5.33-5.33H143.32A5.33,5.33,0,0,0,143.32,211.85Z"/>
    <path class="33a3ffcb-0899-41e4-bee6-6b80f5a3b13f" d="M143.32,193.71h80.36a5.32,5.32,0,0,0,5.33-5.33,5.41,5.41,0,0,0-5.33-5.33H143.32A5.33,5.33,0,0,0,143.32,193.71Z"/>
    <path class="33a3ffcb-0899-41e4-bee6-6b80f5a3b13f" d="M155.85,175.71h55.3a5.32,5.32,0,0,0,5.33-5.33,5.41,5.41,0,0,0-5.33-5.33h-55.3A5.33,5.33,0,0,0,155.85,175.71Z"/>
    <path class="33a3ffcb-0899-41e4-bee6-6b80f5a3b13f" d="M168.38,157.56h30.1a5.32,5.32,0,0,0,5.33-5.33,5.41,5.41,0,0,0-5.33-5.33h-30.1a5.32,5.32,0,0,0-5.33,5.33,5.41,5.41,0,0,0,5.33,5.33h0Z"/>
    <path class="33a3ffcb-0899-41e4-bee6-6b80f5a3b13f" d="M183.5,467.6A112.53,112.53,0,0,0,296,355.14a105.45,105.45,0,0,0-.58-11.66c-6.19-75.89-70.85-90.44-70.85-124.13h-81.8c0,33.7-64.8,48.24-71,124.13A112.52,112.52,0,0,0,172,467C175.72,467.32,179.61,467.6,183.5,467.6ZM82.26,344.48v-0.29c3.31-40.75,24.62-61.63,43.63-79.92C137.13,253.33,147.79,243,151.68,230H176.3L136,319.57a5.32,5.32,0,1,0,9.36,5,2.43,2.43,0,0,0,.29-0.72l37.87-84.1,37.87,84a5.28,5.28,0,0,0,7.2,2.16,5.38,5.38,0,0,0,2.45-6.48L190.7,229.85h24.48c3.89,13,14.54,23.47,25.78,34.27,18.86,18.43,40.32,39.17,43.63,79.92v0.14a88.08,88.08,0,0,1,.58,10.66,101.81,101.81,0,1,1-203.62,0C81.69,351.54,81.83,347.94,82.26,344.48Z"/>
  </g>
  
  <circle class="hitZone" cx="183.24" cy="271.76" r="181.24"/>
    <circle class="dottedCir" cx="183.24" cy="271.76" r="181.24"/>
  <g class="hintText">
      
  
    <path class="0614c13b-e7c5-4caa-8855-a4e56a16ce17" d="M81.3,335h2.85l5.54,19.39H86.81l-1-3.6h-6.2l-1,3.6H75.76Zm-0.94,13H85.1c-0.5-1.74-1.05-3.52-2.38-8.17Z"/>
    <path class="0614c13b-e7c5-4caa-8855-a4e56a16ce17" d="M92.18,335h10.5v2.74H98.83v16.64H96V337.77H92.18V335Z"/>
    <path class="0614c13b-e7c5-4caa-8855-a4e56a16ce17" d="M106.28,335h10.5v2.74h-3.85v16.64h-2.8V337.77h-3.85V335Z"/>
    <path class="0614c13b-e7c5-4caa-8855-a4e56a16ce17" d="M124.95,335h2.85l5.54,19.39h-2.88l-1-3.6h-6.23l-1,3.6h-2.88ZM124,348h4.74c-0.5-1.74-1.05-3.52-2.38-8.17Z"/>
    <path class="0614c13b-e7c5-4caa-8855-a4e56a16ce17" d="M149,349.32c0,3.9-2.69,5.23-5.57,5.23-5.54,0-6.26-4.46-6.26-9.83s0.72-9.83,6.26-9.83c2.88,0,5.57,1.38,5.57,5.23v1.25h-2.7v-1.25c0-1.77-1.08-2.49-2.83-2.49-3.1,0-3.49,2.8-3.49,7.09s0.39,7.09,3.49,7.09c1.72,0,2.8-.8,2.8-2.49v-1.25H149v1.25h0Z"/>
    <path class="0614c13b-e7c5-4caa-8855-a4e56a16ce17" d="M154.3,335h2.8v9.36h5.15V335H165v19.39h-2.8v-7.28h-5.1v7.28h-2.8V335Z"/>
    <path class="0614c13b-e7c5-4caa-8855-a4e56a16ce17" d="M176.9,335h10.5v2.74h-3.85v16.64h-2.8V337.77H176.9V335Z"/>
    <path class="0614c13b-e7c5-4caa-8855-a4e56a16ce17" d="M192.11,335h2.8v9.36h5.15V335h2.8v19.39h-2.8v-7.28H194.9v7.28h-2.8V335h0Z"/>
    <path class="0614c13b-e7c5-4caa-8855-a4e56a16ce17" d="M208.11,335h9.11v2.74h-6.31v6h5.26v2.74h-5.26v5.15h6.51v2.74h-9.31V335Z"/>
    <path class="0614c13b-e7c5-4caa-8855-a4e56a16ce17" d="M230.1,335h5.43c4.26,0,5.29,3.07,5.29,5.54a5.67,5.67,0,0,1-1.33,3.71,5.43,5.43,0,0,1,2.35,4.54c0,2.49-.83,5.59-6.31,5.59H230.1V335Zm2.8,8.2h2.35c2.38,0,2.77-1.58,2.77-2.66s-0.19-2.8-2.49-2.8H232.9v5.46h0Zm0,8.45h2.63c3.07-.08,3.52-1.3,3.52-2.85s-0.66-2.85-3.79-2.85H232.9v5.71h0Z"/>
    <path class="0614c13b-e7c5-4caa-8855-a4e56a16ce17" d="M248.93,335v13.74c0,2,.83,3,3,3s3-1,3-3V335h2.8v13.74c0,4.1-2.3,5.79-5.84,5.79s-5.76-1.69-5.76-5.79V335h2.8Z"/>
    <path class="0614c13b-e7c5-4caa-8855-a4e56a16ce17" d="M263.14,335h2.77v16.53h6.15v2.85h-8.92V335h0Z"/>
    <path class="0614c13b-e7c5-4caa-8855-a4e56a16ce17" d="M276.77,335h5.43c4.26,0,5.29,3.07,5.29,5.54a5.67,5.67,0,0,1-1.33,3.71,5.43,5.43,0,0,1,2.35,4.54c0,2.49-.83,5.59-6.31,5.59h-5.43V335h0Zm2.8,8.2h2.35c2.38,0,2.77-1.58,2.77-2.66s-0.19-2.8-2.49-2.8h-2.63v5.46Zm0,8.45h2.63c3.07-.08,3.52-1.3,3.52-2.85s-0.72-2.8-3.8-2.8h-2.35v5.65Z"/>
  </g>
  <g>
    <path class="da4f92ee-68c0-4d24-be3e-072289442f3e" d="M154.11,136.59a29.43,29.43,0,0,1,58.87,0"/>
    <polygon class="87e6caf0-e100-4e16-8f45-571eed4cd459" points="150.43 199.14 135.72 199.14 135.72 213.86 231.37 213.86 231.37 199.14 209.3 199.14 150.43 199.14"/>
    <polygon class="87e6caf0-e100-4e16-8f45-571eed4cd459" points="135.72 177.07 150.43 177.07 209.3 177.07 231.37 177.07 231.37 162.35 135.72 162.35 135.72 177.07"/>
    <path class="87e6caf0-e100-4e16-8f45-571eed4cd459" d="M253.45,224.89V151.31a11.32,11.32,0,0,0-11-11H224a11,11,0,1,0-22.08,0H165.15a11,11,0,1,0-22.08,0h-18.4a11.32,11.32,0,0,0-11,11v75.06c-1.91.74,1.46,1.62-.41,2.42h139.9l-0.44-.21C253.45,227.84,253.45,226.37,253.45,224.89Z"/>
    <polygon class="33a3ffcb-0899-41e4-bee6-6b80f5a3b13f" points="231.37 213.86 135.72 213.86 135.72 199.14 150.43 199.14 209.3 199.14 231.37 199.14 231.37 213.86"/>
    <polygon class="33a3ffcb-0899-41e4-bee6-6b80f5a3b13f" points="231.37 177.07 209.3 177.07 150.43 177.07 135.72 177.07 135.72 162.35 231.37 162.35 231.37 177.07"/>
  </g>
  <line class="352a9e97-db7f-48a0-8313-ee8558861877" x1="183.55" y1="107.16" x2="183.55"/>
</svg>
