<svg id="41af7660-7714-40a3-b72e-c8961062c367" data-name="Layer 2" xmlns="http://www.w3.org/2000/svg" viewBox="0 -20 446 800">
  <defs>
    <style>
      .\31 f6d3196-c49d-49e1-8e33-18b317e28a45, .daec1826-eaab-4448-b313-e6abcd277d43 {
        fill: #fff;
      }

      .\32 2fd3e9e-a5c5-4911-8985-8df7eb668e3a {
        fill: #2f404f;
      }

      .\31 f6d3196-c49d-49e1-8e33-18b317e28a45, .\36 7d6dec6-b398-47b4-97ee-548db74534bb, .a5047884-8bf6-4b91-95cc-d8a676b0121f, .a9a13da9-9345-46d1-a320-c9b71331183a, .c1d800a0-b987-47db-a1ac-5e4bf9593b85 {
        stroke: #2f404f;
        stroke-miterlimit: 10;
      }

      .\31 f6d3196-c49d-49e1-8e33-18b317e28a45, .\36 7d6dec6-b398-47b4-97ee-548db74534bb, .a5047884-8bf6-4b91-95cc-d8a676b0121f, .a9a13da9-9345-46d1-a320-c9b71331183a {
        stroke-width: 3px;
      }

      .\36 7d6dec6-b398-47b4-97ee-548db74534bb, .c1d800a0-b987-47db-a1ac-5e4bf9593b85 {
        fill: #ffe66d;
      }

      .c1d800a0-b987-47db-a1ac-5e4bf9593b85 {
        stroke-width: 4px;
      }

      .a5047884-8bf6-4b91-95cc-d8a676b0121f {
        fill: #f7fff7;
      }

      .a9a13da9-9345-46d1-a320-c9b71331183a {
        fill: #ff6b6b;
      }
    </style>
  </defs>
  <title>faucet</title>
  <rect class="daec1826-eaab-4448-b313-e6abcd277d43" width="446" height="800"/>
  <g id="5f8bbf5b-697f-4c36-adba-9ca65f6b126f" class="waterdrop_1" data-name="drop">
    <path class="22fd3e9e-a5c5-4911-8985-8df7eb668e3a" d="M426.14,178.21a10.67,10.67,0,0,1-10-14.38c2-7.26,7.66-13.18,7.9-13.43a2.57,2.57,0,0,1,1.82-.78h0a2.59,2.59,0,0,1,1.78.75c6.22,6.22,8.19,11.73,8.81,14.47a10.45,10.45,0,0,1,.32,2,7,7,0,0,1,0,.72A10.69,10.69,0,0,1,426.14,178.21Zm-0.31-26.33a0.29,0.29,0,0,0-.19.09c-0.22.23-5.5,5.77-7.36,12.51l0,0.1a8.42,8.42,0,1,0,16.31,3v0h0a4.85,4.85,0,0,0,0-.49v0a8.17,8.17,0,0,0-.25-1.59v0c-0.56-2.5-2.37-7.56-8.21-13.39A0.33,0.33,0,0,0,425.84,151.87Z"/>
    <path class="22fd3e9e-a5c5-4911-8985-8df7eb668e3a" d="M426.44,174.69a0.85,0.85,0,0,1-.12-1.69,6.25,6.25,0,0,0,5.05-4.14,0.85,0.85,0,0,1,1.6.56,7.94,7.94,0,0,1-6.42,5.26h-0.12Z"/>
  </g>
  <g id="7ccf89c7-a743-4e91-9420-6b61be235739" class="waterdrop_0" data-name="drop">
    <path class="22fd3e9e-a5c5-4911-8985-8df7eb668e3a" d="M399.45,174.6a12.84,12.84,0,0,1-12.06-17.31c2.44-8.73,9.21-15.85,9.5-16.15a3.09,3.09,0,0,1,2.19-.94h0.06a3.12,3.12,0,0,1,2.14.9c7.48,7.48,9.85,14.11,10.6,17.41a12.58,12.58,0,0,1,.38,2.41,8.43,8.43,0,0,1,0,.87A12.86,12.86,0,0,1,399.45,174.6Zm-0.37-31.68a0.35,0.35,0,0,0-.23.11c-0.27.28-6.61,6.95-8.85,15.05l0,0.11a10.13,10.13,0,1,0,19.63,3.58v0h0a5.84,5.84,0,0,0,0-.58v0a9.83,9.83,0,0,0-.3-1.92v-0.06c-0.68-3-2.86-9.09-9.88-16.11A0.4,0.4,0,0,0,399.08,142.92Z"/>
    <path class="22fd3e9e-a5c5-4911-8985-8df7eb668e3a" d="M399.81,170.36a1,1,0,0,1-.14-2,7.52,7.52,0,0,0,6.08-5,1,1,0,0,1,1.92.67,9.55,9.55,0,0,1-7.72,6.33h-0.14Z"/>
  </g>
  <polyline class="1f6d3196-c49d-49e1-8e33-18b317e28a45" points="0.61 122.37 385.11 122.37 385.11 149.37 437.11 149.37 437.11 121.02 437.11 78.37 0.61 78.37"/>
  <rect class="c1d800a0-b987-47db-a1ac-5e4bf9593b85" x="140.81" y="70.87" width="201.6" height="60"/>
  <circle class="22fd3e9e-a5c5-4911-8985-8df7eb668e3a" cx="240.91" cy="100.87" r="13.98"/>
  <circle class="22fd3e9e-a5c5-4911-8985-8df7eb668e3a" cx="131.98" cy="86.89" r="2.49"/>
  <circle class="22fd3e9e-a5c5-4911-8985-8df7eb668e3a" cx="131.98" cy="114.84" r="2.49"/>
  <rect class="67d6dec6-b398-47b4-97ee-548db74534bb" x="379.4" y="141.83" width="64.49" height="15.57"/>
  <g class="waterHandler">
    <rect class="a5047884-8bf6-4b91-95cc-d8a676b0121f" x="256.63" y="29.52" width="12.6" height="78.8" transform="translate(84.59 -136.2) rotate(34.31)"/>
    <rect class="a9a13da9-9345-46d1-a320-c9b71331183a" x="276.58" y="2.96" width="18.98" height="64.11" transform="translate(69.5 -155.14) rotate(34.31)"/>
  </g>
</svg>
