<svg id="1e3d12e3-9f8c-44a7-a891-53d1599b5759" data-name="Layer 1" xmlns="http://www.w3.org/2000/svg" viewBox="0 0 94.77 94.77">
  <defs>
    <style>
      .\33 6f20c35-2c2f-419c-99dd-51738d1d82d5 {
        fill: none;
        stroke: #fff;
        stroke-miterlimit: 10;
        stroke-width: 3px;
      }
    </style>
  </defs>
  <title>asdas</title>
  <g id="1695250e-94d3-446c-8b07-14775b36d5d3" data-name="fire">
    <path class="36f20c35-2c2f-419c-99dd-51738d1d82d5" d="M-75,75.55s-16.8-5.7-16.8-19.1,8.3-14.3,13.7-22.1,5.3-9.9,5.3-9.9a23.79,23.79,0,0,1,6.9,9.9c2.7,6.8,0,16,0,16a16,16,0,0,0,5.3-4.6,24.43,24.43,0,0,0,3.1-6.9s5.3,5.1,5.3,15.3a25.76,25.76,0,0,1-11.4,21.4s-7-6.2-9.2-10.7a69.25,69.25,0,0,1-3.8-9.9s-3.1,4.3-3.1,8.4C-79.46,71.45-75,75.55-75,75.55Z" transform="translate(118.71 -2.62)"/>
  </g>
  <circle class="36f20c35-2c2f-419c-99dd-51738d1d82d5" cx="47.38" cy="47.38" r="45.88"/>
</svg>
