<svg id="4b56def5-da89-4335-b6ec-270631b09586" data-name="Layer 1" xmlns="http://www.w3.org/2000/svg" viewBox="0 0 94.77 94.77">
  <defs>
    <style>
      .\36 97ca4b5-fd4f-4ce8-aaa9-c83c9bbbfccd, .fe9193b6-2a56-4848-81a0-736b17a5cfe8 {
        fill: none;
      }

      .\36 97ca4b5-fd4f-4ce8-aaa9-c83c9bbbfccd {
        stroke: #153D43;
        stroke-miterlimit: 10;
        stroke-width: 3px;
      }
         .crops-circle {
        fill:none;
        stroke: #FBF18F;
        stroke-miterlimit: 10;
        stroke-width: 3px;
      }

      .\38 abbf572-6c25-4b44-a811-ae8a61f3f94a {
        fill: #23C985;
      }
    </style>
  </defs>
  <title>sad</title>
  
    <path class="8abbf572-6c25-4b44-a811-ae8a61f3f94a" d="M177.56,56.81a1.2,1.2,0,0,0-1.16,1A27.37,27.37,0,0,0,176,60.7a9.79,9.79,0,0,0,.51,5c0.91,1.89,2.89,3.35,4.64,4.54a37.77,37.77,0,0,0,3.32,2,1.2,1.2,0,0,0,1.73-.82,27.37,27.37,0,0,0,.42-2.93,9.79,9.79,0,0,0-.51-5c-0.91-1.89-2.89-3.35-4.64-4.54a37.39,37.39,0,0,0-3.32-2,1.2,1.2,0,0,0-.58-0.14h0Zm1,3.17a17,17,0,0,1,1.59,1,13.3,13.3,0,0,1,3.83,3.6,9.83,9.83,0,0,1,.28,3.8c0,0.51-.07.52-0.13,0.93a17,17,0,0,1-1.59-1,13.3,13.3,0,0,1-3.83-3.6,9.83,9.83,0,0,1-.28-3.8C178.43,60.4,178.46,60.39,178.52,60Z" transform="translate(-139.33 -2.62)"/>
    <path class="8abbf572-6c25-4b44-a811-ae8a61f3f94a" d="M193.39,50.8a1.2,1.2,0,0,0-.51.14,37.39,37.39,0,0,0-3.32,2c-1.75,1.19-3.73,2.66-4.64,4.54a9.79,9.79,0,0,0-.51,5,27.37,27.37,0,0,0,.42,2.93,1.2,1.2,0,0,0,1.73.82,37.81,37.81,0,0,0,3.32-2c1.75-1.19,3.73-2.65,4.64-4.54a9.79,9.79,0,0,0,.51-5,27.36,27.36,0,0,0-.42-2.93,1.2,1.2,0,0,0-1.22-1h0ZM192.5,54c0.06,0.4.09,0.42,0.13,0.93a9.83,9.83,0,0,1-.28,3.8,13.3,13.3,0,0,1-3.83,3.6,17,17,0,0,1-1.59,1c-0.06-.4-0.09-0.42-0.13-0.93a9.83,9.83,0,0,1,.28-3.8,13.3,13.3,0,0,1,3.83-3.6A17,17,0,0,1,192.5,54Z" transform="translate(-139.33 -2.62)"/>
    <path class="8abbf572-6c25-4b44-a811-ae8a61f3f94a" d="M177.56,42.39a1.2,1.2,0,0,0-1.16,1,27.37,27.37,0,0,0-.42,2.93,9.79,9.79,0,0,0,.51,5c0.91,1.89,2.89,3.35,4.64,4.54a37.77,37.77,0,0,0,3.32,2,1.2,1.2,0,0,0,1.73-.82,27.37,27.37,0,0,0,.42-2.93,9.79,9.79,0,0,0-.51-5c-0.91-1.89-2.89-3.35-4.64-4.54a37.39,37.39,0,0,0-3.32-2,1.2,1.2,0,0,0-.58-0.14h0Zm1,3.17a17,17,0,0,1,1.59,1,13.3,13.3,0,0,1,3.83,3.6,9.83,9.83,0,0,1,.28,3.8c0,0.51-.07.52-0.13,0.93a17,17,0,0,1-1.59-1,13.3,13.3,0,0,1-3.83-3.6,9.83,9.83,0,0,1-.28-3.8C178.43,46,178.46,46,178.52,45.56Z" transform="translate(-139.33 -2.62)"/>
    <path class="8abbf572-6c25-4b44-a811-ae8a61f3f94a" d="M193.39,35.17a1.2,1.2,0,0,0-.51.14,37.39,37.39,0,0,0-3.32,2c-1.75,1.19-3.73,2.66-4.64,4.54a9.79,9.79,0,0,0-.51,5,27.37,27.37,0,0,0,.42,2.93,1.2,1.2,0,0,0,1.73.82,37.81,37.81,0,0,0,3.32-2c1.75-1.19,3.73-2.65,4.64-4.54a9.79,9.79,0,0,0,.51-5,27.37,27.37,0,0,0-.42-2.93,1.2,1.2,0,0,0-1.22-1h0Zm-0.89,3.17c0.06,0.4.09,0.42,0.13,0.93a9.83,9.83,0,0,1-.28,3.8,13.3,13.3,0,0,1-3.83,3.6,17,17,0,0,1-1.59,1c-0.06-.4-0.09-0.42-0.13-0.93a9.83,9.83,0,0,1,.28-3.8,13.3,13.3,0,0,1,3.83-3.6A17,17,0,0,1,192.5,38.34Z" transform="translate(-139.33 -2.62)"/>
    <path class="8abbf572-6c25-4b44-a811-ae8a61f3f94a" d="M177.56,28a1.2,1.2,0,0,0-1.16,1,27.36,27.36,0,0,0-.42,2.93,9.79,9.79,0,0,0,.51,5c0.91,1.89,2.89,3.35,4.64,4.54a37.8,37.8,0,0,0,3.32,2,1.2,1.2,0,0,0,1.73-.82,27.36,27.36,0,0,0,.42-2.93,9.79,9.79,0,0,0-.51-5c-0.91-1.89-2.89-3.35-4.64-4.54a37.42,37.42,0,0,0-3.32-2,1.2,1.2,0,0,0-.58-0.14h0Zm1,3.17a17,17,0,0,1,1.59,1,13.3,13.3,0,0,1,3.83,3.6,9.83,9.83,0,0,1,.28,3.8c0,0.51-.07.52-0.13,0.93a17,17,0,0,1-1.59-1,13.3,13.3,0,0,1-3.83-3.6,9.83,9.83,0,0,1-.28-3.8C178.43,31.55,178.46,31.54,178.52,31.13Z" transform="translate(-139.33 -2.62)"/>
    <path class="8abbf572-6c25-4b44-a811-ae8a61f3f94a" d="M185.49,62.82A1.2,1.2,0,0,0,184.31,64V76a1.2,1.2,0,0,0,2.4,0s0,0,0,0V64a1.2,1.2,0,0,0-1.19-1.22h0Z" transform="translate(-139.33 -2.62)"/>
    <path class="8abbf572-6c25-4b44-a811-ae8a61f3f94a" d="M189.1,20.75a1.2,1.2,0,0,0-.68.23,25.14,25.14,0,0,0-2.16,1.84,9.78,9.78,0,0,0-2.88,4c-0.56,1.93-.18,4.27.23,6.27s0.93,3.62.93,3.62a1.2,1.2,0,0,0,1.83.62,27.54,27.54,0,0,0,2.77-2.26c1.43-1.33,3-3,3.46-5,0.39-1.89-.32-3.92-1-5.63a29.42,29.42,0,0,0-1.42-3.06A1.2,1.2,0,0,0,189.1,20.75Zm-0.38,3.14a12.89,12.89,0,0,1,.66,1.43,10.24,10.24,0,0,1,.88,4.26,9.79,9.79,0,0,1-2.75,3.77,11.34,11.34,0,0,1-1.12.92,16.51,16.51,0,0,1-.42-1.62,13.85,13.85,0,0,1-.28-5.11,9.4,9.4,0,0,1,2.23-3,9.66,9.66,0,0,1,.79-0.67h0Z" transform="translate(-139.33 -2.62)"/>
    <path class="8abbf572-6c25-4b44-a811-ae8a61f3f94a" d="M179.45,22a1.2,1.2,0,0,0-1.09,1.6l1.19,3.57a1.2,1.2,0,1,0,2.31-.67l0-.09-1.19-3.57A1.2,1.2,0,0,0,179.45,22Z" transform="translate(-139.33 -2.62)"/>
    <path class="8abbf572-6c25-4b44-a811-ae8a61f3f94a" d="M196.33,24.36a1.2,1.2,0,0,0-1.15.84L194,28.77a1.2,1.2,0,0,0,2.25.85l0-.09L197.46,26A1.2,1.2,0,0,0,196.33,24.36Z" transform="translate(-139.33 -2.62)"/>
  </g>
  <path class="fe9193b6-2a56-4848-81a0-736b17a5cfe8" d="M221.74,76.51a3,3,0,0,0-2.09.83,5,5,0,0,1-6.62,0,3,3,0,0,0-4.18,0,5,5,0,0,1-6.62,0,3,3,0,0,0-4.18,0,5,5,0,0,1-6.62,0,3,3,0,0,0-4.17,0,5,5,0,0,1-6.62,0,3,3,0,0,0-4.17,0,5,5,0,0,1-6.62,0,3,3,0,0,0-4.17,0,5,5,0,0,1-6.62,0,3,3,0,0,0-4.17,0,4.89,4.89,0,0,1-3.31,1.25,5.3,5.3,0,0,1-.82-0.07,45.87,45.87,0,0,0,72.87-1.31A2.78,2.78,0,0,0,221.74,76.51Z" transform="translate(-139.33 -2.62)"/>
  <path class="8abbf572-6c25-4b44-a811-ae8a61f3f94a" d="M154.91,77.34a3,3,0,0,1,4.17,0,5,5,0,0,0,6.62,0,3,3,0,0,1,4.17,0,5,5,0,0,0,6.62,0,3,3,0,0,1,4.17,0,5,5,0,0,0,6.62,0,3,3,0,0,1,4.17,0,5,5,0,0,0,6.62,0,3,3,0,0,1,4.18,0,5,5,0,0,0,6.62,0,3,3,0,0,1,4.18,0,5,5,0,0,0,6.62,0,3,3,0,0,1,2.09-.83,2.78,2.78,0,0,1,1.91.7c0.4-.54.78-1.08,1.16-1.64a4.71,4.71,0,0,0-3.07-1.06,4.9,4.9,0,0,0-3.31,1.25,3,3,0,0,1-4.18,0,5,5,0,0,0-6.62,0,3,3,0,0,1-4.17,0,5,5,0,0,0-6.62,0,3,3,0,0,1-4.17,0,5,5,0,0,0-6.62,0,3,3,0,0,1-4.17,0,5,5,0,0,0-6.61,0,3,3,0,0,1-4.17,0,5,5,0,0,0-6.62,0,3,3,0,0,1-4.17,0,5,5,0,0,0-6.62,0,3,3,0,0,1-4.17,0,6.51,6.51,0,0,0-1.33-.85q1.21,1.87,2.6,3.61a5.3,5.3,0,0,0,.82.07A4.89,4.89,0,0,0,154.91,77.34Z" transform="translate(-139.33 -2.62)"/>
     <circle class="697ca4b5-fd4f-4ce8-aaa9-c83c9bbbfccd" cx="47.38" cy="47.38" r="45.88"/>
  <g>
    <path  class="crops-circle" d="M47.4,1.5c25.3,0,45.9,20.5,45.9,45.9S72.7,93.3,47.4,93.3S1.5,72.7,1.5,47.4S22,1.5,47.4,1.5"/>
</svg>
