<svg id="0c477169-1a2a-45b6-9950-25cdb395aad4" data-name="Layer 1" xmlns="http://www.w3.org/2000/svg" viewBox="0 0 94.77 94.77">
  <defs>
    <style>
      .\36 87a40ba-41b2-4801-8a7b-027240c6ee3f {
        fill: none;
        stroke: #153D43;
        stroke-miterlimit: 10;
        stroke-width: 3px;
      }
        .fuel-circle {
        fill:none;
        stroke: #FBF18F;
        stroke-miterlimit: 10;
        stroke-width: 3px;
      }
        .fire {
        fill:none;
        stroke: #FF6B6B;
        stroke-miterlimit: 10;
        stroke-width: 3px;
        }
    </style>
  </defs>
  <title>fuel</title>
  <path class="fire" d="M-75,75.55s-16.8-5.7-16.8-19.1,8.3-14.3,13.7-22.1,5.3-9.9,5.3-9.9a23.79,23.79,0,0,1,6.9,9.9c2.7,6.8,0,16,0,16a16,16,0,0,0,5.3-4.6,24.43,24.43,0,0,0,3.1-6.9s5.3,5.1,5.3,15.3a25.76,25.76,0,0,1-11.4,21.4s-7-6.2-9.2-10.7a69.25,69.25,0,0,1-3.8-9.9s-3.1,4.3-3.1,8.4C-79.46,71.45-75,75.55-75,75.55Z" transform="translate(118.71 -2.62)"/>
  <circle class="687a40ba-41b2-4801-8a7b-027240c6ee3f" cx="47.38" cy="47.38" r="45.88"/>
    <path  class="fuel-circle" d="M47.4,1.5c25.3,0,45.9,20.5,45.9,45.9S72.7,93.3,47.4,93.3S1.5,72.7,1.5,47.4S22,1.5,47.4,1.5"/>
</svg>
