<svg xmlns="http://www.w3.org/2000/svg" xmlns:xlink="http://www.w3.org/1999/xlink" version="1.1" x="0px" y="0px" viewBox="0 0 48 60" enable-background="new 0 0 48 48" xml:space="preserve"><g><path fill="#000000" d="M40.882,22.804c-1.08-3.81-4.952-13.205-16.881-13.205c-12.745,0-16.15,9.369-17.013,13.244   c-4.465,1.579-6.836,3.662-6.836,6.036c0,4.12,8.353,8.5,23.832,8.5s23.832-4.38,23.832-8.5   C47.815,26.516,45.353,24.367,40.882,22.804z M24.001,11.149c12.653,0,15.313,11.289,15.674,13.206   c-1.33,2.026-7.409,4.053-15.71,4.053c-8.331,0-14.406-2.015-15.688-4.023C8.485,22.562,10.342,11.149,24.001,11.149z    M23.984,35.828c-13.131,0-22.281-3.663-22.281-6.95c0-1.491,1.815-3.02,4.998-4.274l-0.008,0.102l0.095,0.19   c1.479,2.981,8.543,5.063,17.177,5.063s15.713-2.103,17.215-5.113l0.109-0.219l-0.003-0.017c3.139,1.245,4.98,2.801,4.98,4.27   C46.265,32.165,37.114,35.828,23.984,35.828z"/><path fill="#000000" d="M23.984,31.607c-1.232,0-2.092,0.481-2.092,1.171c0,0.688,0.86,1.17,2.092,1.17   c1.231,0,2.091-0.481,2.091-1.17C26.074,32.088,25.215,31.607,23.984,31.607z"/><path fill="#000000" d="M33.699,30.665c-1.221,0.155-2.013,0.743-1.926,1.428c0.075,0.572,0.724,0.928,1.694,0.928   c0.169,0,0.346-0.011,0.529-0.034c1.221-0.157,2.013-0.744,1.926-1.428C35.835,30.886,34.931,30.508,33.699,30.665z"/><path fill="#000000" d="M42.82,27.199c-0.414,0-0.91,0.129-1.398,0.364c-0.714,0.344-1.238,0.825-1.4,1.29   c-0.105,0.299-0.045,0.531,0.023,0.672c0.092,0.191,0.343,0.511,0.993,0.511c0.414,0,0.91-0.129,1.399-0.364   c1.109-0.534,1.675-1.34,1.376-1.963C43.721,27.518,43.47,27.199,42.82,27.199z"/><path fill="#000000" d="M14.626,30.665c-1.236-0.157-2.137,0.222-2.223,0.894c-0.029,0.228,0.016,0.666,0.654,1.032   c0.337,0.193,0.788,0.333,1.271,0.396c0.183,0.023,0.36,0.034,0.529,0.034c0.971,0,1.621-0.356,1.695-0.93   C16.639,31.408,15.847,30.821,14.626,30.665z"/><path fill="#000000" d="M6.903,27.563c-0.487-0.235-0.984-0.364-1.398-0.364c-0.651,0-0.902,0.32-0.995,0.512   c-0.298,0.621,0.268,1.427,1.377,1.961c0.487,0.235,0.984,0.364,1.398,0.364c0.651,0,0.902-0.32,0.995-0.511   C8.578,28.903,8.012,28.097,6.903,27.563z"/></g><text x="0" y="63" fill="#000000" font-size="5px" font-weight="bold" font-family="'Helvetica Neue', Helvetica, Arial-Unicode, Arial, Sans-serif">Created by Ainsley Wagoner</text><text x="0" y="68" fill="#000000" font-size="5px" font-weight="bold" font-family="'Helvetica Neue', Helvetica, Arial-Unicode, Arial, Sans-serif">from the Noun Project</text></svg>