<svg id="542f0d24-7137-4dee-b7be-d4ee4fff90b5" data-name="Layer 1" xmlns="http://www.w3.org/2000/svg" viewBox="0 0 71.05 89.53">
  <title>coral</title>
  <path d="M83.66,42.28c1.5-2.57,3-7.28.65-10.92s-4.71-1.93-3.43-.21,2.57,5.14,1.28,7.06S80.45,36.5,79,35.86,78.52,31.8,76,32s3.64,9.2,4.5,11.56-5.14,9.42-6,10.49,0-4.28-1.93-3.64-0.86,4.71-1.28,6.21S63.54,59,63.54,59,66.75,51.92,70,38.86s-1.07-22-3.43-21.4-1.28,4.49-.21,8.35S62.9,48.92,59.9,54.27,54.34,73.53,54.34,80s-2.78,6-6,4.28S50.27,59,56.26,49.78s5.35-27.18,5.35-32.1c0-4.57-3.31-7.84-3.79-7.78,0.23-.77.93-5-0.92-4.64-2.14.43-1.5,3.21-4.07,1.28s-1.71,2.35,1.93,6.85S58.19,23,55,22.6s-6.21-8.13-6.64-11.34-3.42-.64-3.64,2.78,6.85,12,10.7,15.84-2.78,13.91-2.78,13.91L52,42.29c-0.64-1.5,2.57-3.21,1.5-4.71s-1.71,2.14-4.5,2.57-4.07-4.07-3.85-4.28,3.64-10.92,1.5-10.7-0.86,3.42-2.35,4.07-2.14.43-2.35-3.21-4.71-10.7-9-15-3.85,1.72.64,5.14,5.14,7.92,5.78,16.05,10.7,13.91,12,15.41-4.07,5.14-4.5,6-9.42-9.2-9.63-15.84S34,28.38,32.93,27.31s0.64-5.14-1.5-7.28-1.5,5.35-.43,6.42S29.3,28.8,27.8,27.52,25,25.81,25,27.31s4.92,3.85,7.71,4.28,1.92,9,1.07,8.35-2.35-3-2.78-1.5,3.85,3.64,4.28,4.92a22.35,22.35,0,0,0,6.42,10.27c4.92,4.71,1.71,18,.86,18.62s-7.06-6.85-9-11.56,0.22-1.5.22-9.42-7.07-12.63-7.28-15.84S22.88,30.73,19,29s-3.85,4.49-1.71,3.42,4.71,1.07,6.21,2.78-3,1.07-6.21-.64-3.21.43-2.35,3,7.49,2.57,11.34,6.85,1.71,10.06,0,9.2A2.83,2.83,0,0,0,22.23,56c-0.22,2.14,7.49,1.93,7.7,4.92S35.08,75.89,37,78s0.64,4.28-3.42,3.43S29,73.32,27.69,72,25,84.24,25,90.88s46,2.78,46,2.78l3.64-.21c3.64-.21,5.14-13.05,5.14-17.12s-1.93,1.07-4.49.43A2.44,2.44,0,0,1,74,72.47c1.28-1.28,3.42-5.14,2.57-5.78s-2.14.22-2.14,0.22,1.07-4.71,1.29-6.21,3.42-4.49,6.85-10.49S82.16,44.85,83.66,42.28ZM67.82,80.38c-0.86,1.5-6.42,4.71-7.71,3.42s0.64-15.41,2.35-16.05,8.13-5.14,8.13-5.14S68.68,78.89,67.82,80.38Z" transform="translate(-14.47 -5.24)"/>
</svg>
