<svg id="3770a1fa-31ef-485b-b350-eec4642e1352" data-name="Layer 1" xmlns="http://www.w3.org/2000/svg" viewBox="0 0 100 65.78">
  <title>sea</title>
  <g>
    <path d="M75,35.9c-7.59,0-12-4.45-15.82-8.39-3-3.06-5.59-5.69-9.18-5.69s-6.11,2.62-9.08,5.65C37,31.42,32.67,35.9,25,35.9S13,31.44,9.18,27.51c-3-3.06-5.59-5.69-9.18-5.69v-4.7c5.57,0,9.11,3.61,12.54,7.1s6.84,7,12.46,7,9-3.41,12.56-7S44.48,17.11,50,17.11s9.11,3.61,12.54,7.1,6.84,7,12.46,7,9-3.41,12.56-7,6.92-7.07,12.44-7.07v4.7c-3.55,0-6.11,2.62-9.08,5.65C87.05,31.42,82.67,35.9,75,35.9Z" transform="translate(0 -17.11)"/>
    <path d="M75,59.39c-7.59,0-12-4.45-15.82-8.39-3-3.06-5.59-5.69-9.18-5.69S43.89,47.93,40.92,51c-3.87,4-8.25,8.43-15.92,8.43S13,54.94,9.18,51C6.18,48,3.59,45.31,0,45.31v-4.7c5.57,0,9.11,3.61,12.54,7.1s6.84,7,12.46,7,9-3.41,12.56-7S44.48,40.61,50,40.61s9.11,3.61,12.54,7.1,6.84,7,12.46,7,9-3.41,12.56-7,6.92-7.07,12.44-7.07v4.7c-3.55,0-6.11,2.62-9.08,5.65C87.05,54.91,82.67,59.39,75,59.39Z" transform="translate(0 -17.11)"/>
    <path d="M75,82.89c-7.59,0-12-4.46-15.82-8.39-3-3.06-5.59-5.69-9.18-5.69s-6.11,2.62-9.08,5.65C37,78.41,32.67,82.89,25,82.89S13,78.44,9.18,74.5c-3-3.06-5.59-5.69-9.18-5.69v-4.7c5.57,0,9.11,3.61,12.54,7.1s6.84,7,12.46,7,9-3.41,12.56-7S44.48,64.11,50,64.11s9.11,3.61,12.54,7.1,6.84,7,12.46,7,9-3.41,12.56-7,6.92-7.07,12.44-7.07v4.7c-3.55,0-6.11,2.62-9.08,5.65C87.05,78.41,82.67,82.89,75,82.89Z" transform="translate(0 -17.11)"/>
  </g>
</svg>
