<svg id="Layer_1" data-name="Layer 1" xmlns="http://www.w3.org/2000/svg" viewBox="0 0 76.05 76.04">
  <title>noun_15579_cc</title>
  <path d="M65.45,49.47A15.19,15.19,0,0,1,50.52,64.41c-8.38.32-14.63-7-14.94-14.94-0.32-8.38,7-14.63,14.94-14.94,8.38-.32,14.63,7,14.94,14.94,0.13,3.37,5.38,3.39,5.25,0A20.57,20.57,0,0,0,50.52,29.28c-11.29-.43-19.78,9.54-20.19,20.19-0.43,11.29,9.54,19.78,20.19,20.19,11.29,0.43,19.78-9.54,20.19-20.19C70.83,46.08,65.58,46.1,65.45,49.47Z" transform="translate(-12.49 -11.46)"/>
  <path d="M53.14,21.87V14c0-3.39-5.25-3.39-5.25,0v7.87c0,3.39,5.25,3.39,5.25,0h0Z" transform="translate(-12.49 -11.46)"/>
  <path d="M53.14,85V77.1c0-3.39-5.25-3.39-5.25,0V85c0,3.39,5.25,3.39,5.25,0h0Z" transform="translate(-12.49 -11.46)"/>
  <path d="M22.91,46.86H15c-3.39,0-3.39,5.25,0,5.25h7.87c3.39,0,3.39-5.25,0-5.25h0Z" transform="translate(-12.49 -11.46)"/>
  <path d="M86,46.86H78.13c-3.39,0-3.39,5.25,0,5.25H86c3.39,0,3.39-5.25,0-5.25h0Z" transform="translate(-12.49 -11.46)"/>
  <path d="M72.12,31.59L77.69,26c2.4-2.4-1.32-6.11-3.71-3.71l-5.57,5.57c-2.4,2.4,1.32,6.11,3.71,3.71h0Z" transform="translate(-12.49 -11.46)"/>
  <path d="M27.06,76.65l5.56-5.57c2.4-2.4-1.32-6.11-3.71-3.71l-5.56,5.57c-2.4,2.4,1.32,6.11,3.71,3.71h0Z" transform="translate(-12.49 -11.46)"/>
  <path d="M32.63,27.88l-5.57-5.57c-2.4-2.4-6.11,1.32-3.71,3.71l5.57,5.57c2.4,2.4,6.11-1.32,3.71-3.71h0Z" transform="translate(-12.49 -11.46)"/>
  <path d="M77.69,72.94l-5.56-5.57c-2.4-2.4-6.11,1.32-3.71,3.71L74,76.65c2.4,2.4,6.11-1.32,3.71-3.71h0Z" transform="translate(-12.49 -11.46)"/>
</svg>
