<?xml version="1.0" standalone="no"?>
<!DOCTYPE svg PUBLIC "-//W3C//DTD SVG 1.1//EN" "http://www.w3.org/Graphics/SVG/1.1/DTD/svg11.dtd" >
<svg xmlns="http://www.w3.org/2000/svg">
<metadata>
Created by FontPrep 20130207 at Mon May 30 16:48:05 2016
 By Victor
Copyright Copr. 1996 Carter &#38; Cone Type Inc. All rights reserved.
</metadata>
<defs>
<font id="e68acd7337f5fa16a9bd080c9dfc717c" horiz-adv-x='1024' >
  <font-face 
    font-family="Miller Display SC"
    font-weight="500"
    font-style="italic"
    font-stretch="normal"
    units-per-em="2048"
    panose-1="0 0 0 0 0 0 0 0 0 0"
    ascent="1638"
    descent="-410"
    x-height="977"
    cap-height="1399"
    bbox="-430 -490 3004 1918"
    underline-thickness="40"
    underline-position="-252"
    slope="-12"
    unicode-range="U+0020-FB02"
  />
<missing-glyph 
 />
    <glyph glyph-name=".notdef" 
 />
    <glyph glyph-name=".null" horiz-adv-x="0" 
 />
    <glyph glyph-name="nonmarkingreturn" horiz-adv-x="681" 
 />
    <glyph glyph-name="space" unicode=" " horiz-adv-x="466" 
 />
    <glyph glyph-name="exclam" unicode="!" horiz-adv-x="747" 
d="M401 106q-1 -53 -37 -89q-36 -35 -90 -35t-90 36q-37 36 -37 88t37 90t90 38t91 -37q36 -38 36 -91zM535 1151q41 1 71 -27t29 -64q0 -36 -35 -117q-34 -81 -106 -242t-129 -310l-54 10q33 163 56 389t30 252q29 109 138 109z" />
    <glyph glyph-name="quotedbl" unicode="&#x22;" horiz-adv-x="802" 
d="M471 1173q0 -35 -19 -79q-20 -44 -72 -155q-52 -110 -97 -212h-41q10 160 10 399q0 143 108 144q51 0 81 -31t30 -66zM854 1173q0 -35 -19 -79t-71 -155q-52 -110 -98 -212h-41q10 160 10 399q0 143 108 144q51 0 81 -31t30 -66z" />
    <glyph glyph-name="numbersign" unicode="#" horiz-adv-x="1146" 
d="M766 784l-254 -59l-51 -207l254 60zM1110 1047l-47 -193l-244 -57l-51 -207l242 57l-47 -192l-244 -58l-103 -411h-49l101 399l-256 -59l-84 -340h-49l81 327l-241 -57l47 193l242 57l51 207l-242 -58l49 193l242 57l94 379h49l-92 -366l256 59l76 307h49l-74 -295z" />
    <glyph glyph-name="dollar" unicode="$" horiz-adv-x="1259" 
d="M575 47h37l119 481q-51 10 -143 31l-125 -504q43 -8 112 -8zM924 324q0 154 -150 196l-115 -467q125 20 195 91t70 180zM461 948q0 -63 34 -114t99 -72l111 444q-119 -16 -181 -84t-63 -174zM770 1210h-18l-115 -458l143 -33l119 481q-61 10 -129 10zM1198 1026
q0 -72 -37 -126t-84 -54q-98 0 -98 76q0 53 51 98t60 61q-4 76 -148 111l-121 -483q270 -70 271 -273q0 -180 -124 -296t-321 -138l-74 -293h-45l72 289h-31q-70 0 -118 8l-74 -297h-45l76 305q-133 29 -214 102t-81 156t45 140t99 57t79 -24q24 -23 24 -63t-15 -62t-45 -41
q-30 -20 -42 -37q-16 -64 25 -112t137 -69l125 506q-121 27 -189 105t-67 182q0 154 117 266t311 133l51 207h45l-51 -203h24q57 0 125 -10l54 213h45l-56 -223q112 -27 178 -83t66 -128z" />
    <glyph glyph-name="percent" unicode="%" horiz-adv-x="1679" 
d="M688 1060q0 159 -121 159q-100 0 -175 -128t-75 -277t123 -148q94 0 171 118t77 276zM1421 419q0 159 -121 159q-100 0 -175 -128t-75 -277t124 -148q94 0 171 117q76 118 76 277zM844 1012q0 -166 -129 -282t-281 -116q-116 0 -194 70t-78 182q0 156 125 279t280 123
q121 0 199 -70t78 -186zM1569 1376l-1364 -1577l-51 37l1359 1577zM1577 371q0 -166 -129 -282t-281 -116q-115 0 -193 70t-79 182q0 156 125 279t280 123q121 -1 199 -71t78 -185z" />
    <glyph glyph-name="ampersand" unicode="&#x26;" horiz-adv-x="1294" 
d="M1221 893q0 113 -99 113q-35 0 -47 -27q63 -18 64 -64q0 -70 -76 -69q-35 0 -63 22t-28 67q0 44 41 77q41 32 107 32t116 -44t50 -125q0 -80 -59 -147t-156 -66q-31 0 -43 4q55 -25 98 -82q43 -56 43 -140q0 -164 -127 -307q-63 -72 -182 -117t-272 -45q-209 -1 -346 97
t-138 243q0 86 56 151t125 85q-129 76 -129 190q0 82 72 147q73 64 176 64q102 0 172 -53t92 -143l-35 -13q-41 59 -77 83t-98 24t-106 -43q-43 -43 -43 -115t27 -125q88 35 135 35t75 -22t28 -49t-20 -49q-19 -22 -61 -21t-71 14q-28 13 -58 31t-34 20q-78 -36 -78 -146
t113 -186t319 -77q206 0 309 92q104 92 105 231q0 217 -207 217q-63 0 -113 -35q-49 -36 -49 -92q0 -133 115 -133q29 0 53 15q-74 29 -75 75t23 65t50 19q104 0 104 -96q1 -47 -37 -87t-106 -40t-129 56t-61 155t85 158t181 59l153 -6q66 0 101 40t35 83z" />
    <glyph glyph-name="quotesingle" unicode="'" horiz-adv-x="401" 
d="M463 1173q1 -35 -19 -79t-72 -155q-52 -110 -98 -212h-41q10 160 11 399q0 143 108 144q51 0 81 -31t30 -66z" />
    <glyph glyph-name="parenleft" unicode="(" horiz-adv-x="645" 
d="M195 340q0 -182 55 -311t168 -236l-66 -57q-281 248 -280 590q0 557 602 962l49 -63q-276 -195 -402 -411t-126 -474z" />
    <glyph glyph-name="parenright" unicode=")" horiz-adv-x="645" 
d="M553 700q0 -559 -604 -962l-47 63q276 195 402 411t126 474q0 182 -55 311t-168 236l65 55q281 -252 281 -588z" />
    <glyph glyph-name="asterisk" unicode="*" horiz-adv-x="743" 
d="M823 1192q1 -53 -85 -53t-193 -19q55 -43 114 -79t82 -51t23 -39t-20 -42t-39 -18q-20 0 -37 20q-16 21 -54 77t-82 108q-10 -68 -11 -144t-3 -91t-17 -27t-38 -12t-39 14q-16 16 -16 40t40 96t60 130q-55 -18 -138 -60t-100 -42q-16 -2 -30 16t-15 45q0 49 68 49
q111 0 213 18q-58 47 -118 82q-60 36 -83 50t-22 34q0 20 16 40q17 20 41 22q24 0 42 -25t56 -79q37 -54 80 -99q8 59 9 136t5 95q10 43 50 43q61 0 61 -53q0 -16 -15 -45t-41 -79t-44 -105q55 23 133 65t97 41q19 0 35 -18t15 -41z" />
    <glyph glyph-name="plus" unicode="+" horiz-adv-x="1187" 
d="M1124 485h-444v-446h-98v446h-445v95h445v446h98v-446h444v-95z" />
    <glyph glyph-name="comma" unicode="," horiz-adv-x="495" 
d="M170 246q139 0 139 -146t-98 -256q-98 -109 -236 -176l-14 45q96 53 165 130t77 161h-47q-129 0 -129 107q0 51 41 93t102 42z" />
    <glyph glyph-name="hyphen" unicode="-" horiz-adv-x="716" 
d="M657 592l-43 -150h-555l43 150h555z" />
    <glyph glyph-name="period" unicode="." horiz-adv-x="495" 
d="M299 113q0 -55 -39 -93t-94 -38t-94 38t-39 92q0 56 39 95t94 39t94 -39t39 -94z" />
    <glyph glyph-name="slash" unicode="/" horiz-adv-x="860" 
d="M1055 1481l-1213 -1927l-84 49l1211 1927z" />
    <glyph glyph-name="zero" unicode="0" horiz-adv-x="1257" 
d="M1012 874q0 347 -226 347q-114 0 -229 -132t-183 -339t-67 -418q1 -140 57 -226t156 -86q127 0 243 140q117 140 183 342q66 204 66 372zM1214 795q0 -326 -202 -575t-469 -249q-209 0 -324 130t-115 337q0 328 205 580t469 252q196 0 316 -123t120 -352z" />
    <glyph glyph-name="one" unicode="1" horiz-adv-x="874" 
d="M465 131q0 -37 43 -57q16 -8 64 -18t77 -13l-10 -43h-619l11 43q113 6 153 20q66 23 88 101l256 923q-31 -8 -75 -8q-111 0 -215 121l26 29q94 -47 217 -47t295 86h27q-70 -154 -111 -307l-221 -789q-6 -25 -6 -41z" />
    <glyph glyph-name="two" unicode="2" horiz-adv-x="1181" 
d="M1133 989q0 -207 -194 -383t-611 -389l-68 -51h485q139 0 273 196l35 -12l-189 -350h-850l11 51q328 217 585 441q319 279 320 526q0 92 -52 147t-151 56q-145 0 -264 -119t-119 -236q0 -135 119 -135q67 0 123 45q20 16 59 51l19 -24q-137 -150 -291 -150q-86 0 -141 46
q-54 46 -54 132q0 152 176 295t404 144q170 0 272 -76t103 -205z" />
    <glyph glyph-name="three" unicode="3" horiz-adv-x="1157" 
d="M1155 1010q-1 -110 -109 -201q-108 -90 -296 -119l-43 -26h34q125 0 211 -60t86 -166q0 -217 -181 -354t-445 -137q-166 1 -287 67t-121 195q0 86 52 148t132 63q47 0 73 -23t26 -65t-22 -66q-23 -24 -47 -30t-46 -30t-20 -76q0 -52 63 -90t156 -38q170 0 315 145
t145 332q0 63 -39 102q-40 37 -99 37t-102 -24t-53 -32t-38 -26q-29 -19 -37 -26l-31 53q285 143 405 247t119 243q0 168 -182 168q-104 0 -215 -78t-110 -187q1 -46 25 -70t58 -24q72 0 136 56l20 -27q-139 -121 -226 -121t-134 39t-47 109q0 128 171 240t349 112t266 -75
t88 -185z" />
    <glyph glyph-name="four" unicode="4" horiz-adv-x="1077" 
d="M166 96q-16 0 -62 -4q-106 -90 -160 -90q-28 0 -54 16t-26 50t36 51q35 16 93 16t99 -2q262 233 524 1137h228q-123 -379 -304 -685t-403 -458q102 12 160 12q57 0 165 -17t118 -18l180 500h184l-182 -495q158 20 250 131l24 -23q-100 -150 -303 -194l-135 -385h-178
l129 376q-19 4 -155 43t-228 39z" />
    <glyph glyph-name="five" unicode="5" horiz-adv-x="1071" 
d="M568 1012q-72 0 -101 4l-141 -314q106 62 262 62t262 -87t106 -233q0 -196 -162 -334t-421 -139q-152 0 -254 68t-103 168q0 73 46 113t102 40q88 0 88 -73q0 -37 -30 -83t-36 -67q0 -49 50 -85t129 -36q163 0 281 153t118 353q0 98 -65 144t-147 47q-82 0 -165 -35
q-82 -35 -121 -109l-51 11l305 684h53q55 -80 261 -80q102 0 173 26t158 82l21 -22q-194 -258 -618 -258z" />
    <glyph glyph-name="six" unicode="6" horiz-adv-x="1157" 
d="M836 566q0 114 -56 173t-153 60q-139 -1 -245 -147t-106 -355q0 -131 54 -203t153 -72q98 0 184 92q85 90 127 214t42 238zM989 1434q139 0 206 -58t67 -133q0 -74 -29 -115t-84 -41q-98 0 -102 146q-4 75 -32 107t-100 32q-139 0 -287 -178t-253 -463l6 -6
q158 143 348 143q141 0 230 -96t89 -268t-134 -345q-64 -83 -172 -135t-238 -53q-188 0 -295 112t-107 335t131 465q131 243 339 397t417 154z" />
    <glyph glyph-name="seven" unicode="7" horiz-adv-x="1036" 
d="M285 -246q-96 0 -97 99q0 67 78 195t282 408t460 584h-527q-98 0 -168 -57t-147 -186l-39 10l262 526h37l-14 -114h800l-4 -19q-170 -188 -269 -317t-209 -313t-173 -317q-63 -135 -113 -317t-159 -182z" />
    <glyph glyph-name="eight" unicode="8" horiz-adv-x="1142" 
d="M825 298q0 116 -88 187q-88 72 -243 129q-123 -49 -195 -147q-72 -99 -72 -205t72 -174t201 -68t227 81t98 197zM979 1025q0 99 -69 153q-70 54 -182 53q-112 0 -192 -78t-79 -174q0 -96 69 -158q70 -61 232 -121q111 42 166 134t55 191zM264 897q0 155 142 271t315 116
t281 -78t108 -190q0 -113 -87 -207t-214 -131v-8q211 -117 211 -273q0 -133 -80 -234t-197 -149t-245 -47q-182 0 -302 88t-120 215t109 232q110 104 249 135v8q-84 55 -127 111t-43 141z" />
    <glyph glyph-name="nine" unicode="9" horiz-adv-x="1157" 
d="M942 930q0 135 -56 214t-157 79q-145 0 -243 -159t-99 -351q0 -264 205 -264q135 0 243 137q107 137 107 344zM723 1270q177 0 283 -108t106 -330q0 -220 -115 -462t-323 -411q-208 -168 -443 -168q-145 0 -222 57t-77 152q0 59 29 94t81 35t79 -33q27 -32 29 -108
t32 -108t107 -32q157 0 315 200t250 478l-8 6q-53 -48 -88 -76t-104 -56t-146 -27q-145 0 -241 94q-95 94 -95 252q0 221 163 386t388 165z" />
    <glyph glyph-name="colon" unicode=":" horiz-adv-x="655" 
d="M375 113q0 -55 -39 -93t-94 -38t-95 37q-39 37 -39 93t39 95t95 39t94 -39q39 -39 39 -94zM553 776q0 -55 -39 -93t-94 -38t-94 38t-39 93t39 94t94 39t94 -39t39 -94z" />
    <glyph glyph-name="semicolon" unicode=";" horiz-adv-x="655" 
d="M246 246q139 0 139 -146t-98 -256q-98 -109 -236 -176l-14 45q96 53 165 130t77 161h-48q-129 0 -129 107q0 51 41 93t103 42zM553 776q0 -55 -39 -93t-94 -38t-94 38t-39 93t39 94t94 39t94 -39t39 -94z" />
    <glyph glyph-name="less" unicode="&#x3c;" horiz-adv-x="1146" 
d="M1055 72l-905 420v81l905 420v-106l-776 -355l776 -354v-106z" />
    <glyph glyph-name="equal" unicode="=" horiz-adv-x="1187" 
d="M1083 322h-905v94h905v-94zM1083 649h-905v94h905v-94z" />
    <glyph glyph-name="greater" unicode="&#x3e;" horiz-adv-x="1146" 
d="M1071 492l-905 -420v106l776 354l-776 355v106l905 -420v-81z" />
    <glyph glyph-name="question" unicode="?" horiz-adv-x="872" 
d="M408 109q0 -57 -40 -97t-98 -39q-58 0 -96 39q-39 38 -39 96t39 98t96 40q58 0 98 -40t40 -97zM850 893q0 -166 -128 -285t-349 -133l-39 -123h-51l65 281q328 12 328 301q0 76 -45 119t-122 43t-106 -41q19 -86 19 -118t-36 -64q-36 -31 -83 -31t-78 32t-30 82
q0 68 98 129q99 61 241 61t229 -70q87 -72 87 -183z" />
    <glyph glyph-name="at" unicode="@" horiz-adv-x="2048" 
d="M827 301q0 -100 22 -134t60 -34q117 0 224 178l133 369q-20 152 -131 151q-80 0 -154 -92t-114 -215t-40 -223zM1186 1343q170 0 302 -54t210 -147q159 -190 158 -443q-2 -253 -166 -442t-373 -189q-84 0 -136 43t-57 120l-6 2q-109 -162 -231 -161q-98 0 -162 60
q-63 60 -63 202q0 94 55 216t171 222t253 100q55 0 94 -32t49 -90h6l43 110h144l-201 -538q-23 -63 -23 -107q0 -94 84 -94q174 0 317 166q142 166 142 420q0 255 -161 413t-455 158q-152 0 -298 -62t-266 -176q-120 -112 -194 -288q-72 -176 -72 -383q0 -342 188 -535
t488 -192q672 0 883 604l37 -13q-96 -313 -346 -493t-588 -180q-337 0 -585 199q-122 97 -195 252t-72 347q0 250 128 474t366 368q239 143 532 143z" />
    <glyph glyph-name="A" unicode="A" horiz-adv-x="1300" 
d="M870 614v525l-409 -525h409zM408 553q-281 -390 -281 -414q0 -41 69 -67t134 -29l-13 -43h-563l13 43q63 4 142 41t181 160q420 524 922 1177h57v-1239q0 -88 44 -112t128 -27l-12 -43h-598l12 43q106 6 167 29t60 104v377h-462z" />
    <glyph glyph-name="B" unicode="B" horiz-adv-x="1284" 
d="M551 57q201 0 319 120q118 121 119 257q0 136 -86 208t-229 71q-57 0 -135 -4l-146 -527q-8 -68 29 -96t129 -29zM1077 1120q0 104 -55 164t-164 59q-45 0 -143 -4l-160 -571h76q201 0 323 106t123 246zM1294 1139q0 -266 -424 -377v-19q336 -61 336 -290
q0 -203 -185 -328t-482 -125h-607l11 43q113 6 153 20q66 23 88 101l293 1053q8 37 8 47q0 35 -41 55q-72 31 -137 35l12 45h615q166 -1 263 -67t97 -193z" />
    <glyph glyph-name="C" unicode="C" horiz-adv-x="1286" 
d="M881 1366q-211 0 -383 -244t-172 -581q0 -221 96 -353t287 -133q147 0 253 82q105 82 216 246l47 -29q-55 -84 -105 -142t-122 -118q-150 -124 -386 -125q-235 1 -374 145q-140 144 -140 392t119 463t307 336t391 120q104 1 169 -25t137 -85l84 104h84l-99 -506h-49
q-23 221 -99 337q-77 116 -261 116z" />
    <glyph glyph-name="D" unicode="D" horiz-adv-x="1523" 
d="M1286 838q0 252 -112 378t-322 125q-47 0 -137 -4l-314 -1120q-20 -76 20 -117t142 -41q305 -1 514 227t209 552zM1505 856q0 -260 -136 -458t-353 -298t-477 -100h-607l11 43q113 6 153 20q66 23 88 101l293 1053q8 37 8 47q0 35 -41 55q-72 31 -137 35l12 45h607
q228 0 394 -119q85 -61 135 -170t50 -254z" />
    <glyph glyph-name="E" unicode="E" horiz-adv-x="1304" 
d="M1241 1079v17q0 92 -39 162t-100 77q-61 8 -164 8h-221l-166 -591h160q119 0 194 65q55 43 113 187h53l-160 -570h-49q6 36 6 104t-16 95q-43 63 -156 63h-159l-127 -452q-20 -68 -20 -111t43 -59q44 -16 163 -17q276 0 338 48q62 47 134 141q73 94 103 147h52l-133 -393
h-1176l14 43q102 0 172 25q68 25 88 102l289 1044q8 37 8 50q0 37 -41 55q-70 31 -153 35l14 45h1075l-88 -320h-51z" />
    <glyph glyph-name="F" unicode="F" horiz-adv-x="1253" 
d="M1292 1067q0 111 -37 185t-107 82q-70 9 -175 9h-256l-168 -595h184q117 0 201 63q26 21 60 75t57 113h55l-162 -575h-55q8 43 7 113t-15 90q-43 63 -164 63h-182l-142 -506q-8 -26 -8 -56t41 -48q70 -31 154 -35l-15 -45h-651l14 43q102 0 172 25q68 25 88 102l289 1044
q8 37 8 50q0 37 -41 55q-70 31 -153 35l14 45h1127l-89 -332h-51z" />
    <glyph glyph-name="G" unicode="G" horiz-adv-x="1456" 
d="M627 -31q-233 0 -381 136t-148 390t114 463t313 338q200 129 414 129t337 -110l92 104h80l-113 -491h-47q-19 324 -197 405q-73 33 -176 33q-223 0 -405 -238t-182 -591q0 -240 92 -371t254 -131t234 77t114 228l20 78q23 96 -36 121q-61 25 -193 32l12 47h668l-12 -47
q-119 -18 -144 -28q-72 -29 -90 -107l-127 -475l-26 -8l-78 125q-27 -10 -84 -35t-110 -43q-88 -31 -195 -31z" />
    <glyph glyph-name="H" unicode="H" horiz-adv-x="1656" 
d="M383 131q0 -37 43 -57q16 -8 64 -18t77 -13l-10 -43h-625l11 43q113 6 153 20q66 23 88 101l293 1053q8 37 8 47q0 35 -41 55q-72 31 -137 35l12 45h627l-12 -45q-82 -4 -160 -25q-68 -20 -90 -102l-129 -465h672l127 455q8 37 8 49q0 31 -41 53q-78 31 -145 35l16 45
h625l-15 -45q-82 -4 -153 -25q-66 -18 -88 -102l-295 -1055q-8 -37 -9 -43q0 -29 43 -55t140 -31l-13 -43h-626l12 43q121 6 160 20q68 23 88 101l149 532h-673l-148 -524q-6 -29 -6 -41z" />
    <glyph glyph-name="I" unicode="I" horiz-adv-x="794" 
d="M389 131q0 -37 43 -57q16 -8 64 -18t77 -13l-10 -43h-624l10 43q113 6 153 20q66 23 88 101l293 1053q8 37 9 47q0 35 -41 55q-72 31 -138 35l13 45h626l-12 -45q-82 -4 -160 -25q-68 -20 -90 -102l-295 -1055q-6 -29 -6 -41z" />
    <glyph glyph-name="J" unicode="J" horiz-adv-x="1118" 
d="M1239 1305q0 -96 -113 -136q-57 -20 -141 -36q-76 -182 -115 -402l265 6l-21 -71l-256 2q-6 -23 -45 -186t-92 -339q-74 -245 -232 -371t-333 -126q-115 0 -175 54t-61 130q0 35 33 73t82 38q119 0 119 -105q0 -31 -43 -92q0 -23 19 -39t32 -16q125 0 209 88t151 334
q37 131 129 548h-268l10 56l271 6q46 139 128 246q30 39 117 149q-127 -33 -203 -33t-130 35t-88 77t-85 78t-107 38t-87 -21q-31 -22 -31 -56t31 -79q43 -2 75 -30q32 -27 32 -67t-28 -68t-77 -28t-77 48q-28 47 -28 120q0 109 94 208q94 100 220 100q125 0 202 -92
q32 -39 62 -80q74 -100 203 -111h55q14 18 48 59q34 40 50 60q77 94 123 94q76 0 76 -63z" />
    <glyph glyph-name="K" unicode="K" horiz-adv-x="1511" 
d="M942 132q0 44 -120 221t-251 333h-36l-146 -514q-6 -25 -6 -41q0 -37 43 -57q16 -8 64 -18t77 -13l-10 -43h-625l11 43q113 6 153 20q66 23 88 101l293 1053q8 37 8 47q0 35 -41 55q-72 31 -137 35l12 45h627l-12 -45q-82 -4 -160 -25q-68 -20 -90 -102l-139 -502h26
q262 174 452 330q189 156 208 225q16 63 -146 74l13 45h579l-12 -45q-203 -10 -317 -107q-375 -320 -609 -481q186 -238 398 -557q59 -90 149 -135q49 -23 139 -29l-10 -45h-698l10 45q119 11 167 27t48 60z" />
    <glyph glyph-name="L" unicode="L" horiz-adv-x="1288" 
d="M485 1264q0 37 -41 55q-70 31 -153 35l14 45h641l-12 -45q-82 -4 -160 -25q-68 -20 -90 -102l-274 -983q-35 -119 -2 -153q32 -34 242 -34t272 47q62 46 136 134q75 88 116 159h49l-138 -397h-1171l14 43q102 0 172 25q68 25 88 102l289 1044q8 37 8 50z" />
    <glyph glyph-name="M" unicode="M" horiz-adv-x="1906" 
d="M1520 131q0 -76 192 -88l-10 -43h-623l11 43q104 6 145 20q70 25 88 101l268 1061l-815 -1202h-37q-8 162 -30 284l-168 895l-217 -813q-33 -121 -33 -187t23 -92q24 -24 94 -44t104 -23l-12 -43h-613l13 43q36 2 106 19t98 36q78 49 142 281l203 749q31 119 -21 170
t-166 56l12 45h424l203 -1084l604 908q66 96 94 176h461l-12 -45q-84 -4 -160 -25q-68 -20 -90 -102l-272 -1055q-6 -18 -6 -41z" />
    <glyph glyph-name="N" unicode="N" horiz-adv-x="1509" 
d="M291 204q0 -68 23 -94q24 -24 94 -44t104 -23l-12 -43h-613l13 43q36 2 106 19t98 36q82 51 144 281l192 723q58 238 -237 252l14 45h422l473 -1102l188 721q33 127 33 190q-1 64 -27 84t-92 40t-102 24l12 43h609l-13 -43q-34 -2 -104 -18t-98 -33q-78 -43 -142 -275
l-278 -1044h-68l-504 1175l-202 -772q-33 -117 -33 -185z" />
    <glyph glyph-name="O" unicode="O" horiz-adv-x="1474" 
d="M1237 932q0 192 -79 314t-253 122q-121 0 -225 -68t-176 -182q-178 -285 -178 -647q0 -201 83 -321t250 -121q223 0 377 213q92 130 146 314t55 376zM920 1430q232 0 384 -156t152 -376q0 -222 -77 -412t-228 -322q-229 -197 -514 -197q-215 0 -356 139
q-174 170 -175 420q0 190 76 372t219 319q229 213 519 213z" />
    <glyph glyph-name="P" unicode="P" horiz-adv-x="1234" 
d="M1073 1079q0 262 -266 262h-92l-176 -639h98q207 0 321 102t115 275zM1290 1098q0 -211 -185 -334t-489 -123h-96l-131 -471q-6 -20 -6 -48q0 -42 107 -67q48 -10 77 -12l-10 -43h-625l11 43q113 6 153 20q66 23 88 101l293 1053q8 37 8 47q0 35 -41 55q-72 31 -137 35
l12 45h568q193 0 298 -79t105 -222z" />
    <glyph glyph-name="Q" unicode="Q" horiz-adv-x="1363" 
d="M211 193q-39 0 -72 -30t-41 -57q37 -90 142 -90q63 0 140 18t122 44q-121 115 -291 115zM1632 -270q0 -68 -103 -144t-243 -76q-267 1 -412 138q-68 63 -118 129q-52 67 -112 143t-118 119q-172 -70 -292 -70t-194 34q-73 34 -73 91q0 56 75 100t167 44q164 0 387 -107
q176 51 355 307t179 580q0 152 -78 252q-79 100 -236 100q-158 0 -280 -96t-184 -234t-63 -264q0 -124 54 -196t165 -72q112 0 194 68t82 227q0 72 -22 130q-23 58 -72 66q10 -29 10 -71t-24 -69q-24 -26 -66 -25q-90 0 -90 104q0 51 47 91t132 40t135 -72t51 -168
q0 -161 -129 -271t-275 -110q-147 0 -239 107q-92 106 -92 279q0 233 200 414q201 182 457 182t394 -138t138 -344q0 -436 -456 -728q-115 -73 -242 -126q121 -62 356 -300q75 -75 181 -134t196 -59t117 2l-8 30q-63 20 -64 97q0 44 37 74t84 30q92 0 92 -104z" />
    <glyph glyph-name="R" unicode="R" horiz-adv-x="1456" 
d="M1102 1102q0 240 -256 239h-129l-168 -600h100q211 -1 332 95t121 266zM1102 -23q-209 0 -209 275v176q0 127 -51 190t-215 64h-95q-37 -135 -143 -510q-6 -29 -6 -41q0 -37 43 -57q16 -8 64 -18t77 -13l-10 -43h-625l11 43q113 6 153 20q66 23 88 101l293 1053
q8 37 8 47q0 35 -41 55q-72 31 -137 35l12 45h576q201 0 313 -71q112 -72 113 -218q0 -146 -122 -246t-320 -145v-17q98 -18 155 -82t62 -169q2 -37 3 -126t5 -130q10 -123 86 -123q96 0 170 252l47 -13q-53 -162 -121 -248t-184 -86z" />
    <glyph glyph-name="S" unicode="S" horiz-adv-x="1099" 
d="M733 1364q-137 0 -224 -78t-87 -177t49 -155t211 -139q162 -82 242 -172t80 -213q0 -199 -165 -328t-386 -129q-107 0 -197 31t-141 72l-95 -96h-69l115 479h47q51 -424 381 -424q141 0 229 87t88 190t-52 169t-213 148t-233 164t-71 217q0 174 148 295t358 120
q170 0 272 -102l96 96h70l-117 -465h-45q-18 194 -86 302t-205 108z" />
    <glyph glyph-name="T" unicode="T" horiz-adv-x="1294" 
d="M1364 1042q0 117 -36 201t-102 92t-163 8h-86l-318 -1163q-6 -18 -6 -50t41 -52q16 -8 85 -20t98 -15l-13 -43h-698l12 43q135 8 182 25q70 25 91 102l323 1173h-86q-102 0 -166 -8t-164 -110q-98 -102 -139 -183h-49l100 357h1243l-100 -357h-49z" />
    <glyph glyph-name="U" unicode="U" horiz-adv-x="1619" 
d="M659 -33q-426 0 -426 324q0 94 29 194l203 732q8 37 8 47q0 35 -41 55q-72 31 -137 35l12 45h627l-12 -45q-84 -4 -160 -25q-68 -20 -90 -102l-195 -701q-39 -134 -39 -244t69 -168t224 -59q369 0 494 426l153 539q33 121 33 186q0 66 -27 86q-26 20 -92 40t-102 24
l12 43h608l-12 -43q-34 -2 -104 -18t-108 -38t-68 -87t-64 -181l-160 -559q-147 -506 -635 -506z" />
    <glyph glyph-name="V" unicode="V" horiz-adv-x="1300" 
d="M328 -23v1240q0 90 -47 112q-41 23 -125 27l12 43h598l-12 -43q-106 -6 -167 -29t-61 -104v-963l410 524q142 182 238 322t96 154q0 40 -69 66t-134 30l12 43h563l-12 -43q-63 -4 -142 -41t-181 -160q-420 -524 -922 -1178h-57z" />
    <glyph glyph-name="W" unicode="W" horiz-adv-x="1951" 
d="M1112 -16v1058l-706 -1058h-78v1233q0 90 -47 112q-41 23 -125 27l12 43h598l-12 -43q-106 -6 -167 -29t-61 -104v-961l570 868q16 45 16 111t-47 88q-41 23 -125 27l12 43h598l-12 -43q-106 -6 -167 -29t-60 -104v-961l522 797q96 151 96 195t-64 69q-65 25 -147 31
l13 45h550l-12 -45q-63 -4 -139 -40t-152 -151l-788 -1179h-78z" />
    <glyph glyph-name="X" unicode="X" horiz-adv-x="1511" 
d="M922 150q0 41 -35 129t-148 339q-359 -348 -411 -412t-52 -81q0 -43 39 -59t136 -21l-13 -45h-581l12 45q90 4 170 35q81 31 233 170t441 424q-176 395 -236 514q-45 100 -95 130t-159 36l13 45h702l-12 -45q-233 -12 -234 -103q0 -61 166 -434q336 331 378 387t44 74
q0 37 -41 54t-137 22l12 45h582l-13 -45q-91 -4 -169 -35t-180 -123t-449 -436q193 -436 245 -540t109 -150q18 -16 147 -25l-12 -45h-702l12 45q238 12 238 105z" />
    <glyph glyph-name="Y" unicode="Y" horiz-adv-x="1286" 
d="M1505 1307q0 -135 -119 -136q-52 0 -78 32t-26 63t29 71l-8 11q-61 -14 -147 -92t-165 -191q-143 -201 -198 -424l-117 -469q-6 -25 -6 -41q2 -39 47 -59q15 -8 75 -18t89 -11l-11 -43h-641l11 43q104 6 147 20q66 23 84 101l123 502q20 82 20 257t-57 275t-199 100
t-206 -204l-46 14q106 315 357 315q151 0 241 -123t91 -280q0 -74 -19 -197h19q115 295 270 449q156 154 303 153q68 1 102 -37t35 -81z" />
    <glyph glyph-name="Z" unicode="Z" horiz-adv-x="1220" 
d="M514 55q256 -1 329 55t149 145t124 165h49l-149 -420h-1151l6 25l1253 1318h-327q-125 0 -179 -10q-80 -14 -182 -114t-164 -197h-49l139 377h1043l-8 -25l-1254 -1319h371z" />
    <glyph glyph-name="bracketleft" unicode="[" horiz-adv-x="942" 
d="M608 -226q0 54 -120 54q-154 0 -224 -16t-150 -32q-80 -17 -118 -26l-41 -14l397 1493l37 -14q194 -52 274 -63q81 -11 173 -11t131 24q37 25 37 72q0 20 -13 49l39 15q27 -35 27 -72q0 -97 -71 -161t-166 -64t-176 36t-212 121l-364 -1358q311 158 412 158
q100 0 148 -43q48 -42 48 -114t-88 -142l-35 15q19 11 37 39t18 54z" />
    <glyph glyph-name="backslash" unicode="\" horiz-adv-x="962" 
d="M786 -420l-98 -16l-391 1964l100 14z" />
    <glyph glyph-name="bracketright" unicode="]" horiz-adv-x="942" 
d="M299 1198q0 -53 126 -53t209 14t277 60l41 14l-397 -1493l-37 14q-260 67 -322 71q-62 3 -140 3q-152 0 -152 -96q0 -23 12 -49l-39 -15q-27 27 -27 72q0 98 71 162t193 63q122 0 361 -158l365 1358q-287 -158 -414 -157q-100 0 -147 43t-47 115t87 141l35 -15
q-18 -12 -36 -40t-19 -54z" />
    <glyph glyph-name="asciicircum" unicode="^" horiz-adv-x="1116" 
d="M584 172q-29 47 -108 161t-109 169q-105 -49 -139 -115q-34 -67 -34 -145t48 -128q46 -50 116 -50t120 24q50 25 106 84zM506 602q188 94 188 223t-118 127q-60 0 -95 -53t-35 -123t60 -174zM1083 473q1 -35 -21 -63t-62 -29q-40 0 -61 14q-22 14 -56 62q-29 0 -64 -42
t-94 -145q88 -164 88 -245q0 -159 -122 -261t-296 -102l-6 57q131 0 209 43t78 166q0 70 -68 201q-152 -156 -325 -156q-109 1 -185 61t-76 166t70 184t252 161q-57 98 -57 178q0 119 86 200t221 81q86 0 142 -46t56 -132q0 -84 -68 -144q-69 -60 -198 -121q14 -25 70 -103
t98 -149q69 138 112 181q40 48 73 65q33 18 88 18t86 -32q30 -33 30 -68z" />
    <glyph glyph-name="underscore" unicode="_" horiz-adv-x="1228" 
d="M1024 -317h-1249v92h1249v-92z" />
    <glyph glyph-name="grave" unicode="`" 
d="M858 1096l-31 -21q-75 76 -149 144t-90 84q-62 61 -62 105t23 67t59 23t60 -26q25 -24 45 -69t63 -135t82 -172z" />
    <glyph glyph-name="a" unicode="a" horiz-adv-x="1079" 
d="M608 399l-49 379l-254 -379h303zM133 106q0 -45 168 -63l-12 -43h-471l12 43q82 4 135 31t113 104q100 137 295 424t268 391h74l116 -860q6 -43 37 -59t125 -31l-12 -43h-541l13 43q63 4 130 18t66 33l-33 248h-352q-26 -37 -54 -87l-52 -91t-25 -58z" />
    <glyph glyph-name="b" unicode="b" horiz-adv-x="1116" 
d="M340 129q0 -37 39 -59t94 -21q129 -1 202 89t73 177t-50 133t-137 46l-127 -2l-94 -355v-8zM797 801q0 63 -41 96q-40 33 -86 33t-115 -4l-106 -383h92q123 0 189 78t67 180zM348 864q0 57 -158 70l13 43h524q115 0 193 -41t79 -127q0 -221 -311 -283v-8q96 -8 180 -59
t84 -152q0 -147 -137 -227t-293 -80h-588l13 43q113 12 141 20q49 14 70 87l180 669q10 41 10 45z" />
    <glyph glyph-name="c" unicode="c" horiz-adv-x="1042" 
d="M889 614v33q0 301 -244 301q-147 0 -260 -158t-113 -399q0 -151 71 -241t194 -90t203 62t149 185l49 -31q-166 -303 -465 -303q-190 0 -301 114t-111 294q1 262 179 441t436 179q145 0 233 -77l64 67h69l-104 -377h-49z" />
    <glyph glyph-name="d" unicode="d" horiz-adv-x="1228" 
d="M340 131q0 -35 33 -57t96 -23q213 0 336 165t123 394q0 142 -81 230t-220 88l-72 -2l-211 -768q-4 -20 -4 -27zM1137 576q1 -126 -63 -244q-114 -213 -394 -295q-123 -37 -252 -37h-500l13 43q88 6 143 20q51 14 72 89l182 667q10 31 10 45q0 35 -33 45q-51 18 -129 25
l13 43h477q154 0 298 -79q163 -89 163 -322z" />
    <glyph glyph-name="e" unicode="e" horiz-adv-x="1097" 
d="M948 725v18q0 55 -26 113q-27 58 -71 66t-122 8h-172l-111 -398h105q86 0 137 45t88 138h51l-118 -424h-52q9 90 6 111q-3 20 -13 42q-17 40 -105 39h-113l-82 -307q-12 -50 -12 -76t30 -38t113 -11q187 0 231 32t111 114q68 82 99 127h49l-121 -324h-924l13 43
q106 6 145 18q53 14 74 89l178 661q10 37 10 59q0 51 -168 64l12 43h875l-70 -252h-47z" />
    <glyph glyph-name="f" unicode="f" horiz-adv-x="1026" 
d="M348 874q0 47 -170 60l12 43h883l-74 -264h-49v22q0 57 -24 119t-62 68q-49 8 -131 8h-176l-113 -406h109q86 0 138 38t97 145h52l-119 -426h-51q8 74 8 86q0 53 -29 81t-102 27h-117l-82 -307q-2 -6 -5 -20l-5 -22q-2 -9 -2 -13q0 -31 34 -47t134 -23l-12 -43h-564
l13 43q111 8 143 16q51 14 72 88l182 672q10 31 10 55z" />
    <glyph glyph-name="g" unicode="g" horiz-adv-x="1183" 
d="M425 -27q-147 0 -255 111t-109 287q-1 262 187 446t473 184q63 1 136 -23t112 -56l63 69h68l-101 -360h-45v16q0 127 -70 213t-226 86t-271 -177t-115 -409q0 -143 64 -235t170 -92q168 0 215 164q27 92 27 127t-29 45q-57 20 -166 26l12 43h572l-11 -39
q-94 -14 -139 -29t-59 -69l-88 -334l-37 -6l-53 92q-178 -80 -325 -80z" />
    <glyph glyph-name="h" unicode="h" horiz-adv-x="1370" 
d="M336 106q0 -24 31 -38q37 -14 118 -25l-12 -43h-536l12 43q98 6 135 16q51 14 72 88l180 664q8 41 8 53q0 33 -29 43q-70 23 -125 27l13 43h540l-12 -43q-78 -4 -133 -21q-51 -14 -72 -88l-77 -286h466l70 260q12 43 12 69q0 59 -151 66l12 43h541l-13 -43
q-86 -6 -137 -22t-69 -87l-176 -651q-12 -44 -12 -68q-1 -50 149 -63l-13 -43h-536l12 43q100 6 135 16q49 14 70 88l90 334h-467l-84 -313q-12 -38 -12 -62z" />
    <glyph glyph-name="i" unicode="i" horiz-adv-x="722" 
d="M342 111q0 -29 35 -45t123 -23l-13 -43h-550l12 43q104 6 139 16q51 14 72 86l182 670q10 31 10 57q0 47 -164 62l13 43h557l-13 -43q-86 -4 -143 -21q-53 -12 -72 -86l-174 -645q-14 -61 -14 -71z" />
    <glyph glyph-name="j" unicode="j" horiz-adv-x="864" 
d="M179 -29q-130 0 -187 49q-58 48 -58 106t38 100t91 42t83 -32t30 -75q0 -92 -96 -130v-11h20q133 0 193 73q59 73 94 206l121 477q16 66 16 92q0 56 -184 66l12 43h580l-12 -43q-74 -4 -132 -20t-77 -91l-146 -571q-27 -104 -141 -193q-115 -88 -245 -88z" />
    <glyph glyph-name="k" unicode="k" horiz-adv-x="1206" 
d="M698 102q0 61 -215 365l-67 -41l-68 -256q-14 -42 -14 -66t30 -36t105 -25l-12 -43h-516l12 43q92 6 131 16q49 12 72 88l176 650q12 45 12 71t-29 39q-47 23 -120 27l12 43h528l-12 -43q-76 -4 -127 -21q-49 -14 -70 -88l-96 -346q207 139 389 299q90 78 90 113t-125 43
l13 43h471l-13 -43q-164 -10 -245 -74q-51 -39 -168 -136t-207 -159q223 -346 262 -409t90 -93q27 -14 129 -20l-12 -43h-582l13 43q121 6 149 30q14 11 14 29z" />
    <glyph glyph-name="l" unicode="l" horiz-adv-x="1028" 
d="M344 862q0 33 -31 43q-47 23 -125 29l13 43h557l-13 -43q-94 -6 -147 -22t-74 -89l-176 -651q-12 -44 -12 -72t31 -40t136 -13q105 0 155 36t128 124t119 147h47l-116 -354h-906l13 43q98 6 145 20t68 87l174 645q14 57 14 67z" />
    <glyph glyph-name="m" unicode="m" horiz-adv-x="1548" 
d="M1178 104q0 -24 22 -36q31 -16 141 -25l-12 -43h-553l12 43q104 6 140 20q57 23 73 91l179 692h-9l-581 -828h-41q-2 72 -21 197l-104 678h-4l-162 -608q-46 -155 -4 -195q14 -12 72 -28t86 -19l-13 -43h-497l12 41q145 27 170 41q58 35 110 217q52 183 67 241t43 165
t28 141q0 35 -21 49q-41 31 -166 39l13 43h430l110 -709l404 584q49 68 65 125h406l-12 -43q-90 -6 -142 -21q-47 -12 -65 -88l-166 -655q-10 -42 -10 -66z" />
    <glyph glyph-name="n" unicode="n" horiz-adv-x="1259" 
d="M1024 825q0 49 -20 62q-45 29 -173 47l13 43h508l-13 -43q-94 -6 -170 -39q-55 -27 -106 -215l-191 -694h-73l-404 817l-129 -492q-49 -186 -16 -219q14 -14 81 -30t95 -19l-12 -43h-512l12 43q30 2 94 17t78 24q52 28 102 198t61 211t43 156t33 159t-22 65t-80 39
t-102 22l12 43h375l369 -746l116 441q31 104 31 153z" />
    <glyph glyph-name="o" unicode="o" horiz-adv-x="1189" 
d="M885 657q0 293 -217 293q-113 0 -207 -93q-93 -93 -141 -235t-48 -288q0 -308 215 -307q81 1 139 35t122 115t100 213q37 132 37 267zM1096 596q0 -141 -66 -274t-186 -222q-174 -127 -360 -127t-304 117q-119 117 -119 293q0 135 61 263q60 128 181 222q175 136 365 136
t309 -116t119 -292z" />
    <glyph glyph-name="p" unicode="p" horiz-adv-x="1028" 
d="M793 776q0 54 -39 103t-119 49h-80l-127 -453h84q84 0 143 32t87 81q51 90 51 188zM1001 764q0 -152 -141 -247t-319 -95h-127l-66 -258q-12 -43 -12 -66t31 -35q41 -14 149 -20l-12 -43h-565l12 43q88 6 127 16q39 11 54 31t26 60l176 657q12 49 12 63q0 33 -31 41
q-66 18 -135 23l13 43h512q141 0 219 -59q77 -60 77 -154z" />
    <glyph glyph-name="q" unicode="q" horiz-adv-x="1193" 
d="M596 119q0 137 -125 137q-90 0 -154 -133q59 -100 172 -100q49 0 97 14q10 51 10 82zM893 653q0 133 -52 215t-166 82t-212 -95q-99 -95 -147 -237t-48 -268q0 -125 25 -182q104 166 252 166q86 0 138 -49t67 -135q143 177 143 503zM963 -170q99 0 198 117l29 -29
q-96 -106 -179 -155t-185 -49t-171 72q-68 73 -71 196q-61 -8 -97 -9q-193 0 -309 119t-117 295q0 293 242 481q177 136 367 136t310 -116t120 -290t-90 -324t-254 -233q4 -99 56 -155t151 -56z" />
    <glyph glyph-name="r" unicode="r" horiz-adv-x="1175" 
d="M807 780q0 74 -46 111t-116 37h-90l-115 -408h86q119 0 200 62t81 198zM826 -23q-93 -1 -137 53t-46 183l-2 80q0 140 -73 165q-32 11 -83 11h-59l-78 -297q-14 -66 -14 -70q0 -31 34 -42t119 -17l-12 -43h-538l12 43q88 6 135 18q51 16 72 89l176 649q14 49 14 77
t-31 35q-66 18 -131 23l13 43h522q135 0 217 -52t82 -158q0 -107 -98 -177t-238 -98v-11q143 -35 154 -205l6 -102q6 -102 67 -102q88 0 133 196l45 -10q-27 -135 -97 -208t-164 -73z" />
    <glyph glyph-name="s" unicode="s" horiz-adv-x="964" 
d="M502 948q-54 0 -114 -41t-60 -121q0 -113 108 -165q103 -53 185 -80q80 -35 131 -97t51 -139q0 -145 -118 -238t-300 -94q-88 0 -168 25t-119 57l-71 -69h-58l103 366h45q8 -131 80 -228q71 -97 193 -97t182 55q60 56 60 124q1 122 -130 181q-108 45 -179 80t-112 94
t-41 129q0 139 110 225t271 86q63 -1 139 -23t107 -54l71 67h58l-97 -350h-47q-6 129 -69 218t-211 89z" />
    <glyph glyph-name="t" unicode="t" horiz-adv-x="1042" 
d="M971 718q0 58 -27 128t-67 78q-27 6 -105 6h-53l-205 -752q-12 -50 -12 -72t20 -31t80 -19t82 -13l-12 -43h-604l12 43q131 8 166 18q53 16 71 91l213 778h-30q-54 0 -106 -6t-146 -108t-127 -171h-43l94 332h934l-94 -332h-45q4 15 4 73z" />
    <glyph glyph-name="u" unicode="u" horiz-adv-x="1267" 
d="M164 217q0 45 10 82l133 498q12 37 12 67q1 30 -33 46q-34 17 -122 24l12 43h545l-12 -43q-84 -6 -134 -21q-53 -14 -71 -88l-125 -467q-23 -82 -23 -137q0 -168 201 -168q258 0 340 264q19 69 69 269t50 246t-19 59q-43 31 -159 43l12 43h496l-13 -43q-121 -8 -173 -34
t-95 -191q-81 -321 -105 -405t-80 -160q-127 -171 -392 -172q-150 -1 -237 72t-87 173z" />
    <glyph glyph-name="v" unicode="v" horiz-adv-x="1077" 
d="M922 868q0 51 -168 66l12 43h459l-13 -43q-72 -6 -120 -28t-104 -95q-56 -74 -280 -384t-319 -439h-67l-86 846q-6 48 -43 72t-123 28l12 43h532l-12 -43q-58 -2 -122 -14t-64 -35l69 -672q180 252 367 524q70 98 70 131z" />
    <glyph glyph-name="w" unicode="w" horiz-adv-x="1558" 
d="M1393 872q-1 24 -53 41q-52 16 -115 21l12 43h461l-12 -43q-82 -10 -132 -32t-100 -97q-111 -162 -536 -815h-66q-17 354 -41 700l-461 -700h-67l-45 854q-2 39 -36 61t-120 29l12 43h504l-12 -43q-50 -2 -108 -16t-60 -31l35 -639l335 512q10 14 10 63q1 103 -161 111
l12 43h510l-12 -43q-55 -2 -115 -16t-61 -35l49 -631q133 200 253 398t120 222z" />
    <glyph glyph-name="x" unicode="x" horiz-adv-x="1185" 
d="M217 93q0 -40 137 -50l-10 -43h-457l11 43q159 8 268 113q58 53 162 157t159 158q-53 104 -186 348q-33 59 -75 83t-132 32l12 43h586l-12 -43q-184 -6 -184 -60q0 -41 131 -292q264 260 264 299q0 20 -44 35t-93 18l12 43h455l-13 -43q-151 -11 -266 -113
q-49 -47 -146 -145t-143 -141q16 -29 203 -379q31 -58 74 -82t133 -31l-10 -43h-588l8 43h12q174 12 177 59q0 51 -150 320q-295 -289 -295 -329z" />
    <glyph glyph-name="y" unicode="y" horiz-adv-x="1021" 
d="M479 120q0 -32 38 -50t147 -27l-13 -43h-604l12 43q121 8 168 21t70 90q59 209 59 235q0 74 -118 426q-18 63 -60 88t-127 31l12 43h553l-12 -43q-184 -16 -184 -47q0 -23 115 -391q336 356 335 381q0 43 -161 57l12 43h450l-12 -43q-66 -6 -113 -28q-129 -59 -444 -429
q-49 -57 -86 -191t-37 -166z" />
    <glyph glyph-name="z" unicode="z" horiz-adv-x="1026" 
d="M440 49q156 0 213 37q109 74 232 268h45l-105 -354h-891v25l861 905h-220q-67 0 -121 -9t-136 -95t-138 -173h-43l90 324h811v-25l-858 -903h260z" />
    <glyph glyph-name="braceleft" unicode="{" horiz-adv-x="778" 
d="M420 316q0 -82 -44 -202t-44 -180t39 -88q39 -29 139 -34l-10 -41q-330 0 -330 184q0 78 51 203q51 124 51 190t-50 96t-167 41l19 86q180 19 249 77t81 254t122 285t346 89l-10 -43q-146 -7 -204 -65t-74 -238t-112 -264t-273 -119l-11 -41q120 -23 176 -66t56 -124z
" />
    <glyph glyph-name="bar" unicode="|" horiz-adv-x="696" 
d="M440 -424h-98v1952h98v-1952z" />
    <glyph glyph-name="braceright" unicode="}" horiz-adv-x="778" 
d="M264 1276q330 0 330 -172q0 -86 -51 -211t-51 -191t50 -96q50 -31 167 -41l-19 -86q-180 -19 -249 -77t-82 -254t-123 -286q-110 -91 -345 -91l11 43q143 8 202 67q60 59 76 239t112 264q96 85 273 120l10 41q-121 23 -176 65t-55 124q0 81 44 202q44 122 44 180t-39 86
t-139 33z" />
    <glyph glyph-name="asciitilde" unicode="~" horiz-adv-x="1105" 
d="M711 379q-92 0 -202 45q-109 45 -171 45t-106 -26t-78 -91l-41 15q27 96 107 176q81 80 170 80t202 -45q112 -46 174 -46t106 26t78 91l41 -14q-27 -96 -107 -176t-173 -80z" />
    <glyph glyph-name="nbspace" unicode="&#xa0;" horiz-adv-x="233" 
 />
    <glyph glyph-name="exclamdown" unicode="&#xa1;" horiz-adv-x="747" 
d="M121 73q0 37 35 117t106 241q72 161 129 310l53 -10q-34 -164 -56 -389t-30 -252q-29 -109 -137 -108q-41 0 -71 28t-29 63zM608 1026q0 -53 -37 -90t-90 -37t-90 37t-37 90t37 89t90 36t90 -36t37 -89z" />
    <glyph glyph-name="cent" unicode="&#xa2;" horiz-adv-x="931" 
d="M662 1069q-84 -1 -166 -109t-131 -262q-98 -308 -7 -452zM909 923q0 -58 -27 -100q-28 -41 -72 -41q-95 0 -93 92q0 76 84 121q-12 57 -86 70l-318 -852q29 -14 72 -14q188 0 336 274l41 -18q-176 -324 -410 -324q-25 0 -65 4l-140 -373l-45 15l136 368q-197 63 -197 310
q0 87 39 195q93 260 281 382q108 70 229 72l98 268l49 -16l-94 -256q80 -14 131 -66t51 -111z" />
    <glyph glyph-name="sterling" unicode="&#xa3;" horiz-adv-x="1617" 
d="M-25 -45q0 -91 151 -89q75 0 160 39q85 38 140 101q-145 66 -254 66t-153 -37t-44 -80zM1561 1072q1 -138 -101 -239t-254 -102q-88 0 -147 57t-59 157t59 190l43 -9q-49 -84 -49 -168q0 -172 153 -172q98 0 165 90t67 204q0 116 -50 187t-163 70q-165 0 -271 -129
t-155 -440q-23 -131 -29 -162h348v-45h-354q-18 -80 -51 -162h366v-43h-383q-41 -113 -129 -221q66 -20 235 -98q170 -78 250 -78q143 0 210 95t104 212l49 -14q-40 -169 -158 -289q-131 -135 -383 -135q-95 0 -187 42q-91 42 -224 118q-66 -78 -160 -127t-190 -49t-144 38
q-47 39 -47 101q0 101 115 161t243 60t214 -18q16 45 21 114q5 70 7 88h-295v43h297l21 162h-281v45h285q61 356 243 568t429 212q180 0 260 -88t80 -226z" />
    <glyph glyph-name="yen" unicode="&#xa5;" horiz-adv-x="1226" 
d="M580 131q0 -37 43 -57q16 -8 64 -18t77 -13l-10 -43h-613l11 43q113 6 153 20q66 23 88 101l39 137h-321l10 47h323l41 148h-321l10 47h315q0 23 -12 84q-39 164 -115 411q-31 98 -81 131q-35 25 -105 29l12 45h572l-12 -45q-197 -14 -197 -59q0 -57 127 -500
q406 453 405 489q0 57 -161 70l12 45h467l-12 -45q-49 -4 -111 -33q-129 -63 -512 -536q-31 -37 -59 -86h313l-10 -47h-328q-16 -35 -25 -64l-22 -84h332l-11 -47h-335l-35 -129q-6 -27 -6 -41z" />
    <glyph glyph-name="section" unicode="&#xa7;" horiz-adv-x="1126" 
d="M836 330q0 80 -46 163t-132 233q-85 150 -113 212q-101 -8 -157 -64t-56 -136q0 -81 45 -166t132 -228t116 -211q91 17 151 67t60 130zM1106 1321q0 -72 -44 -119t-94 -47t-80 23q-28 22 -28 60t20 60t42 28q61 19 61 69q0 68 -125 67q-92 0 -152 -74q-114 -140 -14 -350
q49 -105 203 -368q92 -164 92 -256q0 -154 -100 -231t-248 -87q37 -92 37 -174q0 -164 -110 -276t-265 -111q-113 -1 -179 61t-65 135q0 73 43 119q42 46 94 46t80 -23t29 -59q0 -36 -18 -57q-18 -23 -40 -29q-57 -17 -59 -68q0 -78 123 -78q90 0 152 85q61 85 61 183
t-57 216q-27 59 -128 217t-126 230q-24 73 -25 138q0 129 92 222t252 104q-33 78 -32 156q0 151 108 265t268 113q112 0 172 -59t60 -131z" />
    <glyph glyph-name="dieresis" unicode="&#xa8;" 
d="M625 1331q0 -47 -37 -88t-91 -41t-81 31t-27 81t39 90t90 40t79 -33t28 -80zM956 1444q52 0 78 -33t27 -80q0 -47 -36 -88t-90 -41t-82 32t-28 81t40 89q39 40 91 40z" />
    <glyph glyph-name="copyright" unicode="&#xa9;" horiz-adv-x="1929" 
d="M469 503q0 216 146 358t372 143q133 0 223 -64l45 78h56l8 -371h-47q-47 139 -117 217t-197 78q-128 0 -208 -108t-80 -304q0 -194 93 -304t223 -110t199 57q69 56 120 161l45 -21q-129 -287 -392 -286q-223 0 -356 130t-133 346zM1751 512q0 338 -234 574
q-233 236 -571 237q-338 0 -574 -237q-236 -236 -235 -574q0 -338 236 -576q237 -238 573 -237q336 -1 570 237t235 576zM1829 512q0 -364 -260 -623q-260 -260 -625 -260t-625 260q-260 259 -260 623q-1 364 261 624t625 259q363 0 624 -259q260 -260 260 -624z" />
    <glyph glyph-name="ordfeminine" unicode="&#xaa;" horiz-adv-x="854" 
d="M573 913l-36 205l-140 -205h176zM694 455l-16 -62h-545l17 62h544zM369 868q-64 -92 -66 -120q0 -27 103 -39l-9 -33h-305l8 33q61 6 89 19t63 63q121 172 330 477h61q80 -444 88 -504q8 -43 103 -55l-9 -33h-342l9 33q111 6 110 32v17l-18 110h-215z" />
    <glyph glyph-name="guillemotleft" unicode="&#xab;" horiz-adv-x="1146" 
d="M92 419q0 17 13 55t36 52q406 264 543 359l23 -25l-441 -416l217 -395l-28 -18q-57 59 -132 137t-124 128t-78 78t-29 45zM520 419q0 17 14 55q13 38 35 52q406 264 543 359l23 -25l-441 -416l217 -395l-28 -18q-57 59 -132 137t-124 128t-78 78t-29 45z" />
    <glyph glyph-name="registered" unicode="&#xae;" horiz-adv-x="970" 
d="M719 1145q0 84 -84 84h-49v-174h32q101 0 101 90zM512 1192q0 39 -59 39v20h215q53 1 94 -23t41 -71q0 -74 -119 -106v-7q80 -12 94 -65q4 -14 10 -45q6 -30 12 -52t27 -22q27 0 27 51h20q0 -86 -76 -86q-76 1 -87 103q-12 102 -90 102h-35v-141q0 -37 59 -37v-21h-192
v21q59 0 59 37v303zM975 1026q0 144 -95 242q-94 98 -236 98t-237 -98t-95 -242t94 -242q96 -98 237 -98t237 98q95 99 95 242zM1016 1026q0 -158 -108 -266t-266 -107q-158 0 -264 108q-108 107 -108 265t108 266t266 107q158 1 264 -107q108 -108 108 -266z" />
    <glyph glyph-name="macron" unicode="&#xaf;" 
d="M1094 1348l-33 -127h-676l33 127h676z" />
    <glyph glyph-name="degree" unicode="&#xb0;" horiz-adv-x="792" 
d="M305 1124q0 -98 48 -154t131 -56t137 78q53 78 54 186t-46 159t-133 51t-138 -83t-53 -181zM797 1163q0 -131 -89 -222q-90 -91 -216 -91t-216 79t-90 210t92 222t216 91q125 0 214 -79t89 -210z" />
    <glyph glyph-name="plusminus" unicode="&#xb1;" horiz-adv-x="3080" 
d="M348 874q0 47 -170 60l12 43h883l-74 -264h-49v22q0 57 -24 119t-62 68q-49 8 -131 8h-176l-113 -406h109q86 0 138 38t97 145h52l-119 -426h-51q8 74 8 86q0 53 -29 81t-102 27h-117l-82 -307q-2 -6 -5 -20l-5 -22q-2 -9 -2 -13q0 -31 34 -47t134 -23l-12 -43h-564
l13 43q111 8 143 16q51 14 72 88l182 672q10 31 10 55zM1374 874q0 47 -170 60l13 43h882l-74 -264h-49v22q0 57 -24 119t-62 68q-49 8 -131 8h-176l-113 -406h109q86 0 138 38t98 145h51l-119 -426h-51q8 74 8 86q0 53 -29 81t-102 27h-117l-82 -307q-2 -6 -5 -20l-5 -22
q-2 -9 -2 -13q0 -31 34 -47t134 -23l-12 -43h-564l13 43q111 8 143 16q51 14 72 88l182 672q10 31 10 55zM2396 862q0 33 -31 43q-47 23 -124 29l12 43h557l-12 -43q-94 -6 -148 -22t-74 -89l-176 -651q-12 -44 -12 -72t31 -40t136 -13q105 0 155 36t128 124q79 88 119 147
h47l-116 -354h-906l13 43q98 6 145 20t68 87l174 645q14 57 14 67z" />
    <glyph glyph-name="acute" unicode="&#xb4;" 
d="M922 1432q0 -61 -107 -136q-31 -20 -139 -86t-219 -137l-23 25q170 190 266 307q78 92 152 92q34 0 52 -19t18 -46z" />
    <glyph glyph-name="paragraph" unicode="&#xb6;" horiz-adv-x="1247" 
d="M623 700q-197 0 -309 84t-112 231t129 265q128 118 353 119h735l-10 -45h-291l-401 -1610h-58l402 1610h-197l-401 -1610h-57l237 956h-20z" />
    <glyph glyph-name="periodcentered" unicode="&#xb7;" horiz-adv-x="577" 
d="M442 557q0 -55 -39 -93t-94 -38t-94 38t-39 93t39 94t94 39t94 -39t39 -94z" />
    <glyph glyph-name="cedilla" unicode="&#xb8;" 
d="M532 -246q0 -219 -485 -219l12 47q311 6 312 119q0 41 -36 55t-120 15l80 245h57l-41 -129q221 0 221 -133z" />
    <glyph glyph-name="ordmasculine" unicode="&#xba;" horiz-adv-x="854" 
d="M682 1065q0 160 -121 160q-63 -1 -119 -59t-85 -145q-30 -87 -29 -169q0 -160 121 -160q63 0 119 58t84 146q30 87 30 169zM688 455l-16 -62h-545l16 62h545zM829 1032q0 -184 -147 -299q-114 -86 -240 -86t-209 90q-53 59 -53 148q0 184 148 299q114 86 240 86t208 -90
q53 -60 53 -148z" />
    <glyph glyph-name="guillemotright" unicode="&#xbb;" horiz-adv-x="1146" 
d="M635 497q0 -17 -13 -55t-36 -53q-406 -264 -543 -358l-23 24l441 416l-217 395l28 19q57 -59 132 -137t124 -128t78 -78t29 -45zM1063 497q0 -17 -13 -55t-36 -53q-406 -264 -543 -358l-22 24l440 416l-217 395l28 19q57 -59 175 -181t153 -156t35 -51z" />
    <glyph glyph-name="questiondown" unicode="&#xbf;" horiz-adv-x="872" 
d="M684 156q0 -60 -98 -121t-240 -61t-230 71q-87 72 -87 182q0 166 128 285t349 133l39 123h51l-66 -281q-328 -12 -327 -301q0 -76 45 -118q46 -42 122 -43q76 0 105 41q-18 86 -18 102q0 47 36 79q37 32 83 32t77 -32q31 -31 31 -91zM743 1012q0 -57 -38 -98
q-39 -40 -97 -40t-97 40q-40 40 -40 98t40 96q40 39 97 39t96 -39t39 -96z" />
    <glyph glyph-name="Agrave" unicode="&#xc0;" horiz-adv-x="1300" 
d="M862 1911q36 0 60 -25q25 -25 45 -70t63 -135t82 -172l-31 -20q-75 75 -149 143t-90 84q-62 62 -62 106t23 66t59 23zM870 614v525l-409 -525h409zM408 553q-281 -390 -281 -414q0 -41 69 -67t134 -29l-13 -43h-563l13 43q63 4 142 41t181 160q420 524 922 1177h57v-1239
q0 -88 44 -112t128 -27l-12 -43h-598l12 43q106 6 167 29t60 104v377h-462z" />
    <glyph glyph-name="Aacute" unicode="&#xc1;" horiz-adv-x="1300" 
d="M1393 1823q0 -61 -107 -135q-32 -20 -140 -86t-218 -138l-23 25q170 190 266 307q78 92 152 92q33 0 51 -19t19 -46zM870 614v525l-409 -525h409zM408 553q-281 -390 -281 -414q0 -41 69 -67t134 -29l-13 -43h-563l13 43q63 4 142 41t181 160q420 524 922 1177h57v-1239
q0 -88 44 -112t128 -27l-12 -43h-598l12 43q106 6 167 29t60 104v377h-462z" />
    <glyph glyph-name="Acircumflex" unicode="&#xc2;" horiz-adv-x="1300" 
d="M1113 1831q40 0 52 -7q11 -7 25 -39q14 -31 62 -151t83 -202l-30 -17l-215 277l-375 -277l-23 21q190 203 270 292t95 96q16 7 56 7zM870 614v525l-409 -525h409zM408 553q-281 -390 -281 -414q0 -41 69 -67t134 -29l-13 -43h-563l13 43q63 4 142 41t181 160
q420 524 922 1177h57v-1239q0 -88 44 -112t128 -27l-12 -43h-598l12 43q106 6 167 29t60 104v377h-462z" />
    <glyph glyph-name="Atilde" unicode="&#xc3;" horiz-adv-x="1300" 
d="M1207 1507q-77 1 -159 59t-134 58t-96 -36t-93 -111l-37 18q53 96 129 176t153 80q78 0 160 -58t121 -59q63 0 108 36q44 36 93 112l37 -19q-53 -96 -129 -176t-153 -80zM870 614v525l-409 -525h409zM408 553q-281 -390 -281 -414q0 -41 69 -67t134 -29l-13 -43h-563
l13 43q63 4 142 41t181 160q420 524 922 1177h57v-1239q0 -88 44 -112t128 -27l-12 -43h-598l12 43q106 6 167 29t60 104v377h-462z" />
    <glyph glyph-name="Adieresis" unicode="&#xc4;" horiz-adv-x="1300" 
d="M969 1661q0 -47 -37 -88t-91 -41t-81 31t-27 81t39 90t90 40t79 -33t28 -80zM1169 1644q0 48 40 90q39 40 91 40t78 -33t27 -80q0 -47 -36 -88t-90 -41t-82 32t-28 80zM870 614v525l-409 -525h409zM408 553q-281 -390 -281 -414q0 -41 69 -67t134 -29l-13 -43h-563l13 43
q63 4 142 41t181 160q420 524 922 1177h57v-1239q0 -88 44 -112t128 -27l-12 -43h-598l12 43q106 6 167 29t60 104v377h-462z" />
    <glyph glyph-name="Aring" unicode="&#xc5;" horiz-adv-x="1300" 
d="M967 1690q0 -148 123 -148q60 0 96 54q35 54 35 124t-32 110t-90 40t-95 -54t-37 -126zM1329 1703q0 -89 -65 -150q-66 -60 -165 -60t-170 58q-71 57 -71 149t67 155t165 63t168 -62q70 -64 71 -153zM870 614v525l-409 -525h409zM408 553q-281 -390 -281 -414
q0 -41 69 -67t134 -29l-13 -43h-563l13 43q63 4 142 41t181 160q420 524 922 1177h57v-1239q0 -88 44 -112t128 -27l-12 -43h-598l12 43q106 6 167 29t60 104v377h-462z" />
    <glyph glyph-name="AE" unicode="&#xc6;" horiz-adv-x="1939" 
d="M1133 1321h-21l-588 -696h424zM1024 145q0 -55 44 -71t163 -17q275 0 337 49q62 50 136 142t102 145h52l-134 -393h-1175l14 43q102 0 172 25q68 25 88 102l109 391h-461q-187 -215 -241 -289t-74 -120t45 -74q66 -29 137 -33l-12 -45h-564l13 45q86 4 165 41t183 158
q598 696 924 1085q-47 18 -162 25l10 45h1120l-88 -320h-51v17q0 92 -39 162t-100 77q-61 8 -164 8h-221l-166 -591h160q119 0 194 65q55 43 113 187h53l-160 -570h-49q6 36 6 104t-16 95q-43 63 -156 63h-160l-127 -452q-20 -68 -20 -99z" />
    <glyph glyph-name="Ccedilla" unicode="&#xc7;" horiz-adv-x="1286" 
d="M881 1366q-211 0 -383 -244t-172 -581q0 -221 96 -353t287 -133q147 0 253 82q105 82 216 246l47 -29q-55 -84 -105 -142t-122 -118q-150 -124 -371 -125h-31l-27 -82q221 0 222 -133q0 -219 -486 -219l12 47q311 6 312 119q0 41 -36 55t-120 15l66 202q-213 25 -327 164
t-114 378t119 454t307 336t391 120q104 1 169 -25t137 -85l84 104h84l-99 -506h-49q-23 221 -99 337q-77 116 -261 116z" />
    <glyph glyph-name="Egrave" unicode="&#xc8;" horiz-adv-x="1304" 
d="M940 1487l-31 -21q-75 76 -149 144t-90 84q-62 61 -62 105t23 67q23 22 59 22t60 -24q25 -24 45 -70q20 -45 63 -135t82 -172zM1241 1079v17q0 92 -39 162t-100 77q-61 8 -164 8h-221l-166 -591h160q119 0 194 65q55 43 113 187h53l-160 -570h-49q6 36 6 104t-16 95
q-43 63 -156 63h-159l-127 -452q-20 -68 -20 -111t43 -59q44 -16 163 -17q276 0 338 48q62 47 134 141q73 94 103 147h52l-133 -393h-1176l14 43q102 0 172 25q68 25 88 102l289 1044q8 37 8 50q0 37 -41 55q-70 31 -153 35l14 45h1075l-88 -320h-51z" />
    <glyph glyph-name="Eacute" unicode="&#xc9;" horiz-adv-x="1304" 
d="M1288 1823q0 -61 -106 -135q-31 -20 -140 -86t-219 -138l-22 25q170 191 256 295t162 104q33 0 51 -19t18 -46zM1241 1079v17q0 92 -39 162t-100 77q-61 8 -164 8h-221l-166 -591h160q119 0 194 65q55 43 113 187h53l-160 -570h-49q6 36 6 104t-16 95q-43 63 -156 63
h-159l-127 -452q-20 -68 -20 -111t43 -59q44 -16 163 -17q276 0 338 48q62 47 134 141q73 94 103 147h52l-133 -393h-1176l14 43q102 0 172 25q68 25 88 102l289 1044q8 37 8 50q0 37 -41 55q-70 31 -153 35l14 45h1075l-88 -320h-51z" />
    <glyph glyph-name="Ecircumflex" unicode="&#xca;" horiz-adv-x="1304" 
d="M1012 1913q40 0 53 -7q12 -7 25 -39q14 -32 62 -152t83 -202l-31 -16l-215 277l-375 -277l-22 21q190 203 269 292t95 96t56 7zM1241 1079v17q0 92 -39 162t-100 77q-61 8 -164 8h-221l-166 -591h160q119 0 194 65q55 43 113 187h53l-160 -570h-49q6 36 6 104t-16 95
q-43 63 -156 63h-159l-127 -452q-20 -68 -20 -111t43 -59q44 -16 163 -17q276 0 338 48q62 47 134 141q73 94 103 147h52l-133 -393h-1176l14 43q102 0 172 25q68 25 88 102l289 1044q8 37 8 50q0 37 -41 55q-70 31 -153 35l14 45h1075l-88 -320h-51z" />
    <glyph glyph-name="Edieresis" unicode="&#xcb;" horiz-adv-x="1304" 
d="M836 1661q0 -47 -37 -88t-91 -41t-82 31q-26 31 -26 81t39 90t90 40t79 -33t28 -80zM1036 1644q0 48 40 90q40 40 92 40t78 -33t26 -80t-36 -88t-90 -41t-82 32t-28 80zM1241 1079v17q0 92 -39 162t-100 77q-61 8 -164 8h-221l-166 -591h160q119 0 194 65q55 43 113 187
h53l-160 -570h-49q6 36 6 104t-16 95q-43 63 -156 63h-159l-127 -452q-20 -68 -20 -111t43 -59q44 -16 163 -17q276 0 338 48q62 47 134 141q73 94 103 147h52l-133 -393h-1176l14 43q102 0 172 25q68 25 88 102l289 1044q8 37 8 50q0 37 -41 55q-70 31 -153 35l14 45h1075
l-88 -320h-51z" />
    <glyph glyph-name="Igrave" unicode="&#xcc;" horiz-adv-x="794" 
d="M684 1487l-31 -21q-75 76 -149 144t-90 84q-62 61 -62 105t23 67q23 22 59 22t60 -24q25 -24 45 -70q20 -45 63 -135t82 -172zM389 131q0 -37 43 -57q16 -8 64 -18t77 -13l-10 -43h-624l10 43q113 6 153 20q66 23 88 101l293 1053q8 37 9 47q0 35 -41 55q-72 31 -138 35
l13 45h626l-12 -45q-82 -4 -160 -25q-68 -20 -90 -102l-295 -1055q-6 -29 -6 -41z" />
    <glyph glyph-name="Iacute" unicode="&#xcd;" horiz-adv-x="794" 
d="M1051 1823q0 -61 -107 -135q-32 -20 -140 -86t-218 -138l-23 25q170 191 256 295t162 104q33 0 51 -19t19 -46zM389 131q0 -37 43 -57q16 -8 64 -18t77 -13l-10 -43h-624l10 43q113 6 153 20q66 23 88 101l293 1053q8 37 9 47q0 35 -41 55q-72 31 -138 35l13 45h626
l-12 -45q-82 -4 -160 -25q-68 -20 -90 -102l-295 -1055q-6 -29 -6 -41z" />
    <glyph glyph-name="Icircumflex" unicode="&#xce;" horiz-adv-x="794" 
d="M748 1892q40 0 53 -7q12 -7 25 -39q14 -32 62 -152t83 -201l-31 -16l-215 276l-375 -276l-22 20q190 203 269 292t95 96t56 7zM389 131q0 -37 43 -57q16 -8 64 -18t77 -13l-10 -43h-624l10 43q113 6 153 20q66 23 88 101l293 1053q8 37 9 47q0 35 -41 55q-72 31 -138 35
l13 45h626l-12 -45q-82 -4 -160 -25q-68 -20 -90 -102l-295 -1055q-6 -29 -6 -41z" />
    <glyph glyph-name="Idieresis" unicode="&#xcf;" horiz-adv-x="794" 
d="M354 1644q0 50 39 90t91 40t78 -33q28 -33 28 -80t-37 -88t-91 -41t-81 31t-27 81zM922 1774q52 0 78 -33t26 -80t-36 -88t-90 -41t-82 32t-28 80t40 90q40 40 92 40zM389 131q0 -37 43 -57q16 -8 64 -18t77 -13l-10 -43h-624l10 43q113 6 153 20q66 23 88 101l293 1053
q8 37 9 47q0 35 -41 55q-72 31 -138 35l13 45h626l-12 -45q-82 -4 -160 -25q-68 -20 -90 -102l-295 -1055q-6 -29 -6 -41z" />
    <glyph glyph-name="Eth" unicode="&#xd0;" horiz-adv-x="1538" 
d="M1288 838q0 250 -114 376t-322 127q-47 0 -137 -4l-162 -575h297l-19 -68h-296l-134 -477q-20 -76 20 -117t142 -41q305 1 515 229t210 550zM1505 834q0 -168 -79 -331t-212 -273t-308 -170t-367 -60h-607l11 43q113 6 153 20q66 23 88 101l148 530h-207l18 68h207
l127 455q8 37 8 47q0 35 -41 55q-72 31 -137 35l12 45h607q228 0 394 -119q185 -132 185 -446z" />
    <glyph glyph-name="Ntilde" unicode="&#xd1;" horiz-adv-x="1509" 
d="M1182 1528q-76 0 -159 58t-122 59q-63 0 -107 -36t-94 -112l-36 19q53 96 129 176q77 80 153 80t159 -58t134 -59q51 0 95 36t93 111l37 -18q-53 -96 -129 -176q-77 -80 -153 -80zM291 204q0 -68 23 -94q24 -24 94 -44t104 -23l-12 -43h-613l13 43q36 2 106 19t98 36
q82 51 144 281l192 723q58 238 -237 252l14 45h422l473 -1102l188 721q33 127 33 190q-1 64 -27 84t-92 40t-102 24l12 43h609l-13 -43q-34 -2 -104 -18t-98 -33q-78 -43 -142 -275l-278 -1044h-68l-504 1175l-202 -772q-33 -117 -33 -185z" />
    <glyph glyph-name="Ograve" unicode="&#xd2;" horiz-adv-x="1474" 
d="M680 1799q0 44 22 67q23 22 59 22q37 0 61 -24t44 -70q20 -45 64 -135t82 -172l-31 -21q-76 76 -150 144t-90 84q-61 61 -61 105zM1237 932q0 192 -79 314t-253 122q-121 0 -225 -68t-176 -182q-178 -285 -178 -647q0 -201 83 -321t250 -121q223 0 377 213
q92 130 146 314t55 376zM920 1430q232 0 384 -156t152 -376q0 -222 -77 -412t-228 -322q-229 -197 -514 -197q-215 0 -356 139q-174 170 -175 420q0 190 76 372t219 319q229 213 519 213z" />
    <glyph glyph-name="Oacute" unicode="&#xd3;" horiz-adv-x="1474" 
d="M1300 1823q0 -61 -106 -135q-32 -20 -140 -86t-218 -138l-23 25q170 191 256 295t162 104q33 0 51 -19t18 -46zM1237 932q0 192 -79 314t-253 122q-121 0 -225 -68t-176 -182q-178 -285 -178 -647q0 -201 83 -321t250 -121q223 0 377 213q92 130 146 314t55 376z
M920 1430q232 0 384 -156t152 -376q0 -222 -77 -412t-228 -322q-229 -197 -514 -197q-215 0 -356 139q-174 170 -175 420q0 190 76 372t219 319q229 213 519 213z" />
    <glyph glyph-name="Ocircumflex" unicode="&#xd4;" horiz-adv-x="1474" 
d="M1037 1892q41 0 53 -7t25 -39t61 -152t84 -201l-31 -16l-215 276l-375 -276l-23 20q190 203 270 292t95 96q16 7 56 7zM1237 932q0 192 -79 314t-253 122q-121 0 -225 -68t-176 -182q-178 -285 -178 -647q0 -201 83 -321t250 -121q223 0 377 213q92 130 146 314t55 376z
M920 1430q232 0 384 -156t152 -376q0 -222 -77 -412t-228 -322q-229 -197 -514 -197q-215 0 -356 139q-174 170 -175 420q0 190 76 372t219 319q229 213 519 213z" />
    <glyph glyph-name="Otilde" unicode="&#xd5;" horiz-adv-x="1474" 
d="M1129 1538q-77 0 -159 58t-122 59q-64 0 -108 -36t-93 -112l-37 19q53 96 129 176t153 80t160 -58t134 -59q51 0 95 36t93 111l37 -18q-53 -96 -129 -176t-153 -80zM1237 932q0 192 -79 314t-253 122q-121 0 -225 -68t-176 -182q-178 -285 -178 -647q0 -201 83 -321
t250 -121q223 0 377 213q92 130 146 314t55 376zM920 1430q232 0 384 -156t152 -376q0 -222 -77 -412t-228 -322q-229 -197 -514 -197q-215 0 -356 139q-174 170 -175 420q0 190 76 372t219 319q229 213 519 213z" />
    <glyph glyph-name="Odieresis" unicode="&#xd6;" horiz-adv-x="1474" 
d="M653 1644q0 50 39 90q38 40 90 40t80 -33t27 -80q0 -47 -37 -88t-91 -41t-81 31t-27 81zM1220 1774q52 0 78 -33t27 -80q0 -47 -36 -88t-90 -41t-82 32q-27 32 -27 80t39 90q39 40 91 40zM1237 932q0 192 -79 314t-253 122q-121 0 -225 -68t-176 -182
q-178 -285 -178 -647q0 -201 83 -321t250 -121q223 0 377 213q92 130 146 314t55 376zM920 1430q232 0 384 -156t152 -376q0 -222 -77 -412t-228 -322q-229 -197 -514 -197q-215 0 -356 139q-174 170 -175 420q0 190 76 372t219 319q229 213 519 213z" />
    <glyph glyph-name="Oslash" unicode="&#xd8;" horiz-adv-x="1474" 
d="M1239 884q0 144 -18 224l-875 -836q66 -244 313 -243q223 0 377 213q92 130 148 314t55 328zM905 1368q-121 0 -225 -68t-176 -182q-180 -287 -180 -647q0 -84 8 -135l872 831q-72 201 -299 201zM1456 888q0 -212 -77 -402t-228 -322q-229 -197 -499 -197t-427 199
l-260 -244l-39 37l267 252q-87 137 -87 321t76 366t219 319q229 213 519 213q238 0 393 -164l229 215l41 -39l-233 -219q106 -123 106 -335z" />
    <glyph glyph-name="Ugrave" unicode="&#xd9;" horiz-adv-x="1619" 
d="M1112 1487l-31 -21q-75 76 -149 144t-90 84q-62 61 -62 105t23 67q23 22 59 22t60 -24q25 -24 45 -70q20 -45 63 -135t82 -172zM659 -33q-426 0 -426 324q0 94 29 194l203 732q8 37 8 47q0 35 -41 55q-72 31 -137 35l12 45h627l-12 -45q-84 -4 -160 -25q-68 -20 -90 -102
l-195 -701q-39 -134 -39 -244t69 -168t224 -59q369 0 494 426l153 539q33 121 33 186q0 66 -27 86q-26 20 -92 40t-102 24l12 43h608l-12 -43q-34 -2 -104 -18t-108 -38t-68 -87t-64 -181l-160 -559q-147 -506 -635 -506z" />
    <glyph glyph-name="Uacute" unicode="&#xda;" horiz-adv-x="1619" 
d="M1464 1823q0 -61 -106 -135q-32 -20 -140 -86t-219 -138l-22 25q170 191 256 295t162 104q33 0 51 -19t18 -46zM659 -33q-426 0 -426 324q0 94 29 194l203 732q8 37 8 47q0 35 -41 55q-72 31 -137 35l12 45h627l-12 -45q-84 -4 -160 -25q-68 -20 -90 -102l-195 -701
q-39 -134 -39 -244t69 -168t224 -59q369 0 494 426l153 539q33 121 33 186q0 66 -27 86q-26 20 -92 40t-102 24l12 43h608l-12 -43q-34 -2 -104 -18t-108 -38t-68 -87t-64 -181l-160 -559q-147 -506 -635 -506z" />
    <glyph glyph-name="Ucircumflex" unicode="&#xdb;" horiz-adv-x="1619" 
d="M1182 1892q40 0 53 -7q12 -7 25 -39q14 -32 62 -152t83 -201l-31 -16l-215 276l-375 -276l-22 20q190 203 269 292t95 96t56 7zM659 -33q-426 0 -426 324q0 94 29 194l203 732q8 37 8 47q0 35 -41 55q-72 31 -137 35l12 45h627l-12 -45q-84 -4 -160 -25q-68 -20 -90 -102
l-195 -701q-39 -134 -39 -244t69 -168t224 -59q369 0 494 426l153 539q33 121 33 186q0 66 -27 86q-26 20 -92 40t-102 24l12 43h608l-12 -43q-34 -2 -104 -18t-108 -38t-68 -87t-64 -181l-160 -559q-147 -506 -635 -506z" />
    <glyph glyph-name="Udieresis" unicode="&#xdc;" horiz-adv-x="1619" 
d="M780 1644q0 50 39 90t91 40t78 -33q28 -33 28 -80t-37 -88t-91 -41t-81 31t-27 81zM1348 1774q52 0 78 -33t26 -80t-36 -88t-90 -41t-82 32t-28 80t40 90q40 40 92 40zM659 -33q-426 0 -426 324q0 94 29 194l203 732q8 37 8 47q0 35 -41 55q-72 31 -137 35l12 45h627
l-12 -45q-84 -4 -160 -25q-68 -20 -90 -102l-195 -701q-39 -134 -39 -244t69 -168t224 -59q369 0 494 426l153 539q33 121 33 186q0 66 -27 86q-26 20 -92 40t-102 24l12 43h608l-12 -43q-34 -2 -104 -18t-108 -38t-68 -87t-64 -181l-160 -559q-147 -506 -635 -506z" />
    <glyph glyph-name="Yacute" unicode="&#xdd;" horiz-adv-x="1286" 
d="M1321 1823q0 -61 -107 -135q-32 -20 -140 -86t-218 -138l-22 25q170 191 256 295t161 104q33 0 51 -19t19 -46zM1505 1307q0 -135 -119 -136q-52 0 -78 32t-26 63t29 71l-8 11q-61 -14 -147 -92t-165 -191q-143 -201 -198 -424l-117 -469q-6 -25 -6 -41q2 -39 47 -59
q15 -8 75 -18t89 -11l-11 -43h-641l11 43q104 6 147 20q66 23 84 101l123 502q20 82 20 257t-57 275t-199 100t-206 -204l-46 14q106 315 357 315q151 0 241 -123t91 -280q0 -74 -19 -197h19q115 295 270 449q156 154 303 153q68 1 102 -37t35 -81z" />
    <glyph glyph-name="Thorn" unicode="&#xde;" horiz-adv-x="1224" 
d="M989 776q0 262 -266 262h-92l-176 -639h98q207 1 321 103t115 274zM1206 795q0 -211 -185 -334t-489 -123h-96l-47 -168q-6 -20 -6 -48q0 -42 107 -67q48 -10 77 -12l-10 -43h-625l11 43q113 6 153 20q66 23 88 101l293 1053q8 37 8 47q0 35 -41 55q-72 31 -137 35l12 45
h619l-10 -43q-113 -6 -154 -21q-66 -23 -88 -100l-39 -139h156q193 0 298 -79t105 -222z" />
    <glyph glyph-name="germandbls" unicode="&#xdf;" horiz-adv-x="1925" 
d="M502 948q-54 0 -114 -41t-60 -121q0 -113 108 -165q103 -53 185 -80q80 -35 131 -97t51 -139q0 -145 -118 -238t-300 -94q-88 0 -168 25t-119 57l-71 -69h-58l103 366h45q8 -131 80 -228q71 -97 193 -97t182 55q60 56 60 124q1 122 -130 181q-108 45 -179 80t-112 94
t-41 129q0 139 110 225t271 86q63 -1 139 -23t107 -54l71 67h58l-97 -350h-47q-6 129 -69 218t-211 89zM1462 948q-53 0 -113 -41t-61 -121q0 -113 109 -165q105 -54 184 -80q80 -35 131 -97t51 -139q1 -145 -117 -238t-300 -94q-88 0 -168 25t-119 57l-72 -69h-57l102 366
h45q8 -131 80 -228q71 -97 193 -97t183 55q60 56 60 124q0 122 -131 181q-116 48 -182 81q-67 34 -109 93q-41 59 -41 129q0 139 110 225t271 86q63 -1 139 -23t107 -54l72 67h57l-96 -350h-47q-5 129 -69 218t-212 89z" />
    <glyph glyph-name="agrave" unicode="&#xe0;" horiz-adv-x="1079" 
d="M467 1448q0 44 22 68q23 22 59 22t60 -25t45 -69q19 -44 63 -135q44 -90 83 -172l-31 -21q-76 76 -150 144t-90 83q-61 61 -61 105zM608 399l-49 379l-254 -379h303zM133 106q0 -45 168 -63l-12 -43h-471l12 43q82 4 135 31t113 104q100 137 295 424t268 391h74l116 -860
q6 -43 37 -59t125 -31l-12 -43h-541l13 43q63 4 130 18t66 33l-33 248h-352q-26 -37 -54 -87l-52 -91t-25 -58z" />
    <glyph glyph-name="aacute" unicode="&#xe1;" horiz-adv-x="1079" 
d="M1040 1473q0 -61 -106 -136q-32 -20 -140 -86t-219 -137l-22 25q170 190 266 307q78 92 152 92q33 0 51 -19t18 -46zM608 399l-49 379l-254 -379h303zM133 106q0 -45 168 -63l-12 -43h-471l12 43q82 4 135 31t113 104q100 137 295 424t268 391h74l116 -860q6 -43 37 -59
t125 -31l-12 -43h-541l13 43q63 4 130 18t66 33l-33 248h-352q-26 -37 -54 -87l-52 -91t-25 -58z" />
    <glyph glyph-name="acircumflex" unicode="&#xe2;" horiz-adv-x="1079" 
d="M758 1532q40 0 53 -7q11 -7 25 -39t62 -152t83 -201l-31 -17l-215 277l-375 -277l-22 21q190 203 269 292t95 96t56 7zM608 399l-49 379l-254 -379h303zM133 106q0 -45 168 -63l-12 -43h-471l12 43q82 4 135 31t113 104q100 137 295 424t268 391h74l116 -860
q6 -43 37 -59t125 -31l-12 -43h-541l13 43q63 4 130 18t66 33l-33 248h-352q-26 -37 -54 -87l-52 -91t-25 -58z" />
    <glyph glyph-name="atilde" unicode="&#xe3;" horiz-adv-x="1079" 
d="M842 1198q-76 0 -159 58t-122 59q-63 0 -107 -36t-94 -112l-36 19q53 96 129 176q77 80 153 80t159 -58t134 -59q51 0 95 36t93 112l37 -19q-53 -96 -129 -176q-77 -80 -153 -80zM608 399l-49 379l-254 -379h303zM133 106q0 -45 168 -63l-12 -43h-471l12 43q82 4 135 31
t113 104q100 137 295 424t268 391h74l116 -860q6 -43 37 -59t125 -31l-12 -43h-541l13 43q63 4 130 18t66 33l-33 248h-352q-26 -37 -54 -87l-52 -91t-25 -58z" />
    <glyph glyph-name="adieresis" unicode="&#xe4;" horiz-adv-x="1079" 
d="M506 1444q50 0 78 -33t28 -80t-37 -88t-91 -41t-81 31t-27 81t40 90q39 40 90 40zM1049 1331q0 -47 -36 -88t-90 -41t-82 32t-28 81t40 89t91 40t78 -33t27 -80zM608 399l-49 379l-254 -379h303zM133 106q0 -45 168 -63l-12 -43h-471l12 43q82 4 135 31t113 104
q100 137 295 424t268 391h74l116 -860q6 -43 37 -59t125 -31l-12 -43h-541l13 43q63 4 130 18t66 33l-33 248h-352q-26 -37 -54 -87l-52 -91t-25 -58z" />
    <glyph glyph-name="aring" unicode="&#xe5;" horiz-adv-x="1079" 
d="M834 1329q0 70 -32 110t-90 40q-58 -1 -96 -55t-36 -126q0 -72 32 -110t91 -37q60 0 96 54q35 54 35 124zM942 1312q0 -89 -65 -150q-66 -60 -165 -60t-170 58t-71 150t67 154q67 64 165 64q99 0 169 -64t70 -152zM608 399l-49 379l-254 -379h303zM133 106q0 -45 168 -63
l-12 -43h-471l12 43q82 4 135 31t113 104q100 137 295 424t268 391h74l116 -860q6 -43 37 -59t125 -31l-12 -43h-541l13 43q63 4 130 18t66 33l-33 248h-352q-26 -37 -54 -87l-52 -91t-25 -58z" />
    <glyph glyph-name="ae" unicode="&#xe6;" horiz-adv-x="1521" 
d="M799 926h-39l-387 -445h307zM1374 725v14q0 51 -28 113t-66 70q-57 8 -131 8h-164l-111 -404h109q86 0 134 39t91 144h52l-119 -424h-51q0 4 6 55q0 70 -15 92q-27 45 -110 45h-109l-80 -299q-14 -53 -14 -79t31 -37t104 -11q201 0 244 33t108 115q66 82 95 125h49
l-119 -324h-918l13 43q98 6 143 20q51 14 66 66l82 303h-338q-37 -41 -199 -246q-43 -57 -51 -73q0 -31 48 -48t101 -22l-12 -43h-442l12 43q53 6 111 32t131 103q119 131 337 382t298 341q-18 13 -80 23t-107 10l12 43h1006l-70 -252h-49z" />
    <glyph glyph-name="ccedilla" unicode="&#xe7;" horiz-adv-x="1042" 
d="M889 614v33q0 301 -244 301q-147 0 -260 -158t-113 -399q0 -151 71 -241t194 -90t203 62t149 185l49 -31q-158 -291 -444 -301l-31 -88q223 0 223 -135q0 -217 -487 -217l12 49q311 6 311 117q0 41 -36 55t-119 15l69 206q-174 10 -274 122t-101 282q1 262 179 441
t436 179q145 0 233 -77l64 67h69l-104 -377h-49z" />
    <glyph glyph-name="egrave" unicode="&#xe8;" horiz-adv-x="1097" 
d="M457 1448q0 44 22 68q23 22 59 22t60 -25t45 -69q20 -44 63 -135q43 -90 82 -172l-30 -21q-76 76 -150 144t-90 83q-61 61 -61 105zM948 725v18q0 55 -26 113q-27 58 -71 66t-122 8h-172l-111 -398h105q86 0 137 45t88 138h51l-118 -424h-52q9 90 6 111q-3 20 -13 42
q-17 40 -105 39h-113l-82 -307q-12 -50 -12 -76t30 -38t113 -11q187 0 231 32t111 114q68 82 99 127h49l-121 -324h-924l13 43q106 6 145 18q53 14 74 89l178 661q10 37 10 59q0 51 -168 64l12 43h875l-70 -252h-47z" />
    <glyph glyph-name="eacute" unicode="&#xe9;" horiz-adv-x="1097" 
d="M985 1473q0 -61 -106 -136q-31 -20 -140 -86t-219 -137l-22 25q170 191 256 295t161 104q33 0 51 -19t19 -46zM948 725v18q0 55 -26 113q-27 58 -71 66t-122 8h-172l-111 -398h105q86 0 137 45t88 138h51l-118 -424h-52q9 90 6 111q-3 20 -13 42q-17 40 -105 39h-113
l-82 -307q-12 -50 -12 -76t30 -38t113 -11q187 0 231 32t111 114q68 82 99 127h49l-121 -324h-924l13 43q106 6 145 18q53 14 74 89l178 661q10 37 10 59q0 51 -168 64l12 43h875l-70 -252h-47z" />
    <glyph glyph-name="ecircumflex" unicode="&#xea;" horiz-adv-x="1097" 
d="M763 1542q40 0 52 -7q11 -7 25 -39t62 -152t83 -201l-31 -17l-215 277l-374 -277l-23 21q190 203 270 292t95 96q16 7 56 7zM948 725v18q0 55 -26 113q-27 58 -71 66t-122 8h-172l-111 -398h105q86 0 137 45t88 138h51l-118 -424h-52q9 90 6 111q-3 20 -13 42
q-17 40 -105 39h-113l-82 -307q-12 -50 -12 -76t30 -38t113 -11q187 0 231 32t111 114q68 82 99 127h49l-121 -324h-924l13 43q106 6 145 18q53 14 74 89l178 661q10 37 10 59q0 51 -168 64l12 43h875l-70 -252h-47z" />
    <glyph glyph-name="edieresis" unicode="&#xeb;" horiz-adv-x="1097" 
d="M488 1444q52 0 78 -33q28 -33 28 -80t-37 -88t-91 -41t-81 31t-27 81t39 90t91 40zM926 1444q52 0 78 -33t26 -80t-36 -88t-90 -41t-82 32t-28 81t41 89q40 40 91 40zM948 725v18q0 55 -26 113q-27 58 -71 66t-122 8h-172l-111 -398h105q86 0 137 45t88 138h51l-118 -424
h-52q9 90 6 111q-3 20 -13 42q-17 40 -105 39h-113l-82 -307q-12 -50 -12 -76t30 -38t113 -11q187 0 231 32t111 114q68 82 99 127h49l-121 -324h-924l13 43q106 6 145 18q53 14 74 89l178 661q10 37 10 59q0 51 -168 64l12 43h875l-70 -252h-47z" />
    <glyph glyph-name="igrave" unicode="&#xec;" horiz-adv-x="722" 
d="M637 1137l-31 -21q-76 76 -150 144t-89 83q-61 61 -61 105t22 68q22 22 58 22t60 -25t46 -69q20 -44 63 -135q43 -90 82 -172zM342 111q0 -29 35 -45t123 -23l-13 -43h-550l12 43q104 6 139 16q51 14 72 86l182 670q10 31 10 57q0 47 -164 62l13 43h557l-13 -43
q-86 -4 -143 -21q-53 -12 -72 -86l-174 -645q-14 -61 -14 -71z" />
    <glyph glyph-name="iacute" unicode="&#xed;" horiz-adv-x="722" 
d="M805 1473q0 -61 -107 -136q-32 -20 -140 -86t-218 -137l-23 25q171 191 257 295t161 104q33 0 51 -19t19 -46zM342 111q0 -29 35 -45t123 -23l-13 -43h-550l12 43q104 6 139 16q51 14 72 86l182 670q10 31 10 57q0 47 -164 62l13 43h557l-13 -43q-86 -4 -143 -21
q-53 -12 -72 -86l-174 -645q-14 -61 -14 -71z" />
    <glyph glyph-name="icircumflex" unicode="&#xee;" horiz-adv-x="722" 
d="M342 111q0 -29 35 -45t123 -23l-13 -43h-550l12 43q104 6 139 16q51 14 72 86l182 670q10 31 10 57q0 47 -164 62l13 43h557l-13 -43q-86 -4 -143 -21q-53 -12 -72 -86l-174 -645q-14 -61 -14 -71zM610 1532q35 0 43 -8t48 -153t75 -241l-35 -16l-174 275l-313 -273
l-27 21q82 94 173 212q92 118 102 130t17 19t8 9q2 5 13 13t14 8l19 4h37z" />
    <glyph glyph-name="idieresis" unicode="&#xef;" horiz-adv-x="722" 
d="M342 111q0 -29 35 -45t123 -23l-13 -43h-550l12 43q104 6 139 16q51 14 72 86l182 670q10 31 10 57q0 47 -164 62l13 43h557l-13 -43q-86 -4 -143 -21q-53 -12 -72 -86l-174 -645q-14 -61 -14 -71zM339 1206q-106 0 -106 108q0 50 38 89q37 39 89 39t78 -32t27 -79
q0 -47 -36 -86t-90 -39zM746 1442q52 0 76 -32q26 -32 26 -79t-35 -86t-89 -39t-81 30t-27 79t39 88t91 39z" />
    <glyph glyph-name="eth" unicode="&#xf0;" horiz-adv-x="1228" 
d="M340 131q0 -80 129 -80q213 0 336 165t123 394q0 142 -81 230t-220 88l-72 -2l-106 -385h264l-15 -58h-264l-90 -325q-4 -20 -4 -27zM1137 576q1 -126 -63 -244q-114 -213 -394 -295q-123 -37 -252 -37h-500l13 43q88 6 141 20t68 66l96 354h-180l14 58h180l78 278
q10 31 10 45q0 35 -33 45q-51 18 -129 25l13 43h477q154 0 298 -79q163 -89 163 -322z" />
    <glyph glyph-name="ntilde" unicode="&#xf1;" horiz-adv-x="1259" 
d="M916 1198q-78 0 -160 58t-121 59q-63 0 -107 -36t-94 -112l-37 19q53 96 129 176t153 80t160 -58t134 -59q51 0 95 36t93 112l37 -19q-53 -96 -129 -176t-153 -80zM1024 825q0 49 -20 62q-45 29 -173 47l13 43h508l-13 -43q-94 -6 -170 -39q-55 -27 -106 -215l-191 -694
h-73l-404 817l-129 -492q-49 -186 -16 -219q14 -14 81 -30t95 -19l-12 -43h-512l12 43q30 2 94 17t78 24q52 28 102 198t61 211t43 156t33 159t-22 65t-80 39t-102 22l12 43h375l369 -746l116 441q31 104 31 153z" />
    <glyph glyph-name="ograve" unicode="&#xf2;" horiz-adv-x="1189" 
d="M821 1137l-30 -21q-76 76 -150 144t-90 83q-61 61 -61 105t22 68q22 22 58 22t61 -25t45 -69t63 -135q43 -90 82 -172zM885 657q0 293 -217 293q-113 0 -207 -93q-93 -93 -141 -235t-48 -288q0 -308 215 -307q81 1 139 35t122 115t100 213q37 132 37 267zM1096 596
q0 -141 -66 -274t-186 -222q-174 -127 -360 -127t-304 117q-119 117 -119 293q0 135 61 263q60 128 181 222q175 136 365 136t309 -116t119 -292z" />
    <glyph glyph-name="oacute" unicode="&#xf3;" horiz-adv-x="1189" 
d="M977 1473q0 -61 -107 -136q-32 -20 -140 -86t-218 -137l-23 25q171 191 257 295t161 104q33 0 51 -19t19 -46zM885 657q0 293 -217 293q-113 0 -207 -93q-93 -93 -141 -235t-48 -288q0 -308 215 -307q81 1 139 35t122 115t100 213q37 132 37 267zM1096 596
q0 -141 -66 -274t-186 -222q-174 -127 -360 -127t-304 117q-119 117 -119 293q0 135 61 263q60 128 181 222q175 136 365 136t309 -116t119 -292z" />
    <glyph glyph-name="ocircumflex" unicode="&#xf4;" horiz-adv-x="1189" 
d="M777 1532q40 0 52 -7q11 -7 25 -39t62 -152t83 -201l-30 -17l-215 277l-375 -277l-23 21q190 203 270 292t95 96q16 7 56 7zM885 657q0 293 -217 293q-113 0 -207 -93q-93 -93 -141 -235t-48 -288q0 -308 215 -307q81 1 139 35t122 115t100 213q37 132 37 267zM1096 596
q0 -141 -66 -274t-186 -222q-174 -127 -360 -127t-304 117q-119 117 -119 293q0 135 61 263q60 128 181 222q175 136 365 136t309 -116t119 -292z" />
    <glyph glyph-name="otilde" unicode="&#xf5;" horiz-adv-x="1189" 
d="M836 1198q-78 0 -160 58t-121 59q-63 0 -107 -36t-94 -112l-37 19q53 96 129 176t153 80t160 -58t134 -59q51 0 95 36t93 112l37 -19q-53 -96 -129 -176t-153 -80zM885 657q0 293 -217 293q-113 0 -207 -93q-93 -93 -141 -235t-48 -288q0 -308 215 -307q81 1 139 35
t122 115t100 213q37 132 37 267zM1096 596q0 -141 -66 -274t-186 -222q-174 -127 -360 -127t-304 117q-119 117 -119 293q0 135 61 263q60 128 181 222q175 136 365 136t309 -116t119 -292z" />
    <glyph glyph-name="odieresis" unicode="&#xf6;" horiz-adv-x="1189" 
d="M504 1444q50 0 78 -33t28 -80t-37 -88t-91 -41t-81 31t-27 81t40 90q39 40 90 40zM1047 1331q0 -47 -36 -88q-37 -41 -91 -41t-82 32t-27 81q0 49 40 89t91 40t78 -33t27 -80zM885 657q0 293 -217 293q-113 0 -207 -93q-93 -93 -141 -235t-48 -288q0 -308 215 -307
q81 1 139 35t122 115t100 213q37 132 37 267zM1096 596q0 -141 -66 -274t-186 -222q-174 -127 -360 -127t-304 117q-119 117 -119 293q0 135 61 263q60 128 181 222q175 136 365 136t309 -116t119 -292z" />
    <glyph glyph-name="oslash" unicode="&#xf8;" horiz-adv-x="1189" 
d="M891 620q0 98 -10 156l-586 -622q53 -127 192 -127q79 1 137 35t124 115t105 213q38 132 38 230zM668 950q-111 0 -208 -94q-98 -94 -146 -235t-48 -299q0 -27 10 -115l584 622q-51 121 -192 121zM1096 612q0 -158 -66 -289q-66 -132 -186 -221q-178 -129 -352 -129
t-279 93l-147 -156l-37 37l145 153q-113 118 -113 268q0 312 242 500q173 136 353 136t284 -89l133 140l37 -37l-131 -139q117 -109 117 -267z" />
    <glyph glyph-name="ugrave" unicode="&#xf9;" horiz-adv-x="1267" 
d="M594 1448q0 44 22 68q23 22 59 22q37 0 61 -25t44 -69t64 -135q44 -90 82 -172l-31 -21q-76 76 -150 144t-90 83q-61 61 -61 105zM164 217q0 45 10 82l133 498q12 37 12 67q1 30 -33 46q-34 17 -122 24l12 43h545l-12 -43q-84 -6 -134 -21q-53 -14 -71 -88l-125 -467
q-23 -82 -23 -137q0 -168 201 -168q258 0 340 264q19 69 69 269t50 246t-19 59q-43 31 -159 43l12 43h496l-13 -43q-121 -8 -173 -34t-95 -191q-81 -321 -105 -405t-80 -160q-127 -171 -392 -172q-150 -1 -237 72t-87 173z" />
    <glyph glyph-name="uacute" unicode="&#xfa;" horiz-adv-x="1267" 
d="M1110 1473q0 -61 -106 -136q-31 -20 -140 -86t-219 -137l-22 25q170 190 266 307q78 92 151 92q34 0 52 -19t18 -46zM164 217q0 45 10 82l133 498q12 37 12 67q1 30 -33 46q-34 17 -122 24l12 43h545l-12 -43q-84 -6 -134 -21q-53 -14 -71 -88l-125 -467
q-23 -82 -23 -137q0 -168 201 -168q258 0 340 264q19 69 69 269t50 246t-19 59q-43 31 -159 43l12 43h496l-13 -43q-121 -8 -173 -34t-95 -191q-81 -321 -105 -405t-80 -160q-127 -171 -392 -172q-150 -1 -237 72t-87 173z" />
    <glyph glyph-name="ucircumflex" unicode="&#xfb;" horiz-adv-x="1267" 
d="M880 1532q40 0 52 -7t25 -39t61 -152t84 -201l-31 -17l-215 277l-375 -277l-22 21q190 203 269 292t95 96q17 7 57 7zM164 217q0 45 10 82l133 498q12 37 12 67q1 30 -33 46q-34 17 -122 24l12 43h545l-12 -43q-84 -6 -134 -21q-53 -14 -71 -88l-125 -467
q-23 -82 -23 -137q0 -168 201 -168q258 0 340 264q19 69 69 269t50 246t-19 59q-43 31 -159 43l12 43h496l-13 -43q-121 -8 -173 -34t-95 -191q-81 -321 -105 -405t-80 -160q-127 -171 -392 -172q-150 -1 -237 72t-87 173z" />
    <glyph glyph-name="udieresis" unicode="&#xfc;" horiz-adv-x="1267" 
d="M713 1331q0 -47 -37 -88t-91 -41t-81 31t-27 81t39 90t90 40t79 -33t28 -80zM1044 1444q52 0 78 -33t27 -80q0 -47 -36 -88t-90 -41t-82 32t-28 81t40 89q39 40 91 40zM164 217q0 45 10 82l133 498q12 37 12 67q1 30 -33 46q-34 17 -122 24l12 43h545l-12 -43
q-84 -6 -134 -21q-53 -14 -71 -88l-125 -467q-23 -82 -23 -137q0 -168 201 -168q258 0 340 264q19 69 69 269t50 246t-19 59q-43 31 -159 43l12 43h496l-13 -43q-121 -8 -173 -34t-95 -191q-81 -321 -105 -405t-80 -160q-127 -171 -392 -172q-150 -1 -237 72t-87 173z" />
    <glyph glyph-name="yacute" unicode="&#xfd;" horiz-adv-x="1021" 
d="M995 1473q0 -61 -106 -136q-31 -20 -139 -86t-220 -137l-22 25q170 190 266 307q78 92 152 92q33 0 51 -19t18 -46zM479 120q0 -32 38 -50t147 -27l-13 -43h-604l12 43q121 8 168 21t70 90q59 209 59 235q0 74 -118 426q-18 63 -60 88t-127 31l12 43h553l-12 -43
q-184 -16 -184 -47q0 -23 115 -391q336 356 335 381q0 43 -161 57l12 43h450l-12 -43q-66 -6 -113 -28q-129 -59 -444 -429q-49 -57 -86 -191t-37 -166z" />
    <glyph glyph-name="thorn" unicode="&#xfe;" horiz-adv-x="1044" 
d="M764 565q0 168 -182 168h-80l-127 -465h102q83 0 145 34t90 85q52 95 52 178zM975 571q0 -164 -138 -260t-331 -96h-146l-18 -65q-6 -25 -6 -51t33 -33q47 -18 147 -23l-12 -43h-563l12 43q82 4 132 18t71 89l178 655q12 41 12 67t-31 35q-84 23 -135 27l13 43h559
l-13 -43q-109 -14 -151 -28t-56 -62l-16 -60h158q141 0 221 -60t80 -153z" />
    <glyph glyph-name="ydieresis" unicode="&#xff;" horiz-adv-x="1021" 
d="M492 1444q52 0 78 -33q28 -33 28 -80t-37 -88t-91 -41t-81 31t-27 81t39 90t91 40zM930 1444q52 0 78 -33t26 -80t-36 -88t-90 -41t-82 32t-28 81t41 89q40 40 91 40zM479 120q0 -32 38 -50t147 -27l-13 -43h-604l12 43q121 8 168 21t70 90q59 209 59 235q0 74 -118 426
q-18 63 -60 88t-127 31l12 43h553l-12 -43q-184 -16 -184 -47q0 -23 115 -391q336 356 335 381q0 43 -161 57l12 43h450l-12 -43q-66 -6 -113 -28q-129 -59 -444 -429q-49 -57 -86 -191t-37 -166z" />
    <glyph glyph-name="dotlessi" unicode="&#x131;" horiz-adv-x="722" 
d="M342 111q0 -29 35 -45t123 -23l-13 -43h-550l12 43q104 6 139 16q51 14 72 86l182 670q10 31 10 57q0 47 -164 62l13 43h557l-13 -43q-86 -4 -143 -21q-53 -12 -72 -86l-174 -645q-14 -61 -14 -71z" />
    <glyph glyph-name="Lslash" unicode="&#x141;" horiz-adv-x="1288" 
d="M485 1264q0 37 -41 55q-70 31 -153 35l14 45h641l-12 -45q-82 -4 -160 -25q-68 -20 -90 -102l-133 -473l358 118l13 -55l-387 -127l-125 -446q-35 -119 -2 -153q32 -34 242 -34t272 47q62 46 136 134q75 88 116 159h49l-138 -397h-1171l14 43q102 0 172 25q68 25 88 102
l123 446l-202 -67l-15 53l236 78l147 534q8 37 8 50z" />
    <glyph glyph-name="lslash" unicode="&#x142;" horiz-adv-x="1028" 
d="M346 862q0 60 -158 72l13 43h557l-13 -43q-94 -6 -147 -22t-68 -66l-77 -285l260 94l14 -53l-291 -98l-88 -332q-12 -44 -12 -72t31 -40t136 -13q105 0 155 36t128 124t119 147h47l-116 -354h-906l13 43q98 6 145 20t62 64l83 313l-159 -55l-15 51l191 66l80 293
q16 66 16 67z" />
    <glyph glyph-name="OE" unicode="&#x152;" horiz-adv-x="2045" 
d="M926 1343q-246 0 -423 -263t-177 -605q0 -203 81 -311t203 -107q74 -1 121 15t105 55q134 92 294 745q51 206 46 278q-4 72 -27 105q-66 88 -223 88zM1982 1079v17q0 92 -38 162t-100 77q-62 8 -165 8h-221l-166 -591h160q119 0 195 65q55 43 112 187h53l-159 -570h-49
q6 36 6 104t-17 95q-43 63 -155 63h-160l-127 -452q-21 -68 -21 -111t44 -59t163 -17q275 0 337 49q62 50 136 142t103 145h51l-133 -393h-885l-338 -4q-135 0 -224 44t-173 148q-104 129 -105 351q0 160 77 340t218 311q229 213 521 213l399 -4h801l-88 -320h-52z" />
    <glyph glyph-name="oe" unicode="&#x153;" horiz-adv-x="1660" 
d="M885 808q0 70 -38 98q-38 26 -132 26q-199 0 -322 -169t-123 -396q0 -152 77 -238t200 -86q141 0 198 176q33 103 87 311t53 278zM1511 725q-1 63 -27 127t-72 70q-46 8 -122 8h-168l-110 -398h106q82 0 133 42t86 139h52l-117 -424h-51q6 29 6 82t-26 83t-99 29h-103
l-81 -305q-12 -47 -12 -76t29 -40q30 -11 109 -11q190 0 240 36t112 113t93 124h49l-121 -324h-661l-250 -6q-209 0 -327 110t-118 273q0 248 166 409q199 197 508 197l264 -6h629l-69 -252h-48z" />
    <glyph glyph-name="Scaron" unicode="&#x160;" horiz-adv-x="1099" 
d="M771 1495q-40 0 -52 7q-11 7 -25 39t-62 152t-83 201l31 17l215 -277l374 277l23 -21q-190 -203 -270 -292t-95 -96q-16 -7 -56 -7zM733 1364q-137 0 -224 -78t-87 -177t49 -155t211 -139q162 -82 242 -172t80 -213q0 -199 -165 -328t-386 -129q-107 0 -197 31t-141 72
l-95 -96h-69l115 479h47q51 -424 381 -424q141 0 229 87t88 190t-52 169t-213 148t-233 164t-71 217q0 174 148 295t358 120q170 0 272 -102l96 96h70l-117 -465h-45q-18 194 -86 302t-205 108z" />
    <glyph glyph-name="scaron" unicode="&#x161;" horiz-adv-x="964" 
d="M1008 1520q-190 -202 -270 -292t-95 -96q-16 -6 -56 -8q-40 0 -52 8q-11 8 -25 38q-14 32 -63 152q-48 120 -82 202l30 16l215 -276l375 276zM502 948q-54 0 -114 -41t-60 -121q0 -113 108 -165q103 -53 185 -80q80 -35 131 -97t51 -139q0 -145 -118 -238t-300 -94
q-88 0 -168 25t-119 57l-71 -69h-58l103 366h45q8 -131 80 -228q71 -97 193 -97t182 55q60 56 60 124q1 122 -130 181q-108 45 -179 80t-112 94t-41 129q0 139 110 225t271 86q63 -1 139 -23t107 -54l71 67h58l-97 -350h-47q-6 129 -69 218t-211 89z" />
    <glyph glyph-name="Ydieresis" unicode="&#x178;" horiz-adv-x="1286" 
d="M836 1661q0 -47 -37 -88t-91 -41t-82 31q-26 31 -26 81t39 90t90 40t79 -33t28 -80zM1036 1644q0 48 40 90q40 40 92 40t78 -33t26 -80t-36 -88t-90 -41t-82 32t-28 80zM1505 1307q0 -135 -119 -136q-52 0 -78 32t-26 63t29 71l-8 11q-61 -14 -147 -92t-165 -191
q-143 -201 -198 -424l-117 -469q-6 -25 -6 -41q2 -39 47 -59q15 -8 75 -18t89 -11l-11 -43h-641l11 43q104 6 147 20q66 23 84 101l123 502q20 82 20 257t-57 275t-199 100t-206 -204l-46 14q106 315 357 315q151 0 241 -123t91 -280q0 -74 -19 -197h19q115 295 270 449
q156 154 303 153q68 1 102 -37t35 -81z" />
    <glyph glyph-name="Zcaron" unicode="&#x17d;" horiz-adv-x="1220" 
d="M864 1495q-40 0 -53 7q-11 7 -25 39t-62 152t-83 201l31 17l215 -277l375 277l22 -21q-190 -203 -269 -292t-95 -96t-56 -7zM514 55q256 -1 329 55t149 145t124 165h49l-149 -420h-1151l6 25l1253 1318h-327q-125 0 -179 -10q-80 -14 -182 -114t-164 -197h-49l139 377
h1043l-8 -25l-1254 -1319h371z" />
    <glyph glyph-name="zcaron" unicode="&#x17e;" horiz-adv-x="1026" 
d="M1042 1520q-190 -203 -321 -351q-27 -31 -43 -37t-56 -8q-40 0 -53 8q-12 8 -25 38q-13 32 -62 152q-48 120 -83 202l31 16l215 -276l375 276zM440 49q156 0 213 37q109 74 232 268h45l-105 -354h-891v25l861 905h-220q-67 0 -121 -9t-136 -95t-138 -173h-43l90 324h811
v-25l-858 -903h260z" />
    <glyph glyph-name="florin" unicode="&#x192;" horiz-adv-x="1011" 
d="M907 1278q91 0 153 -41t62 -95t-34 -91t-84 -37q-102 0 -103 92q0 41 31 106q-12 25 -43 25q-199 0 -324 -426l-35 -121h258l-22 -67h-254q-117 -389 -150 -488q-96 -283 -262 -414q-143 -119 -299 -118q-203 0 -202 139q0 51 32 85q33 34 82 34t77 -27t28 -78t-43 -94
q14 -20 35 -20q112 0 192 102t158 334q23 66 164 545h-218l21 67h215q84 309 270 475q129 113 295 113z" />
    <glyph glyph-name="circumflex" unicode="&#x2c6;" 
d="M765 1501q40 0 52 -7q11 -7 25 -39q14 -31 62 -151t83 -202l-31 -17l-215 277l-374 -277l-23 21q190 203 270 292t95 96q16 7 56 7z" />
    <glyph glyph-name="caron" unicode="&#x2c7;" 
d="M662 1104q-40 0 -52 7t-25 39q-118 291 -145 353l31 17l215 -277l375 277l22 -21q-190 -203 -269 -292t-95 -96q-17 -7 -57 -7z" />
    <glyph glyph-name="breve" unicode="&#x2d8;" 
d="M664 1104q-94 0 -157 87q-62 87 -67 284l39 12q47 -227 218 -227t335 227l39 -12q-101 -197 -207 -284t-200 -87z" />
    <glyph glyph-name="dotaccent" unicode="&#x2d9;" 
d="M730 1462q50 0 85 -34t35 -81q0 -48 -35 -85t-85 -37t-85 35q-35 34 -35 82t35 84t85 36z" />
    <glyph glyph-name="ring" unicode="&#x2da;" 
d="M836 1329q0 70 -32 110t-90 40q-58 -1 -96 -55t-36 -126q0 -72 32 -110t91 -37q60 0 96 54q35 54 35 124zM944 1312q0 -89 -65 -150q-66 -60 -165 -60t-170 58t-71 150t67 154q67 64 165 64q99 0 169 -64t70 -152z" />
    <glyph glyph-name="ogonek" unicode="&#x2db;" 
d="M70 -317q0 160 333 317h66q-131 -104 -183 -172t-52 -123t38 -81q39 -26 162 -36l-12 -51q-352 2 -352 146z" />
    <glyph glyph-name="tilde" unicode="&#x2dc;" 
d="M812 1157q-77 0 -160 58t-122 59q-63 0 -107 -36t-93 -112l-37 19q53 96 129 176t153 80q77 -1 159 -59t134 -58q51 0 96 36q44 36 93 112l37 -19q-53 -96 -129 -176t-153 -80z" />
    <glyph glyph-name="hungarumlaut" unicode="&#x2dd;" 
d="M737 1460q0 -70 -102 -135q-266 -176 -350 -231l-19 24q160 180 250 290t160 112q29 0 45 -18t16 -42zM1108 1460q0 -70 -102 -135q-266 -176 -351 -231l-18 24q160 180 250 290t160 112q29 0 45 -18t16 -42z" />
    <glyph glyph-name="endash" unicode="&#x2013;" horiz-adv-x="1048" 
d="M983 604l-33 -119h-844l33 119h844z" />
    <glyph glyph-name="emdash" unicode="&#x2014;" horiz-adv-x="1843" 
d="M1759 580l-33 -115h-1540l33 115h1540z" />
    <glyph glyph-name="quoteleft" unicode="&#x2018;" horiz-adv-x="378" 
d="M293 973q61 0 95 -29t34 -76t-39 -89t-98 -42q-135 0 -135 160q0 209 315 373l20 -47q-104 -55 -161 -113t-72 -137h41z" />
    <glyph glyph-name="quoteright" unicode="&#x2019;" horiz-adv-x="378" 
d="M453 1110q0 -209 -316 -373l-20 47q103 54 161 112t72 138h-41q-61 0 -95 29t-34 76t39 89t98 42q136 0 136 -160z" />
    <glyph glyph-name="quotesinglbase" unicode="&#x201a;" horiz-adv-x="378" 
d="M199 80q0 -209 -316 -373l-20 47q103 54 161 112t72 138h-41q-61 0 -95 29t-34 76t39 89t98 42q136 0 136 -160z" />
    <glyph glyph-name="quotedblleft" unicode="&#x201c;" horiz-adv-x="724" 
d="M293 973q61 0 93 -29t32 -76t-37 -89t-96 -42q-131 0 -131 160q0 211 311 373l20 -47q-104 -55 -161 -113t-72 -137h41zM639 973q61 0 93 -29t32 -76t-37 -89t-96 -42q-131 0 -131 160q0 211 311 373l20 -47q-104 -55 -161 -113t-72 -137h41z" />
    <glyph glyph-name="quotedblright" unicode="&#x201d;" horiz-adv-x="724" 
d="M449 1110q0 -211 -312 -373l-20 47q103 54 161 112t72 138h-37q-61 0 -95 29t-34 76t37 89t96 42q132 0 132 -160zM795 1110q0 -211 -312 -373l-20 47q103 54 161 112t72 138h-37q-61 0 -95 29t-34 76t37 89t97 42q131 0 131 -160z" />
    <glyph glyph-name="quotedblbase" unicode="&#x201e;" horiz-adv-x="724" 
d="M190 84q0 -119 -80 -209t-237 -172l-18 45q104 54 162 114t73 142h-37q-57 0 -92 31t-35 76t36 84t95 38q133 1 133 -149zM537 84q0 -119 -80 -209t-238 -172l-18 45q105 54 163 114t72 142h-37q-57 0 -92 31t-35 76t36 84t95 38q134 1 134 -149z" />
    <glyph glyph-name="dagger" unicode="&#x2020;" horiz-adv-x="843" 
d="M810 1042q72 0 71 -65q0 -31 -28 -57q-27 -26 -61 -25q-34 0 -60 20t-39 44q-35 65 -66 65q-11 0 -19 -11t-112 -329t-142 -451l-41 13q45 188 106 479q60 291 60 319t-26 27q-17 0 -69 -32q-52 -31 -84 -31t-58 26t-27 60q0 34 18 56q17 22 47 22t47 -24q17 -22 17 -56
q22 0 56 11t53 11q53 0 79 -43q10 49 14 155t11 136q20 63 76 63q31 -1 50 -23t19 -54t-57 -141q-57 -108 -72 -148q18 10 50 10t77 -34t52 -36q24 43 58 43z" />
    <glyph glyph-name="daggerdbl" unicode="&#x2021;" horiz-adv-x="905" 
d="M690 258q0 -33 -18 -51q-18 -19 -47 -19t-47 24t-19 56l-67 -6q-70 0 -99 45l6 -135q0 -119 -77 -119q-34 1 -52 21t-18 51t17 65t45 73q28 38 36 54q-16 -8 -48 -8q-32 1 -72 21t-48 22q-22 -43 -56 -43q-34 -1 -52 17t-18 47t18 48q20 19 58 19t87 -43t76 -43t53 64
l45 123q47 121 64 174l43 -10q-18 -86 -38 -211t-20 -148q0 -41 52 -41l110 21q34 0 60 -18t26 -50zM653 1430q33 0 51 -20t19 -52q0 -58 -63 -138q-28 -38 -35 -55q48 24 133 -19q27 -13 35 -16q23 44 57 44t52 -18t18 -46q0 -29 -20 -48q-20 -20 -57 -20q-38 0 -87 43
t-76 43t-53 -63l-45 -123q-47 -121 -64 -174l-43 10q18 86 38 211q19 125 19 148q0 41 -51 41q-20 0 -54 -10q-35 -10 -63 -11t-54 17t-26 51t19 51q18 18 47 18t47 -24t19 -56l67 7q70 0 99 -45l-7 135q0 119 78 119z" />
    <glyph glyph-name="bullet" unicode="&#x2022;" horiz-adv-x="845" 
d="M735 666q0 -113 -82 -194q-83 -81 -197 -81t-196 81t-82 194q0 114 83 196t196 82t195 -82t83 -196z" />
    <glyph glyph-name="ellipsis" unicode="&#x2026;" horiz-adv-x="1613" 
d="M336 113q0 -53 -39 -91t-92 -38t-92 38t-39 91t39 92t92 39t92 -39t39 -92zM897 113q0 -53 -39 -91t-92 -38t-92 38t-39 91t39 92t92 39t92 -39t39 -92zM1458 113q0 -53 -39 -91t-92 -38t-92 38t-39 91t39 92t92 39t92 -39t39 -92z" />
    <glyph glyph-name="perthousand" unicode="&#x2030;" horiz-adv-x="2482" 
d="M688 1060q0 159 -121 159q-100 0 -175 -128t-75 -277t123 -148q94 0 171 118t77 276zM1421 419q0 159 -121 159q-100 0 -175 -128t-75 -277t124 -148q94 0 171 117q76 118 76 277zM2224 419q0 159 -121 159q-100 0 -175 -128t-75 -277t123 -148q94 -1 171 117t77 277z
M844 1012q0 -166 -129 -282t-281 -116q-116 0 -194 70t-78 182q0 156 125 279t280 123q121 0 199 -70t78 -186zM1569 1376l-1364 -1577l-51 37l1359 1577zM1577 371q0 -166 -129 -282t-281 -116q-115 0 -193 70t-79 182q0 156 125 279t280 123q121 -1 199 -71t78 -185z
M2380 371q0 -166 -129 -282t-281 -116q-116 0 -194 70t-78 182q0 156 125 279t280 123q121 -1 199 -71t78 -185z" />
    <glyph glyph-name="guilsinglleft" unicode="&#x2039;" horiz-adv-x="718" 
d="M92 419q0 17 13 55t36 52q406 264 543 359l23 -25l-441 -416l217 -395l-28 -18q-57 59 -132 137t-124 128t-78 78t-29 45z" />
    <glyph glyph-name="guilsinglright" unicode="&#x203a;" horiz-adv-x="718" 
d="M635 497q0 -17 -13 -55t-36 -53q-406 -264 -543 -358l-23 24l441 416l-217 395l28 19q57 -59 132 -137t124 -128t78 -78t29 -45z" />
    <glyph glyph-name="fraction" unicode="&#x2044;" horiz-adv-x="696" 
d="M1053 1485l-1401 -1919l-82 53l1401 1921z" />
    <glyph glyph-name="trademark" unicode="&#x2122;" horiz-adv-x="1138" 
d="M680 1284h-14q-6 26 -28 56t-38 32t-51 2h-25v-336q0 -23 19 -30q29 -8 47 -11v-18h-205v18l47 9q18 8 19 30v338h-25q-35 0 -51 -2q-17 -2 -37 -33t-29 -55h-14v115h385v-115zM813 1311q0 67 -70 67v21h146l135 -303l106 250q2 4 15 53h153v-21q-63 0 -63 -39v-301
q0 -22 13 -28t52 -13v-18h-210v18q71 0 71 41v308l-157 -361h-13q-18 53 -33 86l-114 266v-235q0 -68 20 -84q10 -10 60 -21v-18h-185v18q43 7 59 19t15 82v213z" />
    <glyph glyph-name="infinity" unicode="&#x221e;" horiz-adv-x="2775" 
d="M348 874q0 47 -170 60l12 43h883l-74 -264h-49v22q0 57 -24 119t-62 68q-49 8 -131 8h-176l-113 -406h109q86 0 138 38t97 145h52l-119 -426h-51q8 74 8 86q0 53 -29 81t-102 27h-117l-82 -307q-2 -6 -5 -20l-5 -22q-2 -9 -2 -13q0 -31 34 -47t134 -23l-12 -43h-564
l13 43q111 8 143 16q51 14 72 88l182 672q10 31 10 55zM1374 874q0 47 -170 60l13 43h882l-74 -264h-49v22q0 57 -24 119t-62 68q-49 8 -131 8h-176l-113 -406h109q86 0 138 38t98 145h51l-119 -426h-51q8 74 8 86q0 53 -29 81t-102 27h-117l-82 -307q-2 -6 -5 -20l-5 -22
q-2 -9 -2 -13q0 -31 34 -47t134 -23l-12 -43h-564l13 43q111 8 143 16q51 14 72 88l182 672q10 31 10 55zM2394 111q0 -29 35 -45t123 -23l-12 -43h-551l12 43q104 6 139 16q51 14 72 86l182 670q10 31 10 57t-32 35q-59 20 -131 27l12 43h557l-12 -43q-86 -4 -144 -21
q-53 -12 -71 -86l-175 -645q-14 -61 -14 -71z" />
    <glyph glyph-name="notequal" unicode="&#x2260;" horiz-adv-x="2052" 
d="M348 874q0 47 -170 60l12 43h883l-74 -264h-49v22q0 57 -24 119t-62 68q-49 8 -131 8h-176l-113 -406h109q86 0 138 38t97 145h52l-119 -426h-51q8 74 8 86q0 53 -29 81t-102 27h-117l-82 -307q-2 -6 -5 -20l-5 -22q-2 -9 -2 -13q0 -31 34 -47t134 -23l-12 -43h-564
l13 43q111 8 143 16q51 14 72 88l182 672q10 31 10 55zM1374 874q0 47 -170 60l13 43h882l-74 -264h-49v22q0 57 -24 119t-62 68q-49 8 -131 8h-176l-113 -406h109q86 0 138 38t98 145h51l-119 -426h-51q8 74 8 86q0 53 -29 81t-102 27h-117l-82 -307q-2 -6 -5 -20l-5 -22
q-2 -9 -2 -13q0 -31 34 -47t134 -23l-12 -43h-564l13 43q111 8 143 16q51 14 72 88l182 672q10 31 10 55z" />
    <glyph glyph-name="apple" unicode="&#xf8ff;" horiz-adv-x="1173" 
d="M807 780q0 74 -46 111t-116 37h-90l-115 -408h86q119 0 200 62t81 198zM463 469h-37l-78 -297q-14 -66 -14 -70q0 -31 34 -42t119 -17l-12 -43h-538l12 43q88 6 135 18q51 16 72 89l176 649q16 57 16 73q0 31 -33 39q-66 18 -131 23l13 43h524q131 0 214 -51t83 -144
q0 -207 -336 -284v-11q143 -41 180 -188q25 -97 34 -143q8 -46 24 -63q38 -42 163 -50l-12 -43h-352q-12 123 -49 283q-45 186 -207 186z" />
    <glyph glyph-name="fi" unicode="&#xfb01;" horiz-adv-x="1748" 
d="M348 874q0 47 -170 60l12 43h883l-74 -264h-49v22q0 57 -24 119t-62 68q-49 8 -131 8h-176l-113 -406h109q86 0 138 38t97 145h52l-119 -426h-51q8 74 8 86q0 53 -29 81t-102 27h-117l-82 -307q-2 -6 -5 -20l-5 -22q-2 -9 -2 -13q0 -31 34 -47t134 -23l-12 -43h-564
l13 43q111 8 143 16q51 14 72 88l182 672q10 31 10 55zM1368 111q0 -29 35 -45t123 -23l-13 -43h-550l12 43q104 6 139 16q51 14 72 86l182 670q10 31 10 57t-32 35q-59 20 -132 27l13 43h557l-12 -43q-86 -4 -144 -21q-53 -12 -72 -86l-174 -645q-14 -61 -14 -71z" />
    <glyph glyph-name="fl" unicode="&#xfb02;" horiz-adv-x="2054" 
d="M348 874q0 47 -170 60l12 43h883l-74 -264h-49v22q0 57 -24 119t-62 68q-49 8 -131 8h-176l-113 -406h109q86 0 138 38t97 145h52l-119 -426h-51q8 74 8 86q0 53 -29 81t-102 27h-117l-82 -307q-2 -6 -5 -20l-5 -22q-2 -9 -2 -13q0 -31 34 -47t134 -23l-12 -43h-564
l13 43q111 8 143 16q51 14 72 88l182 672q10 31 10 55zM1370 862q0 33 -31 43q-47 23 -125 29l13 43h557l-12 -43q-94 -6 -148 -22t-74 -89l-176 -651q-12 -44 -12 -72t31 -40t136 -13q105 0 155 36t128 124t119 147h47l-116 -354h-906l13 43q98 6 145 20t68 87l174 645
q14 57 14 67z" />
    <glyph glyph-name="NUL" horiz-adv-x="0" 
 />
    </font>
</defs>
</svg>
