<?xml version="1.0" standalone="no"?>
<!DOCTYPE svg PUBLIC "-//W3C//DTD SVG 1.1//EN" "http://www.w3.org/Graphics/SVG/1.1/DTD/svg11.dtd" >
<svg xmlns="http://www.w3.org/2000/svg">
<metadata>
Created by FontPrep 20130207 at Mon May 30 16:48:10 2016
 By Victor
Copyright Copr. 1994 Carter &#38; Cone Type Inc. All rights reserved.
</metadata>
<defs>
<font id="5fcc50e006dd8cf9eeb0bd739d748526" horiz-adv-x='1024' >
  <font-face 
    font-family="Miller-DisplayItalic"
    font-weight="500"
    font-style="italic"
    font-stretch="normal"
    units-per-em="2048"
    panose-1="2 0 6 3 8 0 0 2 0 3"
    ascent="1638"
    descent="-410"
    x-height="940"
    cap-height="1399"
    bbox="-467 -489.023 2380 1911"
    underline-thickness="40"
    underline-position="-231"
    slope="-12"
    unicode-range="U+0005-2122"
  />
<missing-glyph 
 />
    <glyph glyph-name=".notdef" 
 />
    <glyph glyph-name=".null" horiz-adv-x="0" 
 />
    <glyph glyph-name="nonmarkingreturn" horiz-adv-x="468" 
 />
    <glyph glyph-name="breve" 
d="M738 1260q134 0 294 227l39 -12q-193 -371 -374.5 -371t-218 132t-38.5 239l39 12q23 -104 74 -165.5t185 -61.5z" />
    <glyph glyph-name="dotaccent" 
d="M850 1347q0 -48 -35 -85t-85 -37t-85 34.5t-35 82.5t35 84t86 36t85 -33.5t34 -81.5z" />
    <glyph glyph-name="ring" 
d="M865.5 1143.5q-58.5 -58.5 -151.5 -58.5t-156.5 55.5t-63.5 142.5t58 147.5t152 60.5t157 -58t63 -144.5t-58.5 -145zM834 1322q0 46 -33 83t-89 37t-92 -51.5t-36 -116.5t32.5 -102t74.5 -37t66.5 15t42 39.5t26 55.5t8.5 77z" />
    <glyph glyph-name="hungarumlaut" unicode="&#xa;" 
d="M1047 1520q61 0 61 -63t-102 -132q-73 -45 -122.5 -79t-103 -68.5t-125.5 -83.5l-18 24q53 59 91 103.5t79 91t88 103.5q47 58 79 81t73 23zM676 1520q61 0 61 -63t-102 -132q-57 -35 -114.5 -74t-111 -73.5t-124.5 -83.5l-19 24q53 59 91 103.5t73.5 84t88.5 104.5
q52 64 84 87t73 23z" />
    <glyph glyph-name="ogonek" 
d="M70 -317q0 160 333 317h66q-137 -111 -186.5 -176t-49.5 -120t40 -80t161 -36l-12 -51q-186 2 -269 38t-83 108z" />
    <glyph glyph-name="caron" 
d="M662 1104q-42 0 -53 7t-29 48t-53 132t-87 212l31 17l215 -277l375 277l22 -21q-178 -191 -321 -350q-27 -29 -42.5 -37t-57.5 -8z" />
    <glyph glyph-name="dotlessi" unicode="&#xd;" horiz-adv-x="684" 
d="M367 817q0 78 -70 78t-119 -72.5t-100 -204.5l-39 15q61 154 106 209t87 78.5t86 23.5q87 0 152 -45t65 -129q0 -45 -28 -114.5t-36 -92.5l-117 -301q-47 -108 -47 -160q0 -51 22.5 -62t51.5 -11q74 0 125 69.5t102 200.5l37 -12q-70 -163 -130.5 -236.5t-160.5 -73.5
q-137 0 -175 56.5t-38 110.5t41 163l137 348q48 129 48 162z" />
    <glyph glyph-name="fraction" horiz-adv-x="696" 
d="M-348 -434l-82 53l1401 1921l82 -55z" />
    <glyph glyph-name="fi" horiz-adv-x="1185" 
d="M946 1522q106 0 162.5 -53.5t56.5 -120.5t-41 -93t-64 -26q-50 0 -88 25.5t-38 61.5t19.5 67.5t23.5 64.5q-10 23 -24.5 28t-32.5 5q-111 0 -205 -98.5t-160 -327.5l-41 -142h557q-10 -110 -100 -350l-115 -301q-47 -108 -47 -159q0 -50 23.5 -62t52.5 -12q74 0 125 69.5
t102 200.5l37 -12q-70 -164 -131.5 -237t-159.5 -73q-135 0 -175 56.5t-40 110.5t41 163l129 348q45 115 51 195h-368q-25 -94 -51.5 -199.5t-54.5 -211t-54 -205.5t-58 -202q-82 -263 -243 -397q-80 -68 -145.5 -93t-133.5 -25q-117 0 -165 45.5t-48 100.5q0 54 28 89
t89 35t81.5 -36t20.5 -67t-43 -92q7 -36 37 -36q113 0 188.5 106t148.5 342t127 457t95 383h-217l21 67h217l24 82q79 264 269 416q137 113 317 113z" />
    <glyph glyph-name="fl" horiz-adv-x="1220" 
d="M936 1522q90 0 154 -58l204 47l-401 -1253q-39 -115 -39 -160t22.5 -57t51.5 -12q74 0 126 69.5t103 200.5l37 -12q-70 -164 -131.5 -237t-161.5 -73q-136 0 -173.5 55.5t-37.5 110.5t37 164l320 1010q-35 9 -46.5 29.5t-11.5 93.5q-10 23 -42 32t-50 9
q-104 0 -191.5 -103.5t-150.5 -322.5l-41 -144h258l-22 -67h-254q-25 -94 -51.5 -198.5t-54.5 -209t-54 -203.5t-58 -201q-82 -263 -243 -397q-80 -68 -145.5 -93t-133.5 -25q-117 0 -165 45.5t-48 100.5q0 54 28 89t88 35t80.5 -36t20.5 -68t-41 -91q0 -20 13.5 -28
t23.5 -8q113 0 188.5 106t148.5 342t127 457t95 383h-217l21 67h217l24 82q61 207 174 337t212.5 161t189.5 31z" />
    <glyph glyph-name="Lslash" horiz-adv-x="1288" 
d="M485 1263q0 49 -47 60.5t-86 21t-61 9.5l14 45h641l-12 -45q-73 0 -137 -18t-83.5 -47t-29.5 -62l-133 -473l358 118l13 -55l-387 -127l-125 -446q-16 -59 -19.5 -96t25 -64t235.5 -27t266 44q60 44 133 127.5t124 168.5h49l-138 -397h-1171l14 43q106 -1 186 29
q52 19 74 98l123 446l-202 -67l-15 53l236 78l147 534q8 28 8 49z" />
    <glyph glyph-name="lslash" horiz-adv-x="602" 
d="M236 100q0 -47 21.5 -59t49.5 -12q74 0 126 69.5t104 200.5l36 -12q-70 -163 -130.5 -236.5t-161.5 -73.5q-134 0 -171.5 55.5t-37.5 107.5t37 167l90 283l-154 -49l-12 49l184 61l189 596q28 93 28 132q0 40 -23.5 53.5t-60.5 17.5t-60.5 5t-60.5 3v41l449 21l-256 -801
l174 57l12 -51l-207 -68l-127 -399q-38 -111 -38 -158z" />
    <glyph glyph-name="Zcaron" horiz-adv-x="1220" 
d="M514 55q261 0 328 54q89 71 164 162t110 149h49l-149 -420h-1153l6 25l1255 1318h-327q-124 0 -173 -9q-84 -15 -189 -118q-104 -102 -163 -194h-49l139 377h1045l-8 -25l-1256 -1319h371zM864 1495q-42 0 -57 9q-14 9 -64 139q-51 130 -102 251l31 17l215 -277l375 277
l22 -21q-223 -239 -286 -309q-62 -70 -77 -78t-57 -8z" />
    <glyph glyph-name="zcaron" horiz-adv-x="856" 
d="M844 942q76 0 76 -59t-53 -109q-53 -51 -150 -127q-97 -75 -185 -146t-185 -147t-185 -145l2 -12q46 -6 156 -37t176 -31q67 0 122 17q56 18 56 72t-20 72t-62 27l12 37q164 -33 164 -200q0 -73 -65 -125t-124 -53t-114 28t-115 63q-60 35 -116 63q-58 28 -103 28
q-45 -14 -42 -68q1 -16 1 -37q0 -80 -86 -80q-18 -1 -38 17t-21 53q0 35 35 75t152 135q116 95 255 209t328 247l-4 10q-83 3 -200 32q-116 29 -167 29q-50 0 -84 -15t-35 -67q0 -52 35 -76t80 -38l-18 -33q-203 65 -203 194q0 78 56 136q56 59 127 59q70 0 120 -29t96 -63
q45 -34 90 -62q44 -28 86 -28t63 10t21 35v47q0 92 66 92zM578 1104q-42 0 -53 7t-29 48t-53 132q-36 91 -87 212l31 17l215 -277l375 277l22 -21q-178 -191 -321 -350q-27 -29 -42 -37q-16 -8 -58 -8z" />
    <glyph glyph-name="space" unicode=" " horiz-adv-x="468" 
 />
    <glyph glyph-name="space" unicode="&#xa0;" horiz-adv-x="468" 
 />
    <glyph glyph-name="exclam" unicode="!" horiz-adv-x="747" 
d="M709 1323q0 -43 -27 -114.5t-121 -298.5t-186 -482l-49 10q39 209 79.5 513t52.5 350t50.5 86t91.5 40t81 -30.5t28 -73.5zM401 106.5q0 -53.5 -36.5 -89t-90 -35.5t-90.5 35.5t-37 89t37 90t90.5 36.5t90 -36.5t36.5 -90z" />
    <glyph glyph-name="quotedbl" unicode="&#x22;" horiz-adv-x="802" 
d="M668 1366q0 143 108 143q53 0 82 -30.5t29 -62.5t-13.5 -65.5t-38 -85t-59.5 -125t-78 -173.5h-41q11 159 11 399zM487 1416q0 -32 -13 -65.5t-37.5 -85t-59.5 -125t-78 -173.5h-41q10 145 10 171v228q0 143 109 143q53 0 81.5 -30.5t28.5 -62.5z" />
    <glyph glyph-name="numbersign" unicode="#" horiz-adv-x="1146" 
d="M1063 854l-244 -57l-51 -207l242 57l-47 -192l-244 -58l-103 -411h-49l101 399l-256 -59l-84 -340h-49l81 327l-241 -57l47 193l242 57l51 207l-242 -58l49 193l242 57l94 379h49l-92 -366l256 59l76 307h49l-74 -295l244 58zM512 725l-51 -207l254 60l51 206z" />
    <glyph glyph-name="dollar" unicode="$" horiz-adv-x="1259" 
d="M786 1257q50 0 125 -10l54 213h45l-56 -223q104 -27 174 -81t70 -134q0 -110 -50 -143t-84 -33t-59.5 20.5t-25.5 54.5t12.5 55t29.5 36.5t36.5 31t32.5 37.5q-2 35 -40 65t-108 46l-121 -483q271 -70 271 -273q0 -180 -125.5 -296.5t-319.5 -137.5l-74 -293h-45l72 289
h-31q-62 0 -118 8l-74 -297h-45l76 305q-135 29 -215 100.5t-80 156.5t46 141.5t99 56.5q102 0 102 -88q0 -53 -25.5 -74.5t-44 -34t-32.5 -30.5q-16 -63 24 -110.5t138 -70.5l125 506q-123 29 -189.5 106t-66.5 166q0 170 118 282.5t310 131.5l51 207h45l-51 -203h24z
M770 1210h-18l-115 -458l143 -33l119 481q-73 10 -129 10zM461 948q0 -61 32.5 -112.5t100.5 -73.5l111 444q-121 -16 -182.5 -83.5t-61.5 -174.5zM924 308q0 96 -40 144t-110 68l-115 -467q125 20 195 89.5t70 165.5zM463 55q50 -8 112 -8h37l119 481l-143 31z" />
    <glyph glyph-name="percent" unicode="%" horiz-adv-x="1679" 
d="M1577 356q0 -72 -37 -145.5t-131 -155.5t-226 -82t-210 69.5t-78 182.5q0 158 126 280t279 122q119 0 198 -71t79 -200zM205 -201l-51 37l1359 1577l56 -37zM844 998q0 -72 -37 -146t-131 -156t-226 -82t-210 69.5t-78 182.5q0 160 126.5 281t278.5 121q119 0 198 -70.5
t79 -199.5zM1174 25q94 0 170.5 118.5t76.5 276.5t-121 158q-100 0 -174.5 -128t-74.5 -276q0 -149 123 -149zM440 666q94 0 171 118t77 276q0 159 -121 159q-99 0 -174.5 -127.5t-75.5 -276.5t123 -149z" />
    <glyph glyph-name="ampersand" unicode="&#x26;" horiz-adv-x="1740" 
d="M1228 811q138 0 138 -121q0 -103 -66.5 -134.5t-110.5 -31.5q-96 0 -175.5 69t-79.5 181q0 147 106 210t236 63l217 -11q78 0 126 49t48 124t-43 106t-93 31t-61.5 -13.5t-11.5 -29.5q6 -6 18.5 -12.5t36 -20.5t23.5 -56t-26.5 -63t-64.5 -21t-74 27t-36 84t48.5 101
t135.5 44t151.5 -54t64.5 -164t-88 -177t-242 -67q95 -42 142.5 -113t47.5 -188t-43 -227.5t-139 -206t-252.5 -160t-398.5 -64.5t-421 134.5t-179 330.5q0 162 88 220.5t129 80.5q-141 94 -141 254q0 95 89 186t222 91t221 -71t117 -181l-33 -17q-51 80 -102.5 120
t-143.5 40t-154.5 -66.5t-62.5 -171.5q0 -47 5 -89t40 -70q114 39 169 39q54 0 89 -25.5t35 -59.5q1 -82 -101 -81q-58 0 -109.5 24.5t-98.5 53.5q-117 -59 -117 -177q0 -165 178 -285t453 -120t431.5 144.5t156.5 338.5q0 161 -84.5 242.5t-212.5 81.5q-88 0 -152.5 -48
t-64.5 -138t46 -131.5t96 -41.5t67.5 7.5t42.5 23.5q-20 8 -69.5 27t-49.5 75q0 58 30 81.5t57 23.5z" />
    <glyph glyph-name="quotesingle" unicode="'" horiz-adv-x="401" 
d="M487 1416q0 -32 -13 -65.5t-37.5 -85t-59.5 -125t-78 -173.5h-41q10 145 10 171v228q0 143 109 143q53 0 81.5 -30.5t28.5 -62.5z" />
    <glyph glyph-name="parenleft" unicode="(" horiz-adv-x="747" 
d="M72 379q0 346 183 630.5t540 522.5l57 -76q-338 -238 -496.5 -498t-158.5 -566t112.5 -448.5t175.5 -203.5l-77 -68q-336 294 -336 707z" />
    <glyph glyph-name="parenright" unicode=")" horiz-adv-x="747" 
d="M702 825q0 -346 -183 -630.5t-539 -522.5l-58 76q338 238 497 498t159 566t-113 448.5t-176 203.5l78 68q335 -307 335 -707z" />
    <glyph glyph-name="asterisk" unicode="*" horiz-adv-x="743" 
d="M224.5 1071q-0.5 39 57.5 39q123 0 224 18q-67 54 -131 89.5t-78 48t-14 29t14.5 39t38.5 22.5t38.5 -15.5t56.5 -78t87 -109.5q10 86 8 144.5t6 86.5q10 43 50 43q61 0 61 -53q0 -22 -37 -85t-63 -144q100 41 150.5 73.5t74.5 32.5t39.5 -18t15.5 -41q0 -53 -87 -53
t-191 -19q51 -41 92 -65.5t69.5 -42t43 -29.5t14.5 -35t-20.5 -40t-37.5 -17t-30.5 14.5t-31 40t-43.5 63.5t-69 87q-14 -90 -11 -148t-2 -80q-11 -47 -52 -47q-29 0 -44 15.5t-15 34.5q0 29 36 92t64 139q-100 -35 -155 -69t-77 -34t-36.5 16.5t-15 55.5z" />
    <glyph glyph-name="plus" unicode="+" horiz-adv-x="1187" 
d="M680 485v-446h-98v446h-445v95h445v446h98v-446h444v-95h-444z" />
    <glyph glyph-name="comma" unicode="," horiz-adv-x="495" 
d="M115 4q-129 0 -129 78t40 121t103 43q139 0 139 -147t-97 -254t-237 -177l-14 45q92 49 162 126t80 165h-47z" />
    <glyph glyph-name="hyphen" unicode="-" horiz-adv-x="716" 
d="M614 422h-555l41 149h555z" />
    <glyph glyph-name="period" unicode="." horiz-adv-x="495" 
d="M258 112.5q0 -55.5 -39 -93t-94 -37.5t-94 37.5t-39 93t39 94.5t94 39t94 -39t39 -94.5z" />
    <glyph glyph-name="slash" unicode="/" horiz-adv-x="860" 
d="M-158 -446l-84 49l1211 1927l86 -49z" />
    <glyph glyph-name="zero" unicode="0" horiz-adv-x="1257" 
d="M1214 774q0 -140 -55 -290t-147 -264t-214 -181.5t-243 -67.5q-222 0 -336.5 130.5t-114.5 315.5t55.5 335.5t149.5 265.5t214.5 183.5t234.5 68.5t194 -30t138.5 -89t91 -148t32.5 -229zM1012 886q0 155 -55.5 245t-156.5 90t-189.5 -79t-156 -205t-107.5 -285.5
t-40 -309.5t55.5 -236t157.5 -86q190 0 312 231.5t151 391.5t29 243z" />
    <glyph glyph-name="one" unicode="1" horiz-adv-x="874" 
d="M482 1182q122 0 294 86h27q-71 -161 -111 -307l-221 -789q-6 -24 -6 -44q0 -52 84 -68.5t100 -16.5l-10 -43h-619l11 43q32 0 86.5 8t80.5 17q50 17 74 96l256 923q-32 -8 -78 -8q-106 0 -212 121l26 29q96 -47 218 -47z" />
    <glyph glyph-name="two" unicode="2" horiz-adv-x="1181" 
d="M373 653q-82 0 -138.5 43t-56.5 125q0 161 176.5 305t403.5 144q168 0 271.5 -75t103.5 -195t-52.5 -217t-197 -226.5t-555.5 -339.5l-68 -51h485q141 0 273 196l35 -12l-189 -350h-850l11 51q346 228 585 441q320 280 320 526q0 88 -49.5 145.5t-139.5 57.5t-159.5 -35
t-121.5 -87t-84 -114.5t-32 -118.5q0 -135 119 -135q57 0 96 27.5t86 68.5l19 -24q-137 -150 -291 -150z" />
    <glyph glyph-name="three" unicode="3" horiz-adv-x="1157" 
d="M188 420q99 0 99 -90q0 -45 -21.5 -63.5t-46 -31t-46 -30t-21.5 -73.5t63.5 -93t151.5 -37q174 0 319 146.5t145 330.5q0 66 -40.5 102.5t-102.5 36.5t-114 -33.5t-111 -74.5l-31 53q289 145 406.5 248.5t117.5 241.5q0 168 -182 168q-105 0 -215 -78.5t-110 -186.5
q0 -51 26.5 -72.5t56.5 -21.5q72 0 136 56l20 -27q-134 -121 -250 -121q-60 0 -108.5 38t-48.5 106q0 130 171 243t348 113q178 0 266.5 -76t88.5 -186t-108.5 -199.5t-296.5 -118.5l-43 -26h34q123 0 210 -58.5t87 -168.5q0 -219 -181 -354.5t-448 -135.5t-336 96.5
t-69 152.5q0 101 53 162.5t131 61.5z" />
    <glyph glyph-name="four" unicode="4" horiz-adv-x="1077" 
d="M316 139q62 0 131 -14t133 -21l180 500h184l-182 -495q72 10 134 37.5t116 93.5l24 -23q-55 -82 -138 -129t-165 -65l-135 -385h-178l129 376q-41 6 -84 20.5t-125 38t-142 23.5t-94 -4q-102 -90 -162 -90q-22 0 -49.5 14t-27.5 42q0 44 33.5 60.5t67.5 16.5h48
q47 0 78 -2q258 225 524 1137h228q-191 -588 -390.5 -825.5t-316.5 -317.5q117 12 179 12z" />
    <glyph glyph-name="five" unicode="5" horiz-adv-x="1071" 
d="M326 702q105 62 260 62t262.5 -86.5t107.5 -233.5q0 -194 -163 -333.5t-420 -139.5q-156 0 -256.5 68.5t-100.5 167.5q0 70 46 111.5t102 41.5q88 0 88 -73q0 -39 -28 -81t-38 -69q0 -47 46.5 -84t130.5 -37q164 0 282.5 153.5t118.5 352.5q0 97 -64 144t-151 47
q-133 0 -197.5 -52.5t-85.5 -91.5l-51 11l305 684h53q16 -25 78 -52.5t150 -27.5q134 0 200 23t164 85l21 -22q-116 -156 -287 -207t-292 -51q-120 0 -140 4z" />
    <glyph glyph-name="six" unicode="6" horiz-adv-x="1157" 
d="M381 725q158 143 333 143q155 0 245 -96t90 -250q0 -88 -34 -185t-101.5 -178t-170 -134.5t-239.5 -53.5q-186 0 -294 109.5t-108 335.5t133 465.5t338 396t416 156.5q138 0 205.5 -59t67.5 -154q0 -49 -27 -91.5t-81 -42.5q-103 0 -107 146q-4 70 -30 104.5t-99 34.5
q-141 0 -290.5 -177.5t-252.5 -463.5zM836 584q0 98 -55.5 156.5t-138.5 58.5q-156 0 -261 -147.5t-105 -354.5q0 -133 54.5 -203.5t142.5 -70.5t154.5 54t112.5 135t71 177.5t25 194.5z" />
    <glyph glyph-name="seven" unicode="7" horiz-adv-x="1036" 
d="M188 -152q0 71 67.5 182.5t218.5 323.5q152 211 204.5 279.5t105 133t106.5 131.5t118 142h-527q-102 0 -171.5 -61t-143.5 -182l-39 10l262 526h37l-14 -114h800l-4 -19q-316 -347 -479 -631q-110 -185 -170.5 -311t-116.5 -328q-51 -176 -152 -176q-54 0 -78 28t-24 66
z" />
    <glyph glyph-name="eight" unicode="8" horiz-adv-x="1142" 
d="M1020 397q0 -198 -161 -314t-352 -116t-311 87.5t-120 216.5t111.5 233t246.5 133v8q-74 47 -122 103.5t-48 140.5q0 157 141 276t334 119q153 0 262 -77.5t109 -192.5t-88 -207t-213 -129v-8q211 -118 211 -273zM757 1231q-140 0 -220 -78.5t-80 -176.5
q0 -97 72.5 -157.5t228.5 -118.5q111 43 166 135t55 191q0 100 -69.5 152.5t-152.5 52.5zM733 486.5q-92 74.5 -239 127.5q-123 -49 -195 -147t-72 -205t72 -174.5t201 -67.5q128 0 226.5 81t98.5 196t-92 189.5z" />
    <glyph glyph-name="nine" unicode="9" horiz-adv-x="1157" 
d="M668.5 -48q-200.5 -161 -437.5 -161q-152 0 -225.5 58.5t-73.5 150.5q0 59 29 94t80 35t77 -30.5t30 -106.5t32.5 -110t109.5 -34q156 0 315 201.5t249 476.5l-8 6q-86 -80 -156 -119.5t-162 -39.5q-165 0 -260.5 93.5t-95.5 252.5q0 220 163.5 385.5t387.5 165.5
q174 0 281.5 -107.5t107.5 -331.5t-121.5 -471t-322 -408zM942 942q0 121 -54 201t-159 80q-76 0 -139.5 -46.5t-133 -158.5t-69.5 -305q0 -264 205 -264q132 0 241 134.5t109 358.5z" />
    <glyph glyph-name="colon" unicode=":" horiz-adv-x="655" 
d="M518 796.5q0 -55.5 -39 -93t-94 -37.5t-94 37.5t-39 93t39 94.5t94 39t94 -39t39 -94.5zM338 112.5q0 -55.5 -39 -93t-94 -37.5t-94 37.5t-39 93t39 94.5t94 39t94 -39t39 -94.5z" />
    <glyph glyph-name="semicolon" unicode=";" horiz-adv-x="655" 
d="M518 796.5q0 -55.5 -39 -93t-94 -37.5t-94 37.5t-39 93t39 94.5t94 39t94 -39t39 -94.5zM195 4q-129 0 -129 78t39.5 121t103.5 43q139 0 139 -147t-98.5 -254.5t-235.5 -176.5l-14 45q92 49 161.5 126t80.5 165h-47z" />
    <glyph glyph-name="less" unicode="&#x3c;" horiz-adv-x="1146" 
d="M150 492v81l905 420v-106l-776 -355l776 -354v-106z" />
    <glyph glyph-name="equal" unicode="=" horiz-adv-x="1187" 
d="M178 649v94h905v-94h-905zM178 322v94h905v-94h-905z" />
    <glyph glyph-name="greater" unicode="&#x3e;" horiz-adv-x="1146" 
d="M166 72v106l776 354l-776 355v106l905 -420v-81z" />
    <glyph glyph-name="question" unicode="?" horiz-adv-x="876" 
d="M906.5 911q-60.5 -88 -208.5 -153q-63 -29 -201.5 -92t-138.5 -203q0 -63 31 -80.5t62 -17.5q54 0 91 49t52 118l45 -14q-15 -83 -72.5 -136.5t-127.5 -53.5t-127.5 49t-57.5 155t74.5 181t225.5 148t203 141.5t52 156.5t-63 155.5t-169 67.5t-168.5 -57t-62.5 -124
q0 -66 37 -112.5t104 -46.5q31 0 48 9v12q-50 0 -69.5 28.5t-19.5 59.5t26 57.5t71 26.5t74.5 -26.5t29.5 -79.5t-42.5 -90.5t-114.5 -37.5t-126.5 53.5t-54.5 146.5t84.5 162t231.5 69t244.5 -92t97.5 -216q0 -125 -60.5 -213zM444 106.5q0 -53.5 -36.5 -89t-90 -35.5
t-90.5 35.5t-37 89t37 90t90.5 36.5t90 -36.5t36.5 -90z" />
    <glyph glyph-name="at" unicode="@" horiz-adv-x="2048" 
d="M1026 -358q668 0 883 604l37 -13q-97 -312 -346.5 -492.5t-573.5 -180.5q-166 0 -322.5 50t-277.5 150.5t-193.5 250t-72.5 341.5t74.5 369.5t211 316t324.5 222t390 83.5t329 -55t246.5 -189.5t119.5 -391.5q0 -258 -119.5 -397.5t-217 -190.5t-191.5 -51t-146.5 42
t-56.5 121l-6 2q-47 -70 -107.5 -115.5t-113.5 -45.5q-107 0 -171 60t-64 202q0 66 32.5 158t95 177t151.5 144t200 59q53 0 93 -30.5t50 -91.5h6l43 110h144l-201 -538q-23 -62 -23 -107q0 -94 83 -94t165 42t188.5 165t106.5 377t-161 413.5t-455 159.5
q-150 0 -298.5 -61.5t-266 -178t-191.5 -285.5t-74 -365q0 -361 188.5 -553.5t487.5 -192.5zM1133 831q-61 0 -118 -55t-122.5 -186t-65.5 -283t32.5 -163t60.5 -11q107 0 213 178l133 369q-10 78 -41 114.5t-92 36.5z" />
    <glyph glyph-name="A" unicode="A" horiz-adv-x="1300" 
d="M870 176v377h-462q-180 -247 -230.5 -322t-50.5 -95q0 -37 66.5 -62t136.5 -31l-13 -43h-563l13 43q135 12 216 88.5t262 305.5t299 379.5t235.5 304t232.5 300.5h57v-1239q0 -43 13 -86t159 -53l-12 -43h-598l12 43q121 10 162 27q65 26 65 106zM870 614v525l-409 -525
h409z" />
    <glyph glyph-name="B" unicode="B" horiz-adv-x="1284" 
d="M1294 1139q0 -271 -424 -377v-19q234 -41 285 -132t51 -175t-49 -168t-186 -176t-432 -92h-607l11 43q32 0 86.5 8t80.5 17q50 17 74 96l293 1053q8 28 8 55q0 46 -83 64t-95 18l12 45h615q164 0 262 -65.5t98 -194.5zM1077 1138q0 86 -54 145.5t-165 59.5q-69 0 -143 -4
l-160 -571h76q201 0 323.5 105.5t122.5 264.5zM674 713q-79 0 -135 -4l-146 -527q-10 -70 28 -97.5t137 -27.5q194 0 312.5 120.5t118.5 256.5t-85 207.5t-230 71.5z" />
    <glyph glyph-name="C" unicode="C" horiz-adv-x="1286" 
d="M879 1366q-100 0 -199.5 -63.5t-177.5 -175t-127 -262t-49 -289.5q0 -258 98 -389.5t296 -131.5t303 127t155 201l47 -29q-115 -177 -253 -281t-345 -104q-250 0 -389.5 143.5t-139.5 391.5q0 195 71 362.5t185.5 292.5t261 195.5t277.5 70.5t196.5 -27.5t131.5 -82.5
l84 104h84l-99 -506h-49q-23 223 -99.5 338t-262.5 115z" />
    <glyph glyph-name="D" unicode="D" horiz-adv-x="1523" 
d="M1505 832q0 -176 -78.5 -335t-212 -269.5t-308.5 -169t-367 -58.5h-607l11 43q32 0 86.5 8t80.5 17q50 17 74 96l293 1053q8 28 8 55q0 46 -83 64t-95 18l12 45h607q242 0 359.5 -92.5t168.5 -195.5t51 -279zM1286 838q0 256 -113.5 379.5t-320.5 123.5q-67 0 -137 -4
l-314 -1120q-20 -74 19 -116t168 -42t261 61.5t229.5 167t152.5 247t55 303.5z" />
    <glyph glyph-name="E" unicode="E" horiz-adv-x="1304" 
d="M862 434q6 27 6 101t-11 91q-22 35 -53.5 52.5t-107.5 17.5h-159l-127 -452q-21 -65 -21 -99q0 -57 47.5 -72.5t155.5 -15.5t201.5 6.5t133.5 36.5q62 47 136 139t108 154h52l-133 -393h-1176l14 43q106 -1 186 29q52 19 74 98l289 1044q8 28 8 49q0 49 -47 60.5t-86 21
t-61 9.5l14 45h1075l-88 -320h-51v17q0 88 -38 158.5t-105 79.5t-160 9h-221l-166 -591h160q152 0 209.5 79t97.5 173h53l-160 -570h-49z" />
    <glyph glyph-name="F" unicode="F" horiz-adv-x="1253" 
d="M1292 1067q0 171 -55 216.5t-108 52.5t-156 7h-256l-168 -595h184q114 0 201 63q57 39 117 188h55l-162 -575h-55q14 79 7 135.5t-18 72.5t-50.5 37t-110.5 21h-182l-142 -506q-8 -28 -8 -48q0 -47 80.5 -69t114.5 -22l-15 -45h-651l14 43q106 -1 186 29q52 19 74 98
l289 1044q8 28 8 49q0 49 -47 60.5t-86 21t-61 9.5l14 45h1127l-89 -332h-51z" />
    <glyph glyph-name="G" unicode="G" horiz-adv-x="1456" 
d="M967 1425q189 0 309 -110l92 104h80l-113 -491h-47q-14 210 -94.5 324t-232.5 114t-256.5 -60.5t-188.5 -170t-136 -262t-52 -365.5t92 -343t260 -130q221 0 272.5 118.5t69.5 186.5l20 78q22 92 -36 121q-44 16 -111.5 24t-81.5 8l12 47h668l-12 -47q-111 -15 -149 -30
q-67 -25 -85 -105l-127 -475l-26 -8l-78 125q-199 -85 -265.5 -97t-149.5 -12t-179 32t-210 135.5t-114 379.5q0 176 66.5 340t183.5 291t273.5 202.5t345.5 75.5z" />
    <glyph glyph-name="H" unicode="H" horiz-adv-x="1656" 
d="M1257 123q0 -17 11.5 -27t40.5 -28t131 -25l-13 -43h-626l12 43q35 0 92 8t83 17q50 18 73 96l149 532h-673l-148 -524q-6 -28 -6 -46q0 -50 84 -66.5t100 -16.5l-10 -43h-625l11 43q32 0 86.5 8t80.5 17q50 17 74 96l293 1053q8 28 8 55q0 46 -83 64t-95 18l12 45h627
l-12 -45q-73 0 -137 -18t-83.5 -47t-29.5 -62l-129 -465h672l127 455q8 28 8 55t-41 47q-105 35 -145 35l16 45h625l-15 -45q-177 -12 -204 -52t-37 -75l-295 -1055q-9 -32 -9 -49z" />
    <glyph glyph-name="I" unicode="I" horiz-adv-x="794" 
d="M389 126q0 -50 84 -66.5t100 -16.5l-10 -43h-624l10 43q32 0 86.5 8t80.5 17q50 17 74 96l293 1053q9 32 9 47q0 43 -74.5 66.5t-104.5 23.5l13 45h626l-12 -45q-66 0 -160 -25q-65 -19 -90 -102l-295 -1055q-6 -28 -6 -46z" />
    <glyph glyph-name="J" unicode="J" horiz-adv-x="1118" 
d="M1163 1368q76 0 76 -63q0 -111 -103.5 -136.5t-150.5 -35.5q-77 -187 -115 -402l265 6l-21 -71l-256 2q-23 -92 -54.5 -226t-76.5 -282q-80 -263 -238 -388.5t-333 -125.5q-114 0 -175 54t-61 121t43 93.5t72 26.5q119 0 119 -105q0 -28 -43 -92q0 -27 20.5 -41t30.5 -14
q123 0 205.5 85t154.5 337q54 203 83.5 342.5t45.5 205.5h-268l10 56l271 6q33 103 86.5 184.5t158.5 210.5q-45 -13 -124.5 -23t-109.5 -10t-65 16.5t-64.5 41t-95.5 96.5t-140 74t-103 -21.5t-29 -43.5q0 -47 31 -91q41 -2 73.5 -28.5t32.5 -67.5t-27.5 -68.5t-78.5 -27.5
t-77 51t-26 109t25 112.5t68 99.5t99 74t119.5 29t105.5 -19.5t73 -48.5t56.5 -64.5t77 -88t157.5 -62.5h55q31 37 101.5 125t119.5 88z" />
    <glyph glyph-name="K" unicode="K" horiz-adv-x="1511" 
d="M942 129q0 73 -154.5 278t-216.5 279h-36l-146 -514q-6 -24 -6 -44q0 -52 84 -68.5t100 -16.5l-10 -43h-625l11 43q32 0 86.5 8t80.5 17q50 17 74 96l293 1053q8 28 8 55q0 46 -83 64t-95 18l12 45h627l-12 -45q-73 0 -137 -18t-83.5 -47t-29.5 -62l-139 -502h26
q424 280 556.5 419.5t89 174.5t-131.5 35l13 45h579l-12 -45q-188 0 -317 -107q-84 -70 -256 -214t-353 -267q59 -78 109.5 -144.5t96.5 -131t92.5 -133.5t86.5 -129q75 -112 142 -144q68 -32 159 -39l-10 -45h-698l10 45q111 10 163 25.5t52 58.5z" />
    <glyph glyph-name="L" unicode="L" horiz-adv-x="1288" 
d="M485 1263q0 49 -47 60.5t-86 21t-61 9.5l14 45h641l-12 -45q-73 0 -137 -18t-83.5 -47t-29.5 -62l-274 -983q-16 -59 -19.5 -96t25 -64t235.5 -27t266 44q60 44 133 127.5t124 168.5h49l-138 -397h-1171l14 43q106 -1 186 29q52 19 74 98l289 1044q8 28 8 49z" />
    <glyph glyph-name="M" unicode="M" horiz-adv-x="1906" 
d="M1520 132q0 -24 10 -36t26 -19q26 -12 76 -23t80 -11l-10 -43h-623l11 43q31 0 82.5 8t77.5 17q54 19 73 96l268 1061l-815 -1202h-37q-11 185 -30 284l-168 895l-217 -813q-33 -120 -33 -187t19 -86q27 -27 98 -50t104 -23l-12 -43h-613l13 43q55 0 121.5 22.5
t82.5 32.5q76 50 142 281l203 749q31 120 -20 170t-167 56l12 45h424l203 -1084l604 908q67 100 94 176h461l-12 -45q-66 0 -160 -25q-41 -12 -60.5 -37.5t-29.5 -64.5l-272 -1055q-6 -16 -6 -40z" />
    <glyph glyph-name="N" unicode="N" horiz-adv-x="1509" 
d="M440 1102q9 27 9 85t-34 92q-68 68 -212 75l14 45h422l473 -1102l188 721q33 129 33 191t-31 87t-101.5 42.5t-88.5 17.5l12 43h609l-13 -43q-50 0 -118 -21.5t-84 -29.5q-53 -29 -84 -104t-58 -171l-278 -1044h-68l-504 1175l-202 -772q-33 -99 -33 -215q0 -61 82.5 -96
t138.5 -35l-12 -43h-613l13 43q55 0 121.5 22.5t94.5 40.5q71 46 132 273z" />
    <glyph glyph-name="O" unicode="O" horiz-adv-x="1474" 
d="M1456 882q0 -322 -112 -487t-208 -245q-218 -184 -484 -183q-266 0 -421 193q-125 153 -125 352q0 200 74 382.5t221 322.5q231 213 519 213q137 0 240.5 -50.5t195.5 -162.5q100 -129 100 -335zM1237 881q0 243 -79 365t-253 122q-125 0 -229 -69.5t-178 -189.5
t-123 -288t-49 -307t41.5 -312t291.5 -173q293 0 435.5 304.5t142.5 547.5z" />
    <glyph glyph-name="P" unicode="P" horiz-adv-x="1234" 
d="M1290 1098q0 -211 -183.5 -334t-490.5 -123h-96l-131 -471q-6 -22 -6 -42q0 -52 84 -68.5t100 -16.5l-10 -43h-625l11 43q32 0 86.5 8t80.5 17q50 17 74 96l293 1053q8 28 8 55q0 46 -83 64t-95 18l12 45h568q193 0 298 -79t105 -222zM1073 1079q0 117 -60.5 189.5
t-205.5 72.5h-92l-176 -639h98q211 0 323.5 102.5t112.5 274.5z" />
    <glyph glyph-name="Q" unicode="Q" horiz-adv-x="1363" 
d="M1540 -166q92 0 92 -104q0 -29 -25.5 -67t-104 -95t-208.5 -57q-131 0 -217 26.5t-151.5 71.5t-114.5 101.5t-93 114.5t-89 114.5t-103 99.5q-174 -70 -290 -70t-171 23.5t-76.5 48.5t-21.5 55q0 55 76.5 98.5t171.5 43.5q96 0 186.5 -29t194.5 -78q76 20 168 95
t229 270.5t137 521.5q0 149 -78 250.5t-239 101.5q-121 0 -218 -56.5t-165 -145.5t-104.5 -197.5t-36.5 -184.5t13 -123t39 -80.5t64.5 -54t125.5 -20.5t170 68t83 227q0 118 -33.5 155t-60.5 41q10 -27 10 -70q0 -44 -24.5 -69.5t-72.5 -25.5q-83 0 -83 104q0 47 44 89
t132 42t138.5 -72t50.5 -163q0 -164 -129.5 -274.5t-275.5 -110.5t-238 107t-92 278q0 117 54 224t146 190t211 132.5t249 49.5q253 0 391 -138t138 -326t-65.5 -325t-209.5 -286t-423 -261q98 -53 184 -136t172 -163t181.5 -137t214.5 -57h39q38 0 59 2l-8 30
q-64 22 -64 97q0 47 38 75.5t83 28.5zM211 193q-54 0 -82.5 -38t-30.5 -49q38 -90 137 -90t171.5 25t95.5 37q-120 115 -291 115z" />
    <glyph glyph-name="R" unicode="R" horiz-adv-x="1456" 
d="M1102 -23q-209 0 -209 275v176q0 128 -52 191t-214 63h-95q-23 -84 -47 -173t-63 -220t-39 -156t9.5 -37t25.5 -19q32 -14 82.5 -24t66.5 -10l-10 -43h-625l11 43q32 0 86.5 8t80.5 17q50 17 74 96l293 1053q8 28 8 55q0 46 -83 64t-95 18l12 45h576q201 0 313.5 -69.5
t112.5 -217.5t-123.5 -248.5t-318.5 -144.5v-17q98 -18 155.5 -80.5t61.5 -157.5q4 -96 4 -156t4 -116q9 -120 86 -120q53 0 94 67.5t76 184.5l47 -13q-49 -155 -98 -218.5t-96.5 -89.5t-110.5 -26zM1102 1102q0 240 -256 239h-129l-168 -600h100q211 0 332 93.5t121 267.5z
" />
    <glyph glyph-name="S" unicode="S" horiz-adv-x="1099" 
d="M494 35q140 0 228.5 86.5t88.5 189.5t-54 172t-196 138q-181 95 -230.5 151.5t-69 111t-19.5 133.5t40 154.5t148 164.5t318 89q90 0 160.5 -30.5t111.5 -71.5l96 96h70l-117 -465h-45q-18 194 -87 302t-205 108q-137 0 -223.5 -78t-86.5 -178t51.5 -158t161.5 -113
q212 -106 290.5 -196t78.5 -201q0 -209 -165.5 -338t-385.5 -129q-117 0 -205 33t-133 70l-95 -96h-69l115 479h47q52 -424 381 -424z" />
    <glyph glyph-name="T" unicode="T" horiz-adv-x="1294" 
d="M1364 1042q0 187 -51 238t-105 57t-145 6h-86l-318 -1163q-6 -14 -6 -48q0 -47 95 -68t129 -21l-13 -43h-698l12 43q14 0 40 3t75.5 8t78.5 17q55 21 79 99l323 1173h-86q-94 0 -148 -6q-55 -6 -142 -71t-179 -224h-49l100 357h1243l-100 -357h-49z" />
    <glyph glyph-name="U" unicode="U" horiz-adv-x="1619" 
d="M233 291q0 98 29 194l203 732q8 28 8 55q0 46 -83 64t-95 18l12 45h627l-12 -45q-72 0 -137 -18q-64 -18 -83.5 -47t-29.5 -62l-195 -701q-39 -134 -39 -242t65 -168.5t245 -60.5t298.5 112t178.5 314l153 539q33 118 33 184q0 67 -31 93t-101.5 42.5t-88.5 16.5l12 43
h608l-12 -43q-50 0 -118 -21.5t-85 -29.5q-53 -29 -82.5 -103t-58.5 -170l-160 -559q-151 -506 -614 -506q-242 0 -344.5 85t-102.5 239z" />
    <glyph glyph-name="V" unicode="V" horiz-adv-x="1300" 
d="M328 -23v1240q0 43 -13.5 86t-158.5 53l12 43h598l-12 -43q-118 -10 -160 -27q-68 -26 -68 -106v-963l410 524q334 434 334 476q0 59 -89 76.5t-114 19.5l12 43h563l-12 -43q-135 -12 -206.5 -80t-116.5 -121q-538 -674 -922 -1178h-57z" />
    <glyph glyph-name="W" unicode="W" horiz-adv-x="1951" 
d="M1112 -16v1058l-706 -1058h-78v1233q0 43 -13.5 86t-158.5 53l12 43h598l-12 -43q-118 -10 -160 -27q-68 -26 -68 -106v-961l570 868q16 46 16 92t-15 85t-157 49l12 43h598l-12 -43q-116 -10 -159 -26q-68 -26 -68 -107v-961l522 797q96 147 96 196q0 62 -88 79.5
t-123 19.5l13 45h550l-12 -45q-68 -5 -129 -34q-61 -30 -94 -68t-68 -89l-788 -1179h-78z" />
    <glyph glyph-name="X" unicode="X" horiz-adv-x="1511" 
d="M922 146q0 43 -33.5 127.5t-149.5 344.5q-80 -78 -271.5 -262.5t-191.5 -236.5q0 -39 41 -54.5t134 -19.5l-13 -45h-581l12 45q163 11 293.5 110t550.5 519q-224 499 -268.5 578t-125.5 90.5t-96 11.5l13 45h702l-12 -45q-234 -11 -234 -103q0 -47 46 -157.5t120 -276.5
q328 321 375 382t47 79q0 39 -41 55.5t-137 20.5l12 45h582l-13 -45q-88 -6 -171 -38t-185 -128q-137 -123 -442 -428q35 -78 69.5 -158t92.5 -207.5t81 -173.5q23 -45 46.5 -81t47.5 -56t64.5 -29.5t99.5 -9.5l-12 -45h-702l12 45q238 11 238 101z" />
    <glyph glyph-name="Y" unicode="Y" horiz-adv-x="1286" 
d="M795 1017q0 -77 -19 -194h19q118 301 272.5 451.5t300.5 150.5q74 0 105.5 -40.5t31.5 -94.5t-32.5 -86.5t-74.5 -32.5q-64 0 -90 32t-26 61t9 43t20 30l-8 11q-59 -15 -204 -144t-217.5 -313t-88.5 -250l-117 -469q-6 -25 -6 -41q3 -59 94 -73.5t117 -14.5l-11 -43h-641
l11 43q88 0 162 25q26 9 44.5 39t24.5 57l123 502q20 86 20 216t-11 193.5t-57 143t-188 79.5t-206 -204l-46 14q106 315 357 315q147 0 239.5 -122t92.5 -284z" />
    <glyph glyph-name="Z" unicode="Z" horiz-adv-x="1220" 
d="M514 55q261 0 328 54q89 71 164 162t110 149h49l-149 -420h-1153l6 25l1255 1318h-327q-124 0 -173 -9q-84 -15 -189 -118q-104 -102 -163 -194h-49l139 377h1045l-8 -25l-1256 -1319h371z" />
    <glyph glyph-name="bracketleft" unicode="[" horiz-adv-x="1269" 
d="M1413 1490q0 -112 -117 -191.5t-262 -79.5q-208 0 -332 73.5t-198 114.5l-443 -1651q94 41 261 115t361 74q138 0 201.5 -55.5t63.5 -121.5t-28.5 -105.5t-75.5 -76.5l-41 17q40 30 54.5 62t14.5 47q0 34 -34 51.5t-133 17.5q-295 0 -717 -90l-51 -17l485 1815l43 -16
q373 -90 668 -91q181 0 199 45t18 73t-15 59l47 16q31 -27 31 -85z" />
    <glyph glyph-name="backslash" unicode="\" horiz-adv-x="962" 
d="M688 -436l-391 1964l100 14l389 -1962z" />
    <glyph glyph-name="bracketright" unicode="]" horiz-adv-x="1269" 
d="M-113 -327q0 110 116.5 191t262.5 81q205 0 331 -74t200 -115l442 1651q-96 -41 -260 -114.5t-360 -73.5q-140 0 -203.5 54.5t-63.5 120.5t29 106t76 77l41 -16q-40 -30 -55 -62.5t-15 -47.5q0 -34 36 -51.5t132 -17.5q295 0 717 91l51 16l-485 -1815l-43 17
q-373 90 -668 90q-184 0 -200.5 -45t-16.5 -73t14 -58l-47 -17q-31 27 -31 85z" />
    <glyph glyph-name="asciicircum" unicode="^" horiz-adv-x="1388" 
d="M508 -422q373 0 373 320q0 117 -93 309q-94 -112 -189 -174t-233 -62t-231.5 79t-93.5 222q0 144 100 262.5t336 235.5q-39 86 -53 142t-14 128t28.5 144.5t109.5 157.5t247 85q100 0 165.5 -60.5t65.5 -146.5t-30.5 -145t-99.5 -125.5t-226 -144.5q24 -53 100 -181.5
t119 -211.5q37 68 124 233.5t230 165.5q116 0 135 -56.5t19 -82.5t-19.5 -58t-64.5 -32t-61.5 13t-25.5 30.5t-22.5 31t-55.5 13.5t-93 -75t-137 -228q102 -209 102 -324q0 -225 -145.5 -374.5t-360.5 -149.5zM932 1202q0 68 -41 115t-101 47t-97.5 -24.5t-74 -81
t-36.5 -160t65 -246.5q143 73 192.5 127.5t71 104.5t21.5 118zM233 338q0 -119 64.5 -191.5t162.5 -72.5t164 44t140 132q-68 127 -139.5 243.5t-124.5 231.5q-229 -122 -248 -230t-19 -157z" />
    <glyph glyph-name="underscore" unicode="_" horiz-adv-x="1228" 
d="M-225 -317v92h1249v-92h-1249z" />
    <glyph glyph-name="grave" unicode="`" 
d="M609 1497q38 0 61.5 -26.5t41.5 -67.5t30 -69.5t27 -62.5t33.5 -76t45.5 -99l-31 -21q-98 102 -107 111l-53 53q-45 45 -65 64q-62 57 -62 103t20.5 68.5t58.5 22.5z" />
    <glyph glyph-name="a" unicode="a" horiz-adv-x="1124" 
d="M796 -23q-74 0 -123.5 43t-49.5 148l-9 2q-59 -86 -128.5 -142.5t-139.5 -56.5q-139 0 -219 74t-80 250q0 80 37 190.5t109.5 213t178 174t244.5 71.5q66 0 118 -36t67 -113h6l47 137h184l-231 -670q-33 -89 -33 -145q0 -57 20.5 -72.5t49.5 -15.5q72 0 122 69.5
t101 200.5l41 -12q-70 -164 -112 -214t-84 -73t-116 -23zM620 901q-160 0 -270 -225t-110 -416q0 -190 49 -204.5t69 -14.5q151 0 269 201l155 477q-35 182 -162 182z" />
    <glyph glyph-name="b" unicode="b" horiz-adv-x="1044" 
d="M705 944q201 0 248.5 -113t47.5 -187t-18 -143t-74 -188t-190 -231.5t-305 -112.5q-128 0 -224 63.5t-96 196.5q0 63 9.5 100.5t21.5 78.5l268 839q31 99 31 135q0 37 -23.5 50.5t-60.5 17.5t-60.5 5t-60.5 3v41l447 21l-242 -736l6 -2q138 162 275 162zM250 231
q0 -217 175 -217q75 0 145.5 68t124 167t84 212t30.5 193q0 220 -130 220q-157 0 -284 -188z" />
    <glyph glyph-name="c" unicode="c" horiz-adv-x="813" 
d="M47 286q0 89 38 199.5t108.5 213t173 174t213.5 71.5t169 -56t58 -118q0 -63 -25.5 -105t-69.5 -42t-81 21.5t-37 70.5q0 66 104 121q-8 41 -35.5 57t-77.5 16t-92 -31.5t-99 -110t-105.5 -235.5t-48.5 -270q0 -114 34 -168.5t130 -54.5q168 0 319 274l41 -18
q-176 -324 -410 -324q-208 0 -257.5 113t-49.5 202z" />
    <glyph glyph-name="d" unicode="d" horiz-adv-x="1146" 
d="M793 90q0 -30 19 -45.5t48 -15.5q72 0 122 69.5t101 200.5l41 -12q-70 -163 -130.5 -236.5t-157.5 -73.5t-144 42t-47 145l-8 2q-59 -86 -137 -140.5t-148 -54.5q-306 0 -305 324q0 80 38 190.5t111.5 213t180 174t246.5 71.5q63 0 116.5 -32.5t75.5 -98.5h6l131 434
q31 94 31 133t-24.5 52.5t-61.5 17.5t-69.5 5t-71.5 3v41l465 21l-396 -1258q-6 -18 -11 -40.5t-10 -44t-8 -39.5t-3 -48zM612 901q-76 0 -144.5 -67.5t-119.5 -166t-79.5 -211t-28.5 -194.5q0 -135 35.5 -178t106.5 -43t143.5 58.5t119.5 138.5l154 503q-27 86 -69 123
t-118 37z" />
    <glyph glyph-name="e" unicode="e" horiz-adv-x="815" 
d="M240 246q0 -207 138 -207q117 0 196.5 71.5t148.5 202.5l37 -18q-169 -324 -400 -324q-210 0 -261.5 114.5t-51.5 190.5t16.5 143.5t71.5 185.5t187.5 228.5t310.5 110.5q70 0 122 -33.5t52 -110.5t-99 -190.5t-438 -171.5q-10 -51 -20 -100t-10 -92zM666 795
q0 108 -91 108q-86 0 -168.5 -128.5t-125.5 -293.5q190 31 287.5 128.5t97.5 185.5z" />
    <glyph glyph-name="f" unicode="f" horiz-adv-x="628" 
d="M-244 -483q-214 0 -215 164q0 35 26.5 70.5t88.5 35.5t82 -35.5t20 -65.5t-12 -48.5t-31 -45.5q6 -36 41 -36q113 0 188.5 106t148.5 342t127 457t95 383h-217l21 67h217l22 82q70 263 240 416q123 113 291 113q97 0 153 -51.5t56 -115.5t-39 -87t-61 -23
q-48 0 -83.5 23.5t-35.5 56.5t13 60.5t17 60.5q-8 23 -18 29t-27 6q-193 0 -309 -426l-41 -144h258l-22 -67h-254q-25 -94 -51.5 -198.5t-54.5 -209t-54 -203.5t-58 -201q-82 -263 -243 -397q-80 -68 -145.5 -93t-133.5 -25z" />
    <glyph glyph-name="g" unicode="g" horiz-adv-x="987" 
d="M281 375q-156 74 -156 220t118 247.5t281 101.5q88 0 147.5 -20.5t82 -29.5t32.5 -9q27 12 48.5 23.5t53.5 23.5t79 12t76.5 -27.5t29.5 -69.5t-26.5 -68.5t-71.5 -26.5t-58.5 31.5t-13.5 95.5q-77 0 -127 -35v-13q41 -66 41 -142q0 -145 -114.5 -243t-268.5 -98h-129
q-33 -16 -59.5 -37.5t-26.5 -70.5t52.5 -64.5t120.5 -23.5t101 -11.5t66 -6.5t61.5 -7t56.5 -8q71 -10 130 -71t59 -147q0 -170 -153.5 -275t-429.5 -105q-188 0 -281.5 63.5t-93.5 162.5t88 171t258 94v15q-126 22 -153 64t-27 83q0 75 58 116.5t149 74.5v10zM645 754
q0 56 -33.5 106.5t-95.5 50.5q-110 0 -160.5 -115t-50.5 -206t35.5 -150t90.5 -59q56 0 97 39t67 96t38 119.5t12 118.5zM702 -154q0 60 -37.5 95t-162.5 43t-205 12q-213 -53 -213 -242q0 -71 61 -131.5t211 -60.5t248 74.5t98 209.5z" />
    <glyph glyph-name="h" unicode="h" horiz-adv-x="1134" 
d="M731 944q99 0 167.5 -67t68.5 -162q0 -52 -39 -152l-113 -301q-45 -119 -45 -166t23.5 -57t52.5 -10q74 0 124 69.5t101 200.5l37 -12q-72 -169 -131.5 -239.5t-157.5 -70.5q-139 0 -179 56.5t-40 109.5t41 164l121 320q41 105 41 160t-31 73.5t-72 18.5
q-168 0 -309 -254l-194 -625h-181l394 1247q28 89 28 131q0 41 -22.5 54.5t-60.5 17.5t-60.5 5t-58.5 3v41l446 21l-246 -742l8 -2q134 168 287 168z" />
    <glyph glyph-name="i" unicode="i" horiz-adv-x="684" 
d="M545 1192q-109 0 -109 121q0 53 37 95t91 42t80 -35t26 -86t-34 -94t-91 -43zM367 817q0 78 -70 78t-119 -72.5t-100 -204.5l-39 15q61 154 106 209t87 78.5t86 23.5q87 0 152 -45t65 -129q0 -45 -28 -114.5t-36 -92.5l-117 -301q-47 -108 -47 -160q0 -51 22.5 -62
t51.5 -11q74 0 125 69.5t102 200.5l37 -12q-70 -163 -130.5 -236.5t-160.5 -73.5q-137 0 -175 56.5t-38 110.5t41 163l137 348q48 129 48 162z" />
    <glyph glyph-name="j" unicode="j" horiz-adv-x="593" 
d="M547 1192q-109 0 -109 121q0 53 37 95t91 42t80 -35t26 -86t-34 -94t-91 -43zM-177 -483q-212 0 -212 170q0 59 40 80.5t66 21.5q113 0 113 -102q0 -35 -39 -90q0 -25 10.5 -33t20.5 -8q115 0 190.5 103t143.5 329q117 386 198 725q17 62 17 104q0 78 -64 78
q-72 0 -121 -72.5t-100 -204.5l-39 15q61 155 106.5 209.5t87.5 78t87 23.5q88 0 149.5 -43.5t61.5 -128.5q-1 -41 -25 -135t-41.5 -161.5t-42 -157.5t-84.5 -290q-77 -258 -240 -395q-136 -116 -283 -116z" />
    <glyph glyph-name="k" unicode="k" horiz-adv-x="1120" 
d="M573 401q0 121 -147 121q-26 0 -64 -4l-165 -518h-181l396 1247q28 93 28 132q0 40 -22.5 53.5t-60.5 17.5t-60.5 5t-58.5 3v41l446 21l-309 -959q23 -2 42 -2h48q66 0 108.5 28.5t75.5 71.5t59.5 92.5t79.5 121t158 71.5q104 0 139 -40t35 -96t-31.5 -97t-73.5 -41
t-71 20t-29 54t10.5 52.5t25 29t26.5 18.5t16 30q-8 23 -20 31t-41 8t-49.5 -22.5t-39 -56t-72 -141t-200.5 -148.5q80 -28 126 -68t46 -124q0 -83 -17 -141t-17 -108t20.5 -62.5t48.5 -12.5q74 0 127 69.5t103 200.5l39 -12q-55 -137 -122 -223.5t-173 -86.5
q-151 0 -185.5 56.5t-34.5 97.5q0 59 20.5 147.5t20.5 122.5z" />
    <glyph glyph-name="l" unicode="l" horiz-adv-x="602" 
d="M236 100q0 -47 21.5 -59t49.5 -12q74 0 126 69.5t104 200.5l36 -12q-70 -163 -130.5 -236.5t-161.5 -73.5q-134 0 -171.5 55.5t-37.5 107.5t37 167l297 940q28 93 28 132q0 40 -23.5 53.5t-60.5 17.5t-60.5 5t-60.5 3v41l449 21l-404 -1262q-38 -111 -38 -158z" />
    <glyph glyph-name="m" unicode="m" horiz-adv-x="1759" 
d="M1593 715q0 -56 -39 -152l-114 -301q-45 -119 -45 -164t23.5 -57t51.5 -12q72 0 123.5 69.5t102.5 200.5l39 -12q-70 -164 -131.5 -237t-161.5 -73q-136 0 -177.5 56.5t-41.5 104.5t45 169l121 320q38 100 38 143q0 70 -30 89.5t-73 19.5q-79 0 -142.5 -54t-120.5 -141
l-223 -684h-187l217 655q27 73 27 115q0 70 -30 89.5t-75 19.5q-82 0 -166 -82t-126 -172l-207 -625h-185l222 655q16 47 23 82t11.5 54t4.5 47q0 56 -65 57q-65 0 -114 -72.5t-100 -204.5l-41 15q61 155 106.5 209.5t87.5 78t97 23.5q188 0 188 -186l9 -2q137 188 290 188
q105 0 166 -57t66 -131h8q145 188 287 188q101 0 171 -68t70 -161z" />
    <glyph glyph-name="n" unicode="n" horiz-adv-x="1226" 
d="M338 944q188 0 188 -186l9 -2q53 74 126 131t169 57t163.5 -67.5t67.5 -161.5q0 -49 -39 -152l-115 -301q-45 -119 -45 -164t23.5 -57t52.5 -12q72 0 123 69.5t102 200.5l39 -12q-70 -163 -130.5 -236.5t-162.5 -73.5q-136 0 -177.5 56.5t-41.5 105.5t45 168l121 320
q39 103 39 145q0 69 -27.5 88t-70.5 19q-81 0 -162.5 -73t-136.5 -181l-207 -625h-185l222 655q16 47 23 82t11.5 55t4.5 46q0 58 -65 57q-65 0 -114 -72.5t-100 -204.5l-41 15q61 155 106.5 209.5t87.5 78t97 23.5z" />
    <glyph glyph-name="o" unicode="o" horiz-adv-x="985" 
d="M932 591q0 -89 -36 -195.5t-106.5 -201t-179 -159t-239.5 -64.5t-223.5 91t-92.5 268q0 82 36 188.5t107.5 200.5t179 159.5t237.5 65.5t223.5 -90t93.5 -263zM739 654q0 116 -43 185.5t-98 69.5q-80 0 -145.5 -62.5t-135 -206t-69.5 -349.5q0 -141 41 -211t100 -70
q86 0 151.5 62.5t109.5 156t66.5 201.5t22.5 224z" />
    <glyph glyph-name="p" unicode="p" horiz-adv-x="1155" 
d="M328 944q188 0 188 -188l8 -2q61 78 134 134t163 56q196 0 243.5 -112.5t47.5 -200.5t-38 -200t-111.5 -213t-181 -173t-227.5 -72t-162 50.5t-50 80.5h-8l-103 -331q-29 -97 -29 -135t29.5 -53.5t167.5 -22.5v-41h-577v39q72 0 103.5 11t58.5 43t69 163l277 878
q35 105 35 154t-13.5 67.5t-42.5 18.5q-68 0 -119 -72.5t-102 -204.5l-41 15q61 155 126 233t155 78zM882 830q-38 44 -109 44t-140.5 -59t-116.5 -135l-158 -506q23 -86 68 -121t122 -35t145.5 67t118.5 165t79 211t29 219t-38 150z" />
    <glyph glyph-name="q" unicode="q" horiz-adv-x="1060" 
d="M653 -358q0 -42 23.5 -55t49.5 -16t39 -4t32 -3t41 -2v-41h-586v39q135 0 169 39q47 53 83 178l108 342l-8 2q-73 -94 -150 -121t-124 -27q-117 0 -200 73t-83 249q0 80 38 190.5t111.5 213t180 174t246.5 71.5q63 0 121.5 -32.5t80.5 -98.5h9l81 119h136l-369 -1159
q-29 -89 -29 -131zM626 901q-161 0 -274.5 -225t-113.5 -415t53 -204t74 -14q88 0 161.5 57.5t120.5 137.5l160 503q-50 160 -181 160z" />
    <glyph glyph-name="r" unicode="r" horiz-adv-x="854" 
d="M913 819q0 -47 -26.5 -88t-79.5 -41t-76.5 26t-23.5 52t7 39.5t16 24t16.5 18.5t7.5 18t-3 16.5t-29 6.5q-82 0 -224 -264l-193 -627h-182l205 655q6 16 12 41t16.5 68t10.5 72q0 59 -65 59t-115 -75t-99 -202l-41 15q61 155 106.5 209.5t87.5 78t86 23.5q85 0 135 -51
t50 -156l8 -2q70 110 123.5 159.5t127.5 49.5q75 0 108.5 -39t33.5 -86z" />
    <glyph glyph-name="s" unicode="s" horiz-adv-x="788" 
d="M750 710q0 -38 -26 -74t-68 -36t-72.5 19.5t-30.5 57.5t16.5 58.5t38 34.5t39 24.5t21.5 18.5q-11 56 -67 73t-94 17q-71 0 -124 -43.5t-53 -126.5t62.5 -133.5t169 -119.5t106.5 -220q0 -111 -109 -200t-252 -89t-220 74.5t-77 163.5q0 57 35 99t73 42q66 0 89.5 -28.5
t23.5 -59.5t-19.5 -61.5t-59.5 -30.5t-53 -3t-13 -27q0 -47 66.5 -86.5t125.5 -39.5q112 0 177 42t65 111q0 68 -25.5 109t-63.5 74t-82 62.5t-107.5 88t-63.5 161.5t98.5 192.5t230.5 89.5t187.5 -72.5t55.5 -161.5z" />
    <glyph glyph-name="t" unicode="t" horiz-adv-x="681" 
d="M254 89q0 -60 75 -60t132 71.5t108 202.5l39 -12q-55 -137 -126.5 -225.5t-194.5 -88.5t-160 55.5t-37 104.5t14 95q14 45 27.5 94t32 111.5t39 129t38 124t30 99t16.5 54.5h-197l23 67h198l90 318h179l-95 -318h263l-23 -67h-260q-20 -70 -47 -160t-52.5 -176
t-46 -154.5t-29.5 -105.5t-22.5 -80t-13.5 -79z" />
    <glyph glyph-name="u" unicode="u" horiz-adv-x="1214" 
d="M860 115q0 -86 70 -86t120 69.5t101 200.5l41 -12q-70 -164 -131.5 -237t-154.5 -73t-147 41t-54 150l-9 2q-92 -132 -174 -164.5t-129 -32.5q-99 0 -166 68.5t-67 161.5q0 52 41 151l116 301q43 99 43 155t-16 70.5t-45 14.5q-72 0 -121 -72.5t-100 -204.5l-37 15
q62 155 105.5 208.5t84.5 76t85 22.5q85 0 150.5 -39t65.5 -110t-43 -181l-124 -319q-39 -100 -39 -157t29.5 -76t71.5 -19q79 0 155.5 63t130.5 156l207 655h188l-215 -651q-4 -16 -18.5 -68t-14.5 -79z" />
    <glyph glyph-name="v" unicode="v" horiz-adv-x="1069" 
d="M379 840q146 0 270 110l33 -30q-126 -121 -225 -304.5t-99 -373.5q0 -101 69.5 -164.5t223 12t216.5 216t63 232.5t-16.5 125t-37 57.5t-37 51.5t-16.5 72t32 72.5t72 27.5q69 0 90 -44.5t21 -157.5q0 -114 -45 -259t-125 -258.5t-189.5 -183.5t-228.5 -70t-199.5 71.5
t-80.5 212.5t100.5 280t266.5 286l-13 10q-158 -98 -250 -98q-91 0 -127 23l-69 -193l-39 12l125 365h29q24 -49 77.5 -74.5t108.5 -25.5z" />
    <glyph glyph-name="w" unicode="w" horiz-adv-x="1484" 
d="M193 940q49 -100 213 -100q101 0 227 110l31 -30q-208 -201 -259 -383.5t-51 -294.5t35 -153.5t77 -41.5t96 35t95 88q-18 93 -18 155t17.5 126.5t61.5 169t129 214t144 109.5t76.5 -48t17.5 -108q0 -104 -77 -248.5t-197 -291.5q21 -100 73 -139t112 -39t126 42t148 152
t82 301q0 57 -17.5 89t-37 56.5t-37 54.5t-17.5 77t27.5 74.5t67.5 27.5q69 0 90.5 -45.5t21.5 -163.5q0 -119 -44 -262t-121 -255t-178 -179.5t-214 -67.5q-66 0 -124 41t-93 117q-72 -72 -143.5 -114t-124.5 -42q-104 0 -172 68.5t-68 214.5t95 282t259 283l-10 10
q-78 -47 -135.5 -72.5t-124.5 -25.5t-107 23l-63 -183l-39 13l121 354h29zM1032 751q0 38 -23.5 56t-70 18t-74.5 -34q-67 -91 -67 -341q0 -136 4 -155q147 180 189 299t42 157z" />
    <glyph glyph-name="x" unicode="x" horiz-adv-x="1089" 
d="M270 856q76 88 179 88t171 -47.5t68 -202.5h10q35 94 113 172t168 78q59 0 104 -32.5t45 -116.5q0 -123 -147 -252l-23 22q36 65 49 147t13 118t-7 53.5t-48 17.5t-82 -29.5t-85.5 -86.5t-92 -178t-60.5 -180q-14 -59 -29.5 -125t-15.5 -118q0 -101 36.5 -126t86.5 -25
q152 0 256 268l37 -12q-53 -137 -132 -225.5t-186 -88.5t-182.5 48.5t-75.5 224.5h-12q-114 -273 -301 -273q-164 0 -164 140q0 143 174 288l27 -24q-58 -93 -58 -221q0 -61 5.5 -95t38.5 -34q118 0 210 166.5t133.5 334.5t41.5 220q0 88 -30 116.5t-73 28.5
q-147 0 -254 -277l-39 15q55 135 131 223z" />
    <glyph glyph-name="y" unicode="y" horiz-adv-x="1101" 
d="M188 -489q-165 0 -221.5 62t-56.5 116q0 87 40 121t91 34t74.5 -31.5t23.5 -72.5t-18.5 -60.5t-41 -23.5t-43 -6t-26.5 -29q3 -50 45.5 -61t68.5 -11h44q151 0 290 147t238 454l-8 2q-53 -70 -127.5 -123.5t-144.5 -53.5q-121 0 -188.5 68.5t-67.5 161.5q0 54 41 153
l116 297q45 104 45 159q0 56 -15 68.5t-44 12.5q-72 0 -122 -72.5t-101 -204.5l-37 15q63 159 106.5 211.5t85 76t85.5 23.5q86 0 150.5 -39.5t64.5 -107.5t-46 -187l-127 -315q-38 -97 -38 -157q0 -59 30.5 -77t72.5 -18q146 0 286 190l211 680h182l-215 -696
q-114 -362 -298 -534t-405 -172z" />
    <glyph glyph-name="z" unicode="z" horiz-adv-x="856" 
d="M844 942q76 0 76 -52q0 -48 -17.5 -73.5t-41 -48.5t-60.5 -53.5t-108.5 -87t-160 -127t-185.5 -146t-185 -145.5l2 -12q52 -7 155.5 -37.5t173.5 -30.5t125.5 17.5t55.5 71.5t-20.5 72.5t-61.5 26.5l12 37q164 -33 164 -200q0 -70 -65.5 -124.5t-124.5 -54.5
q-58 0 -113 29t-114.5 62.5t-117 62.5t-102.5 29q-45 -14 -43 -49t2 -56q0 -80 -86 -80q-18 0 -38.5 17.5t-20.5 52.5t32.5 72t80.5 77t119 98t216.5 177t321.5 242l-4 10q-79 3 -198.5 32t-168.5 29q-50 0 -84.5 -15t-34.5 -66.5t35 -76t80 -38.5l-18 -33q-203 65 -203 194
q0 77 57 136t126 59q70 0 120.5 -28.5t95.5 -62.5t90 -62.5t97 -28.5q73 0 73 14v78q0 92 66 92z" />
    <glyph glyph-name="braceleft" unicode="{" horiz-adv-x="880" 
d="M483 314q0 -62 -17 -123.5t-36.5 -118t-37 -109.5t-17.5 -102q0 -88 48 -120t171 -40l-12 -47q-213 0 -299 51t-86 156t44 214t64.5 165.5t20.5 111.5q0 98 -66.5 135t-208.5 48l27 108q106 10 181 28.5t145 79.5t85 283q16 267 142 378.5t418 111.5l-13 -47
q-178 -12 -254.5 -88.5t-91.5 -274.5q-32 -350 -209.5 -415.5t-271.5 -84.5l-12 -51q147 -29 198 -67.5t69.5 -79t18.5 -102.5z" />
    <glyph glyph-name="bar" unicode="|" horiz-adv-x="696" 
d="M342 -424v1952h98v-1952h-98z" />
    <glyph glyph-name="braceright" unicode="}" horiz-adv-x="880" 
d="M489.5 1056q36.5 105 54 158.5t17.5 102.5q0 88 -48 119.5t-171 40.5l12 47q213 0 299 -51.5t86 -155.5t-44 -214t-64.5 -166t-20.5 -112q0 -98 66.5 -135t208.5 -47l-27 -108q-106 -10 -181 -29t-144.5 -80t-88.5 -307t-141 -355.5t-416 -109.5l13 47q178 12 252 86
t94 276q22 248 144.5 354t336.5 146l12 51q-145 29 -215.5 81.5t-70.5 154.5q0 101 36.5 206z" />
    <glyph glyph-name="asciitilde" unicode="~" horiz-adv-x="1105" 
d="M334 469q-58 0 -102 -25.5t-78 -91.5l-41 15q26 98 108.5 177t168.5 79t164.5 -31t118 -45.5t97.5 -14.5t101.5 26t78.5 91l41 -14q-26 -97 -107.5 -176.5t-180.5 -79.5q-76 0 -156 30.5t-117.5 45t-95.5 14.5z" />
    <glyph glyph-name="exclamdown" unicode="&#xa1;" horiz-adv-x="747" 
d="M700 1292.5q0 -53.5 -36.5 -90.5t-90 -37t-90.5 37t-37 90.5t37 89t90.5 35.5t90 -35.5t36.5 -89zM248 -29q-53 0 -81 31t-28 74t27 114.5t123.5 303.5t183.5 477l49 -10q-31 -155 -75.5 -484t-56.5 -377q-13 -48 -51 -88.5t-91 -40.5z" />
    <glyph glyph-name="cent" unicode="&#xa2;" horiz-adv-x="931" 
d="M125 446q0 64 17.5 132.5t67.5 182.5t176 226.5t288 116.5l98 268l49 -16l-94 -256q82 -14 132 -67.5t50 -109.5t-25.5 -98.5t-69.5 -42.5q-97 0 -97 92q0 78 84 121q-12 57 -86 70l-318 -852q29 -14 72 -14q113 0 192.5 78.5t143.5 195.5l41 -18q-176 -324 -410 -324
q-33 0 -65 4l-140 -373l-45 15l136 368q-137 42 -167 139.5t-30 161.5zM345 626.5q-30 -114.5 -30 -214.5t43 -166l304 823q-66 0 -128.5 -65.5t-110.5 -164t-78 -213z" />
    <glyph glyph-name="sterling" unicode="&#xa3;" horiz-adv-x="1617" 
d="M912 -172q-94 0 -144.5 15.5t-101 39t-100.5 51t-103 54.5q-63 -78 -157.5 -127t-195 -49t-144.5 41t-44 96q0 105 114 164t243 59q130 0 215 -18q16 45 19 100t9 102h-295v43h297l21 162h-281v45h285q62 354 242.5 567t429.5 213q181 0 260.5 -87.5t79.5 -225.5
t-101 -240t-254 -102q-88 0 -147.5 56.5t-59.5 156.5t60 191l43 -9q-49 -82 -49 -166q0 -174 153 -174q96 0 164 89t68 215q0 167 -76 207t-146 40q-155 0 -261 -128t-156 -441q-8 -47 -13.5 -84t-15.5 -78h348v-45h-354q-10 -45 -25.5 -89t-25.5 -73h366v-43h-383
q-41 -111 -129 -221q76 -23 140.5 -53.5t209.5 -98.5t249.5 -6t143 149t56.5 140l49 -14q-66 -288 -237.5 -356t-265.5 -68zM-25 -47q0 -86 152 -86q76 0 161 39t138 100q-139 66 -254 66t-156 -39t-41 -80z" />
    <glyph glyph-name="yen" unicode="&#xa5;" horiz-adv-x="1226" 
d="M1083 1128q0 58 -161 70l12 45h467l-12 -45q-21 0 -62 -14.5t-57 -22.5q-123 -63 -504 -532q-38 -48 -59 -86h313l-10 -47h-328q-16 -35 -25 -64l-22 -84h332l-11 -47h-335l-35 -129q-6 -28 -6 -46q0 -50 84 -66.5t100 -16.5l-10 -43h-613l11 43q32 0 87 8t81 17
q50 17 73 96l39 137h-321l10 47h323l41 148h-321l10 47h315q0 67 -49 232t-78 263q-31 98 -81 131q-34 24 -105 29l12 45h572l-12 -45q-129 -8 -163 -26.5t-34 -30.5q0 -29 42 -193t85 -309q405 452 405 489z" />
    <glyph glyph-name="section" unicode="&#xa7;" horiz-adv-x="1126" 
d="M966 1155q-106 0 -106 84q0 41 19.5 58.5t42 28.5t42 23.5t19.5 45.5q0 68 -125 67q-94 0 -153.5 -74.5t-59.5 -161.5q0 -123 62.5 -231t85 -147t47 -81t53.5 -94q55 -99 74.5 -152.5t19.5 -122.5q0 -138 -101.5 -215.5t-246.5 -86.5q37 -97 37 -176q0 -158 -108 -271.5
t-267 -113.5q-111 0 -177.5 61.5t-66.5 134.5t42.5 119t94.5 46t80.5 -23t28.5 -61t-18.5 -55t-40 -28.5t-40 -24.5t-18.5 -44q0 -78 123 -78q92 0 152.5 86t60.5 173t-31.5 170t-108 201t-106.5 174q-60 109 -75 154.5t-15 108.5q0 133 92 225t252 103q-32 75 -32 152
q0 154 107 268t269 114q115 0 173.5 -59.5t58.5 -132.5q0 -72 -45 -118t-95 -46zM332 737q0 -81 62 -197t127 -215.5t104 -191.5q145 28 178 92t33 126t-54 153q-72 135 -134 241.5t-103 192.5q-104 -8 -158.5 -64.5t-54.5 -136.5z" />
    <glyph glyph-name="dieresis" unicode="&#xa8;" 
d="M1067 1326q0 -48 -35 -85t-85 -37t-85 35t-35 83t35 84t86 36t85 -34t34 -82zM623 1326q0 -48 -35 -85t-85 -37t-85 35t-35 83t35 84t85 36t85 -34t35 -82z" />
    <glyph glyph-name="copyright" unicode="&#xa9;" horiz-adv-x="1929" 
d="M1829 513q0 -181 -69.5 -343t-190.5 -281.5t-282 -189.5t-342 -70t-343 70t-282.5 189.5t-190.5 281.5t-70 343t70 342t190.5 280.5t282.5 189.5t343 70t342 -70t282 -189.5t190.5 -280.5t69.5 -342zM1751 513q0 169 -62.5 316.5t-172 257t-256 173t-315.5 63.5
t-316.5 -63.5t-256 -173t-172 -257t-63.5 -316.5t63.5 -317.5t172 -259t256 -174t316.5 -63.5t315.5 63.5t256 174t172 259t62.5 317.5zM958 27q-220 0 -354.5 128.5t-134.5 347.5t147 360t371 141q57 0 122 -18.5t101 -45.5l45 78h56l8 -371h-47q-43 136 -92.5 191
t-102.5 79.5t-117 24.5q-128 0 -209 -108.5t-81 -302.5t93 -304t249 -110t213 86t80 131l45 -21q-135 -286 -392 -286z" />
    <glyph glyph-name="ordfeminine" unicode="&#xaa;" horiz-adv-x="757" 
d="M627 788q61 0 110 140l35 -10q-33 -74 -66.5 -123.5t-95.5 -49.5q-96 0 -104 91h-6q-77 -95 -149 -95q-71 0 -116 43t-45 142q0 100 88 222t226 122q83 0 102 -70h4l19 64h106l-123 -359q-16 -41 -16 -79t31 -38zM588 547h-461l14 51h461zM373 791q35 0 69.5 29.5
t57.5 70.5l82 264q-10 41 -27.5 59.5t-56.5 18.5q-73 0 -132 -115.5t-59 -220.5q0 -106 66 -106z" />
    <glyph glyph-name="guillemotleft" unicode="&#xab;" horiz-adv-x="1146" 
d="M535.5 476q15.5 38 39.5 54q25 16 82.5 52t130 84.5t156.5 103.5t168 115l23 -25l-441 -416l217 -395l-28 -18q-278 288 -332 342q-31 27 -31 46t15.5 57zM107.5 476q15.5 38 39.5 54q25 16 82.5 52t130 84.5t156.5 103.5t168 115l23 -25l-441 -416l217 -395l-28 -18
q-277 287 -332 342q-31 27 -31 46t15.5 57z" />
    <glyph glyph-name="registered" unicode="&#xae;" horiz-adv-x="970" 
d="M1016 1026q0 -80 -29 -147.5t-79 -117.5t-117.5 -79t-147.5 -29t-147.5 29t-117.5 79t-79 117.5t-29 147.5t29 147.5t79 117.5t117.5 79t147.5 29t147.5 -29t117.5 -79t79 -117.5t29 -147.5zM975 1026q0 72 -24.5 133.5t-69.5 107.5t-105.5 72.5t-132.5 26.5t-132 -26.5
t-105.5 -72.5t-70 -107.5t-24.5 -133.5t24.5 -133.5t70 -107.5t105.5 -72.5t132 -26.5t132.5 26.5t105.5 72.5t69.5 107.5t24.5 133.5zM854 911h20q0 -45 -17 -65.5t-58 -20.5q-76 0 -88 105q-4 35 -20.5 67.5t-69.5 32.5h-35v-141q0 -37 59 -37v-21h-192v21q59 0 59 37v303
q0 39 -59 39v20h215q88 0 111.5 -34.5t23.5 -85t-119 -80.5v-7q79 -14 94 -65q6 -25 10.5 -47.5t10.5 -46.5t28 -25q27 0 27 51zM618 1055q101 0 101 71.5t-24.5 87t-59.5 15.5h-49v-174h32z" />
    <glyph glyph-name="macron" unicode="&#xaf;" 
d="M1061 1221h-676l33 127h676z" />
    <glyph glyph-name="degree" unicode="&#xb0;" horiz-adv-x="792" 
d="M708.5 940.5q-88.5 -90.5 -214.5 -90.5t-217 80.5t-91 209.5t90.5 220.5t217.5 91.5t215 -80.5t88 -210.5t-88.5 -220.5zM676 1210q0 78 -48 128.5t-112 50.5q-106 0 -158.5 -84.5t-52.5 -181.5t48 -153.5t131 -56.5t137.5 81t54.5 216z" />
    <glyph glyph-name="plusminus" unicode="&#xb1;" horiz-adv-x="1830" 
d="M629 1391q136 112 321 112t207 -162q16 16 33.5 34t38.5 34q78 66 152.5 89.5t164.5 23.5t154 -58l205 47l-402 -1253q-39 -115 -39 -160t22.5 -57t51.5 -12q74 0 126 69.5t103 200.5l37 -12q-70 -163 -130.5 -236.5t-162.5 -73.5q-136 0 -173.5 55.5t-37.5 110.5t37 164
l320 1010q-35 9 -46.5 31t-11.5 92q-10 23 -41.5 32t-50.5 9q-104 0 -192 -104.5t-150 -321.5l-41 -144h258l-22 -67h-254q-25 -94 -94 -366.5t-122 -440.5q-85 -269 -245 -402q-80 -68 -135.5 -93t-119.5 -25q-114 0 -160 46t-46 100t27 89t87 35t80.5 -36t20.5 -68
t-41 -91q0 -36 58 -36q30 0 71 24.5t90.5 96t124.5 317.5q76 246 130.5 470t95.5 386h-430q-25 -94 -51.5 -199.5t-70.5 -274.5t-87 -308q-43 -138 -101.5 -246.5t-145.5 -181.5t-152.5 -98t-133.5 -25q-214 0 -215 164q0 35 26.5 70.5t88.5 35.5t82 -35.5t20 -65.5
t-12 -48.5t-31 -45.5q6 -36 41 -36q113 0 188.5 106t148.5 342t127 457t95 383h-217l21 67h217l20 68q76 254 273 412zM969 1331q0 15 8 99q-10 23 -24.5 27.5t-50.5 4.5t-147 -48t-204 -374l-37 -129h432l25 82q44 145 102 238q-49 4 -76.5 26.5t-27.5 73.5z" />
    <glyph glyph-name="acute" unicode="&#xb4;" 
d="M922 1424q0 -54 -107 -128q-29 -18 -107 -64.5t-251 -158.5l-23 25q51 57 90 102t91 104t88 103q72 90 146 90q73 0 73 -73z" />
    <glyph glyph-name="mu" unicode="&#xb5;" horiz-adv-x="1536" 
d="M78 182q0 -89 -70 -112q0 -10 10.5 -25.5t20.5 -21.5q149 0 228 248.5t147.5 538.5t68.5 363q-1 73 -35 109q-63 65 -204 74l10 43h410l469 -1092q51 267 89 410t59 222q59 221 129.5 348.5t227.5 127.5q87 0 138 -46.5t51 -105.5t-41 -96t-77 -37q-57 0 -84.5 33
t-27.5 56q0 89 70 112q0 10 -10 22.5t-21 18.5q-145 0 -231.5 -270t-146.5 -531.5t-93 -399.5t-41 -183h-69l-496 1165q-20 -92 -37.5 -178t-51.5 -233.5t-66 -255.5q-32 -109 -89.5 -307.5t-277.5 -198.5q-88 0 -138.5 48.5t-50.5 108.5t41 96.5t77 36.5q58 0 85 -32.5
t27 -55.5z" />
    <glyph glyph-name="paragraph" unicode="&#xb6;" horiz-adv-x="1247" 
d="M623 700q-199 0 -309.5 84t-110.5 230t127 265.5t354 119.5h735l-10 -45h-291l-401 -1610h-58l402 1610h-197l-401 -1610h-57l237 956h-20z" />
    <glyph glyph-name="periodcentered" unicode="&#xb7;" horiz-adv-x="577" 
d="M442 557q0 -55 -38.5 -93t-94 -38t-94.5 38t-39 93t39 94t94.5 39t94 -39t38.5 -94z" />
    <glyph glyph-name="periodcentered" unicode="&#x2219;" horiz-adv-x="577" 
d="M442 557q0 -55 -38.5 -93t-94 -38t-94.5 38t-39 93t39 94t94.5 39t94 -39t38.5 -94z" />
    <glyph glyph-name="cedilla" unicode="&#xb8;" 
d="M532 -256q0 -49 -67.5 -129t-417.5 -80l12 47q147 4 229.5 30t82.5 89q0 41 -38 55.5t-118 14.5l80 245h57l-41 -129q162 0 191.5 -47t29.5 -96z" />
    <glyph glyph-name="ordmasculine" unicode="&#xba;" horiz-adv-x="669" 
d="M584.5 852.5q-85.5 -111.5 -228.5 -111.5q-62 0 -114 50t-52 153t87.5 214.5t226.5 111.5q62 0 114 -50t52 -153t-85.5 -214.5zM588 547h-461l14 51h461zM557 1082q0 153 -77 153q-34 0 -67.5 -32t-71.5 -106.5t-38 -163.5q0 -155 72 -155q82 0 132 107t50 197z" />
    <glyph glyph-name="guillemotright" unicode="&#xbb;" horiz-adv-x="1146" 
d="M1048 440q-15 -38 -40 -55q-25 -16 -159.5 -102.5t-377.5 -251.5l-22 24l440 416l-217 395l28 19q277 -287 332 -342q31 -27 31 -46t-15 -57zM620 440q-15 -38 -40 -55q-25 -16 -159.5 -102.5t-377.5 -251.5l-23 24l441 416l-217 395l28 19q278 -288 332 -342
q31 -27 31 -46t-15 -57z" />
    <glyph glyph-name="questiondown" unicode="&#xbf;" horiz-adv-x="876" 
d="M780 1298.5q0 -53.5 -36.5 -90.5t-90 -37t-90.5 37t-37 90.5t37 89t90.5 35.5t90 -35.5t36.5 -89zM717 876q0 -106 -75 -180.5t-225 -147.5t-202.5 -140.5t-52.5 -157.5t63.5 -156.5t168.5 -66.5t168 57t63 123q0 67 -37 113.5t-105 46.5q-31 0 -47 -9v-12
q51 0 69.5 -28.5t18.5 -59.5t-25.5 -57.5t-70.5 -26.5t-74.5 26.5t-29.5 79.5t42 90.5t114 37.5t127 -53.5t55 -145.5t-84 -162t-232 -70t-245 92.5t-97 229.5q0 233 268 352q169 73 254.5 135t85.5 160q0 63 -30.5 80.5t-62.5 17.5q-55 0 -91 -49t-51 -118l-45 14
q15 83 72.5 136.5t127.5 53.5t127.5 -49.5t57.5 -155.5z" />
    <glyph glyph-name="Agrave" unicode="&#xc0;" horiz-adv-x="1300" 
d="M870 176v377h-462q-27 -37 -57 -78q-29 -41 -57 -80t-73 -102t-69 -100q-25 -37 -25 -57q0 -36 69 -62t134 -31l-13 -43h-563l13 43q134 12 225 98t552 675q118 150 236 304t232 301h57v-1239q0 -44 8 -70q18 -59 164 -69l-12 -43h-598l12 43q121 10 162 27q65 26 65 106
zM870 614v525l-409 -525h409zM863 1911q64 0 104 -98q55 -133 135 -304l-31 -20q-98 102 -132 136l-53 53q-19 19 -40 38q-61 57 -62 117q0 33 20 55t59 23z" />
    <glyph glyph-name="Aacute" unicode="&#xc1;" horiz-adv-x="1300" 
d="M870 176v377h-462q-27 -37 -57 -78q-29 -41 -57 -80t-73 -102t-69 -100q-25 -37 -25 -57q0 -36 69 -62t134 -31l-13 -43h-563l13 43q134 12 225 98t552 675q118 150 236 304t232 301h57v-1239q0 -44 8 -70q18 -59 164 -69l-12 -43h-598l12 43q121 10 162 27q65 26 65 106
zM870 614v525l-409 -525h409zM1393 1815q0 -56 -107 -127q-30 -18 -62 -38t-73 -45q-41 -26 -95 -60t-128 -81l-23 25q51 57 90 102t86 98t88 103q80 98 154 96q70 0 70 -73z" />
    <glyph glyph-name="Acircumflex" unicode="&#xc2;" horiz-adv-x="1300" 
d="M870 176v377h-462q-27 -37 -57 -78q-29 -41 -57 -80t-73 -102t-69 -100q-25 -37 -25 -57q0 -36 69 -62t134 -31l-13 -43h-563l13 43q134 12 225 98t552 675q118 150 236 304t232 301h57v-1239q0 -44 8 -70q18 -59 164 -69l-12 -43h-598l12 43q121 10 162 27q65 26 65 106
zM870 614v525l-409 -525h409zM1113 1831q42 0 56 -9t64 -139q51 -130 102 -251l-30 -17l-215 277l-375 -277l-23 21q242 260 296 319q53 60 68 68t57 8z" />
    <glyph glyph-name="Atilde" unicode="&#xc3;" horiz-adv-x="1300" 
d="M870 176v377h-462q-27 -37 -57 -78q-29 -41 -57 -80t-73 -102t-69 -100q-25 -37 -25 -57q0 -36 69 -62t134 -31l-13 -43h-563l13 43q134 12 225 98t552 675q118 150 236 304t232 301h57v-1239q0 -44 8 -70q18 -59 164 -69l-12 -43h-598l12 43q121 10 162 27q65 26 65 106
zM870 614v525l-409 -525h409zM909 1626q-53 0 -97 -42t-87 -107l-37 18q46 89 100 146t97 83t103 27q60 0 136 -59q31 -23 61 -41q30 -19 83 -19t97 42t87 108l37 -19q-46 -89 -100 -146q-104 -110 -181 -110t-155 60q-31 23 -61 41t-83 18z" />
    <glyph glyph-name="Adieresis" unicode="&#xc4;" horiz-adv-x="1300" 
d="M870 176v377h-462q-27 -37 -57 -78q-29 -41 -57 -80t-73 -102t-69 -100q-25 -37 -25 -57q0 -36 69 -62t134 -31l-13 -43h-563l13 43q134 12 225 98t552 675q118 150 236 304t232 301h57v-1239q0 -44 8 -70q18 -59 164 -69l-12 -43h-598l12 43q121 10 162 27q65 26 65 106
zM870 614v525l-409 -525h409zM1411 1656q0 -48 -35 -85t-85 -37t-85 35t-35 83t35 84t86 36t85 -34t34 -82zM967 1656q0 -48 -35 -85t-85 -37t-85 35t-35 83t35 84t85 36t85 -34t35 -82z" />
    <glyph glyph-name="Aring" unicode="&#xc5;" horiz-adv-x="1300" 
d="M870 176v377h-462q-27 -37 -57 -78q-29 -41 -57 -80t-73 -102t-69 -100q-25 -37 -25 -57q0 -36 69 -62t134 -31l-13 -43h-563l13 43q134 12 225 98t552 675q118 150 236 304t232 301h57v-1239q0 -44 8 -70q18 -59 164 -69l-12 -43h-598l12 43q121 10 162 27q65 26 65 106
zM870 614v525l-409 -525h409zM1099 1477q-93 0 -157 55q-63 55 -63 142q0 88 58 148t153 60t157 -58t62 -145q-1 -87 -59 -145q-58 -57 -151 -57zM1219 1713q0 46 -33 83t-89 37t-92 -51q-36 -50 -36 -116q1 -66 33 -103t74 -37t67 15t42 40t25 55t9 77z" />
    <glyph glyph-name="AE" unicode="&#xc6;" horiz-adv-x="1939" 
d="M1497 434q6 27 6 101t-11 91q-23 35 -55 52.5t-106 17.5h-160l-127 -452q-20 -62 -20 -109t47 -62.5t155 -15.5t202 6.5t134 36.5q62 47 136 139t108 154h52l-134 -393h-1175l14 43q105 -1 185 29q52 19 75 98l109 391h-461q-29 -33 -62.5 -74t-126 -148.5t-124.5 -182.5
q-21 -50 42 -77.5t138 -33.5l-12 -45h-564l13 45q89 6 166 42t182 157q217 254 452.5 529.5t471.5 555.5q-28 9 -87 17t-75 8l10 45h1120l-88 -320h-51v17q0 88 -38 158.5t-105 79.5t-160 9h-221l-166 -591h160q152 0 209.5 79t97.5 173h53l-160 -570h-49zM1112 1321
l-588 -696h424l185 696h-21z" />
    <glyph glyph-name="Ccedilla" unicode="&#xc7;" horiz-adv-x="1286" 
d="M879 1366q-100 0 -199.5 -63.5t-177.5 -175t-127 -262t-49 -289.5q0 -258 98 -389.5t296 -131.5t303 127t155 201l47 -29q-115 -177 -253 -281t-345 -104h-31l-27 -82q106 0 147.5 -21.5t58 -47t16.5 -74.5t-68.5 -129t-417.5 -80l12 47q147 4 229.5 30t82.5 89
q0 41 -38 55.5t-118 14.5l66 202q-217 25 -329 165.5t-112 350.5t71 377.5t185.5 292.5t261 195.5t277.5 70.5t196.5 -27.5t131.5 -82.5l84 104h84l-99 -506h-49q-23 223 -99.5 338t-262.5 115z" />
    <glyph glyph-name="Egrave" unicode="&#xc8;" horiz-adv-x="1304" 
d="M862 434q6 27 6 101t-16 99t-48 44q-32 18 -108 18h-159l-127 -452q-21 -65 -21 -99q0 -57 47 -72q86 -27 358 -10q93 6 133 37q101 78 207 233q26 38 37 60h52l-133 -393h-1176l14 43q182 0 231 66q19 27 29 61l289 1044q8 28 8 49q0 49 -73 67q-20 5 -43 10
q-23 6 -43 10t-35 4l14 45h1075l-88 -320h-51v17q0 88 -38 158t-105 80q-67 9 -160 9h-221l-166 -591h160q151 0 225 100q31 45 82 152h53l-160 -570h-49zM899 1466q-49 51 -83 86t-58 60l-44 44q-19 19 -40 38q-62 57 -62 103t20 69q20 22 59 22q38 0 62 -26t41 -68
q17 -41 29 -70q11 -28 27 -62t34 -76t46 -99z" />
    <glyph glyph-name="Eacute" unicode="&#xc9;" horiz-adv-x="1304" 
d="M862 434q6 27 6 101t-16 99t-48 44q-32 18 -108 18h-159l-127 -452q-21 -65 -21 -99q0 -57 47 -72q86 -27 358 -10q93 6 133 37q101 78 207 233q26 38 37 60h52l-133 -393h-1176l14 43q182 0 231 66q19 27 29 61l289 1044q8 28 8 49q0 49 -73 67q-20 5 -43 10
q-23 6 -43 10t-35 4l14 45h1075l-88 -320h-51v17q0 88 -38 158t-105 80q-67 9 -160 9h-221l-166 -591h160q151 0 225 100q31 45 82 152h53l-160 -570h-49zM1280 1815q0 -55 -106 -127q-29 -18 -62 -38t-74 -45q-41 -26 -95 -60t-128 -81l-22 25q71 80 131 148q59 69 85 99
q25 30 57 68q70 85 144 84q70 0 70 -73z" />
    <glyph glyph-name="Ecircumflex" unicode="&#xca;" horiz-adv-x="1304" 
d="M862 434q6 27 6 101t-16 99t-48 44q-32 18 -108 18h-159l-127 -452q-21 -65 -21 -99q0 -57 47 -72q86 -27 358 -10q93 6 133 37q101 78 207 233q26 38 37 60h52l-133 -393h-1176l14 43q182 0 231 66q19 27 29 61l289 1044q8 28 8 49q0 49 -73 67q-20 5 -43 10
q-23 6 -43 10t-35 4l14 45h1075l-88 -320h-51v17q0 88 -38 158t-105 80q-67 9 -160 9h-221l-166 -591h160q151 0 225 100q31 45 82 152h53l-160 -570h-49zM1006 1892q42 0 54 -7q10 -7 28 -48t54 -132t87 -212l-31 -16l-215 276l-375 -276l-22 20q178 191 321 350
q27 29 42 37t57 8z" />
    <glyph glyph-name="Edieresis" unicode="&#xcb;" horiz-adv-x="1304" 
d="M862 434q6 27 6 101t-16 99t-48 44q-32 18 -108 18h-159l-127 -452q-21 -65 -21 -99q0 -57 47 -72q86 -27 358 -10q93 6 133 37q101 78 207 233q26 38 37 60h52l-133 -393h-1176l14 43q182 0 231 66q19 27 29 61l289 1044q8 28 8 49q0 49 -73 67q-20 5 -43 10
q-23 6 -43 10t-35 4l14 45h1075l-88 -320h-51v17q0 88 -38 158t-105 80q-67 9 -160 9h-221l-166 -591h160q151 0 225 100q31 45 82 152h53l-160 -570h-49zM1278 1656q0 -48 -35 -85t-85 -37t-85 35t-35 83t35 84t86 36t85 -34t34 -82zM834 1656q0 -48 -35 -85t-85 -37
t-85 35t-35 83t35 84t85 36t85 -34t35 -82z" />
    <glyph glyph-name="Igrave" unicode="&#xcc;" horiz-adv-x="794" 
d="M389 126q0 -41 72 -62t112 -21l-10 -43h-624l10 43q93 0 167 25q50 17 74 96l293 1053q7 24 8 53q2 44 -108 70q-56 14 -70 14l13 45h626l-12 -45q-14 0 -36 -3t-55 -7t-72 -16q-38 -11 -57 -40t-30 -61l-295 -1055q-6 -28 -6 -46zM645 1466q-49 51 -83 86t-58 60l-44 44
q-19 19 -40 38q-62 57 -62 103t20 69q20 22 59 22q38 0 62 -26t41 -68q17 -41 29 -70q11 -28 27 -62t34 -76t46 -99z" />
    <glyph glyph-name="Iacute" unicode="&#xcd;" horiz-adv-x="794" 
d="M389 126q0 -41 72 -62t112 -21l-10 -43h-624l10 43q93 0 167 25q50 17 74 96l293 1053q7 24 8 53q2 44 -108 70q-56 14 -70 14l13 45h626l-12 -45q-14 0 -36 -3t-55 -7t-72 -16q-38 -11 -57 -40t-30 -61l-295 -1055q-6 -28 -6 -46zM1051 1815q0 -56 -107 -127
q-30 -18 -62 -38t-73 -45q-41 -26 -95 -60t-128 -81l-23 25q51 57 90 102t85 97t88 104q80 98 155 96q70 0 70 -73z" />
    <glyph glyph-name="Icircumflex" unicode="&#xce;" horiz-adv-x="794" 
d="M389 126q0 -41 72 -62t112 -21l-10 -43h-624l10 43q93 0 167 25q50 17 74 96l293 1053q7 24 8 53q2 44 -108 70q-56 14 -70 14l13 45h626l-12 -45q-14 0 -36 -3t-55 -7t-72 -16q-38 -11 -57 -40t-30 -61l-295 -1055q-6 -28 -6 -46zM750 1892q42 0 54 -7q10 -7 28 -48
t54 -132t87 -212l-31 -16l-215 276l-375 -276l-22 20q178 191 321 350q27 29 42 37t57 8z" />
    <glyph glyph-name="Idieresis" unicode="&#xcf;" horiz-adv-x="794" 
d="M389 126q0 -41 72 -62t112 -21l-10 -43h-624l10 43q93 0 167 25q50 17 74 96l293 1053q7 24 8 53q2 44 -108 70q-56 14 -70 14l13 45h626l-12 -45q-14 0 -36 -3t-55 -7t-72 -16q-38 -11 -57 -40t-30 -61l-295 -1055q-6 -28 -6 -46zM1034 1656q0 -48 -35 -85t-85 -37
t-85 35t-35 83t35 84t86 36t85 -34t34 -82zM590 1656q0 -48 -35 -85t-85 -37t-85 35t-35 83t35 84t85 36t85 -34t35 -82z" />
    <glyph glyph-name="Eth" unicode="&#xd0;" horiz-adv-x="1538" 
d="M1505 834q0 -174 -78.5 -333t-212 -269.5t-308.5 -171t-367 -60.5h-607l11 43q32 0 86.5 8t80.5 17q50 17 74 96l148 530h-207l18 68h207l127 455q8 28 8 55q0 46 -83 64t-95 18l12 45h607q242 0 359.5 -92.5t168.5 -195.5t51 -277zM1288 838q0 256 -114.5 379.5
t-321.5 123.5q-67 0 -137 -4l-162 -575h297l-19 -68h-296l-134 -477q-20 -74 19 -116t168 -42t261 62.5t230.5 168t153.5 247t55 301.5z" />
    <glyph glyph-name="Ntilde" unicode="&#xd1;" horiz-adv-x="1509" 
d="M1333 1209q0 62 -28 85t-102 43q-73 19 -91 19l12 43h609l-13 -43q-30 0 -101 -18t-112 -40q-42 -22 -73 -97t-58 -171l-278 -1044h-68l-504 1175l-202 -772q-33 -99 -33 -215q0 -60 65 -88q42 -18 92 -31q50 -12 64 -12l-12 -43h-613l13 43q23 0 97 17t111 41
q79 51 140 278l192 723q6 19 8 80q2 62 -32 96q-67 67 -213 76l14 45h422l473 -1102l188 721q33 129 33 191zM950 1772q47 0 83 -18t67 -42q30 -23 60 -41t84 -18t96 42q44 42 87 107l37 -18q-45 -87 -99 -145q-105 -113 -181 -112t-156 60q-30 23 -60 41t-84 18t-97 -41
q-44 -42 -87 -108l-36 19q43 84 98 143t98 86t90 27z" />
    <glyph glyph-name="Ograve" unicode="&#xd2;" horiz-adv-x="1474" 
d="M1456 882q0 -316 -168 -567q-56 -85 -152 -165q-218 -184 -499 -183q-249 0 -406 193q-125 153 -125 352q0 200 74 382t221 323q229 211 519 213q137 0 240 -50t196 -163q100 -129 100 -335zM1237 924q0 311 -176 409q-63 35 -172 35t-212 -70t-178 -190t-124 -287
q-49 -168 -49 -307t19 -220q38 -164 163 -232q64 -34 166 -34t196 57q211 126 313 470q54 183 54 369zM684 1810q0 33 20 56q20 22 59 22q63 -1 100 -90q37 -90 56 -130t37 -82t45 -99l-30 -21q-98 102 -132 136l-54 54q-19 19 -40 38q-61 57 -61 116z" />
    <glyph glyph-name="Oacute" unicode="&#xd3;" horiz-adv-x="1474" 
d="M1456 882q0 -316 -168 -567q-56 -85 -152 -165q-218 -184 -499 -183q-249 0 -406 193q-125 153 -125 352q0 200 74 382t221 323q229 211 519 213q137 0 240 -50t196 -163q100 -129 100 -335zM1237 924q0 311 -176 409q-63 35 -172 35t-212 -70t-178 -190t-124 -287
q-49 -168 -49 -307t19 -220q38 -164 163 -232q64 -34 166 -34t196 57q211 126 313 470q54 183 54 369zM1300 1815q0 -56 -106 -127q-30 -18 -62 -38t-73 -45q-41 -26 -95 -60t-128 -81l-23 25q51 57 90 102t85 97t88 104q80 98 155 96q69 0 69 -73z" />
    <glyph glyph-name="Ocircumflex" unicode="&#xd4;" horiz-adv-x="1474" 
d="M1456 882q0 -316 -168 -567q-56 -85 -152 -165q-218 -184 -499 -183q-249 0 -406 193q-125 153 -125 352q0 200 74 382t221 323q229 211 519 213q137 0 240 -50t196 -163q100 -129 100 -335zM1237 924q0 311 -176 409q-63 35 -172 35t-212 -70t-178 -190t-124 -287
q-49 -168 -49 -307t19 -220q38 -164 163 -232q64 -34 166 -34t196 57q211 126 313 470q54 183 54 369zM1037 1892q42 0 56 -8t64 -139q51 -131 103 -252l-31 -16l-215 276l-375 -276l-23 20q205 220 277 300q72 79 87 87t57 8z" />
    <glyph glyph-name="Otilde" unicode="&#xd5;" horiz-adv-x="1474" 
d="M1456 882q0 -316 -168 -567q-56 -85 -152 -165q-218 -184 -499 -183q-249 0 -406 193q-125 153 -125 352q0 200 74 382t221 323q229 211 519 213q137 0 240 -50t196 -163q100 -129 100 -335zM1237 924q0 311 -176 409q-63 35 -172 35t-212 -70t-178 -190t-124 -287
q-49 -168 -49 -307t19 -220q38 -164 163 -232q64 -34 166 -34t196 57q211 126 313 470q54 183 54 369zM897 1782q47 0 83 -18t67 -42q31 -23 61 -41t82 -18q54 0 98 42t86 107l37 -18q-46 -89 -100 -146q-104 -110 -182 -110q-77 0 -154 59q-31 23 -61 41t-83 18t-97 -41
q-44 -42 -87 -108l-37 19q46 89 100 146q54 58 97 84t90 26z" />
    <glyph glyph-name="Odieresis" unicode="&#xd6;" horiz-adv-x="1474" 
d="M1456 882q0 -316 -168 -567q-56 -85 -152 -165q-218 -184 -499 -183q-249 0 -406 193q-125 153 -125 352q0 200 74 382t221 323q229 211 519 213q137 0 240 -50t196 -163q100 -129 100 -335zM1237 924q0 311 -176 409q-63 35 -172 35t-212 -70t-178 -190t-124 -287
q-49 -168 -49 -307t19 -220q38 -164 163 -232q64 -34 166 -34t196 57q211 126 313 470q54 183 54 369zM1331 1656q0 -48 -35 -85t-85 -37t-85 35q-34 35 -34 83t34 84q35 36 86 36t85 -34t34 -82zM887 1656q0 -48 -35 -85t-85 -37t-85 35t-35 83t35 84t85 36t85 -34t35 -82z
" />
    <glyph glyph-name="Oslash" unicode="&#xd8;" horiz-adv-x="1474" 
d="M1456 881q0 -321 -112 -486t-208 -245q-218 -184 -486 -183q-268 0 -425 199l-260 -244l-39 37l267 252q-87 140 -87 321q0 180 74 362.5t221 322.5q231 213 519 213q123 0 217 -39t176 -125l229 215l41 -39l-233 -219q106 -123 106 -342zM324 471q0 -77 8 -135l872 831
q-75 201 -299 201q-125 0 -229 -69.5t-178 -189.5t-124 -288t-50 -350zM1239 924q0 110 -18 184l-875 -836q66 -243 313 -243q293 0 436.5 306.5t143.5 588.5z" />
    <glyph glyph-name="Ugrave" unicode="&#xd9;" horiz-adv-x="1619" 
d="M473 1272q0 41 -108 68q-56 14 -70 14l12 45h627l-12 -45q-14 0 -36 -3t-55 -7t-72 -16q-61 -18 -87 -101l-195 -701q-39 -134 -39 -242t66 -168t245 -60t298 111q119 112 178 314l153 539q33 118 33 184q0 67 -29 91t-102 42q-72 19 -90 19l12 43h608l-12 -43
q-31 0 -102 -18q-72 -18 -101 -33q-53 -29 -83 -103t-58 -170l-160 -559q-150 -506 -614 -506q-242 0 -344 85t-103 239q0 98 29 194l203 732q8 28 8 55zM768 1810q0 33 20 56q20 22 58 22q64 -1 101 -90q37 -90 56 -130t37 -82t45 -99l-30 -21q-98 102 -133 137l-53 53
q-19 19 -40 38q-61 57 -61 116z" />
    <glyph glyph-name="Uacute" unicode="&#xda;" horiz-adv-x="1619" 
d="M473 1272q0 41 -108 68q-56 14 -70 14l12 45h627l-12 -45q-14 0 -36 -3t-55 -7t-72 -16q-61 -18 -87 -101l-195 -701q-39 -134 -39 -242t66 -168t245 -60t298 111q119 112 178 314l153 539q33 118 33 184q0 67 -29 91t-102 42q-72 19 -90 19l12 43h608l-12 -43
q-31 0 -102 -18q-72 -18 -101 -33q-53 -29 -83 -103t-58 -170l-160 -559q-150 -506 -614 -506q-242 0 -344 85t-103 239q0 98 29 194l203 732q8 28 8 55zM1464 1815q0 -56 -106 -127q-29 -18 -62 -38q-34 -20 -74 -45q-40 -26 -94 -60t-129 -81l-22 25q51 57 90 102t86 98
t88 103q80 98 154 96q69 0 69 -73z" />
    <glyph glyph-name="Ucircumflex" unicode="&#xdb;" horiz-adv-x="1619" 
d="M473 1272q0 41 -108 68q-56 14 -70 14l12 45h627l-12 -45q-14 0 -36 -3t-55 -7t-72 -16q-61 -18 -87 -101l-195 -701q-39 -134 -39 -242t66 -168t245 -60t298 111q119 112 178 314l153 539q33 118 33 184q0 67 -29 91t-102 42q-72 19 -90 19l12 43h608l-12 -43
q-31 0 -102 -18q-72 -18 -101 -33q-53 -29 -83 -103t-58 -170l-160 -559q-150 -506 -614 -506q-242 0 -344 85t-103 239q0 98 29 194l203 732q8 28 8 55zM1182 1892q42 0 54 -7q10 -7 28 -48t54 -132t87 -212l-31 -16l-215 276l-375 -276l-22 20q178 191 321 350
q27 29 42 37t57 8z" />
    <glyph glyph-name="Udieresis" unicode="&#xdc;" horiz-adv-x="1619" 
d="M473 1272q0 41 -108 68q-56 14 -70 14l12 45h627l-12 -45q-14 0 -36 -3t-55 -7t-72 -16q-61 -18 -87 -101l-195 -701q-39 -134 -39 -242t66 -168t245 -60t298 111q119 112 178 314l153 539q33 118 33 184q0 67 -29 91t-102 42q-72 19 -90 19l12 43h608l-12 -43
q-31 0 -102 -18q-72 -18 -101 -33q-53 -29 -83 -103t-58 -170l-160 -559q-150 -506 -614 -506q-242 0 -344 85t-103 239q0 98 29 194l203 732q8 28 8 55zM1458 1656q0 -48 -35 -85t-85 -37t-85 35t-35 83t35 84t86 36t85 -34t34 -82zM1014 1656q0 -48 -35 -85t-85 -37
t-85 35t-35 83t35 84t85 36t85 -34t35 -82z" />
    <glyph glyph-name="Yacute" unicode="&#xdd;" horiz-adv-x="1286" 
d="M795 1012q0 -81 -19 -189h19q118 301 273 453q156 152 300 149q74 -1 106 -41t31 -77q0 -136 -119 -136q-74 0 -99 67q-5 15 -5 35t9 34t20 30l-8 11q-95 -25 -239 -189q-144 -165 -230 -390q-25 -62 -41 -128l-117 -469q-6 -25 -6 -41q3 -60 122 -78q65 -10 89 -10
l-11 -43h-641l11 43q86 0 161 25q49 16 70 96l123 502q20 86 20 216t-11 193t-40 113q-66 112 -198 110q-147 0 -213 -204l-46 14q106 315 357 315q145 0 239 -121q93 -121 93 -290zM1321 1815q0 -56 -107 -127q-30 -18 -62 -38t-73 -45q-41 -26 -95 -60t-128 -81l-22 25
q71 80 131 148q59 69 85 99t58 68q70 85 143 84q70 0 70 -73z" />
    <glyph glyph-name="Thorn" unicode="&#xde;" horiz-adv-x="1224" 
d="M1206 795q0 -211 -183.5 -334t-490.5 -123h-96l-47 -168q-6 -22 -6 -42q0 -52 84 -68.5t100 -16.5l-10 -43h-625l11 43q32 0 86.5 8t80.5 17q50 17 74 96l293 1053q8 28 8 55q0 46 -83 64t-95 18l12 45h619l-10 -43q-92 0 -168 -26q-50 -17 -74 -95l-39 -139h156
q193 0 298 -79t105 -222zM989 776q0 117 -60.5 189.5t-205.5 72.5h-92l-176 -639h98q211 0 323.5 102.5t112.5 274.5z" />
    <glyph glyph-name="germandbls" unicode="&#xdf;" horiz-adv-x="1118" 
d="M881 1522q128 0 207 -69.5t79 -166.5q0 -140 -59 -242q-182 -55 -222 -112.5t-40 -91.5q0 -90 33.5 -156t70.5 -122t67 -110t30 -134t-36 -149t-113 -133.5t-192 -64.5t-177 60t-62 122t30.5 103t76.5 41q112 0 112 -86q0 -67 -37 -76.5t-54 -13.5t-17 -25q0 -38 44 -63
t108 -25q63 0 108 51.5t45 142.5t-29 148.5t-63.5 110.5t-66.5 107.5t-32 115.5q0 105 58.5 180t144.5 119q53 41 92 116t39 169t-45 153.5t-139 59.5q-184 0 -307 -426q-42 -145 -122.5 -466.5t-132.5 -489.5q-51 -169 -107 -277.5t-143 -181.5t-152.5 -98t-141.5 -25
q-203 0 -203 164q0 35 26.5 70.5t88.5 35.5t82 -35.5t20 -65.5t-12 -48.5t-31 -45.5q6 -36 37 -36q110 0 184.5 103t128.5 279q79 257 149 548.5t109 433.5q39 143 81.5 253.5t173.5 229.5q132 119 311 119z" />
    <glyph glyph-name="agrave" unicode="&#xe0;" horiz-adv-x="1124" 
d="M47 286q0 88 37 200q37 110 110 212t178 174t244 72q66 0 118 -36t67 -113h6l47 137h184l-231 -670q-33 -89 -33 -145q0 -57 20 -73t50 -15q72 -1 122 69t101 201l41 -12q-68 -160 -111 -213q-43 -52 -85 -74t-116 -23q-74 0 -123 43q-50 43 -50 148l-9 2
q-135 -197 -286 -199q-192 0 -256 165q-25 62 -25 150zM240 252q0 -127 40 -176q26 -35 78 -35q152 0 269 201l155 477q-36 182 -162 182q-160 0 -270 -226q-110 -225 -110 -423zM414 1419q0 33 20 56t58 23q63 -2 103 -96q71 -170 136 -306l-31 -21q-49 51 -83 86t-58 60
l-44 44q-19 19 -40 38q-61 57 -61 116z" />
    <glyph glyph-name="aacute" unicode="&#xe1;" horiz-adv-x="1124" 
d="M47 286q0 88 37 200q37 110 110 212t178 174t244 72q66 0 118 -36t67 -113h6l47 137h184l-231 -670q-33 -89 -33 -145q0 -57 20 -73t50 -15q72 -1 122 69t101 201l41 -12q-68 -160 -111 -213q-43 -52 -85 -74t-116 -23q-74 0 -123 43q-50 43 -50 148l-9 2
q-135 -197 -286 -199q-192 0 -256 165q-25 62 -25 150zM240 252q0 -127 40 -176q26 -35 78 -35q152 0 269 201l155 477q-36 182 -162 182q-160 0 -270 -226q-110 -225 -110 -423zM1044 1424q0 -55 -106 -128q-30 -18 -62 -38t-73 -45t-95 -59t-128 -81l-23 25q51 57 90 102
t86 98t88 103q80 98 154 96q69 0 69 -73z" />
    <glyph glyph-name="acircumflex" unicode="&#xe2;" horiz-adv-x="1124" 
d="M47 286q0 88 37 200q37 110 110 212t178 174t244 72q66 0 118 -36t67 -113h6l47 137h184l-231 -670q-33 -89 -33 -145q0 -57 20 -73t50 -15q72 -1 122 69t101 201l41 -12q-68 -160 -111 -213q-43 -52 -85 -74t-116 -23q-74 0 -123 43q-50 43 -50 148l-9 2
q-135 -197 -286 -199q-192 0 -256 165q-25 62 -25 150zM240 252q0 -127 40 -176q26 -35 78 -35q152 0 269 201l155 477q-36 182 -162 182q-160 0 -270 -226q-110 -225 -110 -423zM783 1501q41 0 53 -7t30 -48t53 -132q36 -91 87 -212l-31 -17l-215 277l-375 -277l-23 21
q205 220 277 300q72 79 87 87t57 8z" />
    <glyph glyph-name="atilde" unicode="&#xe3;" horiz-adv-x="1124" 
d="M47 286q0 88 37 200q37 110 110 212t178 174t244 72q66 0 118 -36t67 -113h6l47 137h184l-231 -670q-33 -89 -33 -145q0 -57 20 -73t50 -15q72 -1 122 69t101 201l41 -12q-68 -160 -111 -213q-43 -52 -85 -74t-116 -23q-74 0 -123 43q-50 43 -50 148l-9 2
q-135 -197 -286 -199q-192 0 -256 165q-25 62 -25 150zM240 252q0 -127 40 -176q26 -35 78 -35q152 0 269 201l155 477q-36 182 -162 182q-160 0 -270 -226q-110 -225 -110 -423zM612 1401q47 -1 83 -19t67 -41q30 -23 60 -41t84 -18t96 42q44 42 88 108l36 -19
q-18 -35 -49 -80q-121 -176 -238 -176q-68 0 -149 60q-30 23 -60 41t-84 18t-96 -42q-44 -42 -88 -108l-36 19q45 87 99 145t97 84t90 27z" />
    <glyph glyph-name="adieresis" unicode="&#xe4;" horiz-adv-x="1124" 
d="M47 286q0 88 37 200q37 110 110 212t178 174t244 72q66 0 118 -36t67 -113h6l47 137h184l-231 -670q-33 -89 -33 -145q0 -57 20 -73t50 -15q72 -1 122 69t101 201l41 -12q-68 -160 -111 -213q-43 -52 -85 -74t-116 -23q-74 0 -123 43q-50 43 -50 148l-9 2
q-135 -197 -286 -199q-192 0 -256 165q-25 62 -25 150zM240 252q0 -127 40 -176q26 -35 78 -35q152 0 269 201l155 477q-36 182 -162 182q-160 0 -270 -226q-110 -225 -110 -423zM960 1442q51 0 85 -34t34 -82t-35 -85t-85 -37t-85 35q-34 35 -34 83t34 84q35 36 86 36z
M635 1326q0 -48 -35 -85t-85 -37t-85 35t-35 83t35 84t85 36t85 -34t35 -82z" />
    <glyph glyph-name="aring" unicode="&#xe5;" horiz-adv-x="1124" 
d="M47 286q0 88 37 200q37 110 110 212t178 174t244 72q66 0 118 -36t67 -113h6l47 137h184l-231 -670q-33 -89 -33 -145q0 -57 20 -73t50 -15q72 -1 122 69t101 201l41 -12q-68 -160 -111 -213q-43 -52 -85 -74t-116 -23q-74 0 -123 43q-50 43 -50 148l-9 2
q-135 -197 -286 -199q-192 0 -256 165q-25 62 -25 150zM240 252q0 -127 40 -176q26 -35 78 -35q152 0 269 201l155 477q-36 182 -162 182q-160 0 -270 -226q-110 -225 -110 -423zM506 1283q0 87 58 147t153 61q95 0 157 -58t62 -146q0 -87 -57 -143t-152 -58q-93 -2 -157 54
t-64 143zM846 1322q0 46 -33 83t-89 37t-92 -51t-36 -117t33 -102q33 -38 75 -38t66 16q76 46 76 172z" />
    <glyph glyph-name="ae" unicode="&#xe6;" horiz-adv-x="1423" 
d="M848 246q0 -207 139 -207q117 0 196 71.5t148 202.5l37 -18q-169 -324 -374 -324t-260.5 87t-67.5 159h-7q-146 -246 -334 -246t-233 114t-45 202t37 198.5t109.5 213t178 174t244.5 71.5q66 0 118 -36t67 -113h6l47 137h113l-54 -152q159 164 312 164q190 0 190 -144
q0 -77 -98 -190t-438 -172q-10 -51 -20.5 -100t-10.5 -92zM1274 795q0 108 -87 108t-170.5 -128t-127.5 -294q190 31 287.5 128.5t97.5 185.5zM620 901q-160 0 -270 -225t-110 -416q0 -190 49 -204.5t69 -14.5q151 0 269 201l155 477q-35 182 -162 182z" />
    <glyph glyph-name="ccedilla" unicode="&#xe7;" horiz-adv-x="813" 
d="M47 295q0 80 38 190.5t108.5 213t173 174t213.5 71.5t169 -56t58 -118q0 -63 -25.5 -105t-69.5 -42t-81 21.5t-37 70.5q0 66 104 121q-8 41 -35.5 57t-77.5 16t-92 -31.5t-99 -110t-105.5 -235.5t-48.5 -270q0 -114 34 -168.5t130 -54.5q168 0 319 274l41 -18
q-176 -324 -410 -324h-16l-27 -84q162 0 191.5 -47t29.5 -96t-67.5 -129t-417.5 -80l12 47q147 4 229.5 30t82.5 89q0 41 -38 55.5t-118 14.5l68 206q-236 42 -236 318z" />
    <glyph glyph-name="egrave" unicode="&#xe8;" horiz-adv-x="815" 
d="M240 246q0 -207 138 -207q166 0 279 165q35 50 66 109l37 -18q-167 -319 -400 -324q-208 0 -284 166q-29 63 -29 139q0 147 67 283q123 261 343 352q80 33 163 33q187 0 187 -144q0 -76 -55 -140q-56 -64 -138 -109q-151 -82 -344 -113q-10 -51 -20 -100t-10 -92z
M666 795q0 108 -91 108q-85 0 -167 -127t-127 -295q190 31 301 142q84 84 84 172zM324 1419q0 33 20 56t58 23q63 -2 103 -96q71 -170 136 -306l-31 -21q-49 51 -83 86t-58 60l-44 44q-19 19 -40 38q-61 57 -61 116z" />
    <glyph glyph-name="eacute" unicode="&#xe9;" horiz-adv-x="815" 
d="M240 246q0 -207 138 -207q166 0 279 165q35 50 66 109l37 -18q-167 -319 -400 -324q-208 0 -284 166q-29 63 -29 139q0 147 67 283q123 261 343 352q80 33 163 33q187 0 187 -144q0 -76 -55 -140q-56 -64 -138 -109q-151 -82 -344 -113q-10 -51 -20 -100t-10 -92z
M666 795q0 108 -91 108q-85 0 -167 -127t-127 -295q190 31 301 142q84 84 84 172zM965 1424q0 -54 -107 -128q-30 -18 -62 -38t-73 -45t-95 -59t-128 -81l-23 25q51 57 90 102q39 46 86 98q47 53 88 103q80 98 154 96q70 0 70 -73z" />
    <glyph glyph-name="ecircumflex" unicode="&#xea;" horiz-adv-x="815" 
d="M240 246q0 -207 138 -207q166 0 279 165q35 50 66 109l37 -18q-167 -319 -400 -324q-208 0 -284 166q-29 63 -29 139q0 147 67 283q123 261 343 352q80 33 163 33q187 0 187 -144q0 -76 -55 -140q-56 -64 -138 -109q-151 -82 -344 -113q-10 -51 -20 -100t-10 -92z
M666 795q0 108 -91 108q-85 0 -167 -127t-127 -295q190 31 301 142q84 84 84 172zM885 1057l-215 276l-375 -276l-23 20q205 220 277 300q72 79 87 87t57 8t57 -9q15 -10 64 -139q50 -130 101 -251z" />
    <glyph glyph-name="edieresis" unicode="&#xeb;" horiz-adv-x="815" 
d="M240 246q0 -207 138 -207q166 0 279 165q35 50 66 109l37 -18q-167 -319 -400 -324q-208 0 -284 166q-29 63 -29 139q0 147 67 283q123 261 343 352q80 33 163 33q187 0 187 -144q0 -76 -55 -140q-56 -64 -138 -109q-151 -82 -344 -113q-10 -51 -20 -100t-10 -92z
M666 795q0 108 -91 108q-85 0 -167 -127t-127 -295q190 31 301 142q84 84 84 172zM977 1326q0 -48 -35 -85t-85 -37t-85 35t-35 83t35 84t86 36t85 -34t34 -82zM413 1442q51 0 85 -34t34 -82t-34 -85t-85 -37q-50 0 -85 35t-35 83t35 84t85 36z" />
    <glyph glyph-name="igrave" unicode="&#xec;" horiz-adv-x="684" 
d="M297 895q-70 0 -119 -73t-100 -204l-39 15q61 155 107 209q44 55 86 79q70 40 158 16q87 -25 127 -93t-27 -230q-11 -29 -19 -51l-117 -301q-47 -108 -47 -160q0 -51 23 -62t51 -11q74 -1 125 69t102 201l37 -12q-68 -160 -111 -213q-42 -52 -84 -74t-86 -23
q-92 0 -156 37q-65 37 -66 110q-1 74 40 183l137 348q46 123 48 162q0 78 -70 78zM207 1419q0 33 20 56q21 23 59 23q63 -2 102 -96q71 -170 136 -306l-30 -21q-98 102 -133 137l-53 53q-19 19 -40 38q-61 57 -61 116z" />
    <glyph glyph-name="iacute" unicode="&#xed;" horiz-adv-x="684" 
d="M297 895q-70 0 -119 -73t-100 -204l-39 15q61 155 107 209q44 55 86 79q70 40 158 16q87 -25 127 -93t-27 -230q-11 -29 -19 -51l-117 -301q-47 -108 -47 -160q0 -51 23 -62t51 -11q74 -1 125 69t102 201l37 -12q-68 -160 -111 -213q-42 -52 -84 -74t-86 -23
q-92 0 -156 37q-65 37 -66 110q-1 74 40 183l137 348q46 123 48 162q0 78 -70 78zM803 1424q0 -54 -107 -128q-30 -18 -62 -38t-73 -45t-95 -59t-128 -81l-23 25q163 182 234 268q72 86 107 109q36 23 77 22q70 0 70 -73z" />
    <glyph glyph-name="icircumflex" unicode="&#xee;" horiz-adv-x="684" 
d="M591 1494q7 -7 21 -49t36 -130t67 -215l-35 -17l-174 275l-313 -273l-27 21q106 123 169.5 207.5t94.5 120.5t39 45.5t18 15.5t53.5 6t50.5 -7zM367 817q0 78 -70 78t-119 -72.5t-100 -204.5l-39 15q61 154 106 209t87 78.5t86 23.5q87 0 152 -45t65 -129
q0 -45 -28 -114.5t-36 -92.5l-117 -301q-47 -108 -47 -160q0 -51 22.5 -62t51.5 -11q74 0 125 69.5t102 200.5l37 -12q-70 -163 -130.5 -236.5t-160.5 -73.5q-137 0 -175 56.5t-38 110.5t41 163l137 348q48 129 48 162z" />
    <glyph glyph-name="idieresis" unicode="&#xef;" horiz-adv-x="684" 
d="M811 1326q0 -48 -34 -84t-84 -36t-84 34t-34 82t34 84t85 36t84 -34t33 -82zM428 1326q0 -48 -34 -85t-84 -37t-83.5 35t-33.5 83t33.5 84t83.5 36t84 -34t34 -82zM367 817q0 78 -70 78t-119 -72.5t-100 -204.5l-39 15q61 154 106 209t87 78.5t86 23.5q87 0 152 -45
t65 -129q0 -45 -28 -114.5t-36 -92.5l-117 -301q-47 -108 -47 -160q0 -51 22.5 -62t51.5 -11q74 0 125 69.5t102 200.5l37 -12q-70 -163 -130.5 -236.5t-160.5 -73.5q-137 0 -175 56.5t-38 110.5t41 163l137 348q48 129 48 162z" />
    <glyph glyph-name="eth" unicode="&#xf0;" horiz-adv-x="985" 
d="M985 866q0 -378 -125 -565.5t-241.5 -258.5t-247.5 -71t-223.5 91t-92.5 268q0 86 38 192.5t109.5 200.5t174 157.5t226.5 63.5t188 -98h8q6 54 6 128q0 185 -70 320l-239 -161l-29 43l244 165q-55 92 -142 156l35 37q121 -76 182 -141l211 145l27 -47l-203 -137
q164 -195 164 -488zM741 654q0 116 -44 185.5t-99 69.5q-80 0 -145.5 -62.5t-135 -206t-69.5 -349.5q0 -141 41 -211t100 -70q86 0 151.5 62.5t110.5 156t67.5 201.5t22.5 224z" />
    <glyph glyph-name="ntilde" unicode="&#xf1;" horiz-adv-x="1226" 
d="M535 756q135 188 297 188q96 0 161 -66t68 -163q0 -56 -39 -152l-115 -301q-45 -119 -45 -164t24 -57t52 -12q72 -1 123 69t102 201l39 -12q-68 -160 -111 -213q-43 -52 -85 -74t-86 -23q-149 0 -207 82q-23 31 -23 83t45 165l121 320q39 103 39 159t-27 74
q-27 19 -71 19q-81 0 -163 -73q-81 -73 -136 -181l-207 -625h-185l222 655q16 48 23 83t11 54q22 103 -52 103q-73 0 -122 -73t-100 -204l-41 15q61 155 107 209q45 55 87 79t97 23q188 0 188 -186zM590 1374q43 26 102 27q59 0 137 -60q31 -23 61 -41t83 -18t97 42t87 108
l37 -19q-46 -89 -100 -146q-104 -110 -181 -110t-155 60q-31 23 -61 41t-83 18t-97 -42t-87 -108l-37 19q46 89 100 146t97 83z" />
    <glyph glyph-name="ograve" unicode="&#xf2;" horiz-adv-x="985" 
d="M932 591q0 -89 -36 -195t-106 -201q-70 -94 -180 -159q-109 -65 -239 -65t-223 91t-93 268q0 82 36 188q79 233 287 361q108 65 239 65t223 -90q92 -91 92 -263zM739 654q0 116 -43 186t-98 69q-80 0 -146 -62q-66 -61 -110 -155q-45 -94 -70 -203q-24 -109 -24 -224
t41 -185t100 -70q86 0 152 62t109 156q89 189 89 426zM678 1075q-49 51 -83 86t-58 60l-44 44q-19 19 -40 38q-61 57 -61 103t20 69t58 23t62 -28t40 -68q18 -40 30 -69t28 -63t34 -75q18 -42 45 -99z" />
    <glyph glyph-name="oacute" unicode="&#xf3;" horiz-adv-x="985" 
d="M932 591q0 -89 -36 -195t-106 -201q-70 -94 -180 -159q-109 -65 -239 -65t-223 91t-93 268q0 82 36 188q79 233 287 361q108 65 239 65t223 -90q92 -91 92 -263zM739 654q0 116 -43 186t-98 69q-80 0 -146 -62q-66 -61 -110 -155q-45 -94 -70 -203q-24 -109 -24 -224
t41 -185t100 -70q86 0 152 62t109 156q89 189 89 426zM979 1424q0 -54 -107 -128q-30 -18 -62 -38t-73 -45t-95 -59t-128 -81l-22 25q71 80 131 148q59 69 85 99q26 31 58 69q70 85 143 83q70 0 70 -73z" />
    <glyph glyph-name="ocircumflex" unicode="&#xf4;" horiz-adv-x="985" 
d="M932 591q0 -89 -36 -195t-106 -201q-70 -94 -180 -159q-109 -65 -239 -65t-223 91t-93 268q0 82 36 188q79 233 287 361q108 65 239 65t223 -90q92 -91 92 -263zM739 654q0 116 -43 186t-98 69q-80 0 -146 -62q-66 -61 -110 -155q-45 -94 -70 -203q-24 -109 -24 -224
t41 -185t100 -70q86 0 152 62t109 156q89 189 89 426zM736 1501q42 0 56 -8t64 -139q51 -131 102 -252l-30 -17l-215 277l-375 -277l-23 21q205 220 277 300q72 79 87 87t57 8z" />
    <glyph glyph-name="otilde" unicode="&#xf5;" horiz-adv-x="985" 
d="M932 591q0 -89 -36 -195t-106 -201q-70 -94 -180 -159q-109 -65 -239 -65t-223 91t-93 268q0 82 36 188q79 233 287 361q108 65 239 65t223 -90q92 -91 92 -263zM739 654q0 116 -43 186t-98 69q-80 0 -146 -62q-66 -61 -110 -155q-45 -94 -70 -203q-24 -109 -24 -224
t41 -185t100 -70q86 0 152 62t109 156q89 189 89 426zM555 1401q47 -1 83 -19t67 -41t61 -41t82 -18q53 0 97 42t87 108l37 -19q-46 -89 -100 -146q-104 -110 -181 -110t-155 60q-31 23 -61 41t-83 18t-97 -42t-87 -108l-37 19q46 89 100 146t97 83t90 27z" />
    <glyph glyph-name="odieresis" unicode="&#xf6;" horiz-adv-x="985" 
d="M932 591q0 -89 -36 -195t-106 -201q-70 -94 -180 -159q-109 -65 -239 -65t-223 91t-93 268q0 82 36 188q79 233 287 361q108 65 239 65t223 -90q92 -91 92 -263zM739 654q0 116 -43 186t-98 69q-80 0 -146 -62q-66 -61 -110 -155q-45 -94 -70 -203q-24 -109 -24 -224
t41 -185t100 -70q86 0 152 62t109 156q89 189 89 426zM1036 1326q0 -48 -35 -85t-85 -37t-85 35t-35 83t35 84t86 36t85 -34t34 -82zM592 1326q0 -48 -35 -85t-85 -37t-85 35t-35 83t35 84t85 36t85 -34t35 -82z" />
    <glyph glyph-name="oslash" unicode="&#xf8;" horiz-adv-x="985" 
d="M932 584q0 -82 -36 -188.5t-106.5 -201t-179 -159t-249.5 -64.5t-232 111l-156 -156l-36 31l165 164q-47 84 -47 187q0 104 36 210.5t107.5 200.5t179 159.5t243.5 65.5t219 -94l155 154l37 -31l-162 -160q62 -88 62 -229zM598 909q-80 0 -145.5 -62.5t-136 -205
t-70.5 -350.5v-35l485 492q-16 86 -53 123.5t-80 37.5zM741 590v69q0 18 -2 31l-489 -493q12 -98 51 -142.5t88 -44.5q86 0 151.5 62.5t110.5 156t67.5 201t22.5 160.5z" />
    <glyph glyph-name="ugrave" unicode="&#xf9;" horiz-adv-x="1214" 
d="M860 115q0 -86 70 -86q70 -1 120 69t101 201l41 -12q-68 -160 -111 -213q-43 -52 -85 -74t-112 -23q-70 0 -125 41q-54 41 -54 150l-9 2q-93 -134 -200 -175t-195 -3q-88 37 -124 124q-17 42 -17 91t41 147l116 301q43 99 43 155t-16 70t-45 15q-72 0 -121 -73t-100 -204
l-37 15q62 156 106 209q45 53 85 76q67 38 164 13q136 -34 136 -151q0 -61 -43 -170l-124 -319q-39 -100 -39 -157t30 -76t71 -19q42 0 83 18q116 51 203 201l207 655h188l-215 -651q-9 -32 -21 -79q-12 -46 -12 -68zM418 1419q0 33 20 56t58 23q63 -2 103 -96
q71 -170 136 -306l-30 -21q-98 102 -132 136l-54 54q-19 19 -40 38q-61 57 -61 116z" />
    <glyph glyph-name="uacute" unicode="&#xfa;" horiz-adv-x="1214" 
d="M860 115q0 -86 70 -86q70 -1 120 69t101 201l41 -12q-68 -160 -111 -213q-43 -52 -85 -74t-112 -23q-70 0 -125 41q-54 41 -54 150l-9 2q-93 -134 -200 -175t-195 -3q-88 37 -124 124q-17 42 -17 91t41 147l116 301q43 99 43 155t-16 70t-45 15q-72 0 -121 -73t-100 -204
l-37 15q62 156 106 209q45 53 85 76q67 38 164 13q136 -34 136 -151q0 -61 -43 -170l-124 -319q-39 -100 -39 -157t30 -76t71 -19q42 0 83 18q116 51 203 201l207 655h188l-215 -651q-9 -32 -21 -79q-12 -46 -12 -68zM1153 1424q0 -53 -106 -128q-29 -18 -62 -38t-74 -45
t-95 -59t-128 -81l-22 25q71 80 131 148q59 69 85 99q26 31 58 69q70 85 143 83q70 0 70 -73z" />
    <glyph glyph-name="ucircumflex" unicode="&#xfb;" horiz-adv-x="1214" 
d="M860 115q0 -86 70 -86q70 -1 120 69t101 201l41 -12q-68 -160 -111 -213q-43 -52 -85 -74t-112 -23q-70 0 -125 41q-54 41 -54 150l-9 2q-93 -134 -200 -175t-195 -3q-88 37 -124 124q-17 42 -17 91t41 147l116 301q43 99 43 155t-16 70t-45 15q-72 0 -121 -73t-100 -204
l-37 15q62 156 106 209q45 53 85 76q67 38 164 13q136 -34 136 -151q0 -61 -43 -170l-124 -319q-39 -100 -39 -157t30 -76t71 -19q42 0 83 18q116 51 203 201l207 655h188l-215 -651q-9 -32 -21 -79q-12 -46 -12 -68zM830 1501q42 0 54 -7q10 -7 28 -48t54 -132t87 -212
l-31 -17l-215 277l-375 -277l-22 21q178 191 321 350q27 29 42 37t57 8z" />
    <glyph glyph-name="udieresis" unicode="&#xfc;" horiz-adv-x="1214" 
d="M860 115q0 -86 70 -86q70 -1 120 69t101 201l41 -12q-68 -160 -111 -213q-43 -52 -85 -74t-112 -23q-70 0 -125 41q-54 41 -54 150l-9 2q-93 -134 -200 -175t-195 -3q-88 37 -124 124q-17 42 -17 91t41 147l116 301q43 99 43 155t-16 70t-45 15q-72 0 -121 -73t-100 -204
l-37 15q62 156 106 209q45 53 85 76q67 38 164 13q136 -34 136 -151q0 -61 -43 -170l-124 -319q-39 -100 -39 -157t30 -76t71 -19q42 0 83 18q116 51 203 201l207 655h188l-215 -651q-9 -32 -21 -79q-12 -46 -12 -68zM1135 1326q0 -48 -35 -85t-85 -37t-85 35t-35 83t35 84
t86 36t85 -34t34 -82zM690 1326q0 -48 -35 -85t-85 -37t-85 35t-35 83t35 84t85 36t85 -34t35 -82z" />
    <glyph glyph-name="yacute" unicode="&#xfd;" horiz-adv-x="1101" 
d="M168 -451q151 0 290 147t238 454l-8 2q-53 -70 -128 -123q-74 -53 -144 -53q-120 -1 -188 66q-68 68 -68 163q0 54 41 153l116 297q45 104 45 159q0 56 -15 68t-44 13q-72 0 -122 -73t-101 -204l-37 15q63 159 107 212q42 52 84 76q68 39 166 14q132 -33 135 -151
q0 -56 -46 -174l-127 -315q-38 -97 -38 -157q0 -59 30 -77t73 -18q146 0 286 190l211 680h182l-215 -696q-113 -359 -298 -534q-186 -174 -413 -172q-156 0 -224 73q-46 51 -46 105q0 122 87 148q23 7 59 7t60 -32t24 -72t-19 -60q-18 -20 -41 -24t-43 -6t-27 -29
q5 -67 113 -72h45zM1137 1424q0 -54 -107 -128q-30 -18 -62 -38t-73 -45t-95 -59t-128 -81l-23 25q51 57 90 102q39 46 85 98t88 103q80 98 155 96q70 0 70 -73z" />
    <glyph glyph-name="thorn" unicode="&#xfe;" horiz-adv-x="1044" 
d="M705 944q201 0 248.5 -113t47.5 -187t-17 -143t-73.5 -186.5t-191.5 -229.5t-303 -112q-78 0 -130.5 38t-66.5 93h-8l-100 -331q-29 -97 -29 -135t28.5 -53t49.5 -16l119 -7v-41h-578v39q72 0 103.5 11t57.5 42t70 164l457 1470q31 101 31 136q0 36 -23.5 49.5
t-60.5 17.5t-60.5 5t-60.5 3v41l447 21l-238 -736l6 -2q138 162 275 162zM238 180q23 -162 189 -162q75 0 145.5 67t123 165t83 211t30.5 193q0 220 -130 220q-157 0 -284 -188z" />
    <glyph glyph-name="ydieresis" unicode="&#xff;" horiz-adv-x="1101" 
d="M168 -451q151 0 290 147t238 454l-8 2q-53 -70 -128 -123q-74 -53 -144 -53q-120 -1 -188 66q-68 68 -68 163q0 54 41 153l116 297q45 104 45 159q0 56 -15 68t-44 13q-72 0 -122 -73t-101 -204l-37 15q63 159 107 212q42 52 84 76q68 39 166 14q132 -33 135 -151
q0 -56 -46 -174l-127 -315q-38 -97 -38 -157q0 -59 30 -77t73 -18q146 0 286 190l211 680h182l-215 -696q-113 -359 -298 -534q-186 -174 -413 -172q-156 0 -224 73q-46 51 -46 105q0 122 87 148q23 7 59 7t60 -32t24 -72t-19 -60q-18 -20 -41 -24t-43 -6t-27 -29
q5 -67 113 -72h45zM1135 1326q0 -48 -35 -85t-85 -37t-85 35t-35 83t35 84t86 36t85 -34t34 -82zM690 1326q0 -48 -35 -85t-85 -37t-85 35t-35 83t35 84t85 36t85 -34t35 -82z" />
    <glyph glyph-name="OE" unicode="&#x152;" horiz-adv-x="2045" 
d="M1982 1079v17q0 88 -37.5 158.5t-104.5 79.5t-161 9h-221l-166 -591h160q153 0 209.5 77.5t97.5 174.5h53l-159 -570h-49q6 27 6 102t-17 97q-38 63 -155 63h-160l-127 -452q-21 -65 -21 -99q0 -57 47.5 -72.5t155.5 -15.5t201.5 6.5t133.5 36.5q66 50 140 143.5
t105 149.5h51l-133 -393h-885l-338 -4q-196 0 -320 109t-153 217t-29 200q0 176 78 357t204 298q244 226 534 226l213 -2l186 -2h801l-88 -320h-52zM906 1343q-106 0 -215 -72.5t-190 -193.5t-128 -277.5t-47 -293.5q0 -236 81.5 -342.5t202.5 -106.5q76 0 123 15.5t95 48.5
t83 97.5t76 165t81 249.5q80 299 101.5 431t-16.5 185q-39 53 -90 73.5t-157 20.5z" />
    <glyph glyph-name="oe" unicode="&#x153;" horiz-adv-x="1452" 
d="M877 246q1 -207 139 -207q117 0 196 71.5t148 202.5l37 -18q-169 -324 -400 -324q-191 0 -272 170q-160 -170 -367 -170q-117 0 -210 91t-93 268q0 82 36 188.5t107.5 200.5t179 159.5t251.5 65.5q180 0 260 -194q156 194 381 194q70 0 122 -33.5t52 -110.5t-99 -190.5
t-438 -171.5q-10 -51 -20 -100t-10 -92zM1303 795q0 108 -91 108q-85 0 -167.5 -126.5t-126.5 -295.5q190 31 287.5 128.5t97.5 185.5zM739 654q0 116 -43 185.5t-98 69.5q-80 0 -145.5 -62.5t-135 -206t-69.5 -349.5q0 -141 41 -211t100 -70q86 0 151.5 62.5t109.5 156
t66.5 201.5t22.5 224z" />
    <glyph glyph-name="Scaron" unicode="&#x160;" horiz-adv-x="1099" 
d="M1024 954q-38 410 -291 410q-135 0 -224 -79t-88 -177q1 -99 51 -157t162 -113q213 -107 290 -196q78 -89 79 -201q2 -209 -165 -338q-166 -130 -385 -130q-117 0 -205 33t-133 70l-95 -96h-69l115 479h47q36 -293 215 -388q68 -36 154 -36q152 0 241 88q90 88 89 191
q-1 104 -55 171t-196 136q-178 93 -229 151q-52 58 -71 112t-19 133t40 155q82 154 269 221q91 33 189 33q178 -1 280 -103l96 96h70l-117 -465h-45zM771 1495q-42 0 -56 9t-64 139q-51 130 -102 251l31 17l215 -277l374 277l23 -21q-242 -260 -296 -319q-53 -60 -68 -68
t-57 -8z" />
    <glyph glyph-name="scaron" unicode="&#x161;" horiz-adv-x="788" 
d="M750 710q0 -38 -26 -74t-68 -36t-72 20t-31 57q0 38 16 59t55 45t44 32q-11 54 -90 80q-33 10 -89 10t-102 -41q-57 -46 -57 -129q0 -84 87 -153q38 -31 82 -60q169 -110 169 -254q0 -114 -109 -206q-109 -89 -251 -89t-219 73t-78 148q-1 74 34 116t73 42q92 0 109 -62
q4 -15 4 -36q0 -22 -19 -52q-20 -30 -60 -30t-53 -3t-13 -27q0 -74 131 -114q77 -23 163 -3q140 32 140 162q0 88 -89 165q-38 33 -82 63q-171 117 -171 245q0 104 100 196t218 90q84 0 134 -26q94 -51 112 -134q8 -36 8 -74zM558 1104q-42 0 -56 9t-64 139
q-51 130 -102 251l31 17l215 -277l374 277l23 -21q-111 -119 -189 -205t-120 -130q-40 -44 -55 -52t-57 -8z" />
    <glyph glyph-name="Ydieresis" unicode="&#x178;" horiz-adv-x="1286" 
d="M795 1012q0 -81 -19 -189h19q118 301 273 453q156 152 300 149q74 -1 106 -41t31 -77q0 -136 -119 -136q-74 0 -99 67q-5 15 -5 35t9 34t20 30l-8 11q-95 -25 -239 -189q-144 -165 -230 -390q-25 -62 -41 -128l-117 -469q-6 -25 -6 -41q3 -60 122 -78q65 -10 89 -10
l-11 -43h-641l11 43q86 0 161 25q49 16 70 96l123 502q20 86 20 216t-11 193t-40 113q-66 112 -198 110q-147 0 -213 -204l-46 14q106 315 357 315q145 0 239 -121q93 -121 93 -290zM1278 1656q0 -48 -35 -85t-85 -37t-85 35t-35 83t35 84t86 36t85 -34t34 -82zM834 1656
q0 -48 -35 -85t-85 -37t-85 35t-35 83t35 84t85 36t85 -34t35 -82z" />
    <glyph glyph-name="florin" unicode="&#x192;" horiz-adv-x="1011" 
d="M-288 -139q106 1 106 -103q0 -52 -43 -96q14 -20 35 -20q111 0 202 117t164.5 364t100 339.5t47.5 160.5h-218l21 67h215q85 309 258 464q86 77 161 100.5t157 23.5t143 -41t61 -94t-32.5 -91t-85.5 -38q-103 0 -103 92q0 41 31 106q-12 25 -43 25q-197 0 -324 -426
l-35 -121h258l-22 -67h-254q-41 -135 -76 -254t-75 -235t-101 -225.5t-160 -187.5q-82 -68 -152.5 -93t-146.5 -25q-202 0 -202 139q0 51 31.5 85t81.5 34z" />
    <glyph glyph-name="circumflex" unicode="&#x2c6;" 
d="M765 1501q42 0 53 -7t29 -48t53.5 -132t86.5 -212l-31 -17l-215 277l-374 -277l-23 21q111 119 189.5 205t118.5 130t55.5 52t57.5 8z" />
    <glyph glyph-name="tilde" unicode="&#x2dc;" 
d="M806 1157q-46 0 -82 18.5t-66.5 41t-60 41t-83.5 18.5t-97.5 -42t-86.5 -108l-37 19q45 88 99 145.5t97 84t90.5 26.5t83 -18.5t66.5 -41t60 -41t83 -18.5t98 42t87 108l37 -19q-46 -89 -100 -146t-98 -83.5t-90 -26.5z" />
    <glyph glyph-name="endash" unicode="&#x2013;" horiz-adv-x="1048" 
d="M950 485h-844l33 119h844z" />
    <glyph glyph-name="emdash" unicode="&#x2014;" horiz-adv-x="1843" 
d="M1726 465h-1540l33 115h1540z" />
    <glyph glyph-name="quoteleft" unicode="&#x2018;" horiz-adv-x="378" 
d="M379 1210q63 0 96 -30t33 -62q0 -59 -37 -101t-100 -42t-99 39t-36 121q0 121 87 210t228 162l20 -47q-94 -51 -155.5 -107.5t-77.5 -142.5h41z" />
    <glyph glyph-name="quoteright" unicode="&#x2019;" horiz-adv-x="378" 
d="M557 1350q0 -121 -87 -210t-228 -163l-21 47q94 51 155.5 107.5t78.5 142.5h-41q-63 0 -96 30t-33 62q0 60 37.5 101.5t99.5 41.5q63 0 99 -38.5t36 -120.5z" />
    <glyph glyph-name="quotesinglbase" unicode="&#x201a;" horiz-adv-x="378" 
d="M199 80q0 -121 -87 -210t-229 -163l-20 47q94 51 155.5 107.5t77.5 142.5h-41q-63 0 -96 29.5t-33 62.5q0 59 38 101.5t100 42.5t98.5 -39t36.5 -121z" />
    <glyph glyph-name="quotedblleft" unicode="&#x201c;" horiz-adv-x="724" 
d="M719 1204q59 0 93 -31t34 -63q0 -58 -35.5 -96.5t-95.5 -38.5q-133 0 -133 149q0 123 83 213t234 168l19 -45q-94 -51 -157 -109.5t-79 -146.5h37zM373 1204q59 0 93 -31t34 -63q0 -58 -35.5 -96.5t-95.5 -38.5q-133 0 -133 149q0 123 82.5 213t234.5 168l18 -45
q-94 -51 -156.5 -109.5t-78.5 -146.5h37z" />
    <glyph glyph-name="quotedblright" unicode="&#x201d;" horiz-adv-x="724" 
d="M903 1360q0 -123 -83 -213t-234 -168l-19 45q94 51 156.5 109.5t79.5 146.5h-37q-59 0 -93 31t-34 63q0 60 36 97.5t95 37.5q133 1 133 -149zM557 1360q0 -123 -83 -213t-234 -168l-19 45q94 51 156.5 109.5t79.5 146.5h-37q-59 0 -93 31t-34 63q0 60 36 97.5t95 37.5
q133 1 133 -149z" />
    <glyph glyph-name="quotedblbase" unicode="&#x201e;" horiz-adv-x="724" 
d="M537 84q0 -123 -83 -213t-235 -168l-18 45q94 51 156.5 109.5t78.5 146.5h-37q-59 0 -93 31t-34 63q0 58 36.5 96.5t94.5 38.5q134 1 134 -149zM190 84q0 -123 -82.5 -213t-234.5 -168l-18 45q94 51 156.5 109.5t78.5 146.5h-37q-59 0 -93 31t-34 63q0 57 35.5 96
t95.5 39q133 1 133 -149z" />
    <glyph glyph-name="dagger" unicode="&#x2020;" horiz-adv-x="843" 
d="M808 1042q72 0 73 -66q0 -32 -27.5 -56.5t-63.5 -24.5t-57.5 20.5t-38 44t-32 44t-32.5 20.5t-24.5 -15.5t-25.5 -69.5q-117 -342 -226 -706l-41 13q17 76 51.5 233.5t74.5 339t40 217.5q0 35 -26 35q-21 0 -70 -31.5t-82 -31.5t-59.5 25.5t-26.5 61.5t18.5 56t48.5 20
t46 -23.5t16 -55.5q33 0 56.5 11t49.5 11t49 -13.5t33 -29.5q12 73 14 165.5t11 121.5q8 29 25.5 48t50.5 19t51 -23.5t18 -49.5q0 -40 -53.5 -138t-75.5 -155q18 10 51.5 10t72 -31t55.5 -39q22 43 56 43z" />
    <glyph glyph-name="daggerdbl" unicode="&#x2021;" horiz-adv-x="905" 
d="M653 1430q33 0 51.5 -20.5t18.5 -49.5t-11.5 -54.5t-27.5 -50t-32.5 -48t-26.5 -42.5q45 23 94 -0.5t74 -34.5q23 44 57 44t52 -17.5t18 -45.5t-18.5 -48.5t-51.5 -20.5t-54.5 13.5t-54.5 43t-59 29.5q-32 0 -55 -63q-6 -16 -47.5 -124t-61.5 -173l-43 10
q30 142 43.5 245t13.5 120q0 35 -41 35t-64 -10.5t-55 -10.5t-59.5 16.5t-27.5 50.5t18.5 52t47 18t47 -22.5t18.5 -57.5l67 7q67 0 99 -45l-7 135q0 119 78 119zM322 53q-33 0 -51.5 20.5t-18.5 49.5t11 54.5t27.5 50t33 48t26.5 41.5q-16 -8 -45 -8t-63.5 16.5t-59.5 26.5
q-22 -43 -56 -43t-52.5 17.5t-18.5 45.5t18.5 48t51.5 20t54.5 -13t40 -29.5t35.5 -30t37 -13.5q32 0 56 64q6 14 10 23l43 116q40 107 56 158l43 -10q-28 -129 -43 -240t-15 -127q0 -34 42 -33q42 0 64.5 10.5t54.5 10.5t59.5 -16.5t27.5 -50.5t-18.5 -52.5t-47 -18.5
t-47 22.5t-18.5 57.5l-67 -6q-67 0 -99 45l6 -135q0 -119 -77 -119z" />
    <glyph glyph-name="bullet" unicode="&#x2022;" horiz-adv-x="845" 
d="M735 665.5q0 -57.5 -22.5 -107.5t-60.5 -87t-88 -58.5t-107.5 -21.5t-107.5 21.5t-88 58.5t-60.5 87t-22.5 107.5t22.5 107.5t60.5 88t88 60.5t107.5 22.5t107.5 -22.5t88 -60.5t60.5 -88t22.5 -107.5z" />
    <glyph glyph-name="ellipsis" unicode="&#x2026;" horiz-adv-x="1613" 
d="M1376 112.5q0 -53.5 -39 -91t-92 -37.5t-92 37.5t-39 91t39 92.5t92 39t92 -39t39 -92.5zM815 112.5q0 -53.5 -39 -91t-92 -37.5t-92 37.5t-39 91t39 92.5t92 39t92 -39t39 -92.5zM254 112.5q0 -53.5 -39 -91t-92 -37.5t-92 37.5t-39 91t39 92.5t92 39t92 -39t39 -92.5z
" />
    <glyph glyph-name="perthousand" unicode="&#x2030;" horiz-adv-x="2482" 
d="M2380 356q0 -72 -37 -145.5t-131 -155.5t-226 -82t-210 69.5t-78 182.5q0 160 126.5 281t278.5 121q119 0 198 -71t79 -200zM1577 356q0 -72 -37 -145.5t-131 -155.5t-226 -82t-210 69.5t-78 182.5q0 158 126 280t279 122q119 0 198 -71t79 -200zM205 -201l-51 37
l1359 1577l56 -37zM844 998q0 -72 -37 -146t-131 -156t-226 -82t-210 69.5t-78 182.5q0 160 126.5 281t278.5 121q119 0 198 -70.5t79 -199.5zM1976 25q94 0 171 118t77 276q0 159 -121 159q-99 0 -174.5 -127.5t-75.5 -276.5t123 -149zM1174 25q94 0 170.5 118.5
t76.5 276.5t-121 158q-100 0 -174.5 -128t-74.5 -276q0 -149 123 -149zM440 666q94 0 171 118t77 276q0 159 -121 159q-99 0 -174.5 -127.5t-75.5 -276.5t123 -149z" />
    <glyph glyph-name="guilsinglleft" unicode="&#x2039;" horiz-adv-x="718" 
d="M107.5 476q15.5 38 39.5 54q25 16 82.5 52t130 84.5t156.5 103.5t168 115l23 -25l-441 -416l217 -395l-28 -18q-277 287 -332 342q-31 27 -31 46t15.5 57z" />
    <glyph glyph-name="guilsinglright" unicode="&#x203a;" horiz-adv-x="718" 
d="M620 440q-15 -38 -40 -55q-25 -16 -159.5 -102.5t-377.5 -251.5l-23 24l441 416l-217 395l28 19q278 -288 332 -342q31 -27 31 -46t-15 -57z" />
    <glyph glyph-name="trademark" unicode="&#x2122;" horiz-adv-x="1138" 
d="M813 1311q0 67 -70 67v21h146l135 -303l106 250q8 16 10.5 31.5t4.5 21.5h153v-21q-63 0 -63 -39v-301q0 -30 27.5 -34.5t37.5 -6.5v-18h-210v18q8 2 39.5 3.5t31.5 37.5v308l-157 -361h-13l-11 33q-11 33 -22 53l-114 266v-235q0 -68 20 -84q10 -10 60 -21v-18h-185v18
q8 2 25.5 5.5t33.5 14.5t15 81v213zM574 1374h-50v-336q0 -23 15 -28t51 -13v-18h-205v18q10 2 37 4t29 35v338h-32q-32 0 -47 -3t-36 -33.5t-27 -53.5h-14v115h385v-115h-14q-6 23 -27 53.5t-36 33.5t-29 3z" />
    <glyph glyph-name="NUL" horiz-adv-x="0" 
 />
    <glyph glyph-name="notequal" horiz-adv-x="1239" 
d="M-244 -483q-214 0 -215 164q0 35 26.5 70.5t88.5 35.5t82 -35.5t20 -65.5t-12 -48.5t-31 -45.5q6 -36 41 -36q113 0 188.5 106t148.5 342t127 457t95 383h-217l21 67h217l20 68q76 254 273 412q136 112 301 112q166 0 193.5 -61.5t33.5 -87.5q95 111 183 139.5t150 28.5
q107 0 162.5 -51.5t55.5 -115.5t-39 -87t-60 -23q-49 0 -84.5 23.5t-35.5 56.5t13.5 60.5t17.5 60.5q-8 23 -18.5 29t-26.5 6q-98 0 -172 -102.5t-138 -323.5l-41 -144h258l-22 -67h-254q-25 -94 -94 -366.5t-122 -440.5q-85 -269 -245 -402q-80 -68 -135.5 -93t-119.5 -25
q-208 0 -208 164q0 35 25.5 70.5t87.5 35.5t82 -35.5t20 -65.5t-12 -48.5t-31 -45.5q6 -36 49 -36q91 0 157.5 96t141.5 342q76 246 130.5 470t95.5 386h-430q-25 -94 -51.5 -199.5t-70.5 -274.5t-87 -308q-43 -138 -101.5 -246.5t-145.5 -181.5t-152.5 -98t-133.5 -25z
M902 1462q-36 0 -147 -48t-204 -374l-37 -129h432l23 82q34 127 100 238q-35 4 -67.5 22.5t-32.5 77.5l8 99q-10 23 -24.5 27.5t-50.5 4.5z" />
    <glyph glyph-name="infinity" horiz-adv-x="1796" 
d="M-244 -483q-214 0 -215 164q0 35 26.5 70.5t88.5 35.5t82 -35.5t20 -65.5t-12 -48.5t-31 -45.5q6 -36 41 -36q113 0 188.5 106t148.5 342t127 457t95 383h-217l21 67h217l20 68q76 254 273 412q136 112 306 112q171 0 196.5 -70.5t27.5 -101.5q24 30 93 87
q126 104 304 104q108 0 164 -54t56 -125q0 -34 -30.5 -74t-91.5 -40t-85.5 35.5t-24.5 61.5t19.5 57.5t23.5 64.5q-10 23 -24.5 28t-32.5 5q-111 0 -205 -98.5t-160 -327.5l-41 -144h557q-6 -64 -42.5 -179.5t-57.5 -168.5l-115 -301q-47 -108 -47 -159q0 -50 23.5 -62
t52.5 -12q74 0 125 69.5t102 200.5l37 -12q-70 -163 -130.5 -236.5t-160.5 -73.5q-135 0 -175 56.5t-40 110.5t41 163l129 348q44 113 52 195h-369q-25 -94 -94.5 -371t-121.5 -443q-85 -269 -245 -401q-80 -68 -137.5 -93t-119.5 -25q-112 0 -158 46t-46 100t27 89t88 35
t81.5 -36t20.5 -67t-43 -92q7 -36 37 -36q100 0 170.5 103.5t141.5 342.5q71 238 125.5 462t95.5 386h-430q-25 -94 -51.5 -199.5t-70.5 -274.5t-87 -308q-43 -138 -101.5 -246.5t-145.5 -181.5t-152.5 -98t-133.5 -25zM902 1462q-36 0 -147 -48t-204 -374l-37 -129h432
l25 82q39 136 110 238q-59 4 -85.5 28.5t-26.5 73.5l8 97q-10 23 -24.5 27.5t-50.5 4.5z" />
    <glyph glyph-name="summation" horiz-adv-x="1187" 
d="M606 1286q-473 0 -473 -272q0 -84 64 -121q42 53 103 53t71 -40t10 -50q0 -47 -29.5 -76.5t-66.5 -29.5q-82 0 -142.5 52t-60.5 185q0 298 207 363t333 65t213 -18.5t158.5 -42t131 -42t106.5 -18.5q73 0 89.5 36t16.5 93q35 15 74 15q68 0 68 -74q0 -114 -129 -118.5
t-174 -4.5t-224 19l-309 -1088q-6 -23 -6 -41q0 -60 90.5 -74t116.5 -14l-10 -43h-641l10 43q87 0 161 25q48 16 74 96l314 1114q-74 8 -146 8z" />
    <glyph glyph-name="integral" horiz-adv-x="1300" 
d="M57 174q0 -85 -75 -111q0 -28 16 -38q80 10 141.5 70.5t114.5 147.5t104.5 191t117.5 220q311 553 521 763h72v-1237q0 -126 166 -137l-12 -43h-600l10 43q237 14 237 125v385h-372q-142 -286 -220.5 -386.5t-144 -142.5t-127.5 -42q-101 0 -143.5 45t-42.5 107
q0 63 46 98.5t95 35.5t72.5 -34.5t23.5 -59.5zM870 614v560q-151 -198 -340 -560h340z" />
    <glyph glyph-name="nonbreakingspace" horiz-adv-x="233" 
 />
    <glyph glyph-name="lozenge" horiz-adv-x="1300" 
d="M1331 1225q0 91 76 114q0 25 -16 35q-78 -6 -140.5 -65.5t-118 -147.5t-106 -193.5t-116.5 -221.5q-156 -278 -277 -459.5t-242 -304.5h-72v1237q0 125 -167 137l12 43h600l-10 -43q-236 -14 -236 -125v-1004q152 200 338 557q182 360 259 458.5t140 136.5t125 38
q102 0 144.5 -42.5t42.5 -104.5t-43 -98.5t-92.5 -36.5t-75 32.5t-25.5 57.5z" />
    </font>
</defs>
</svg>
