<svg id="Layer_1" data-name="Layer 1" xmlns="http://www.w3.org/2000/svg" viewBox="0 0 155.44 85.04">
  <defs>
    <style>
      .rocks {
        fill: #2f404f;
        stroke: #2f404f;
        stroke-miterlimit: 10;
        stroke-width: 3.28px;
      }
    </style>
  </defs>
  <title>coalrocks</title>
  <polygon class="rocks" points="55.87 54.27 39.49 75.98 12.5 72.66 1.88 47.62 18.25 25.91 45.25 29.23 55.87 54.27"/>
    <polygon class="rocks" points="144.55 72.75 121.42 75.71 107.3 57.15 116.3 35.65 139.43 32.7 153.55 51.24 144.55 72.75"/>
  <polygon class="rocks" points="121.69 10.57 130.43 43.18 106.55 67.06 73.94 58.32 65.2 25.71 89.07 1.83 121.69 10.57"/>
  
 
     <polygon class="rocks" points="81.91 42.35 81.91 69.54 58.36 83.14 34.81 69.54 34.81 42.35 58.36 28.75 81.91 42.35"/>
    <polygon class="rocks" points="136.38 23.67 139.53 35.39 130.93 43.98 119.2 40.84 116.06 29.1 124.65 20.52 136.38 23.67"/>
  <polygon class="rocks" points="55.21 30 47.49 40.24 34.75 38.67 29.73 26.86 37.46 16.61 50.2 18.18 55.21 30"/>
  
</svg>
