<?xml version="1.0" encoding="utf-8"?>
<!-- Generator: Adobe Illustrator 19.2.1, SVG Export Plug-In . SVG Version: 6.00 Build 0)  -->
<svg version="1.1" id="Layer_1" xmlns="http://www.w3.org/2000/svg" xmlns:xlink="http://www.w3.org/1999/xlink" x="0px" y="0px"
	 viewBox="0 0 155.4 185" style="enable-background:new 0 0 155.4 185;" xml:space="preserve">
<style type="text/css">
	.rocks{fill:#2F404F;stroke:#2F404F;stroke-width:3.28;stroke-miterlimit:10;}
</style>
<title>coalrocks</title>
<polygon class="rocks" points="55.9,156.2 39.5,177.9 12.5,174.6 1.9,149.5 18.3,127.8 45.3,131.1 "/>
<polygon class="rocks" points="144.6,174.6 121.4,177.6 107.3,159 116.3,137.5 139.4,134.6 153.6,153.1 "/>
<polygon class="rocks" points="121.7,112.5 130.4,145.1 106.6,169 73.9,160.2 65.2,127.6 89.1,103.7 "/>
<polygon class="rocks" points="81.9,144.2 81.9,171.4 58.4,185 34.8,171.4 34.8,144.2 58.4,130.6 "/>
<polygon class="rocks" points="136.4,125.6 139.5,137.3 130.9,145.9 119.2,142.7 116.1,131 124.7,122.4 "/>
<polygon class="rocks" points="55.2,131.9 47.5,142.1 34.8,140.6 29.7,128.8 37.5,118.5 50.2,120.1 "/>
</svg>
