<svg id="coalcart" xmlns="http://www.w3.org/2000/svg" viewBox="0 0 208.7 400">
  <style>
    #pickaxe{fill:#2F404F;} .rocks{fill:#2F404F;stroke:#2F404F;stroke-width:3.28;stroke-miterlimit:10;} .cart-2{fill:none;stroke:#2F404F;stroke-width:6.69;stroke-miterlimit:10;} .cart-3{fill:#FFFFFF;stroke:#2F404F;stroke-width:3.28;stroke-miterlimit:10;} .cart-1{fill:none;stroke:#2F404F;stroke-width:8;stroke-miterlimit:10;} .cart-4{fill:none;stroke:#2F404F;stroke-width:3.28;stroke-miterlimit:10;}
  </style>
  <path d="M190.7 226.1l.4-.4c.3-.3.3-.7 0-1l-4.1-4.1c-.3-.3-.7-.3-1 0l-.4.4c-4.3-3.5-16.1-12.1-32.5-18l.8.6s15.4 11 26.3 22.4l.2.2-.1.1-.6.6-4 4c-1.3 1.3-1.9 2.8-1.9 2.8s-1.3.9-5.7 4.9l-48.3 48.3-.2.2c-1.9 1.9-3.1 4.1-1.1 6 1.9 1.9 4 .9 5.9-1.1l48.5-48.5c4-4.5 5-5.7 5-5.7s1.5-.5 2.8-1.9l4-4 .6-.6.1-.1c11.3 10.9 22.5 26.5 22.5 26.5l.6.8c-5.7-16.4-14.3-28.1-17.8-32.4z" id="pickaxe"/>
  <path id="rock" class="rocks" d="M67.5 292.5l-16.4 21.7-27-3.3-10.6-25.1 16.4-21.7 27 3.3z"/>
  <path id="rock_1_" class="rocks" d="M156.2 310.9l-23.2 3-14.1-18.6 9-21.5 23.1-2.9 14.2 18.5z"/>
  <path id="rock_2_" class="rocks" d="M133.3 248.8l8.7 32.6-23.8 23.9-32.7-8.8-8.7-32.6 23.9-23.9z"/>
  <path id="rock_3_" class="rocks" d="M93.5 280.5v27.2L70 321.3l-23.6-13.6v-27.2L70 266.9z"/>
  <path id="rock_4_" class="rocks" d="M148 261.9l3.1 11.7-8.6 8.6-11.7-3.2-3.1-11.7 8.6-8.6z"/>
  <path id="rock_5_" class="rocks" d="M66.8 268.2l-7.7 10.2-12.7-1.5-5.1-11.8 7.8-10.3 12.7 1.6z"/>
  <path id="cart-3_2_" class="cart-2" d="M28.5 379.6H161"/>
  <path id="cart-3_1_" class="cart-3" d="M155.1 379.6h-121l-24-78h169l-24 78z"/>
  <path id="cart-1" class="cart-1" d="M0 301.5h189.5"/>
  <path id="cart-3" class="cart-4" d="M19.6 332.5h149.6M25.8 352.7h137.4"/>
  <g id="cart-2">
    <circle class="cart-3" cx="54.9" cy="379.6" r="18.4"/>
    <circle class="cart-3" cx="54.9" cy="379.6" r="11.1"/>
    <path class="cart-3" d="M50.4 379.6h9m-4.5-4.5v9"/>
  </g>
  <g id="cart-2_1_">
    <circle class="cart-3" cx="134.3" cy="379.6" r="18.4"/>
    <circle class="cart-3" cx="134.3" cy="379.6" r="11.1"/>
    <path class="cart-4" d="M129.8 379.6h9m-4.5-4.5v9"/>
  </g>
</svg>