<svg id="Layer_4" xmlns="http://www.w3.org/2000/svg" viewBox="0 0 208.7 400">
  <style>
    .gas-st0{fill:#1D2C38;} .gas-st1{fill:#FFFFFF;stroke:#2F404F;stroke-width:2;stroke-miterlimit:10;} .gas-st2{fill:none;stroke:#2F404F;stroke-width:4;stroke-miterlimit:10;} .gas-st3{fill:none;stroke:#2F404F;stroke-width:2;stroke-miterlimit:10;} .st4{fill:#2F404F;} .gas-st5{fill:#FFFFFF;stroke:#2F404F;stroke-width:2.4712;stroke-miterlimit:10;} .gas-st6{fill:none;stroke:#2F404F;stroke-width:2.4712;stroke-miterlimit:10;}
  </style>
  <title>
    _gas
  </title>
  <g id="gas-bottle">
    <path class="gas-st0" d="M22.3,309.6v-1.4h-1.6l0-4h3.3v-0.7h-7.3v0.7H20l0,4h-1.6v1.4c-2.6,0.3-5.9,3.2-5.9,6.6v45.3h15.8v-45.3
	C28.2,312.7,26.2,309.9,22.3,309.6z"/>
<path class="gas-st0" d="M45.2,309.6v-1.4h-1.6l0-4h3.3v-0.7h-7.3v0.7h3.3l0,4h-1.6v1.4c-2.6,0.3-5.9,3.2-5.9,6.6v45.3h15.8v-45.3
	C51.2,312.7,49.2,309.9,45.2,309.6z"/>
<path class="gas-st0" d="M68.2,309.6v-1.4h-1.6l0-4h3.3v-0.7h-7.3v0.7h3.3l0,4h-1.6v1.4c-2.6,0.3-5.9,3.2-5.9,6.6v45.3h15.8v-45.3
	C74.1,312.7,72.1,309.9,68.2,309.6z"/>
<path class="gas-st0" d="M91.1,309.6v-1.4h-1.6l0-4h3.3v-0.7h-7.3v0.7h3.3l0,4h-1.6v1.4c-2.6,0.3-5.9,3.2-5.9,6.6v45.3h15.8v-45.3
	C97.1,312.7,95.1,309.9,91.1,309.6z"/>
<path class="gas-st0" d="M114.1,309.6v-1.4h-1.6l0-4h3.3v-0.7h-7.3v0.7h3.3l0,4h-1.6v1.4c-2.6,0.3-5.9,3.2-5.9,6.6v45.3H120v-45.3
	C120,312.7,118,309.9,114.1,309.6z"/>
  </g>
  <path id="gas-body" class="gas-st1" d="M202.1 367.5v-23.9l-24.4-4.9v-33.2c0-4.7-2.8-8.7-6.8-9.8l-40.5-10.4c-1.9-.5-3.5 1.2-3.5 3.5v72.8H3v23.1h6.4c.7-2.9 2.1-5.2 4-7.3h28.4c1.9 2 3.3 4.4 4 7.3h2.5c.8-2.7 2.1-5.1 3.9-7.3h28.6c1.8 2.1 3.1 4.6 3.9 7.3h70.1c.7-2.9 2.1-5.2 4-7.3h28.4c1.9 2 3.3 4.4 4 7.3H206v-17.2h-3.9z"/>
  <path class="gas-st2" d="M126.7 337.4H2.7M126.7 353.1H2.7M7.1 326v35.3"/>
  <path id="gas-window" class="gas-st3" d="M171.5 335.5l-35.9-8.4v-27.9l35.9 8.2z"/>
  <circle id="gas-pattern_1_" class="gas-st4" cx="195.7" cy="348.6" r="1.4"/>
  <circle id="gas-pattern" class="gas-st4" cx="187.7" cy="347.3" r="1.4"/>
  <g id="gas-wheel_2_">
    <circle class="gas-st5" cx="173.1" cy="384.6" r="13.9"/>
    <circle class="gas-st5" cx="173.1" cy="384.6" r="8.4"/>
    <path class="gas-st6" d="M169.8 384.6h6.8m-3.5-3.4v6.8"/>
  </g>
  <g id="gas-wheel_1_">
    <circle class="gas-st5" cx="66.6" cy="384.6" r="13.9"/>
    <circle class="gas-st5" cx="66.6" cy="384.6" r="8.4"/>
    <path class="gas-st6" d="M63.2 384.6H70m-3.4-3.4v6.8"/>
  </g>
  <g id="gas-wheel">
    <circle class="gas-st5" cx="27.7" cy="384.6" r="13.9"/>
    <circle class="gas-st5" cx="27.7" cy="384.6" r="8.4"/>
    <path class="gas-st6" d="M24.3 384.6h6.8m-3.4-3.4v6.8"/>
  </g>
  <path id="gas-pattern_2_" class="gas-st4" d="M146.5 337.4l-10.9-2.3v-2.4l10.9 2.3z"/>
</svg>