<svg id="Layer_4" xmlns="http://www.w3.org/2000/svg"  viewBox="0 0 208.7 400" >
  <style>
    .oil-top{fill:#FFFFFF;stroke:#2F404F;stroke-width:1.1833;stroke-miterlimit:10;} .oil-st1{fill:none;stroke:#2F404F;stroke-width:1.1833;stroke-miterlimit:10;} .oil-st2{fill:none;stroke:#2F404F;stroke-width:1.775;stroke-miterlimit:10;} .oil-st3{fill:#FFFFFF;stroke:#2F404F;stroke-width:2;stroke-miterlimit:10;} .oil-st4{fill:none;stroke:#2F404F;stroke-width:1.7574;stroke-miterlimit:10;} .oil-st5{fill:#FFFFFF;stroke:#2F404F;stroke-width:1.775;stroke-miterlimit:10;} .oil-st6{fill:#FFFFFF;stroke:#2F404F;stroke-width:1.5;stroke-miterlimit:10;} .oil-st7{fill:#2F404F;} .oil-st8{fill:#FFFFFF;stroke:#2F404F;stroke-width:2;stroke-miterlimit:10;}
  </style>
  <g id="oil-top">
    <path id="lid_1_" class="oil-top" d="M91.1 296.1h28.6v3.7H91.1z"/>
    <path id="lid" class="oil-top" d="M90.4 293.3h29.9c.7 0 1.3.6 1.3 1.3v.2c0 .7-.6 1.3-1.3 1.3H90.4c-.7 0-1.3-.6-1.3-1.3v-.2c0-.7.6-1.3 1.3-1.3z"/>
  </g>
  <g id="oil-top_1_">
    <path class="oil-st1" d="M105.3 289.9v3.4"/>
    <path class="oil-st2" d="M95.2 288.5v4.8M115.5 288.5v4.8"/>
    <path class="oil-st1" d="M99.4 289.9h11.9"/>
  </g>
  <path id="oil-body" class="oil-st3" d="M15.5 299.8h177.6c6.5 0 11.8 5.3 11.8 11.8v46.6c0 6.5-5.3 11.8-11.8 11.8H15.5c-6.5 0-11.8-5.3-11.8-11.8v-46.6c0-6.5 5.3-11.8 11.8-11.8z"/>
  <path id="oil-lower_1_" class="oil-st4" d="M.9 373.4h206.9v9.5H.9z"/>
  <path id="oil-lower" class="oil-st3" d="M182.6 380.2l-3.2-13.6h-16.9l-3.2 10.1h-7.9l-18-10.1H75.3l-18 10.1h-8.8l-3.2-10.1H28.4l-3.2 13.6H4v5.9h201.1v-5.9z"/>
  <g id="oil-ladder">
    <path class="oil-st1" d="M95.2 379.8v-86.5M115.5 293.3v86.5M95.2 302.6h20.3M95.2 316.3h20.3M95.2 330.1h20.3M95.2 343.8h20.3M95.2 357.5h20.3"/>
  </g>
  <g id="oil-pattern">
    <path class="oil-st5" d="M33.9 299.8h5.8v66.8h-5.8zM168 299.8h5.8v66.8H168z"/>
  </g>
  <circle id="oil-circle" class="oil-st6" cx="67.5" cy="329.5" r="11.7"/>
  <path id="oil-drop" class="oil-st7" d="M67.5 323.3c-1.2 2-4 6.1-4 8.3 0 2.2 1.8 4 4 4s4-1.8 4-4c-.1-2.1-2.7-6.2-4-8.3z"/>
  <g class="oil-wheel">
    <circle class="oil-st8" cx="25.9" cy="388" r="10.9"/>
    <circle class="oil-st8" cx="25.9" cy="388" r="6.6"/>
    
  </g>
  <g class="oil-wheel">
    <circle class="oil-st8" cx="58.9" cy="388" r="10.9"/>
    <circle class="oil-st8" cx="58.9" cy="388" r="6.6"/>
    
  </g>
  <g class="oil-wheel">
    <circle class="oil-st8" cx="149.7" cy="388" r="10.9"/>
    <circle class="oil-st8" cx="149.7" cy="388" r="6.6"/>

  </g>
  <g class="oil-wheel">
    <circle class="oil-st8" cx="182.7" cy="388" r="10.9"/>
    <circle class="oil-st8" cx="182.7" cy="388" r="6.6"/>
    
  </g>
</svg>