<?xml version="1.0" encoding="utf-8"?>
<!-- Generator: Adobe Illustrator 19.2.1, SVG Export Plug-In . SVG Version: 6.00 Build 0)  -->
<svg version="1.1" id="coalcart" xmlns="http://www.w3.org/2000/svg" xmlns:xlink="http://www.w3.org/1999/xlink" x="0px" y="0px"
	 viewBox="0 0 70.3 77.5" style="enable-background:new 0 0 70.3 77.5;" xml:space="preserve">
<style type="text/css">
	.st0{fill:#2F404F;}
</style>
<title>pickaxe</title>
<path class="st0" d="M45.9,14.7l0.3-0.5c0.2-0.3,0.1-0.7-0.2-0.9c0,0,0,0,0,0l-4.9-3.2c-0.3-0.2-0.7-0.1-1,0.2c0,0,0,0,0,0l-0.3,0.5
	C28.6,5.3,16.6,1.7,4.3,0l0.9,0.4c0,0,17.4,7.5,30.4,16.3l0.2,0.1L35.7,17l-0.5,0.7l-3.1,4.8c-0.6,1-1,2-1.2,3.2c0,0-1,1.2-4.6,6
	l-24.9,39l-0.1,0.2c-1.5,2.3-2.1,4.7,0.2,6.1s4.1,0,5.6-2.3l25.2-39.3c3-5.2,3.7-6.6,3.7-6.6c0.9-0.6,1.7-1.4,2.4-2.3l3.1-4.8
	l0.5-0.7l0.1-0.1C55.2,29.1,69.5,42,69.5,42l0.8,0.7C63.7,32.1,55.4,22.7,45.9,14.7z"/>
</svg>
