<?xml version="1.0" encoding="utf-8"?>
<!-- Generator: Adobe Illustrator 19.2.1, SVG Export Plug-In . SVG Version: 6.00 Build 0)  -->
<svg version="1.1" id="Layer_4" xmlns="http://www.w3.org/2000/svg" xmlns:xlink="http://www.w3.org/1999/xlink" x="0px" y="0px"
	 viewBox="0 0 208.7 400" style="enable-background:new 0 0 208.7 400;" xml:space="preserve">
<style type="text/css">
	.st0{fill:#1D2C38;}
	.st1{fill:#FFFFFF;stroke:#2F404F;stroke-width:2;stroke-miterlimit:10;}
	.st2{fill:none;stroke:#2F404F;stroke-width:4;stroke-miterlimit:10;}
	.st3{fill:none;stroke:#2F404F;stroke-width:2;stroke-miterlimit:10;}
	.st4{fill:#2F404F;}
	.st5{fill:#FFFFFF;stroke:#2F404F;stroke-width:2.4712;stroke-miterlimit:10;}
	.st6{fill:none;stroke:#2F404F;stroke-width:2.4712;stroke-miterlimit:10;}
</style>
<title>_gas</title>
<path class="st0" d="M22.3,309.6v-1.4h-1.6l0-4h3.3v-0.7h-7.3v0.7H20l0,4h-1.6v1.4c-2.6,0.3-5.9,3.2-5.9,6.6v45.3h15.8v-45.3
	C28.2,312.7,26.2,309.9,22.3,309.6z"/>
<path class="st0" d="M45.2,309.6v-1.4h-1.6l0-4h3.3v-0.7h-7.3v0.7h3.3l0,4h-1.6v1.4c-2.6,0.3-5.9,3.2-5.9,6.6v45.3h15.8v-45.3
	C51.2,312.7,49.2,309.9,45.2,309.6z"/>
<path class="st0" d="M68.2,309.6v-1.4h-1.6l0-4h3.3v-0.7h-7.3v0.7h3.3l0,4h-1.6v1.4c-2.6,0.3-5.9,3.2-5.9,6.6v45.3h15.8v-45.3
	C74.1,312.7,72.1,309.9,68.2,309.6z"/>
<path class="st0" d="M91.1,309.6v-1.4h-1.6l0-4h3.3v-0.7h-7.3v0.7h3.3l0,4h-1.6v1.4c-2.6,0.3-5.9,3.2-5.9,6.6v45.3h15.8v-45.3
	C97.1,312.7,95.1,309.9,91.1,309.6z"/>
<path class="st0" d="M114.1,309.6v-1.4h-1.6l0-4h3.3v-0.7h-7.3v0.7h3.3l0,4h-1.6v1.4c-2.6,0.3-5.9,3.2-5.9,6.6v45.3H120v-45.3
	C120,312.7,118,309.9,114.1,309.6z"/>
<path id="gas-body" class="st1" d="M202.1,367.5v-23.9l-24.4-4.9v-33.2c0-4.7-2.8-8.7-6.8-9.8l-40.5-10.4c-1.9-0.5-3.5,1.2-3.5,3.5
	v72.8H3v12.5v3.3v7.3h6.4c0.7-2.9,2.1-5.2,4-7.3h28.4c1.9,2,3.3,4.4,4,7.3h2.5c0.8-2.7,2.1-5.1,3.9-7.3h28.6
	c1.8,2.1,3.1,4.6,3.9,7.3h70.1c0.7-2.9,2.1-5.2,4-7.3h28.4c1.9,2,3.3,4.4,4,7.3H206v-7.3v-3.3v-6.6H202.1z"/>
<line class="st2" x1="126.7" y1="337.4" x2="2.7" y2="337.4"/>
<line class="st2" x1="126.7" y1="353.1" x2="2.7" y2="353.1"/>
<line class="st2" x1="7.1" y1="326" x2="7.1" y2="361.3"/>
<polygon id="gas-window" class="st3" points="171.5,335.5 135.6,327.1 135.6,299.2 171.5,307.4 "/>
<circle id="gas-pattern_1_" class="st4" cx="195.7" cy="348.6" r="1.4"/>
<circle id="gas-pattern" class="st4" cx="187.7" cy="347.3" r="1.4"/>
<g id="gas-wheel_2_">
	<circle class="st5" cx="173.1" cy="384.6" r="13.9"/>
	<circle class="st5" cx="173.1" cy="384.6" r="8.4"/>
	<path class="st6" d="M169.8,384.6h6.8 M173.1,381.2v6.8"/>
</g>
<g id="gas-wheel_1_">
	<circle class="st5" cx="66.6" cy="384.6" r="13.9"/>
	<circle class="st5" cx="66.6" cy="384.6" r="8.4"/>
	<path class="st6" d="M63.2,384.6H70 M66.6,381.2v6.8"/>
</g>
<g id="gas-wheel">
	<circle class="st5" cx="27.7" cy="384.6" r="13.9"/>
	<circle class="st5" cx="27.7" cy="384.6" r="8.4"/>
	<path class="st6" d="M24.3,384.6h6.8 M27.7,381.2v6.8"/>
</g>
<polygon id="gas-pattern_2_" class="st4" points="146.5,337.4 135.6,335.1 135.6,332.7 146.5,335 "/>
</svg>
