<svg id="Layer_1" data-name="Layer 1" xmlns="http://www.w3.org/2000/svg" viewBox="0 0 98.04 24.33"><defs><style>.cloud-2{fill:#f3f3f3;}</style></defs><title>clouds-2</title><rect class="cloud-2" x="88.67" y="8.11" width="9.38" height="8.11" rx="4.06" ry="4.06"/><path class="cloud-2" d="M79.98 8.11h-10.5c2.58 0 4.69-1.83 4.69-4.06S72.06-.01 69.48-.01H8.35c-2.58 0-4.69 1.83-4.69 4.06s2.11 4.06 4.69 4.06h15.23c2.58 0 4.69 1.83 4.69 4.06s-2.11 4.06-4.69 4.06H4.68c-2.58 0-4.69 1.83-4.69 4.06s2.12 4.04 4.69 4.04h61.13c2.58 0 4.69-1.83 4.69-4.06s-2.11-4.06-4.69-4.06h14.17c2.58 0 4.69-1.83 4.69-4.06s-2.12-4.04-4.69-4.04z"/></svg>