<svg id="a6ef8e68-3ddd-449e-a661-b9b2bbd3d914" data-name="Icons" xmlns="http://www.w3.org/2000/svg" viewBox="0 0 82 82">
  <defs>
    <style>
      .\34 b61f6ee-53ae-4bfd-830b-2b626cd0161a {
        fill: #fff;
      }
    </style>
  </defs>
  <title>facebook</title>
  <g>
    <path class="4b61f6ee-53ae-4bfd-830b-2b626cd0161a" d="M200,441a41,41,0,1,1,41-41A41,41,0,0,1,200,441Zm0-80a39,39,0,1,0,39,39A39,39,0,0,0,200,361Z" transform="translate(-159.01 -359)"/>
    <path class="4b61f6ee-53ae-4bfd-830b-2b626cd0161a" d="M191.33,393.9H195v-3.62c0-1.6,0-4.06,1.2-5.58A6.62,6.62,0,0,1,202,382a23.38,23.38,0,0,1,6.67.67l-0.93,5.51a12.54,12.54,0,0,0-3-.45c-1.45,0-2.74.52-2.74,2v4.21H208l-0.41,5.39H202V418h-7V399.29h-3.72V393.9Z" transform="translate(-159.01 -359)"/>
  </g>
</svg>
