<svg id="e2782e76-1e6e-4b34-90dd-dd9026e2c46f" data-name="Icons" xmlns="http://www.w3.org/2000/svg" viewBox="0 0 82 82">
  <defs>
    <style>
      .\34 eb00cca-c741-41e5-9322-77355891660d {
        fill: #fff;
      }
    </style>
  </defs>
  <title>google</title>
  <g>
    <path class="4eb00cca-c741-41e5-9322-77355891660d" d="M200,1541a41,41,0,1,1,41-41A41,41,0,0,1,200,1541Zm0-80a39,39,0,1,0,39,39A39,39,0,0,0,200,1461Z" transform="translate(-159.01 -1459)"/>
    <path class="4eb00cca-c741-41e5-9322-77355891660d" d="M194.06,1516.11c-4.28,0-7.37-2.71-7.37-6s3.83-5.84,8.11-5.8a9.31,9.31,0,0,1,2.77.44c2.32,1.62,4,2.53,4.46,4.37a4.94,4.94,0,0,1,.14,1.15c0,3.25-2.1,5.79-8.11,5.79m1.12-19.08c-2.87-.08-5.6-3.21-6.1-7s1.43-6.66,4.3-6.58,5.6,3.11,6.1,6.88-1.43,6.76-4.3,6.67m6,5.59c-1-.71-2.93-2.45-2.93-3.47,0-1.2.34-1.79,2.14-3.19a7.49,7.49,0,0,0,3.15-5.82c0-2.81-1.25-5.54-3.59-6.44h3.53l2.49-1.8H194.78c-5,0-9.7,3.79-9.7,8.17s3.41,8.1,8.49,8.1c0.35,0,.7,0,1,0a4.52,4.52,0,0,0-.57,2.08,4.33,4.33,0,0,0,1.52,3.08l-1.93,0c-6.19,0-11,3.94-11,8s5.22,6.54,11.41,6.54c7.06,0,11-4,11-8,0-3.23-1-5.16-3.9-7.24m16.22-5.26H213V1493h-3.49v4.34h-4.34v3.49h4.34v4.34H213v-4.34h4.34v-3.49Z" transform="translate(-159.01 -1459)"/>
  </g>
</svg>
