<svg id="b137545b-7205-434c-b4f9-2fd5411c7f2c" data-name="fieldg" xmlns="http://www.w3.org/2000/svg" viewBox="0 0 2348.98 1246.87">
  <defs>
    <style>
      .ec578fd5-6d18-4a1d-ab0c-fdfce70a2192 {
        fill: #fff;
      }

      .\37 7a000b1-5668-405c-84f8-72cc27fb1b19 {
        fill: none;
        stroke: #fff;
        stroke-miterlimit: 10;
      }
    </style>
  </defs>
  <title>asd</title>
  <g id="2a994965-2359-46dd-84f3-1e8360847ef9" data-name="field">
    <path class="ec578fd5-6d18-4a1d-ab0c-fdfce70a2192" d="M7.5,1245.12v-7.8c0-9.8,6.55-11.3,11.75-11.3s11.7,1.5,11.7,11.3v3.75H42.5v4H7.5Zm19.65-4v-3.75c-0.2-6.35-3.45-7.25-7.9-7.25s-8,.9-8,7.25v3.75h15.9Z" transform="translate(-7.5)"/>
    <path class="ec578fd5-6d18-4a1d-ab0c-fdfce70a2192" d="M7.5,1215.42H32.6c4.3,0,6.4-1.7,6.4-6.15s-2.1-6.3-6.4-6.3H7.5v-4H32.6c7.2,0,10.15,4,10.15,10.35s-3,10.2-10.15,10.2H7.5v-4.05Z" transform="translate(-7.5)"/>
    <path class="ec578fd5-6d18-4a1d-ab0c-fdfce70a2192" d="M7.5,1192.32v-4H38.55v-11.55h4v15.55H7.5Z" transform="translate(-7.5)"/>
    <path class="ec578fd5-6d18-4a1d-ab0c-fdfce70a2192" d="M7.5,1171.27v-7.8c0-9.8,6.55-11.3,11.75-11.3s11.7,1.5,11.7,11.3v3.75H42.5v4.05H7.5Zm19.65-4.05v-3.75c-0.2-6.35-3.45-7.25-7.9-7.25s-8,.9-8,7.25v3.75h15.9Z" transform="translate(-7.5)"/>
    <path class="ec578fd5-6d18-4a1d-ab0c-fdfce70a2192" d="M7.5,1126v-4.45l35-10v4.1l-6.75,1.85v12.6l6.75,1.8v4.1Zm24.5,3.1v-10.6c-6.6,1.85-11.55,3.35-18.35,5.3Z" transform="translate(-7.5)"/>
    <path class="ec578fd5-6d18-4a1d-ab0c-fdfce70a2192" d="M7.5,1105.77v-4l25.85-13.15H7.5v-4h35v3.9l-25.75,13.15H42.5v4H7.5Z" transform="translate(-7.5)"/>
    <path class="ec578fd5-6d18-4a1d-ab0c-fdfce70a2192" d="M7.5,1077.17v-9.75c0-9.8,7.8-11.3,17.5-11.3s17.5,1.5,17.5,11.3v9.75H7.5Zm31.3-4c0-1.9,0-3.8,0-5.7-0.2-6.35-5.3-7.25-13.75-7.25s-13.75.9-13.75,7.25v5.7H38.8Z" transform="translate(-7.5)"/>
    <path class="ec578fd5-6d18-4a1d-ab0c-fdfce70a2192" d="M7.5,1037.62v-7.8c0-9.8,6.55-11.3,11.75-11.3s11.7,1.5,11.7,11.3v3.75H42.5v4H7.5Zm19.65-4v-3.75c-0.2-6.35-3.45-7.25-7.9-7.25s-8,.9-8,7.25v3.75h15.9Z" transform="translate(-7.5)"/>
    <path class="ec578fd5-6d18-4a1d-ab0c-fdfce70a2192" d="M7.5,1006.22v-4.45l35-10v4.1l-6.75,1.85v12.6l6.75,1.8v4.1Zm24.5,3.1v-10.6c-6.6,1.85-11.55,3.35-18.35,5.3Z" transform="translate(-7.5)"/>
    <path class="ec578fd5-6d18-4a1d-ab0c-fdfce70a2192" d="M7.5,986v-7.8c0-9.8,6.55-11.3,11.75-11.3s11.7,1.5,11.7,11.3V982H42.5v4H7.5Zm19.65-4v-3.75c-0.2-6.35-3.45-7.25-7.9-7.25s-8,.9-8,7.25V982h15.9Z" transform="translate(-7.5)"/>
    <path class="ec578fd5-6d18-4a1d-ab0c-fdfce70a2192" d="M7.5,960.87v-16h3.75v11.9h12.7v-9.9H27.7v9.9H38.75V944.57H42.5v16.3H7.5Z" transform="translate(-7.5)"/>
    <path class="ec578fd5-6d18-4a1d-ab0c-fdfce70a2192" d="M7.5,938.32v-7.8c0-9.8,6.55-11.3,11.75-11.3,4,0,9,.95,10.9,6.2l12.35-6.65v4.45l-11.55,6.25v4.8H42.5v4.05H7.5Zm19.65-4.05v-3.75c-0.2-6.35-3.45-7.25-7.9-7.25s-8,.9-8,7.25v3.75h15.9Z" transform="translate(-7.5)"/>
  </g>
  <g id="cbdd5aab-2d40-4ab7-bf9f-2352726294bd" data-name="field">
    <path class="ec578fd5-6d18-4a1d-ab0c-fdfce70a2192" d="M263.42,1224.12c6.8,0,9.1,4.75,9.1,9.85,0,9.85-8.05,11.15-17.75,11.15S237,1243.82,237,1234c0-5.1,2.4-9.85,9.1-9.85h1.65v4h-1.65c-3.8,0-5.35,2.25-5.35,5.9,0,6.35,5.55,7.15,14,7.15s14-.8,14-7.15c0-3.6-1.75-5.85-5.35-5.85h-1.65v-4h1.65Z" transform="translate(-7.5)"/>
    <path class="ec578fd5-6d18-4a1d-ab0c-fdfce70a2192" d="M237.27,1217.12v-4.05h17.55v-10.85H237.27v-4h35v4h-13.7v10.85h13.7v4.05h-35Z" transform="translate(-7.5)"/>
    <path class="ec578fd5-6d18-4a1d-ab0c-fdfce70a2192" d="M237.27,1191.12v-16H241v11.9h12.7v-9.9h3.75v9.9h11.05v-12.25h3.75v16.3h-35Z" transform="translate(-7.5)"/>
    <path class="ec578fd5-6d18-4a1d-ab0c-fdfce70a2192" d="M237.27,1168.57v-4.4l28.15-9.55c-9.25-3.15-18.9-6.5-28.15-9.6v-4.4h35v4h-24.2c7.85,2.65,16.45,5.55,24.2,8.2v3.65l-24,8.05h24v4.05h-35Z" transform="translate(-7.5)"/>
    <path class="ec578fd5-6d18-4a1d-ab0c-fdfce70a2192" d="M237.27,1133.17v-4h35v4h-35Z" transform="translate(-7.5)"/>
    <path class="ec578fd5-6d18-4a1d-ab0c-fdfce70a2192" d="M263.42,1100.62c6.8,0,9.1,4.75,9.1,9.85,0,9.85-8.05,11.15-17.75,11.15s-17.75-1.3-17.75-11.15c0-5.1,2.4-9.85,9.1-9.85h1.65v4h-1.65c-3.8,0-5.35,2.25-5.35,5.9,0,6.35,5.55,7.15,14,7.15s14-.8,14-7.15c0-3.6-1.75-5.85-5.35-5.85h-1.65v-4h1.65Z" transform="translate(-7.5)"/>
    <path class="ec578fd5-6d18-4a1d-ab0c-fdfce70a2192" d="M237.27,1086.37v-4.45l35-10v4.1l-6.75,1.85v12.6l6.75,1.8v4.1Zm24.5,3.1v-10.6c-6.6,1.85-11.55,3.35-18.35,5.3Z" transform="translate(-7.5)"/>
    <path class="ec578fd5-6d18-4a1d-ab0c-fdfce70a2192" d="M237.27,1066.67v-4h31.05v-11.55h4v15.55h-35Z" transform="translate(-7.5)"/>
    <path class="ec578fd5-6d18-4a1d-ab0c-fdfce70a2192" d="M261.07,1046.62v-4h1.65c3.2,0,6.05-1.85,6.05-7.2,0-5.2-3.45-5.85-5.15-5.85-3.85,0-5.2,3.4-6.6,7.05-1.8,4.6-3.7,9.5-10.6,9.5-2.65,0-9.4-1.5-9.4-10.25,0-8.45,7-9.85,9.6-9.85h1.6v4h-1.6c-3.25,0-5.85,1.85-5.85,5.8,0,3.75,2.25,6.2,5.65,6.2,4,0,5.4-3.5,6.8-7.2,1.75-4.55,3.6-9.35,10.4-9.35,4.2,0,8.9,2.25,8.9,9.9,0,11-8.4,11.2-9.8,11.2h-1.65Z" transform="translate(-7.5)"/>
    <path class="ec578fd5-6d18-4a1d-ab0c-fdfce70a2192" d="M297.27,1236.87v-4.45l35-10v4.1l-6.75,1.85V1241l6.75,1.8v4.1Zm24.5,3.1v-10.6c-6.6,1.85-11.55,3.35-18.35,5.3Z" transform="translate(-7.5)"/>
    <path class="ec578fd5-6d18-4a1d-ab0c-fdfce70a2192" d="M297.27,1216.67v-4l25.85-13.15H297.27v-4h35v3.9l-25.75,13.15h25.75v4.05h-35Z" transform="translate(-7.5)"/>
    <path class="ec578fd5-6d18-4a1d-ab0c-fdfce70a2192" d="M297.27,1188.07v-9.75c0-9.8,7.8-11.3,17.5-11.3s17.5,1.5,17.5,11.3v9.75h-35Zm31.3-4.05c0-1.9,0-3.8,0-5.7-0.2-6.35-5.3-7.25-13.75-7.25s-13.75.9-13.75,7.25v5.7h27.55Z" transform="translate(-7.5)"/>
    <path class="ec578fd5-6d18-4a1d-ab0c-fdfce70a2192" d="M297.27,1148.52v-7.8c0-9.8,6.55-11.3,11.75-11.3s11.7,1.5,11.7,11.3v3.75h11.55v4h-35Zm19.65-4v-3.75c-0.2-6.35-3.45-7.25-7.9-7.25s-8,.9-8,7.25v3.75h15.9Z" transform="translate(-7.5)"/>
    <path class="ec578fd5-6d18-4a1d-ab0c-fdfce70a2192" d="M297.27,1123.37v-16H301v11.9h12.7v-9.9h3.75v9.9h11.05v-12.25h3.75v16.3h-35Z" transform="translate(-7.5)"/>
    <path class="ec578fd5-6d18-4a1d-ab0c-fdfce70a2192" d="M297.27,1102.82v-18.5H301v7.25h31.25v4H301v7.2h-3.75Z" transform="translate(-7.5)"/>
    <path class="ec578fd5-6d18-4a1d-ab0c-fdfce70a2192" d="M297.27,1078.27v-7.8c0-9.8,6.55-11.3,11.75-11.3,4,0,9,1,10.9,6.2l12.35-6.65v4.45l-11.55,6.25v4.8h11.55v4h-35Zm19.65-4v-3.75c-0.2-6.35-3.45-7.25-7.9-7.25s-8,.9-8,7.25v3.75h15.9Z" transform="translate(-7.5)"/>
    <path class="ec578fd5-6d18-4a1d-ab0c-fdfce70a2192" d="M297,1042.47c0-10,8-11.3,17.75-11.3s17.75,1.35,17.75,11.3-8,11.15-17.75,11.15S297,1052.42,297,1042.47Zm31.75,0c0-6.5-5.5-7.25-14-7.25s-14,.75-14,7.25,5.5,7.1,14,7.1S328.77,1049,328.77,1042.47Z" transform="translate(-7.5)"/>
    <path class="ec578fd5-6d18-4a1d-ab0c-fdfce70a2192" d="M297.27,1024.47v-4h31.05v-11.55h4v15.55h-35Z" transform="translate(-7.5)"/>
    <path class="ec578fd5-6d18-4a1d-ab0c-fdfce70a2192" d="M323.42,983.92c6.8,0,9.1,4.75,9.1,9.85,0,9.85-8.05,11.15-17.75,11.15S297,1003.62,297,993.77c0-5.1,2.4-9.85,9.1-9.85h1.65v4h-1.65c-3.8,0-5.35,2.25-5.35,5.9,0,6.35,5.55,7.15,14,7.15s14-.8,14-7.15c0-3.6-1.75-5.85-5.35-5.85h-1.65v-4h1.65Z" transform="translate(-7.5)"/>
    <path class="ec578fd5-6d18-4a1d-ab0c-fdfce70a2192" d="M297.27,976.92v-4.05h17.55V962H297.27v-4h35v4h-13.7v10.85h13.7v4.05h-35Z" transform="translate(-7.5)"/>
    <path class="ec578fd5-6d18-4a1d-ab0c-fdfce70a2192" d="M297.27,950.92V935H301v11.9h12.7V937h3.75v9.9h11.05V934.62h3.75v16.3h-35Z" transform="translate(-7.5)"/>
    <path class="ec578fd5-6d18-4a1d-ab0c-fdfce70a2192" d="M297.27,928.37V924l28.15-9.55c-9.25-3.15-18.9-6.5-28.15-9.6v-4.4h35v4h-24.2c7.85,2.65,16.45,5.55,24.2,8.2v3.65l-24,8.05h24v4.05h-35Z" transform="translate(-7.5)"/>
    <path class="ec578fd5-6d18-4a1d-ab0c-fdfce70a2192" d="M297.27,893v-4.05h35V893h-35Z" transform="translate(-7.5)"/>
    <path class="ec578fd5-6d18-4a1d-ab0c-fdfce70a2192" d="M323.42,860.42c6.8,0,9.1,4.75,9.1,9.85,0,9.85-8.05,11.15-17.75,11.15S297,880.12,297,870.27c0-5.1,2.4-9.85,9.1-9.85h1.65v4h-1.65c-3.8,0-5.35,2.25-5.35,5.9,0,6.35,5.55,7.15,14,7.15s14-.8,14-7.15c0-3.6-1.75-5.85-5.35-5.85h-1.65v-4h1.65Z" transform="translate(-7.5)"/>
    <path class="ec578fd5-6d18-4a1d-ab0c-fdfce70a2192" d="M297.27,846.17v-4.45l35-10v4.1l-6.75,1.85v12.6l6.75,1.8v4.1Zm24.5,3.1v-10.6c-6.6,1.85-11.55,3.35-18.35,5.3Z" transform="translate(-7.5)"/>
    <path class="ec578fd5-6d18-4a1d-ab0c-fdfce70a2192" d="M297.27,826.47v-4h31.05V810.92h4v15.55h-35Z" transform="translate(-7.5)"/>
    <path class="ec578fd5-6d18-4a1d-ab0c-fdfce70a2192" d="M321.07,806.42v-4h1.65c3.2,0,6.05-1.85,6.05-7.2,0-5.2-3.45-5.85-5.15-5.85-3.85,0-5.2,3.4-6.6,7.05-1.8,4.6-3.7,9.5-10.6,9.5-2.65,0-9.4-1.5-9.4-10.25,0-8.45,7-9.85,9.6-9.85h1.6v4.05h-1.6c-3.25,0-5.85,1.85-5.85,5.8,0,3.75,2.25,6.2,5.65,6.2,4,0,5.4-3.5,6.8-7.2,1.75-4.55,3.6-9.35,10.4-9.35,4.2,0,8.9,2.25,8.9,9.9,0,11-8.4,11.2-9.8,11.2h-1.65Z" transform="translate(-7.5)"/>
  </g>
  <g id="7d274f2b-eb4c-4a5d-a786-5c129b05bc20" data-name="field">
    <path class="ec578fd5-6d18-4a1d-ab0c-fdfce70a2192" d="M793.19,1224.12c6.8,0,9.1,4.75,9.1,9.85,0,9.85-8.05,11.15-17.75,11.15s-17.75-1.3-17.75-11.15c0-5.1,2.4-9.85,9.1-9.85h1.65v4h-1.65c-3.8,0-5.35,2.25-5.35,5.9,0,6.35,5.55,7.15,14,7.15s14-.8,14-7.15c0-3.6-1.75-5.85-5.35-5.85h-1.65v-4h1.65Z" transform="translate(-7.5)"/>
    <path class="ec578fd5-6d18-4a1d-ab0c-fdfce70a2192" d="M767,1218.37v-16h3.75v11.9h12.7v-9.9h3.75v9.9h11.05v-12.25H802v16.3H767Z" transform="translate(-7.5)"/>
    <path class="ec578fd5-6d18-4a1d-ab0c-fdfce70a2192" d="M767,1195.82v-4.4l28.15-9.55c-9.25-3.15-18.9-6.5-28.15-9.6v-4.4h35v4h-24.2c7.85,2.65,16.45,5.55,24.2,8.2v3.65l-24,8.05h24v4H767Z" transform="translate(-7.5)"/>
    <path class="ec578fd5-6d18-4a1d-ab0c-fdfce70a2192" d="M767,1160.42v-16h3.75v11.9h12.7v-9.9h3.75v9.9h11.05v-12.25H802v16.3H767Z" transform="translate(-7.5)"/>
    <path class="ec578fd5-6d18-4a1d-ab0c-fdfce70a2192" d="M767,1137.87v-4l25.85-13.15H767v-4h35v3.9l-25.75,13.15H802v4H767Z" transform="translate(-7.5)"/>
    <path class="ec578fd5-6d18-4a1d-ab0c-fdfce70a2192" d="M767,1111.27v-18.5h3.75V1100H802v4.05H770.79v7.2H767Z" transform="translate(-7.5)"/>
    <path class="ec578fd5-6d18-4a1d-ab0c-fdfce70a2192" d="M790.84,1089.22v-4h1.65c3.2,0,6.05-1.85,6.05-7.2,0-5.2-3.45-5.85-5.15-5.85-3.85,0-5.2,3.4-6.6,7.05-1.8,4.6-3.7,9.5-10.6,9.5-2.65,0-9.4-1.5-9.4-10.25,0-8.45,7-9.85,9.6-9.85H778v4.05h-1.6c-3.25,0-5.85,1.85-5.85,5.8,0,3.75,2.25,6.2,5.65,6.2,4,0,5.4-3.5,6.8-7.2,1.75-4.55,3.6-9.35,10.4-9.35,4.2,0,8.9,2.25,8.9,9.9,0,11-8.4,11.2-9.8,11.2h-1.65Z" transform="translate(-7.5)"/>
  </g>
  <g id="67d432e9-27c7-4926-a5e8-2d67086f31b3" data-name="field">
    <path class="ec578fd5-6d18-4a1d-ab0c-fdfce70a2192" d="M1396.81,1245.12v-4.05h35v4.05h-35Z" transform="translate(-7.5)"/>
    <path class="ec578fd5-6d18-4a1d-ab0c-fdfce70a2192" d="M1396.81,1233.57v-7.8c0-9.8,6.55-11.3,11.75-11.3,4,0,9,.95,10.9,6.2l12.35-6.65v4.45l-11.55,6.25v4.8h11.55v4.05h-35Zm19.65-4.05v-3.75c-0.2-6.35-3.45-7.25-7.9-7.25s-8,.9-8,7.25v3.75h15.9Z" transform="translate(-7.5)"/>
    <path class="ec578fd5-6d18-4a1d-ab0c-fdfce70a2192" d="M1396.56,1197.77c0-10,8-11.3,17.75-11.3s17.75,1.35,17.75,11.3-8,11.15-17.75,11.15S1396.56,1207.72,1396.56,1197.77Zm31.75,0c0-6.5-5.5-7.25-14-7.25s-14,.75-14,7.25,5.5,7.1,14,7.1S1428.31,1204.27,1428.31,1197.77Z" transform="translate(-7.5)"/>
    <path class="ec578fd5-6d18-4a1d-ab0c-fdfce70a2192" d="M1396.81,1179.27v-4l25.85-13.15h-25.85v-4h35v3.9l-25.75,13.15h25.75v4h-35Z" transform="translate(-7.5)"/>
    <path class="ec578fd5-6d18-4a1d-ab0c-fdfce70a2192" d="M1396.81,1131v-4.45l35-10v4.1l-6.75,1.85v12.6l6.75,1.8v4.1Zm24.5,3.1v-10.6c-6.6,1.85-11.55,3.35-18.35,5.3Z" transform="translate(-7.5)"/>
    <path class="ec578fd5-6d18-4a1d-ab0c-fdfce70a2192" d="M1396.81,1110.82v-4l25.85-13.15h-25.85v-4h35v3.9l-25.75,13.15h25.75v4.05h-35Z" transform="translate(-7.5)"/>
    <path class="ec578fd5-6d18-4a1d-ab0c-fdfce70a2192" d="M1396.81,1082.22v-9.75c0-9.8,7.8-11.3,17.5-11.3s17.5,1.5,17.5,11.3v9.75h-35Zm31.3-4.05c0-1.9,0-3.8,0-5.7-0.2-6.35-5.3-7.25-13.75-7.25s-13.75.9-13.75,7.25v5.7h27.55Z" transform="translate(-7.5)"/>
    <path class="ec578fd5-6d18-4a1d-ab0c-fdfce70a2192" d="M1420.61,1043.67v-4h1.65c3.2,0,6.05-1.85,6.05-7.2s-3.45-5.85-5.15-5.85c-3.85,0-5.2,3.4-6.6,7.05-1.8,4.6-3.7,9.5-10.6,9.5-2.65,0-9.4-1.5-9.4-10.25,0-8.45,7-9.85,9.6-9.85h1.6v4h-1.6c-3.25,0-5.85,1.85-5.85,5.8,0,3.75,2.25,6.2,5.65,6.2,4,0,5.4-3.5,6.8-7.2,1.75-4.55,3.6-9.35,10.4-9.35,4.2,0,8.9,2.25,8.9,9.9,0,11-8.4,11.2-9.8,11.2h-1.65Z" transform="translate(-7.5)"/>
    <path class="ec578fd5-6d18-4a1d-ab0c-fdfce70a2192" d="M1396.81,1019.07v-18.5h3.75v7.25h31.25v4h-31.25v7.2h-3.75Z" transform="translate(-7.5)"/>
    <path class="ec578fd5-6d18-4a1d-ab0c-fdfce70a2192" d="M1396.81,994.52v-16h3.75v11.9h12.7v-9.9H1417v9.9h11.05V978.22h3.75v16.3h-35Z" transform="translate(-7.5)"/>
    <path class="ec578fd5-6d18-4a1d-ab0c-fdfce70a2192" d="M1396.81,972V956h3.75v11.9h12.7V958H1417v9.9h11.05V955.67h3.75V972h-35Z" transform="translate(-7.5)"/>
    <path class="ec578fd5-6d18-4a1d-ab0c-fdfce70a2192" d="M1396.81,949.92v-4h31.05V934.37h4v15.55h-35Z" transform="translate(-7.5)"/>
  </g>
  <g id="eb677f1c-c880-4a37-a831-44dcdcbbefa5" data-name="field">
    <path class="ec578fd5-6d18-4a1d-ab0c-fdfce70a2192" d="M1786.58,1236.87v-4.45l35-10v4.1l-6.75,1.85V1241l6.75,1.8v4.1Zm24.5,3.1v-10.6c-6.6,1.85-11.55,3.35-18.35,5.3Z" transform="translate(-7.5)"/>
    <path class="ec578fd5-6d18-4a1d-ab0c-fdfce70a2192" d="M1786.58,1217.17v-4h31.05v-11.55h4v15.55h-35Z" transform="translate(-7.5)"/>
    <path class="ec578fd5-6d18-4a1d-ab0c-fdfce70a2192" d="M1786.58,1192.07h25.1c4.3,0,6.4-1.7,6.4-6.15s-2.1-6.3-6.4-6.3h-25.1v-4.05h25.1c7.2,0,10.15,4.05,10.15,10.35s-3,10.2-10.15,10.2h-25.1v-4Z" transform="translate(-7.5)"/>
    <path class="ec578fd5-6d18-4a1d-ab0c-fdfce70a2192" d="M1786.58,1168.47v-4.4l28.15-9.55c-9.25-3.15-18.9-6.5-28.15-9.6v-4.4h35v4h-24.2c7.85,2.65,16.45,5.55,24.2,8.2v3.65l-24,8.05h24v4h-35Z" transform="translate(-7.5)"/>
    <path class="ec578fd5-6d18-4a1d-ab0c-fdfce70a2192" d="M1786.58,1133.07V1129h35v4.05h-35Z" transform="translate(-7.5)"/>
    <path class="ec578fd5-6d18-4a1d-ab0c-fdfce70a2192" d="M1786.58,1121.52v-4l25.85-13.15h-25.85v-4h35v3.9l-25.75,13.15h25.75v4.05h-35Z" transform="translate(-7.5)"/>
    <path class="ec578fd5-6d18-4a1d-ab0c-fdfce70a2192" d="M1786.58,1092.92v-4.05h35v4.05h-35Z" transform="translate(-7.5)"/>
    <path class="ec578fd5-6d18-4a1d-ab0c-fdfce70a2192" d="M1786.58,1077.32h25.1c4.3,0,6.4-1.7,6.4-6.15s-2.1-6.3-6.4-6.3h-25.1v-4.05h25.1c7.2,0,10.15,4.05,10.15,10.35s-3,10.2-10.15,10.2h-25.1v-4Z" transform="translate(-7.5)"/>
    <path class="ec578fd5-6d18-4a1d-ab0c-fdfce70a2192" d="M1786.58,1053.72v-4.4l28.15-9.55c-9.25-3.15-18.9-6.5-28.15-9.6v-4.4h35v4h-24.2c7.85,2.65,16.45,5.55,24.2,8.2v3.65l-24,8.05h24v4.05h-35Z" transform="translate(-7.5)"/>
  </g>
  <g id="ed3f8295-4b35-4aa8-9afe-8f7499e9204a" data-name="field">
    <path class="ec578fd5-6d18-4a1d-ab0c-fdfce70a2192" d="M2106.1,1234c0-10,8-11.3,17.75-11.3s17.75,1.35,17.75,11.3-8,11.15-17.75,11.15S2106.1,1243.92,2106.1,1234Zm31.75,0c0-6.5-5.5-7.25-14-7.25s-14,.75-14,7.25,5.5,7.1,14,7.1S2137.85,1240.47,2137.85,1234Z" transform="translate(-7.5)"/>
    <path class="ec578fd5-6d18-4a1d-ab0c-fdfce70a2192" d="M2106.35,1218v-18.5h3.75v7.25h31.25v4H2110.1v7.2h-3.75Z" transform="translate(-7.5)"/>
    <path class="ec578fd5-6d18-4a1d-ab0c-fdfce70a2192" d="M2106.35,1193.42v-4.05h17.55v-10.85h-17.55v-4h35v4h-13.7v10.85h13.7v4.05h-35Z" transform="translate(-7.5)"/>
    <path class="ec578fd5-6d18-4a1d-ab0c-fdfce70a2192" d="M2106.35,1167.42v-16h3.75v11.9h12.7v-9.9h3.75v9.9h11.05v-12.25h3.75v16.3h-35Z" transform="translate(-7.5)"/>
    <path class="ec578fd5-6d18-4a1d-ab0c-fdfce70a2192" d="M2106.35,1144.87v-7.8c0-9.8,6.55-11.3,11.75-11.3,4,0,9,.95,10.9,6.2l12.35-6.65v4.45L2129.8,1136v4.8h11.55v4.05h-35Zm19.65-4.05v-3.75c-0.2-6.35-3.45-7.25-7.9-7.25s-8,.9-8,7.25v3.75H2126Z" transform="translate(-7.5)"/>
    <path class="ec578fd5-6d18-4a1d-ab0c-fdfce70a2192" d="M2130.15,1119.72v-4h1.65c3.2,0,6.05-1.85,6.05-7.2,0-5.2-3.45-5.85-5.15-5.85-3.85,0-5.2,3.4-6.6,7.05-1.8,4.6-3.7,9.5-10.6,9.5-2.65,0-9.4-1.5-9.4-10.25,0-8.45,7-9.85,9.6-9.85h1.6v4.05h-1.6c-3.25,0-5.85,1.85-5.85,5.8,0,3.75,2.25,6.2,5.65,6.2,4,0,5.4-3.5,6.8-7.2,1.75-4.55,3.6-9.35,10.4-9.35,4.2,0,8.9,2.25,8.9,9.9,0,11-8.4,11.2-9.8,11.2h-1.65Z" transform="translate(-7.5)"/>
  </g>
  <circle id="5e1693d2-70c0-4c3f-9764-9d34ced6af01" data-name="dataCir" class="ec578fd5-6d18-4a1d-ab0c-fdfce70a2192" cx="20.13" cy="300" r="20"/>
  <circle id="b0f76d43-4c9e-4ae5-aa4a-1b0a130dedd1" data-name="dataCir" class="ec578fd5-6d18-4a1d-ab0c-fdfce70a2192" cx="279.9" cy="300" r="170"/>
  <circle id="305f4ad3-8a97-4278-9ec8-d6fdcfae7bb6" data-name="dataCir" class="ec578fd5-6d18-4a1d-ab0c-fdfce70a2192" cx="779.67" cy="300" r="260"/>
  <circle id="20585d9b-86e2-4ac4-915b-c23b590de6ee" data-name="dataCir" class="ec578fd5-6d18-4a1d-ab0c-fdfce70a2192" cx="1409.44" cy="300" r="300"/>
  <circle id="350d053b-9bf4-4969-8aad-dcef704ff1c6" data-name="dataCir" class="ec578fd5-6d18-4a1d-ab0c-fdfce70a2192" cx="1799.21" cy="300" r="20"/>
  <circle id="c9479402-e173-4879-87c5-8bef3d20b963" data-name="dataCir" class="ec578fd5-6d18-4a1d-ab0c-fdfce70a2192" cx="2118.98" cy="300" r="230"/>
  <line id="77c9b2cf-9eea-48b0-bea8-7d8fdb8e9d9e" data-name="line" class="77a000b1-5668-405c-84f8-72cc27fb1b19" x1="20.13" y1="895.98" x2="20.13" y2="341.27"/>
  <line id="77f89647-d7d1-4e43-9d82-0c73a5a6681a" data-name="line" class="77a000b1-5668-405c-84f8-72cc27fb1b19" x1="279.9" y1="755.2" x2="279.9" y2="505.5"/>
  <line id="cfd52828-a78f-4830-a4f3-486c0dc2e7ff" data-name="line" class="77a000b1-5668-405c-84f8-72cc27fb1b19" x1="779.67" y1="1032.9" x2="779.67" y2="601.91"/>
  <line id="8f6daab4-4964-486f-9e71-83776009d0b6" data-name="line" class="77a000b1-5668-405c-84f8-72cc27fb1b19" x1="1409.44" y1="912.18" x2="1409.44" y2="626.23"/>
  <line id="f3fb9495-d95e-4332-83cb-35e9eeda4477" data-name="line" class="77a000b1-5668-405c-84f8-72cc27fb1b19" x1="1799.21" y1="970.58" x2="1799.21" y2="350.36"/>
  <line id="ff6c9e9d-fe69-4b2a-8a40-d1f24d6b42d2" data-name="line" class="77a000b1-5668-405c-84f8-72cc27fb1b19" x1="2118.98" y1="1053.14" x2="2118.98" y2="560"/>
</svg>
