<svg id="304fbd74-0fe7-42ed-99a2-20ed269ef3ab" data-name="fieldg" xmlns="http://www.w3.org/2000/svg" viewBox="0 0 2348.98 1246.87">
  <defs>
    <style>
      .\37 f8dec22-07fe-4949-9b9c-ce0c58c457da, .dataCir {
        fill: #fff;
      }

      .\30 c7b926e-b6e7-4118-aede-664cd40f4a26 {
        fill: none;
        stroke: #fff;
        stroke-miterlimit: 10;
      }
    </style>
  </defs>
  <title>indusData</title>
  <g id="64db8f35-e03e-4f36-a0ed-a8a6991f3c87" data-name="field" class="dataField">
    <path class="7f8dec22-07fe-4949-9b9c-ce0c58c457da" d="M7.5,1245.12v-7.8c0-9.8,6.55-11.3,11.75-11.3s11.7,1.5,11.7,11.3v3.75H42.5v4H7.5Zm19.65-4v-3.75c-0.2-6.35-3.45-7.25-7.9-7.25s-8,.9-8,7.25v3.75h15.9Z" transform="translate(-7.5)"/>
    <path class="7f8dec22-07fe-4949-9b9c-ce0c58c457da" d="M7.5,1215.42H32.6c4.3,0,6.4-1.7,6.4-6.15s-2.1-6.3-6.4-6.3H7.5v-4H32.6c7.2,0,10.15,4,10.15,10.35s-3,10.2-10.15,10.2H7.5v-4.05Z" transform="translate(-7.5)"/>
    <path class="7f8dec22-07fe-4949-9b9c-ce0c58c457da" d="M7.5,1192.32v-4H38.55v-11.55h4v15.55H7.5Z" transform="translate(-7.5)"/>
    <path class="7f8dec22-07fe-4949-9b9c-ce0c58c457da" d="M7.5,1171.27v-7.8c0-9.8,6.55-11.3,11.75-11.3s11.7,1.5,11.7,11.3v3.75H42.5v4.05H7.5Zm19.65-4.05v-3.75c-0.2-6.35-3.45-7.25-7.9-7.25s-8,.9-8,7.25v3.75h15.9Z" transform="translate(-7.5)"/>
    <path class="7f8dec22-07fe-4949-9b9c-ce0c58c457da" d="M7.5,1126v-4.45l35-10v4.1l-6.75,1.85v12.6l6.75,1.8v4.1Zm24.5,3.1v-10.6c-6.6,1.85-11.55,3.35-18.35,5.3Z" transform="translate(-7.5)"/>
    <path class="7f8dec22-07fe-4949-9b9c-ce0c58c457da" d="M7.5,1105.77v-4l25.85-13.15H7.5v-4h35v3.9l-25.75,13.15H42.5v4H7.5Z" transform="translate(-7.5)"/>
    <path class="7f8dec22-07fe-4949-9b9c-ce0c58c457da" d="M7.5,1077.17v-9.75c0-9.8,7.8-11.3,17.5-11.3s17.5,1.5,17.5,11.3v9.75H7.5Zm31.3-4c0-1.9,0-3.8,0-5.7-0.2-6.35-5.3-7.25-13.75-7.25s-13.75.9-13.75,7.25v5.7H38.8Z" transform="translate(-7.5)"/>
    <path class="7f8dec22-07fe-4949-9b9c-ce0c58c457da" d="M7.5,1037.62v-7.8c0-9.8,6.55-11.3,11.75-11.3s11.7,1.5,11.7,11.3v3.75H42.5v4H7.5Zm19.65-4v-3.75c-0.2-6.35-3.45-7.25-7.9-7.25s-8,.9-8,7.25v3.75h15.9Z" transform="translate(-7.5)"/>
    <path class="7f8dec22-07fe-4949-9b9c-ce0c58c457da" d="M7.5,1006.22v-4.45l35-10v4.1l-6.75,1.85v12.6l6.75,1.8v4.1Zm24.5,3.1v-10.6c-6.6,1.85-11.55,3.35-18.35,5.3Z" transform="translate(-7.5)"/>
    <path class="7f8dec22-07fe-4949-9b9c-ce0c58c457da" d="M7.5,986v-7.8c0-9.8,6.55-11.3,11.75-11.3s11.7,1.5,11.7,11.3V982H42.5v4H7.5Zm19.65-4v-3.75c-0.2-6.35-3.45-7.25-7.9-7.25s-8,.9-8,7.25V982h15.9Z" transform="translate(-7.5)"/>
    <path class="7f8dec22-07fe-4949-9b9c-ce0c58c457da" d="M7.5,960.87v-16h3.75v11.9h12.7v-9.9H27.7v9.9H38.75V944.57H42.5v16.3H7.5Z" transform="translate(-7.5)"/>
    <path class="7f8dec22-07fe-4949-9b9c-ce0c58c457da" d="M7.5,938.32v-7.8c0-9.8,6.55-11.3,11.75-11.3,4,0,9,.95,10.9,6.2l12.35-6.65v4.45l-11.55,6.25v4.8H42.5v4.05H7.5Zm19.65-4.05v-3.75c-0.2-6.35-3.45-7.25-7.9-7.25s-8,.9-8,7.25v3.75h15.9Z" transform="translate(-7.5)"/>
  </g>
  <g id="f1bb270e-f9e5-4a80-adc9-4b1b7ad7a436" data-name="field" class="dataField">
    <path class="7f8dec22-07fe-4949-9b9c-ce0c58c457da" d="M263.42,1224.12c6.8,0,9.1,4.75,9.1,9.85,0,9.85-8.05,11.15-17.75,11.15S237,1243.82,237,1234c0-5.1,2.4-9.85,9.1-9.85h1.65v4h-1.65c-3.8,0-5.35,2.25-5.35,5.9,0,6.35,5.55,7.15,14,7.15s14-.8,14-7.15c0-3.6-1.75-5.85-5.35-5.85h-1.65v-4h1.65Z" transform="translate(-7.5)"/>
    <path class="7f8dec22-07fe-4949-9b9c-ce0c58c457da" d="M237.27,1217.12v-4.05h17.55v-10.85H237.27v-4h35v4h-13.7v10.85h13.7v4.05h-35Z" transform="translate(-7.5)"/>
    <path class="7f8dec22-07fe-4949-9b9c-ce0c58c457da" d="M237.27,1191.12v-16H241v11.9h12.7v-9.9h3.75v9.9h11.05v-12.25h3.75v16.3h-35Z" transform="translate(-7.5)"/>
    <path class="7f8dec22-07fe-4949-9b9c-ce0c58c457da" d="M237.27,1168.57v-4.4l28.15-9.55c-9.25-3.15-18.9-6.5-28.15-9.6v-4.4h35v4h-24.2c7.85,2.65,16.45,5.55,24.2,8.2v3.65l-24,8.05h24v4.05h-35Z" transform="translate(-7.5)"/>
    <path class="7f8dec22-07fe-4949-9b9c-ce0c58c457da" d="M237.27,1133.17v-4h35v4h-35Z" transform="translate(-7.5)"/>
    <path class="7f8dec22-07fe-4949-9b9c-ce0c58c457da" d="M263.42,1100.62c6.8,0,9.1,4.75,9.1,9.85,0,9.85-8.05,11.15-17.75,11.15s-17.75-1.3-17.75-11.15c0-5.1,2.4-9.85,9.1-9.85h1.65v4h-1.65c-3.8,0-5.35,2.25-5.35,5.9,0,6.35,5.55,7.15,14,7.15s14-.8,14-7.15c0-3.6-1.75-5.85-5.35-5.85h-1.65v-4h1.65Z" transform="translate(-7.5)"/>
    <path class="7f8dec22-07fe-4949-9b9c-ce0c58c457da" d="M237.27,1086.37v-4.45l35-10v4.1l-6.75,1.85v12.6l6.75,1.8v4.1Zm24.5,3.1v-10.6c-6.6,1.85-11.55,3.35-18.35,5.3Z" transform="translate(-7.5)"/>
    <path class="7f8dec22-07fe-4949-9b9c-ce0c58c457da" d="M237.27,1066.67v-4h31.05v-11.55h4v15.55h-35Z" transform="translate(-7.5)"/>
    <path class="7f8dec22-07fe-4949-9b9c-ce0c58c457da" d="M261.07,1046.62v-4h1.65c3.2,0,6.05-1.85,6.05-7.2,0-5.2-3.45-5.85-5.15-5.85-3.85,0-5.2,3.4-6.6,7.05-1.8,4.6-3.7,9.5-10.6,9.5-2.65,0-9.4-1.5-9.4-10.25,0-8.45,7-9.85,9.6-9.85h1.6v4h-1.6c-3.25,0-5.85,1.85-5.85,5.8,0,3.75,2.25,6.2,5.65,6.2,4,0,5.4-3.5,6.8-7.2,1.75-4.55,3.6-9.35,10.4-9.35,4.2,0,8.9,2.25,8.9,9.9,0,11-8.4,11.2-9.8,11.2h-1.65Z" transform="translate(-7.5)"/>
    <path class="7f8dec22-07fe-4949-9b9c-ce0c58c457da" d="M297.27,1236.87v-4.45l35-10v4.1l-6.75,1.85V1241l6.75,1.8v4.1Zm24.5,3.1v-10.6c-6.6,1.85-11.55,3.35-18.35,5.3Z" transform="translate(-7.5)"/>
    <path class="7f8dec22-07fe-4949-9b9c-ce0c58c457da" d="M297.27,1216.67v-4l25.85-13.15H297.27v-4h35v3.9l-25.75,13.15h25.75v4.05h-35Z" transform="translate(-7.5)"/>
    <path class="7f8dec22-07fe-4949-9b9c-ce0c58c457da" d="M297.27,1188.07v-9.75c0-9.8,7.8-11.3,17.5-11.3s17.5,1.5,17.5,11.3v9.75h-35Zm31.3-4.05c0-1.9,0-3.8,0-5.7-0.2-6.35-5.3-7.25-13.75-7.25s-13.75.9-13.75,7.25v5.7h27.55Z" transform="translate(-7.5)"/>
    <path class="7f8dec22-07fe-4949-9b9c-ce0c58c457da" d="M297.27,1148.52v-7.8c0-9.8,6.55-11.3,11.75-11.3s11.7,1.5,11.7,11.3v3.75h11.55v4h-35Zm19.65-4v-3.75c-0.2-6.35-3.45-7.25-7.9-7.25s-8,.9-8,7.25v3.75h15.9Z" transform="translate(-7.5)"/>
    <path class="7f8dec22-07fe-4949-9b9c-ce0c58c457da" d="M297.27,1123.37v-16H301v11.9h12.7v-9.9h3.75v9.9h11.05v-12.25h3.75v16.3h-35Z" transform="translate(-7.5)"/>
    <path class="7f8dec22-07fe-4949-9b9c-ce0c58c457da" d="M297.27,1102.82v-18.5H301v7.25h31.25v4H301v7.2h-3.75Z" transform="translate(-7.5)"/>
    <path class="7f8dec22-07fe-4949-9b9c-ce0c58c457da" d="M297.27,1078.27v-7.8c0-9.8,6.55-11.3,11.75-11.3,4,0,9,1,10.9,6.2l12.35-6.65v4.45l-11.55,6.25v4.8h11.55v4h-35Zm19.65-4v-3.75c-0.2-6.35-3.45-7.25-7.9-7.25s-8,.9-8,7.25v3.75h15.9Z" transform="translate(-7.5)"/>
    <path class="7f8dec22-07fe-4949-9b9c-ce0c58c457da" d="M297,1042.47c0-10,8-11.3,17.75-11.3s17.75,1.35,17.75,11.3-8,11.15-17.75,11.15S297,1052.42,297,1042.47Zm31.75,0c0-6.5-5.5-7.25-14-7.25s-14,.75-14,7.25,5.5,7.1,14,7.1S328.77,1049,328.77,1042.47Z" transform="translate(-7.5)"/>
    <path class="7f8dec22-07fe-4949-9b9c-ce0c58c457da" d="M297.27,1024.47v-4h31.05v-11.55h4v15.55h-35Z" transform="translate(-7.5)"/>
    <path class="7f8dec22-07fe-4949-9b9c-ce0c58c457da" d="M323.42,983.92c6.8,0,9.1,4.75,9.1,9.85,0,9.85-8.05,11.15-17.75,11.15S297,1003.62,297,993.77c0-5.1,2.4-9.85,9.1-9.85h1.65v4h-1.65c-3.8,0-5.35,2.25-5.35,5.9,0,6.35,5.55,7.15,14,7.15s14-.8,14-7.15c0-3.6-1.75-5.85-5.35-5.85h-1.65v-4h1.65Z" transform="translate(-7.5)"/>
    <path class="7f8dec22-07fe-4949-9b9c-ce0c58c457da" d="M297.27,976.92v-4.05h17.55V962H297.27v-4h35v4h-13.7v10.85h13.7v4.05h-35Z" transform="translate(-7.5)"/>
    <path class="7f8dec22-07fe-4949-9b9c-ce0c58c457da" d="M297.27,950.92V935H301v11.9h12.7V937h3.75v9.9h11.05V934.62h3.75v16.3h-35Z" transform="translate(-7.5)"/>
    <path class="7f8dec22-07fe-4949-9b9c-ce0c58c457da" d="M297.27,928.37V924l28.15-9.55c-9.25-3.15-18.9-6.5-28.15-9.6v-4.4h35v4h-24.2c7.85,2.65,16.45,5.55,24.2,8.2v3.65l-24,8.05h24v4.05h-35Z" transform="translate(-7.5)"/>
    <path class="7f8dec22-07fe-4949-9b9c-ce0c58c457da" d="M297.27,893v-4.05h35V893h-35Z" transform="translate(-7.5)"/>
    <path class="7f8dec22-07fe-4949-9b9c-ce0c58c457da" d="M323.42,860.42c6.8,0,9.1,4.75,9.1,9.85,0,9.85-8.05,11.15-17.75,11.15S297,880.12,297,870.27c0-5.1,2.4-9.85,9.1-9.85h1.65v4h-1.65c-3.8,0-5.35,2.25-5.35,5.9,0,6.35,5.55,7.15,14,7.15s14-.8,14-7.15c0-3.6-1.75-5.85-5.35-5.85h-1.65v-4h1.65Z" transform="translate(-7.5)"/>
    <path class="7f8dec22-07fe-4949-9b9c-ce0c58c457da" d="M297.27,846.17v-4.45l35-10v4.1l-6.75,1.85v12.6l6.75,1.8v4.1Zm24.5,3.1v-10.6c-6.6,1.85-11.55,3.35-18.35,5.3Z" transform="translate(-7.5)"/>
    <path class="7f8dec22-07fe-4949-9b9c-ce0c58c457da" d="M297.27,826.47v-4h31.05V810.92h4v15.55h-35Z" transform="translate(-7.5)"/>
    <path class="7f8dec22-07fe-4949-9b9c-ce0c58c457da" d="M321.07,806.42v-4h1.65c3.2,0,6.05-1.85,6.05-7.2,0-5.2-3.45-5.85-5.15-5.85-3.85,0-5.2,3.4-6.6,7.05-1.8,4.6-3.7,9.5-10.6,9.5-2.65,0-9.4-1.5-9.4-10.25,0-8.45,7-9.85,9.6-9.85h1.6v4.05h-1.6c-3.25,0-5.85,1.85-5.85,5.8,0,3.75,2.25,6.2,5.65,6.2,4,0,5.4-3.5,6.8-7.2,1.75-4.55,3.6-9.35,10.4-9.35,4.2,0,8.9,2.25,8.9,9.9,0,11-8.4,11.2-9.8,11.2h-1.65Z" transform="translate(-7.5)"/>
  </g>
  <g id="ccd5db68-5ece-4b5b-bf70-189635df28ea" data-name="field" class="dataField">
    <path class="7f8dec22-07fe-4949-9b9c-ce0c58c457da" d="M793.19,1224.12c6.8,0,9.1,4.75,9.1,9.85,0,9.85-8.05,11.15-17.75,11.15s-17.75-1.3-17.75-11.15c0-5.1,2.4-9.85,9.1-9.85h1.65v4h-1.65c-3.8,0-5.35,2.25-5.35,5.9,0,6.35,5.55,7.15,14,7.15s14-.8,14-7.15c0-3.6-1.75-5.85-5.35-5.85h-1.65v-4h1.65Z" transform="translate(-7.5)"/>
    <path class="7f8dec22-07fe-4949-9b9c-ce0c58c457da" d="M767,1218.37v-16h3.75v11.9h12.7v-9.9h3.75v9.9h11.05v-12.25H802v16.3H767Z" transform="translate(-7.5)"/>
    <path class="7f8dec22-07fe-4949-9b9c-ce0c58c457da" d="M767,1195.82v-4.4l28.15-9.55c-9.25-3.15-18.9-6.5-28.15-9.6v-4.4h35v4h-24.2c7.85,2.65,16.45,5.55,24.2,8.2v3.65l-24,8.05h24v4H767Z" transform="translate(-7.5)"/>
    <path class="7f8dec22-07fe-4949-9b9c-ce0c58c457da" d="M767,1160.42v-16h3.75v11.9h12.7v-9.9h3.75v9.9h11.05v-12.25H802v16.3H767Z" transform="translate(-7.5)"/>
    <path class="7f8dec22-07fe-4949-9b9c-ce0c58c457da" d="M767,1137.87v-4l25.85-13.15H767v-4h35v3.9l-25.75,13.15H802v4H767Z" transform="translate(-7.5)"/>
    <path class="7f8dec22-07fe-4949-9b9c-ce0c58c457da" d="M767,1111.27v-18.5h3.75V1100H802v4.05H770.79v7.2H767Z" transform="translate(-7.5)"/>
    <path class="7f8dec22-07fe-4949-9b9c-ce0c58c457da" d="M790.84,1089.22v-4h1.65c3.2,0,6.05-1.85,6.05-7.2,0-5.2-3.45-5.85-5.15-5.85-3.85,0-5.2,3.4-6.6,7.05-1.8,4.6-3.7,9.5-10.6,9.5-2.65,0-9.4-1.5-9.4-10.25,0-8.45,7-9.85,9.6-9.85H778v4.05h-1.6c-3.25,0-5.85,1.85-5.85,5.8,0,3.75,2.25,6.2,5.65,6.2,4,0,5.4-3.5,6.8-7.2,1.75-4.55,3.6-9.35,10.4-9.35,4.2,0,8.9,2.25,8.9,9.9,0,11-8.4,11.2-9.8,11.2h-1.65Z" transform="translate(-7.5)"/>
  </g>
  <g id="852c9882-aacb-4ff6-903c-4bc8acf9a79a" data-name="field" class="dataField">
    <path class="7f8dec22-07fe-4949-9b9c-ce0c58c457da" d="M1396.81,1245.12v-4.05h35v4.05h-35Z" transform="translate(-7.5)"/>
    <path class="7f8dec22-07fe-4949-9b9c-ce0c58c457da" d="M1396.81,1233.57v-7.8c0-9.8,6.55-11.3,11.75-11.3,4,0,9,.95,10.9,6.2l12.35-6.65v4.45l-11.55,6.25v4.8h11.55v4.05h-35Zm19.65-4.05v-3.75c-0.2-6.35-3.45-7.25-7.9-7.25s-8,.9-8,7.25v3.75h15.9Z" transform="translate(-7.5)"/>
    <path class="7f8dec22-07fe-4949-9b9c-ce0c58c457da" d="M1396.56,1197.77c0-10,8-11.3,17.75-11.3s17.75,1.35,17.75,11.3-8,11.15-17.75,11.15S1396.56,1207.72,1396.56,1197.77Zm31.75,0c0-6.5-5.5-7.25-14-7.25s-14,.75-14,7.25,5.5,7.1,14,7.1S1428.31,1204.27,1428.31,1197.77Z" transform="translate(-7.5)"/>
    <path class="7f8dec22-07fe-4949-9b9c-ce0c58c457da" d="M1396.81,1179.27v-4l25.85-13.15h-25.85v-4h35v3.9l-25.75,13.15h25.75v4h-35Z" transform="translate(-7.5)"/>
    <path class="7f8dec22-07fe-4949-9b9c-ce0c58c457da" d="M1396.81,1131v-4.45l35-10v4.1l-6.75,1.85v12.6l6.75,1.8v4.1Zm24.5,3.1v-10.6c-6.6,1.85-11.55,3.35-18.35,5.3Z" transform="translate(-7.5)"/>
    <path class="7f8dec22-07fe-4949-9b9c-ce0c58c457da" d="M1396.81,1110.82v-4l25.85-13.15h-25.85v-4h35v3.9l-25.75,13.15h25.75v4.05h-35Z" transform="translate(-7.5)"/>
    <path class="7f8dec22-07fe-4949-9b9c-ce0c58c457da" d="M1396.81,1082.22v-9.75c0-9.8,7.8-11.3,17.5-11.3s17.5,1.5,17.5,11.3v9.75h-35Zm31.3-4.05c0-1.9,0-3.8,0-5.7-0.2-6.35-5.3-7.25-13.75-7.25s-13.75.9-13.75,7.25v5.7h27.55Z" transform="translate(-7.5)"/>
    <path class="7f8dec22-07fe-4949-9b9c-ce0c58c457da" d="M1420.61,1043.67v-4h1.65c3.2,0,6.05-1.85,6.05-7.2s-3.45-5.85-5.15-5.85c-3.85,0-5.2,3.4-6.6,7.05-1.8,4.6-3.7,9.5-10.6,9.5-2.65,0-9.4-1.5-9.4-10.25,0-8.45,7-9.85,9.6-9.85h1.6v4h-1.6c-3.25,0-5.85,1.85-5.85,5.8,0,3.75,2.25,6.2,5.65,6.2,4,0,5.4-3.5,6.8-7.2,1.75-4.55,3.6-9.35,10.4-9.35,4.2,0,8.9,2.25,8.9,9.9,0,11-8.4,11.2-9.8,11.2h-1.65Z" transform="translate(-7.5)"/>
    <path class="7f8dec22-07fe-4949-9b9c-ce0c58c457da" d="M1396.81,1019.07v-18.5h3.75v7.25h31.25v4h-31.25v7.2h-3.75Z" transform="translate(-7.5)"/>
    <path class="7f8dec22-07fe-4949-9b9c-ce0c58c457da" d="M1396.81,994.52v-16h3.75v11.9h12.7v-9.9H1417v9.9h11.05V978.22h3.75v16.3h-35Z" transform="translate(-7.5)"/>
    <path class="7f8dec22-07fe-4949-9b9c-ce0c58c457da" d="M1396.81,972V956h3.75v11.9h12.7V958H1417v9.9h11.05V955.67h3.75V972h-35Z" transform="translate(-7.5)"/>
    <path class="7f8dec22-07fe-4949-9b9c-ce0c58c457da" d="M1396.81,949.92v-4h31.05V934.37h4v15.55h-35Z" transform="translate(-7.5)"/>
  </g>
  <g id="88c67d6c-5cc3-4f59-a8a6-5d966411090f" data-name="field" class="dataField">
    <path class="7f8dec22-07fe-4949-9b9c-ce0c58c457da" d="M1786.58,1236.87v-4.45l35-10v4.1l-6.75,1.85V1241l6.75,1.8v4.1Zm24.5,3.1v-10.6c-6.6,1.85-11.55,3.35-18.35,5.3Z" transform="translate(-7.5)"/>
    <path class="7f8dec22-07fe-4949-9b9c-ce0c58c457da" d="M1786.58,1217.17v-4h31.05v-11.55h4v15.55h-35Z" transform="translate(-7.5)"/>
    <path class="7f8dec22-07fe-4949-9b9c-ce0c58c457da" d="M1786.58,1192.07h25.1c4.3,0,6.4-1.7,6.4-6.15s-2.1-6.3-6.4-6.3h-25.1v-4.05h25.1c7.2,0,10.15,4.05,10.15,10.35s-3,10.2-10.15,10.2h-25.1v-4Z" transform="translate(-7.5)"/>
    <path class="7f8dec22-07fe-4949-9b9c-ce0c58c457da" d="M1786.58,1168.47v-4.4l28.15-9.55c-9.25-3.15-18.9-6.5-28.15-9.6v-4.4h35v4h-24.2c7.85,2.65,16.45,5.55,24.2,8.2v3.65l-24,8.05h24v4h-35Z" transform="translate(-7.5)"/>
    <path class="7f8dec22-07fe-4949-9b9c-ce0c58c457da" d="M1786.58,1133.07V1129h35v4.05h-35Z" transform="translate(-7.5)"/>
    <path class="7f8dec22-07fe-4949-9b9c-ce0c58c457da" d="M1786.58,1121.52v-4l25.85-13.15h-25.85v-4h35v3.9l-25.75,13.15h25.75v4.05h-35Z" transform="translate(-7.5)"/>
    <path class="7f8dec22-07fe-4949-9b9c-ce0c58c457da" d="M1786.58,1092.92v-4.05h35v4.05h-35Z" transform="translate(-7.5)"/>
    <path class="7f8dec22-07fe-4949-9b9c-ce0c58c457da" d="M1786.58,1077.32h25.1c4.3,0,6.4-1.7,6.4-6.15s-2.1-6.3-6.4-6.3h-25.1v-4.05h25.1c7.2,0,10.15,4.05,10.15,10.35s-3,10.2-10.15,10.2h-25.1v-4Z" transform="translate(-7.5)"/>
    <path class="7f8dec22-07fe-4949-9b9c-ce0c58c457da" d="M1786.58,1053.72v-4.4l28.15-9.55c-9.25-3.15-18.9-6.5-28.15-9.6v-4.4h35v4h-24.2c7.85,2.65,16.45,5.55,24.2,8.2v3.65l-24,8.05h24v4.05h-35Z" transform="translate(-7.5)"/>
  </g>
  <g id="700d330d-fc8d-4950-bac6-a6607be4cf9c" data-name="field" class="dataField">
    <path class="7f8dec22-07fe-4949-9b9c-ce0c58c457da" d="M2106.1,1234c0-10,8-11.3,17.75-11.3s17.75,1.35,17.75,11.3-8,11.15-17.75,11.15S2106.1,1243.92,2106.1,1234Zm31.75,0c0-6.5-5.5-7.25-14-7.25s-14,.75-14,7.25,5.5,7.1,14,7.1S2137.85,1240.47,2137.85,1234Z" transform="translate(-7.5)"/>
    <path class="7f8dec22-07fe-4949-9b9c-ce0c58c457da" d="M2106.35,1218v-18.5h3.75v7.25h31.25v4H2110.1v7.2h-3.75Z" transform="translate(-7.5)"/>
    <path class="7f8dec22-07fe-4949-9b9c-ce0c58c457da" d="M2106.35,1193.42v-4.05h17.55v-10.85h-17.55v-4h35v4h-13.7v10.85h13.7v4.05h-35Z" transform="translate(-7.5)"/>
    <path class="7f8dec22-07fe-4949-9b9c-ce0c58c457da" d="M2106.35,1167.42v-16h3.75v11.9h12.7v-9.9h3.75v9.9h11.05v-12.25h3.75v16.3h-35Z" transform="translate(-7.5)"/>
    <path class="7f8dec22-07fe-4949-9b9c-ce0c58c457da" d="M2106.35,1144.87v-7.8c0-9.8,6.55-11.3,11.75-11.3,4,0,9,.95,10.9,6.2l12.35-6.65v4.45L2129.8,1136v4.8h11.55v4.05h-35Zm19.65-4.05v-3.75c-0.2-6.35-3.45-7.25-7.9-7.25s-8,.9-8,7.25v3.75H2126Z" transform="translate(-7.5)"/>
    <path class="7f8dec22-07fe-4949-9b9c-ce0c58c457da" d="M2130.15,1119.72v-4h1.65c3.2,0,6.05-1.85,6.05-7.2,0-5.2-3.45-5.85-5.15-5.85-3.85,0-5.2,3.4-6.6,7.05-1.8,4.6-3.7,9.5-10.6,9.5-2.65,0-9.4-1.5-9.4-10.25,0-8.45,7-9.85,9.6-9.85h1.6v4.05h-1.6c-3.25,0-5.85,1.85-5.85,5.8,0,3.75,2.25,6.2,5.65,6.2,4,0,5.4-3.5,6.8-7.2,1.75-4.55,3.6-9.35,10.4-9.35,4.2,0,8.9,2.25,8.9,9.9,0,11-8.4,11.2-9.8,11.2h-1.65Z" transform="translate(-7.5)"/>
  </g>
  <circle id="e8236b29-3e4e-42f9-9995-57de6186fcf0" class="dataCir" cx="20.13" cy="300" r="20"/>
  <circle id="4b75dc34-fc3a-4326-a5c0-e960e12ef4fd" class="dataCir" cx="279.9" cy="300" r="170"/>
  <circle id="381ca07a-a3a2-4e8c-b7ec-62bfd675d5fe" class="dataCir" cx="779.67" cy="300" r="260"/>
  <circle id="e8caf66b-1780-4555-9d79-6d928d369b47" class="dataCir" cx="1409.44" cy="300" r="300"/>
  <circle id="5841f017-de10-4362-be73-f6676e91df81" class="dataCir" cx="1799.21" cy="300" r="20"/>
  <circle id="245186c5-6a26-473b-9064-f105fabdd7fb" class="dataCir" cx="2118.98" cy="300" r="230"/>
  <line id="058ef23d-f2fb-44e2-b5bc-c4a45c24bf31" data-name="line" class="0c7b926e-b6e7-4118-aede-664cd40f4a26 dataLine" x1="20.13" y1="895.98" x2="20.13" y2="341.27"/>
  <line id="b9d3db57-2019-4283-a2ff-65f4fa2caa0d" data-name="line" class="0c7b926e-b6e7-4118-aede-664cd40f4a26 dataLine" x1="279.9" y1="755.2" x2="279.9" y2="505.5"/>
  <line id="ed0a30d0-f6a7-46cf-9ce8-c361d8ab9fbc" data-name="line" class="0c7b926e-b6e7-4118-aede-664cd40f4a26 dataLine" x1="779.67" y1="1032.9" x2="779.67" y2="601.91"/>
  <line id="3f99c84c-8a36-4331-b2f2-48c1223b21f0" data-name="line" class="0c7b926e-b6e7-4118-aede-664cd40f4a26 dataLine" x1="1409.44" y1="912.18" x2="1409.44" y2="626.23"/>
  <line id="c652254e-ed60-4c97-a19c-76161be943ee" data-name="line" class="0c7b926e-b6e7-4118-aede-664cd40f4a26 dataLine" x1="1799.21" y1="970.58" x2="1799.21" y2="350.36"/>
  <line id="e5e1685a-a75b-460d-81e9-ef11bdbc55b6" data-name="line" class="0c7b926e-b6e7-4118-aede-664cd40f4a26 dataLine" x1="2118.98" y1="1053.14" x2="2118.98" y2="560"/>
</svg>
