<svg id="Layer_2" data-name="Layer 2" xmlns="http://www.w3.org/2000/svg" viewBox="0 0 93.85 65.65">
  <defs>
    <style>
      .cls-1, .cls-3 {
        fill: #fff;
      }

      .cls-1, .cls-3, .cls-4 {
        stroke: #2f404f;
        stroke-miterlimit: 10;
      }

      .cls-1 {
        stroke-width: 2px;
      }

      .cls-2 {
        fill: #2f404f;
      }

      .cls-4 {
        fill: none;
      }
    </style>
  </defs>
  <title>bigcar</title>
  <path class="cls-1" d="M180.82,41.77H107.18A8.73,8.73,0,0,1,98.45,33V1.29h79.5l11.53,27.44A9.4,9.4,0,0,1,180.82,41.77Z" transform="translate(-97.38 11.63)"/>
  <path class="cls-1" d="M6.25,1H84.78a5.84,5.84,0,0,1,5.84,5.84v0a5.84,5.84,0,0,1-5.84,5.84H1.06a0,0,0,0,1,0,0V6.18A5.18,5.18,0,0,1,6.25,1Z"/>
  <rect class="cls-2" x="0.62" y="37.52" width="91" height="3"/>
  <path class="cls-2" d="M160.61,33.89h-4.34c-0.8,0-1.45-.2-1.45-1s0.65-1,1.45-1h4.34c0.8,0,1.45.2,1.45,1S161.41,33.89,160.61,33.89Z" transform="translate(-97.38 11.63)"/>
  <g>
    <circle class="cls-2" cx="21.97" cy="54.85" r="10.8"/>
    <circle class="cls-3" cx="21.97" cy="54.85" r="6.5"/>
    <g>
      <line class="cls-4" x1="19.27" y1="54.85" x2="24.67" y2="54.85"/>
      <line class="cls-4" x1="21.97" y1="52.25" x2="21.97" y2="57.55"/>
    </g>
  </g>
  <g>
    <circle class="cls-2" cx="74.07" cy="54.85" r="10.8"/>
    <circle class="cls-3" cx="74.07" cy="54.85" r="6.5"/>
    <g>
      <line class="cls-4" x1="71.37" y1="54.85" x2="76.77" y2="54.85"/>
      <line class="cls-4" x1="74.07" y1="52.25" x2="74.07" y2="57.55"/>
    </g>
  </g>
  <rect class="cls-1" x="40.07" y="18.71" width="13.06" height="34.7"/>
  <rect class="cls-1" x="1" y="18.66" width="31.52" height="12.88"/>
  <polygon class="cls-1" points="64.67 31.54 88.39 31.54 82.98 18.66 64.67 18.66 64.67 31.54"/>
</svg>
