<?xml version="1.0" encoding="utf-8"?>
<!-- Generator: Adobe Illustrator 19.2.1, SVG Export Plug-In . SVG Version: 6.00 Build 0)  -->
<svg version="1.1" id="Layer_2" xmlns="http://www.w3.org/2000/svg" xmlns:xlink="http://www.w3.org/1999/xlink" x="0px" y="0px"
	 viewBox="0 0 365.7 844.5" style="enable-background:new 0 0 365.7 844.5;" xml:space="preserve">
<style type="text/css">
	.bulb-st0{fill:#141414;}
	.bulb-st1{fill:#F2F7F2;}
</style>
<title>optimised</title>
<g>
	<path class="bulb-st0" d="M212.9,310c1.4,0.1,2.6-0.9,2.7-2.3c0.1-1.4-0.9-2.6-2.3-2.7c-0.1,0-0.3,0-0.4,0h-60.1
		c-1.4-0.1-2.6,0.9-2.7,2.3c-0.1,1.4,0.9,2.6,2.3,2.7c0.1,0,0.3,0,0.4,0H212.9z"/>
</g>
<g>
	<path class="bulb-st0" d="M223.1,320.5c2.1,0,3.9-1.1,3.9-2.5s-1.7-2.5-3.9-2.5h-80.5c-2.1,0-3.9,1.1-3.9,2.5s1.7,2.5,3.9,2.5H223.1z"/>
</g>
<g>
	<path class="bulb-st0" d="M213.5,331.5c1.6-0.2,2.8-1.8,2.5-3.4c-0.2-1.3-1.2-2.4-2.5-2.5h-61.3c-1.6,0.2-2.8,1.8-2.5,3.4
		c0.2,1.3,1.2,2.4,2.5,2.5H213.5z"/>
</g>
<path id="bulbBody" class="bulb-st1" d="M365.1,662.2C365.1,662.2,365.1,662.2,365.1,662.2c0.2-100.7-109-161-106.8-259.7
	c0-28.8-2.1-44.3-17.4-46.1c-2.1-10-10.9-17.6-21.6-17.6H145c-10.7,0-19.6,7.6-21.6,17.8c-12,2.3-15.1,14.1-15.8,35c0,0,0,0.1,0,0.1
	c0,0.8,0,1.5-0.1,2.3c0,0.1,0,0.2,0,0.4c0,0.7,0,1.4,0,2.1c0,0.2,0,0.4,0,0.6c0,0.7,0,1.4,0,2c0,0.2,0,0.4,0,0.7c0,0.8,0,1.6,0,2.4
	c0,0.1,0,0.2,0,0.4c0,0,0,0.1,0,0.1c2,97.3-106.5,157.7-107,258.9c0,0.2,0,0.4,0,0.6c0,100.7,81.6,182.3,182.3,182.3
	c68.9,0,134.4-41.5,164.4-103.4C359.1,716.6,365.1,689.4,365.1,662.2z"/>
<g>
	<rect x="179.9" class="bulb-st0" width="6" height="307"/>
</g>
</svg>
