<?xml version="1.0" encoding="utf-8"?>
<!-- Generator: Adobe Illustrator 19.2.1, SVG Export Plug-In . SVG Version: 6.00 Build 0)  -->
<svg version="1.1" id="Layer_1" xmlns="http://www.w3.org/2000/svg" xmlns:xlink="http://www.w3.org/1999/xlink" x="0px" y="0px"
	 viewBox="0 0 299 466" style="enable-background:new 0 0 299 466;" xml:space="preserve">
<style type="text/css">
	.st0{fill:#0E3945;}
	.st1{fill:#335761;}
	.st2{fill:none;stroke:#0E3945;stroke-width:0.25;stroke-miterlimit:10;}
	.st3{fill:#899EA4;}
	.st4{fill:none;stroke:#0E3945;stroke-width:0.5;stroke-miterlimit:10;}
	.st5{fill:#335761;stroke:#0E3945;stroke-width:0.5;stroke-miterlimit:10;}
	.st6{fill:none;stroke:#E7EBEC;stroke-width:0.25;stroke-miterlimit:10;}
	.st7{fill:#41636C;}
	.st8{fill:#335761;stroke:#0E3945;stroke-width:0.25;stroke-miterlimit:10;}
	.st9{clip-path:url(#SVGID_2_);fill:none;stroke:#0E3945;stroke-width:0.25;stroke-miterlimit:10;}
	.st10{clip-path:url(#SVGID_4_);fill:none;stroke:#0E3945;stroke-width:0.25;stroke-miterlimit:10;}
	.st11{clip-path:url(#SVGID_6_);fill:none;stroke:#0E3945;stroke-width:0.25;stroke-miterlimit:10;}
	.st12{clip-path:url(#SVGID_8_);fill:none;stroke:#0E3945;stroke-width:0.25;stroke-miterlimit:10;}
	.st13{clip-path:url(#SVGID_10_);fill:none;stroke:#0E3945;stroke-width:0.25;stroke-miterlimit:10;}
	.st14{fill:none;stroke:#335761;stroke-width:0.5;stroke-miterlimit:10;}
	.st15{fill:none;stroke:#41636C;stroke-width:0.5;stroke-miterlimit:10;}
	.st16{fill:none;stroke:#335761;stroke-miterlimit:10;}
	.st17{clip-path:url(#SVGID_12_);}
	.st18{fill:#2E535D;}
	.st19{fill:none;stroke:#335761;stroke-width:0.25;stroke-miterlimit:10;}
	.st20{fill:none;stroke:#2E535D;stroke-width:0.5;stroke-miterlimit:10;}
	.st21{fill:none;stroke:#2E535D;stroke-miterlimit:10;}
	.st22{fill:none;stroke:#2E535D;stroke-width:0.25;stroke-miterlimit:10;}
	.st23{fill:none;stroke:#899EA4;stroke-width:0.75;stroke-miterlimit:10;}
	.st24{opacity:0.47;clip-path:url(#SVGID_14_);fill:#0E3945;enable-background:new    ;}
	.st25{fill:#B9C6C9;stroke:#899EA4;stroke-miterlimit:10;}
	.st26{fill:#41636C;stroke:#899EA4;stroke-width:0.5;stroke-miterlimit:10;}
	.st27{fill:#E7EBEC;}
	.st28{fill:none;stroke:#899EA4;stroke-miterlimit:10;}
	.st29{fill:#0E3945;stroke:#0E3945;stroke-miterlimit:10;}
	.st30{fill:#899EA4;stroke:#0E3945;stroke-miterlimit:10;}
	.st31{fill:#899EA4;stroke:#0E3945;stroke-width:0.25;stroke-miterlimit:10;}
	.st32{fill:#95A8AD;}
	.st33{fill:#0E3945;stroke:#335761;stroke-width:0.25;stroke-miterlimit:10;}
	.st34{fill:#41636C;stroke:#335761;stroke-width:0.1;stroke-miterlimit:10;}
	.st35{fill:none;stroke:#E7EBEC;stroke-width:0.1;stroke-miterlimit:10;}
	.st36{fill:#0E3945;stroke:#41636C;stroke-width:0.25;stroke-miterlimit:10;}
	.st37{fill:none;stroke:#0E3945;stroke-width:1.5;stroke-miterlimit:10;}
</style>
<g>
	<path id="ground" class="st0" d="M46.6,405.3c25.6,28.7,62.9,46.8,104.4,46.8s78.8-18.1,104.4-46.8H46.6z"/>
	<path class="st1" d="M217.5,222.6l-12.7-0.8c-0.5,0-0.9-0.4-0.9-0.9v-1.2H200v-0.9h-4v0.9h-4v1.2c0,0.5-0.4,0.9-0.9,0.9h-12.7
		c-4,0-8,4.8-8,10.6v9.1h10.9v-6.3c0-2.2,1.8-4.1,4.1-4.1l25.2,0.8c2.2,0,4.1,1.8,4.1,4.1v5.5h10.9v-8.3
		C225.5,227.4,221.5,222.6,217.5,222.6z"/>
	<rect x="164.5" y="241.5" class="st1" width="70.1" height="58.9"/>
	<rect x="180.6" y="253.2" class="st2" width="34.1" height="14.2"/>
	<g>
		<g>
			<rect x="181.7" y="254.4" class="st0" width="10.1" height="5.6"/>
			<rect x="192.8" y="254.4" class="st0" width="10.1" height="5.6"/>
			<rect x="203.6" y="254.4" class="st0" width="10.1" height="5.6"/>
		</g>
		<rect x="181.7" y="260.6" class="st3" width="10.1" height="5.6"/>
		<rect x="192.8" y="260.6" class="st3" width="10.1" height="5.6"/>
		<rect x="203.6" y="260.6" class="st3" width="10.1" height="5.6"/>
	</g>
	<rect x="179.5" y="253.2" class="st2" width="36.4" height="14.2"/>
	<line class="st4" x1="168.4" y1="253.2" x2="234.3" y2="253.2"/>
	<line class="st2" x1="168" y1="251" x2="234.3" y2="251"/>
	<line class="st2" x1="171.1" y1="267.3" x2="225.6" y2="267.3"/>
	<line class="st2" x1="171.7" y1="269.6" x2="223.7" y2="269.6"/>
	<path class="st2" d="M213.7,269.6v16c0,1.3-1,2.3-2.3,2.3h-1.5c-1.6,0-2.9,1.3-2.9,2.9v9.7"/>
	<path class="st2" d="M212.6,269.6V284c0,1.3,0,3-1.7,2.9h-1.5c-1.6,0-3.5,1.5-3.5,3.8v9.7"/>
	<rect x="205" y="296.1" class="st0" width="1.9" height="0.8"/>
	<path class="st0" d="M211.3,228c0,1.4-0.3,2.7-0.8,4h0.1c0.1,0,0.2,0,0.3,0c0.5-1.3,0.8-2.6,0.8-4c0-1.9-0.5-3.7-1.5-5.4h-0.5
		C210.8,224.3,211.3,226.1,211.3,228z"/>
	<path class="st0" d="M184.5,227.2c0-1.9,0.5-3.7,1.6-5.4h-0.5c-1,1.7-1.5,3.5-1.5,5.4c0,1.4,0.3,2.7,0.8,4c0.1,0,0.2,0,0.3,0h0.1
		C184.8,229.9,184.5,228.6,184.5,227.2z"/>
	<path class="st0" d="M276.3,335.9v-26h-41.7v64.3H265l0,0h11.3c5.9-11.9,10.2-24.8,12.4-38.4L276.3,335.9L276.3,335.9z"/>
	<rect x="180.7" y="302.1" class="st1" width="66.7" height="63.8"/>
	<rect x="178.8" y="300.4" class="st5" width="68.5" height="3.7"/>
	<rect x="222.2" y="311.8" class="st0" width="7.6" height="9.2"/>
	<rect x="216.1" y="352.6" class="st0" width="27" height="4.8"/>
	<rect x="216.2" y="357.9" class="st0" width="27" height="4"/>
	<rect x="230.9" y="311.8" class="st0" width="7.6" height="9.2"/>
	<rect x="222.2" y="322.1" class="st0" width="7.6" height="9.2"/>
	<rect x="230.9" y="322.1" class="st0" width="7.6" height="9.2"/>
	<rect x="222.2" y="332.3" class="st0" width="7.6" height="9.2"/>
	<rect x="230.9" y="332.3" class="st0" width="7.6" height="9.2"/>
	<g>
		<rect x="220.7" y="310.5" class="st4" width="19.3" height="32.4"/>
		<line class="st4" x1="220.7" y1="314.1" x2="185.1" y2="314.1"/>
		<line class="st4" x1="220.7" y1="339.7" x2="196.6" y2="339.7"/>
		<line class="st4" x1="247.4" y1="310.5" x2="183.9" y2="310.5"/>
	</g>
	<path class="st0" d="M253.5,219.5h-0.8v3.9h-10.8v-3.9h-0.8v3.9h-10.6v-3.9h-0.8v4.4l4.6,5.1v27.2l-12.8,16.5v27.8H236v-27.8
		l12.8-16.5V229l4.6-5.1v-4.4H253.5z M234.9,228.4l-3.9-4.3h10.1v4.3H234.9z M241.9,224.1h10.4l-3.9,4.3h-6.5V224.1z"/>
	<g>
		<rect x="234.3" y="231.2" class="st6" width="14.6" height="0.2"/>
		<rect x="234.3" y="229.2" class="st6" width="14.6" height="0.2"/>
	</g>
	<g>
		<polygon class="st6" points="248.3,257 233.7,257 233.5,257.2 248.1,257.2 		"/>
		<rect x="234.3" y="255" class="st6" width="14.6" height="0.2"/>
	</g>
	<g>
		<polygon class="st6" points="222.3,271.7 236.8,271.7 237,271.5 222.4,271.5 		"/>
		<rect x="221.5" y="273.4" class="st6" width="14.6" height="0.2"/>
	</g>
	<polyline class="st6" points="247.5,231.2 247.5,255.2 233.7,273.6 233.7,300.4 	"/>
	<rect x="215" y="351.5" class="st4" width="29.3" height="11.8"/>
	<path class="st1" d="M125.1,267.9l-8.5,8.7l0.1-8.7l-8.5,8.7l0.1-8.7l-8.5,8v-8l-8.4,7.7v-7.7l-8.4,8.7v-8.7l-9.5,8.7l-4.2-33.2H60
		l-4.9,33.2v19.5L11.3,308c-0.1,1.5-0.1,2.9-0.1,4.4c0,12.3,1.6,24.2,4.6,35.6h109.4L125.1,267.9L125.1,267.9z"/>
	<circle class="st7" cx="88" cy="289" r="3.4"/>
	<circle class="st7" cx="105.1" cy="289" r="3.4"/>
	<circle class="st7" cx="70.9" cy="289" r="3.4"/>
	<path class="st4" d="M55.1,289h11.3c0-2.5,2-4.5,4.5-4.5s4.5,2,4.5,4.5h8.1c0-2.5,2-4.5,4.5-4.5s4.5,2,4.5,4.5h8.1
		c0-2.5,2-4.5,4.5-4.5s4.5,2,4.5,4.5h8.2"/>
	<path class="st8" d="M71.1,244.2H59.5c-0.4,0-0.8-0.3-0.8-0.8l0,0c0-0.4,0.3-0.8,0.8-0.8h11.6c0.4,0,0.8,0.3,0.8,0.8l0,0
		C71.9,243.8,71.5,244.2,71.1,244.2z"/>
	<line class="st4" x1="62.2" y1="244.2" x2="62.2" y2="289"/>
	<line class="st2" x1="55.1" y1="296.1" x2="115.8" y2="296.1"/>
	<line class="st4" x1="194" y1="348" x2="247.4" y2="348"/>
	<g>
		<g>
			<path id="XMLID_4_" class="st7" d="M70.2,304.8H29.5v-17.7c0-0.9,0.7-1.6,1.6-1.6h23v1.3h-0.4v0.5h0.4v0.3h1.1v-2.1v-4.7v-1.9H54
				v0.3h-0.4v0.5H54v1.1H29.4c-2.3,0-4.1,1.8-4.1,4.1v0.6v48h4.1v-25.1h38.3c0.8,0,1.4,0.6,1.4,1.4v11.3h4.5v-12.8v-0.1
				C73.6,306.4,72.1,304.8,70.2,304.8z"/>
		</g>
		<g>
			<defs>
				<path id="SVGID_1_" d="M70.2,304.8H29.5v-17.7c0-0.9,0.7-1.6,1.6-1.6h23v1.3h-0.4v0.5h0.4v0.3h1.1v-2.1v-4.7v-1.9H54v0.3h-0.4
					v0.5H54v1.1H29.4c-2.3,0-4.1,1.8-4.1,4.1v0.6v48h4.1v-25.1h38.3c0.8,0,1.4,0.6,1.4,1.4v11.3h4.5v-12.8v-0.1
					C73.6,306.4,72.1,304.8,70.2,304.8z"/>
			</defs>
			<clipPath id="SVGID_2_">
				<use xlink:href="#SVGID_1_"  style="overflow:visible;"/>
			</clipPath>
			<line class="st9" x1="44.2" y1="280.8" x2="44.2" y2="285.6"/>
		</g>
		<g>
			<defs>
				<path id="SVGID_3_" d="M70.2,304.8H29.5v-17.7c0-0.9,0.7-1.6,1.6-1.6h23v1.3h-0.4v0.5h0.4v0.3h1.1v-2.1v-4.7v-1.9H54v0.3h-0.4
					v0.5H54v1.1H29.4c-2.3,0-4.1,1.8-4.1,4.1v0.6v48h4.1v-25.1h38.3c0.8,0,1.4,0.6,1.4,1.4v11.3h4.5v-12.8v-0.1
					C73.6,306.4,72.1,304.8,70.2,304.8z"/>
			</defs>
			<clipPath id="SVGID_4_">
				<use xlink:href="#SVGID_3_"  style="overflow:visible;"/>
			</clipPath>
			<line class="st10" x1="26.7" y1="281.9" x2="30" y2="286"/>
		</g>
		<g>
			<defs>
				<path id="SVGID_5_" d="M70.2,304.8H29.5v-17.7c0-0.9,0.7-1.6,1.6-1.6h23v1.3h-0.4v0.5h0.4v0.3h1.1v-2.1v-4.7v-1.9H54v0.3h-0.4
					v0.5H54v1.1H29.4c-2.3,0-4.1,1.8-4.1,4.1v0.6v48h4.1v-25.1h38.3c0.8,0,1.4,0.6,1.4,1.4v11.3h4.5v-12.8v-0.1
					C73.6,306.4,72.1,304.8,70.2,304.8z"/>
			</defs>
			<clipPath id="SVGID_6_">
				<use xlink:href="#SVGID_5_"  style="overflow:visible;"/>
			</clipPath>
			<line class="st11" x1="25.3" y1="326.2" x2="29.4" y2="326.2"/>
		</g>
		<g>
			<defs>
				<path id="SVGID_7_" d="M70.2,304.8H29.5v-17.7c0-0.9,0.7-1.6,1.6-1.6h23v1.3h-0.4v0.5h0.4v0.3h1.1v-2.1v-4.7v-1.9H54v0.3h-0.4
					v0.5H54v1.1H29.4c-2.3,0-4.1,1.8-4.1,4.1v0.6v48h4.1v-25.1h38.3c0.8,0,1.4,0.6,1.4,1.4v11.3h4.5v-12.8v-0.1
					C73.6,306.4,72.1,304.8,70.2,304.8z"/>
			</defs>
			<clipPath id="SVGID_8_">
				<use xlink:href="#SVGID_7_"  style="overflow:visible;"/>
			</clipPath>
			<line class="st12" x1="50.2" y1="304.8" x2="50.2" y2="308.4"/>
		</g>
		<g>
			<defs>
				<path id="SVGID_9_" d="M70.2,304.8H29.5v-17.7c0-0.9,0.7-1.6,1.6-1.6h23v1.3h-0.4v0.5h0.4v0.3h1.1v-2.1v-4.7v-1.9H54v0.3h-0.4
					v0.5H54v1.1H29.4c-2.3,0-4.1,1.8-4.1,4.1v0.6v48h4.1v-25.1h38.3c0.8,0,1.4,0.6,1.4,1.4v11.3h4.5v-12.8v-0.1
					C73.6,306.4,72.1,304.8,70.2,304.8z"/>
			</defs>
			<clipPath id="SVGID_10_">
				<use xlink:href="#SVGID_9_"  style="overflow:visible;"/>
			</clipPath>
			<line class="st13" x1="68.6" y1="308.8" x2="72.6" y2="305.8"/>
		</g>
	</g>
	<rect x="24.6" y="303.3" class="st7" width="5.6" height="7.3"/>
	<rect x="24" y="304.1" class="st7" width="0.5" height="5.6"/>
	<g>
		<path class="st0" d="M34.6,306.6c0,0.5-0.2,1.3-0.3,1.8h0.2c0.1-0.5,0.3-1.3,0.3-1.8c0-0.7-0.1-1.1-0.4-1.8h-0.2
			C34.4,305.5,34.6,305.9,34.6,306.6z"/>
		<path class="st0" d="M25.3,300.6c0.7-0.2,1.4-0.3,2.1-0.3s1.4,0.1,2,0.3v-0.2c-0.6-0.2-1.3-0.3-2-0.3s-1.4,0.1-2.1,0.3V300.6z"/>
		<path class="st0" d="M29.4,313.4v-0.2c-0.6,0.2-1.3,0.3-2,0.3s-1.4-0.1-2.1-0.3v0.2c0.7,0.2,1.4,0.3,2.1,0.3
			C28.1,313.7,28.8,313.6,29.4,313.4z"/>
	</g>
	<path class="st0" d="M165.6,186.8c-10.1,0-16.1,0-18.4,0c0,0,2.2,0,0,0c-2.4,0-8.4,0-18.4,0c3.6,5,8.6,139.8-82.4,218.6
		c65.9,0,92.4,0,99.7,0c1.6,0,2.2,0,2.2,0c7.3,0,33.8,0,99.7,0C157,326.6,162,191.8,165.6,186.8z"/>
	<path class="st14" d="M129.9,216.9c6.9-5.2,16.4-9.6,27.2-12.2c2.3-0.6,4.6-1,6.8-1.4"/>
	<path class="st14" d="M164.1,200.1c-2.1,0.3-4.2,0.6-6.4,1c-10.9,2.2-20.4,6.1-27.5,10.9"/>
	<path class="st15" d="M125.2,257.1c7.9-5.9,18.8-10.9,31.2-13.9c3.4-0.8,6.8-1.5,10.1-1.9"/>
	<path class="st15" d="M166.1,237.8c-3,0.3-6,0.8-9.1,1.4c-12,2.4-22.6,6.6-30.7,11.9"/>
	<g>
		<path class="st14" d="M174.7,282.2c-5.7,0.6-11.7,1.7-17.7,3.1c-18.3,4.5-34.1,12.2-44.9,21.1"/>
		<path class="st14" d="M173.5,277.8c-5.1,0.4-10.4,1.1-15.8,2.2c-16.7,3.3-31.4,9.3-42.4,16.6"/>
		<path class="st14" d="M112.1,306.4c10.9-8.9,26.6-16.6,44.9-21.1c6-1.5,11.9-2.5,17.7-3.1"/>
	</g>
	<g>
		<path class="st14" d="M188.7,322.8c-7.9,0.1-16.3,0.9-25,2.6c-38.2,7.6-66.1,29.3-62.2,48.6l1.3-0.3c3.3-17,27.7-35.1,60.2-43
			c9.6-2.3,18.9-3.6,27.6-3.8"/>
		<path class="st14" d="M190.6,327c-8.7,0.2-18,1.5-27.6,3.8c-32.5,7.9-56.9,26-60.2,43"/>
	</g>
	<g>
		<path class="st7" d="M249.6,374.1v-8.7l-39.9-6.1V343h-11.8v-1.7h-19.5l-0.1-9.7c0.1,0,0.2-0.2,0.2-0.3c0-0.2-0.2-0.4-0.4-0.4
			s-0.4,0.2-0.4,0.4c0,0.2,0.1,0.3,0.2,0.3l-0.1,9.7h-2.2l-0.1-7.1c0.1,0,0.2-0.2,0.2-0.3c0-0.2-0.1-0.3-0.3-0.3s-0.3,0.1-0.3,0.3
			c0,0.1,0.1,0.2,0.2,0.3l-0.1,7.1h-1.9v1.7h-3.6v5.9l-25.7,4.6V321v-12h-19v-1.7h-19.3v-0.7h0.6V302h-7.6v4.6h0.6v0.7h-3.2v3.5H97
			V321H56.4v14H54v-1.5h-2V331h-9.8v2.5h-3.6V314h-7.4v19.5h-8.1v1.5h-10c4.4,26.7,16.3,50.9,33.6,70.3h10h40.6h3.1h39.4h4.4h25.7
			h9.7h23h7.2H248h7c8.5-9.4,15.7-19.7,21.3-31.2L249.6,374.1L249.6,374.1z M105.4,307.2h-5.5v-0.7h5.5V307.2z"/>
		<path class="st7" d="M181.9,340.3c0-0.6,0.5-1.1,1.1-1.1h2.1v0.4h7.7v-0.4h1.2c0.6,0,1.1,0.5,1.1,1.1v0.9h0.8v-0.9
			c0-1-0.8-1.9-1.9-1.9h-1.2v-0.3H185v0.3h-2c-1,0-1.9,0.8-1.9,1.9v0.9h0.8L181.9,340.3L181.9,340.3z"/>
	</g>
	<g>
		<polygon class="st1" points="99.7,324.2 99.7,329.8 100.5,329.8 100.5,330 101.2,330 101.2,329.8 107.2,329.8 107.2,330 
			107.9,330 107.9,329.8 108.5,329.8 108.5,324.2 		"/>
		<rect x="100.4" y="324.8" class="st7" width="6.5" height="4.3"/>
		<path class="st16" d="M108.5,326h3.6c0,0,1.4,0,1.4-2.1s0-2.8,0-2.8"/>
	</g>
	<g>
		<g>
			<path id="XMLID_3_" class="st1" d="M247.2,313.1v6.6h5.3c1.2,0,2.2,1,2.2,2.2V389c0,1.5-1.2,2.7-2.7,2.7h-12.5v5.8h15.7
				c3,0,5.5-2.5,5.5-5.5v-73.4c0-3-2.4-5.5-5.5-5.5L247.2,313.1z"/>
		</g>
		<g>
			<defs>
				<path id="SVGID_11_" d="M247.2,313.1v6.6h5.3c1.2,0,2.2,1,2.2,2.2V389c0,1.5-1.2,2.7-2.7,2.7h-12.5v5.8h15.7
					c3,0,5.5-2.5,5.5-5.5v-73.4c0-3-2.4-5.5-5.5-5.5L247.2,313.1z"/>
			</defs>
			<clipPath id="SVGID_12_">
				<use xlink:href="#SVGID_11_"  style="overflow:visible;"/>
			</clipPath>
			<g class="st17">
				<line class="st4" x1="253.5" y1="319.9" x2="258.8" y2="314.6"/>
				<line class="st4" x1="254.1" y1="390.6" x2="259.1" y2="395.6"/>
				<line class="st4" x1="254.6" y1="371.3" x2="260.6" y2="371.3"/>
				<line class="st4" x1="254.6" y1="342.3" x2="260.6" y2="342.3"/>
			</g>
		</g>
	</g>
	<polygon class="st1" points="248.7,312.4 248.7,311.6 248.3,311.6 248.3,311.2 247.4,311.2 247.4,321.7 248.3,321.7 248.3,321.3 
		248.7,321.3 248.7,320.5 248.3,320.5 248.3,312.4 	"/>
	<polygon class="st1" points="240.6,390.1 240.6,389.4 240.2,389.4 240.2,388.9 239.3,388.9 239.3,399.4 240.2,399.4 240.2,399 
		240.6,399 240.6,398.2 240.2,398.2 240.2,390.1 	"/>
	<rect x="30.5" y="312.2" class="st7" width="8.7" height="1.5"/>
	<g>
		<rect x="125.1" y="317" class="st18" width="5.1" height="4.2"/>
		<rect x="125.1" y="312.2" class="st18" width="5.1" height="4.2"/>
		<rect x="130.8" y="317" class="st18" width="5.1" height="4.2"/>
		<rect x="130.8" y="312.2" class="st18" width="5.1" height="4.2"/>
		<rect x="136.5" y="317" class="st18" width="5.1" height="4.2"/>
		<rect x="136.5" y="312.2" class="st18" width="5.1" height="4.2"/>
	</g>
	<g>
		<rect x="173.5" y="351.6" class="st18" width="10.4" height="4.2"/>
		<rect x="173.5" y="346.8" class="st18" width="10.4" height="4.2"/>
		<rect x="185.1" y="351.7" class="st18" width="10.4" height="4.2"/>
		<rect x="185.1" y="346.9" class="st18" width="10.4" height="4.2"/>
		<rect x="196.6" y="351.6" class="st18" width="10.4" height="4.2"/>
		<rect x="196.6" y="346.8" class="st18" width="10.4" height="4.2"/>
	</g>
	<g>
		<rect x="131.1" y="368.7" class="st18" width="10.4" height="1.3"/>
		<rect x="131" y="367.3" class="st18" width="10.4" height="1.3"/>
		<rect x="142.6" y="368.7" class="st18" width="10.4" height="1.3"/>
		<rect x="142.6" y="367.2" class="st18" width="10.4" height="1.3"/>
		<rect x="154.2" y="368.7" class="st18" width="10.4" height="1.3"/>
		<rect x="154.1" y="367.3" class="st18" width="10.4" height="1.3"/>
	</g>
	<g>
		<rect x="131" y="365.7" class="st18" width="10.4" height="1.3"/>
		<rect x="131" y="364.2" class="st18" width="10.4" height="1.3"/>
		<rect x="142.6" y="365.6" class="st18" width="10.4" height="1.3"/>
		<rect x="142.6" y="364.2" class="st18" width="10.4" height="1.3"/>
		<rect x="154.1" y="365.7" class="st18" width="10.4" height="1.3"/>
		<rect x="154.2" y="364.3" class="st18" width="10.4" height="1.3"/>
	</g>
	<g>
		<rect x="125.2" y="341.8" class="st18" width="5.1" height="4.2"/>
		<rect x="125.2" y="337" class="st18" width="5.1" height="4.2"/>
		<rect x="130.9" y="341.8" class="st18" width="5.1" height="4.2"/>
		<rect x="130.9" y="337" class="st18" width="5.1" height="4.2"/>
		<rect x="136.6" y="341.8" class="st18" width="5.1" height="4.2"/>
		<rect x="136.6" y="337" class="st18" width="5.1" height="4.2"/>
	</g>
	<g>
		<rect x="99.6" y="317" class="st18" width="5.1" height="4.2"/>
		<rect x="99.6" y="312.2" class="st18" width="5.1" height="4.2"/>
		<rect x="105.3" y="317" class="st18" width="5.1" height="4.2"/>
		<rect x="105.3" y="312.2" class="st18" width="5.1" height="4.2"/>
		<rect x="111.1" y="317" class="st18" width="5.1" height="4.2"/>
		<rect x="111" y="312.2" class="st18" width="5.1" height="4.2"/>
	</g>
	<g>
		<rect x="99.7" y="341.8" class="st18" width="5.1" height="4.2"/>
		<rect x="99.7" y="337.1" class="st18" width="5.1" height="4.2"/>
		<rect x="105.4" y="341.8" class="st18" width="5.1" height="4.2"/>
		<rect x="105.4" y="337.1" class="st18" width="5.1" height="4.2"/>
		<rect x="111.1" y="341.9" class="st18" width="5.1" height="4.2"/>
		<rect x="111.1" y="337.1" class="st18" width="5.1" height="4.2"/>
	</g>
	<rect x="128.5" y="300.1" class="st18" width="1.1" height="0.2"/>
	<rect x="135.3" y="293.8" class="st18" width="1.1" height="0.3"/>
	<path class="st18" d="M137.2,309.1l-1-14.7h-0.6l-0.9,12.7h-4.5l-0.8-6.6h-0.6l-1,8.6h2.7l-0.2-1.5h4.4l-0.1,1.5H137.2z
		 M130.2,307.4L130.2,307.4l4.4-0.1v0.1H130.2z"/>
	<g>
		<polygon class="st1" points="125.5,348.9 125.5,354.5 126.3,354.5 126.3,354.8 127,354.8 127,354.5 133,354.5 133,354.8 
			133.7,354.8 133.7,354.5 134.3,354.5 134.3,348.9 		"/>
		<rect x="126.2" y="349.6" class="st7" width="6.5" height="4.3"/>
		<path class="st16" d="M134.3,350.8h3.6c0,0,1.4,0,1.4-2.1s0-2.8,0-2.8"/>
	</g>
	<g>
		<line class="st19" x1="100.7" y1="325.2" x2="106.6" y2="325.2"/>
		<line class="st19" x1="100.7" y1="325.6" x2="106.6" y2="325.6"/>
		<line class="st19" x1="100.7" y1="326" x2="106.6" y2="326"/>
		<line class="st19" x1="100.7" y1="326.4" x2="106.6" y2="326.4"/>
		<line class="st19" x1="100.7" y1="326.8" x2="106.6" y2="326.8"/>
		<line class="st19" x1="100.7" y1="327.2" x2="106.6" y2="327.2"/>
		<line class="st19" x1="100.7" y1="327.6" x2="106.6" y2="327.6"/>
		<line class="st19" x1="100.7" y1="328" x2="106.6" y2="328"/>
		<line class="st19" x1="100.7" y1="328.4" x2="106.6" y2="328.4"/>
		<line class="st19" x1="100.7" y1="328.8" x2="106.6" y2="328.8"/>
	</g>
	<g>
		<line class="st19" x1="126.7" y1="349.9" x2="132.5" y2="349.9"/>
		<line class="st19" x1="126.7" y1="350.3" x2="132.5" y2="350.3"/>
		<line class="st19" x1="126.7" y1="350.7" x2="132.5" y2="350.7"/>
		<line class="st19" x1="126.7" y1="351.1" x2="132.5" y2="351.1"/>
		<line class="st19" x1="126.7" y1="351.5" x2="132.5" y2="351.5"/>
		<line class="st19" x1="126.7" y1="351.9" x2="132.5" y2="351.9"/>
		<line class="st19" x1="126.7" y1="352.4" x2="132.5" y2="352.4"/>
		<line class="st19" x1="126.7" y1="352.8" x2="132.5" y2="352.8"/>
		<line class="st19" x1="126.7" y1="353.2" x2="132.5" y2="353.2"/>
		<line class="st19" x1="126.7" y1="353.6" x2="132.5" y2="353.6"/>
	</g>
	<path class="st7" d="M45.6,322.8c0-0.2-0.1-0.3-0.3-0.3c-0.2,0-0.3,0.1-0.3,0.3c0,0.1,0.1,0.2,0.2,0.3L45,334.7h0.5l-0.2-11.6
		C45.5,323,45.6,322.9,45.6,322.8z"/>
	<rect x="172" y="346" class="st20" width="35.7" height="10.8"/>
	<polygon class="st7" points="204.2,332.9 206,334.1 207.8,335.3 204.2,335.3 200.7,335.3 202.5,334.1 	"/>
	<polygon class="st7" points="202.2,335.5 202.2,342.1 202.6,342.1 202.6,343.8 202.8,343.8 202.8,342.1 204.1,342.1 204.1,343.8 
		204.3,343.8 204.3,342.1 205.7,342.1 205.7,343.8 205.9,343.8 205.9,342.1 206.3,342.1 206.3,335.5 	"/>
	<rect x="130.3" y="363.4" class="st20" width="35.6" height="7.3"/>
	<rect x="171.2" y="345.8" class="st20" width="37.5" height="11.3"/>
	<polyline class="st20" points="200.3,356.8 200.3,365.7 165.8,365.7 	"/>
	<polyline class="st20" points="201.8,356.8 201.8,367.3 165.8,367.3 	"/>
	<rect x="185.5" y="364.8" class="st18" width="2.9" height="0.9"/>
	<rect x="191" y="366.5" class="st18" width="2.9" height="0.9"/>
	<line class="st20" x1="130.3" y1="365.5" x2="126.7" y2="365.5"/>
	<line class="st20" x1="130.3" y1="367.9" x2="125.5" y2="367.9"/>
	<line class="st20" x1="124.2" y1="379.6" x2="254.6" y2="379.6"/>
	<line class="st21" x1="124.2" y1="377.4" x2="254.6" y2="377.4"/>
	<line class="st20" x1="260.6" y1="379.6" x2="273.5" y2="379.6"/>
	<line class="st21" x1="260.6" y1="377.4" x2="274.4" y2="377.4"/>
	<rect x="242.3" y="367.5" class="st18" width="3.3" height="4.2"/>
	<rect x="242.6" y="367.8" class="st7" width="2.6" height="1.6"/>
	<line class="st20" x1="197.8" y1="367.3" x2="197.8" y2="377.4"/>
	<line class="st20" x1="197.8" y1="368.7" x2="242.3" y2="368.7"/>
	<line class="st20" x1="245.6" y1="370.3" x2="249.6" y2="370.3"/>
	<polyline class="st20" points="240.5,379.6 240.5,371.3 242.3,371.3 	"/>
	<line class="st22" x1="242.3" y1="369.7" x2="197.8" y2="369.7"/>
	<polyline class="st20" points="120.9,358.5 138.6,358.6 138.6,363.4 	"/>
	<g>
		<polyline class="st22" points="114.9,321.2 114.9,327.6 119.5,327.6 119.5,357.5 		"/>
		<polyline class="st22" points="128,321.2 128,328.8 121.3,328.8 121.3,356.8 		"/>
		<polyline class="st22" points="114.9,346 114.9,349.6 118.1,349.6 118.1,356.2 		"/>
		<polyline class="st22" points="126.7,346 126.7,348 120.4,348 120.4,356.1 		"/>
	</g>
	<line class="st16" x1="99.9" y1="322.1" x2="116.2" y2="322.1"/>
	<line class="st16" x1="125.2" y1="322.1" x2="141.6" y2="322.1"/>
	<line class="st16" x1="125.2" y1="346.9" x2="141.6" y2="346.9"/>
	<line class="st16" x1="99.8" y1="346.9" x2="116.1" y2="346.9"/>
	<rect x="115.6" y="349.2" class="st18" width="1.3" height="0.8"/>
	<rect x="124.8" y="328.5" class="st18" width="1.3" height="0.8"/>
	<rect x="116.2" y="327.3" class="st18" width="1.9" height="0.8"/>
	<rect x="118.6" y="337.8" class="st18" width="3.5" height="0.8"/>
	<rect x="245.9" y="376.6" class="st18" width="4.5" height="0.7"/>
	<path class="st7" d="M79.4,325.9c-7.6,0-13.8,6.2-13.8,13.8v1.7H27V377c1.5,3,3.2,5.8,4.9,8.7h61.2v-45.9
		C93.2,332.1,87,325.9,79.4,325.9z"/>
	<line class="st23" x1="128" y1="380.2" x2="151.7" y2="380.2"/>
	<path class="st23" d="M128,391.4h2.6l0,0c1,0,1.9,0.8,1.9,1.9v6.3v-6.3v6.3c0,1,0.8,1.9,1.9,1.9l0,0c1,0,1.9-0.8,1.9-1.9v-2.4
		c0-1,0.8-1.9,1.9-1.9l0,0c1,0,1.9,0.8,1.9,1.9v0.7c0,1,0.8,1.9,1.9,1.9l0,0c1,0,1.9-0.8,1.9-1.9v-8.6v-0.2v-1.3
		c0-1,0.8-1.9,1.9-1.9l0,0h6.4"/>
	<path class="st3" d="M46.6,405.3h48.2H128V356H94.9v-16.4c0-8.6-6.9-15.5-15.5-15.5s-15.5,6.9-15.5,15.5H13.8l0,0
		C18.8,364.5,30.4,387,46.6,405.3z"/>
	<g>
		<g>
			<path id="XMLID_2_" class="st7" d="M79.4,325.9c-7.6,0-13.8,6.2-13.8,13.8v1.7H27V377c1.5,3,3.2,5.8,4.9,8.7h61.2v-45.9
				C93.2,332.1,87,325.9,79.4,325.9z"/>
		</g>
		<g>
			<defs>
				<path id="SVGID_13_" d="M79.4,325.9c-7.6,0-13.8,6.2-13.8,13.8v1.7H27V377c1.5,3,3.2,5.8,4.9,8.7h61.2v-45.9
					C93.2,332.1,87,325.9,79.4,325.9z"/>
			</defs>
			<clipPath id="SVGID_14_">
				<use xlink:href="#SVGID_13_"  style="overflow:visible;"/>
			</clipPath>
			<polygon class="st24" points="22.2,322.7 22.2,390.8 105.8,324 			"/>
		</g>
	</g>
	<rect x="152.5" y="377.4" class="st3" width="21.6" height="28.1"/>
	<rect x="151.7" y="376.7" class="st25" width="23.1" height="12.3"/>
	<circle class="st26" cx="139.5" cy="379.5" r="3.5"/>
	<path class="st27" d="M139.5,376.4c-1.7,0-3,1.4-3,3h6.1C142.5,377.8,141.1,376.4,139.5,376.4z"/>
	<path class="st2" d="M128.7,393.2"/>
	<polygon class="st3" points="236.2,383.9 233.9,373.9 232.7,373.9 230.5,383.9 207.3,383.9 205,373.9 203.9,373.9 201.6,383.9 
		197.8,383.9 197.8,405.3 239.4,405.3 239.4,383.9 	"/>
	<rect x="201" y="386" class="st27" width="22.5" height="15.2"/>
	<line class="st15" x1="226.3" y1="388.5" x2="235.6" y2="388.5"/>
	<line class="st15" x1="167.9" y1="383.9" x2="173.6" y2="383.9"/>
	<line class="st15" x1="167.9" y1="385.6" x2="173.6" y2="385.6"/>
	<line class="st15" x1="226.3" y1="391.3" x2="235.6" y2="391.3"/>
	<line class="st15" x1="226.3" y1="394" x2="235.6" y2="394"/>
	<line class="st15" x1="226.3" y1="396.8" x2="235.6" y2="396.8"/>
	<circle class="st1" cx="204.4" cy="372.8" r="1.3"/>
	<circle class="st1" cx="233.3" cy="373.3" r="1.3"/>
	<path class="st28" d="M174.8,383h8c1.5,0,2.6,1.2,2.6,2.6v7.2c0,1.5,1.2,2.6,2.6,2.6h9.7"/>
	<circle class="st29" cx="66.7" cy="367.6" r="14.2"/>
	<circle class="st30" cx="66.7" cy="367.6" r="11.3"/>
	<circle class="st29" cx="79.1" cy="341.4" r="9.8"/>
	<circle class="st3" cx="79.1" cy="341.4" r="7.9"/>
	<circle class="st29" cx="38.8" cy="349.6" r="6.5"/>
	<circle class="st30" cx="38.8" cy="349.6" r="5.2"/>
	<g>
		<line class="st4" x1="56.2" y1="377.1" x2="33.9" y2="353.8"/>
		<line class="st4" x1="42.1" y1="344" x2="71.2" y2="354.2"/>
		<line class="st4" x1="70.2" y1="337.2" x2="55.9" y2="358.5"/>
		<line class="st4" x1="88.8" y1="343.1" x2="80.3" y2="371.7"/>
	</g>
	<circle class="st4" cx="110.3" cy="377.2" r="14.9"/>
	<circle class="st5" cx="110.3" cy="377.2" r="11.7"/>
	<g>
		<circle class="st31" cx="110.3" cy="363.9" r="0.6"/>
		<circle class="st31" cx="97" cy="377.2" r="0.6"/>
		<circle class="st31" cx="110.3" cy="390.5" r="0.6"/>
		<circle class="st31" cx="123.6" cy="377.2" r="0.6"/>
	</g>
	<path class="st32" d="M85,401.1H62.1c-2.7,0-5-2.2-5-5l0,0c0-2.7,2.2-5,5-5H85c2.7,0,5,2.2,5,5l0,0C90,398.9,87.8,401.1,85,401.1z"
		/>
	<path class="st16" d="M51.9,405.3v-6.5c0-1.5,1.2-2.7,2.7-2.7h37.9c1.5,0,2.7,1.2,2.7,2.7v6.5"/>
	<path class="st1" d="M85,401.1H62.1c-2.7,0-5-2.2-5-5l0,0c0-2.7,2.2-5,5-5H85c2.7,0,5,2.2,5,5l0,0C90,398.9,87.8,401.1,85,401.1z"
		/>
	<rect x="64.2" y="391.1" class="st7" width="18.8" height="10"/>
	
		<rect x="109.7" y="376.6" transform="matrix(0.7071 -0.7071 0.7071 0.7071 -234.4698 188.5447)" class="st0" width="1.4" height="1.4"/>
	<g>
		<line class="st15" x1="155.3" y1="399.2" x2="171.2" y2="399.2"/>
		<line class="st15" x1="155.3" y1="400.9" x2="171.2" y2="400.9"/>
		<line class="st15" x1="155.3" y1="402.7" x2="171.2" y2="402.7"/>
	</g>
	<g>
		<line class="st15" x1="115.2" y1="398.9" x2="124.1" y2="398.9"/>
		<line class="st15" x1="115.2" y1="400.7" x2="124.1" y2="400.7"/>
		<line class="st15" x1="115.2" y1="402.5" x2="124.1" y2="402.5"/>
	</g>
	<g>
		<line class="st15" x1="102.9" y1="398.9" x2="111.8" y2="398.9"/>
		<line class="st15" x1="102.9" y1="400.7" x2="111.8" y2="400.7"/>
		<line class="st15" x1="102.9" y1="402.5" x2="111.8" y2="402.5"/>
	</g>
	<rect x="169.7" y="375.1" class="st3" width="2" height="1.3"/>
	<rect x="153.1" y="377.8" class="st33" width="0.9" height="0.9"/>
	<rect x="153.1" y="379.2" class="st33" width="0.9" height="0.9"/>
	<rect x="153.1" y="380.6" class="st33" width="0.9" height="0.9"/>
	<rect x="154.5" y="377.8" class="st33" width="0.9" height="0.9"/>
	<rect x="154.5" y="379.2" class="st33" width="0.9" height="0.9"/>
	<rect x="154.5" y="380.6" class="st33" width="0.9" height="0.9"/>
	<rect x="156" y="377.8" class="st33" width="0.9" height="0.9"/>
	<rect x="156" y="379.2" class="st33" width="0.9" height="0.9"/>
	<rect x="156" y="380.6" class="st33" width="0.9" height="0.9"/>
	<rect x="158.1" y="377.8" class="st27" width="15.5" height="3.6"/>
	<rect x="161.2" y="382.7" class="st27" width="1.5" height="4"/>
	<rect x="163.3" y="382.7" class="st27" width="1.5" height="4"/>
	<rect x="165.4" y="382.7" class="st27" width="1.5" height="4"/>
	<circle class="st34" cx="153.8" cy="383.5" r="0.8"/>
	<circle class="st34" cx="156" cy="383.5" r="0.8"/>
	<circle class="st34" cx="158.3" cy="383.5" r="0.8"/>
	<line class="st35" x1="153.8" y1="384.3" x2="153.8" y2="383.9"/>
	<line class="st35" x1="156" y1="383.1" x2="156" y2="382.8"/>
	<line class="st35" x1="158.3" y1="383.1" x2="158.3" y2="382.8"/>
	<circle class="st34" cx="153.8" cy="385.9" r="0.8"/>
	<circle class="st34" cx="156" cy="385.9" r="0.8"/>
	<circle class="st34" cx="158.3" cy="385.9" r="0.8"/>
	<line class="st35" x1="153.8" y1="386.7" x2="153.8" y2="386.3"/>
	<line class="st35" x1="156" y1="385.6" x2="156" y2="385.2"/>
	<line class="st35" x1="158.3" y1="385.6" x2="158.3" y2="385.2"/>
	<rect x="153.2" y="403.7" class="st7" width="1.1" height="1.1"/>
	<rect x="172.2" y="403.7" class="st7" width="1.1" height="1.1"/>
	<rect x="153.2" y="389.4" class="st7" width="1.1" height="1.1"/>
	<rect x="172.2" y="389.4" class="st7" width="1.1" height="1.1"/>
	<rect x="184.7" y="386.7" class="st3" width="1.6" height="4.6"/>
	<g>
		<polygon class="st1" points="171.6,371.2 170.7,371.2 170.7,371.2 169.7,371.2 169.2,373.1 172.1,373.1 		"/>
		<polygon class="st1" points="165.8,376.1 166,377 166,377 166.2,377.9 168.2,378 167.6,375.1 		"/>
		<polygon class="st1" points="167.8,379.8 168.6,380.2 168.6,380.2 169.4,380.6 170.8,379.1 168.1,377.9 		"/>
		<polygon class="st1" points="171.9,380.6 172.7,380.2 172.7,380.2 173.6,379.8 173.2,377.9 170.6,379.1 		"/>
		<polygon class="st1" points="175.1,377.9 175.3,377 175.3,377 175.5,376.1 173.8,375.1 173.1,378 		"/>
		<polygon class="st1" points="175,373.7 174.4,373 174.4,373 173.8,372.2 172,373 173.8,375.3 		"/>
		<polygon class="st1" points="167.5,372.2 166.9,373 166.9,373 166.4,373.7 167.5,375.3 169.4,373 		"/>
		<ellipse class="st1" cx="170.7" cy="375.9" rx="3.7" ry="3.7"/>
	</g>
	<rect x="168.6" y="383.3" class="st0" width="0.3" height="1.2"/>
	<rect x="170.6" y="385" class="st0" width="0.3" height="1.2"/>
	<g>
		<polyline class="st0" points="139.5,377.1 139.6,379.5 139.3,379.5 		"/>
	</g>
	<circle class="st0" cx="227.1" cy="388.5" r="0.5"/>
	<circle class="st0" cx="229.9" cy="391.3" r="0.5"/>
	<circle class="st0" cx="232" cy="394" r="0.5"/>
	<circle class="st0" cx="229.9" cy="396.8" r="0.5"/>
	<rect x="63.5" y="367.3" class="st0" width="6.4" height="0.7"/>
	<rect x="66.3" y="364.4" class="st0" width="0.7" height="6.4"/>
	<rect x="38.5" y="348.4" class="st0" width="0.4" height="2.3"/>
	<rect x="78.7" y="339" class="st0" width="0.8" height="4.6"/>
	<g>
		<polygon class="st36" points="110.4,377.3 110.4,368.2 113.8,374.2 		"/>
		<polygon class="st36" points="110.4,377.3 101.3,377.3 107.3,373.8 		"/>
		<polygon class="st36" points="110.4,377.3 110.4,386.4 106.9,380.3 		"/>
		<polygon class="st36" points="110.4,377.3 119.5,377.3 113.5,380.7 		"/>
		<circle class="st8" cx="110.3" cy="377.3" r="1.8"/>
	</g>
	<path class="st37" d="M208.7,113.3c0-23.6-1.9-35.5-15.8-35.5c-13.5,0-23.7-0.2-41.9,0c-18.2-0.2-28.4,0-41.9,0
		c-14,0-15.8,11.9-15.8,35.5c1.6,74.8-82,121.1-82,199.1c0,77.2,62.6,139.8,139.8,139.8s139.8-62.6,139.8-139.8
		S207,188.9,208.7,113.3z"/>
	<path class="st0" d="M196.7,42H187v-3.9c0-2.2-1.8-4.1-4-4.1h-63.9c-2.2,0-4.1,1.8-4.1,4.1V42h-9.6c-3.4,0-6.4,3.2-6.4,6.6V82h104
		V48.6C203,45.2,200.1,42,196.7,42z"/>
</g>
</svg>
