<?xml version="1.0" encoding="utf-8"?>
<!-- Generator: Adobe Illustrator 19.2.1, SVG Export Plug-In . SVG Version: 6.00 Build 0)  -->
<svg version="1.1" id="Layer_1" xmlns="http://www.w3.org/2000/svg" xmlns:xlink="http://www.w3.org/1999/xlink" x="0px" y="0px"
	 viewBox="0 0 475.3 180.4" style="enable-background:new 0 0 475.3 180.4;" xml:space="preserve">
<style type="text/css">
	.st0{fill:#257885;}
	.st1{clip-path:url(#SVGID_2_);}
	.st2{fill:#FF6B6B;}
	.st3{fill:#D9D9D9;}
	.st4{fill:#FCFCFC;}
	.st5{fill:#1A535C;}
	.st6{fill:#353535;}
	.st7{fill:#3C6E71;}
</style>
<defs>
	
	
		<animateTransform  accumulate="none" additive="replace" attributeName="transform" attributeType="XML" begin="0s" calcMode="linear" dur="1.5s" fill="freeze" from="0 165.625 154.75" repeatCount="indefinite" restart="always" to="360 165.625 154.75" type="rotate" xlink:href="#wheel">
		</animateTransform>
	
		<animateTransform  accumulate="none" additive="replace" attributeName="transform" attributeType="XML" begin="0s" calcMode="linear" dur="1.5s" fill="freeze" from="0 96.75 154.75" repeatCount="indefinite" restart="always" to="360 96.75 154.75" type="rotate" xlink:href="#wheel-2">
		</animateTransform>
	
		<animateTransform  accumulate="none" additive="replace" attributeName="transform" attributeType="XML" begin="0s" calcMode="linear" dur="1.5s" fill="freeze" from="0 376.062 155.562" repeatCount="indefinite" restart="always" to="360 376.062 155.562" type="rotate" xlink:href="#wheel-3">
		</animateTransform>
</defs>
<title>bus</title>
<g>
	<g>
		<path class="st0" d="M453.3,10H13C7.4,10.1,3,14.7,3,20.3v124.5c0,5.6,4.4,10.1,10,10.2h52.4c0-17.2,14-31.2,31.2-31.2
			s31.2,14,31.2,31.2h6.5c0-17.2,14-31.2,31.2-31.2s31.2,14,31.2,31.2h147.9c0-17.2,14-31.2,31.2-31.2c17.2,0,31.2,14,31.2,31.2
			c0,0,0,0,0,0h46c5.5-0.1,9.9-4.7,9.8-10.2c0,0,0,0,0,0V20.3C463,14.8,458.8,10,453.3,10z"/>
		<g>
			<defs>
				<path id="SVGID_1_" d="M453.3,10H13C7.4,10.1,3,14.7,3,20.3v124.5c0,5.6,4.4,10.1,10,10.2h52.4c0-17.2,14-31.2,31.2-31.2
					s31.2,14,31.2,31.2h6.5c0-17.2,14-31.2,31.2-31.2s31.2,14,31.2,31.2h147.9c0-17.2,14-31.2,31.2-31.2c17.2,0,31.2,14,31.2,31.2
					c0,0,0,0,0,0h46c5.5-0.1,9.9-4.7,9.8-10.2c0,0,0,0,0,0V20.3C463,14.8,458.8,10,453.3,10z"/>
			</defs>
			<clipPath id="SVGID_2_">
				<use xlink:href="#SVGID_1_"  style="overflow:visible;"/>
			</clipPath>
			<g class="st1">
				<rect x="3" y="102" class="st2" width="460.3" height="59.5"/>
			</g>
		</g>
	</g>
	<rect x="12.5" y="113.5" class="st3" width="13" height="2"/>
	<rect x="29.2" y="113.5" class="st3" width="13" height="2"/>
	<rect x="45.8" y="113.5" class="st3" width="13" height="2"/>
	<rect x="12.5" y="118.3" class="st3" width="13" height="2"/>
	<rect x="29.2" y="118.3" class="st3" width="13" height="2"/>
	<rect x="45.8" y="118.3" class="st3" width="13" height="2"/>
	<rect x="12.5" y="123.2" class="st3" width="13" height="2"/>
	<rect x="29.2" y="123.2" class="st3" width="13" height="2"/>
	<rect x="12.5" y="128" class="st3" width="13" height="2"/>
	<rect x="29.2" y="128" class="st3" width="13" height="2"/>
	<rect x="12.5" y="132.8" class="st3" width="13" height="2"/>
	<rect x="29.2" y="132.8" class="st3" width="13" height="2"/>
	<rect x="45.8" y="123.2" class="st3" width="13" height="2"/>
	<g>
		<path class="st4" d="M457.8,27.4h5.5l0,0v82.3l0,0h-5.5c-6,0-10.8-4.8-10.8-10.8c0,0,0,0,0,0V38.2C447,32.2,451.8,27.4,457.8,27.4
			z"/>
		<rect x="345.2" y="27.4" class="st5" width="61.7" height="61.7"/>
		<rect x="281.5" y="27.4" class="st5" width="61.7" height="61.7"/>
		<rect x="173.4" y="27.4" class="st5" width="61.7" height="61.7"/>
		<rect x="109.8" y="27.4" class="st5" width="61.7" height="61.7"/>
		<rect x="46.1" y="27.4" class="st5" width="61.7" height="61.7"/>
		<path class="st5" d="M406.8,10.3H297l3.8-6.1c1.6-2.6,4.5-4.2,7.6-4.2h87c3.1,0,5.9,1.6,7.6,4.2L406.8,10.3z"/>
	</g>
	<rect x="96" y="94.5" class="st3" width="11.8" height="3.5"/>
	<rect x="223.4" y="94.5" class="st3" width="11.8" height="3.5"/>
	<rect x="331.4" y="94.5" class="st3" width="11.8" height="3.5"/>
	<g>
		<polygon class="st3" points="303.9,154.8 302.4,154.8 302.4,125.2 218.8,125.2 218.8,154.8 217.3,154.8 217.3,123.2 303.9,123.2 
					"/>
		<rect x="226.1" y="149" class="st3" width="13" height="2"/>
		<rect x="281.6" y="149" class="st3" width="13" height="2"/>
	</g>
	<g id="wheel">
		<circle class="st6" cx="165.6" cy="154.8" r="25"/>
		<circle class="st7" cx="165.6" cy="154.8" r="15"/>
		<g>
			<rect x="159.5" y="153.8" class="st6" width="12.2" height="2"/>
			<rect x="164.6" y="148.6" class="st6" width="2" height="12.2"/>
		</g>
	</g>
	<g id="wheel-2">
		<circle class="st6" cx="96.6" cy="154.8" r="25"/>
		<circle class="st7" cx="96.6" cy="154.8" r="15"/>
		<g>
			<rect x="90.5" y="153.8" class="st6" width="12.2" height="2"/>
			<rect x="95.6" y="148.6" class="st6" width="2" height="12.2"/>
		</g>
	</g>
	<g id="wheel-3">
		<circle class="st6" cx="376" cy="155.4" r="25"/>
		<circle class="st7" cx="376" cy="155.4" r="15"/>
		<g>
			<rect x="369.9" y="154.4" class="st6" width="12.2" height="2"/>
			<rect x="375" y="149.3" class="st6" width="2" height="12.2"/>
		</g>
	</g>
	<rect y="137" class="st2" width="3" height="7.7"/>
	<rect y="119.3" class="st2" width="3" height="9.7"/>
	<rect x="470.8" y="34.9" class="st3" width="4.5" height="20.6"/>
	<path class="st3" d="M475,36h-1v-8.3c0-2.6-2.1-4.7-4.8-4.8H463v-1h6.3c3.2,0,5.7,2.6,5.8,5.8V36z"/>
</g>
</svg>
