<?xml version="1.0" encoding="utf-8"?>
<!-- Generator: Adobe Illustrator 19.2.1, SVG Export Plug-In . SVG Version: 6.00 Build 0)  -->
<svg version="1.1" id="Layer_1" xmlns="http://www.w3.org/2000/svg" xmlns:xlink="http://www.w3.org/1999/xlink" x="0px" y="0px"
	 viewBox="0 0 151.4 58.5" style="enable-background:new 0 0 151.4 58.5;" xml:space="preserve">
<style type="text/css">
	.st0{clip-path:url(#SVGID_2_);}
	.st1{fill:#FFFFFF;stroke:#2F404F;stroke-width:1.5;stroke-miterlimit:10;}
	.st2{fill:none;stroke:#2F404F;stroke-miterlimit:10;}
	.st3{fill:#FFFFFF;stroke:#2F404F;stroke-width:2;stroke-miterlimit:10;}
	.st4{fill:none;stroke:#2F404F;stroke-width:1.5;stroke-miterlimit:10;}
	.st5{fill:none;stroke:#2F404F;stroke-width:0.5;stroke-miterlimit:10;}
	.st6{fill:#2F404F;}
	.st7{fill:#FFFFFF;stroke:#2F404F;stroke-miterlimit:10;}
</style>
<defs>
	
	
		<animateTransform  accumulate="none" additive="replace" attributeName="transform" attributeType="XML" begin="0s" calcMode="linear" dur="1.5s" fill="freeze" from="0 165.625 154.75" repeatCount="indefinite" restart="always" to="360 165.625 154.75" type="rotate" xlink:href="#wheel">
		</animateTransform>
	
		<animateTransform  accumulate="none" additive="replace" attributeName="transform" attributeType="XML" begin="0s" calcMode="linear" dur="1.5s" fill="freeze" from="0 96.75 154.75" repeatCount="indefinite" restart="always" to="360 96.75 154.75" type="rotate" xlink:href="#wheel-2">
		</animateTransform>
	
		<animateTransform  accumulate="none" additive="replace" attributeName="transform" attributeType="XML" begin="0s" calcMode="linear" dur="1.5s" fill="freeze" from="0 376.062 155.562" repeatCount="indefinite" restart="always" to="360 376.062 155.562" type="rotate" xlink:href="#wheel-3">
		</animateTransform>
</defs>
<title>bus</title>
<g>
	<g>
		<defs>
			<path id="SVGID_1_" d="M144,4.5H5C3.3,4.5,1.9,6,1.9,7.7V47c0,1.8,1.4,3.2,3.2,3.2h16.5c0-5.4,4.4-9.8,9.8-9.8s9.8,4.4,9.8,9.8
				h2.1c0-5.4,4.4-9.8,9.8-9.8s9.8,4.4,9.8,9.8h46.7c0-5.4,4.4-9.8,9.8-9.8s9.8,4.4,9.8,9.8l0,0h14.5c1.7,0,3.1-1.5,3.1-3.2l0,0V7.7
				C147.1,6,145.7,4.5,144,4.5z"/>
		</defs>
		<use xlink:href="#SVGID_1_"  style="overflow:visible;fill:#FFFFFF;"/>
		<clipPath id="SVGID_2_">
			<use xlink:href="#SVGID_1_"  style="overflow:visible;"/>
		</clipPath>
		<g class="st0">
			<rect x="1.9" y="33.5" class="st1" width="145.3" height="18.8"/>
		</g>
		<use xlink:href="#SVGID_1_"  style="overflow:visible;fill:none;stroke:#2F404F;stroke-width:1.5;stroke-miterlimit:10;"/>
	</g>
</g>
<rect x="4.9" y="37.1" class="st2" width="4.1" height="0.6"/>
<rect x="10.6" y="37.1" class="st2" width="4.1" height="0.6"/>
<rect x="16.7" y="37.1" class="st2" width="4.1" height="0.6"/>
<rect x="4.9" y="39.4" class="st2" width="4.1" height="0.6"/>
<rect x="10.6" y="39.4" class="st2" width="4.1" height="0.6"/>
<rect x="16.7" y="39.4" class="st2" width="4.1" height="0.6"/>
<rect x="4.9" y="41.7" class="st2" width="4.1" height="0.6"/>
<rect x="10.6" y="41.6" class="st2" width="4.1" height="0.6"/>
<rect x="4.9" y="43.9" class="st2" width="4.1" height="0.6"/>
<rect x="10.6" y="43.9" class="st2" width="4.1" height="0.6"/>
<rect x="16.7" y="41.7" class="st2" width="4.1" height="0.6"/>
<path class="st3" d="M145.4,10h1.7l0,0v26l0,0h-1.7c-1.9,0-3.4-1.5-3.4-3.4l0,0V13.4C142,11.5,143.5,10,145.4,10z"/>
<rect x="111.5" y="10" class="st4" width="19.5" height="19.5"/>
<rect x="89.8" y="10" class="st4" width="19.5" height="19.5"/>
<rect x="58.2" y="10" class="st4" width="19.5" height="19.5"/>
<rect x="35.6" y="10" class="st4" width="19.5" height="19.5"/>
<rect x="13.5" y="10" class="st4" width="19.5" height="19.5"/>
<path class="st3" d="M129.3,4.3H94.7l1.2-1.9C96.4,1.5,97.3,1,98.3,1h27.5c1,0,1.9,0.5,2.4,1.3L129.3,4.3z"/>
<rect x="31.2" y="31.1" class="st5" width="3.7" height="1.1"/>
<rect x="71.4" y="31.1" class="st5" width="3.7" height="1.1"/>
<rect x="105.5" y="31.1" class="st5" width="3.7" height="1.1"/>
<g>
	<polygon class="st2" points="96.9,50.2 96.4,50.2 96.4,40.8 70,40.8 70,50.2 69.5,50.2 69.5,40.2 96.9,40.2 	"/>
	<rect x="72.3" y="48.3" class="st2" width="4.1" height="0.6"/>
	<rect x="89.8" y="48.3" class="st2" width="4.1" height="0.6"/>
</g>
<rect y="44.6" class="st6" width="0.9" height="2.4"/>
<rect y="39" class="st6" width="0.9" height="3.1"/>
<rect x="149.5" y="12.3" class="st2" width="1.4" height="6.5"/>
<path class="st2" d="M150.9,12.7h-0.3v-2.6c0-0.8-0.7-1.5-1.5-1.5h-2V8.2h2c1,0,1.8,0.8,1.8,1.8L150.9,12.7L150.9,12.7z"/>
<g>
	<circle class="st6" cx="119.6" cy="50.2" r="8.3"/>
	<circle class="st7" cx="119.6" cy="50.2" r="5"/>
	<g>
		<line class="st2" x1="117.6" y1="50.2" x2="121.7" y2="50.2"/>
		<line class="st2" x1="119.6" y1="48.2" x2="119.6" y2="52.3"/>
	</g>
</g>
<g>
	<circle class="st6" cx="53.2" cy="50.2" r="8.3"/>
	<circle class="st7" cx="53.2" cy="50.2" r="5"/>
	<g>
		<line class="st2" x1="51.2" y1="50.2" x2="55.3" y2="50.2"/>
		<line class="st2" x1="53.2" y1="48.2" x2="53.2" y2="52.3"/>
	</g>
</g>
<g>
	<circle class="st6" cx="31.5" cy="50.2" r="8.3"/>
	<circle class="st7" cx="31.5" cy="50.2" r="5"/>
	<g>
		<line class="st2" x1="29.5" y1="50.2" x2="33.6" y2="50.2"/>
		<line class="st2" x1="31.5" y1="48.2" x2="31.5" y2="52.3"/>
	</g>
</g>
</svg>
