<svg id="Layer_1" data-name="Layer 1" xmlns="http://www.w3.org/2000/svg" xmlns:xlink="http://www.w3.org/1999/xlink" viewBox="0 0 475.33 180.4">
  <defs>
    <style>
      .cls-1 {
        fill: #7e818c;
      }

      .cls-2 {
        clip-path: url(#clip-path);
      }

      .cls-3 {
        fill: #484a51;
      }

      .cls-4 {
        fill: #8d8f99;
      }
    </style>
      <animateTransform 
           xlink:href="#wheel"
           attributeName="transform" 
           attributeType="XML"
           type="rotate"
           from="0 165.625 154.75"
           to="360 165.625 154.75" 
           dur="1.5s"
           begin="0s"
           repeatCount="indefinite"
           fill="freeze"
                    
           />
      <animateTransform 
           xlink:href="#wheel-2"
           attributeName="transform" 
           attributeType="XML"
           type="rotate"
           from="0 96.75 154.75"
           to="360 96.75 154.75"
           dur="1.5s"
           begin="0s"
           repeatCount="indefinite"
           fill="freeze"
                    
           />
      <animateTransform 
           xlink:href="#wheel-3"
           attributeName="transform" 
           attributeType="XML"
           type="rotate"
           from="0 376.062 155.562"
           to="360 376.062 155.562" 
           dur="1.5s"
           begin="0s"
           repeatCount="indefinite"
           fill="freeze"
                    
           />
      
      
    <clipPath id="clip-path" transform="translate(-70 -55)">
      <path class="cls-1" d="M523.25,65H83A10.24,10.24,0,0,0,73,75.27v124.5A10.2,10.2,0,0,0,83,210h52.36a31.23,31.23,0,1,1,62.46,0h6.54a31.23,31.23,0,1,1,62.46,0H414.77a31.23,31.23,0,1,1,62.46,0h46A10,10,0,0,0,533,199.77V75.27C533,69.75,528.77,65,523.25,65Z"/>
    </clipPath>
  </defs>
  <title>bus</title>
  <g>
    <g>
      <path class="cls-1" d="M523.25,65H83A10.24,10.24,0,0,0,73,75.27v124.5A10.2,10.2,0,0,0,83,210h52.36a31.23,31.23,0,1,1,62.46,0h6.54a31.23,31.23,0,1,1,62.46,0H414.77a31.23,31.23,0,1,1,62.46,0h46A10,10,0,0,0,533,199.77V75.27C533,69.75,528.77,65,523.25,65Z" transform="translate(-70 -55)"/>
      <g class="cls-2">
        <rect class="cls-3" x="3" y="102" width="460.25" height="59.5"/>
      </g>
    </g>
    <path class="cls-4" d="M457.8,27.4h5.45a0,0,0,0,1,0,0v82.25a0,0,0,0,1,0,0H457.8A10.8,10.8,0,0,1,447,98.84V38.2A10.8,10.8,0,0,1,457.8,27.4Z"/>
    <rect class="cls-4" x="345.16" y="27.4" width="61.69" height="61.69"/>
    <rect class="cls-4" x="281.47" y="27.4" width="61.69" height="61.69"/>
    <rect class="cls-4" x="173.44" y="27.4" width="61.69" height="61.69"/>
    <rect class="cls-4" x="109.75" y="27.4" width="61.69" height="61.69"/>
    <rect class="cls-4" x="46.06" y="27.4" width="61.69" height="61.69"/>
    <rect class="cls-1" x="12.5" y="113.5" width="13" height="2"/>
    <rect class="cls-1" x="29.16" y="113.5" width="13" height="2"/>
    <rect class="cls-1" x="45.81" y="113.5" width="13" height="2"/>
    <rect class="cls-1" x="12.5" y="118.33" width="13" height="2"/>
    <rect class="cls-1" x="29.16" y="118.33" width="13" height="2"/>
    <rect class="cls-1" x="45.81" y="118.33" width="13" height="2"/>
    <rect class="cls-1" x="12.5" y="123.17" width="13" height="2"/>
    <rect class="cls-1" x="29.16" y="123.17" width="13" height="2"/>
    <rect class="cls-1" x="12.5" y="128" width="13" height="2"/>
    <rect class="cls-1" x="29.16" y="128" width="13" height="2"/>
    <rect class="cls-1" x="12.5" y="132.83" width="13" height="2"/>
    <rect class="cls-1" x="29.16" y="132.83" width="13" height="2"/>
    <rect class="cls-1" x="45.81" y="123.17" width="13" height="2"/>
    <path class="cls-1" d="M476.84,65.27H367l3.84-6.08A9,9,0,0,1,378.44,55h87A9,9,0,0,1,473,59.19Z" transform="translate(-70 -55)"/>
    <rect class="cls-1" x="96" y="94.5" width="11.75" height="3.5"/>
    <rect class="cls-1" x="223.37" y="94.5" width="11.75" height="3.5"/>
    <rect class="cls-1" x="331.41" y="94.5" width="11.75" height="3.5"/>
    <g>
      <polygon class="cls-1" points="303.94 154.77 302.38 154.77 302.38 125.17 218.84 125.17 218.84 154.77 217.28 154.77 217.28 123.17 303.94 123.17 303.94 154.77"/>
      <rect class="cls-1" x="226.13" y="149" width="13" height="2"/>
      <rect class="cls-1" x="281.59" y="149" width="13" height="2"/>
    </g>
    <g id="wheel">
      <circle class="cls-1" cx="165.59" cy="154.77" r="25"/>
      <circle class="cls-3" cx="165.59" cy="154.77" r="15.02"/>
      <g>
        <rect class="cls-1" x="159.48" y="153.77" width="12.23" height="2"/>
        <rect class="cls-1" x="164.59" y="148.65" width="2" height="12.23"/>
      </g>
    </g>
    <g id="wheel-2" data-name="wheel">
      <circle class="cls-1" cx="96.59" cy="154.77" r="25"/>
      <circle class="cls-3" cx="96.59" cy="154.77" r="15.02"/>
      <g>
        <rect class="cls-1" x="90.47" y="153.77" width="12.23" height="2"/>
        <rect class="cls-1" x="95.59" y="148.65" width="2" height="12.23"/>
      </g>
    </g>
    <g id="wheel-3" data-name="wheel">
      <circle class="cls-1" cx="376" cy="155.41" r="25"/>
      <circle class="cls-3" cx="376" cy="155.41" r="15.02"/>
      <g>
        <rect class="cls-1" x="369.88" y="154.41" width="12.23" height="2"/>
        <rect class="cls-1" x="375" y="149.29" width="2" height="12.23"/>
      </g>
    </g>
    <rect class="cls-3" y="137" width="3" height="7.67"/>
    <rect class="cls-3" y="119.33" width="3" height="9.67"/>
    <rect class="cls-1" x="470.83" y="34.9" width="4.5" height="20.6"/>
    <path class="cls-1" d="M545,91h-1V82.75A4.76,4.76,0,0,0,539.25,78H533V77h6.25A5.76,5.76,0,0,1,545,82.75V91Z" transform="translate(-70 -55)"/>
  </g>
</svg>
