<?xml version="1.0" encoding="utf-8"?>
<!-- Generator: Adobe Illustrator 19.2.0, SVG Export Plug-In . SVG Version: 6.00 Build 0)  -->
<svg version="1.1" id="Layer_2" xmlns="http://www.w3.org/2000/svg" xmlns:xlink="http://www.w3.org/1999/xlink" x="0px" y="0px"
	 viewBox="0 0 90.4 48.9" style="enable-background:new 0 0 90.4 48.9;" xml:space="preserve">
<style type="text/css">
	.st0{fill:#2F404F;}
	.st1{fill:#FFFFFF;stroke:#2F404F;stroke-width:2;stroke-miterlimit:10;}
	.st2{fill:none;stroke:#2F404F;stroke-miterlimit:10;}
	.st3{fill:none;}
	.st4{fill:#FFFFFF;stroke:#2F404F;stroke-miterlimit:10;}
	.st5{fill:none;stroke:#2F404F;stroke-width:2;stroke-miterlimit:10;}
</style>
<g>
	<line class="st0" x1="159" y1="18.9" x2="159" y2="21.9"/>
	<path class="st0" d="M159.5,23.5c-1.1,0-1.5-0.5-1.5-1.2v-3.6c0-0.7,0.4-1.2,1.5-1.2s1.5,0.5,1.5,1.2v3.6
		C161,22.9,160.6,23.5,159.5,23.5z"/>
</g>
<rect x="113" y="20.7" class="st1" width="80.8" height="19.9"/>
<polygon class="st1" points="189.8,17.6 127,17.6 113,1.8 113,-14 189.8,-14 "/>
<path class="st1" d="M230.3,40.5H194V-13h26.7c5.3,0,9.5,4.3,9.5,9.5V40.5z"/>
<path class="st1" d="M1,17.6h79.2c5.1,0,9.2,4.1,9.2,9.2l0,0c0,5.1-4.1,9.2-9.2,9.2c0,0,0,0,0,0H10.6C5.3,36,1,31.7,1,26.4
	c0,0,0,0,0,0V17.6L1,17.6z"/>
<title>car</title>
<rect x="5.1" y="15.1" class="st0" width="25.1" height="4.9"/>
<line class="st2" x1="75.7" y1="22.8" x2="79.4" y2="22.8"/>
<line class="st2" x1="71" y1="22.8" x2="74.7" y2="22.8"/>
<line class="st2" x1="75.7" y1="25.5" x2="79.4" y2="25.5"/>
<line class="st2" x1="71" y1="25.5" x2="74.7" y2="25.5"/>
<line class="st2" x1="75.7" y1="20.2" x2="79.4" y2="20.2"/>
<line class="st2" x1="71" y1="20.2" x2="74.7" y2="20.2"/>
<g>
	<line class="st3" x1="43.7" y1="21" x2="37.7" y2="21"/>
	<path class="st0" d="M42.9,23h-5.5c-0.8,0.2-1.6-0.4-1.8-1.2c-0.2-0.8,0.4-1.6,1.2-1.8c0.2,0,0.4,0,0.6,0h5.5
		c0.8-0.2,1.6,0.4,1.8,1.2c0.2,0.8-0.4,1.6-1.2,1.8C43.3,23,43.1,23,42.9,23z"/>
</g>
<path class="st1" d="M64.5,17.5H36V5c0-2.2,1.8-4,4-4h8.7c1.6,0,3,0.7,4,1.9L64.5,17.5z"/>
<circle class="st0" cx="23.5" cy="38.1" r="10.8"/>
<circle class="st4" cx="23.5" cy="38.1" r="6.5"/>
<g>
	<line class="st2" x1="20.8" y1="38.1" x2="26.2" y2="38.1"/>
	<line class="st2" x1="23.5" y1="35.5" x2="23.5" y2="40.8"/>
</g>
<g>
	<circle class="st0" cx="63.9" cy="38.1" r="10.8"/>
	<circle class="st4" cx="63.9" cy="38.1" r="6.5"/>
	<g>
		<line class="st2" x1="61.2" y1="38.1" x2="66.6" y2="38.1"/>
		<line class="st2" x1="63.9" y1="35.5" x2="63.9" y2="40.8"/>
	</g>
</g>
<line class="st5" x1="193.8" y1="20.7" x2="230.3" y2="20.7"/>
<rect x="204.5" y="-5.1" class="st5" width="25.8" height="18.1"/>
<g>
	<circle class="st0" cx="140.9" cy="38.1" r="10.8"/>
	<circle class="st4" cx="140.9" cy="38.1" r="6.5"/>
	<g>
		<line class="st2" x1="138.2" y1="38.1" x2="143.6" y2="38.1"/>
		<line class="st2" x1="140.9" y1="35.5" x2="140.9" y2="40.8"/>
	</g>
</g>
<g>
	<circle class="st0" cx="210.2" cy="38.1" r="10.8"/>
	<circle class="st4" cx="210.2" cy="38.1" r="6.5"/>
	<g>
		<line class="st2" x1="207.5" y1="38.1" x2="212.9" y2="38.1"/>
		<line class="st2" x1="210.2" y1="35.5" x2="210.2" y2="40.8"/>
	</g>
</g>
<line class="st5" x1="131.2" y1="-7.8" x2="131.2" y2="12.3"/>
<line class="st5" x1="139.8" y1="-7.8" x2="139.8" y2="12.3"/>
<line class="st5" x1="148.5" y1="-7.8" x2="148.5" y2="12.3"/>
<line class="st5" x1="157.2" y1="-7.8" x2="157.2" y2="12.3"/>
<line class="st5" x1="165.8" y1="-7.8" x2="165.8" y2="12.3"/>
<line class="st5" x1="174.5" y1="-7.8" x2="174.5" y2="12.3"/>
<line class="st5" x1="183.2" y1="-7.8" x2="183.2" y2="12.3"/>
<rect x="151.7" y="24.7" class="st0" width="32.3" height="5.1"/>
<rect x="157.2" y="30.6" class="st0" width="32.3" height="5.1"/>
</svg>
