<svg id="Layer_1" data-name="Layer 1" xmlns="http://www.w3.org/2000/svg" viewBox="0 0 165.65 39.96">
  <defs>
    <style>
      .cls-1 {
        opacity: 0.49;
        isolation: isolate;
      }
    </style>
  </defs>
  <title>carrier</title>
  <path d="M68,108.38" transform="translate(-24.01 -98.07)"/>
  <path class="cls-1" d="M34.39,117.25" transform="translate(-24.01 -98.07)"/>
  <path d="M28.32,112.71l0,9-4.34,0S23.6,133,29.44,138H175.26s3.92-3.79,4.46-4.65l10-16H164l-8.11,5.84-66.54,0V106H58.47l0,6.38h-9.5l-1.2-11.46H41.45l-0.87,11.63H34.42Z" transform="translate(-24.01 -98.07)"/>
  <polygon points="42.54 2.14 44.65 7.01 41.48 7.01 40.06 2.14 42.54 2.14"/>
  <path d="M59.19,98.07h7.17a0.6,0.6,0,0,1,0,1.08H59.2V98.07h0Z" transform="translate(-24.01 -98.07)"/>
  <path d="M106.67,114.61a0.29,0.29,0,0,0-.28.23l-1,4.05h-1.93a0.3,0.3,0,0,0-.28.28v2.16a0.3,0.3,0,0,0,.28.28h32.14a0.26,0.26,0,0,0,.28-0.23,0.26,0.26,0,0,0-.18-0.32s-5-1.57-7.55-2.12l-0.6-.14a11,11,0,0,1-4.05.6,7.45,7.45,0,0,1-4.28-1.29l0,0c-4.19.32-8.84,0.83-9.12,0.83l-1-4.05a0.29,0.29,0,0,0-.28-0.23h-2.07Zm17.13,3.22c-0.92,0-2.16,0-3.45.14a7.14,7.14,0,0,0,3.18.74,13.44,13.44,0,0,0,2.95-.32,7.2,7.2,0,0,0-2.67-.55h0Z" transform="translate(-24.01 -98.07)"/>
</svg>
