<svg id="Layer_1" xmlns="http://www.w3.org/2000/svg" viewBox="0 0 300 300">
  <style>
    .dotted{fill:#000000;}
  </style>
  <circle class="dotted" cx="150" cy="7" r="1"/>
  <ellipse transform="rotate(-86 159.972 7.345)" class="dotted" cx="160" cy="7.3" rx="1" ry="1"/>
  <ellipse transform="rotate(-81.998 169.9 8.386)" class="dotted" cx="169.9" cy="8.4" rx="1" ry="1"/>
  <ellipse transform="rotate(-78 179.735 10.13)" class="dotted" cx="179.7" cy="10.1" rx="1" ry="1"/>
  <ellipse transform="rotate(-74.002 189.408 12.54)" class="dotted" cx="189.4" cy="12.5" rx="1" ry="1"/>
  <ellipse transform="rotate(-70 198.906 15.626)" class="dotted" cx="198.9" cy="15.6" rx="1" ry="1"/>
  <ellipse transform="rotate(-66.002 208.166 19.374)" class="dotted" cx="208.2" cy="19.4" rx="1" ry="1"/>
  <ellipse transform="rotate(-61.998 217.146 23.74)" class="dotted" cx="217.1" cy="23.7" rx="1" ry="1"/>
  <ellipse transform="rotate(-58 225.785 28.74)" class="dotted" cx="225.8" cy="28.7" rx="1" ry="1"/>
  <ellipse transform="rotate(-54 234.06 34.31)" class="dotted" cx="234.1" cy="34.3" rx="1" ry="1"/>
  <ellipse transform="rotate(-50 241.93 40.46)" class="dotted" cx="241.9" cy="40.5" rx="1" ry="1"/>
  <ellipse transform="rotate(-45.997 249.354 47.13)" class="dotted" cx="249.3" cy="47.1" rx="1" ry="1"/>
  <ellipse transform="rotate(-42.004 256.27 54.334)" class="dotted" cx="256.3" cy="54.3" rx="1" ry="1"/>
  <ellipse transform="rotate(-38 262.67 61.956)" class="dotted" cx="262.7" cy="62" rx="1" ry="1"/>
  <ellipse transform="rotate(-34.004 268.54 70.05)" class="dotted" cx="268.6" cy="70" rx="1" ry="1"/>
  <ellipse transform="rotate(-30.003 273.834 78.512)" class="dotted" cx="273.8" cy="78.5" rx="1" ry="1"/>
  <ellipse transform="rotate(-26 278.513 87.3)" class="dotted" cx="278.5" cy="87.3" rx="1" ry="1"/>
  <ellipse transform="rotate(-21.998 282.598 96.423)" class="dotted" cx="282.6" cy="96.4" rx="1" ry="1"/>
  <ellipse transform="rotate(-17.992 286.036 105.782)" class="dotted" cx="286" cy="105.8" rx="1" ry="1"/>
  <ellipse transform="rotate(-14 288.78 115.414)" class="dotted" cx="288.8" cy="115.4" rx="1" ry="1"/>
  <ellipse transform="rotate(-10.003 290.898 125.222)" class="dotted" cx="290.8" cy="125.2" rx="1" ry="1"/>
  <ellipse transform="rotate(-6.012 292.263 135.153)" class="dotted" cx="292.2" cy="135.1" rx="1" ry="1"/>
  <ellipse transform="rotate(-1.985 292.95 144.932)" class="dotted" cx="292.9" cy="145" rx="1" ry="1"/>
  <ellipse transform="rotate(-88 292.912 154.99)" class="dotted" cx="292.9" cy="155" rx="1" ry="1"/>
  <ellipse transform="rotate(-84.002 292.212 164.955)" class="dotted" cx="292.2" cy="164.9" rx="1" ry="1"/>
  <ellipse transform="rotate(-80.003 290.816 174.838)" class="dotted" cx="290.8" cy="174.8" rx="1" ry="1"/>
  <ellipse transform="rotate(-76 288.746 184.596)" class="dotted" cx="288.8" cy="184.6" rx="1" ry="1"/>
  <ellipse transform="rotate(-72 285.992 194.18)" class="dotted" cx="286" cy="194.2" rx="1" ry="1"/>
  <ellipse transform="rotate(-68 282.584 203.565)" class="dotted" cx="282.6" cy="203.6" rx="1" ry="1"/>
  <ellipse transform="rotate(-63.998 278.536 212.682)" class="dotted" cx="278.5" cy="212.7" rx="1" ry="1"/>
  <ellipse transform="rotate(-60 273.845 221.508)" class="dotted" cx="273.8" cy="221.5" rx="1" ry="1"/>
  <ellipse transform="rotate(-56 268.56 229.977)" class="dotted" cx="268.6" cy="230" rx="1" ry="1"/>
  <ellipse transform="rotate(-51.997 262.702 238.038)" class="dotted" cx="262.7" cy="238" rx="1" ry="1"/>
  <ellipse transform="rotate(-48.002 256.265 245.71)" class="dotted" cx="256.3" cy="245.7" rx="1" ry="1"/>
  <ellipse transform="rotate(-44.003 249.31 252.855)" class="dotted" cx="249.3" cy="252.9" rx="1" ry="1"/>
  <ellipse transform="rotate(-40.004 241.895 259.547)" class="dotted" cx="241.9" cy="259.5" rx="1" ry="1"/>
  <ellipse transform="rotate(-36.002 234.04 265.685)" class="dotted" cx="234.1" cy="265.7" rx="1" ry="1"/>
  <ellipse transform="rotate(-32.005 225.755 271.295)" class="dotted" cx="225.8" cy="271.3" rx="1" ry="1"/>
  <ellipse transform="rotate(-28.006 217.094 276.257)" class="dotted" cx="217.1" cy="276.3" rx="1" ry="1"/>
  <ellipse transform="rotate(-24.006 208.14 280.68)" class="dotted" cx="208.2" cy="280.6" rx="1" ry="1"/>
  <ellipse transform="rotate(-20 198.924 284.39)" class="dotted" cx="198.9" cy="284.4" rx="1" ry="1"/>
  <ellipse transform="rotate(-15.992 189.48 287.482)" class="dotted" cx="189.4" cy="287.5" rx="1" ry="1"/>
  <ellipse transform="rotate(-12.013 179.67 289.926)" class="dotted" cx="179.7" cy="289.9" rx="1" ry="1"/>
  <ellipse transform="rotate(-7.987 169.942 291.516)" class="dotted" cx="169.9" cy="291.6" rx="1" ry="1"/>
  <ellipse transform="rotate(-3.97 160.13 292.575)" class="dotted" cx="160" cy="292.7" rx="1" ry="1"/>
  <circle class="dotted" cx="150" cy="293" r="1"/>
  <ellipse transform="rotate(-86 140.027 292.644)" class="dotted" cx="140" cy="292.7" rx="1" ry="1"/>
  <ellipse transform="rotate(-81.998 130.107 291.603)" class="dotted" cx="130.1" cy="291.6" rx="1" ry="1"/>
  <ellipse transform="rotate(-78 120.262 289.886)" class="dotted" cx="120.3" cy="289.9" rx="1" ry="1"/>
  <ellipse transform="rotate(-74.002 110.577 287.448)" class="dotted" cx="110.6" cy="287.5" rx="1" ry="1"/>
  <ellipse transform="rotate(-70 101.087 284.373)" class="dotted" cx="101.1" cy="284.4" rx="1" ry="1"/>
  <ellipse transform="rotate(-66.002 91.824 280.646)" class="dotted" cx="91.8" cy="280.6" rx="1" ry="1"/>
  <ellipse transform="rotate(-61.998 82.87 276.276)" class="dotted" cx="82.9" cy="276.3" rx="1" ry="1"/>
  <ellipse transform="rotate(-58 74.213 271.283)" class="dotted" cx="74.2" cy="271.3" rx="1" ry="1"/>
  <ellipse transform="rotate(-54 65.95 265.695)" class="dotted" cx="65.9" cy="265.7" rx="1" ry="1"/>
  <ellipse transform="rotate(-50 58.082 259.56)" class="dotted" cx="58.1" cy="259.5" rx="1" ry="1"/>
  <ellipse transform="rotate(-45.997 50.675 252.88)" class="dotted" cx="50.7" cy="252.9" rx="1" ry="1"/>
  <ellipse transform="rotate(-42.004 43.713 245.693)" class="dotted" cx="43.7" cy="245.7" rx="1" ry="1"/>
  <ellipse transform="rotate(-38 37.313 238.025)" class="dotted" cx="37.3" cy="238" rx="1" ry="1"/>
  <ellipse transform="rotate(-34.004 31.433 229.96)" class="dotted" cx="31.4" cy="230" rx="1" ry="1"/>
  <ellipse transform="rotate(-30.003 26.148 221.498)" class="dotted" cx="26.2" cy="221.5" rx="1" ry="1"/>
  <ellipse transform="rotate(-26 21.477 212.674)" class="dotted" cx="21.5" cy="212.7" rx="1" ry="1"/>
  <ellipse transform="rotate(-21.998 17.42 203.573)" class="dotted" cx="17.4" cy="203.6" rx="1" ry="1"/>
  <ellipse transform="rotate(-17.992 14.025 194.202)" class="dotted" cx="14" cy="194.2" rx="1" ry="1"/>
  <ellipse transform="rotate(-14 11.25 184.61)" class="dotted" cx="11.2" cy="184.6" rx="1" ry="1"/>
  <ellipse transform="rotate(-10.003 9.163 174.88)" class="dotted" cx="9.2" cy="174.8" rx="1" ry="1"/>
  <ellipse transform="rotate(-6.012 7.75 164.993)" class="dotted" cx="7.8" cy="164.9" rx="1" ry="1"/>
  <ellipse transform="rotate(-1.985 7.13 154.99)" class="dotted" cx="7.1" cy="155" rx="1" ry="1"/>
  <ellipse transform="rotate(-88 7.088 145.01)" class="dotted" cx="7.1" cy="145" rx="1" ry="1"/>
  <ellipse transform="rotate(-84.002 7.78 135.052)" class="dotted" cx="7.8" cy="135.1" rx="1" ry="1"/>
  <ellipse transform="rotate(-80.003 9.168 125.166)" class="dotted" cx="9.2" cy="125.2" rx="1" ry="1"/>
  <ellipse transform="rotate(-76 11.246 115.404)" class="dotted" cx="11.2" cy="115.4" rx="1" ry="1"/>
  <ellipse transform="rotate(-72 14 105.806)" class="dotted" cx="14" cy="105.8" rx="1" ry="1"/>
  <ellipse transform="rotate(-68 17.413 96.43)" class="dotted" cx="17.4" cy="96.4" rx="1" ry="1"/>
  <ellipse transform="rotate(-63.998 21.475 87.313)" class="dotted" cx="21.5" cy="87.3" rx="1" ry="1"/>
  <ellipse transform="rotate(-60 26.158 78.502)" class="dotted" cx="26.2" cy="78.5" rx="1" ry="1"/>
  <ellipse transform="rotate(-56 31.448 70.04)" class="dotted" cx="31.4" cy="70" rx="1" ry="1"/>
  <ellipse transform="rotate(-51.997 37.318 61.96)" class="dotted" cx="37.3" cy="62" rx="1" ry="1"/>
  <ellipse transform="rotate(-48.002 43.73 54.32)" class="dotted" cx="43.7" cy="54.3" rx="1" ry="1"/>
  <ellipse transform="rotate(-44.003 50.66 47.132)" class="dotted" cx="50.7" cy="47.1" rx="1" ry="1"/>
  <ellipse transform="rotate(-40.004 58.077 40.457)" class="dotted" cx="58.1" cy="40.5" rx="1" ry="1"/>
  <ellipse transform="rotate(-36.002 65.944 34.31)" class="dotted" cx="65.9" cy="34.3" rx="1" ry="1"/>
  <ellipse transform="rotate(-32.005 74.22 28.736)" class="dotted" cx="74.2" cy="28.7" rx="1" ry="1"/>
  <ellipse transform="rotate(-28.006 82.857 23.743)" class="dotted" cx="82.9" cy="23.7" rx="1" ry="1"/>
  <ellipse transform="rotate(-24.006 91.84 19.376)" class="dotted" cx="91.8" cy="19.4" rx="1" ry="1"/>
  <ellipse transform="rotate(-20 101.097 15.624)" class="dotted" cx="101.1" cy="15.6" rx="1" ry="1"/>
  <ellipse transform="rotate(-15.992 110.602 12.528)" class="dotted" cx="110.6" cy="12.5" rx="1" ry="1"/>
  <ellipse transform="rotate(-12.013 120.27 10.153)" class="dotted" cx="120.3" cy="10.1" rx="1" ry="1"/>
  <ellipse transform="rotate(-7.987 130.077 8.36)" class="dotted" cx="130.1" cy="8.4" rx="1" ry="1"/>
  <ellipse transform="rotate(-3.97 140.03 7.276)" class="dotted" cx="140" cy="7.3" rx="1" ry="1"/>
</svg>