<?xml version="1.0" encoding="utf-8"?>
<!-- Generator: Adobe Illustrator 19.2.1, SVG Export Plug-In . SVG Version: 6.00 Build 0)  -->
<svg version="1.1" id="c6a2c714-590b-41e6-8064-16d44b080923"
	 xmlns="http://www.w3.org/2000/svg" xmlns:xlink="http://www.w3.org/1999/xlink" x="0px" y="0px" viewBox="0 0 274.7 274.7"
	 style="enable-background:new 0 0 274.7 274.7;" xml:space="preserve">
<title>circle-dotted</title>

<path class="dotted" d="M136.7,269.4c0-0.4,0.3-0.8,0.8-0.8l0,0c0.4,0,0.8,0.3,0.8,0.8l0,0c0,0.4-0.3,0.8-0.8,0.8l0,0
	C137,270.1,136.7,269.8,136.7,269.4z"/>
<path class="dotted" d="M131.4,270c-0.4,0-0.7-0.4-0.7-0.8l0,0c0-0.4,0.4-0.7,0.8-0.7l0,0c0.4,0,0.7,0.4,0.7,0.8l0,0
	C132.2,269.7,131.8,270,131.4,270L131.4,270C131.4,270,131.4,270,131.4,270z"/>
<path class="dotted" d="M142.7,269.3c0-0.4,0.3-0.8,0.7-0.8l0,0c0.4,0,0.8,0.3,0.8,0.7l0,0c0,0.4-0.3,0.8-0.7,0.8l0,0c0,0,0,0,0,0l0,0
	C143.1,270,142.7,269.7,142.7,269.3z"/>
<path class="dotted" d="M125.4,269.6c-0.4,0-0.7-0.4-0.7-0.8l0,0c0-0.4,0.4-0.7,0.8-0.7l0,0c0.4,0,0.7,0.4,0.7,0.8l0,0
	C126.2,269.3,125.8,269.6,125.4,269.6L125.4,269.6C125.4,269.6,125.4,269.6,125.4,269.6z"/>
<path class="dotted" d="M148.7,268.9c0-0.4,0.3-0.8,0.7-0.8l0,0c0.4,0,0.8,0.3,0.8,0.7l0,0c0,0.4-0.3,0.8-0.7,0.8l0,0c0,0-0.1,0-0.1,0l0,0
	C149.1,269.6,148.8,269.3,148.7,268.9z"/>
<path class="dotted" d="M119.4,268.9c-0.4-0.1-0.7-0.4-0.6-0.9l0,0c0.1-0.4,0.4-0.7,0.8-0.6l0,0c0.4,0.1,0.7,0.4,0.7,0.8l0,0
	c-0.1,0.4-0.4,0.6-0.8,0.6l0,0C119.4,268.9,119.4,268.9,119.4,268.9z"/>
<path class="dotted" d="M154.7,268.2c-0.1-0.4,0.2-0.8,0.6-0.8l0,0c0.4-0.1,0.8,0.2,0.8,0.6l0,0c0,0.4-0.2,0.8-0.6,0.8l0,0c0,0-0.1,0-0.1,0l0,0
	C155.1,268.9,154.7,268.6,154.7,268.2z"/>
<path class="dotted" d="M113.4,268L113.4,268L113.4,268c-0.4-0.1-0.7-0.5-0.6-0.9l0,0c0.1-0.4,0.5-0.7,0.9-0.6l0,0c0.4,0.1,0.7,0.5,0.6,0.9l0,0
	c-0.1,0.4-0.4,0.6-0.7,0.6l0,0C113.5,268,113.5,268,113.4,268z"/>
<path class="dotted" d="M160.6,267.3c-0.1-0.4,0.2-0.8,0.6-0.9l0,0c0.4-0.1,0.8,0.2,0.9,0.6l0,0c0.1,0.4-0.2,0.8-0.6,0.9l0,0l0,0l0,0
	c0,0-0.1,0-0.1,0l0,0C161,267.9,160.7,267.7,160.6,267.3z"/>
<path class="dotted" d="M107.5,266.8c-0.4-0.1-0.6-0.5-0.6-0.9l0,0c0.1-0.4,0.5-0.7,0.9-0.6l0,0c0.4,0.1,0.7,0.5,0.6,0.9l0,0
	c-0.1,0.4-0.4,0.6-0.7,0.6l0,0C107.6,266.8,107.5,266.8,107.5,266.8z"/>
<path class="dotted" d="M166.5,266.1c-0.1-0.4,0.2-0.8,0.6-0.9l0,0c0.4-0.1,0.8,0.2,0.9,0.6l0,0c0.1,0.4-0.2,0.8-0.6,0.9l0,0c-0.1,0-0.1,0-0.2,0
	l0,0C166.9,266.7,166.6,266.5,166.5,266.1z"/>
<path class="dotted" d="M101.6,265.3c-0.4-0.1-0.6-0.5-0.5-0.9l0,0c0.1-0.4,0.5-0.6,0.9-0.5l0,0c0.4,0.1,0.6,0.5,0.5,0.9l0,0
	c-0.1,0.3-0.4,0.5-0.7,0.5l0,0C101.8,265.3,101.7,265.3,101.6,265.3z"/>
<path class="dotted" d="M172.3,264.7c-0.1-0.4,0.1-0.8,0.5-0.9v0c0.4-0.1,0.8,0.1,0.9,0.5l0,0c0.1,0.4-0.1,0.8-0.5,0.9l0,0l0,0l0,0
	c-0.1,0-0.1,0-0.2,0l0,0C172.7,265.2,172.4,265,172.3,264.7z"/>
<path class="dotted" d="M95.8,263.5c-0.4-0.1-0.6-0.5-0.5-0.9l0,0c0.1-0.4,0.6-0.6,1-0.5l0,0c0.4,0.1,0.6,0.5,0.5,0.9l0,0c-0.1,0.3-0.4,0.5-0.7,0.5
	l0,0C96,263.5,95.9,263.5,95.8,263.5z"/>
<path class="dotted" d="M178.1,263c-0.1-0.4,0.1-0.8,0.5-1l0,0c0.4-0.1,0.8,0.1,1,0.5l0,0c0.1,0.4-0.1,0.8-0.5,0.9l0,0c-0.1,0-0.2,0-0.2,0l0,0
	C178.5,263.5,178.2,263.3,178.1,263z"/>
<path class="dotted" d="M90.1,261.5c-0.4-0.1-0.6-0.6-0.4-1l0,0c0.1-0.4,0.6-0.6,1-0.4l0,0c0.4,0.1,0.6,0.6,0.4,1l0,0c-0.1,0.3-0.4,0.5-0.7,0.5l0,0
	C90.3,261.5,90.2,261.5,90.1,261.5z"/>
<path class="dotted" d="M183.8,261c-0.2-0.4,0-0.8,0.4-1l0,0c0.4-0.2,0.8,0,1,0.4l0,0c0.2,0.4,0,0.8-0.4,1l0,0c0,0,0,0,0,0l0,0c-0.1,0-0.2,0-0.3,0
	l0,0C184.2,261.4,183.9,261.3,183.8,261z"/>
<path class="dotted" d="M84.5,259.2L84.5,259.2L84.5,259.2c-0.4-0.2-0.5-0.6-0.4-1l0,0c0.2-0.4,0.6-0.5,1-0.4l0,0c0.4,0.2,0.5,0.6,0.4,1l0,0
	c-0.1,0.3-0.4,0.5-0.7,0.5l0,0C84.7,259.3,84.6,259.2,84.5,259.2z"/>
<path class="dotted" d="M189.3,258.7c-0.2-0.4,0-0.8,0.4-1l0,0c0.4-0.2,0.8,0,1,0.4l0,0c0.2,0.4,0,0.8-0.4,1l0,0c-0.1,0-0.2,0.1-0.3,0.1l0,0
	C189.7,259.2,189.5,259,189.3,258.7z"/>
<path class="dotted" d="M79,256.7c-0.4-0.2-0.5-0.6-0.3-1l0,0c0.2-0.4,0.6-0.5,1-0.4l0,0c0.4,0.2,0.5,0.6,0.4,1l0,0c-0.1,0.3-0.4,0.4-0.7,0.4l0,0
	C79.3,256.7,79.1,256.7,79,256.7z"/>
<path class="dotted" d="M194.8,256.2c-0.2-0.4,0-0.8,0.3-1l0,0c0.4-0.2,0.8,0,1,0.3l0,0c0.2,0.4,0,0.8-0.3,1l0,0c-0.1,0-0.2,0.1-0.3,0.1l0,0
	C195.2,256.6,194.9,256.5,194.8,256.2z"/>
<path class="dotted" d="M73.7,253.9c-0.4-0.2-0.5-0.7-0.3-1l0,0c0.2-0.4,0.6-0.5,1-0.3l0,0c0.4,0.2,0.5,0.7,0.3,1l0,0c-0.1,0.3-0.4,0.4-0.7,0.4l0,0
	C73.9,254,73.8,253.9,73.7,253.9z"/>
<path class="dotted" d="M200.1,253.5c-0.2-0.4-0.1-0.8,0.3-1l0,0c0.4-0.2,0.8-0.1,1,0.3l0,0c0.2,0.4,0.1,0.8-0.3,1l0,0l0,0l0,0
	c-0.1,0.1-0.2,0.1-0.4,0.1l0,0C200.5,253.9,200.3,253.8,200.1,253.5z"/>
<path class="dotted" d="M68.4,250.8c-0.4-0.2-0.5-0.7-0.3-1l0,0c0.2-0.4,0.7-0.5,1-0.3l0,0c0.4,0.2,0.5,0.7,0.3,1l0,0c-0.1,0.2-0.4,0.4-0.6,0.4l0,0
	C68.7,251,68.5,250.9,68.4,250.8z"/>
<path class="dotted" d="M205.3,250.5c-0.2-0.3-0.1-0.8,0.3-1l0,0c0.4-0.2,0.8-0.1,1,0.3l0,0c0.2,0.3,0.1,0.8-0.3,1l0,0c-0.1,0.1-0.3,0.1-0.4,0.1
	l0,0C205.7,250.9,205.5,250.8,205.3,250.5z"/>
<path class="dotted" d="M63.3,247.6L63.3,247.6L63.3,247.6c-0.3-0.2-0.4-0.7-0.2-1l0,0c0.2-0.3,0.7-0.4,1-0.2v0c0.3,0.2,0.4,0.7,0.2,1l0,0
	c-0.1,0.2-0.4,0.3-0.6,0.3l0,0C63.6,247.7,63.4,247.7,63.3,247.6z"/>
<path class="dotted" d="M210.4,247.3c-0.2-0.3-0.1-0.8,0.2-1l0,0c0.3-0.2,0.8-0.1,1,0.2l0,0c0.2,0.3,0.1,0.8-0.2,1l0,0c-0.1,0.1-0.3,0.1-0.4,0.1
	l0,0C210.8,247.6,210.6,247.5,210.4,247.3z"/>
<path class="dotted" d="M58.4,244.1L58.4,244.1L58.4,244.1c-0.3-0.3-0.4-0.7-0.2-1l0,0c0.3-0.3,0.7-0.4,1.1-0.2l0,0c0.3,0.2,0.4,0.7,0.2,1l0,0
	c-0.1,0.2-0.4,0.3-0.6,0.3l0,0C58.7,244.3,58.5,244.2,58.4,244.1z"/>
<path class="dotted" d="M215.3,243.9c-0.3-0.3-0.2-0.8,0.2-1.1l0,0c0.3-0.3,0.8-0.2,1,0.2l0,0c0.3,0.3,0.2,0.8-0.2,1l0,0l0,0l0,0
	c-0.1,0.1-0.3,0.2-0.4,0.2l0,0C215.7,244.2,215.5,244.1,215.3,243.9z"/>
<path class="dotted" d="M53.6,240.4C53.6,240.4,53.6,240.4,53.6,240.4L53.6,240.4c-0.3-0.3-0.4-0.7-0.1-1l0,0c0.3-0.3,0.7-0.4,1-0.1l0,0
	c0.3,0.3,0.4,0.7,0.1,1.1l0,0c-0.1,0.2-0.4,0.3-0.6,0.3l0,0C53.9,240.6,53.7,240.5,53.6,240.4z"/>
<path class="dotted" d="M220.1,240.2c-0.3-0.3-0.2-0.8,0.1-1.1l0,0c0.3-0.3,0.8-0.2,1.1,0.1l0,0c0.3,0.3,0.2,0.8-0.1,1l0,0l0,0l0,0
	c-0.1,0.1-0.3,0.2-0.5,0.2l0,0C220.5,240.5,220.2,240.4,220.1,240.2z"/>
<path class="dotted" d="M49,236.5c-0.3-0.3-0.3-0.8-0.1-1.1l0,0c0.3-0.3,0.8-0.3,1.1-0.1l0,0c0.3,0.3,0.3,0.8,0.1,1.1l0,0c-0.2,0.2-0.4,0.3-0.6,0.3
	l0,0C49.3,236.7,49.1,236.6,49,236.5z"/>
<path class="dotted" d="M224.7,236.3c-0.3-0.3-0.3-0.8,0.1-1.1l0,0c0.3-0.3,0.8-0.3,1.1,0.1l0,0c0.3,0.3,0.3,0.8-0.1,1.1l0,0l0,0l0,0
	c-0.2,0.1-0.3,0.2-0.5,0.2l0,0C225,236.6,224.8,236.5,224.7,236.3z"/>
<path class="dotted" d="M44.6,232.3c-0.3-0.3-0.3-0.8,0-1.1l0,0c0.3-0.3,0.8-0.3,1.1,0v0c0.3,0.3,0.3,0.8,0,1.1l0,0c-0.1,0.2-0.3,0.2-0.5,0.2l0,0
	C44.9,232.6,44.7,232.5,44.6,232.3z"/>
<path class="dotted" d="M229.1,232.3c-0.3-0.3-0.3-0.8,0-1.1l0,0c0.3-0.3,0.8-0.3,1.1,0l0,0c0.3,0.3,0.3,0.8,0,1.1l0,0c-0.1,0.1-0.3,0.2-0.5,0.2
	l0,0C229.4,232.5,229.3,232.4,229.1,232.3z"/>
<path class="dotted" d="M40.3,228c-0.3-0.3-0.3-0.8,0-1.1l0,0c0.3-0.3,0.8-0.3,1.1,0l0,0c0.3,0.3,0.3,0.8,0,1.1l0,0c-0.1,0.1-0.3,0.2-0.5,0.2l0,0
	C40.7,228.3,40.5,228.2,40.3,228z"/>
<path class="dotted" d="M233.3,228c-0.3-0.3-0.3-0.8,0-1.1l0,0c0.3-0.3,0.8-0.3,1.1,0l0,0c0.3,0.3,0.3,0.8,0,1.1l0,0c-0.1,0.2-0.3,0.2-0.5,0.2l0,0
	C233.6,228.2,233.5,228.1,233.3,228z"/>
<path class="dotted" d="M36.3,223.5c-0.3-0.3-0.2-0.8,0.1-1.1l0,0c0.3-0.3,0.8-0.2,1.1,0.1l0,0c0.3,0.3,0.2,0.8-0.1,1.1l0,0
	c-0.1,0.1-0.3,0.2-0.5,0.2l0,0C36.7,223.8,36.5,223.7,36.3,223.5z"/>
<path class="dotted" d="M237.3,223.5c-0.3-0.3-0.3-0.8-0.1-1.1l0,0c0.3-0.3,0.7-0.4,1.1-0.1l0,0c0.3,0.3,0.3,0.7,0.1,1.1l0,0c0,0,0,0,0,0l0,0
	c-0.2,0.2-0.4,0.3-0.6,0.3l0,0C237.7,223.7,237.5,223.6,237.3,223.5z"/>
<path class="dotted" d="M32.5,218.8c-0.3-0.3-0.2-0.8,0.1-1.1l0,0c0.3-0.3,0.8-0.2,1.1,0.1l0,0c0.3,0.3,0.2,0.8-0.1,1.1l0,0
	c-0.1,0.1-0.3,0.2-0.5,0.2l0,0C32.9,219.1,32.7,219,32.5,218.8z"/>
<path class="dotted" d="M241.2,218.9c-0.3-0.3-0.4-0.7-0.1-1h0c0.3-0.3,0.7-0.4,1.1-0.1l0,0c0.3,0.3,0.4,0.7,0.1,1.1l0,0l0,0l0,0
	c-0.1,0.2-0.4,0.3-0.6,0.3l0,0C241.5,219,241.3,219,241.2,218.9z"/>
<path class="dotted" d="M28.9,214c-0.2-0.3-0.2-0.8,0.2-1l0,0c0.3-0.2,0.8-0.2,1,0.2l0,0c0.2,0.3,0.2,0.8-0.2,1l0,0c-0.1,0.1-0.3,0.1-0.4,0.1l0,0
	C29.3,214.3,29,214.2,28.9,214z"/>
<path class="dotted" d="M244.8,214.1c-0.3-0.2-0.4-0.7-0.2-1l0,0c0.2-0.3,0.7-0.4,1-0.2l0,0c0.3,0.2,0.4,0.7,0.2,1l0,0l0,0l0,0
	c-0.1,0.2-0.4,0.3-0.6,0.3l0,0C245.1,214.2,244.9,214.2,244.8,214.1z"/>
<path class="dotted" d="M25.5,209c-0.2-0.4-0.1-0.8,0.2-1l0,0c0.3-0.2,0.8-0.1,1,0.2l0,0c0.2,0.3,0.1,0.8-0.2,1l0,0c-0.1,0.1-0.3,0.1-0.4,0.1l0,0
	C25.9,209.3,25.7,209.2,25.5,209z"/>
<path class="dotted" d="M248.2,209.1c-0.4-0.2-0.5-0.7-0.2-1l0,0c0.2-0.3,0.7-0.5,1-0.2l0,0c0.4,0.2,0.5,0.7,0.2,1l0,0c-0.1,0.2-0.4,0.3-0.6,0.3
	l0,0C248.4,209.2,248.3,209.2,248.2,209.1z"/>
<path class="dotted" d="M22.4,203.8c-0.2-0.3-0.1-0.8,0.3-1l0,0c0.4-0.2,0.8-0.1,1,0.3l0,0c0.2,0.4,0.1,0.8-0.3,1l0,0c-0.1,0.1-0.3,0.1-0.4,0.1l0,0
	C22.8,204.2,22.5,204.1,22.4,203.8z"/>
<path class="dotted" d="M251.3,204c-0.4-0.2-0.5-0.7-0.3-1l0,0c0.2-0.4,0.7-0.5,1-0.3l0,0c0.4,0.2,0.5,0.7,0.3,1l0,0c-0.1,0.2-0.4,0.4-0.6,0.4l0,0
	C251.6,204.1,251.5,204,251.3,204z"/>
<path class="dotted" d="M19.5,198.6c-0.2-0.4-0.1-0.8,0.3-1l0,0c0.4-0.2,0.8,0,1,0.3l0,0c0.2,0.4,0,0.8-0.3,1l0,0c-0.1,0.1-0.2,0.1-0.4,0.1l0,0
	C19.9,199,19.6,198.8,19.5,198.6z"/>
<path class="dotted" d="M254.3,198.7c-0.4-0.2-0.5-0.7-0.3-1v0c0.2-0.4,0.6-0.5,1-0.3l0,0c0.4,0.2,0.5,0.7,0.3,1l0,0c-0.1,0.3-0.4,0.4-0.7,0.4l0,0
	C254.5,198.8,254.4,198.8,254.3,198.7z"/>
<path class="dotted" d="M16.8,193.1c-0.2-0.4,0-0.8,0.4-1l0,0c0.4-0.2,0.8,0,1,0.4l0,0c0.2,0.4,0,0.8-0.4,1l0,0c-0.1,0-0.2,0.1-0.3,0.1l0,0
	C17.2,193.6,16.9,193.4,16.8,193.1z"/>
<path class="dotted" d="M256.9,193.3c-0.4-0.2-0.5-0.6-0.4-1l0,0c0.2-0.4,0.6-0.5,1-0.4l0,0c0.4,0.2,0.5,0.6,0.4,1l0,0c-0.1,0.3-0.4,0.4-0.7,0.4
	l0,0C257.1,193.4,257,193.4,256.9,193.3z"/>
<path class="dotted" d="M14.4,187.6c-0.1-0.4,0-0.8,0.4-1l0,0c0.4-0.2,0.8,0,1,0.4l0,0c0.2,0.4,0,0.8-0.4,1l0,0c-0.1,0-0.2,0-0.3,0l0,0
	C14.8,188.1,14.5,187.9,14.4,187.6z"/>
<path class="dotted" d="M259.4,187.8c-0.4-0.2-0.6-0.6-0.4-1h0c0.2-0.4,0.6-0.6,1-0.4l0,0c0.4,0.2,0.6,0.6,0.4,1l0,0c-0.1,0.3-0.4,0.5-0.7,0.5l0,0
	C259.5,187.9,259.5,187.8,259.4,187.8z"/>
<path class="dotted" d="M12.2,182c-0.1-0.4,0.1-0.8,0.5-1l0,0c0.4-0.1,0.8,0.1,1,0.5l0,0c0.1,0.4-0.1,0.8-0.5,1l0,0c-0.1,0-0.2,0-0.3,0l0,0
	C12.6,182.5,12.3,182.3,12.2,182z"/>
<path class="dotted" d="M261.5,182.2c-0.4-0.1-0.6-0.6-0.5-1l0,0c0.1-0.4,0.6-0.6,1-0.5l0,0c0.4,0.1,0.6,0.6,0.5,1l0,0c-0.1,0.3-0.4,0.5-0.7,0.5
	l0,0C261.7,182.2,261.6,182.2,261.5,182.2z"/>
<path class="dotted" d="M10.3,176.2c-0.1-0.4,0.1-0.8,0.5-0.9l0,0c0.4-0.1,0.8,0.1,0.9,0.5l0,0c0.1,0.4-0.1,0.8-0.5,0.9l0,0c-0.1,0-0.1,0-0.2,0l0,0
	C10.7,176.8,10.4,176.6,10.3,176.2z"/>
<path class="dotted" d="M263.5,176.5c-0.4-0.1-0.6-0.5-0.5-0.9l0,0c0.1-0.4,0.5-0.6,0.9-0.5l0,0c0.4,0.1,0.6,0.5,0.5,0.9l0,0l0,0l0,0
	c-0.1,0.3-0.4,0.5-0.7,0.5l0,0C263.6,176.5,263.5,176.5,263.5,176.5z"/>
<path class="dotted" d="M8.7,170.4c-0.1-0.4,0.1-0.8,0.5-0.9l0,0c0.4-0.1,0.8,0.1,0.9,0.5l0,0c0.1,0.4-0.1,0.8-0.5,0.9l0,0c-0.1,0-0.1,0-0.2,0l0,0
	C9.1,171,8.8,170.8,8.7,170.4z"/>
<path class="dotted" d="M265.1,170.7c-0.4-0.1-0.6-0.5-0.5-0.9h0c0.1-0.4,0.5-0.7,0.9-0.5l0,0c0.4,0.1,0.6,0.5,0.5,0.9l0,0l0,0l0,0
	c-0.1,0.3-0.4,0.6-0.7,0.6l0,0C265.2,170.7,265.2,170.7,265.1,170.7z"/>
<path class="dotted" d="M7.3,164.5L7.3,164.5L7.3,164.5c-0.1-0.4,0.2-0.8,0.6-0.9l0,0c0.4-0.1,0.8,0.2,0.9,0.6l0,0c0.1,0.4-0.2,0.8-0.6,0.9l0,0
	c0,0-0.1,0-0.1,0l0,0C7.7,165.1,7.4,164.9,7.3,164.5z"/>
<path class="dotted" d="M266.5,164.9c-0.4-0.1-0.7-0.5-0.6-0.9l0,0c0.1-0.4,0.5-0.7,0.9-0.6l0,0c0.4,0.1,0.7,0.5,0.6,0.9l0,0
	c-0.1,0.3-0.4,0.6-0.7,0.6l0,0C266.6,164.9,266.5,164.9,266.5,164.9z"/>
<path class="dotted" d="M6.2,158.6L6.2,158.6L6.2,158.6c-0.1-0.4,0.2-0.8,0.6-0.9l0,0c0.4-0.1,0.8,0.2,0.9,0.6l0,0c0.1,0.4-0.2,0.8-0.6,0.9l0,0
	c0,0-0.1,0-0.1,0l0,0C6.6,159.2,6.3,159,6.2,158.6z"/>
<path class="dotted" d="M267.6,159c-0.4-0.1-0.7-0.5-0.6-0.9v0c0.1-0.4,0.5-0.7,0.9-0.6l0,0c0.4,0.1,0.7,0.5,0.6,0.9l0,0l0,0l0,0
	c-0.1,0.4-0.4,0.6-0.7,0.6l0,0C267.7,159,267.6,159,267.6,159z"/>
<path class="dotted" d="M5.4,152.6c-0.1-0.4,0.3-0.8,0.7-0.8l0,0c0.4,0,0.8,0.3,0.8,0.7l0,0c0,0.4-0.3,0.8-0.7,0.8l0,0c0,0-0.1,0-0.1,0l0,0
	C5.8,153.3,5.5,153,5.4,152.6z"/>
<path class="dotted" d="M268.4,153c-0.4,0-0.7-0.4-0.7-0.8l0,0c0-0.4,0.4-0.7,0.8-0.7l0,0c0.4,0,0.7,0.4,0.7,0.8l0,0
	C269.2,152.7,268.9,153,268.4,153L268.4,153C268.5,153,268.5,153,268.4,153z"/>
<path class="dotted" d="M4.9,146.6L4.9,146.6L4.9,146.6c0-0.4,0.3-0.8,0.7-0.8l0,0c0.4,0,0.8,0.3,0.8,0.7l0,0c0,0.4-0.3,0.8-0.7,0.8l0,0
	c0,0,0,0-0.1,0l0,0C5.2,147.3,4.9,147,4.9,146.6z"/>
<path class="dotted" d="M269,147c-0.4,0-0.7-0.4-0.7-0.8l0,0c0-0.4,0.4-0.7,0.8-0.7l0,0c0.4,0,0.7,0.4,0.7,0.8l0,0C269.8,146.7,269.5,147,269,147
	L269,147C269,147,269,147,269,147z"/>
<path class="dotted" d="M4.6,140.5c0-0.4,0.3-0.8,0.7-0.8l0,0c0.4,0,0.8,0.3,0.8,0.7l0,0c0,0.4-0.3,0.8-0.7,0.8l0,0c0,0,0,0,0,0l0,0
	C4.9,141.3,4.6,141,4.6,140.5z"/>
<path class="dotted" d="M269.3,141c-0.4,0-0.7-0.3-0.7-0.8l0,0c0-0.4,0.3-0.7,0.8-0.7l0,0c0.4,0,0.7,0.4,0.7,0.8l0,0l0,0l0,0
	C270.1,140.7,269.7,141,269.3,141L269.3,141C269.3,141,269.3,141,269.3,141z"/>
<path class="dotted" d="M5.3,135.3c-0.4,0-0.7-0.4-0.7-0.8l0,0c0-0.4,0.4-0.7,0.8-0.7l0,0c0.4,0,0.8,0.3,0.7,0.8l0,0C6.1,134.9,5.7,135.3,5.3,135.3
	L5.3,135.3C5.3,135.3,5.3,135.3,5.3,135.3z"/>
<path class="dotted" d="M268.6,134.3L268.6,134.3c0-0.4,0.3-0.8,0.7-0.8l0,0c0.4,0,0.8,0.3,0.8,0.7l0,0c0,0.4-0.3,0.8-0.7,0.8l0,0h0l0,0
	C268.9,135,268.6,134.7,268.6,134.3z"/>
<path class="dotted" d="M5.5,129.3c-0.4,0-0.7-0.4-0.7-0.8l0,0c0-0.4,0.4-0.7,0.8-0.7l0,0c0.4,0,0.7,0.4,0.7,0.8l0,0C6.3,129,6,129.3,5.5,129.3
	L5.5,129.3C5.6,129.3,5.6,129.3,5.5,129.3z"/>
<path class="dotted" d="M268.3,128.3c0-0.4,0.3-0.8,0.7-0.8l0,0c0.4,0,0.8,0.3,0.8,0.7l0,0c0,0.4-0.3,0.8-0.7,0.8l0,0c0,0,0,0,0,0l0,0
	C268.7,129,268.3,128.7,268.3,128.3z"/>
<path class="dotted" d="M6,123.3c-0.4,0-0.7-0.4-0.7-0.8l0,0c0,0,0,0,0,0l0,0c0-0.4,0.4-0.7,0.8-0.7l0,0c0.4,0,0.7,0.4,0.7,0.8l0,0
	C6.8,123,6.5,123.3,6,123.3L6,123.3C6.1,123.3,6.1,123.3,6,123.3z"/>
<path class="dotted" d="M267.8,122.4c0-0.4,0.2-0.8,0.7-0.8l0,0c0.4,0,0.8,0.3,0.8,0.7l0,0c0,0.4-0.3,0.8-0.7,0.8l0,0c0,0-0.1,0-0.1,0l0,0
	C268.1,123,267.8,122.7,267.8,122.4z"/>
<path class="dotted" d="M6.8,117.3c-0.4-0.1-0.7-0.4-0.6-0.9l0,0l0,0l0,0c0.1-0.4,0.5-0.7,0.9-0.6l0,0c0.4,0.1,0.7,0.5,0.6,0.9l0,0
	c-0.1,0.4-0.4,0.6-0.7,0.6l0,0C6.9,117.3,6.8,117.3,6.8,117.3z"/>
<path class="dotted" d="M267,116.4L267,116.4c-0.1-0.4,0.2-0.8,0.6-0.9l0,0c0.4-0.1,0.8,0.2,0.9,0.6l0,0l0,0l0,0c0.1,0.4-0.2,0.8-0.6,0.9l0,0
	c0,0-0.1,0-0.1,0l0,0C267.3,117.1,267,116.8,267,116.4z"/>
<path class="dotted" d="M7.8,111.4c-0.4-0.1-0.7-0.5-0.6-0.9l0,0c0.1-0.4,0.5-0.7,0.9-0.6l0,0c0.4,0.1,0.7,0.5,0.6,0.9l0,0
	c-0.1,0.4-0.4,0.6-0.7,0.6l0,0C7.9,111.4,7.9,111.4,7.8,111.4z"/>
<path class="dotted" d="M265.9,110.6c-0.1-0.4,0.2-0.8,0.6-0.9l0,0c0.4-0.1,0.8,0.2,0.9,0.6l0,0c0.1,0.4-0.2,0.8-0.6,0.9l0,0c0,0-0.1,0-0.2,0l0,0
	C266.3,111.2,266,110.9,265.9,110.6z"/>
<path class="dotted" d="M9.1,105.5c-0.4-0.1-0.6-0.5-0.5-0.9l0,0c0.1-0.4,0.5-0.6,0.9-0.5l0,0c0.4,0.1,0.6,0.5,0.5,0.9l0,0
	c-0.1,0.3-0.4,0.6-0.7,0.6l0,0C9.3,105.5,9.2,105.5,9.1,105.5z"/>
<path class="dotted" d="M264.5,104.7c-0.1-0.4,0.1-0.8,0.5-0.9l0,0c0.4-0.1,0.8,0.1,0.9,0.5l0,0c0.1,0.4-0.1,0.8-0.5,0.9l0,0c-0.1,0-0.1,0-0.2,0
	l0,0C264.9,105.3,264.6,105.1,264.5,104.7z"/>
<path class="dotted" d="M10.7,99.7c-0.4-0.1-0.6-0.5-0.5-0.9l0,0c0.1-0.4,0.5-0.6,0.9-0.5l0,0c0.4,0.1,0.6,0.5,0.5,0.9l0,0
	c-0.1,0.3-0.4,0.5-0.7,0.5l0,0C10.9,99.8,10.8,99.8,10.7,99.7z"/>
<path class="dotted" d="M262.9,99L262.9,99c-0.1-0.4,0.1-0.8,0.5-0.9l0,0c0.4-0.1,0.8,0.1,0.9,0.5l0,0c0.1,0.4-0.1,0.8-0.5,0.9l0,0
	c-0.1,0-0.1,0-0.2,0l0,0C263.3,99.5,263,99.3,262.9,99z"/>
<path class="dotted" d="M12.6,94c-0.4-0.1-0.6-0.6-0.5-0.9l0,0c0.1-0.4,0.6-0.6,1-0.5l0,0c0.4,0.1,0.6,0.6,0.5,1l0,0c-0.1,0.3-0.4,0.5-0.7,0.5l0,0
	C12.7,94,12.6,94,12.6,94z"/>
<path class="dotted" d="M261,93.3L261,93.3c-0.1-0.4,0.1-0.8,0.5-1l0,0c0.4-0.1,0.8,0.1,1,0.5l0,0l0,0l0,0c0.1,0.4-0.1,0.8-0.5,1l0,0
	c-0.1,0-0.2,0-0.3,0l0,0C261.5,93.8,261.2,93.6,261,93.3z"/>
<path class="dotted" d="M14.7,88.3c-0.4-0.2-0.6-0.6-0.4-1l0,0c0.1-0.4,0.6-0.6,1-0.4l0,0c0.4,0.2,0.6,0.6,0.4,1l0,0c-0.1,0.3-0.4,0.5-0.7,0.5l0,0
	C14.9,88.4,14.8,88.4,14.7,88.3z"/>
<path class="dotted" d="M258.9,87.7L258.9,87.7c-0.2-0.4,0-0.8,0.4-1l0,0c0.4-0.2,0.8,0,1,0.4l0,0c0.2,0.4,0,0.8-0.4,1l0,0c-0.1,0-0.2,0.1-0.3,0.1
	l0,0C259.3,88.2,259,88,258.9,87.7z"/>
<path class="dotted" d="M17,82.8c-0.4-0.2-0.5-0.6-0.4-1l0,0c0.2-0.4,0.6-0.5,1-0.4l0,0c0.4,0.2,0.5,0.6,0.4,1l0,0c-0.1,0.3-0.4,0.4-0.7,0.4l0,0
	C17.3,82.9,17.1,82.9,17,82.8z"/>
<path class="dotted" d="M256.5,82.3c-0.2-0.4,0-0.8,0.4-1l0,0c0.4-0.2,0.8,0,1,0.4l0,0c0.2,0.4,0,0.8-0.4,1l0,0c-0.1,0-0.2,0.1-0.3,0.1l0,0
	C256.9,82.7,256.7,82.5,256.5,82.3z"/>
<path class="dotted" d="M19.6,77.4c-0.4-0.2-0.5-0.6-0.3-1l0,0c0.2-0.4,0.7-0.5,1-0.3l0,0c0.4,0.2,0.5,0.6,0.3,1l0,0c-0.1,0.3-0.4,0.4-0.7,0.4l0,0
	C19.9,77.5,19.8,77.4,19.6,77.4z"/>
<path class="dotted" d="M253.9,76.9c-0.2-0.4-0.1-0.8,0.3-1l0,0c0.4-0.2,0.8-0.1,1,0.3l0,0c0.2,0.4,0,0.8-0.3,1l0,0c-0.1,0.1-0.2,0.1-0.3,0.1l0,0
	C254.3,77.3,254,77.2,253.9,76.9z"/>
<path class="dotted" d="M22.5,72.1c-0.4-0.2-0.5-0.7-0.3-1l0,0c0.2-0.4,0.7-0.5,1-0.3l0,0c0.4,0.2,0.5,0.7,0.3,1l0,0c-0.1,0.2-0.4,0.4-0.7,0.4l0,0
	C22.8,72.2,22.6,72.2,22.5,72.1z"/>
<path class="dotted" d="M251,71.7c-0.2-0.4-0.1-0.8,0.3-1l0,0c0.4-0.2,0.8-0.1,1,0.3l0,0c0.2,0.4,0.1,0.8-0.3,1l0,0c-0.1,0.1-0.3,0.1-0.4,0.1l0,0
	C251.4,72,251.2,71.9,251,71.7z"/>
<path class="dotted" d="M25.6,66.9c-0.4-0.2-0.5-0.7-0.2-1l0,0c0.2-0.4,0.7-0.5,1-0.2l0,0c0.4,0.2,0.4,0.7,0.2,1l0,0C26.5,66.9,26.3,67,26,67l0,0
	C25.9,67,25.7,67,25.6,66.9z"/>
<path class="dotted" d="M247.9,66.6L247.9,66.6c-0.2-0.3-0.1-0.8,0.2-1l0,0c0.3-0.2,0.8-0.1,1,0.2l0,0c0.2,0.3,0.1,0.8-0.2,1l0,0
	c-0.1,0.1-0.3,0.1-0.4,0.1l0,0C248.3,66.9,248.1,66.8,247.9,66.6z"/>
<path class="dotted" d="M28.9,61.9c-0.3-0.2-0.4-0.7-0.2-1l0,0l0,0l0,0c0.2-0.3,0.7-0.4,1-0.2l0,0c0.3,0.2,0.4,0.7,0.2,1l0,0
	c-0.2,0.2-0.4,0.3-0.6,0.3l0,0C29.2,62.1,29.1,62,28.9,61.9z"/>
<path class="dotted" d="M244.6,61.6c-0.2-0.3-0.2-0.8,0.2-1l0,0c0.3-0.2,0.8-0.2,1,0.2l0,0c0.2,0.3,0.1,0.8-0.2,1l0,0c-0.1,0.1-0.3,0.1-0.4,0.1l0,0
	C245,61.9,244.8,61.8,244.6,61.6z"/>
<path class="dotted" d="M32.5,57.1c-0.3-0.3-0.4-0.7-0.1-1.1l0,0c0.3-0.3,0.7-0.4,1.1-0.1l0,0c0.3,0.3,0.4,0.7,0.1,1.1v0c-0.2,0.2-0.4,0.3-0.6,0.3
	l0,0C32.8,57.2,32.6,57.2,32.5,57.1z"/>
<path class="dotted" d="M241,56.8c-0.3-0.3-0.2-0.8,0.1-1.1l0,0c0.3-0.3,0.8-0.2,1,0.1l0,0c0.3,0.3,0.2,0.8-0.1,1.1l0,0c-0.1,0.1-0.3,0.2-0.5,0.2
	l0,0C241.4,57.1,241.2,57,241,56.8z"/>
<path class="dotted" d="M36.3,52.4c-0.3-0.3-0.4-0.7-0.1-1.1l0,0c0,0,0,0,0,0l0,0c0.3-0.3,0.8-0.4,1.1-0.1l0,0c0.3,0.3,0.4,0.7,0.1,1.1v0
	c-0.2,0.2-0.4,0.3-0.6,0.3l0,0C36.6,52.6,36.4,52.5,36.3,52.4z"/>
<path class="dotted" d="M237.3,52.2c-0.3-0.3-0.2-0.8,0.1-1l0,0c0.3-0.3,0.8-0.2,1.1,0.1l0,0l0,0l0,0c0.3,0.3,0.2,0.8-0.1,1.1l0,0
	c-0.1,0.1-0.3,0.2-0.5,0.2l0,0C237.6,52.5,237.4,52.4,237.3,52.2z"/>
<path class="dotted" d="M40.2,47.9c-0.3-0.3-0.3-0.8,0-1.1l0,0l0,0l0,0c0.3-0.3,0.8-0.3,1.1,0l0,0c0.3,0.3,0.3,0.8,0,1.1l0,0
	c-0.1,0.2-0.4,0.2-0.5,0.2l0,0C40.5,48.1,40.4,48,40.2,47.9z"/>
<path class="dotted" d="M233.3,47.8L233.3,47.8c-0.3-0.3-0.3-0.8,0-1.1l0,0c0.3-0.3,0.8-0.3,1.1,0l0,0l0,0l0,0c0.3,0.3,0.3,0.8,0,1.1l0,0
	c-0.1,0.1-0.3,0.2-0.5,0.2l0,0C233.6,48,233.4,47.9,233.3,47.8z"/>
<path class="dotted" d="M44.4,43.5c-0.3-0.3-0.3-0.8,0-1.1l0,0c0.3-0.3,0.8-0.3,1.1,0l0,0c0.3,0.3,0.3,0.8,0,1.1l0,0c-0.1,0.1-0.3,0.2-0.5,0.2l0,0
	C44.7,43.8,44.5,43.7,44.4,43.5z"/>
<path class="dotted" d="M229.1,43.5c-0.3-0.3-0.3-0.8,0-1.1l0,0c0.3-0.3,0.8-0.3,1.1,0l0,0c0.3,0.3,0.3,0.8,0,1.1l0,0c-0.1,0.1-0.3,0.2-0.5,0.2l0,0
	C229.5,43.7,229.3,43.6,229.1,43.5z"/>
<path class="dotted" d="M48.8,39.4c-0.3-0.3-0.3-0.8,0.1-1.1l0,0c0.3-0.3,0.8-0.3,1.1,0.1l0,0c0.3,0.3,0.3,0.8-0.1,1.1l0,0
	c-0.1,0.1-0.3,0.2-0.5,0.2l0,0C49.1,39.7,48.9,39.6,48.8,39.4z"/>
<path class="dotted" d="M224.8,39.4c-0.3-0.3-0.3-0.8-0.1-1.1l0,0c0.3-0.3,0.8-0.3,1.1-0.1l0,0c0,0,0,0,0,0l0,0c0.3,0.3,0.3,0.8,0,1.1l0,0
	c-0.1,0.2-0.3,0.3-0.6,0.3l0,0C225.1,39.6,224.9,39.5,224.8,39.4z"/>
<path class="dotted" d="M53.3,35.5c-0.3-0.3-0.2-0.8,0.1-1.1l0,0l0,0l0,0c0.3-0.3,0.8-0.2,1.1,0.1l0,0c0.3,0.3,0.2,0.8-0.1,1.1l0,0
	c-0.1,0.1-0.3,0.2-0.5,0.2l0,0C53.7,35.8,53.4,35.7,53.3,35.5z"/>
<path class="dotted" d="M220.2,35.5L220.2,35.5c-0.3-0.3-0.4-0.7-0.1-1l0,0c0.3-0.3,0.7-0.4,1.1-0.1l0,0c0.3,0.3,0.4,0.7,0.1,1.1l0,0
	c-0.2,0.2-0.4,0.3-0.6,0.3l0,0C220.5,35.7,220.3,35.6,220.2,35.5z"/>
<path class="dotted" d="M58,31.8c-0.3-0.3-0.2-0.8,0.1-1l0,0c0.3-0.2,0.8-0.2,1,0.2l0,0c0.3,0.3,0.2,0.8-0.1,1.1l0,0c-0.1,0.1-0.3,0.1-0.5,0.1l0,0
	C58.4,32.1,58.2,32,58,31.8z"/>
<path class="dotted" d="M215.5,31.8L215.5,31.8c-0.3-0.3-0.4-0.7-0.2-1l0,0c0.3-0.3,0.7-0.4,1-0.2l0,0c0,0,0,0,0,0l0,0c0.3,0.3,0.4,0.7,0.2,1.1l0,0
	c-0.2,0.2-0.4,0.3-0.6,0.3l0,0C215.8,32,215.6,31.9,215.5,31.8z"/>
<path class="dotted" d="M62.9,28.3c-0.2-0.3-0.1-0.8,0.2-1l0,0c0.3-0.2,0.8-0.1,1,0.2l0,0c0.2,0.4,0.1,0.8-0.2,1l0,0c-0.1,0.1-0.3,0.1-0.4,0.1l0,0
	C63.3,28.6,63,28.5,62.9,28.3z"/>
<path class="dotted" d="M210.6,28.4c-0.3-0.2-0.4-0.7-0.2-1l0,0c0.2-0.3,0.7-0.4,1-0.2l0,0c0.4,0.2,0.4,0.7,0.2,1l0,0c-0.1,0.2-0.4,0.3-0.6,0.3l0,0
	C210.9,28.5,210.7,28.5,210.6,28.4z"/>
<path class="dotted" d="M67.9,25c-0.2-0.4-0.1-0.8,0.3-1l0,0c0.4-0.2,0.8-0.1,1,0.2l0,0c0.2,0.4,0.1,0.8-0.3,1l0,0c-0.1,0.1-0.3,0.1-0.4,0.1l0,0
	C68.3,25.3,68.1,25.2,67.9,25z"/>
<path class="dotted" d="M205.6,25.2L205.6,25.2c-0.3-0.2-0.5-0.7-0.3-1l0,0c0.2-0.4,0.7-0.5,1-0.3l0,0c0.4,0.2,0.5,0.7,0.3,1l0,0
	c-0.1,0.2-0.4,0.4-0.6,0.4l0,0C205.8,25.3,205.7,25.2,205.6,25.2z"/>
<path class="dotted" d="M73.1,21.9c-0.2-0.4-0.1-0.8,0.3-1l0,0c0.4-0.2,0.8-0.1,1,0.3l0,0c0.2,0.4,0.1,0.8-0.3,1l0,0c-0.1,0.1-0.2,0.1-0.4,0.1l0,0
	C73.5,22.3,73.2,22.2,73.1,21.9z"/>
<path class="dotted" d="M200.4,22.2L200.4,22.2c-0.4-0.2-0.5-0.7-0.3-1l0,0c0.2-0.4,0.7-0.5,1-0.3l0,0c0.4,0.2,0.5,0.7,0.3,1l0,0
	c-0.1,0.3-0.4,0.4-0.7,0.4l0,0C200.6,22.3,200.5,22.2,200.4,22.2z"/>
<path class="dotted" d="M78.4,19.1c-0.2-0.4,0-0.8,0.3-1l0,0c0.4-0.2,0.8,0,1,0.3l0,0c0.2,0.4,0,0.8-0.3,1l0,0c-0.1,0.1-0.2,0.1-0.3,0.1l0,0
	C78.8,19.6,78.5,19.4,78.4,19.1z"/>
<path class="dotted" d="M195.1,19.4c-0.4-0.2-0.5-0.6-0.3-1l0,0c0.2-0.4,0.6-0.5,1-0.4l0,0l0,0l0,0c0.4,0.2,0.5,0.6,0.3,1l0,0
	c-0.1,0.3-0.4,0.4-0.7,0.4l0,0C195.3,19.5,195.2,19.4,195.1,19.4z"/>
<path class="dotted" d="M83.8,16.6c-0.2-0.4,0-0.8,0.4-1l0,0l0,0l0,0c0.4-0.2,0.8,0,1,0.4l0,0c0.2,0.4,0,0.8-0.4,1l0,0C84.7,17,84.6,17,84.5,17l0,0
	C84.2,17,83.9,16.9,83.8,16.6z"/>
<path class="dotted" d="M189.6,16.9L189.6,16.9c-0.4-0.2-0.6-0.6-0.4-1l0,0c0.2-0.4,0.6-0.6,1-0.4l0,0c0.4,0.2,0.5,0.6,0.4,1l0,0
	c-0.1,0.3-0.4,0.4-0.7,0.4l0,0C189.8,16.9,189.8,16.9,189.6,16.9z"/>
<path class="dotted" d="M89.4,14.3c-0.1-0.4,0-0.8,0.4-1l0,0c0.4-0.2,0.8,0,1,0.4l0,0c0.1,0.4,0,0.8-0.4,1l0,0c-0.1,0-0.2,0-0.3,0l0,0
	C89.8,14.8,89.5,14.6,89.4,14.3z"/>
<path class="dotted" d="M184.1,14.6L184.1,14.6c-0.4-0.1-0.6-0.6-0.4-1l0,0c0.1-0.4,0.6-0.6,1-0.4l0,0c0.4,0.1,0.6,0.6,0.4,1l0,0
	c-0.1,0.3-0.4,0.5-0.7,0.5l0,0C184.3,14.7,184.2,14.7,184.1,14.6z"/>
<path class="dotted" d="M95,12.2c-0.1-0.4,0.1-0.8,0.5-1l0,0c0.4-0.1,0.8,0.1,0.9,0.5l0,0c0.1,0.4-0.1,0.8-0.5,0.9l0,0c-0.1,0-0.2,0-0.2,0l0,0
	C95.4,12.7,95.1,12.5,95,12.2z"/>
<path class="dotted" d="M178.5,12.6L178.5,12.6c-0.4-0.1-0.6-0.5-0.5-0.9l0,0c0.1-0.4,0.6-0.6,1-0.5l0,0l0,0l0,0c0.4,0.1,0.6,0.6,0.5,0.9l0,0
	c-0.1,0.3-0.4,0.5-0.7,0.5l0,0C178.6,12.7,178.5,12.6,178.5,12.6z"/>
<path class="dotted" d="M100.8,10.4c-0.1-0.4,0.1-0.8,0.5-0.9l0,0c0.4-0.1,0.8,0.1,0.9,0.5l0,0c0.1,0.4-0.1,0.8-0.5,0.9l0,0c-0.1,0-0.1,0-0.2,0l0,0
	C101.1,11,100.8,10.8,100.8,10.4z"/>
<path class="dotted" d="M172.7,10.9L172.7,10.9c-0.4-0.1-0.6-0.5-0.5-0.9l0,0c0.1-0.4,0.5-0.6,0.9-0.5l0,0l0,0l0,0c0.4,0.1,0.6,0.5,0.5,0.9l0,0
	c-0.1,0.3-0.4,0.5-0.7,0.5l0,0C172.9,10.9,172.8,10.9,172.7,10.9z"/>
<path class="dotted" d="M106.6,8.9c-0.1-0.4,0.1-0.8,0.6-0.9l0,0c0.4-0.1,0.8,0.2,0.9,0.6l0,0c0.1,0.4-0.2,0.8-0.6,0.9l0,0c-0.1,0-0.1,0-0.2,0l0,0
	C106.9,9.5,106.6,9.3,106.6,8.9z"/>
<path class="dotted" d="M167,9.4c-0.4-0.1-0.7-0.5-0.6-0.9l0,0c0.1-0.4,0.5-0.7,0.9-0.6l0,0c0.4,0.1,0.7,0.5,0.6,0.9l0,0c-0.1,0.4-0.4,0.6-0.7,0.6
	l0,0C167.1,9.4,167,9.4,167,9.4z"/>
<path class="dotted" d="M112.4,7.6c-0.1-0.4,0.2-0.8,0.6-0.9l0,0c0.4-0.1,0.8,0.2,0.9,0.6l0,0c0.1,0.4-0.2,0.8-0.6,0.9l0,0c-0.1,0-0.1,0-0.1,0l0,0
	C112.8,8.3,112.5,8,112.4,7.6z"/>
<path class="dotted" d="M161.1,8.2c-0.4-0.1-0.7-0.5-0.6-0.9l0,0c0.1-0.4,0.5-0.7,0.9-0.6l0,0c0.4,0.1,0.7,0.5,0.6,0.9l0,0
	c-0.1,0.4-0.4,0.6-0.7,0.6l0,0C161.2,8.2,161.1,8.2,161.1,8.2z"/>
<path class="dotted" d="M118.4,6.6c-0.1-0.4,0.2-0.8,0.6-0.9l0,0c0.4,0,0.8,0.2,0.8,0.6l0,0c0.1,0.4-0.2,0.8-0.6,0.9l0,0c0,0-0.1,0-0.1,0l0,0
	C118.7,7.3,118.4,7,118.4,6.6z"/>
<path class="dotted" d="M155.2,7.3L155.2,7.3c-0.4-0.1-0.7-0.4-0.6-0.9l0,0c0-0.4,0.4-0.7,0.8-0.6l0,0c0,0,0,0,0,0l0,0c0.4,0,0.7,0.4,0.6,0.8l0,0
	C156,7,155.7,7.3,155.2,7.3L155.2,7.3C155.3,7.3,155.2,7.3,155.2,7.3z"/>
<path class="dotted" d="M124.3,5.9c0-0.4,0.3-0.8,0.7-0.8l0,0c0.4,0,0.8,0.3,0.8,0.7l0,0c0,0.4-0.3,0.8-0.7,0.8l0,0c0,0,0,0-0.1,0l0,0
	C124.7,6.6,124.4,6.3,124.3,5.9z"/>
<path class="dotted" d="M149.3,6.6c-0.4,0-0.7-0.4-0.7-0.8l0,0c0-0.4,0.4-0.7,0.8-0.7l0,0c0.4,0,0.7,0.4,0.7,0.8l0,0C150,6.3,149.7,6.6,149.3,6.6
	L149.3,6.6C149.3,6.6,149.3,6.6,149.3,6.6z"/>
<path class="dotted" d="M130.3,5.5c0-0.4,0.3-0.8,0.7-0.8l0,0c0,0,0,0,0,0l0,0c0.4,0,0.8,0.3,0.8,0.7l0,0c0,0.4-0.3,0.8-0.7,0.8l0,0c0,0,0,0,0,0
	l0,0C130.7,6.2,130.3,5.9,130.3,5.5z"/>
<path class="dotted" d="M143.3,6.2c-0.4,0-0.7-0.4-0.7-0.8l0,0c0-0.4,0.4-0.7,0.8-0.7l0,0c0.4,0,0.7,0.4,0.7,0.8l0,0C144.1,5.9,143.7,6.2,143.3,6.2
	L143.3,6.2C143.3,6.2,143.3,6.2,143.3,6.2z"/>
<path class="dotted" d="M137.2,6c0,0-0.1,0-0.1,0l0,0c-0.4,0-0.8-0.3-0.8-0.8l0,0c0-0.4,0.3-0.8,0.8-0.8l0,0c0,0,0.1,0,0.1,0l0,0c0,0,0.1,0,0.1,0
	l0,0c0.4,0,0.8,0.3,0.8,0.8l0,0c0,0.4-0.3,0.8-0.8,0.8l0,0C137.3,6,137.2,6,137.2,6z"/>
</svg>
