<svg id="city" xmlns="http://www.w3.org/2000/svg" xmlns:xlink="http://www.w3.org/1999/xlink" viewBox="0 0 1601 352.13">
  <defs>
    <style>
      .cls-1 {
        fill: url(#linear-gradient);
      }

      .cls-2 {
        fill: url(#linear-gradient-2);
      }

      .cls-3 {
        fill: #44495e;
      }
    </style>
    <linearGradient id="linear-gradient" x1="323.28" y1="822.49" x2="323.28" y2="546.88" gradientUnits="userSpaceOnUse">
      <stop offset="0" stop-color="#7b84ab" stop-opacity="0"/>
      <stop offset="0.14" stop-color="#6e7699" stop-opacity="0.24"/>
      <stop offset="0.37" stop-color="#5c627f" stop-opacity="0.57"/>
      <stop offset="0.6" stop-color="#4f546d" stop-opacity="0.81"/>
      <stop offset="0.81" stop-color="#474c62" stop-opacity="0.95"/>
      <stop offset="1" stop-color="#44495e"/>
    </linearGradient>
    <linearGradient id="linear-gradient-2" x1="1166.5" y1="349.37" x2="1166.5" y2="106.37" xlink:href="#linear-gradient"/>
  </defs>
  <title>city2</title>
  <g>
    <path class="cls-1" d="M219.54,824.49H585.4L637.8,676c-94.73-7.51-145.59,28-169.41,53.33-29.48-72.82-92.91-163.58-227.65-180.42,0,0,24,28.23,47.78,84.14l0,0s4.37,9.66,9.85,24.95a0.61,0.61,0,0,0,0,.09q1.12,3.1,2.27,6.51c1,2.8,2,5.52,2.94,8.42l-0.19-.11c6.49,20.26,13.21,46.06,15.83,72.33,0,0-13.75-52.43-39.54-86.37l-0.74-.43c-32.88-18.3-85.91-36.29-167.39-36.26,0,0,16.25,14.55,38.05,47.72,0,0,39.72,54.66,43.72,110.75,0,0-26.09-57.22-56.38-90.21-71-11-128.24-3.69-128.24-3.69s61.4,47.42,102.63,137.8H219.54Z" transform="translate(1 -548.87)"/>
    <polygon class="cls-2" points="1601 192.13 1562.05 192.13 1524.5 143.13 1353 143.13 1353 173.13 1220 173.13 1220 153.13 1205 153.13 1205 126.13 1184 126.13 1184 108.13 1082 108.13 1082 126.13 1061 126.13 1061 153.13 918 153.13 918 180.13 835 180.13 835 157.13 820 157.13 820 142.13 811 142.13 811 125.13 789 125.13 789 142.13 780 142.13 780 157.13 765 157.13 765 180.13 732 180.13 732 249.13 855 249.13 855 351.13 1437 351.13 1437 311.13 1601 311.13 1601 192.13"/>
    <polygon class="cls-3" points="1499 229.13 1499 180.13 1319 180.13 1319 297.13 1252 297.13 1252 258.13 1237 258.13 1237 235.13 1157 235.13 1157 258.13 1103 258.13 1103 297.13 1088 297.13 1088 274.13 1027 274.13 1027 297.13 984 297.13 984 229.13 929 229.13 929 193.13 909 193.13 909 229.13 889 229.13 889 176.13 859 176.13 859 229.13 841 229.13 841 240.13 737 240.13 737 124.13 718 124.13 718 109.13 707 109.13 707 95.13 635 95.13 635 109.13 625 109.13 625 124.13 606 124.13 606 240.13 559 240.13 559 229.13 503 229.13 503 179.13 498 179.13 498 168.13 490 168.13 490 162.13 423 162.13 423 168.13 413 168.13 413 205.13 338 205.13 338 274.13 293 274.13 293 216.13 283 216.13 284 270.13 246 270.13 245 216.13 173 216.13 173 262.13 143 262.13 143 240.13 85 240.13 85 262.13 68 262.13 68 297.13 0 297.13 0 352.13 1600 352.13 1600 295.46 1600 229.13 1499 229.13"/>
  </g>
</svg>
