<?xml version="1.0" encoding="utf-8"?>
<!-- Generator: Adobe Illustrator 19.2.1, SVG Export Plug-In . SVG Version: 6.00 Build 0)  -->
<svg version="1.1" id="Layer_1" xmlns="http://www.w3.org/2000/svg" xmlns:xlink="http://www.w3.org/1999/xlink" x="0px" y="0px"
	 viewBox="0 0 2883.5 726.6" style="enable-background:new 0 0 2883.5 726.6;" xml:space="preserve">
<style type="text/css">
	.st0{fill:#E0E0E0;}
	.st1{fill:#FFFFFF;stroke:#2F404F;stroke-width:3;stroke-miterlimit:10;}
	.st2{fill:#2F404F;stroke:#2F404F;stroke-width:2;stroke-miterlimit:10;}
	.st3{fill:#FFFFFF;stroke:#2F404F;stroke-width:2;stroke-miterlimit:10;}
	.st4{fill:none;stroke:#2F404F;stroke-width:3;stroke-miterlimit:10;}
	.st5{fill:none;stroke:#2F404F;stroke-width:2;stroke-miterlimit:10;}
	.st6{fill:#FFFFFF;stroke:#2F404F;stroke-width:4;stroke-miterlimit:10;}
	.st7{fill:none;stroke:#2F404F;stroke-width:4;stroke-miterlimit:10;}
	.st8{fill:#2F404F;}
	.st9{fill:none;stroke:#2F404F;stroke-width:6;stroke-miterlimit:10;}
	.st10{fill:#FFFFFF;stroke:#2F404F;stroke-width:3.0091;stroke-miterlimit:10;}
	.st11{fill:#FFFFFF;stroke:#2F404F;stroke-width:2.893;stroke-miterlimit:10;}
	.st12{fill:none;stroke:#2F404F;stroke-width:2.6978;stroke-miterlimit:10;}
	.st13{fill:#FFFFFF;stroke:#2F404F;stroke-width:2.5218;stroke-miterlimit:10;}
	.st14{fill:#FFFFFF;stroke:#2F404F;stroke-width:2.8928;stroke-miterlimit:10;}
	.st15{fill:#1A535C;}
	.st16{fill:none;stroke:#1A535C;stroke-width:2;stroke-miterlimit:10;}
</style>
<path class="st0" d="M2178.8,555.7V416.5h-33v20.6h-9.3v115.5h-14.4v8.3h-14.4v-15.4h-33v-11.3h22.7v-7.3h-51.5v-20.6H2017V496h6.2
	v-8.3h-6.2v-3.1h-7.3v3.1h-42.3v8.3h42.3v10.3h-9.3v35h-100v-46.4h-35v-36.1h26.8v-7.3h-26.8v-4.1h-7.3v4.1H1787v7.3h71.1v36.1h-8.3
	v24.8h-7.3v29.8h-51.5v-19.6h-46.4v-20.6h-27.9v20.6h-13.4v-3.1H1691v-17.5h-6.2v17.5h-57.7v7.3h57.7v12.3h-48.5V568H1594v-38.1
	h-16.5v-80.4h-22v-57.7h-107.3v44.3h-112.3v80.4h-9.7v-12.2h-22.7v-13.4h-97.9v13.4H1187v-57.7h-40.2v-88.7h-15.4v-35h-26.8v-28.8
	h-65V323h-12.3v-59.9h-3.1v59.8h-11.3v35h-15.4v127.8H872.6v30.9H754.1v31.9l-24.2-0.2v-50.4l-48.2-0.6l0.2-72.5h-40.2v8.3h-17.5
	v154.6h-23.7v18.6h-31.9V727l1651.5,0.1V555.7H2178.8z M1703.5,546.4h-12.3V534h12.3V546.4z M2067.4,545.3h-21.7V534h21.7V545.3z"/>
<g>
	<rect x="1683" y="661.5" class="st1" width="91" height="64.3"/>
	<rect x="1661.3" y="657.5" class="st2" width="134.4" height="6.4"/>
	<rect x="1708.5" y="714.4" class="st3" width="39.9" height="12.3"/>
	<line class="st4" x1="1696.4" y1="715" x2="1760.4" y2="715"/>
	<line class="st5" x1="1668.9" y1="670.4" x2="1668.9" y2="727"/>
	<rect x="1660.5" y="677.2" class="st3" width="17" height="25.2"/>
</g>
<polygon class="st6" points="2506.1,457.7 2609.7,457.7 2625.2,489.9 2490.6,489.9 "/>
<line class="st7" x1="2499.7" y1="471" x2="2616.1" y2="471"/>
<polygon class="st6" points="2671.7,457.7 2775.3,457.7 2790.8,489.9 2656.2,489.9 "/>
<line class="st7" x1="2665.3" y1="471" x2="2781.7" y2="471"/>
<rect x="2472.6" y="490.5" class="st6" width="170.5" height="237.1"/>
<rect x="2585.4" y="506.5" class="st8" width="17.7" height="17.7"/>
<rect x="2611.4" y="506.5" class="st8" width="17.7" height="17.7"/>
<rect x="2585.4" y="532.5" class="st8" width="17.7" height="17.7"/>
<rect x="2611.4" y="532.5" class="st8" width="17.7" height="17.7"/>
<rect x="2585.4" y="558.5" class="st8" width="17.7" height="17.7"/>
<rect x="2611.4" y="558.5" class="st8" width="17.7" height="17.7"/>
<rect x="2585.4" y="584.5" class="st8" width="17.7" height="17.7"/>
<rect x="2611.4" y="584.5" class="st8" width="17.7" height="17.7"/>
<rect x="2585.4" y="610.5" class="st8" width="17.7" height="17.7"/>
<rect x="2611.4" y="610.5" class="st8" width="17.7" height="17.7"/>
<rect x="2585.4" y="636.6" class="st8" width="17.7" height="17.7"/>
<rect x="2611.4" y="636.6" class="st8" width="17.7" height="17.7"/>
<rect x="2585.4" y="662.6" class="st8" width="17.7" height="17.7"/>
<rect x="2611.4" y="662.6" class="st8" width="17.7" height="17.7"/>
<rect x="2585.4" y="688.6" class="st8" width="17.7" height="17.7"/>
<rect x="2611.4" y="688.6" class="st8" width="17.7" height="17.7"/>
<rect x="2643.1" y="490.5" class="st6" width="170.5" height="237.1"/>
<polygon class="st6" points="2502.1,424.7 2585.4,399.8 2585.4,727.6 2502.1,727.6 "/>
<rect x="2145.2" y="525.7" class="st6" width="323.6" height="200.9"/>
<rect x="2361.4" y="439.2" class="st6" width="170.5" height="288.4"/>
<rect x="2399" y="424.2" class="st6" width="93.8" height="15"/>
<g>
	<circle class="st9" cx="308.4" cy="425.6" r="27.4"/>
	<circle class="st9" cx="308.4" cy="426.6" r="237.9"/>
	<circle class="st9" cx="308.4" cy="426.6" r="200.8"/>
	<line class="st9" x1="308.4" y1="426.6" x2="378.9" y2="727.6"/>
	<line class="st9" x1="308.4" y1="426.6" x2="237.8" y2="727.6"/>
	<g id="wheelstar">
		<path class="st8" d="M548.4,306.6c3.3,0,6.5-0.9,9.3-2.5c8.9-5.1,12-16.6,6.8-25.4c-3.3-5.8-9.5-9.3-16.1-9.3
			c-3.3,0-6.5,0.9-9.3,2.5c-8.9,5.1-12,16.6-6.8,25.4C535.5,303,541.7,306.6,548.4,306.6z M543.3,279.3c1.5-0.9,3.3-1.3,5-1.3
			c3.6,0,6.9,1.9,8.7,5c2.8,4.8,1.1,10.9-3.7,13.7c-4.6,2.7-11,0.9-13.7-3.7C536.9,288.2,538.5,282,543.3,279.3z"/>
		<path class="st8" d="M68.4,583.7c3.3,0,6.5-0.9,9.3-2.5c8.9-5.1,12-16.6,6.8-25.5c-3.3-5.7-9.5-9.3-16.2-9.3
			c-3.3,0-6.5,0.9-9.3,2.5c-4.3,2.5-7.4,6.5-8.7,11.3s-0.6,9.8,1.9,14.1C55.6,580.1,61.8,583.7,68.4,583.7z M58.7,562.5
			c0.7-2.6,2.3-4.7,4.7-6.1c1.5-0.9,3.2-1.3,5-1.3c3.6,0,6.9,1.9,8.7,5c2.8,4.8,1.1,10.9-3.7,13.7c-4.7,2.7-11.1,0.9-13.7-3.7
			C58.4,567.8,58,565.1,58.7,562.5z"/>
		<path class="st8" d="M486.5,232.9c5.5,0,10.7-2.4,14.3-6.7c3.2-3.8,4.7-8.6,4.3-13.6c-0.4-5-2.8-9.4-6.6-12.6
			c-3.4-2.8-7.6-4.4-12-4.4c-5.5,0-10.7,2.4-14.3,6.7c-3.2,3.8-4.7,8.6-4.3,13.6c0.4,5,2.8,9.5,6.6,12.6
			C477.9,231.3,482.1,232.9,486.5,232.9z M478.8,207.8c1.9-2.3,4.7-3.6,7.7-3.6c2.3,0,4.7,0.8,6.4,2.3c2.1,1.7,3.3,4.1,3.5,6.8
			s-0.6,5.3-2.3,7.3c-3.4,4.1-10,4.7-14.2,1.2c-2.1-1.7-3.3-4.1-3.5-6.8C476.3,212.4,477.1,209.8,478.8,207.8z"/>
		<path class="st8" d="M144.5,650.8c6.6-7.9,5.6-19.6-2.3-26.3c-3.3-2.8-7.6-4.4-12-4.4c-5.5,0-10.7,2.4-14.3,6.7
			c-6.6,7.9-5.6,19.7,2.3,26.2c3.3,2.8,7.6,4.4,12,4.4C135.8,657.4,141,655,144.5,650.8z M122.6,632.3c1.9-2.3,4.7-3.6,7.7-3.6
			c2.3,0,4.6,0.8,6.4,2.3c4.2,3.6,4.8,9.9,1.2,14.1c-3.4,4.1-10,4.7-14.1,1.2C119.6,642.9,119,636.6,122.6,632.3z"/>
		<path class="st8" d="M396.8,183.6c2,0.8,4.2,1.1,6.4,1.1c7.8,0,14.8-4.9,17.5-12.3c3.5-9.7-1.5-20.4-11.1-23.9
			c-2-0.8-4.2-1.1-6.4-1.1c-7.8,0-14.8,4.9-17.5,12.3c-1.7,4.7-1.5,9.7,0.6,14.2C388.4,178.5,392.1,181.9,396.8,183.6z M393.7,162.7
			c1.4-3.9,5.2-6.6,9.4-6.6c1.2,0,2.3,0.2,3.4,0.6c5.2,1.9,7.9,7.7,6,12.8c-1.8,5.1-7.7,7.9-12.9,6c-2.5-0.9-4.5-2.8-5.7-5.2
			C392.9,167.9,392.8,165.2,393.7,162.7z"/>
		<path class="st8" d="M213.6,705.5c7.8,0,14.8-4.9,17.5-12.3c3.5-9.7-1.5-20.4-11.1-23.9c-2.1-0.8-4.2-1.1-6.4-1.1
			c-7.8,0-14.8,4.9-17.5,12.3c-3.5,9.6,1.5,20.3,11.1,23.9C209.3,705.2,211.4,705.5,213.6,705.5z M204.2,683.5
			c1.4-3.9,5.2-6.6,9.4-6.6c1.2,0,2.3,0.2,3.4,0.6c5.2,1.9,7.9,7.6,6,12.8c-1.9,5.1-7.8,7.8-12.8,6
			C205,694.4,202.3,688.7,204.2,683.5z"/>
		<path class="st8" d="M308.4,168L308.4,168c10.3,0,18.7-8.4,18.7-18.6c0-10.3-8.4-18.6-18.6-18.6c-5,0-9.7,2-13.2,5.5
			s-5.5,8.2-5.5,13.2s1.9,9.6,5.4,13.2C298.7,166.1,303.4,168,308.4,168z M301.3,142.3c1.9-1.9,4.4-2.9,7.1-2.9c5.5,0,10,4.5,10,10
			s-4.5,10-10,10v4.3l-0.1-4.3c-2.7,0-5.2-1-7.1-2.9s-2.9-4.4-2.9-7.1S299.4,144.2,301.3,142.3z"/>
		<path class="st8" d="M327,703.6c0-10.3-8.4-18.6-18.7-18.6c-10.2,0-18.6,8.4-18.6,18.6c0,10.3,8.4,18.6,18.6,18.6
			C318.6,722.2,327,713.9,327,703.6z M298.3,703.6c0-5.5,4.5-10,10-10s10,4.5,10,10s-4.5,10-10,10S298.3,709.1,298.3,703.6z"/>
		<path class="st8" d="M213.6,184.8c2.2,0,4.3-0.4,6.4-1.1c9.6-3.5,14.6-14.2,11.1-23.9c-2.7-7.3-9.7-12.2-17.5-12.2
			c-2.2,0-4.3,0.4-6.4,1.1c-4.7,1.7-8.4,5.1-10.5,9.6s-2.3,9.6-0.6,14.2C198.8,179.8,205.8,184.8,213.6,184.8z M204.5,161.9
			c1.1-2.4,3.1-4.3,5.7-5.2c1.1-0.4,2.3-0.6,3.4-0.6c4.2,0,8,2.7,9.4,6.6c1.9,5.2-0.8,11-6,12.9c-5.1,1.9-11-0.9-12.8-6
			C203.3,167,203.4,164.3,204.5,161.9z"/>
		<path class="st8" d="M403.1,668.3c-2.2,0-4.3,0.4-6.4,1.1c-4.7,1.7-8.4,5.1-10.5,9.6s-2.3,9.6-0.6,14.2
			c2.7,7.3,9.7,12.3,17.5,12.3c2.2,0,4.3-0.4,6.3-1.1c9.7-3.5,14.6-14.2,11.1-23.9C418,673.2,410.9,668.3,403.1,668.3z M412.2,691.1
			c-1.1,2.4-3.1,4.3-5.7,5.2c-5.1,1.9-11-1-12.9-6c-0.9-2.5-0.8-5.2,0.3-7.7c1.1-2.4,3.1-4.3,5.7-5.2c1.1-0.4,2.3-0.6,3.4-0.6
			c4.2,0,8,2.7,9.4,6.6C413.5,686,413.4,688.7,412.2,691.1z"/>
		<path class="st8" d="M130.3,232.9c4.4,0,8.6-1.6,12-4.3c3.8-3.2,6.1-7.7,6.6-12.6c0.4-5-1.1-9.8-4.3-13.7
			c-3.5-4.2-8.8-6.6-14.3-6.6c-4.4,0-8.6,1.5-12,4.3c-7.8,6.6-8.9,18.4-2.3,26.2C119.5,230.4,124.7,232.9,130.3,232.9z M123.8,206.5
			c1.8-1.5,4.1-2.3,6.5-2.3c3,0,5.8,1.3,7.7,3.6c1.7,2.1,2.6,4.7,2.3,7.4c-0.2,2.6-1.5,5-3.5,6.8c-4.1,3.4-10.7,2.8-14.1-1.3
			C119,216.4,119.6,210.1,123.8,206.5z"/>
		<path class="st8" d="M474.5,624.5c-3.8,3.2-6.2,7.7-6.6,12.7s1.1,9.8,4.3,13.6c3.6,4.2,8.8,6.7,14.3,6.7c4.4,0,8.6-1.5,12-4.3
			c3.8-3.2,6.2-7.7,6.6-12.7s-1.1-9.8-4.3-13.6c-3.5-4.2-8.7-6.6-14.3-6.6C482.1,620.2,477.9,621.7,474.5,624.5z M496.5,639.6
			c-0.2,2.7-1.5,5.1-3.6,6.8c-4.1,3.4-10.7,2.8-14.1-1.3c-1.7-2-2.5-4.6-2.3-7.3s1.5-5.1,3.5-6.8c1.8-1.5,4.1-2.3,6.4-2.3
			c3,0,5.8,1.3,7.7,3.6C495.9,634.4,496.7,637,496.5,639.6z"/>
		<path class="st8" d="M59.1,304.1c2.8,1.6,6,2.5,9.3,2.5c6.7,0,12.8-3.6,16.1-9.3c2.5-4.3,3.2-9.3,1.9-14.1
			c-1.3-4.8-4.4-8.9-8.7-11.4c-2.8-1.6-6-2.5-9.3-2.5c-6.6,0-12.8,3.6-16.2,9.3C47.1,287.6,50.2,299,59.1,304.1z M59.7,283
			c1.8-3.1,5.2-5,8.7-5c1.7,0,3.5,0.5,5,1.3c2.3,1.3,4,3.5,4.7,6.1s0.3,5.3-1,7.6c-2.6,4.6-9,6.4-13.7,3.7
			C58.6,293.9,56.9,287.7,59.7,283z"/>
		<path class="st8" d="M557.6,548.9c-2.8-1.6-6-2.5-9.3-2.5c-6.6,0-12.8,3.6-16.2,9.3c-2.5,4.3-3.2,9.3-1.9,14.1s4.4,8.9,8.7,11.4
			c2.8,1.6,6,2.5,9.3,2.5c6.6,0,12.8-3.6,16.2-9.3c2.5-4.3,3.1-9.3,1.8-14.2C565,555.4,561.9,551.4,557.6,548.9z M557.1,570.1
			c-2.7,4.6-9.1,6.3-13.7,3.7c-2.3-1.4-4-3.5-4.7-6.1s-0.3-5.2,1-7.5c1.8-3.1,5.1-5,8.7-5c1.7,0,3.5,0.5,5,1.3
			c2.3,1.3,4,3.5,4.7,6.1C558.7,565,558.4,567.8,557.1,570.1z"/>
		<path class="st8" d="M32.3,396.7c1.1,0.2,2.2,0.3,3.2,0.3c9.1,0,16.8-6.5,18.4-15.4c0.9-4.9-0.2-9.8-3.1-13.9
			c-2.8-4.1-7.1-6.8-12.1-7.7c-10.3-1.8-19.8,5.2-21.6,15.1c-0.9,4.9,0.2,9.8,3.1,13.9C23.1,393.2,27.4,395.9,32.3,396.7z
			 M25.6,376.6c0.9-4.8,5-8.3,9.9-8.3c0.6,0,1.2,0.1,1.7,0.1c2.7,0.5,5,2,6.5,4.2s2.1,4.8,1.6,7.5c-0.9,5.4-6,9.1-11.6,8.1
			c-2.6-0.5-4.9-1.9-6.5-4.1C25.7,381.9,25.1,379.3,25.6,376.6z"/>
		<path class="st8" d="M578.1,493c1.1,0.2,2.2,0.3,3.2,0.3c9.1,0,16.8-6.5,18.4-15.4c0.8-4.9-0.3-9.9-3.1-13.9
			c-2.9-4.1-7.1-6.8-12-7.7c-10.3-1.8-19.8,5.2-21.5,15.1c-0.9,4.9,0.2,9.8,3,13.9C568.8,489.4,573.1,492.1,578.1,493z M571.4,472.9
			c0.8-4.8,5-8.3,9.8-8.3c0.6,0,1.1,0.1,1.7,0.2c2.7,0.5,5,1.9,6.5,4.1s2.1,4.9,1.7,7.5c-0.9,5.4-6.1,9.1-11.6,8.1
			c-2.6-0.5-5-2-6.5-4.2C571.5,478.2,570.9,475.5,571.4,472.9z"/>
		<path class="st8" d="M53.8,471.4c-1.6-8.9-9.3-15.4-18.4-15.4c-1.1,0-2.1,0.1-3.2,0.3c-10.1,1.9-16.9,11.5-15.1,21.6
			c1.6,8.9,9.3,15.4,18.3,15.4c1.1,0,2.2-0.1,3.3-0.3c4.9-0.9,9.2-3.6,12-7.7C53.6,481.2,54.7,476.3,53.8,471.4z M43.7,480.4
			c-1.5,2.2-3.8,3.7-6.5,4.1c-5.6,1-10.7-2.8-11.6-8.1c-1-5.4,2.7-10.7,8.1-11.6c0.6-0.1,1.2-0.1,1.7-0.1c4.9,0,9.1,3.5,9.9,8.3
			C45.8,475.5,45.2,478.2,43.7,480.4z"/>
		<path class="st8" d="M562.9,381.6c1.6,8.9,9.3,15.4,18.4,15.4c1.1,0,2.1-0.1,3.2-0.3c10.1-1.8,16.9-11.5,15.1-21.6
			c-1.8-10-11.4-16.9-21.6-15.1c-4.9,0.9-9.2,3.6-12,7.7C563.1,371.8,562,376.8,562.9,381.6z M573,372.7c1.5-2.2,3.8-3.7,6.5-4.1
			c0.6-0.1,1.2-0.2,1.8-0.2c4.9,0,9,3.5,9.9,8.3c1,5.4-2.7,10.7-8.1,11.6c-5.6,0.9-10.7-2.8-11.6-8.2
			C570.9,377.5,571.5,374.9,573,372.7z"/>
		<path class="st9" d="M166.4,480.6c-6.4-16.8-9.9-34.9-9.9-53.9c0-52.4,26.6-98.6,66.9-125.9"/>
		<path class="st9" d="M135.4,426.6c0-73.2,45.5-135.8,109.7-161.1"/>
		<path class="st9" d="M467.9,426.6c0,66.1-40.2,122.8-97.4,147"/>
		<path class="st7" d="M308.4,267.1"/>
		<path class="st7" d="M148.9,426.6"/>
		<path class="st7" d="M308.4,586.1"/>
		<path class="st7" d="M370.4,573.6"/>
	</g>
</g>
<polygon class="st6" points="628,359.8 628,349.2 477.7,349.2 477.7,359.8 415.6,359.8 415.6,726.7 679.4,726.7 679.4,359.8 "/>
<rect x="437" y="540.8" class="st1" width="40.7" height="40.7"/>
<rect x="281.5" y="558.3" class="st6" width="258" height="168.4"/>
<rect x="437" y="379.7" class="st1" width="40.7" height="40.7"/>
<rect x="498.8" y="379.7" class="st1" width="40.7" height="40.7"/>
<rect x="560.6" y="379.7" class="st1" width="40.7" height="40.7"/>
<rect x="622.4" y="379.7" class="st1" width="40.7" height="40.7"/>
<rect x="437" y="460.2" class="st1" width="40.7" height="40.7"/>
<rect x="498.8" y="460.2" class="st1" width="40.7" height="40.7"/>
<rect x="560.6" y="460.2" class="st1" width="40.7" height="40.7"/>
<rect x="622.4" y="460.2" class="st1" width="40.7" height="40.7"/>
<title>city</title>
<rect x="2171.3" y="715.4" class="st6" width="111" height="11.3"/>
<path class="st10" d="M2211.8,634h23.7c-0.6-3.7-3.6-6.7-7.3-7.4c0.1-0.6,0.2-1.3,0.2-2c0-6-4.9-11-11-11c-1.3,0-2.6,0.2-3.8,0.7
	c-1.4-5.6-6.5-9.8-12.5-9.8c-6.5,0-11.9,4.8-12.8,11.1h-0.1c-8,0-14.4,6.5-14.4,14.4c0,1.3,0.2,2.6,0.5,3.8h27.9h9.6L2211.8,634
	L2211.8,634z"/>
<rect x="956" y="594.3" class="st6" width="103.3" height="132.4"/>
<rect x="2171.3" y="637.3" class="st6" width="96.4" height="72.4"/>
<rect x="2082.3" y="553.2" class="st6" width="114" height="173.5"/>
<rect x="1332.2" y="481.7" class="st6" width="141.6" height="245"/>
<polygon class="st6" points="982,726.7 796,726.7 796,461.7 1021.3,461.7 1021.3,492.6 842,492.6 842,525.3 1021.3,525.3 
	1021.3,552.8 982,552.8 "/>
<rect x="608" y="397.7" class="st6" width="212" height="329"/>
<rect x="1230" y="359.8" class="st6" width="137" height="366.9"/>
<rect x="1420.3" y="562.2" class="st11" width="204.3" height="164.5"/>
<path class="st10" d="M1858.9,727.6h38.5c-1-6.1-5.8-10.9-11.8-12c0.2-1,0.3-2.1,0.3-3.2c0-9.8-7.9-17.7-17.7-17.7
	c-2.2,0-4.3,0.4-6.2,1.1c-2.3-9.1-10.5-15.8-20.3-15.8c-10.6,0-19.3,7.8-20.7,18c-0.1,0-0.1,0-0.2,0c-12.9,0-23.4,10.5-23.4,23.4
	c0,2.1,0.3,4.2,0.8,6.2h45.1H1858.9z"/>
<rect x="1866.3" y="562.2" class="st6" width="136" height="164.5"/>
<rect x="1934.3" y="499.7" class="st6" width="174" height="227"/>
<line class="st12" x1="628" y1="413.9" x2="660.3" y2="413.9"/>
<line class="st12" x1="672.8" y1="413.9" x2="705.1" y2="413.9"/>
<line class="st12" x1="722.3" y1="413.9" x2="754.6" y2="413.9"/>
<line class="st12" x1="767" y1="413.9" x2="799.4" y2="413.9"/>
<line class="st12" x1="628" y1="425" x2="660.3" y2="425"/>
<line class="st12" x1="672.8" y1="425" x2="705.1" y2="425"/>
<line class="st12" x1="722.3" y1="425" x2="754.6" y2="425"/>
<line class="st12" x1="767" y1="425" x2="799.4" y2="425"/>
<line class="st12" x1="628" y1="436.1" x2="660.3" y2="436.1"/>
<line class="st12" x1="672.8" y1="436.1" x2="705.1" y2="436.1"/>
<line class="st12" x1="722.3" y1="436.1" x2="754.6" y2="436.1"/>
<line class="st12" x1="767" y1="436.1" x2="799.4" y2="436.1"/>
<line class="st12" x1="628" y1="447.2" x2="660.3" y2="447.2"/>
<line class="st12" x1="672.8" y1="447.2" x2="705.1" y2="447.2"/>
<line class="st12" x1="722.3" y1="447.2" x2="754.6" y2="447.2"/>
<line class="st12" x1="767" y1="447.2" x2="799.4" y2="447.2"/>
<line class="st12" x1="628" y1="458.3" x2="660.3" y2="458.3"/>
<line class="st12" x1="672.8" y1="458.3" x2="705.1" y2="458.3"/>
<line class="st12" x1="722.3" y1="458.3" x2="754.6" y2="458.3"/>
<line class="st12" x1="767" y1="458.3" x2="799.4" y2="458.3"/>
<line class="st12" x1="628" y1="469.5" x2="660.3" y2="469.5"/>
<line class="st12" x1="672.8" y1="469.5" x2="705.1" y2="469.5"/>
<line class="st12" x1="722.3" y1="469.5" x2="754.6" y2="469.5"/>
<line class="st12" x1="767" y1="469.5" x2="799.4" y2="469.5"/>
<line class="st12" x1="628" y1="480.6" x2="660.3" y2="480.6"/>
<line class="st12" x1="672.8" y1="480.6" x2="705.1" y2="480.6"/>
<line class="st12" x1="722.3" y1="480.6" x2="754.6" y2="480.6"/>
<line class="st12" x1="767" y1="480.6" x2="799.4" y2="480.6"/>
<line class="st12" x1="628" y1="491.7" x2="660.3" y2="491.7"/>
<line class="st12" x1="672.8" y1="491.7" x2="705.1" y2="491.7"/>
<line class="st12" x1="722.3" y1="491.7" x2="754.6" y2="491.7"/>
<line class="st12" x1="767" y1="491.7" x2="799.4" y2="491.7"/>
<line class="st12" x1="628" y1="502.8" x2="660.3" y2="502.8"/>
<line class="st12" x1="672.8" y1="502.8" x2="705.1" y2="502.8"/>
<line class="st12" x1="722.3" y1="502.8" x2="754.6" y2="502.8"/>
<line class="st12" x1="767" y1="502.8" x2="799.4" y2="502.8"/>
<line class="st12" x1="628" y1="536.1" x2="660.3" y2="536.1"/>
<line class="st12" x1="672.8" y1="536.1" x2="705.1" y2="536.1"/>
<line class="st12" x1="722.3" y1="536.1" x2="754.6" y2="536.1"/>
<line class="st12" x1="628" y1="547.2" x2="660.3" y2="547.2"/>
<line class="st12" x1="672.8" y1="547.2" x2="705.1" y2="547.2"/>
<line class="st12" x1="722.3" y1="547.2" x2="754.6" y2="547.2"/>
<line class="st12" x1="767" y1="547.2" x2="799.4" y2="547.2"/>
<line class="st12" x1="628" y1="558.3" x2="660.3" y2="558.3"/>
<line class="st12" x1="672.8" y1="558.3" x2="705.1" y2="558.3"/>
<line class="st12" x1="722.3" y1="558.3" x2="754.6" y2="558.3"/>
<line class="st12" x1="767" y1="558.3" x2="799.4" y2="558.3"/>
<line class="st12" x1="628" y1="569.4" x2="660.3" y2="569.4"/>
<line class="st12" x1="672.8" y1="569.4" x2="705.1" y2="569.4"/>
<line class="st12" x1="722.3" y1="569.4" x2="754.6" y2="569.4"/>
<line class="st12" x1="767" y1="569.4" x2="799.4" y2="569.4"/>
<line class="st12" x1="628" y1="580.5" x2="660.3" y2="580.5"/>
<line class="st12" x1="672.8" y1="580.5" x2="705.1" y2="580.5"/>
<line class="st12" x1="722.3" y1="580.5" x2="754.6" y2="580.5"/>
<line class="st12" x1="767" y1="580.5" x2="799.4" y2="580.5"/>
<line class="st12" x1="628" y1="591.6" x2="660.3" y2="591.6"/>
<line class="st12" x1="672.8" y1="591.6" x2="705.1" y2="591.6"/>
<line class="st12" x1="722.3" y1="591.6" x2="754.6" y2="591.6"/>
<line class="st12" x1="767" y1="591.6" x2="799.4" y2="591.6"/>
<line class="st12" x1="628" y1="602.7" x2="660.3" y2="602.7"/>
<line class="st12" x1="672.8" y1="602.7" x2="705.1" y2="602.7"/>
<line class="st12" x1="722.3" y1="602.7" x2="754.6" y2="602.7"/>
<line class="st12" x1="767" y1="602.7" x2="799.4" y2="602.7"/>
<line class="st12" x1="628" y1="613.8" x2="660.3" y2="613.8"/>
<line class="st12" x1="672.8" y1="613.8" x2="705.1" y2="613.8"/>
<line class="st12" x1="722.3" y1="613.8" x2="754.6" y2="613.8"/>
<line class="st12" x1="767" y1="613.8" x2="799.4" y2="613.8"/>
<line class="st12" x1="628" y1="625" x2="660.3" y2="625"/>
<line class="st12" x1="672.8" y1="625" x2="705.1" y2="625"/>
<line class="st12" x1="722.3" y1="625" x2="754.6" y2="625"/>
<line class="st12" x1="767" y1="625" x2="799.4" y2="625"/>
<line class="st12" x1="628" y1="636.1" x2="660.3" y2="636.1"/>
<line class="st12" x1="672.8" y1="636.1" x2="705.1" y2="636.1"/>
<line class="st12" x1="722.3" y1="636.1" x2="754.6" y2="636.1"/>
<line class="st12" x1="767" y1="636.1" x2="799.4" y2="636.1"/>
<line class="st12" x1="628" y1="647.2" x2="660.3" y2="647.2"/>
<line class="st12" x1="672.8" y1="647.2" x2="705.1" y2="647.2"/>
<line class="st12" x1="722.3" y1="647.2" x2="754.6" y2="647.2"/>
<line class="st12" x1="767" y1="647.2" x2="799.4" y2="647.2"/>
<line class="st12" x1="628" y1="658.3" x2="660.3" y2="658.3"/>
<line class="st12" x1="672.8" y1="658.3" x2="705.1" y2="658.3"/>
<line class="st12" x1="722.3" y1="658.3" x2="754.6" y2="658.3"/>
<line class="st12" x1="767" y1="658.3" x2="799.4" y2="658.3"/>
<line class="st12" x1="628" y1="669.4" x2="660.3" y2="669.4"/>
<line class="st12" x1="672.8" y1="669.4" x2="705.1" y2="669.4"/>
<line class="st12" x1="722.3" y1="669.4" x2="754.6" y2="669.4"/>
<line class="st12" x1="767" y1="669.4" x2="799.4" y2="669.4"/>
<line class="st12" x1="628" y1="680.5" x2="660.3" y2="680.5"/>
<line class="st12" x1="672.8" y1="680.5" x2="705.1" y2="680.5"/>
<line class="st12" x1="722.3" y1="680.5" x2="754.6" y2="680.5"/>
<line class="st12" x1="767" y1="680.5" x2="799.4" y2="680.5"/>
<line class="st12" x1="628" y1="691.6" x2="660.3" y2="691.6"/>
<line class="st12" x1="672.8" y1="691.6" x2="705.1" y2="691.6"/>
<line class="st12" x1="722.3" y1="691.6" x2="754.6" y2="691.6"/>
<line class="st12" x1="767" y1="691.6" x2="799.4" y2="691.6"/>
<line class="st12" x1="628" y1="702.7" x2="660.3" y2="702.7"/>
<line class="st12" x1="672.8" y1="702.7" x2="705.1" y2="702.7"/>
<line class="st12" x1="722.3" y1="702.7" x2="754.6" y2="702.7"/>
<line class="st12" x1="767" y1="702.7" x2="799.4" y2="702.7"/>
<line class="st12" x1="767" y1="536.1" x2="799.4" y2="536.1"/>
<circle class="st6" cx="588.4" cy="515.7" r="55.8"/>
<rect x="498" y="492.6" class="st6" width="190" height="234.1"/>
<path class="st10" d="M985.6,726.7h38.4c-1-6.1-5.8-10.9-11.8-12c0.2-1,0.3-2.1,0.3-3.2c0-9.8-7.9-17.7-17.7-17.7
	c-2.2,0-4.3,0.4-6.2,1.1c-2.3-9.1-10.5-15.8-20.3-15.8c-10.6,0-19.3,7.8-20.7,18c-0.1,0-0.1,0-0.2,0c-12.9,0-23.4,10.5-23.4,23.4
	c0,2.1,0.3,4.2,0.8,6.2h45.1H985.6z"/>
<path class="st10" d="M327.9,726.7h38.4c-1-6.1-5.8-10.9-11.8-12c0.2-1,0.3-2.1,0.3-3.2c0-9.8-7.9-17.7-17.7-17.7
	c-2.2,0-4.3,0.4-6.2,1.1c-2.3-9.1-10.5-15.8-20.3-15.8c-10.6,0-19.3,7.8-20.7,18c-0.1,0-0.1,0-0.2,0c-12.9,0-23.4,10.5-23.4,23.4
	c0,2.1,0.3,4.2,0.8,6.2h45.1H327.9z"/>
<rect x="722.3" y="379.7" class="st7" width="77.1" height="18"/>
<g>
	<line class="st12" x1="519" y1="508.7" x2="519" y2="536.1"/>
	<line class="st12" x1="547.5" y1="509.2" x2="547.5" y2="536.6"/>
	<line class="st12" x1="575.9" y1="509.7" x2="575.9" y2="537.1"/>
	<line class="st12" x1="604.4" y1="510.2" x2="604.4" y2="537.6"/>
	<line class="st12" x1="632.9" y1="510.7" x2="632.9" y2="538.1"/>
	<line class="st12" x1="661.3" y1="511.3" x2="661.3" y2="538.6"/>
</g>
<g>
	<line class="st12" x1="519" y1="560" x2="519" y2="587.4"/>
	<line class="st12" x1="547.5" y1="560.5" x2="547.5" y2="587.9"/>
	<line class="st12" x1="575.9" y1="561" x2="575.9" y2="588.4"/>
	<line class="st12" x1="604.4" y1="561.5" x2="604.4" y2="588.9"/>
	<line class="st12" x1="632.9" y1="562" x2="632.9" y2="589.4"/>
	<line class="st12" x1="661.3" y1="562.5" x2="661.3" y2="589.9"/>
</g>
<g>
	<line class="st12" x1="519" y1="611.3" x2="519" y2="638.7"/>
	<line class="st12" x1="547.5" y1="611.8" x2="547.5" y2="639.2"/>
	<line class="st12" x1="575.9" y1="612.3" x2="575.9" y2="639.7"/>
	<line class="st12" x1="604.4" y1="612.8" x2="604.4" y2="640.2"/>
	<line class="st12" x1="632.9" y1="613.3" x2="632.9" y2="640.7"/>
	<line class="st12" x1="661.3" y1="613.8" x2="661.3" y2="641.2"/>
</g>
<g>
	<line class="st12" x1="519" y1="662.6" x2="519" y2="690"/>
	<line class="st12" x1="547.5" y1="663.1" x2="547.5" y2="690.5"/>
	<line class="st12" x1="575.9" y1="663.6" x2="575.9" y2="691"/>
	<line class="st12" x1="604.4" y1="664.1" x2="604.4" y2="691.5"/>
	<line class="st12" x1="632.9" y1="664.6" x2="632.9" y2="692"/>
	<line class="st12" x1="661.3" y1="665.1" x2="661.3" y2="692.5"/>
</g>
<rect x="842" y="611.3" class="st1" width="114" height="32.4"/>
<rect x="842" y="552.1" class="st1" width="114" height="32.4"/>
<rect x="2003.8" y="529.7" class="st1" width="35" height="197"/>
<rect x="1935.1" y="539.7" class="st1" width="50" height="22.1"/>
<rect x="1935.1" y="577.5" class="st1" width="50" height="22.1"/>
<rect x="1935.1" y="615.2" class="st1" width="50" height="22.1"/>
<rect x="1935.1" y="653" class="st1" width="50" height="22.1"/>
<rect x="1935.1" y="690.7" class="st1" width="50" height="22.1"/>
<rect x="2057.3" y="539.7" class="st1" width="50" height="22.1"/>
<rect x="2057.3" y="577.5" class="st1" width="50" height="22.1"/>
<rect x="2057.3" y="615.2" class="st1" width="50" height="22.1"/>
<rect x="2057.3" y="653" class="st1" width="50" height="22.1"/>
<rect x="2057.3" y="690.7" class="st1" width="50" height="22.1"/>
<line class="st4" x1="2134.4" y1="569.9" x2="2196.3" y2="569.9"/>
<line class="st4" x1="2134.4" y1="584.4" x2="2196.3" y2="584.4"/>
<line class="st4" x1="2134.4" y1="598.9" x2="2196.3" y2="598.9"/>
<line class="st4" x1="2134.4" y1="613.4" x2="2196.3" y2="613.4"/>
<line class="st4" x1="2134.4" y1="628" x2="2196.3" y2="628"/>
<line class="st4" x1="2134.4" y1="639.6" x2="2196.3" y2="639.6"/>
<line class="st4" x1="2134.4" y1="654.2" x2="2196.3" y2="654.2"/>
<line class="st4" x1="2134.4" y1="668.7" x2="2196.3" y2="668.7"/>
<line class="st4" x1="2134.4" y1="683.2" x2="2196.3" y2="683.2"/>
<line class="st4" x1="2134.4" y1="697.8" x2="2196.3" y2="697.8"/>
<rect x="1328.8" y="359.8" class="st7" width="24.3" height="366.1"/>
<rect x="1336.4" y="373.7" class="st8" width="9.2" height="9.2"/>
<rect x="1336.4" y="397.1" class="st8" width="9.2" height="9.2"/>
<rect x="1336.4" y="420.4" class="st8" width="9.2" height="9.2"/>
<rect x="1336.4" y="443.7" class="st8" width="9.2" height="9.2"/>
<rect x="1336.4" y="467.1" class="st8" width="9.2" height="9.2"/>
<rect x="1336.4" y="490.4" class="st8" width="9.2" height="9.2"/>
<rect x="1336.4" y="513.8" class="st8" width="9.2" height="9.2"/>
<rect x="1336.4" y="537.1" class="st8" width="9.2" height="9.2"/>
<rect x="1336.4" y="560.5" class="st8" width="9.2" height="9.2"/>
<rect x="1336.4" y="583.8" class="st8" width="9.2" height="9.2"/>
<rect x="1336.4" y="607.2" class="st8" width="9.2" height="9.2"/>
<rect x="1336.4" y="630.5" class="st8" width="9.2" height="9.2"/>
<rect x="1336.4" y="653.8" class="st8" width="9.2" height="9.2"/>
<rect x="1336.4" y="677.2" class="st8" width="9.2" height="9.2"/>
<rect x="1336.4" y="700.5" class="st8" width="9.2" height="9.2"/>
<line class="st4" x1="1314.7" y1="378.3" x2="1247.6" y2="378.3"/>
<line class="st4" x1="1314.7" y1="401.7" x2="1247.6" y2="401.7"/>
<line class="st4" x1="1314.7" y1="425" x2="1247.6" y2="425"/>
<line class="st4" x1="1314.7" y1="448.4" x2="1247.6" y2="448.4"/>
<line class="st4" x1="1314.7" y1="471.7" x2="1247.6" y2="471.7"/>
<line class="st4" x1="1314.7" y1="495.1" x2="1247.6" y2="495.1"/>
<line class="st4" x1="1314.7" y1="518.4" x2="1247.6" y2="518.4"/>
<line class="st4" x1="1314.7" y1="541.7" x2="1247.6" y2="541.7"/>
<line class="st4" x1="1314.7" y1="565.1" x2="1247.6" y2="565.1"/>
<line class="st4" x1="1314.7" y1="588.4" x2="1247.6" y2="588.4"/>
<line class="st4" x1="1314.7" y1="611.8" x2="1247.6" y2="611.8"/>
<line class="st4" x1="1314.7" y1="635.1" x2="1247.6" y2="635.1"/>
<line class="st4" x1="1314.7" y1="658.5" x2="1247.6" y2="658.5"/>
<line class="st4" x1="1314.7" y1="681.8" x2="1247.6" y2="681.8"/>
<rect x="1146.4" y="641" class="st13" width="144" height="85.7"/>
<path class="st6" d="M1354.6,713c1.1-2.7,1.7-5.6,1.7-8.6c0-12.6-10.2-22.9-22.9-22.9c-4,0-7.8,1-11,2.8
	c-0.7-14-12.3-25.2-26.5-25.2c-14.6,0-26.5,11.9-26.5,26.5c0,1.8,0.2,3.5,0.5,5.2c-10.6,1.3-18.8,10.4-18.8,21.3
	c0,5.2,1.9,10,5,13.7h65.6h19.5C1347.2,723.7,1352.1,718.9,1354.6,713"/>
<rect x="1136.6" y="535.7" class="st6" width="157.7" height="191"/>
<polygon class="st6" points="1273.3,535.7 1157.7,535.7 1157.7,502.6 1273.3,469.5 "/>
<line class="st4" x1="1157.7" y1="569" x2="1273.3" y2="569"/>
<line class="st4" x1="1157.7" y1="584.4" x2="1273.3" y2="584.4"/>
<line class="st4" x1="1157.7" y1="690.7" x2="1273.3" y2="690.7"/>
<line class="st4" x1="1157.7" y1="702.9" x2="1273.3" y2="702.9"/>
<g>
	<line class="st4" x1="1215.5" y1="585.6" x2="1215.5" y2="691.1"/>
	<line class="st4" x1="1183.4" y1="584.8" x2="1183.4" y2="691.1"/>
	<line class="st4" x1="1247.6" y1="584.8" x2="1247.6" y2="691.1"/>
</g>
<g>
	<line class="st4" x1="1215.5" y1="508.9" x2="1215.5" y2="535.7"/>
	<line class="st4" x1="1183.4" y1="508.7" x2="1183.4" y2="535.7"/>
	<line class="st4" x1="1247.6" y1="508.7" x2="1247.6" y2="535.7"/>
</g>
<rect x="1429" y="537" class="st6" width="185" height="18.7"/>
<line class="st7" x1="1240.1" y1="437.8" x2="1240.1" y2="481.7"/>
<rect x="1403" y="549.8" class="st6" width="236.9" height="18.7"/>
<rect x="1451" y="509.7" class="st6" width="59.7" height="27"/>
<rect x="1438.3" y="579.5" class="st1" width="35.3" height="29.7"/>
<rect x="1503.6" y="579.5" class="st1" width="35.3" height="29.7"/>
<rect x="1568.9" y="579.5" class="st1" width="35.3" height="29.7"/>
<rect x="1438.3" y="639" class="st1" width="35.3" height="29.7"/>
<rect x="1503.6" y="639" class="st1" width="35.3" height="29.7"/>
<rect x="1568.9" y="639" class="st1" width="35.3" height="29.7"/>
<line class="st4" x1="1438.3" y1="616.4" x2="1473.8" y2="616.4"/>
<line class="st4" x1="1503.5" y1="616.4" x2="1539" y2="616.4"/>
<line class="st4" x1="1568.8" y1="616.4" x2="1604.3" y2="616.4"/>
<line class="st4" x1="1438.3" y1="675.1" x2="1473.8" y2="675.1"/>
<line class="st4" x1="1503.5" y1="675.1" x2="1539" y2="675.1"/>
<line class="st4" x1="1568.8" y1="675.1" x2="1604.3" y2="675.1"/>
<rect x="2119" y="569.9" class="st4" width="8" height="145.6"/>
<rect x="2196.3" y="636" class="st6" width="102.7" height="13.3"/>
<rect x="2196.3" y="709.8" class="st1" width="102.7" height="6.7"/>
<line class="st7" x1="2251.3" y1="649.3" x2="2251.3" y2="709.8"/>
<line class="st7" x1="2212.9" y1="649.3" x2="2212.9" y2="709.8"/>
<line class="st7" x1="1500.5" y1="460.4" x2="1500.5" y2="508.9"/>
<rect x="2196.3" y="569.9" class="st6" width="16.6" height="37.3"/>
<rect x="998.6" y="603.6" class="st1" width="13.1" height="26.3"/>
<rect x="1030.3" y="603.2" class="st1" width="13.5" height="27"/>
<g>
	<rect x="998.6" y="652.4" class="st1" width="13.1" height="26.3"/>
	<rect x="1030.3" y="652.1" class="st1" width="13.5" height="27"/>
</g>
<line class="st4" x1="994.8" y1="630.9" x2="1015.5" y2="630.9"/>
<line class="st4" x1="1026.7" y1="630.9" x2="1047.5" y2="630.9"/>
<line class="st4" x1="994.8" y1="679.1" x2="1015.5" y2="679.1"/>
<line class="st4" x1="1026.7" y1="679.1" x2="1047.5" y2="679.1"/>
<rect x="1243.9" y="336.3" class="st6" width="109.2" height="17.9"/>
<polygon class="st6" points="2077.8,484.6 1964.8,484.6 1982.8,405.3 2059.8,405.3 "/>
<rect x="1950.3" y="484.6" class="st6" width="140.7" height="15.1"/>
<line class="st4" x1="1982.8" y1="405.3" x2="1982.8" y2="484.6"/>
<line class="st4" x1="2059.8" y1="405.3" x2="2059.8" y2="484.6"/>
<line class="st4" x1="2020.6" y1="405.3" x2="2020.6" y2="484.6"/>
<rect x="2042.4" y="354.2" class="st6" width="10" height="51.1"/>
<line class="st4" x1="2047.4" y1="336.3" x2="2047.4" y2="354.2"/>
<path class="st10" d="M2200.4,726.7h23.7c-0.6-3.7-3.6-6.7-7.3-7.4c0.1-0.6,0.2-1.3,0.2-2c0-6-4.9-11-11-11c-1.3,0-2.6,0.2-3.8,0.7
	c-1.4-5.6-6.5-9.8-12.5-9.8c-6.5,0-11.9,4.8-12.8,11.1h-0.1c-8,0-14.4,6.5-14.4,14.4c0,1.3,0.2,2.6,0.5,3.8h27.9h9.6L2200.4,726.7
	L2200.4,726.7z"/>
<rect x="842" y="492.6" class="st14" width="159.3" height="32.7"/>
<line class="st4" x1="880.2" y1="492.6" x2="880.2" y2="525.3"/>
<g>
	<polygon class="st15" points="1401.9,636 1385.7,681.1 1401.9,697.3 1418.1,681.1 	"/>
	<g>
		<line class="st16" x1="1398.2" y1="693.7" x2="1398.2" y2="726.6"/>
		<polygon class="st16" points="1398.2,639 1382,684.1 1398.2,700.3 1414.4,684.1 		"/>
	</g>
</g>
<g>
	<polygon class="st15" points="892.5,657.8 880.2,692 892.5,704.3 904.8,692 	"/>
	<g>
		<line class="st16" x1="889.8" y1="701.6" x2="889.8" y2="726.6"/>
		<polygon class="st16" points="889.8,660.1 877.5,694.3 889.8,706.6 902.1,694.3 		"/>
	</g>
</g>
<g>
	<polygon class="st15" points="852.7,677.6 844,702 852.7,710.7 861.5,702 	"/>
	<g>
		<line class="st16" x1="850.8" y1="708.8" x2="850.8" y2="726.6"/>
		<polygon class="st16" points="850.8,679.2 842,703.6 850.8,712.3 859.5,703.6 		"/>
	</g>
</g>
<g>
	<polygon class="st15" points="1127.1,657.8 1114.8,692 1127.1,704.3 1139.4,692 	"/>
	<g>
		<line class="st16" x1="1124.3" y1="701.6" x2="1124.3" y2="726.6"/>
		<polygon class="st16" points="1124.3,660.1 1112,694.3 1124.3,706.6 1136.6,694.3 		"/>
	</g>
</g>
<g>
	<polygon class="st15" points="1382,657.8 1369.8,692 1382,704.3 1394.3,692 	"/>
	<g>
		<line class="st16" x1="1379.3" y1="701.6" x2="1379.3" y2="726.6"/>
		<polygon class="st16" points="1379.3,660.1 1367,694.3 1379.3,706.6 1391.6,694.3 		"/>
	</g>
</g>
<g>
	<polygon class="st15" points="1905,657.8 1892.7,692 1905,704.3 1917.2,692 	"/>
	<g>
		<line class="st16" x1="1902.2" y1="701.6" x2="1902.2" y2="726.6"/>
		<polygon class="st16" points="1902.2,660.1 1889.9,694.3 1902.2,706.6 1914.5,694.3 		"/>
	</g>
</g>
<g>
	<polygon class="st15" points="1800.6,658.7 1788.3,692.9 1800.6,705.2 1812.8,692.9 	"/>
	<g>
		<line class="st16" x1="1797.8" y1="702.5" x2="1797.8" y2="727.5"/>
		<polygon class="st16" points="1797.8,661 1785.5,695.2 1797.8,707.5 1810.1,695.2 		"/>
	</g>
</g>
<g>
	<polygon class="st15" points="2291.3,657.8 2279.1,692 2291.3,704.3 2303.6,692 	"/>
	<g>
		<line class="st16" x1="2288.6" y1="701.6" x2="2288.6" y2="726.6"/>
		<polygon class="st16" points="2288.6,660.1 2276.3,694.3 2288.6,706.6 2300.9,694.3 		"/>
	</g>
</g>
<g>
	<polygon class="st15" points="2335.3,617.6 2316,671.8 2335.3,691.3 2354.7,671.8 	"/>
	<g>
		<line class="st16" x1="2331" y1="687" x2="2331" y2="726.6"/>
		<polygon class="st16" points="2331,621.3 2311.5,675.4 2331,694.9 2350.5,675.4 		"/>
	</g>
</g>
<g>
	<polygon class="st15" points="2837.1,657.8 2824.9,692 2837.1,704.3 2849.4,692 	"/>
	<g>
		<line class="st16" x1="2834.4" y1="701.6" x2="2834.4" y2="726.6"/>
		<polygon class="st16" points="2834.4,660.1 2822.1,694.3 2834.4,706.6 2846.7,694.3 		"/>
	</g>
</g>
<g>
	<polygon class="st15" points="2885.4,573.5 2858.2,649.6 2885.4,676.9 2912.7,649.6 	"/>
	<g>
		<line class="st16" x1="2879.4" y1="670.9" x2="2879.4" y2="726.6"/>
		<polygon class="st16" points="2879.4,578.6 2852,654.7 2879.4,682.1 2906.7,654.7 		"/>
	</g>
</g>
<g>
	<polygon class="st15" points="821.4,657.8 809.1,692 821.4,704.3 833.7,692 	"/>
	<g>
		<line class="st16" x1="818.6" y1="701.6" x2="818.6" y2="726.6"/>
		<polygon class="st16" points="818.6,660.1 806.3,694.3 818.6,706.6 830.9,694.3 		"/>
	</g>
</g>
<g>
	<polygon class="st15" points="576,664 564.8,695.1 576,706.3 587.2,695.1 	"/>
	<g>
		<line class="st16" x1="573.5" y1="703.9" x2="573.5" y2="726.6"/>
		<polygon class="st16" points="573.5,666.1 562.3,697.2 573.5,708.4 584.7,697.2 		"/>
	</g>
</g>
<line class="st4" x1="651" y1="316.2" x2="651" y2="359.8"/>
<line class="st4" x1="672.8" y1="289.9" x2="672.8" y2="359.8"/>
<g>
	<polygon class="st15" points="286.6,647.4 272.2,687.2 286.6,701.6 300.9,687.2 	"/>
	<g>
		<line class="st16" x1="283.4" y1="698.5" x2="283.4" y2="727.6"/>
		<polygon class="st16" points="283.4,650.1 269,689.9 283.4,704.3 297.7,689.9 		"/>
	</g>
</g>
<line class="st4" x1="303.1" y1="578.5" x2="303.1" y2="628.9"/>
<line class="st4" x1="319.2" y1="602.3" x2="319.2" y2="628.9"/>
<line class="st4" x1="353.8" y1="602.3" x2="353.8" y2="628.9"/>
<g>
	<polygon class="st15" points="1643.2,614.5 1623,670.7 1643.2,690.9 1663.2,670.7 	"/>
	<g>
		<line class="st16" x1="1638.6" y1="686.4" x2="1638.6" y2="727.5"/>
		<polygon class="st16" points="1638.6,618.2 1618.4,674.4 1638.6,694.7 1658.8,674.4 		"/>
	</g>
</g>
<line class="st4" x1="388.4" y1="602.3" x2="388.4" y2="628.9"/>
<line class="st4" x1="423" y1="602.3" x2="423" y2="628.9"/>
<line class="st4" x1="457.6" y1="602.3" x2="457.6" y2="628.9"/>
<line class="st4" x1="337.1" y1="578.5" x2="337.1" y2="628.9"/>
<line class="st4" x1="371.2" y1="578.5" x2="371.2" y2="628.9"/>
<line class="st4" x1="405.2" y1="578.5" x2="405.2" y2="628.9"/>
<line class="st4" x1="439.3" y1="578.5" x2="439.3" y2="628.9"/>
<line class="st4" x1="473.4" y1="578.5" x2="473.4" y2="628.9"/>
<g>
	<polygon class="st15" points="1784.4,626.3 1766.3,676.7 1784.4,694.8 1802.5,676.7 	"/>
	<g>
		<line class="st16" x1="1780.3" y1="690.8" x2="1780.3" y2="727.5"/>
		<polygon class="st16" points="1780.3,629.7 1762.2,680 1780.3,698.2 1798.4,680 		"/>
	</g>
</g>
<line class="st4" x1="2531.9" y1="465" x2="2557.9" y2="465"/>
<line class="st4" x1="2531.9" y1="490.5" x2="2557.9" y2="490.5"/>
<line class="st4" x1="2531.9" y1="515.9" x2="2557.9" y2="515.9"/>
<line class="st4" x1="2531.9" y1="541.3" x2="2557.9" y2="541.3"/>
<line class="st4" x1="2531.9" y1="566.8" x2="2557.9" y2="566.8"/>
<line class="st4" x1="2531.9" y1="592.2" x2="2557.9" y2="592.2"/>
<line class="st4" x1="2531.9" y1="617.6" x2="2557.9" y2="617.6"/>
<line class="st4" x1="2531.9" y1="643.1" x2="2557.9" y2="643.1"/>
<line class="st4" x1="2531.9" y1="668.5" x2="2557.9" y2="668.5"/>
<line class="st4" x1="2531.9" y1="693.9" x2="2557.9" y2="693.9"/>
<line class="st7" x1="2399" y1="465" x2="2399" y2="726.6"/>
<line class="st7" x1="2445.9" y1="465" x2="2445.9" y2="726.6"/>
<line class="st7" x1="2492.8" y1="465" x2="2492.8" y2="726.6"/>
<rect x="2653.9" y="506.5" class="st8" width="17.7" height="17.7"/>
<rect x="2679.9" y="506.5" class="st8" width="17.7" height="17.7"/>
<rect x="2705.8" y="506.5" class="st8" width="17.7" height="17.7"/>
<rect x="2731.7" y="506.5" class="st8" width="17.7" height="17.7"/>
<rect x="2757.7" y="506.5" class="st8" width="17.7" height="17.7"/>
<rect x="2783.6" y="506.5" class="st8" width="17.7" height="17.7"/>
<rect x="2653.9" y="532.5" class="st8" width="17.7" height="17.7"/>
<rect x="2679.9" y="532.5" class="st8" width="17.7" height="17.7"/>
<rect x="2705.8" y="532.5" class="st8" width="17.7" height="17.7"/>
<rect x="2731.7" y="532.5" class="st8" width="17.7" height="17.7"/>
<rect x="2757.7" y="532.5" class="st8" width="17.7" height="17.7"/>
<rect x="2783.6" y="532.5" class="st8" width="17.7" height="17.7"/>
<rect x="2653.9" y="558.5" class="st8" width="17.7" height="17.7"/>
<rect x="2679.9" y="558.5" class="st8" width="17.7" height="17.7"/>
<rect x="2705.8" y="558.5" class="st8" width="17.7" height="17.7"/>
<rect x="2731.7" y="558.5" class="st8" width="17.7" height="17.7"/>
<rect x="2757.7" y="558.5" class="st8" width="17.7" height="17.7"/>
<rect x="2783.6" y="558.5" class="st8" width="17.7" height="17.7"/>
<rect x="2653.9" y="584.5" class="st8" width="17.7" height="17.7"/>
<rect x="2679.9" y="584.5" class="st8" width="17.7" height="17.7"/>
<rect x="2705.8" y="584.5" class="st8" width="17.7" height="17.7"/>
<rect x="2731.7" y="584.5" class="st8" width="17.7" height="17.7"/>
<rect x="2757.7" y="584.5" class="st8" width="17.7" height="17.7"/>
<rect x="2783.6" y="584.5" class="st8" width="17.7" height="17.7"/>
<rect x="2653.9" y="610.5" class="st8" width="17.7" height="17.7"/>
<rect x="2679.9" y="610.5" class="st8" width="17.7" height="17.7"/>
<rect x="2705.8" y="610.5" class="st8" width="17.7" height="17.7"/>
<rect x="2731.7" y="610.5" class="st8" width="17.7" height="17.7"/>
<rect x="2757.7" y="610.5" class="st8" width="17.7" height="17.7"/>
<rect x="2783.6" y="610.5" class="st8" width="17.7" height="17.7"/>
<rect x="2653.9" y="636.6" class="st8" width="17.7" height="17.7"/>
<rect x="2679.9" y="636.6" class="st8" width="17.7" height="17.7"/>
<rect x="2705.8" y="636.6" class="st8" width="17.7" height="17.7"/>
<rect x="2731.7" y="636.6" class="st8" width="17.7" height="17.7"/>
<rect x="2757.7" y="636.6" class="st8" width="17.7" height="17.7"/>
<rect x="2783.6" y="636.6" class="st8" width="17.7" height="17.7"/>
<rect x="2653.9" y="662.6" class="st8" width="17.7" height="17.7"/>
<rect x="2679.9" y="662.6" class="st8" width="17.7" height="17.7"/>
<rect x="2705.8" y="662.6" class="st8" width="17.7" height="17.7"/>
<rect x="2731.7" y="662.6" class="st8" width="17.7" height="17.7"/>
<rect x="2757.7" y="662.6" class="st8" width="17.7" height="17.7"/>
<rect x="2783.6" y="662.6" class="st8" width="17.7" height="17.7"/>
<rect x="2653.9" y="688.6" class="st8" width="17.7" height="17.7"/>
<rect x="2679.9" y="688.6" class="st8" width="17.7" height="17.7"/>
<rect x="2705.8" y="688.6" class="st8" width="17.7" height="17.7"/>
<rect x="2731.7" y="688.6" class="st8" width="17.7" height="17.7"/>
<rect x="2757.7" y="688.6" class="st8" width="17.7" height="17.7"/>
<rect x="2783.6" y="688.6" class="st8" width="17.7" height="17.7"/>
<rect x="2301.9" y="539.7" class="st6" width="51.8" height="56.1"/>
<rect x="2231.6" y="539.7" class="st6" width="51.8" height="56.1"/>
<line class="st7" x1="2231.6" y1="566.8" x2="2282.3" y2="566.8"/>
<line class="st7" x1="2303.6" y1="566.8" x2="2353.7" y2="566.8"/>
<rect x="2165.4" y="509.7" class="st6" width="168.9" height="16"/>
<rect x="2178" y="495.8" class="st6" width="83" height="13.9"/>
</svg>
