<?xml version="1.0" encoding="utf-8"?>
<!-- Generator: Adobe Illustrator 19.2.1, SVG Export Plug-In . SVG Version: 6.00 Build 0)  -->
<svg version="1.1" id="Layer_1" xmlns="http://www.w3.org/2000/svg" xmlns:xlink="http://www.w3.org/1999/xlink" x="0px" y="0px"
	 viewBox="0 0 1846.8 436.8" style="enable-background:new 0 0 1846.8 436.8;" xml:space="preserve">
<style type="text/css">
	.st0{fill:#FFFFFF;stroke:#2F404F;stroke-width:3;stroke-miterlimit:10;}
	.st1{opacity:0.4;fill:#D9D9D9;enable-background:new    ;}
	.st2{fill:#FFFFFF;stroke:#2F404F;stroke-width:4;stroke-miterlimit:10;}
	.st3{fill:#FFFFFF;stroke:#2F404F;stroke-width:3.0091;stroke-miterlimit:10;}
	.st4{fill:#FFFFFF;stroke:#2F404F;stroke-width:2.8928;stroke-miterlimit:10;}
	.st5{fill:none;stroke:#2F404F;stroke-width:2.6978;stroke-miterlimit:10;}
	.st6{fill:none;stroke:#2F404F;stroke-width:3;stroke-miterlimit:10;}
	.st7{fill:none;stroke:#2F404F;stroke-width:4;stroke-miterlimit:10;}
	.st8{fill:#2F404F;}
	.st9{fill:#FFFFFF;stroke:#2F404F;stroke-width:2.5218;stroke-miterlimit:10;}
	.st10{fill:#FFFFFF;stroke:#2F404F;stroke-width:4.2431;stroke-miterlimit:10;}
	.st11{fill:#4ECDC4;}
	.st12{fill:none;stroke:#1A535C;stroke-width:2;stroke-miterlimit:10;}
</style>
<polygon class="st0" points="367.8,69.9 367.8,59.3 217.5,59.3 217.5,69.9 155.4,69.9 155.4,436.8 419.2,436.8 419.2,69.9 "/>
<rect x="176.8" y="250.9" class="st0" width="40.7" height="40.7"/>
<rect x="21.3" y="268.4" class="st0" width="258" height="168.4"/>
<rect x="176.8" y="89.8" class="st0" width="40.7" height="40.7"/>
<rect x="238.6" y="89.8" class="st0" width="40.7" height="40.7"/>
<rect x="300.4" y="89.8" class="st0" width="40.7" height="40.7"/>
<rect x="362.2" y="89.8" class="st0" width="40.7" height="40.7"/>
<rect x="176.8" y="170.3" class="st0" width="40.7" height="40.7"/>
<rect x="238.6" y="170.3" class="st0" width="40.7" height="40.7"/>
<rect x="300.4" y="170.3" class="st0" width="40.7" height="40.7"/>
<rect x="362.2" y="170.3" class="st0" width="40.7" height="40.7"/>
<title>city</title>
<path class="st1" d="M1812.7,436.8V288h-35.8V167.2h-28.6v17.9h-8.1v100.2h-12.5v7.2h-12.5v-13.4h-28.6v-9.8h19.7V263h-44.7v-17.9
	h-25.1v-8.9h5.4V229h-5.4v-2.7h-6.3v2.7h-36.7v7.2h36.7v8.9h-8.1v30.4h-86.8v-40.3h-30.4v-31.3h23.3v-6.3h-23.3V194h-6.3v3.6h-61.7
	v6.3h61.7v31.3h-7.2v21.5h-6.3v25.9h-44.7v-17h-40.3v-17.9h-24.2v17.9h-11.6v-2.7h-10.7v-15.2h-5.4v15.2h-50.1v6.3h50.1v10.7h-42.1
	v18.8h-36.7v-33.1h-14.3v-69.8h-76.9v51h-8.1v27.7h-29.3v-20.6H1037v-10.6h-19.7v-11.6h-85v11.6h-16.1v-50.1h-34.9v-77h-13.4V85.8
	h-23.3v-25h-56.4v25.1h-10.7v-52h-2.7v51.9H765v30.4h-13.4v110.9H643.3v26.8H540.4v27.7l-21-0.2l0,0v-43.7l-41.8-0.5l0.2-62.9h-34.9
	v7.2h-15.2v134.2h-20.6v16.1h-27.7v104.9 M1661.5,269.2h18.8v9.8h-18.8V269.2z M1353.7,269.2h10.7v10.7h-10.7V269.2z"/>
<rect x="1712.8" y="425.5" class="st2" width="111" height="11.3"/>
<path class="st3" d="M1753.3,344.1h23.7c-0.6-3.7-3.6-6.7-7.3-7.4c0.1-0.6,0.2-1.3,0.2-2c0-6-4.9-11-11-11c-1.3,0-2.6,0.2-3.8,0.7
	c-1.4-5.6-6.5-9.8-12.5-9.8c-6.5,0-11.9,4.8-12.8,11.1h-0.1c-8,0-14.4,6.5-14.4,14.4c0,1.3,0.2,2.6,0.5,3.8h27.9h9.6V344.1z"/>
<rect x="695.8" y="304.4" class="st2" width="103.3" height="132.4"/>
<rect x="1712.8" y="347.4" class="st2" width="96.4" height="72.4"/>
<rect x="1623.8" y="263.3" class="st2" width="114" height="173.5"/>
<rect x="1072" y="191.8" class="st2" width="141.6" height="245"/>
<polygon class="st4" points="721.8,436.8 535.8,436.8 535.8,171.8 761.1,171.8 761.1,202.7 581.8,202.7 581.8,235.4 761.1,235.4 
	761.1,262.9 721.8,262.9 "/>
<rect x="347.8" y="107.8" class="st0" width="212" height="329"/>
<rect x="969.8" y="69.9" class="st2" width="137" height="366.9"/>
<rect x="1160.1" y="272.3" class="st2" width="204.3" height="164.5"/>
<rect x="1407.8" y="272.3" class="st2" width="136" height="164.5"/>
<rect x="1475.8" y="209.8" class="st2" width="174" height="227"/>
<line class="st5" x1="367.8" y1="124" x2="400.1" y2="124"/>
<line class="st5" x1="412.6" y1="124" x2="444.9" y2="124"/>
<line class="st5" x1="462.1" y1="124" x2="494.4" y2="124"/>
<line class="st5" x1="506.8" y1="124" x2="539.2" y2="124"/>
<line class="st5" x1="367.8" y1="135.1" x2="400.1" y2="135.1"/>
<line class="st5" x1="412.6" y1="135.1" x2="444.9" y2="135.1"/>
<line class="st5" x1="462.1" y1="135.1" x2="494.4" y2="135.1"/>
<line class="st5" x1="506.8" y1="135.1" x2="539.2" y2="135.1"/>
<line class="st5" x1="367.8" y1="146.2" x2="400.1" y2="146.2"/>
<line class="st5" x1="412.6" y1="146.2" x2="444.9" y2="146.2"/>
<line class="st5" x1="462.1" y1="146.2" x2="494.4" y2="146.2"/>
<line class="st5" x1="506.8" y1="146.2" x2="539.2" y2="146.2"/>
<line class="st5" x1="367.8" y1="157.3" x2="400.1" y2="157.3"/>
<line class="st5" x1="412.6" y1="157.3" x2="444.9" y2="157.3"/>
<line class="st5" x1="462.1" y1="157.3" x2="494.4" y2="157.3"/>
<line class="st5" x1="506.8" y1="157.3" x2="539.2" y2="157.3"/>
<line class="st5" x1="367.8" y1="168.4" x2="400.1" y2="168.4"/>
<line class="st5" x1="412.6" y1="168.4" x2="444.9" y2="168.4"/>
<line class="st5" x1="462.1" y1="168.4" x2="494.4" y2="168.4"/>
<line class="st5" x1="506.8" y1="168.4" x2="539.2" y2="168.4"/>
<line class="st5" x1="367.8" y1="179.6" x2="400.1" y2="179.6"/>
<line class="st5" x1="412.6" y1="179.6" x2="444.9" y2="179.6"/>
<line class="st5" x1="462.1" y1="179.6" x2="494.4" y2="179.6"/>
<line class="st5" x1="506.8" y1="179.6" x2="539.2" y2="179.6"/>
<line class="st5" x1="367.8" y1="190.7" x2="400.1" y2="190.7"/>
<line class="st5" x1="412.6" y1="190.7" x2="444.9" y2="190.7"/>
<line class="st5" x1="462.1" y1="190.7" x2="494.4" y2="190.7"/>
<line class="st5" x1="506.8" y1="190.7" x2="539.2" y2="190.7"/>
<line class="st5" x1="367.8" y1="201.8" x2="400.1" y2="201.8"/>
<line class="st5" x1="412.6" y1="201.8" x2="444.9" y2="201.8"/>
<line class="st5" x1="462.1" y1="201.8" x2="494.4" y2="201.8"/>
<line class="st5" x1="506.8" y1="201.8" x2="539.2" y2="201.8"/>
<line class="st5" x1="367.8" y1="212.9" x2="400.1" y2="212.9"/>
<line class="st5" x1="412.6" y1="212.9" x2="444.9" y2="212.9"/>
<line class="st5" x1="462.1" y1="212.9" x2="494.4" y2="212.9"/>
<line class="st5" x1="506.8" y1="212.9" x2="539.2" y2="212.9"/>
<line class="st5" x1="367.8" y1="246.2" x2="400.1" y2="246.2"/>
<line class="st5" x1="412.6" y1="246.2" x2="444.9" y2="246.2"/>
<line class="st5" x1="462.1" y1="246.2" x2="494.4" y2="246.2"/>
<line class="st5" x1="367.8" y1="257.3" x2="400.1" y2="257.3"/>
<line class="st5" x1="412.6" y1="257.3" x2="444.9" y2="257.3"/>
<line class="st5" x1="462.1" y1="257.3" x2="494.4" y2="257.3"/>
<line class="st5" x1="506.8" y1="257.3" x2="539.2" y2="257.3"/>
<line class="st5" x1="367.8" y1="268.4" x2="400.1" y2="268.4"/>
<line class="st5" x1="412.6" y1="268.4" x2="444.9" y2="268.4"/>
<line class="st5" x1="462.1" y1="268.4" x2="494.4" y2="268.4"/>
<line class="st5" x1="506.8" y1="268.4" x2="539.2" y2="268.4"/>
<line class="st5" x1="367.8" y1="279.5" x2="400.1" y2="279.5"/>
<line class="st5" x1="412.6" y1="279.5" x2="444.9" y2="279.5"/>
<line class="st5" x1="462.1" y1="279.5" x2="494.4" y2="279.5"/>
<line class="st5" x1="506.8" y1="279.5" x2="539.2" y2="279.5"/>
<line class="st5" x1="367.8" y1="290.6" x2="400.1" y2="290.6"/>
<line class="st5" x1="412.6" y1="290.6" x2="444.9" y2="290.6"/>
<line class="st5" x1="462.1" y1="290.6" x2="494.4" y2="290.6"/>
<line class="st5" x1="506.8" y1="290.6" x2="539.2" y2="290.6"/>
<line class="st5" x1="367.8" y1="301.7" x2="400.1" y2="301.7"/>
<line class="st5" x1="412.6" y1="301.7" x2="444.9" y2="301.7"/>
<line class="st5" x1="462.1" y1="301.7" x2="494.4" y2="301.7"/>
<line class="st5" x1="506.8" y1="301.7" x2="539.2" y2="301.7"/>
<line class="st5" x1="367.8" y1="312.8" x2="400.1" y2="312.8"/>
<line class="st5" x1="412.6" y1="312.8" x2="444.9" y2="312.8"/>
<line class="st5" x1="462.1" y1="312.8" x2="494.4" y2="312.8"/>
<line class="st5" x1="506.8" y1="312.8" x2="539.2" y2="312.8"/>
<line class="st5" x1="367.8" y1="323.9" x2="400.1" y2="323.9"/>
<line class="st5" x1="412.6" y1="323.9" x2="444.9" y2="323.9"/>
<line class="st5" x1="462.1" y1="323.9" x2="494.4" y2="323.9"/>
<line class="st5" x1="506.8" y1="323.9" x2="539.2" y2="323.9"/>
<line class="st5" x1="367.8" y1="335.1" x2="400.1" y2="335.1"/>
<line class="st5" x1="412.6" y1="335.1" x2="444.9" y2="335.1"/>
<line class="st5" x1="462.1" y1="335.1" x2="494.4" y2="335.1"/>
<line class="st5" x1="506.8" y1="335.1" x2="539.2" y2="335.1"/>
<line class="st5" x1="367.8" y1="346.2" x2="400.1" y2="346.2"/>
<line class="st5" x1="412.6" y1="346.2" x2="444.9" y2="346.2"/>
<line class="st5" x1="462.1" y1="346.2" x2="494.4" y2="346.2"/>
<line class="st5" x1="506.8" y1="346.2" x2="539.2" y2="346.2"/>
<line class="st5" x1="367.8" y1="357.3" x2="400.1" y2="357.3"/>
<line class="st5" x1="412.6" y1="357.3" x2="444.9" y2="357.3"/>
<line class="st5" x1="462.1" y1="357.3" x2="494.4" y2="357.3"/>
<line class="st5" x1="506.8" y1="357.3" x2="539.2" y2="357.3"/>
<line class="st5" x1="367.8" y1="368.4" x2="400.1" y2="368.4"/>
<line class="st5" x1="412.6" y1="368.4" x2="444.9" y2="368.4"/>
<line class="st5" x1="462.1" y1="368.4" x2="494.4" y2="368.4"/>
<line class="st5" x1="506.8" y1="368.4" x2="539.2" y2="368.4"/>
<line class="st5" x1="367.8" y1="379.5" x2="400.1" y2="379.5"/>
<line class="st5" x1="412.6" y1="379.5" x2="444.9" y2="379.5"/>
<line class="st5" x1="462.1" y1="379.5" x2="494.4" y2="379.5"/>
<line class="st5" x1="506.8" y1="379.5" x2="539.2" y2="379.5"/>
<line class="st5" x1="367.8" y1="390.6" x2="400.1" y2="390.6"/>
<line class="st5" x1="412.6" y1="390.6" x2="444.9" y2="390.6"/>
<line class="st5" x1="462.1" y1="390.6" x2="494.4" y2="390.6"/>
<line class="st5" x1="506.8" y1="390.6" x2="539.2" y2="390.6"/>
<line class="st5" x1="367.8" y1="401.7" x2="400.1" y2="401.7"/>
<line class="st5" x1="412.6" y1="401.7" x2="444.9" y2="401.7"/>
<line class="st5" x1="462.1" y1="401.7" x2="494.4" y2="401.7"/>
<line class="st5" x1="506.8" y1="401.7" x2="539.2" y2="401.7"/>
<line class="st5" x1="367.8" y1="412.8" x2="400.1" y2="412.8"/>
<line class="st5" x1="412.6" y1="412.8" x2="444.9" y2="412.8"/>
<line class="st5" x1="462.1" y1="412.8" x2="494.4" y2="412.8"/>
<line class="st5" x1="506.8" y1="412.8" x2="539.2" y2="412.8"/>
<line class="st5" x1="506.8" y1="246.2" x2="539.2" y2="246.2"/>
<circle class="st0" cx="328.2" cy="225.8" r="55.8"/>
<rect x="237.8" y="202.7" class="st0" width="190" height="234.1"/>
<path class="st3" d="M734.4,436.8h38.4c-1-6.1-5.8-10.9-11.8-12c0.2-1,0.3-2.1,0.3-3.2c0-9.8-7.9-17.7-17.7-17.7
	c-2.2,0-4.3,0.4-6.2,1.1c-2.3-9.1-10.5-15.8-20.3-15.8c-10.6,0-19.3,7.8-20.7,18c-0.1,0-0.1,0-0.2,0c-12.9,0-23.4,10.5-23.4,23.4
	c0,2.1,0.3,4.2,0.8,6.2h45.1H734.4z"/>
<path class="st3" d="M67.7,436.8h38.4c-1-6.1-5.8-10.9-11.8-12c0.2-1,0.3-2.1,0.3-3.2c0-9.8-7.9-17.7-17.7-17.7
	c-2.2,0-4.3,0.4-6.2,1.1c-2.3-9.1-10.5-15.8-20.3-15.8c-10.6,0-19.3,7.8-20.7,18c-0.1,0-0.1,0-0.2,0c-12.9,0-23.4,10.5-23.4,23.4
	c0,2.1,0.3,4.2,0.8,6.2H52H67.7z"/>
<path class="st3" d="M1365.3,436.8h38.5c-1-6.1-5.8-10.9-11.8-12c0.2-1,0.3-2.1,0.3-3.2c0-9.8-7.9-17.7-17.7-17.7
	c-2.2,0-4.3,0.4-6.2,1.1c-2.3-9.1-10.5-15.8-20.3-15.8c-10.6,0-19.3,7.8-20.7,18c-0.1,0-0.1,0-0.2,0c-12.9,0-23.4,10.5-23.4,23.4
	c0,2.1,0.3,4.2,0.8,6.2h45.1H1365.3z"/>
<rect x="462.1" y="89.8" class="st5" width="77.1" height="18"/>
<g>
	<line class="st5" x1="258.8" y1="218.8" x2="258.8" y2="246.2"/>
	<line class="st5" x1="287.3" y1="219.3" x2="287.3" y2="246.7"/>
	<line class="st5" x1="315.7" y1="219.8" x2="315.7" y2="247.2"/>
	<line class="st5" x1="344.2" y1="220.3" x2="344.2" y2="247.7"/>
	<line class="st5" x1="372.7" y1="220.8" x2="372.7" y2="248.2"/>
	<line class="st5" x1="401.1" y1="221.4" x2="401.1" y2="248.7"/>
</g>
<g>
	<line class="st5" x1="258.8" y1="270.1" x2="258.8" y2="297.5"/>
	<line class="st5" x1="287.3" y1="270.6" x2="287.3" y2="298"/>
	<line class="st5" x1="315.7" y1="271.1" x2="315.7" y2="298.5"/>
	<line class="st5" x1="344.2" y1="271.6" x2="344.2" y2="299"/>
	<line class="st5" x1="372.7" y1="272.1" x2="372.7" y2="299.5"/>
	<line class="st5" x1="401.1" y1="272.6" x2="401.1" y2="300"/>
</g>
<g>
	<line class="st5" x1="258.8" y1="321.4" x2="258.8" y2="348.8"/>
	<line class="st5" x1="287.3" y1="321.9" x2="287.3" y2="349.3"/>
	<line class="st5" x1="315.7" y1="322.4" x2="315.7" y2="349.8"/>
	<line class="st5" x1="344.2" y1="322.9" x2="344.2" y2="350.3"/>
	<line class="st5" x1="372.7" y1="323.4" x2="372.7" y2="350.8"/>
	<line class="st5" x1="401.1" y1="323.9" x2="401.1" y2="351.3"/>
</g>
<g>
	<line class="st5" x1="258.8" y1="372.7" x2="258.8" y2="400.1"/>
	<line class="st5" x1="287.3" y1="373.2" x2="287.3" y2="400.6"/>
	<line class="st5" x1="315.7" y1="373.7" x2="315.7" y2="401.1"/>
	<line class="st5" x1="344.2" y1="374.2" x2="344.2" y2="401.6"/>
	<line class="st5" x1="372.7" y1="374.7" x2="372.7" y2="402.1"/>
	<line class="st5" x1="401.1" y1="375.2" x2="401.1" y2="402.6"/>
</g>
<rect x="581.8" y="321.4" class="st0" width="114" height="32.4"/>
<rect x="581.8" y="262.2" class="st0" width="114" height="32.4"/>
<rect x="1545.3" y="239.8" class="st0" width="35" height="197"/>
<rect x="1476.6" y="249.8" class="st0" width="50" height="22.1"/>
<rect x="1476.6" y="287.6" class="st0" width="50" height="22.1"/>
<rect x="1476.6" y="325.3" class="st0" width="50" height="22.1"/>
<rect x="1476.6" y="363.1" class="st0" width="50" height="22.1"/>
<rect x="1476.6" y="400.8" class="st0" width="50" height="22.1"/>
<rect x="1598.8" y="249.8" class="st0" width="50" height="22.1"/>
<rect x="1598.8" y="287.6" class="st0" width="50" height="22.1"/>
<rect x="1598.8" y="325.3" class="st0" width="50" height="22.1"/>
<rect x="1598.8" y="363.1" class="st0" width="50" height="22.1"/>
<rect x="1598.8" y="400.8" class="st0" width="50" height="22.1"/>
<line class="st6" x1="1675.9" y1="280" x2="1737.8" y2="280"/>
<line class="st6" x1="1675.9" y1="294.5" x2="1737.8" y2="294.5"/>
<line class="st6" x1="1675.9" y1="309" x2="1737.8" y2="309"/>
<line class="st6" x1="1675.9" y1="323.5" x2="1737.8" y2="323.5"/>
<line class="st6" x1="1675.9" y1="338.1" x2="1737.8" y2="338.1"/>
<line class="st6" x1="1675.9" y1="349.7" x2="1737.8" y2="349.7"/>
<line class="st6" x1="1675.9" y1="364.3" x2="1737.8" y2="364.3"/>
<line class="st6" x1="1675.9" y1="378.8" x2="1737.8" y2="378.8"/>
<line class="st6" x1="1675.9" y1="393.3" x2="1737.8" y2="393.3"/>
<line class="st6" x1="1675.9" y1="407.9" x2="1737.8" y2="407.9"/>
<rect x="1068.6" y="69.9" class="st7" width="24.3" height="366.1"/>
<rect x="1076.2" y="83.8" class="st8" width="9.2" height="9.2"/>
<rect x="1076.2" y="107.2" class="st8" width="9.2" height="9.2"/>
<rect x="1076.2" y="130.5" class="st8" width="9.2" height="9.2"/>
<rect x="1076.2" y="153.8" class="st8" width="9.2" height="9.2"/>
<rect x="1076.2" y="177.2" class="st8" width="9.2" height="9.2"/>
<rect x="1076.2" y="200.5" class="st8" width="9.2" height="9.2"/>
<rect x="1076.2" y="223.9" class="st8" width="9.2" height="9.2"/>
<rect x="1076.2" y="247.2" class="st8" width="9.2" height="9.2"/>
<rect x="1076.2" y="270.6" class="st8" width="9.2" height="9.2"/>
<rect x="1076.2" y="293.9" class="st8" width="9.2" height="9.2"/>
<rect x="1076.2" y="317.3" class="st8" width="9.2" height="9.2"/>
<rect x="1076.2" y="340.6" class="st8" width="9.2" height="9.2"/>
<rect x="1076.2" y="363.9" class="st8" width="9.2" height="9.2"/>
<rect x="1076.2" y="387.3" class="st8" width="9.2" height="9.2"/>
<rect x="1076.2" y="410.6" class="st8" width="9.2" height="9.2"/>
<line class="st6" x1="1054.5" y1="88.4" x2="987.4" y2="88.4"/>
<line class="st6" x1="1054.5" y1="111.8" x2="987.4" y2="111.8"/>
<line class="st6" x1="1054.5" y1="135.1" x2="987.4" y2="135.1"/>
<line class="st6" x1="1054.5" y1="158.5" x2="987.4" y2="158.5"/>
<line class="st6" x1="1054.5" y1="181.8" x2="987.4" y2="181.8"/>
<line class="st6" x1="1054.5" y1="205.2" x2="987.4" y2="205.2"/>
<line class="st6" x1="1054.5" y1="228.5" x2="987.4" y2="228.5"/>
<line class="st6" x1="1054.5" y1="251.8" x2="987.4" y2="251.8"/>
<line class="st6" x1="1054.5" y1="275.2" x2="987.4" y2="275.2"/>
<line class="st6" x1="1054.5" y1="298.5" x2="987.4" y2="298.5"/>
<line class="st6" x1="1054.5" y1="321.9" x2="987.4" y2="321.9"/>
<line class="st6" x1="1054.5" y1="345.2" x2="987.4" y2="345.2"/>
<line class="st6" x1="1054.5" y1="368.6" x2="987.4" y2="368.6"/>
<line class="st6" x1="1054.5" y1="391.9" x2="987.4" y2="391.9"/>
<rect x="886.2" y="351.1" class="st9" width="144" height="85.7"/>
<path class="st2" d="M1094.4,423.1c1.1-2.7,1.7-5.6,1.7-8.6c0-12.6-10.2-22.9-22.9-22.9c-4,0-7.8,1-11,2.8
	c-0.7-14-12.3-25.2-26.5-25.2c-14.6,0-26.5,11.9-26.5,26.5c0,1.8,0.2,3.5,0.5,5.2c-10.6,1.3-18.8,10.4-18.8,21.3
	c0,5.2,1.9,10,5,13.7h65.6h19.5C1087,433.8,1091.9,429,1094.4,423.1"/>
<rect x="876.4" y="245.8" class="st2" width="157.7" height="191"/>
<polygon class="st10" points="1013.1,245.8 897.5,245.8 897.5,212.7 1013.1,179.6 "/>
<line class="st6" x1="897.5" y1="279.1" x2="1013.1" y2="279.1"/>
<line class="st6" x1="897.5" y1="294.5" x2="1013.1" y2="294.5"/>
<line class="st6" x1="897.5" y1="400.8" x2="1013.1" y2="400.8"/>
<line class="st6" x1="897.5" y1="413" x2="1013.1" y2="413"/>
<g>
	<line class="st6" x1="955.3" y1="295.7" x2="955.3" y2="401.2"/>
	<line class="st6" x1="923.2" y1="294.9" x2="923.2" y2="401.2"/>
	<line class="st6" x1="987.4" y1="294.9" x2="987.4" y2="401.2"/>
</g>
<g>
	<line class="st6" x1="955.3" y1="219" x2="955.3" y2="245.8"/>
	<line class="st6" x1="923.2" y1="218.8" x2="923.2" y2="245.8"/>
	<line class="st6" x1="987.4" y1="218.8" x2="987.4" y2="245.8"/>
</g>
<rect x="1168.8" y="247.1" class="st2" width="185" height="18.7"/>
<line class="st7" x1="979.9" y1="147.9" x2="979.9" y2="191.8"/>
<rect x="1142.8" y="259.9" class="st2" width="236.9" height="18.7"/>
<rect x="1190.8" y="219.8" class="st2" width="59.7" height="27"/>
<rect x="1178.1" y="289.6" class="st0" width="35.3" height="29.7"/>
<rect x="1243.4" y="289.6" class="st0" width="35.3" height="29.7"/>
<rect x="1308.7" y="289.6" class="st0" width="35.3" height="29.7"/>
<rect x="1178.1" y="349.1" class="st0" width="35.3" height="29.7"/>
<rect x="1243.4" y="349.1" class="st0" width="35.3" height="29.7"/>
<rect x="1308.7" y="349.1" class="st0" width="35.3" height="29.7"/>
<line class="st6" x1="1178.1" y1="326.5" x2="1213.6" y2="326.5"/>
<line class="st6" x1="1243.3" y1="326.5" x2="1278.8" y2="326.5"/>
<line class="st6" x1="1308.6" y1="326.5" x2="1344.1" y2="326.5"/>
<line class="st6" x1="1178.1" y1="385.2" x2="1213.6" y2="385.2"/>
<line class="st6" x1="1243.3" y1="385.2" x2="1278.8" y2="385.2"/>
<line class="st6" x1="1308.6" y1="385.2" x2="1344.1" y2="385.2"/>
<rect x="1660.5" y="280" class="st6" width="8" height="145.6"/>
<rect x="1737.8" y="346.1" class="st2" width="102.7" height="13.3"/>
<rect x="1737.8" y="419.9" class="st0" width="102.7" height="6.7"/>
<line class="st7" x1="1792.8" y1="359.4" x2="1792.8" y2="419.9"/>
<line class="st7" x1="1754.4" y1="359.4" x2="1754.4" y2="419.9"/>
<line class="st7" x1="1240.3" y1="170.5" x2="1240.3" y2="219"/>
<rect x="1737.8" y="280" class="st2" width="16.6" height="37.3"/>
<rect x="738.4" y="313.7" class="st0" width="13.1" height="26.3"/>
<rect x="770.1" y="313.3" class="st0" width="13.5" height="27"/>
<g>
	<rect x="738.4" y="362.5" class="st0" width="13.1" height="26.3"/>
	<rect x="770.1" y="362.2" class="st0" width="13.5" height="27"/>
</g>
<line class="st6" x1="734.6" y1="341" x2="755.3" y2="341"/>
<line class="st6" x1="766.5" y1="341" x2="787.3" y2="341"/>
<line class="st6" x1="734.6" y1="389.2" x2="755.3" y2="389.2"/>
<line class="st6" x1="766.5" y1="389.2" x2="787.3" y2="389.2"/>
<rect x="983.7" y="46.4" class="st2" width="109.2" height="17.9"/>
<polygon class="st2" points="1619.3,194.7 1506.3,194.7 1524.3,115.4 1601.3,115.4 "/>
<rect x="1491.8" y="194.7" class="st7" width="140.7" height="15.1"/>
<line class="st6" x1="1524.3" y1="115.4" x2="1524.3" y2="194.7"/>
<line class="st6" x1="1601.3" y1="115.4" x2="1601.3" y2="194.7"/>
<line class="st6" x1="1562.1" y1="115.4" x2="1562.1" y2="194.7"/>
<rect x="1557.1" y="64.3" class="st2" width="10" height="51.1"/>
<line class="st6" x1="1562.1" y1="46.4" x2="1562.1" y2="64.3"/>
<path class="st3" d="M1741.9,436.8h23.7c-0.6-3.7-3.6-6.7-7.3-7.4c0.1-0.6,0.2-1.3,0.2-2c0-6-4.9-11-11-11c-1.3,0-2.6,0.2-3.8,0.7
	c-1.4-5.6-6.5-9.8-12.5-9.8c-6.5,0-11.9,4.8-12.8,11.1h-0.1c-8,0-14.4,6.5-14.4,14.4c0,1.3,0.2,2.6,0.5,3.8h27.9h9.6V436.8z"/>
<rect x="581.8" y="202.7" class="st4" width="159.3" height="32.7"/>
<line class="st6" x1="620" y1="202.7" x2="620" y2="235.4"/>
<g id="tree">
	<g>
		<polygon class="st11" points="1141.7,349.1 1125.5,394.2 1141.7,410.4 1157.9,394.2 		"/>
		<g>
			<line class="st12" x1="1138" y1="406.8" x2="1138" y2="439.7"/>
			<polygon class="st12" points="1138,352.1 1121.8,397.2 1138,413.4 1154.2,397.2 			"/>
		</g>
	</g>
	<g>
		<polygon class="st11" points="632.3,370.9 620,405.1 632.3,417.4 644.6,405.1 		"/>
		<g>
			<line class="st12" x1="629.6" y1="414.7" x2="629.6" y2="439.7"/>
			<polygon class="st12" points="629.6,373.2 617.3,407.4 629.6,419.7 641.9,407.4 			"/>
		</g>
	</g>
	<g>
		<polygon class="st11" points="592.5,390.7 583.8,415.1 592.5,423.8 601.3,415.1 		"/>
		<g>
			<line class="st12" x1="590.6" y1="421.9" x2="590.6" y2="439.7"/>
			<polygon class="st12" points="590.6,392.3 581.8,416.7 590.6,425.4 599.3,416.7 			"/>
		</g>
	</g>
	<g>
		<polygon class="st11" points="866.9,370.9 854.6,405.1 866.9,417.4 879.2,405.1 		"/>
		<g>
			<line class="st12" x1="864.1" y1="414.7" x2="864.1" y2="439.7"/>
			<polygon class="st12" points="864.1,373.2 851.8,407.4 864.1,419.7 876.4,407.4 			"/>
		</g>
	</g>
	<g>
		<polygon class="st11" points="1121.8,370.9 1109.6,405.1 1121.8,417.4 1134.1,405.1 		"/>
		<g>
			<line class="st12" x1="1119.1" y1="414.7" x2="1119.1" y2="439.7"/>
			<polygon class="st12" points="1119.1,373.2 1106.8,407.4 1119.1,419.7 1131.4,407.4 			"/>
		</g>
	</g>
	<g>
		<polygon class="st11" points="1446.5,370.9 1434.2,405.1 1446.5,417.4 1458.7,405.1 		"/>
		<g>
			<line class="st12" x1="1443.7" y1="414.7" x2="1443.7" y2="439.7"/>
			<polygon class="st12" points="1443.7,373.2 1431.4,407.4 1443.7,419.7 1456,407.4 			"/>
		</g>
	</g>
	<g>
		<polygon class="st11" points="1405.9,338.4 1387.8,388.8 1405.9,406.9 1424,388.8 		"/>
		<g>
			<line class="st12" x1="1401.8" y1="402.9" x2="1401.8" y2="439.7"/>
			<polygon class="st12" points="1401.8,341.8 1383.7,392.2 1401.8,410.3 1419.9,392.2 			"/>
		</g>
	</g>
	<g>
		<polygon class="st11" points="1832.8,370.9 1820.6,405.1 1832.8,417.4 1845.1,405.1 		"/>
		<g>
			<line class="st12" x1="1830.1" y1="414.7" x2="1830.1" y2="439.7"/>
			<polygon class="st12" points="1830.1,373.2 1817.8,407.4 1830.1,419.7 1842.4,407.4 			"/>
		</g>
	</g>
	<g>
		<polygon class="st11" points="561.2,370.9 548.9,405.1 561.2,417.4 573.5,405.1 		"/>
		<g>
			<line class="st12" x1="558.4" y1="414.7" x2="558.4" y2="439.7"/>
			<polygon class="st12" points="558.4,373.2 546.1,407.4 558.4,419.7 570.7,407.4 			"/>
		</g>
	</g>
	<g>
		<polygon class="st11" points="315.8,377.1 304.6,408.2 315.8,419.4 327,408.2 		"/>
		<g>
			<line class="st12" x1="313.3" y1="417" x2="313.3" y2="439.7"/>
			<polygon class="st12" points="313.3,379.2 302.1,410.3 313.3,421.5 324.5,410.3 			"/>
		</g>
	</g>
</g>
<line class="st6" x1="390.8" y1="26.3" x2="390.8" y2="69.9"/>
<line class="st6" x1="412.6" y1="0" x2="412.6" y2="69.9"/>
<g>
	<polygon class="st11" points="26.4,359.5 12,399.3 26.4,413.7 40.7,399.3 	"/>
	<g>
		<line class="st12" x1="23.2" y1="410.6" x2="23.2" y2="439.7"/>
		<polygon class="st12" points="23.2,362.2 8.8,402 23.2,416.4 37.5,402 		"/>
	</g>
</g>
<line class="st6" x1="42.9" y1="288.6" x2="42.9" y2="339"/>
<line class="st6" x1="59" y1="312.4" x2="59" y2="339"/>
<line class="st6" x1="93.6" y1="312.4" x2="93.6" y2="339"/>
<line class="st6" x1="128.2" y1="312.4" x2="128.2" y2="339"/>
<line class="st6" x1="162.8" y1="312.4" x2="162.8" y2="339"/>
<line class="st6" x1="197.4" y1="312.4" x2="197.4" y2="339"/>
<line class="st6" x1="76.9" y1="288.6" x2="76.9" y2="339"/>
<line class="st6" x1="111" y1="288.6" x2="111" y2="339"/>
<line class="st6" x1="145" y1="288.6" x2="145" y2="339"/>
<line class="st6" x1="179.1" y1="288.6" x2="179.1" y2="339"/>
<line class="st6" x1="213.2" y1="288.6" x2="213.2" y2="339"/>
</svg>
