<?xml version="1.0" encoding="utf-8"?>
<!-- Generator: Adobe Illustrator 19.2.1, SVG Export Plug-In . SVG Version: 6.00 Build 0)  -->
<svg version="1.1" id="Layer_2" xmlns="http://www.w3.org/2000/svg" xmlns:xlink="http://www.w3.org/1999/xlink" x="0px" y="0px"
	 viewBox="0 0 1602 388" style="enable-background:new 0 0 1602 388;" xml:space="preserve">
<style type="text/css">
	.st0{fill:#1A535C;}
</style>
<title>city</title>
<path class="st0" d="M0,333v55h1602V284h-40V149h-32v20h-9v112h-14v8h-14v-15h-32v-11h22v-7h-50v-20h-28v-10h6v-8h-6v-3h-7v3h-41v8
	h41v10h-9v34h-97v-45h-34v-35h26v-7h-26v-4h-7v4h-69v7h69v35h-8v24h-7v29h-50v-19h-45v-20h-27v20h-13v-3h-12v-17h-6v17h-56v7h56v12
	h-47v21h-41v-37h-16v-78h-86v57h-9v31h-33v-23H735v-12h-22v-13h-95v13h-18v-56h-39V92h-15V58h-26V30h-63v28h-12V0h-3v58h-11v34h-15
	v124H295v30H180v31h-25v22l1.5-71.1l-46.7-0.6L110,157H71v8H54v150H31v18H0z M1433,263h21v11h-21V263z M1089,263h12v12h-12V263z"/>
</svg>
