<?xml version="1.0" encoding="utf-8"?>
<!-- Generator: Adobe Illustrator 19.2.1, SVG Export Plug-In . SVG Version: 6.00 Build 0)  -->
<svg version="1.1" id="city" xmlns="http://www.w3.org/2000/svg" xmlns:xlink="http://www.w3.org/1999/xlink" x="0px" y="0px"
	 viewBox="0 0 2281.8 421.7" style="enable-background:new 0 0 2281.8 421.7;" xml:space="preserve">
<style type="text/css">
	.city2-0{opacity:0.4;fill:#BFAD52;}
	.city2-1{fill:#FFE66D;stroke:#2F404F;stroke-width:4;stroke-miterlimit:10;}
</style>
<polygon class="city2-0" points="2283.4,428.8 2283.4,346.7 2276.2,346.7 2276.2,276 2263.8,276 2263.8,263.6 2247.2,263.6 
	2247.2,278.1 2238.8,278.1 2238.8,317.6 2231.6,317.6 2231.6,368.5 2221.2,368.5 2221.2,340.5 2208.7,340.5 2208.7,144.1 
	2198.3,144.1 2198.3,122.3 2106.9,122.3 2106.9,145.1 2099.6,145.1 2099.6,66.2 2063.2,66.2 2063.2,53.7 2038.3,53.7 2038.3,69.3 
	2026.9,69.3 2026.9,227.2 2005,227.2 2005,164.9 1996.7,164.9 1996.7,121.2 1991.5,116 1991.5,37.1 1979.1,37.1 1979.1,-0.3 
	1937.5,-0.3 1937.5,31.9 1927.1,31.9 1927.1,46.4 1917.8,46.4 1917.8,131.6 1904.3,131.6 1904.3,93.2 1802.4,93.2 1802.4,143 
	1776.5,143 1776.5,133.7 1758.8,133.7 1758.8,148.2 1724.5,148.2 1724.5,124.3 1696.5,124.3 1696.5,106.7 1676.7,106.7 
	1676.7,120.2 1618.5,120.2 1618.5,280.2 1588.4,280.2 1588.4,296.8 1572.8,296.8 1572.8,311.9 1555.4,311.9 1555.4,262 1522.9,262 
	1522.9,206.4 1437.7,206.4 1437.7,213 1307.4,213 1307.4,243 1225.8,243 1225.8,195 1138.4,195 1138.4,178 1036.4,178 1036.4,196 
	1015.4,196 1015.4,223 872.4,223 872.4,250 789.4,250 789.4,227 774.4,227 774.4,212 765.4,212 765.4,195 743.4,195 743.4,212 
	734.4,212 734.4,227 719.4,227 719.4,250 686.4,250 686.4,319 809.4,319 809.4,421 1014,421 1014,428.8 "/>
<title>city2</title>
<path class="city2-0" d="M218.9,345.5h365.9L637.2,197c-94.7-7.5-145.6,28-169.4,53.3c-29.5-72.8-92.9-163.5-227.7-180.4
	c0,0,24,28.2,47.8,84.1l0,0c0,0,4.4,9.7,9.9,25v0.1c0.7,2.1,1.5,4.2,2.3,6.5c1,2.8,2,5.5,2.9,8.4l-0.2-0.1
	c6.5,20.3,13.2,46.1,15.8,72.3c0,0-13.8-52.4-39.5-86.4l-0.7-0.4c-32.9-18.2-86-36.2-167.5-36.2c0,0,16.3,14.5,38.1,47.7
	c0,0,39.7,54.7,43.7,110.8c0,0-26.1-57.2-56.4-90.2c-71-11-128.2-3.7-128.2-3.7s61.4,47.4,102.6,137.8L218.9,345.5L218.9,345.5z"/>
<polygon class="city2-1" points="2256.9,128.5 2256.9,111.4 2237.5,111.4 2237.5,124.5 2180.2,124.5 2180.2,278.8 2150.6,278.8 
	2150.6,294.8 2135.2,294.8 2135.2,309.3 2095.3,309.3 2095.3,343.9 2086.1,343.9 2086.1,207.6 2002.3,207.6 2002.3,232.7 
	1953.2,232.7 1953.2,319.8 1921.5,319.8 1921.5,309.3 1899,309.3 1899,293.8 1837.7,293.8 1837.7,309.3 1806,309.3 1806,321.8 
	1793.7,321.8 1793.7,196.6 1685.4,196.6 1685.4,332.9 1658.8,332.9 1658.8,278.8 1613.8,278.8 1613.8,344.9 1598.4,344.9 
	1598.4,299 1497.4,299 1497.4,250 1317.4,250 1317.4,367 1250.4,367 1250.4,328 1235.4,328 1235.4,305 1155.4,305 1155.4,328 
	1101.4,328 1101.4,367 1086.4,367 1086.4,344 1025.4,344 1025.4,367 982.4,367 982.4,299 927.4,299 927.4,263 907.4,263 907.4,299 
	887.4,299 887.4,246 857.4,246 857.4,299 839.4,299 839.4,310 735.4,310 735.4,194 716.4,194 716.4,179 705.4,179 705.4,165 
	633.4,165 633.4,179 623.4,179 623.4,194 604.4,194 604.4,310 557.4,310 557.4,299 501.4,299 501.4,249 496.4,249 496.4,238 
	488.4,238 488.4,232 421.4,232 421.4,238 411.4,238 411.4,275 336.4,275 336.4,344 291.4,344 291.4,286 281.4,286 282.4,340 
	244.4,340 243.4,286 171.4,286 171.4,332 141.4,332 141.4,310 83.4,310 83.4,332 66.4,332 66.4,367 -1.6,367 -1.6,422 1585.4,422 
	1598.4,422 2284.4,422 2284.4,128.5 "/>
</svg>
