<?xml version="1.0" encoding="utf-8"?>
<!-- Generator: Adobe Illustrator 19.2.1, SVG Export Plug-In . SVG Version: 6.00 Build 0)  -->
<svg version="1.1" id="city" xmlns="http://www.w3.org/2000/svg" xmlns:xlink="http://www.w3.org/1999/xlink" x="0px" y="0px"
	 viewBox="0 0 2285 422.3" style="enable-background:new 0 0 2285 422.3;" xml:space="preserve">
<style type="text/css">
	.st0{fill:url(#SVGID_1_);}
	.st1{fill:url(#SVGID_2_);}
	.st2{fill:#1A535C;}
</style>
<linearGradient id="SVGID_1_" gradientUnits="userSpaceOnUse" x1="1486.5" y1="68.4177" x2="1486.5" y2="497.5177" gradientTransform="matrix(1 0 0 -1 0 494.4)">
	<stop  offset="0" style="stop-color:#364749;stop-opacity:0"/>
	<stop  offset="0.14" style="stop-color:#364749;stop-opacity:0.24"/>
	<stop  offset="0.37" style="stop-color:#364749;stop-opacity:0.57"/>
	<stop  offset="0.6" style="stop-color:#364749;stop-opacity:0.81"/>
	<stop  offset="0.81" style="stop-color:#364749;stop-opacity:0.95"/>
	<stop  offset="1" style="stop-color:#364749"/>
</linearGradient>
<polygon class="st0" points="2285,429.1 2285,347 2277.8,347 2277.8,276.3 2265.4,276.3 2265.4,263.9 2248.8,263.9 2248.8,278.4 
	2240.4,278.4 2240.4,317.9 2233.2,317.9 2233.2,368.8 2222.8,368.8 2222.8,340.8 2210.3,340.8 2210.3,144.4 2199.9,144.4 
	2199.9,122.6 2108.5,122.6 2108.5,145.4 2101.2,145.4 2101.2,66.5 2064.8,66.5 2064.8,54 2039.9,54 2039.9,69.6 2028.5,69.6 
	2028.5,227.5 2006.6,227.5 2006.6,165.2 1998.3,165.2 1998.3,121.5 1993.1,116.3 1993.1,37.4 1980.7,37.4 1980.7,0 1939.1,0 
	1939.1,32.2 1928.7,32.2 1928.7,46.7 1919.4,46.7 1919.4,131.9 1905.9,131.9 1905.9,93.5 1804,93.5 1804,143.3 1778.1,143.3 
	1778.1,134 1760.4,134 1760.4,148.5 1726.1,148.5 1726.1,124.6 1698.1,124.6 1698.1,107 1678.3,107 1678.3,120.5 1620.1,120.5 
	1620.1,280.5 1590,280.5 1590,297.1 1574.4,297.1 1574.4,312.2 1557,312.2 1557,262.3 1524.5,262.3 1524.5,206.7 1439.3,206.7 
	1439.3,213.3 1309,213.3 1309,243.3 1227.4,243.3 1227.4,195.3 1140,195.3 1140,178.3 1038,178.3 1038,196.3 1017,196.3 1017,223.3 
	874,223.3 874,250.3 791,250.3 791,227.3 776,227.3 776,212.3 767,212.3 767,195.3 745,195.3 745,212.3 736,212.3 736,227.3 
	721,227.3 721,250.3 688,250.3 688,319.3 811,319.3 811,421.3 1015.6,421.3 1015.6,429.1 "/>
<title>city2</title>
<linearGradient id="SVGID_2_" gradientUnits="userSpaceOnUse" x1="323.25" y1="1620.6899" x2="323.25" y2="1344.99" gradientTransform="matrix(1 0 0 1 1 -1276.87)">
	<stop  offset="0" style="stop-color:#364749;stop-opacity:0"/>
	<stop  offset="0.14" style="stop-color:#364749;stop-opacity:0.24"/>
	<stop  offset="0.37" style="stop-color:#364749;stop-opacity:0.57"/>
	<stop  offset="0.6" style="stop-color:#364749;stop-opacity:0.81"/>
	<stop  offset="0.81" style="stop-color:#364749;stop-opacity:0.95"/>
	<stop  offset="1" style="stop-color:#364749"/>
</linearGradient>
<path class="st1" d="M220.5,345.8h365.9l52.4-148.5c-94.7-7.5-145.6,28-169.4,53.3c-29.5-72.8-92.9-163.5-227.7-180.4
	c0,0,24,28.2,47.8,84.1l0,0c0,0,4.4,9.7,9.9,25v0.1c0.7,2.1,1.5,4.2,2.3,6.5c1,2.8,2,5.5,2.9,8.4l-0.2-0.1
	c6.5,20.3,13.2,46.1,15.8,72.3c0,0-13.8-52.4-39.5-86.4l-0.7-0.4c-32.9-18.2-86-36.2-167.5-36.2c0,0,16.3,14.5,38.1,47.7
	c0,0,39.7,54.7,43.7,110.8c0,0-26.1-57.2-56.4-90.2c-71-11-128.2-3.7-128.2-3.7s61.4,47.4,102.6,137.8L220.5,345.8L220.5,345.8z"/>
<polygon class="st2" points="2258.5,128.8 2258.5,111.7 2239.1,111.7 2239.1,124.8 2181.8,124.8 2181.8,279.1 2152.2,279.1 
	2152.2,295.1 2136.8,295.1 2136.8,309.6 2096.9,309.6 2096.9,344.2 2087.7,344.2 2087.7,207.9 2003.9,207.9 2003.9,233 1954.8,233 
	1954.8,320.1 1923.1,320.1 1923.1,309.6 1900.6,309.6 1900.6,294.1 1839.3,294.1 1839.3,309.6 1807.6,309.6 1807.6,322.1 
	1795.3,322.1 1795.3,196.9 1687,196.9 1687,333.2 1660.4,333.2 1660.4,279.1 1615.4,279.1 1615.4,345.2 1600,345.2 1600,299.3 
	1499,299.3 1499,250.3 1319,250.3 1319,367.3 1252,367.3 1252,328.3 1237,328.3 1237,305.3 1157,305.3 1157,328.3 1103,328.3 
	1103,367.3 1088,367.3 1088,344.3 1027,344.3 1027,367.3 984,367.3 984,299.3 929,299.3 929,263.3 909,263.3 909,299.3 889,299.3 
	889,246.3 859,246.3 859,299.3 841,299.3 841,310.3 737,310.3 737,194.3 718,194.3 718,179.3 707,179.3 707,165.3 635,165.3 
	635,179.3 625,179.3 625,194.3 606,194.3 606,310.3 559,310.3 559,299.3 503,299.3 503,249.3 498,249.3 498,238.3 490,238.3 
	490,232.3 423,232.3 423,238.3 413,238.3 413,275.3 338,275.3 338,344.3 293,344.3 293,286.3 283,286.3 284,340.3 246,340.3 
	245,286.3 173,286.3 173,332.3 143,332.3 143,310.3 85,310.3 85,332.3 68,332.3 68,367.3 0,367.3 0,422.3 1587,422.3 1600,422.3 
	2286,422.3 2286,128.8 "/>
</svg>
