<?xml version="1.0" encoding="utf-8"?>
<!-- Generator: Adobe Illustrator 19.2.1, SVG Export Plug-In . SVG Version: 6.00 Build 0)  -->
<svg version="1.1" xmlns="http://www.w3.org/2000/svg" xmlns:xlink="http://www.w3.org/1999/xlink" x="0px" y="0px"
	 viewBox="0 0 1613 403.5" style="enable-background:new 0 0 1613 403.5;" xml:space="preserve">
<style type="text/css">
	.st0{opacity:0.4;fill:#D9D9D9;}
	.st1{fill:#FFFFFF;stroke:#2F404F;stroke-width:4;stroke-miterlimit:10;}
	.st2{fill:#FFFFFF;stroke:#2F404F;stroke-width:3.0091;stroke-miterlimit:10;}
	.st3{fill:#FFFFFF;stroke:#2F404F;stroke-width:2.8928;stroke-miterlimit:10;}
	.st4{fill:#FFFFFF;stroke:#2F404F;stroke-width:3;stroke-miterlimit:10;}
	.st5{fill:none;stroke:#2F404F;stroke-width:2.6978;stroke-miterlimit:10;}
	.st6{fill:none;stroke:#2F404F;stroke-width:3;stroke-miterlimit:10;}
	.st7{fill:none;stroke:#2F404F;stroke-width:4;stroke-miterlimit:10;}
	.st8{fill:#2F404F;}
	.st9{fill:#FFFFFF;stroke:#2F404F;stroke-width:2.5218;stroke-miterlimit:10;}
	.st10{fill:#FFFFFF;stroke:#2F404F;stroke-width:4.2431;stroke-miterlimit:10;}
	.st11{fill:#4ECDC4;}
	.st12{fill:none;stroke:#1A535C;stroke-width:2;stroke-miterlimit:10;}
</style>
<g id="Layer_2">
	<title>city</title>
	<path class="st0" d="M1578.9,347.8 M1578.9,403.5V254.7h-35.8V133.9h-28.6v17.9h-8.1V252h-12.5v7.2h-12.5v-13.4h-28.6v-9.8h19.7
		v-6.3h-44.7v-17.9h-25.1v-8.9h5.4v-7.2h-5.4V193h-6.3v2.7h-36.7v7.2h36.7v8.9h-8.1v30.4h-86.8v-40.3h-30.4v-31.3h23.3v-6.3h-23.3
		v-3.6h-6.3v3.6h-61.7v6.3h61.7v31.3h-7.2v21.5h-6.3v25.9h-44.7v-17h-40.3v-17.9h-24.2v17.9h-11.6v-2.7h-10.7v-15.2h-5.4v15.2h-50.1
		v6.3h50.1v10.7h-42.1v18.8h-36.7v-33.1h-14.3v-69.8h-76.9v51h-8.1v27.7H907v-20.6H803.2V210h-19.7v-11.6h-85V210h-16.1v-50.1h-34.9
		V82.9h-13.4V52.5h-23.3V27.5h-56.4v25.1h-10.7V0.6H541v51.9h-9.8v30.4h-13.4v110.9H409.5v26.8H306.6v27.7l-21-0.2l0,0v-43.7
		l-41.8-0.5l0.2-62.9h-34.9v7.2h-15.2v134.2h-20.6v16.1h-27.7v104.9 M1427.7,235.9h18.8v9.8h-18.8V235.9z M1119.9,235.9h10.7v10.7
		h-10.7V235.9z"/>
	<rect x="1479" y="392.2" class="st1" width="111" height="11.3"/>
	<path class="st2" d="M1519.5,310.8h23.7c-0.6-3.7-3.6-6.7-7.3-7.4c0.1-0.6,0.2-1.3,0.2-2c0-6-4.9-11-11-11c-1.3,0-2.6,0.2-3.8,0.7
		c-1.4-5.6-6.5-9.8-12.5-9.8c-6.5,0-11.9,4.8-12.8,11.1c0,0-0.1,0-0.1,0c-8,0-14.4,6.5-14.4,14.4c0,1.3,0.2,2.6,0.5,3.8h27.9H1519.5
		z"/>
	<rect x="462" y="271.1" class="st1" width="103.3" height="132.4"/>
	<rect x="1479" y="314.1" class="st1" width="96.4" height="72.4"/>
	<rect x="1390" y="230" class="st1" width="114" height="173.5"/>
	<rect x="838.2" y="158.5" class="st1" width="141.6" height="245"/>
	<polygon class="st3" points="488,403.5 302,403.5 302,138.5 527.3,138.5 527.3,169.4 348,169.4 348,202.1 527.3,202.1 527.3,229.6 
		488,229.6 	"/>
	<rect x="114" y="74.5" class="st4" width="212" height="329"/>
	<rect x="736" y="36.6" class="st1" width="137" height="366.9"/>
	<rect x="926.3" y="239" class="st1" width="204.3" height="164.5"/>
	<rect x="1174" y="239" class="st1" width="136" height="164.5"/>
	<rect x="1242" y="176.5" class="st1" width="174" height="227"/>
	<line class="st5" x1="134" y1="90.7" x2="166.3" y2="90.7"/>
	<line class="st5" x1="178.8" y1="90.7" x2="211.1" y2="90.7"/>
	<line class="st5" x1="228.3" y1="90.7" x2="260.6" y2="90.7"/>
	<line class="st5" x1="273" y1="90.7" x2="305.4" y2="90.7"/>
	<line class="st5" x1="134" y1="101.8" x2="166.3" y2="101.8"/>
	<line class="st5" x1="178.8" y1="101.8" x2="211.1" y2="101.8"/>
	<line class="st5" x1="228.3" y1="101.8" x2="260.6" y2="101.8"/>
	<line class="st5" x1="273" y1="101.8" x2="305.4" y2="101.8"/>
	<line class="st5" x1="134" y1="112.9" x2="166.3" y2="112.9"/>
	<line class="st5" x1="178.8" y1="112.9" x2="211.1" y2="112.9"/>
	<line class="st5" x1="228.3" y1="112.9" x2="260.6" y2="112.9"/>
	<line class="st5" x1="273" y1="112.9" x2="305.4" y2="112.9"/>
	<line class="st5" x1="134" y1="124" x2="166.3" y2="124"/>
	<line class="st5" x1="178.8" y1="124" x2="211.1" y2="124"/>
	<line class="st5" x1="228.3" y1="124" x2="260.6" y2="124"/>
	<line class="st5" x1="273" y1="124" x2="305.4" y2="124"/>
	<line class="st5" x1="134" y1="135.1" x2="166.3" y2="135.1"/>
	<line class="st5" x1="178.8" y1="135.1" x2="211.1" y2="135.1"/>
	<line class="st5" x1="228.3" y1="135.1" x2="260.6" y2="135.1"/>
	<line class="st5" x1="273" y1="135.1" x2="305.4" y2="135.1"/>
	<line class="st5" x1="134" y1="146.3" x2="166.3" y2="146.3"/>
	<line class="st5" x1="178.8" y1="146.3" x2="211.1" y2="146.3"/>
	<line class="st5" x1="228.3" y1="146.3" x2="260.6" y2="146.3"/>
	<line class="st5" x1="273" y1="146.3" x2="305.4" y2="146.3"/>
	<line class="st5" x1="134" y1="157.4" x2="166.3" y2="157.4"/>
	<line class="st5" x1="178.8" y1="157.4" x2="211.1" y2="157.4"/>
	<line class="st5" x1="228.3" y1="157.4" x2="260.6" y2="157.4"/>
	<line class="st5" x1="273" y1="157.4" x2="305.4" y2="157.4"/>
	<line class="st5" x1="134" y1="168.5" x2="166.3" y2="168.5"/>
	<line class="st5" x1="178.8" y1="168.5" x2="211.1" y2="168.5"/>
	<line class="st5" x1="228.3" y1="168.5" x2="260.6" y2="168.5"/>
	<line class="st5" x1="273" y1="168.5" x2="305.4" y2="168.5"/>
	<line class="st5" x1="134" y1="179.6" x2="166.3" y2="179.6"/>
	<line class="st5" x1="178.8" y1="179.6" x2="211.1" y2="179.6"/>
	<line class="st5" x1="228.3" y1="179.6" x2="260.6" y2="179.6"/>
	<line class="st5" x1="273" y1="179.6" x2="305.4" y2="179.6"/>
	<line class="st5" x1="134" y1="212.9" x2="166.3" y2="212.9"/>
	<line class="st5" x1="178.8" y1="212.9" x2="211.1" y2="212.9"/>
	<line class="st5" x1="228.3" y1="212.9" x2="260.6" y2="212.9"/>
	<line class="st5" x1="134" y1="224" x2="166.3" y2="224"/>
	<line class="st5" x1="178.8" y1="224" x2="211.1" y2="224"/>
	<line class="st5" x1="228.3" y1="224" x2="260.6" y2="224"/>
	<line class="st5" x1="273" y1="224" x2="305.4" y2="224"/>
	<line class="st5" x1="134" y1="235.1" x2="166.3" y2="235.1"/>
	<line class="st5" x1="178.8" y1="235.1" x2="211.1" y2="235.1"/>
	<line class="st5" x1="228.3" y1="235.1" x2="260.6" y2="235.1"/>
	<line class="st5" x1="273" y1="235.1" x2="305.4" y2="235.1"/>
	<line class="st5" x1="134" y1="246.2" x2="166.3" y2="246.2"/>
	<line class="st5" x1="178.8" y1="246.2" x2="211.1" y2="246.2"/>
	<line class="st5" x1="228.3" y1="246.2" x2="260.6" y2="246.2"/>
	<line class="st5" x1="273" y1="246.2" x2="305.4" y2="246.2"/>
	<line class="st5" x1="134" y1="257.3" x2="166.3" y2="257.3"/>
	<line class="st5" x1="178.8" y1="257.3" x2="211.1" y2="257.3"/>
	<line class="st5" x1="228.3" y1="257.3" x2="260.6" y2="257.3"/>
	<line class="st5" x1="273" y1="257.3" x2="305.4" y2="257.3"/>
	<line class="st5" x1="134" y1="268.4" x2="166.3" y2="268.4"/>
	<line class="st5" x1="178.8" y1="268.4" x2="211.1" y2="268.4"/>
	<line class="st5" x1="228.3" y1="268.4" x2="260.6" y2="268.4"/>
	<line class="st5" x1="273" y1="268.4" x2="305.4" y2="268.4"/>
	<line class="st5" x1="134" y1="279.5" x2="166.3" y2="279.5"/>
	<line class="st5" x1="178.8" y1="279.5" x2="211.1" y2="279.5"/>
	<line class="st5" x1="228.3" y1="279.5" x2="260.6" y2="279.5"/>
	<line class="st5" x1="273" y1="279.5" x2="305.4" y2="279.5"/>
	<line class="st5" x1="134" y1="290.6" x2="166.3" y2="290.6"/>
	<line class="st5" x1="178.8" y1="290.6" x2="211.1" y2="290.6"/>
	<line class="st5" x1="228.3" y1="290.6" x2="260.6" y2="290.6"/>
	<line class="st5" x1="273" y1="290.6" x2="305.4" y2="290.6"/>
	<line class="st5" x1="134" y1="301.8" x2="166.3" y2="301.8"/>
	<line class="st5" x1="178.8" y1="301.8" x2="211.1" y2="301.8"/>
	<line class="st5" x1="228.3" y1="301.8" x2="260.6" y2="301.8"/>
	<line class="st5" x1="273" y1="301.8" x2="305.4" y2="301.8"/>
	<line class="st5" x1="134" y1="312.9" x2="166.3" y2="312.9"/>
	<line class="st5" x1="178.8" y1="312.9" x2="211.1" y2="312.9"/>
	<line class="st5" x1="228.3" y1="312.9" x2="260.6" y2="312.9"/>
	<line class="st5" x1="273" y1="312.9" x2="305.4" y2="312.9"/>
	<line class="st5" x1="134" y1="324" x2="166.3" y2="324"/>
	<line class="st5" x1="178.8" y1="324" x2="211.1" y2="324"/>
	<line class="st5" x1="228.3" y1="324" x2="260.6" y2="324"/>
	<line class="st5" x1="273" y1="324" x2="305.4" y2="324"/>
	<line class="st5" x1="134" y1="335.1" x2="166.3" y2="335.1"/>
	<line class="st5" x1="178.8" y1="335.1" x2="211.1" y2="335.1"/>
	<line class="st5" x1="228.3" y1="335.1" x2="260.6" y2="335.1"/>
	<line class="st5" x1="273" y1="335.1" x2="305.4" y2="335.1"/>
	<line class="st5" x1="134" y1="346.2" x2="166.3" y2="346.2"/>
	<line class="st5" x1="178.8" y1="346.2" x2="211.1" y2="346.2"/>
	<line class="st5" x1="228.3" y1="346.2" x2="260.6" y2="346.2"/>
	<line class="st5" x1="273" y1="346.2" x2="305.4" y2="346.2"/>
	<line class="st5" x1="134" y1="357.3" x2="166.3" y2="357.3"/>
	<line class="st5" x1="178.8" y1="357.3" x2="211.1" y2="357.3"/>
	<line class="st5" x1="228.3" y1="357.3" x2="260.6" y2="357.3"/>
	<line class="st5" x1="273" y1="357.3" x2="305.4" y2="357.3"/>
	<line class="st5" x1="134" y1="368.4" x2="166.3" y2="368.4"/>
	<line class="st5" x1="178.8" y1="368.4" x2="211.1" y2="368.4"/>
	<line class="st5" x1="228.3" y1="368.4" x2="260.6" y2="368.4"/>
	<line class="st5" x1="273" y1="368.4" x2="305.4" y2="368.4"/>
	<line class="st5" x1="134" y1="379.5" x2="166.3" y2="379.5"/>
	<line class="st5" x1="178.8" y1="379.5" x2="211.1" y2="379.5"/>
	<line class="st5" x1="228.3" y1="379.5" x2="260.6" y2="379.5"/>
	<line class="st5" x1="273" y1="379.5" x2="305.4" y2="379.5"/>
	<line class="st5" x1="273" y1="212.9" x2="305.4" y2="212.9"/>
	<circle class="st4" cx="94.4" cy="192.5" r="55.8"/>
	<rect x="4" y="169.4" class="st4" width="190" height="234.1"/>
	<path class="st2" d="M500.6,403.5H539c-1-6.1-5.8-10.9-11.8-12c0.2-1,0.3-2.1,0.3-3.2c0-9.8-7.9-17.7-17.7-17.7
		c-2.2,0-4.3,0.4-6.2,1.1c-2.3-9.1-10.5-15.8-20.3-15.8c-10.6,0-19.3,7.8-20.7,18c-0.1,0-0.1,0-0.2,0c-12.9,0-23.4,10.5-23.4,23.4
		c0,2.1,0.3,4.2,0.8,6.2h45.1H500.6z"/>
	<path class="st2" d="M1131.5,403.5h38.5c-1-6.1-5.8-10.9-11.8-12c0.2-1,0.3-2.1,0.3-3.2c0-9.8-7.9-17.7-17.7-17.7
		c-2.2,0-4.3,0.4-6.2,1.1c-2.3-9.1-10.5-15.8-20.3-15.8c-10.6,0-19.3,7.8-20.7,18c-0.1,0-0.1,0-0.2,0c-12.9,0-23.4,10.5-23.4,23.4
		c0,2.1,0.3,4.2,0.8,6.2h45.1H1131.5z"/>
	<rect x="228.3" y="56.5" class="st5" width="77.1" height="18"/>
	<g>
		<line class="st5" x1="25" y1="185.5" x2="25" y2="212.9"/>
		<line class="st5" x1="53.5" y1="186" x2="53.5" y2="213.4"/>
		<line class="st5" x1="81.9" y1="186.5" x2="81.9" y2="213.9"/>
		<line class="st5" x1="110.4" y1="187" x2="110.4" y2="214.4"/>
		<line class="st5" x1="138.9" y1="187.5" x2="138.9" y2="214.9"/>
		<line class="st5" x1="167.3" y1="188.1" x2="167.3" y2="215.4"/>
	</g>
	<g>
		<line class="st5" x1="25" y1="236.8" x2="25" y2="264.2"/>
		<line class="st5" x1="53.5" y1="237.3" x2="53.5" y2="264.7"/>
		<line class="st5" x1="81.9" y1="237.8" x2="81.9" y2="265.2"/>
		<line class="st5" x1="110.4" y1="238.3" x2="110.4" y2="265.7"/>
		<line class="st5" x1="138.9" y1="238.8" x2="138.9" y2="266.2"/>
		<line class="st5" x1="167.3" y1="239.3" x2="167.3" y2="266.7"/>
	</g>
	<g>
		<line class="st5" x1="25" y1="288.1" x2="25" y2="315.5"/>
		<line class="st5" x1="53.5" y1="288.6" x2="53.5" y2="316"/>
		<line class="st5" x1="81.9" y1="289.1" x2="81.9" y2="316.5"/>
		<line class="st5" x1="110.4" y1="289.6" x2="110.4" y2="317"/>
		<line class="st5" x1="138.9" y1="290.1" x2="138.9" y2="317.5"/>
		<line class="st5" x1="167.3" y1="290.6" x2="167.3" y2="318"/>
	</g>
	<g>
		<line class="st5" x1="25" y1="339.4" x2="25" y2="366.8"/>
		<line class="st5" x1="53.5" y1="339.9" x2="53.5" y2="367.3"/>
		<line class="st5" x1="81.9" y1="340.4" x2="81.9" y2="367.8"/>
		<line class="st5" x1="110.4" y1="340.9" x2="110.4" y2="368.3"/>
		<line class="st5" x1="138.9" y1="341.4" x2="138.9" y2="368.8"/>
		<line class="st5" x1="167.3" y1="341.9" x2="167.3" y2="369.3"/>
	</g>
	<rect x="348" y="288.1" class="st4" width="114" height="32.4"/>
	<rect x="348" y="228.9" class="st4" width="114" height="32.4"/>
	<rect x="1311.5" y="206.5" class="st4" width="35" height="197"/>
	<rect x="1242.8" y="216.5" class="st4" width="50" height="22.1"/>
	<rect x="1242.8" y="254.3" class="st4" width="50" height="22.1"/>
	<rect x="1242.8" y="292" class="st4" width="50" height="22.1"/>
	<rect x="1242.8" y="329.8" class="st4" width="50" height="22.1"/>
	<rect x="1242.8" y="367.5" class="st4" width="50" height="22.1"/>
	<rect x="1365" y="216.5" class="st4" width="50" height="22.1"/>
	<rect x="1365" y="254.3" class="st4" width="50" height="22.1"/>
	<rect x="1365" y="292" class="st4" width="50" height="22.1"/>
	<rect x="1365" y="329.8" class="st4" width="50" height="22.1"/>
	<rect x="1365" y="367.5" class="st4" width="50" height="22.1"/>
	<line class="st6" x1="1442.1" y1="246.7" x2="1504" y2="246.7"/>
	<line class="st6" x1="1442.1" y1="261.2" x2="1504" y2="261.2"/>
	<line class="st6" x1="1442.1" y1="275.7" x2="1504" y2="275.7"/>
	<line class="st6" x1="1442.1" y1="290.2" x2="1504" y2="290.2"/>
	<line class="st6" x1="1442.1" y1="304.8" x2="1504" y2="304.8"/>
	<line class="st6" x1="1442.1" y1="316.4" x2="1504" y2="316.4"/>
	<line class="st6" x1="1442.1" y1="331" x2="1504" y2="331"/>
	<line class="st6" x1="1442.1" y1="345.5" x2="1504" y2="345.5"/>
	<line class="st6" x1="1442.1" y1="360" x2="1504" y2="360"/>
	<line class="st6" x1="1442.1" y1="374.6" x2="1504" y2="374.6"/>
	<image style="overflow:visible;" width="450" height="470" xlink:href="CB7E288E.jpg"  transform="matrix(1 0 0 1 -7232 -7652)">
	</image>
	<rect x="834.8" y="36.6" class="st7" width="24.3" height="366.1"/>
	<rect x="842.4" y="50.5" class="st8" width="9.2" height="9.2"/>
	<rect x="842.4" y="73.9" class="st8" width="9.2" height="9.2"/>
	<rect x="842.4" y="97.2" class="st8" width="9.2" height="9.2"/>
	<rect x="842.4" y="120.5" class="st8" width="9.2" height="9.2"/>
	<rect x="842.4" y="143.9" class="st8" width="9.2" height="9.2"/>
	<rect x="842.4" y="167.2" class="st8" width="9.2" height="9.2"/>
	<rect x="842.4" y="190.6" class="st8" width="9.2" height="9.2"/>
	<rect x="842.4" y="213.9" class="st8" width="9.2" height="9.2"/>
	<rect x="842.4" y="237.3" class="st8" width="9.2" height="9.2"/>
	<rect x="842.4" y="260.6" class="st8" width="9.2" height="9.2"/>
	<rect x="842.4" y="284" class="st8" width="9.2" height="9.2"/>
	<rect x="842.4" y="307.3" class="st8" width="9.2" height="9.2"/>
	<rect x="842.4" y="330.6" class="st8" width="9.2" height="9.2"/>
	<rect x="842.4" y="354" class="st8" width="9.2" height="9.2"/>
	<rect x="842.4" y="377.3" class="st8" width="9.2" height="9.2"/>
	<line class="st6" x1="820.7" y1="55.1" x2="753.6" y2="55.1"/>
	<line class="st6" x1="820.7" y1="78.5" x2="753.6" y2="78.5"/>
	<line class="st6" x1="820.7" y1="101.8" x2="753.6" y2="101.8"/>
	<line class="st6" x1="820.7" y1="125.2" x2="753.6" y2="125.2"/>
	<line class="st6" x1="820.7" y1="148.5" x2="753.6" y2="148.5"/>
	<line class="st6" x1="820.7" y1="171.9" x2="753.6" y2="171.9"/>
	<line class="st6" x1="820.7" y1="195.2" x2="753.6" y2="195.2"/>
	<line class="st6" x1="820.7" y1="218.5" x2="753.6" y2="218.5"/>
	<line class="st6" x1="820.7" y1="241.9" x2="753.6" y2="241.9"/>
	<line class="st6" x1="820.7" y1="265.2" x2="753.6" y2="265.2"/>
	<line class="st6" x1="820.7" y1="288.6" x2="753.6" y2="288.6"/>
	<line class="st6" x1="820.7" y1="311.9" x2="753.6" y2="311.9"/>
	<line class="st6" x1="820.7" y1="335.3" x2="753.6" y2="335.3"/>
	<line class="st6" x1="820.7" y1="358.6" x2="753.6" y2="358.6"/>
	<rect x="652.4" y="317.8" class="st9" width="144" height="85.7"/>
	<path class="st1" d="M860.6,389.8c1.1-2.7,1.7-5.6,1.7-8.6c0-12.6-10.2-22.9-22.9-22.9c-4,0-7.8,1-11,2.8
		c-0.7-14-12.3-25.2-26.5-25.2c-14.6,0-26.5,11.9-26.5,26.5c0,1.8,0.2,3.5,0.5,5.2c-10.6,1.3-18.8,10.4-18.8,21.3
		c0,5.2,1.9,10,5,13.7h65.6h19.5C853.2,400.5,858.1,395.7,860.6,389.8"/>
	<rect x="642.6" y="212.5" class="st1" width="157.7" height="191"/>
	<polygon class="st10" points="779.3,212.5 663.7,212.5 663.7,179.4 779.3,146.3 	"/>
	<line class="st6" x1="663.7" y1="245.8" x2="779.3" y2="245.8"/>
	<line class="st6" x1="663.7" y1="261.2" x2="779.3" y2="261.2"/>
	<line class="st6" x1="663.7" y1="367.5" x2="779.3" y2="367.5"/>
	<line class="st6" x1="663.7" y1="379.7" x2="779.3" y2="379.7"/>
	<g>
		<line class="st6" x1="721.5" y1="262.4" x2="721.5" y2="367.9"/>
		<line class="st6" x1="689.4" y1="261.6" x2="689.4" y2="367.9"/>
		<line class="st6" x1="753.6" y1="261.6" x2="753.6" y2="367.9"/>
	</g>
	<g>
		<line class="st6" x1="721.5" y1="185.7" x2="721.5" y2="212.5"/>
		<line class="st6" x1="689.4" y1="185.5" x2="689.4" y2="212.5"/>
		<line class="st6" x1="753.6" y1="185.5" x2="753.6" y2="212.5"/>
	</g>
	<rect x="935" y="213.8" class="st1" width="185" height="18.7"/>
	<line class="st7" x1="746.1" y1="114.6" x2="746.1" y2="158.5"/>
	<rect x="909" y="226.6" class="st1" width="236.9" height="18.7"/>
	<rect x="957" y="186.5" class="st1" width="59.7" height="27"/>
	<rect x="944.3" y="256.3" class="st4" width="35.3" height="29.7"/>
	<rect x="1009.6" y="256.3" class="st4" width="35.3" height="29.7"/>
	<rect x="1074.9" y="256.3" class="st4" width="35.3" height="29.7"/>
	<rect x="944.3" y="315.8" class="st4" width="35.3" height="29.7"/>
	<rect x="1009.6" y="315.8" class="st4" width="35.3" height="29.7"/>
	<rect x="1074.9" y="315.8" class="st4" width="35.3" height="29.7"/>
	<line class="st6" x1="944.3" y1="293.2" x2="979.8" y2="293.2"/>
	<line class="st6" x1="1009.5" y1="293.2" x2="1045" y2="293.2"/>
	<line class="st6" x1="1074.8" y1="293.2" x2="1110.3" y2="293.2"/>
	<line class="st6" x1="944.3" y1="351.9" x2="979.8" y2="351.9"/>
	<line class="st6" x1="1009.5" y1="351.9" x2="1045" y2="351.9"/>
	<line class="st6" x1="1074.8" y1="351.9" x2="1110.3" y2="351.9"/>
	<rect x="1426.7" y="246.7" class="st6" width="8" height="145.6"/>
	<rect x="1504" y="312.8" class="st1" width="102.7" height="13.3"/>
	<rect x="1504" y="386.6" class="st4" width="102.7" height="6.7"/>
	<line class="st7" x1="1559" y1="326.1" x2="1559" y2="386.6"/>
	<line class="st7" x1="1520.6" y1="326.1" x2="1520.6" y2="386.6"/>
	<line class="st7" x1="1006.5" y1="137.2" x2="1006.5" y2="185.7"/>
	<rect x="1504" y="246.7" class="st1" width="16.6" height="37.3"/>
	<rect x="504.6" y="280.4" class="st4" width="13.1" height="26.3"/>
	<rect x="536.3" y="280" class="st4" width="13.5" height="27"/>
	<g>
		<rect x="504.6" y="329.2" class="st4" width="13.1" height="26.3"/>
		<rect x="536.3" y="328.9" class="st4" width="13.5" height="27"/>
	</g>
	<line class="st6" x1="500.8" y1="307.7" x2="521.5" y2="307.7"/>
	<line class="st6" x1="532.7" y1="307.7" x2="553.5" y2="307.7"/>
	<line class="st6" x1="500.8" y1="355.9" x2="521.5" y2="355.9"/>
	<line class="st6" x1="532.7" y1="355.9" x2="553.5" y2="355.9"/>
	<rect x="749.9" y="13.1" class="st1" width="109.2" height="17.9"/>
	<polygon class="st1" points="1385.5,161.4 1272.5,161.4 1290.5,82.1 1367.5,82.1 	"/>
	<rect x="1258" y="161.4" class="st7" width="140.7" height="15.1"/>
	<line class="st6" x1="1290.5" y1="82.1" x2="1290.5" y2="161.4"/>
	<line class="st6" x1="1367.5" y1="82.1" x2="1367.5" y2="161.4"/>
	<line class="st6" x1="1328.3" y1="82.1" x2="1328.3" y2="161.4"/>
	<rect x="1323.3" y="31" class="st1" width="10" height="51.1"/>
	<line class="st6" x1="1328.3" y1="13.1" x2="1328.3" y2="31"/>
	<path class="st2" d="M1508.1,403.5h23.7c-0.6-3.7-3.6-6.7-7.3-7.4c0.1-0.6,0.2-1.3,0.2-2c0-6-4.9-11-11-11c-1.3,0-2.6,0.2-3.8,0.7
		c-1.4-5.6-6.5-9.8-12.5-9.8c-6.5,0-11.9,4.8-12.8,11.1c0,0-0.1,0-0.1,0c-8,0-14.4,6.5-14.4,14.4c0,1.3,0.2,2.6,0.5,3.8h27.9H1508.1
		z"/>
	<rect x="348" y="169.4" class="st3" width="159.3" height="32.7"/>
	<line class="st6" x1="386.2" y1="169.4" x2="386.2" y2="202.1"/>
</g>
<g id="tree">
	<g>
		<polygon class="st11" points="907.9,315.8 891.7,360.9 907.9,377.1 924.1,360.9 		"/>
		<g>
			<line class="st12" x1="904.2" y1="373.5" x2="904.2" y2="406.4"/>
			<polygon class="st12" points="904.2,318.8 888,363.9 904.2,380.1 920.4,363.9 			"/>
		</g>
	</g>
	<g>
		<polygon class="st11" points="398.5,337.6 386.2,371.8 398.5,384.1 410.8,371.8 		"/>
		<g>
			<line class="st12" x1="395.8" y1="381.4" x2="395.8" y2="406.4"/>
			<polygon class="st12" points="395.8,339.9 383.5,374.1 395.8,386.4 408.1,374.1 			"/>
		</g>
	</g>
	<g>
		<polygon class="st11" points="358.7,357.4 350,381.8 358.7,390.5 367.5,381.8 		"/>
		<g>
			<line class="st12" x1="356.8" y1="388.6" x2="356.8" y2="406.4"/>
			<polygon class="st12" points="356.8,359 348,383.4 356.8,392.1 365.5,383.4 			"/>
		</g>
	</g>
	<g>
		<polygon class="st11" points="633.1,337.6 620.8,371.8 633.1,384.1 645.4,371.8 		"/>
		<g>
			<line class="st12" x1="630.3" y1="381.4" x2="630.3" y2="406.4"/>
			<polygon class="st12" points="630.3,339.9 618,374.1 630.3,386.4 642.6,374.1 			"/>
		</g>
	</g>
	<g>
		<polygon class="st11" points="888,337.6 875.8,371.8 888,384.1 900.3,371.8 		"/>
		<g>
			<line class="st12" x1="885.3" y1="381.4" x2="885.3" y2="406.4"/>
			<polygon class="st12" points="885.3,339.9 873,374.1 885.3,386.4 897.6,374.1 			"/>
		</g>
	</g>
	<g>
		<polygon class="st11" points="1212.7,337.6 1200.4,371.8 1212.7,384.1 1224.9,371.8 		"/>
		<g>
			<line class="st12" x1="1209.9" y1="381.4" x2="1209.9" y2="406.4"/>
			<polygon class="st12" points="1209.9,339.9 1197.6,374.1 1209.9,386.4 1222.2,374.1 			"/>
		</g>
	</g>
	<g>
		<polygon class="st11" points="1172.1,305.1 1154,355.5 1172.1,373.6 1190.2,355.5 		"/>
		<g>
			<line class="st12" x1="1168" y1="369.6" x2="1168" y2="406.4"/>
			<polygon class="st12" points="1168,308.5 1149.9,358.9 1168,377 1186.1,358.9 			"/>
		</g>
	</g>
	<g>
		<polygon class="st11" points="1599,337.6 1586.8,371.8 1599,384.1 1611.3,371.8 		"/>
		<g>
			<line class="st12" x1="1596.3" y1="381.4" x2="1596.3" y2="406.4"/>
			<polygon class="st12" points="1596.3,339.9 1584,374.1 1596.3,386.4 1608.6,374.1 			"/>
		</g>
	</g>
	<g>
		<polygon class="st11" points="327.4,337.6 315.1,371.8 327.4,384.1 339.7,371.8 		"/>
		<g>
			<line class="st12" x1="324.6" y1="381.4" x2="324.6" y2="406.4"/>
			<polygon class="st12" points="324.6,339.9 312.3,374.1 324.6,386.4 336.9,374.1 			"/>
		</g>
	</g>
	<g>
		<polygon class="st11" points="82,343.8 70.8,374.9 82,386.1 93.2,374.9 		"/>
		<g>
			<line class="st12" x1="79.5" y1="383.7" x2="79.5" y2="406.4"/>
			<polygon class="st12" points="79.5,345.9 68.3,377 79.5,388.2 90.7,377 			"/>
		</g>
	</g>
</g>
</svg>
