<?xml version="1.0" encoding="utf-8"?>
<!-- Generator: Adobe Illustrator 19.2.1, SVG Export Plug-In . SVG Version: 6.00 Build 0)  -->
<svg version="1.1" id="city" xmlns="http://www.w3.org/2000/svg" xmlns:xlink="http://www.w3.org/1999/xlink" x="0px" y="0px"
	 viewBox="0 0 2285 352.1" style="enable-background:new 0 0 2285 352.1;" xml:space="preserve">
<style type="text/css">
	.st0{fill:url(#SVGID_1_);}
	.st1{fill:url(#SVGID_2_);}
	.st2{fill:#1A535C;}
</style>
<linearGradient id="SVGID_1_" gradientUnits="userSpaceOnUse" x1="1486.5" y1="355.7823" x2="1486.5" y2="-73.3495">
	<stop  offset="0" style="stop-color:#364749;stop-opacity:0"/>
	<stop  offset="0.14" style="stop-color:#364749;stop-opacity:0.24"/>
	<stop  offset="0.37" style="stop-color:#364749;stop-opacity:0.57"/>
	<stop  offset="0.6" style="stop-color:#364749;stop-opacity:0.81"/>
	<stop  offset="0.81" style="stop-color:#364749;stop-opacity:0.95"/>
	<stop  offset="1" style="stop-color:#364749"/>
</linearGradient>
<polygon class="st0" points="2285,358.9 2285,276.8 2277.8,276.8 2277.8,206.1 2265.4,206.1 2265.4,193.7 2248.8,193.7 
	2248.8,208.2 2240.4,208.2 2240.4,247.7 2233.2,247.7 2233.2,298.6 2222.8,298.6 2222.8,270.6 2210.3,270.6 2210.3,74.2 
	2199.9,74.2 2199.9,52.4 2108.5,52.4 2108.5,75.2 2101.2,75.2 2101.2,-3.7 2064.8,-3.7 2064.8,-16.2 2039.9,-16.2 2039.9,-0.6 
	2028.5,-0.6 2028.5,157.3 2006.6,157.3 2006.6,95 1998.3,95 1998.3,51.3 1993.1,46.1 1993.1,-32.8 1980.7,-32.8 1980.7,-70.2 
	1939.1,-70.2 1939.1,-38 1928.7,-38 1928.7,-23.5 1919.4,-23.5 1919.4,61.7 1905.9,61.7 1905.9,23.3 1804,23.3 1804,73.1 
	1778.1,73.1 1778.1,63.8 1760.4,63.8 1760.4,78.3 1726.1,78.3 1726.1,54.4 1698.1,54.4 1698.1,36.8 1678.3,36.8 1678.3,50.3 
	1620.1,50.3 1620.1,210.3 1590,210.3 1590,226.9 1574.4,226.9 1574.4,242 1557,242 1557,192.1 1524.5,192.1 1524.5,136.5 
	1439.3,136.5 1439.3,143.1 1309,143.1 1309,173.1 1227.4,173.1 1227.4,125.1 1140,125.1 1140,108.1 1038,108.1 1038,126.1 
	1017,126.1 1017,153.1 874,153.1 874,180.1 791,180.1 791,157.1 776,157.1 776,142.1 767,142.1 767,125.1 745,125.1 745,142.1 
	736,142.1 736,157.1 721,157.1 721,180.1 688,180.1 688,249.1 811,249.1 811,351.1 1015.6,351.1 1015.6,358.9 "/>
<title>city2</title>
<linearGradient id="SVGID_2_" gradientUnits="userSpaceOnUse" x1="323.25" y1="-470.49" x2="323.25" y2="-194.8499" gradientTransform="matrix(1 0 0 -1 1 -196.87)">
	<stop  offset="0" style="stop-color:#364749;stop-opacity:0"/>
	<stop  offset="0.14" style="stop-color:#364749;stop-opacity:0.24"/>
	<stop  offset="0.37" style="stop-color:#364749;stop-opacity:0.57"/>
	<stop  offset="0.6" style="stop-color:#364749;stop-opacity:0.81"/>
	<stop  offset="0.81" style="stop-color:#364749;stop-opacity:0.95"/>
	<stop  offset="1" style="stop-color:#364749"/>
</linearGradient>
<path class="st1" d="M220.5,275.6h365.9l52.4-148.5c-94.7-7.5-145.6,28-169.4,53.3C439.9,107.6,376.5,16.9,241.7,0
	c0,0,24,28.2,47.8,84.1l0,0c0,0,4.4,9.7,9.9,25c0,0,0,0.1,0,0.1c0.7,2.1,1.5,4.2,2.3,6.5c1,2.8,2,5.5,2.9,8.4l-0.2-0.1
	c6.5,20.3,13.2,46.1,15.8,72.3c0,0-13.8-52.4-39.5-86.4l-0.7-0.4C247.1,91.3,194,73.3,112.5,73.3c0,0,16.3,14.5,38.1,47.7
	c0,0,39.7,54.7,43.7,110.8c0,0-26.1-57.2-56.4-90.2c-71-11-128.2-3.7-128.2-3.7s61.4,47.4,102.6,137.8L220.5,275.6L220.5,275.6z"/>
<polygon class="st2" points="2258.5,58.6 2258.5,41.5 2239.1,41.5 2239.1,54.6 2181.8,54.6 2181.8,208.9 2152.2,208.9 2152.2,224.9 
	2136.8,224.9 2136.8,239.4 2096.9,239.4 2096.9,274 2087.7,274 2087.7,137.7 2003.9,137.7 2003.9,162.8 1954.8,162.8 1954.8,249.9 
	1923.1,249.9 1923.1,239.4 1900.6,239.4 1900.6,223.9 1839.3,223.9 1839.3,239.4 1807.6,239.4 1807.6,251.9 1795.3,251.9 
	1795.3,126.7 1687,126.7 1687,263 1660.4,263 1660.4,208.9 1615.4,208.9 1615.4,275 1600,275 1600,229.1 1499,229.1 1499,180.1 
	1319,180.1 1319,297.1 1252,297.1 1252,258.1 1237,258.1 1237,235.1 1157,235.1 1157,258.1 1103,258.1 1103,297.1 1088,297.1 
	1088,274.1 1027,274.1 1027,297.1 984,297.1 984,229.1 929,229.1 929,193.1 909,193.1 909,229.1 889,229.1 889,176.1 859,176.1 
	859,229.1 841,229.1 841,240.1 737,240.1 737,124.1 718,124.1 718,109.1 707,109.1 707,95.1 635,95.1 635,109.1 625,109.1 
	625,124.1 606,124.1 606,240.1 559,240.1 559,229.1 503,229.1 503,179.1 498,179.1 498,168.1 490,168.1 490,162.1 423,162.1 
	423,168.1 413,168.1 413,205.1 338,205.1 338,274.1 293,274.1 293,216.1 283,216.1 284,270.1 246,270.1 245,216.1 173,216.1 
	173,262.1 143,262.1 143,240.1 85,240.1 85,262.1 68,262.1 68,297.1 0,297.1 0,352.1 1587,352.1 1600,352.1 2286,352.1 2286,58.6 
	"/>
</svg>
