<?xml version="1.0" encoding="utf-8"?>
<!-- Generator: Adobe Illustrator 19.2.0, SVG Export Plug-In . SVG Version: 6.00 Build 0)  -->
<svg version="1.1" id="Layer_1" xmlns="http://www.w3.org/2000/svg" xmlns:xlink="http://www.w3.org/1999/xlink" x="0px" y="0px"
	 viewBox="0 0 2043.4 437.7" style="enable-background:new 0 0 2043.4 437.7;" xml:space="preserve">
<style type="text/css">
	.st0{fill:#FFFFFF;stroke:#2F404F;stroke-width:3;stroke-miterlimit:10;}
	.st1{fill:#E0E0E0;enable-background:new    ;}
	.st2{fill:#FFFFFF;stroke:#2F404F;stroke-width:4;stroke-miterlimit:10;}
	.st3{fill:#FFFFFF;stroke:#2F404F;stroke-width:3.0091;stroke-miterlimit:10;}
	.st4{fill:#FFFFFF;stroke:#2F404F;stroke-width:2.893;stroke-miterlimit:10;}
	.st5{fill:none;stroke:#2F404F;stroke-width:2.6978;stroke-miterlimit:10;}
	.st6{fill:none;stroke:#2F404F;stroke-width:3;stroke-miterlimit:10;}
	.st7{fill:none;stroke:#2F404F;stroke-width:4;stroke-miterlimit:10;}
	.st8{fill:#2F404F;}
	.st9{fill:#FFFFFF;stroke:#2F404F;stroke-width:2.5218;stroke-miterlimit:10;}
	.st10{fill:#FFFFFF;stroke:#2F404F;stroke-width:4.2431;stroke-miterlimit:10;}
	.st11{fill:#FFFFFF;stroke:#2F404F;stroke-width:2.8928;stroke-miterlimit:10;}
	.st12{fill:#1A535C;}
	.st13{fill:none;stroke:#1A535C;stroke-width:2;stroke-miterlimit:10;}
	.st14{fill:#2F404F;stroke:#2F404F;stroke-width:2;stroke-miterlimit:10;}
	.st15{fill:#FFFFFF;stroke:#2F404F;stroke-width:2;stroke-miterlimit:10;}
	.st16{fill:none;stroke:#2F404F;stroke-width:2;stroke-miterlimit:10;}
</style>
<polygon class="st0" points="363.2,69.9 363.2,59.3 212.9,59.3 212.9,69.9 150.8,69.9 150.8,436.8 414.6,436.8 414.6,69.9 "/>
<rect x="172.2" y="250.9" class="st0" width="40.7" height="40.7"/>
<rect x="16.7" y="268.4" class="st0" width="258" height="168.4"/>
<rect x="172.2" y="89.8" class="st0" width="40.7" height="40.7"/>
<rect x="234" y="89.8" class="st0" width="40.7" height="40.7"/>
<rect x="295.8" y="89.8" class="st0" width="40.7" height="40.7"/>
<rect x="357.6" y="89.8" class="st0" width="40.7" height="40.7"/>
<rect x="172.2" y="170.3" class="st0" width="40.7" height="40.7"/>
<rect x="234" y="170.3" class="st0" width="40.7" height="40.7"/>
<rect x="295.8" y="170.3" class="st0" width="40.7" height="40.7"/>
<rect x="357.6" y="170.3" class="st0" width="40.7" height="40.7"/>
<title>city</title>
<path class="st1" d="M1799.3,437.3V288.5h-35.8V167.7h-28.6v17.9h-8.1v100.2h-12.5v7.2h-12.5v-13.4h-28.6v-9.8h19.7v-6.3h-44.7
	v-17.9h-25.1v-8.9h5.4v-7.2h-5.4v-2.7h-6.3v2.7h-36.7v7.2h36.7v8.9h-8.1V276h-86.8v-40.3h-30.4v-31.3h23.3v-6.3h-23.3v-3.6h-6.3v3.6
	h-61.7v6.3h61.7v31.3h-7.2v21.5h-6.3v25.9H1427v-17h-40.3v-17.9h-24.2v17.9h-11.6v-2.7h-10.7v-15.2h-5.4v15.2h-50.1v6.3h50.1v10.7
	h-42.1v18.8H1256v-33.1h-14.3v-69.8h-76.9v51h-8.1V275h-29.3v-20.6h-103.8v-10.6h-19.7v-11.6h-85v11.6h-16.1v-50.1h-34.9v-77h-13.4
	V86.3h-23.3v-25h-56.4v25.1h-10.7v-52h-2.7v51.9h-9.8v30.4h-13.4v110.9H629.9v26.8H527v27.7l-21-0.2l0,0v-43.7l-41.8-0.5l0.2-62.9
	h-34.9v7.2h-15.2v134.2h-20.6v16.1H366v104.9 M1648.1,269.7h18.8v9.8h-18.8V269.7z M1340.3,269.7h10.7v10.7h-10.7V269.7z"/>
<rect x="1906.5" y="425.5" class="st2" width="111" height="11.3"/>
<path class="st3" d="M1947,344.1h23.7c-0.6-3.7-3.6-6.7-7.3-7.4c0.1-0.6,0.2-1.3,0.2-2c0-6-4.9-11-11-11c-1.3,0-2.6,0.2-3.8,0.7
	c-1.4-5.6-6.5-9.8-12.5-9.8c-6.5,0-11.9,4.8-12.8,11.1h-0.1c-8,0-14.4,6.5-14.4,14.4c0,1.3,0.2,2.6,0.5,3.8h27.9h9.6L1947,344.1
	L1947,344.1z"/>
<rect x="691.2" y="304.4" class="st4" width="103.3" height="132.4"/>
<rect x="1906.5" y="347.4" class="st2" width="96.4" height="72.4"/>
<rect x="1817.5" y="263.3" class="st2" width="114" height="173.5"/>
<rect x="1067.4" y="191.8" class="st4" width="141.6" height="245"/>
<polygon class="st4" points="717.2,436.8 531.2,436.8 531.2,171.8 756.5,171.8 756.5,202.7 577.2,202.7 577.2,235.4 756.5,235.4 
	756.5,262.9 717.2,262.9 "/>
<rect x="343.2" y="107.8" class="st0" width="212" height="329"/>
<rect x="965.2" y="69.9" class="st2" width="137" height="366.9"/>
<rect x="1155.5" y="272.3" class="st4" width="204.3" height="164.5"/>
<path class="st3" d="M1594.1,437.7h38.5c-1-6.1-5.8-10.9-11.8-12c0.2-1,0.3-2.1,0.3-3.2c0-9.8-7.9-17.7-17.7-17.7
	c-2.2,0-4.3,0.4-6.2,1.1c-2.3-9.1-10.5-15.8-20.3-15.8c-10.6,0-19.3,7.8-20.7,18c-0.1,0-0.1,0-0.2,0c-12.9,0-23.4,10.5-23.4,23.4
	c0,2.1,0.3,4.2,0.8,6.2h45.1H1594.1z"/>
<rect x="1601.5" y="272.3" class="st2" width="136" height="164.5"/>
<rect x="1669.5" y="209.8" class="st2" width="174" height="227"/>
<line class="st5" x1="363.2" y1="124" x2="395.5" y2="124"/>
<line class="st5" x1="408" y1="124" x2="440.3" y2="124"/>
<line class="st5" x1="457.5" y1="124" x2="489.8" y2="124"/>
<line class="st5" x1="502.2" y1="124" x2="534.6" y2="124"/>
<line class="st5" x1="363.2" y1="135.1" x2="395.5" y2="135.1"/>
<line class="st5" x1="408" y1="135.1" x2="440.3" y2="135.1"/>
<line class="st5" x1="457.5" y1="135.1" x2="489.8" y2="135.1"/>
<line class="st5" x1="502.2" y1="135.1" x2="534.6" y2="135.1"/>
<line class="st5" x1="363.2" y1="146.2" x2="395.5" y2="146.2"/>
<line class="st5" x1="408" y1="146.2" x2="440.3" y2="146.2"/>
<line class="st5" x1="457.5" y1="146.2" x2="489.8" y2="146.2"/>
<line class="st5" x1="502.2" y1="146.2" x2="534.6" y2="146.2"/>
<line class="st5" x1="363.2" y1="157.3" x2="395.5" y2="157.3"/>
<line class="st5" x1="408" y1="157.3" x2="440.3" y2="157.3"/>
<line class="st5" x1="457.5" y1="157.3" x2="489.8" y2="157.3"/>
<line class="st5" x1="502.2" y1="157.3" x2="534.6" y2="157.3"/>
<line class="st5" x1="363.2" y1="168.4" x2="395.5" y2="168.4"/>
<line class="st5" x1="408" y1="168.4" x2="440.3" y2="168.4"/>
<line class="st5" x1="457.5" y1="168.4" x2="489.8" y2="168.4"/>
<line class="st5" x1="502.2" y1="168.4" x2="534.6" y2="168.4"/>
<line class="st5" x1="363.2" y1="179.6" x2="395.5" y2="179.6"/>
<line class="st5" x1="408" y1="179.6" x2="440.3" y2="179.6"/>
<line class="st5" x1="457.5" y1="179.6" x2="489.8" y2="179.6"/>
<line class="st5" x1="502.2" y1="179.6" x2="534.6" y2="179.6"/>
<line class="st5" x1="363.2" y1="190.7" x2="395.5" y2="190.7"/>
<line class="st5" x1="408" y1="190.7" x2="440.3" y2="190.7"/>
<line class="st5" x1="457.5" y1="190.7" x2="489.8" y2="190.7"/>
<line class="st5" x1="502.2" y1="190.7" x2="534.6" y2="190.7"/>
<line class="st5" x1="363.2" y1="201.8" x2="395.5" y2="201.8"/>
<line class="st5" x1="408" y1="201.8" x2="440.3" y2="201.8"/>
<line class="st5" x1="457.5" y1="201.8" x2="489.8" y2="201.8"/>
<line class="st5" x1="502.2" y1="201.8" x2="534.6" y2="201.8"/>
<line class="st5" x1="363.2" y1="212.9" x2="395.5" y2="212.9"/>
<line class="st5" x1="408" y1="212.9" x2="440.3" y2="212.9"/>
<line class="st5" x1="457.5" y1="212.9" x2="489.8" y2="212.9"/>
<line class="st5" x1="502.2" y1="212.9" x2="534.6" y2="212.9"/>
<line class="st5" x1="363.2" y1="246.2" x2="395.5" y2="246.2"/>
<line class="st5" x1="408" y1="246.2" x2="440.3" y2="246.2"/>
<line class="st5" x1="457.5" y1="246.2" x2="489.8" y2="246.2"/>
<line class="st5" x1="363.2" y1="257.3" x2="395.5" y2="257.3"/>
<line class="st5" x1="408" y1="257.3" x2="440.3" y2="257.3"/>
<line class="st5" x1="457.5" y1="257.3" x2="489.8" y2="257.3"/>
<line class="st5" x1="502.2" y1="257.3" x2="534.6" y2="257.3"/>
<line class="st5" x1="363.2" y1="268.4" x2="395.5" y2="268.4"/>
<line class="st5" x1="408" y1="268.4" x2="440.3" y2="268.4"/>
<line class="st5" x1="457.5" y1="268.4" x2="489.8" y2="268.4"/>
<line class="st5" x1="502.2" y1="268.4" x2="534.6" y2="268.4"/>
<line class="st5" x1="363.2" y1="279.5" x2="395.5" y2="279.5"/>
<line class="st5" x1="408" y1="279.5" x2="440.3" y2="279.5"/>
<line class="st5" x1="457.5" y1="279.5" x2="489.8" y2="279.5"/>
<line class="st5" x1="502.2" y1="279.5" x2="534.6" y2="279.5"/>
<line class="st5" x1="363.2" y1="290.6" x2="395.5" y2="290.6"/>
<line class="st5" x1="408" y1="290.6" x2="440.3" y2="290.6"/>
<line class="st5" x1="457.5" y1="290.6" x2="489.8" y2="290.6"/>
<line class="st5" x1="502.2" y1="290.6" x2="534.6" y2="290.6"/>
<line class="st5" x1="363.2" y1="301.7" x2="395.5" y2="301.7"/>
<line class="st5" x1="408" y1="301.7" x2="440.3" y2="301.7"/>
<line class="st5" x1="457.5" y1="301.7" x2="489.8" y2="301.7"/>
<line class="st5" x1="502.2" y1="301.7" x2="534.6" y2="301.7"/>
<line class="st5" x1="363.2" y1="312.8" x2="395.5" y2="312.8"/>
<line class="st5" x1="408" y1="312.8" x2="440.3" y2="312.8"/>
<line class="st5" x1="457.5" y1="312.8" x2="489.8" y2="312.8"/>
<line class="st5" x1="502.2" y1="312.8" x2="534.6" y2="312.8"/>
<line class="st5" x1="363.2" y1="323.9" x2="395.5" y2="323.9"/>
<line class="st5" x1="408" y1="323.9" x2="440.3" y2="323.9"/>
<line class="st5" x1="457.5" y1="323.9" x2="489.8" y2="323.9"/>
<line class="st5" x1="502.2" y1="323.9" x2="534.6" y2="323.9"/>
<line class="st5" x1="363.2" y1="335.1" x2="395.5" y2="335.1"/>
<line class="st5" x1="408" y1="335.1" x2="440.3" y2="335.1"/>
<line class="st5" x1="457.5" y1="335.1" x2="489.8" y2="335.1"/>
<line class="st5" x1="502.2" y1="335.1" x2="534.6" y2="335.1"/>
<line class="st5" x1="363.2" y1="346.2" x2="395.5" y2="346.2"/>
<line class="st5" x1="408" y1="346.2" x2="440.3" y2="346.2"/>
<line class="st5" x1="457.5" y1="346.2" x2="489.8" y2="346.2"/>
<line class="st5" x1="502.2" y1="346.2" x2="534.6" y2="346.2"/>
<line class="st5" x1="363.2" y1="357.3" x2="395.5" y2="357.3"/>
<line class="st5" x1="408" y1="357.3" x2="440.3" y2="357.3"/>
<line class="st5" x1="457.5" y1="357.3" x2="489.8" y2="357.3"/>
<line class="st5" x1="502.2" y1="357.3" x2="534.6" y2="357.3"/>
<line class="st5" x1="363.2" y1="368.4" x2="395.5" y2="368.4"/>
<line class="st5" x1="408" y1="368.4" x2="440.3" y2="368.4"/>
<line class="st5" x1="457.5" y1="368.4" x2="489.8" y2="368.4"/>
<line class="st5" x1="502.2" y1="368.4" x2="534.6" y2="368.4"/>
<line class="st5" x1="363.2" y1="379.5" x2="395.5" y2="379.5"/>
<line class="st5" x1="408" y1="379.5" x2="440.3" y2="379.5"/>
<line class="st5" x1="457.5" y1="379.5" x2="489.8" y2="379.5"/>
<line class="st5" x1="502.2" y1="379.5" x2="534.6" y2="379.5"/>
<line class="st5" x1="363.2" y1="390.6" x2="395.5" y2="390.6"/>
<line class="st5" x1="408" y1="390.6" x2="440.3" y2="390.6"/>
<line class="st5" x1="457.5" y1="390.6" x2="489.8" y2="390.6"/>
<line class="st5" x1="502.2" y1="390.6" x2="534.6" y2="390.6"/>
<line class="st5" x1="363.2" y1="401.7" x2="395.5" y2="401.7"/>
<line class="st5" x1="408" y1="401.7" x2="440.3" y2="401.7"/>
<line class="st5" x1="457.5" y1="401.7" x2="489.8" y2="401.7"/>
<line class="st5" x1="502.2" y1="401.7" x2="534.6" y2="401.7"/>
<line class="st5" x1="363.2" y1="412.8" x2="395.5" y2="412.8"/>
<line class="st5" x1="408" y1="412.8" x2="440.3" y2="412.8"/>
<line class="st5" x1="457.5" y1="412.8" x2="489.8" y2="412.8"/>
<line class="st5" x1="502.2" y1="412.8" x2="534.6" y2="412.8"/>
<line class="st5" x1="502.2" y1="246.2" x2="534.6" y2="246.2"/>
<circle class="st0" cx="323.6" cy="225.8" r="55.8"/>
<rect x="233.2" y="202.7" class="st0" width="190" height="234.1"/>
<path class="st3" d="M720.8,436.8h38.4c-1-6.1-5.8-10.9-11.8-12c0.2-1,0.3-2.1,0.3-3.2c0-9.8-7.9-17.7-17.7-17.7
	c-2.2,0-4.3,0.4-6.2,1.1c-2.3-9.1-10.5-15.8-20.3-15.8c-10.6,0-19.3,7.8-20.7,18c-0.1,0-0.1,0-0.2,0c-12.9,0-23.4,10.5-23.4,23.4
	c0,2.1,0.3,4.2,0.8,6.2h45.1H720.8z"/>
<path class="st3" d="M63.1,436.8h38.4c-1-6.1-5.8-10.9-11.8-12c0.2-1,0.3-2.1,0.3-3.2c0-9.8-7.9-17.7-17.7-17.7
	c-2.2,0-4.3,0.4-6.2,1.1c-2.3-9.1-10.5-15.8-20.3-15.8c-10.6,0-19.3,7.8-20.7,18c-0.1,0-0.1,0-0.2,0c-12.9,0-23.4,10.5-23.4,23.4
	c0,2.1,0.3,4.2,0.8,6.2h45.1H63.1z"/>
<rect x="457.5" y="89.8" class="st5" width="77.1" height="18"/>
<g>
	<line class="st5" x1="254.2" y1="218.8" x2="254.2" y2="246.2"/>
	<line class="st5" x1="282.7" y1="219.3" x2="282.7" y2="246.7"/>
	<line class="st5" x1="311.1" y1="219.8" x2="311.1" y2="247.2"/>
	<line class="st5" x1="339.6" y1="220.3" x2="339.6" y2="247.7"/>
	<line class="st5" x1="368.1" y1="220.8" x2="368.1" y2="248.2"/>
	<line class="st5" x1="396.5" y1="221.4" x2="396.5" y2="248.7"/>
</g>
<g>
	<line class="st5" x1="254.2" y1="270.1" x2="254.2" y2="297.5"/>
	<line class="st5" x1="282.7" y1="270.6" x2="282.7" y2="298"/>
	<line class="st5" x1="311.1" y1="271.1" x2="311.1" y2="298.5"/>
	<line class="st5" x1="339.6" y1="271.6" x2="339.6" y2="299"/>
	<line class="st5" x1="368.1" y1="272.1" x2="368.1" y2="299.5"/>
	<line class="st5" x1="396.5" y1="272.6" x2="396.5" y2="300"/>
</g>
<g>
	<line class="st5" x1="254.2" y1="321.4" x2="254.2" y2="348.8"/>
	<line class="st5" x1="282.7" y1="321.9" x2="282.7" y2="349.3"/>
	<line class="st5" x1="311.1" y1="322.4" x2="311.1" y2="349.8"/>
	<line class="st5" x1="339.6" y1="322.9" x2="339.6" y2="350.3"/>
	<line class="st5" x1="368.1" y1="323.4" x2="368.1" y2="350.8"/>
	<line class="st5" x1="396.5" y1="323.9" x2="396.5" y2="351.3"/>
</g>
<g>
	<line class="st5" x1="254.2" y1="372.7" x2="254.2" y2="400.1"/>
	<line class="st5" x1="282.7" y1="373.2" x2="282.7" y2="400.6"/>
	<line class="st5" x1="311.1" y1="373.7" x2="311.1" y2="401.1"/>
	<line class="st5" x1="339.6" y1="374.2" x2="339.6" y2="401.6"/>
	<line class="st5" x1="368.1" y1="374.7" x2="368.1" y2="402.1"/>
	<line class="st5" x1="396.5" y1="375.2" x2="396.5" y2="402.6"/>
</g>
<rect x="577.2" y="321.4" class="st0" width="114" height="32.4"/>
<rect x="577.2" y="262.2" class="st0" width="114" height="32.4"/>
<rect x="1739" y="239.8" class="st0" width="35" height="197"/>
<rect x="1670.3" y="249.8" class="st0" width="50" height="22.1"/>
<rect x="1670.3" y="287.6" class="st0" width="50" height="22.1"/>
<rect x="1670.3" y="325.3" class="st0" width="50" height="22.1"/>
<rect x="1670.3" y="363.1" class="st0" width="50" height="22.1"/>
<rect x="1670.3" y="400.8" class="st0" width="50" height="22.1"/>
<rect x="1792.5" y="249.8" class="st0" width="50" height="22.1"/>
<rect x="1792.5" y="287.6" class="st0" width="50" height="22.1"/>
<rect x="1792.5" y="325.3" class="st0" width="50" height="22.1"/>
<rect x="1792.5" y="363.1" class="st0" width="50" height="22.1"/>
<rect x="1792.5" y="400.8" class="st0" width="50" height="22.1"/>
<line class="st6" x1="1869.6" y1="280" x2="1931.5" y2="280"/>
<line class="st6" x1="1869.6" y1="294.5" x2="1931.5" y2="294.5"/>
<line class="st6" x1="1869.6" y1="309" x2="1931.5" y2="309"/>
<line class="st6" x1="1869.6" y1="323.5" x2="1931.5" y2="323.5"/>
<line class="st6" x1="1869.6" y1="338.1" x2="1931.5" y2="338.1"/>
<line class="st6" x1="1869.6" y1="349.7" x2="1931.5" y2="349.7"/>
<line class="st6" x1="1869.6" y1="364.3" x2="1931.5" y2="364.3"/>
<line class="st6" x1="1869.6" y1="378.8" x2="1931.5" y2="378.8"/>
<line class="st6" x1="1869.6" y1="393.3" x2="1931.5" y2="393.3"/>
<line class="st6" x1="1869.6" y1="407.9" x2="1931.5" y2="407.9"/>
<rect x="1064" y="69.9" class="st7" width="24.3" height="366.1"/>
<rect x="1071.6" y="83.8" class="st8" width="9.2" height="9.2"/>
<rect x="1071.6" y="107.2" class="st8" width="9.2" height="9.2"/>
<rect x="1071.6" y="130.5" class="st8" width="9.2" height="9.2"/>
<rect x="1071.6" y="153.8" class="st8" width="9.2" height="9.2"/>
<rect x="1071.6" y="177.2" class="st8" width="9.2" height="9.2"/>
<rect x="1071.6" y="200.5" class="st8" width="9.2" height="9.2"/>
<rect x="1071.6" y="223.9" class="st8" width="9.2" height="9.2"/>
<rect x="1071.6" y="247.2" class="st8" width="9.2" height="9.2"/>
<rect x="1071.6" y="270.6" class="st8" width="9.2" height="9.2"/>
<rect x="1071.6" y="293.9" class="st8" width="9.2" height="9.2"/>
<rect x="1071.6" y="317.3" class="st8" width="9.2" height="9.2"/>
<rect x="1071.6" y="340.6" class="st8" width="9.2" height="9.2"/>
<rect x="1071.6" y="363.9" class="st8" width="9.2" height="9.2"/>
<rect x="1071.6" y="387.3" class="st8" width="9.2" height="9.2"/>
<rect x="1071.6" y="410.6" class="st8" width="9.2" height="9.2"/>
<line class="st6" x1="1049.9" y1="88.4" x2="982.8" y2="88.4"/>
<line class="st6" x1="1049.9" y1="111.8" x2="982.8" y2="111.8"/>
<line class="st6" x1="1049.9" y1="135.1" x2="982.8" y2="135.1"/>
<line class="st6" x1="1049.9" y1="158.5" x2="982.8" y2="158.5"/>
<line class="st6" x1="1049.9" y1="181.8" x2="982.8" y2="181.8"/>
<line class="st6" x1="1049.9" y1="205.2" x2="982.8" y2="205.2"/>
<line class="st6" x1="1049.9" y1="228.5" x2="982.8" y2="228.5"/>
<line class="st6" x1="1049.9" y1="251.8" x2="982.8" y2="251.8"/>
<line class="st6" x1="1049.9" y1="275.2" x2="982.8" y2="275.2"/>
<line class="st6" x1="1049.9" y1="298.5" x2="982.8" y2="298.5"/>
<line class="st6" x1="1049.9" y1="321.9" x2="982.8" y2="321.9"/>
<line class="st6" x1="1049.9" y1="345.2" x2="982.8" y2="345.2"/>
<line class="st6" x1="1049.9" y1="368.6" x2="982.8" y2="368.6"/>
<line class="st6" x1="1049.9" y1="391.9" x2="982.8" y2="391.9"/>
<rect x="881.6" y="351.1" class="st9" width="144" height="85.7"/>
<path class="st2" d="M1089.8,423.1c1.1-2.7,1.7-5.6,1.7-8.6c0-12.6-10.2-22.9-22.9-22.9c-4,0-7.8,1-11,2.8
	c-0.7-14-12.3-25.2-26.5-25.2c-14.6,0-26.5,11.9-26.5,26.5c0,1.8,0.2,3.5,0.5,5.2c-10.6,1.3-18.8,10.4-18.8,21.3
	c0,5.2,1.9,10,5,13.7h65.6h19.5C1082.4,433.8,1087.3,429,1089.8,423.1"/>
<rect x="871.8" y="245.8" class="st4" width="157.7" height="191"/>
<polygon class="st10" points="1008.5,245.8 892.9,245.8 892.9,212.7 1008.5,179.6 "/>
<line class="st6" x1="892.9" y1="279.1" x2="1008.5" y2="279.1"/>
<line class="st6" x1="892.9" y1="294.5" x2="1008.5" y2="294.5"/>
<line class="st6" x1="892.9" y1="400.8" x2="1008.5" y2="400.8"/>
<line class="st6" x1="892.9" y1="413" x2="1008.5" y2="413"/>
<g>
	<line class="st6" x1="950.7" y1="295.7" x2="950.7" y2="401.2"/>
	<line class="st6" x1="918.6" y1="294.9" x2="918.6" y2="401.2"/>
	<line class="st6" x1="982.8" y1="294.9" x2="982.8" y2="401.2"/>
</g>
<g>
	<line class="st6" x1="950.7" y1="219" x2="950.7" y2="245.8"/>
	<line class="st6" x1="918.6" y1="218.8" x2="918.6" y2="245.8"/>
	<line class="st6" x1="982.8" y1="218.8" x2="982.8" y2="245.8"/>
</g>
<rect x="1164.2" y="247.1" class="st2" width="185" height="18.7"/>
<line class="st7" x1="975.3" y1="147.9" x2="975.3" y2="191.8"/>
<rect x="1138.2" y="259.9" class="st2" width="236.9" height="18.7"/>
<rect x="1186.2" y="219.8" class="st2" width="59.7" height="27"/>
<rect x="1173.5" y="289.6" class="st0" width="35.3" height="29.7"/>
<rect x="1238.8" y="289.6" class="st0" width="35.3" height="29.7"/>
<rect x="1304.1" y="289.6" class="st0" width="35.3" height="29.7"/>
<rect x="1173.5" y="349.1" class="st0" width="35.3" height="29.7"/>
<rect x="1238.8" y="349.1" class="st0" width="35.3" height="29.7"/>
<rect x="1304.1" y="349.1" class="st0" width="35.3" height="29.7"/>
<line class="st6" x1="1173.5" y1="326.5" x2="1209" y2="326.5"/>
<line class="st6" x1="1238.7" y1="326.5" x2="1274.2" y2="326.5"/>
<line class="st6" x1="1304" y1="326.5" x2="1339.5" y2="326.5"/>
<line class="st6" x1="1173.5" y1="385.2" x2="1209" y2="385.2"/>
<line class="st6" x1="1238.7" y1="385.2" x2="1274.2" y2="385.2"/>
<line class="st6" x1="1304" y1="385.2" x2="1339.5" y2="385.2"/>
<rect x="1854.2" y="280" class="st6" width="8" height="145.6"/>
<rect x="1931.5" y="346.1" class="st2" width="102.7" height="13.3"/>
<rect x="1931.5" y="419.9" class="st0" width="102.7" height="6.7"/>
<line class="st7" x1="1986.5" y1="359.4" x2="1986.5" y2="419.9"/>
<line class="st7" x1="1948.1" y1="359.4" x2="1948.1" y2="419.9"/>
<line class="st7" x1="1235.7" y1="170.5" x2="1235.7" y2="219"/>
<rect x="1931.5" y="280" class="st2" width="16.6" height="37.3"/>
<rect x="733.8" y="313.7" class="st0" width="13.1" height="26.3"/>
<rect x="765.5" y="313.3" class="st0" width="13.5" height="27"/>
<g>
	<rect x="733.8" y="362.5" class="st0" width="13.1" height="26.3"/>
	<rect x="765.5" y="362.2" class="st0" width="13.5" height="27"/>
</g>
<line class="st6" x1="730" y1="341" x2="750.7" y2="341"/>
<line class="st6" x1="761.9" y1="341" x2="782.7" y2="341"/>
<line class="st6" x1="730" y1="389.2" x2="750.7" y2="389.2"/>
<line class="st6" x1="761.9" y1="389.2" x2="782.7" y2="389.2"/>
<rect x="979.1" y="46.4" class="st2" width="109.2" height="17.9"/>
<polygon class="st2" points="1813,194.7 1700,194.7 1718,115.4 1795,115.4 "/>
<rect x="1685.5" y="194.7" class="st7" width="140.7" height="15.1"/>
<line class="st6" x1="1718" y1="115.4" x2="1718" y2="194.7"/>
<line class="st6" x1="1795" y1="115.4" x2="1795" y2="194.7"/>
<line class="st6" x1="1755.8" y1="115.4" x2="1755.8" y2="194.7"/>
<rect x="1777.6" y="64.3" class="st2" width="10" height="51.1"/>
<line class="st6" x1="1782.6" y1="46.4" x2="1782.6" y2="64.3"/>
<path class="st3" d="M1935.6,436.8h23.7c-0.6-3.7-3.6-6.7-7.3-7.4c0.1-0.6,0.2-1.3,0.2-2c0-6-4.9-11-11-11c-1.3,0-2.6,0.2-3.8,0.7
	c-1.4-5.6-6.5-9.8-12.5-9.8c-6.5,0-11.9,4.8-12.8,11.1h-0.1c-8,0-14.4,6.5-14.4,14.4c0,1.3,0.2,2.6,0.5,3.8h27.9h9.6L1935.6,436.8
	L1935.6,436.8z"/>
<rect x="577.2" y="202.7" class="st11" width="159.3" height="32.7"/>
<line class="st6" x1="615.4" y1="202.7" x2="615.4" y2="235.4"/>
<g>
	<polygon class="st12" points="1137.1,346.1 1120.9,391.2 1137.1,407.4 1153.3,391.2 	"/>
	<g>
		<line class="st13" x1="1133.4" y1="403.8" x2="1133.4" y2="436.7"/>
		<polygon class="st13" points="1133.4,349.1 1117.2,394.2 1133.4,410.4 1149.6,394.2 		"/>
	</g>
</g>
<g>
	<polygon class="st12" points="627.7,367.9 615.4,402.1 627.7,414.4 640,402.1 	"/>
	<g>
		<line class="st13" x1="625" y1="411.7" x2="625" y2="436.7"/>
		<polygon class="st13" points="625,370.2 612.7,404.4 625,416.7 637.3,404.4 		"/>
	</g>
</g>
<g>
	<polygon class="st12" points="587.9,387.7 579.2,412.1 587.9,420.8 596.7,412.1 	"/>
	<g>
		<line class="st13" x1="586" y1="418.9" x2="586" y2="436.7"/>
		<polygon class="st13" points="586,389.3 577.2,413.7 586,422.4 594.7,413.7 		"/>
	</g>
</g>
<g>
	<polygon class="st12" points="862.3,367.9 850,402.1 862.3,414.4 874.6,402.1 	"/>
	<g>
		<line class="st13" x1="859.5" y1="411.7" x2="859.5" y2="436.7"/>
		<polygon class="st13" points="859.5,370.2 847.2,404.4 859.5,416.7 871.8,404.4 		"/>
	</g>
</g>
<g>
	<polygon class="st12" points="1117.2,367.9 1105,402.1 1117.2,414.4 1129.5,402.1 	"/>
	<g>
		<line class="st13" x1="1114.5" y1="411.7" x2="1114.5" y2="436.7"/>
		<polygon class="st13" points="1114.5,370.2 1102.2,404.4 1114.5,416.7 1126.8,404.4 		"/>
	</g>
</g>
<g>
	<polygon class="st12" points="1640.2,367.9 1627.9,402.1 1640.2,414.4 1652.4,402.1 	"/>
	<g>
		<line class="st13" x1="1637.4" y1="411.7" x2="1637.4" y2="436.7"/>
		<polygon class="st13" points="1637.4,370.2 1625.1,404.4 1637.4,416.7 1649.7,404.4 		"/>
	</g>
</g>
<g>
	<polygon class="st12" points="1525.1,364.2 1512.8,398.4 1525.1,410.7 1537.3,398.4 	"/>
	<g>
		<line class="st13" x1="1522.3" y1="408" x2="1522.3" y2="433"/>
		<polygon class="st13" points="1522.3,366.5 1510,400.7 1522.3,413 1534.6,400.7 		"/>
	</g>
</g>
<g>
	<polygon class="st12" points="2026.5,367.9 2014.3,402.1 2026.5,414.4 2038.8,402.1 	"/>
	<g>
		<line class="st13" x1="2023.8" y1="411.7" x2="2023.8" y2="436.7"/>
		<polygon class="st13" points="2023.8,370.2 2011.5,404.4 2023.8,416.7 2036.1,404.4 		"/>
	</g>
</g>
<g>
	<polygon class="st12" points="556.6,367.9 544.3,402.1 556.6,414.4 568.9,402.1 	"/>
	<g>
		<line class="st13" x1="553.8" y1="411.7" x2="553.8" y2="436.7"/>
		<polygon class="st13" points="553.8,370.2 541.5,404.4 553.8,416.7 566.1,404.4 		"/>
	</g>
</g>
<g>
	<polygon class="st12" points="311.2,374.1 300,405.2 311.2,416.4 322.4,405.2 	"/>
	<g>
		<line class="st13" x1="308.7" y1="414" x2="308.7" y2="436.7"/>
		<polygon class="st13" points="308.7,376.2 297.5,407.3 308.7,418.5 319.9,407.3 		"/>
	</g>
</g>
<line class="st6" x1="386.2" y1="26.3" x2="386.2" y2="69.9"/>
<line class="st6" x1="408" y1="0" x2="408" y2="69.9"/>
<g>
	<polygon class="st12" points="21.8,357.5 7.4,397.3 21.8,411.7 36.1,397.3 	"/>
	<g>
		<line class="st13" x1="18.6" y1="408.6" x2="18.6" y2="437.7"/>
		<polygon class="st13" points="18.6,360.2 4.2,400 18.6,414.4 32.9,400 		"/>
	</g>
</g>
<line class="st6" x1="38.3" y1="288.6" x2="38.3" y2="339"/>
<line class="st6" x1="54.4" y1="312.4" x2="54.4" y2="339"/>
<line class="st6" x1="89" y1="312.4" x2="89" y2="339"/>
<g>
	<polygon class="st12" points="1378.4,324.6 1358.2,380.8 1378.4,401 1398.4,380.8 	"/>
	<g>
		<line class="st13" x1="1373.8" y1="396.5" x2="1373.8" y2="437.6"/>
		<polygon class="st13" points="1373.8,328.3 1353.6,384.5 1373.8,404.8 1394,384.5 		"/>
	</g>
</g>
<line class="st6" x1="123.6" y1="312.4" x2="123.6" y2="339"/>
<line class="st6" x1="158.2" y1="312.4" x2="158.2" y2="339"/>
<line class="st6" x1="192.8" y1="312.4" x2="192.8" y2="339"/>
<line class="st6" x1="72.3" y1="288.6" x2="72.3" y2="339"/>
<line class="st6" x1="106.4" y1="288.6" x2="106.4" y2="339"/>
<line class="st6" x1="140.4" y1="288.6" x2="140.4" y2="339"/>
<line class="st6" x1="174.5" y1="288.6" x2="174.5" y2="339"/>
<line class="st6" x1="208.6" y1="288.6" x2="208.6" y2="339"/>
<rect x="1413.3" y="385.8" class="st0" width="71.2" height="50.3"/>
<rect x="1396.3" y="382.7" class="st14" width="105.2" height="5"/>
<rect x="1433.3" y="427.2" class="st15" width="31.2" height="9.6"/>
<line class="st6" x1="1423.8" y1="427.7" x2="1473.9" y2="427.7"/>
<g>
	<polygon class="st12" points="1509.6,334.1 1491.5,384.5 1509.6,402.6 1527.7,384.5 	"/>
	<g>
		<line class="st13" x1="1505.5" y1="398.6" x2="1505.5" y2="435.4"/>
		<polygon class="st13" points="1505.5,337.5 1487.4,387.9 1505.5,406 1523.6,387.9 		"/>
	</g>
</g>
<line class="st16" x1="1402.3" y1="392.8" x2="1402.3" y2="437.1"/>
<rect x="1395.7" y="398.1" class="st15" width="13.3" height="19.7"/>
</svg>
