<svg id="Layer_4" data-name="Layer 4" xmlns="http://www.w3.org/2000/svg" xmlns:xlink="http://www.w3.org/1999/xlink" viewBox="0 0 243.85 184.94">
  <defs>
    <style>
      .cls-1 {
        fill: #8d8f99;
      }

      .cls-2 {
        fill: #484a51;
      }

      .cls-3 {
        clip-path: url(#clip-path);
      }

      .cls-4 {
        fill: #7e818c;
      }

      .cls-5 {
        fill: none;
        stroke: #7e818c;
        stroke-miterlimit: 10;
        stroke-width: 2px;
      }
    </style>
    <clipPath id="clip-path" transform="translate(-1917.69 -524.65)">
      <polygon id="_Clipping_Path_" data-name="&lt;Clipping Path&gt;" class="cls-1" points="2112.97 687.33 1966.77 687.33 1937.76 593.05 2141.97 593.05 2112.97 687.33"/>
    </clipPath>
  </defs>
  <title>_coal</title>
  <g id="coal">
    <polygon class="cls-2" points="93.52 63.35 73.73 89.59 41.12 85.58 28.29 55.32 48.07 29.09 80.69 33.1 93.52 63.35"/>
    <polygon class="cls-2" points="92.72 34.03 83.39 46.41 68 44.51 61.94 30.24 71.28 17.86 86.67 19.75 92.72 34.03"/>
    <polygon class="cls-2" points="124.98 48.95 124.98 81.81 96.53 98.24 68.07 81.81 68.07 48.95 96.53 32.52 124.98 48.95"/>
    <polygon class="cls-2" points="173.04 10.56 183.6 49.96 154.75 78.81 115.35 68.25 104.79 28.85 133.63 0 173.04 10.56"/>
    <polygon class="cls-2" points="190.79 26.38 194.59 40.55 184.21 50.92 170.04 47.13 166.24 32.95 176.62 22.58 190.79 26.38"/>
    <polygon class="cls-2" points="200.66 85.69 172.72 89.26 155.66 66.84 166.53 40.86 194.47 37.29 211.54 59.7 200.66 85.69"/>
    <g>
      <polygon id="_Clipping_Path_2" data-name="&lt;Clipping Path&gt;" class="cls-1" points="195.28 162.68 49.08 162.68 20.07 68.4 224.28 68.4 195.28 162.68"/>
      <g class="cls-3">
        <rect class="cls-4" y="101.06" width="243.85" height="28.54"/>
      </g>
    </g>
    <rect class="cls-4" x="43.15" y="159.66" width="155.54" height="6.04"/>
    <rect class="cls-4" x="15.55" y="65.38" width="212.74" height="10.29"/>
    <g>
      <circle class="cls-4" cx="74.27" cy="162.68" r="22.25"/>
      <circle class="cls-2" cx="74.27" cy="162.68" r="13.37"/>
      <g>
        <line class="cls-5" x1="68.83" y1="162.68" x2="79.72" y2="162.68"/>
        <line class="cls-5" x1="74.27" y1="157.24" x2="74.27" y2="168.13"/>
      </g>
    </g>
    <g>
      <circle class="cls-4" cx="170.23" cy="162.68" r="22.25"/>
      <circle class="cls-2" cx="170.23" cy="162.68" r="13.37"/>
      <g>
        <line class="cls-5" x1="164.78" y1="162.68" x2="175.67" y2="162.68"/>
        <line class="cls-5" x1="170.23" y1="157.24" x2="170.23" y2="168.13"/>
      </g>
    </g>
  </g>
</svg>
