<svg id="d8ab7e88-90db-4382-9d9d-8320f412cf78" data-name="Layer 1" xmlns="http://www.w3.org/2000/svg" viewBox="0 0 502.04 439.8">
  <defs>
    <style>
      .\33 40556f2-c341-483f-95dd-d4a1d1957f2e, .\34 3435ecd-1394-44c7-b9f1-a2a692599376, .dc3e9ec7-2c98-4801-9c03-c1e5635268ff {
        fill: none;
      }

      .\33 40556f2-c341-483f-95dd-d4a1d1957f2e, .\34 3435ecd-1394-44c7-b9f1-a2a692599376, .\38 72d084d-e056-4f34-92d1-ae8f5ee74334, .dc3e9ec7-2c98-4801-9c03-c1e5635268ff {
        stroke: #2f404f;
        stroke-miterlimit: 10;
      }

      .dc3e9ec7-2c98-4801-9c03-c1e5635268ff {
        stroke-width: 3px;
      }

      .\38 72d084d-e056-4f34-92d1-ae8f5ee74334 {
        fill: #fff;
      }

      .\34 3435ecd-1394-44c7-b9f1-a2a692599376, .\38 72d084d-e056-4f34-92d1-ae8f5ee74334 {
        stroke-width: 4px;
      }

      .\36 3515789-30d7-4e5e-addb-90a67b04f43a {
        fill: #2f404f;
      }
    </style>
  </defs>
  <title>dock</title>
  <line class="dc3e9ec7-2c98-4801-9c03-c1e5635268ff" x1="2.44" y1="279.78" x2="458.59" y2="279.78"/>
  <rect class="872d084d-e056-4f34-92d1-ae8f5ee74334" x="2.44" y="60.54" width="258" height="171.46"/>
  <rect class="872d084d-e056-4f34-92d1-ae8f5ee74334" x="2" y="45.41" width="217.9" height="15.39"/>
  <rect class="872d084d-e056-4f34-92d1-ae8f5ee74334" x="2.12" y="2" width="91.06" height="43.49"/>
  <rect class="872d084d-e056-4f34-92d1-ae8f5ee74334" x="243.1" y="685.7" width="13.8" height="497.6" transform="translate(-683.26 488.54) rotate(-90)"/>
  <rect class="872d084d-e056-4f34-92d1-ae8f5ee74334" x="314.61" y="245.44" width="13.32" height="192.35"/>
  <rect class="872d084d-e056-4f34-92d1-ae8f5ee74334" x="242.63" y="245.44" width="13.32" height="192.35"/>
  <rect class="872d084d-e056-4f34-92d1-ae8f5ee74334" x="170.64" y="245.44" width="13.32" height="192.35"/>
  <rect class="872d084d-e056-4f34-92d1-ae8f5ee74334" x="98.65" y="245.44" width="13.32" height="192.35"/>
  <rect class="872d084d-e056-4f34-92d1-ae8f5ee74334" x="26.67" y="245.44" width="13.32" height="192.35"/>
  <rect class="872d084d-e056-4f34-92d1-ae8f5ee74334" x="386.6" y="245.44" width="13.32" height="192.35"/>
  <rect class="872d084d-e056-4f34-92d1-ae8f5ee74334" x="458.59" y="245.44" width="13.32" height="192.35"/>
  <path class="63515789-30d7-4e5e-addb-90a67b04f43a" d="M239.42,793.57l-9.86,10.13L235,805c-2.84,9.86-10.8,16.74-20.05,17.35v-35a5.67,5.67,0,1,0-2.84,0v35c-9.25-.61-17.21-7.49-20.05-17.28l5.54-1.42-9.86-10.13-3.85,13.57,5.4-1.35a28.28,28.28,0,0,0,8.44,13.43,23.57,23.57,0,0,0,31.59,0,28.48,28.48,0,0,0,8.44-13.5l5.6,1.42Zm-51.51,9.65,1.15-4.19,3,3.11Zm22.68-21.33a2.84,2.84,0,1,1,2.84,2.84A2.81,2.81,0,0,1,210.6,781.89ZM235,802.15l3-3.11,1.15,4.19Z" transform="translate(1.24 -695.95)"/>
  <path class="63515789-30d7-4e5e-addb-90a67b04f43a" d="M161.22,793.57l-9.86,10.13,5.4,1.35c-2.84,9.86-10.8,16.74-20.05,17.35v-35a5.67,5.67,0,1,0-2.84,0v35c-9.25-.61-17.21-7.49-20.05-17.28l5.54-1.42-9.86-10.13-3.85,13.57,5.4-1.35a28.28,28.28,0,0,0,8.44,13.43,23.57,23.57,0,0,0,31.59,0,28.48,28.48,0,0,0,8.44-13.5l5.6,1.42Zm-51.51,9.65,1.15-4.19,3,3.11Zm22.68-21.33a2.84,2.84,0,1,1,2.84,2.84A2.81,2.81,0,0,1,132.4,781.89Zm24.37,20.25,3-3.11,1.15,4.19Z" transform="translate(1.24 -695.95)"/>
  <circle class="dc3e9ec7-2c98-4801-9c03-c1e5635268ff" cx="49.45" cy="102.38" r="22.66"/>
  <circle class="dc3e9ec7-2c98-4801-9c03-c1e5635268ff" cx="49.45" cy="102.38" r="34"/>
  <rect class="872d084d-e056-4f34-92d1-ae8f5ee74334" x="436.09" y="201.57" width="9.66" height="30.07"/>
  <circle class="340556f2-c341-483f-95dd-d4a1d1957f2e" cx="20.33" cy="102.38" r="1.79"/>
  <circle class="340556f2-c341-483f-95dd-d4a1d1957f2e" cx="78.37" cy="102.38" r="1.79"/>
  <circle class="340556f2-c341-483f-95dd-d4a1d1957f2e" cx="49.45" cy="73.62" r="1.79"/>
  <circle class="340556f2-c341-483f-95dd-d4a1d1957f2e" cx="49.45" cy="131.14" r="1.79"/>
  <rect class="43435ecd-1394-44c7-b9f1-a2a692599376" x="422.87" y="193.19" width="35.97" height="8.39"/>
  <line class="43435ecd-1394-44c7-b9f1-a2a692599376" x1="2.44" y1="201.57" x2="377.31" y2="201.57"/>
  <line class="43435ecd-1394-44c7-b9f1-a2a692599376" x1="359.87" y1="201.57" x2="359.87" y2="231.64"/>
  <line class="43435ecd-1394-44c7-b9f1-a2a692599376" x1="331.75" y1="201.57" x2="331.75" y2="231.64"/>
  <line class="43435ecd-1394-44c7-b9f1-a2a692599376" x1="303.62" y1="201.57" x2="303.62" y2="231.64"/>
  <line class="43435ecd-1394-44c7-b9f1-a2a692599376" x1="275.49" y1="201.57" x2="275.49" y2="231.64"/>
  <line class="43435ecd-1394-44c7-b9f1-a2a692599376" x1="247.37" y1="201.57" x2="247.37" y2="231.64"/>
  <line class="43435ecd-1394-44c7-b9f1-a2a692599376" x1="219.24" y1="201.57" x2="219.24" y2="231.64"/>
  <line class="43435ecd-1394-44c7-b9f1-a2a692599376" x1="191.11" y1="201.57" x2="191.11" y2="231.64"/>
  <line class="43435ecd-1394-44c7-b9f1-a2a692599376" x1="162.99" y1="201.57" x2="162.99" y2="231.64"/>
  <line class="43435ecd-1394-44c7-b9f1-a2a692599376" x1="134.86" y1="201.57" x2="134.86" y2="231.64"/>
  <line class="43435ecd-1394-44c7-b9f1-a2a692599376" x1="106.74" y1="201.57" x2="106.74" y2="231.64"/>
  <line class="43435ecd-1394-44c7-b9f1-a2a692599376" x1="78.61" y1="201.57" x2="78.61" y2="231.64"/>
  <line class="43435ecd-1394-44c7-b9f1-a2a692599376" x1="50.48" y1="201.57" x2="50.48" y2="231.64"/>
  <line class="43435ecd-1394-44c7-b9f1-a2a692599376" x1="22.36" y1="201.57" x2="22.36" y2="231.64"/>
  <rect class="872d084d-e056-4f34-92d1-ae8f5ee74334" x="43.98" y="162.95" width="122.65" height="68.7"/>
  <rect class="872d084d-e056-4f34-92d1-ae8f5ee74334" x="33.32" y="158.82" width="143.97" height="8.26"/>
</svg>
