<?xml version="1.0" encoding="utf-8"?>
<!-- Generator: Adobe Illustrator 19.2.1, SVG Export Plug-In . SVG Version: 6.00 Build 0)  -->
<svg version="1.1" id="Layer_2" xmlns="http://www.w3.org/2000/svg" xmlns:xlink="http://www.w3.org/1999/xlink" x="0px" y="0px"
	 viewBox="0 0 987.3 491.1" style="enable-background:new 0 0 987.3 491.1;" xml:space="preserve">
<style type="text/css">
	.st0{opacity:0.4;}
	.st1{fill:#D9D9D9;}
</style>
<title>factory</title>
<g class="st0">
	<rect x="392.4" y="263.6" class="st1" width="1" height="12.6"/>
	<path class="st1" d="M959.4,335v-58.3h-65.1v-13.2V259v-3.7h-25.5v-60.2v-0.4V193l1.8-2.3h0l0.2-0.3l25.2-32.3h0l0.3-0.4h0l1.4-1.8
		v-2.3v-0.4v-53.1v-0.4v-4.1v-0.4v-0.5l10.4-11.4v-9.9h0h-1.7v8.7H882v-8.7h-1.7v8.7h-23.9v-8.7h-1.7v9.9L865,94.7v0.5v0.4v4.1v0.4
		V123h-19.8v-18.7c0-13.1-9-23.9-18-23.9l-28.6-1.7c-1.2,0-2.1-0.9-2.1-2.1V74h-8.8v-2h-9v2h-8.8v2.6c0,1.2-0.9,2.1-2.1,2.1h-11.2
		h-1h-16.3c-9,0-18,10.8-18,23.9V123h-8.5c-9.1-69.2-5.5-118.6-2.3-123h-82.8c4.1,5.7,9,86.7-13.9,188.2l-13.2,13.5l0.1-19.5
		l-19,19.5l0.1-19.5l-19,17.9l0.1-17.9l-19,17.3v-17.3L525,201.7v-19.5l-21.3,19.5l-9.2-72.7h2.5c0.6,0,1-0.4,1-1v-1.5
		c0-0.6-0.4-1-1-1h-27.5c-0.5,0-1,0.4-1,1v1.5c0,0.6,0.4,1,1,1h3.4l-10.6,72.8v43.7l-41.7,19.8h-4.7c0,0,0-0.1,0-0.1h-0.5
		c0,0,0,0.1,0,0.1h-8.9v-3.6h-1.9v-6.1v-0.4v-29.7c0-2,1.6-3.6,3.6-3.6h51.6v3h-1v1.1h1v0.7h2.4V207h-2.4v0.7h-1v1.1h1v2.6h-55.2
		c-5.1,0-9.2,4.1-9.2,9.2v34.7v0.4v6h-1.5V278l-114.5,54.4c0,0.2,0.3,0.4,1,0.6h-29.8l-14.3-160.2h-63.1L158.9,333h-17.7L119.3,88.6
		H56.2L34.4,333H0v159.1h442.5h127.3h19.9h7.6h19.9h65.6h2.4h40.1h2.4h168h91.6v-71.3v-0.1v-86.3L959.4,335z M882,83.8h23.3
		l-8.7,9.6H882V83.8z M857.5,83.8h22.8v9.6h-14.1L857.5,83.8z M745.8,108.9c0-5,4.1-9.1,9.1-9.1l56.5,1.7c0,0,0,0,0,0h0.2
		c0.3,0,0.5,0.1,0.8,0.1c0,0,0,0,0-0.1c4.6,0.4,8.3,4.3,8.3,9.1V123h-74.9V108.9z"/>
</g>
<image style="overflow:visible;" width="564" height="2816" xlink:href="96CE1D74.jpg"  transform="matrix(1 0 0 1 -221 -787)">
</image>
</svg>
