<?xml version="1.0" encoding="utf-8"?>
<!-- Generator: Adobe Illustrator 19.2.1, SVG Export Plug-In . SVG Version: 6.00 Build 0)  -->
<svg version="1.1" id="Layer_2" xmlns="http://www.w3.org/2000/svg" xmlns:xlink="http://www.w3.org/1999/xlink" x="0px" y="0px"
	 viewBox="0 0 987.3 491.1" style="enable-background:new 0 0 987.3 491.1;" xml:space="preserve">
<style type="text/css">
	.st0{fill:#566074;}
	.st1{fill:#495469;}
	.st2{fill:none;stroke:#29364F;stroke-width:0.25;stroke-miterlimit:10;}
	.st3{fill:#29364F;}
	.st4{fill:#969CA9;}
	.st5{fill:none;stroke:#29364F;stroke-width:0.5;stroke-miterlimit:10;}
	.st6{fill:#495469;stroke:#29364F;stroke-width:0.5;stroke-miterlimit:10;}
	.st7{fill:none;stroke:#44495E;stroke-width:0.25;stroke-miterlimit:10;}
	.st8{fill:#495469;stroke:#29364F;stroke-width:0.25;stroke-miterlimit:10;}
	.st9{clip-path:url(#SVGID_2_);}
	.st10{fill:none;stroke:#495469;stroke-width:0.5;stroke-miterlimit:10;}
	.st11{fill:none;stroke:#566074;stroke-width:0.5;stroke-miterlimit:10;}
	.st12{fill:none;stroke:#495469;stroke-miterlimit:10;}
	.st13{clip-path:url(#SVGID_4_);}
	.st14{fill:#455066;}
	.st15{fill:none;stroke:#495469;stroke-width:0.25;stroke-miterlimit:10;}
	.st16{fill:none;stroke:#455066;stroke-width:0.5;stroke-miterlimit:10;}
	.st17{fill:none;stroke:#455066;stroke-miterlimit:10;}
	.st18{fill:none;stroke:#455066;stroke-width:0.25;stroke-miterlimit:10;}
	.st19{fill:none;stroke:#82AB59;stroke-width:0.25;stroke-miterlimit:10;}
	.st20{fill:#29364F;stroke:#495469;stroke-width:0.25;stroke-miterlimit:10;}
	.st21{fill:#566074;stroke:#495469;stroke-width:0.1;stroke-miterlimit:10;}
	.st22{fill:none;stroke:#44495E;stroke-width:0.1;stroke-miterlimit:10;}
</style>
<title>factory</title>
<polygon class="st0" points="141.6,337.6 34,337.6 56.2,88.6 119.3,88.6 "/>
<polygon class="st0" points="258.5,421.7 151,421.7 173.2,172.8 236.3,172.8 "/>
<path class="st1" d="M827.2,80.4l-28.6-1.7c-1.2,0-2.1-0.9-2.1-2.1v0V74h-8.8v-2h-9v2h-8.8v2.6c0,1.2-0.9,2.1-2.1,2.1l0,0h-28.5
	c-9,0-18,10.8-18,23.9V123h24.5v-14.1c0-5,4.1-9.1,9.1-9.1l56.7,1.7c5,0,9.1,4.1,9.1,9.1V123h24.5v-18.7
	C845.2,91.2,836.2,80.4,827.2,80.4z"/>
<rect x="708.1" y="123" class="st1" width="157.6" height="132.3"/>
<rect x="744.4" y="149.1" class="st2" width="76.7" height="31.9"/>
<rect x="746.8" y="151.9" class="st3" width="22.7" height="12.5"/>
<rect x="771.7" y="151.9" class="st3" width="22.7" height="12.5"/>
<rect x="796" y="151.9" class="st3" width="22.7" height="12.5"/>
<rect x="746.8" y="165.8" class="st4" width="22.7" height="12.5"/>
<rect x="771.7" y="165.8" class="st4" width="22.7" height="12.5"/>
<rect x="796" y="165.8" class="st4" width="22.7" height="12.5"/>
<rect x="741.8" y="149.1" class="st2" width="81.8" height="31.9"/>
<line class="st5" x1="716.8" y1="149.1" x2="865" y2="149.1"/>
<line class="st2" x1="716" y1="144.4" x2="865" y2="144.4"/>
<line class="st2" x1="722.9" y1="181" x2="845.4" y2="181"/>
<line class="st2" x1="724.3" y1="186.1" x2="841.2" y2="186.1"/>
<path class="st2" d="M818.6,186.1V222c0,2.8-2.3,5.1-5.1,5.1l0,0h-3.4c-3.6,0-6.5,2.9-6.5,6.5l0,0v21.7"/>
<path class="st2" d="M816.3,186.1v32.4c0,2.8-0.1,6.7-3.9,6.5h-3.4c-4.5,0.3-8,4-8,8.6v21.7"/>
<rect x="799.2" y="245.5" class="st3" width="4.3" height="1.8"/>
<path class="st3" d="M813.3,92.6c0,3.1-0.7,6.1-1.9,8.9h0.2c0.3,0,0.5,0.1,0.8,0.1c1.2-2.9,1.8-5.9,1.8-9c0-4.3-1.2-8.4-3.3-12.1h-1
	C812.1,84.1,813.3,88.3,813.3,92.6z"/>
<path class="st3" d="M753.1,90.8c0-4.3,1.2-8.5,3.5-12.1h-1c-2.2,3.7-3.3,7.9-3.3,12.1c0,3.1,0.6,6.1,1.8,9c0.3,0,0.5-0.1,0.8-0.1
	h0.1C753.8,96.9,753.1,93.9,753.1,90.8z"/>
<rect x="744.5" y="259" class="st1" width="149.8" height="143.4"/>
<rect x="740.3" y="255.3" class="st6" width="154" height="8.2"/>
<rect x="837.9" y="281" class="st3" width="17" height="20.7"/>
<rect x="824.1" y="372.6" class="st3" width="60.6" height="10.8"/>
<rect x="824.2" y="384.6" class="st3" width="60.6" height="9"/>
<rect x="857.2" y="281" class="st3" width="17" height="20.7"/>
<rect x="837.9" y="304" class="st3" width="17" height="20.7"/>
<rect x="857.2" y="304" class="st3" width="17" height="20.7"/>
<rect x="837.9" y="327.1" class="st3" width="17" height="20.7"/>
<rect x="857.2" y="327.1" class="st3" width="17" height="20.7"/>
<rect x="834.4" y="278" class="st5" width="43.3" height="72.8"/>
<line class="st5" x1="834.4" y1="286.2" x2="754.3" y2="286.2"/>
<line class="st5" x1="834.4" y1="343.6" x2="780.2" y2="343.6"/>
<line class="st5" x1="894.3" y1="278" x2="751.6" y2="278"/>
<path class="st3" d="M908.1,73.4h-1.7v8.7H882v-8.7h-1.7v8.7h-23.9v-8.7h-1.7v9.9L865,94.7v61.2l-28.9,37.1v62.4h32.7v-62.4
	l28.9-37.1V94.7l10.4-11.4V73.4z M866.2,93.4l-8.7-9.6h22.8v9.6H866.2L866.2,93.4z M882,83.8h23.3l-8.7,9.6H882V83.8z"/>
<rect x="865" y="99.7" class="st7" width="32.7" height="0.4"/>
<rect x="865" y="95.2" class="st7" width="32.7" height="0.4"/>
<polygon class="st7" points="896.3,157.7 863.6,157.7 863.2,158.1 896,158.1 "/>
<rect x="865" y="153.2" class="st7" width="32.7" height="0.4"/>
<polygon class="st7" points="837.9,190.7 870.6,190.7 870.9,190.3 838.2,190.3 "/>
<rect x="836.1" y="194.7" class="st7" width="32.7" height="0.4"/>
<polyline class="st7" points="894.5,99.9 894.5,153.7 863.5,195.1 863.5,255.3 "/>
<rect x="821.6" y="370.2" class="st5" width="65.7" height="26.6"/>
<path class="st1" d="M619.7,182.2l-19.1,19.5l0.1-19.5l-19,19.5l0.1-19.5l-19,17.9l0.1-17.9l-19,17.3v-17.3L525,201.7v-19.5
	l-21.3,19.5l-9.4-74.5h-21.1l-10.9,74.6v43.7l-182.9,86.9c-0.1,3.3,87.7,4.2,94.4,29.8h245.8L619.7,182.2L619.7,182.2z"/>
<circle class="st0" cx="536.2" cy="229.7" r="7.8"/>
<circle class="st0" cx="574.6" cy="229.7" r="7.8"/>
<circle class="st0" cx="497.8" cy="229.7" r="7.8"/>
<path class="st5" d="M462.3,229.7h25.4c0-5.6,4.5-10.1,10.1-10.1s10.1,4.5,10.1,10.1h18.3c0-5.6,4.5-10.1,10.1-10.1
	s10.1,4.5,10.1,10.1h18.3c0-5.6,4.5-10.1,10.1-10.1s10.1,4.5,10.1,10.1H603"/>
<path class="st8" d="M469.5,125.5H497c0.6,0,1,0.4,1,1v1.5c0,0.6-0.4,1-1,1h-27.5c-0.6,0-1-0.4-1-1v-1.5
	C468.5,125.9,469,125.5,469.5,125.5z"/>
<line class="st5" x1="478.2" y1="128.9" x2="478.2" y2="229.7"/>
<line class="st2" x1="462.3" y1="245.5" x2="598.8" y2="245.5"/>
<line class="st5" x1="774.3" y1="362.2" x2="894.3" y2="362.2"/>
<path id="_Clipping_Path_3" class="st0" d="M496.2,265.3h-91.6v-39.8c0-2,1.6-3.6,3.6-3.6l0,0h51.6v3h-1v1.1h1v0.7h2.4V207h-2.4v0.7
	h-1v1.1h1v2.6h-55.2c-5.1,0-9.2,4.1-9.2,9.2v109.2h9.2v-56.4h86c1.8,0,3.2,1.5,3.2,3.2V302H504v-29
	C504,268.7,500.5,265.3,496.2,265.3C496.2,265.3,496.2,265.3,496.2,265.3z"/>
<g>
	<defs>
		<path id="SVGID_1_" d="M496.2,265.3h-91.6v-39.8c0-2,1.6-3.6,3.6-3.6l0,0h51.6v3h-1v1.1h1v0.7h2.4V207h-2.4v0.7h-1v1.1h1v2.6
			h-55.2c-5.1,0-9.2,4.1-9.2,9.2v109.2h9.2v-56.4h86c1.8,0,3.2,1.5,3.2,3.2V302H504v-29C504,268.7,500.5,265.3,496.2,265.3
			C496.2,265.3,496.2,265.3,496.2,265.3z"/>
	</defs>
	<clipPath id="SVGID_2_">
		<use xlink:href="#SVGID_1_"  style="overflow:visible;"/>
	</clipPath>
	<g class="st9">
		<line class="st2" x1="437.8" y1="211.3" x2="437.8" y2="221.9"/>
		<line class="st2" x1="398.4" y1="213.7" x2="405.9" y2="222.8"/>
		<line class="st2" x1="395.5" y1="313.4" x2="404.6" y2="313.4"/>
		<line class="st2" x1="451.3" y1="265.3" x2="451.3" y2="273.3"/>
		<line class="st2" x1="492.7" y1="274.1" x2="501.6" y2="267.5"/>
	</g>
</g>
<rect x="393.9" y="261.7" class="st0" width="12.6" height="16.4"/>
<rect x="392.4" y="263.6" class="st0" width="1" height="12.6"/>
<path class="st3" d="M416.2,269.2c-0.1,1.4-0.3,2.7-0.6,4.1h0.5c0.3-1.3,0.6-2.7,0.6-4.1c0-1.4-0.3-2.7-0.8-4h-0.5
	C415.9,266.5,416.2,267.9,416.2,269.2z"/>
<path class="st3" d="M395.4,255.7c3-0.8,6.2-0.9,9.2-0.1v-0.4c-3-0.8-6.2-0.8-9.2,0.1V255.7z"/>
<path class="st3" d="M404.6,284.6v-0.4c-3,0.8-6.2,0.8-9.2-0.1v0.4C398.5,285.3,401.6,285.4,404.6,284.6z"/>
<path class="st3" d="M710.5,0h-82.8c8,11.2,19.3,315.1-185.2,492.1h453.2C691.3,315.1,702.5,11.2,710.5,0z"/>
<path class="st10" d="M762.5,305.6c-18.8,0.2-37.6,2.1-56.1,5.8c-85.8,17-148.4,65.9-139.9,109.3l2.9-0.6
	c7.4-38.3,62.3-78.8,135.3-96.6c20.3-5,41.1-7.9,62-8.5"/>
<path class="st10" d="M766.7,315c-20.9,0.7-41.7,3.5-62,8.5c-73,17.8-127.8,58.4-135.3,96.6"/>
<path class="st0" d="M987.3,420.7L899,421v-19.8l-89-13.8V351h-27v-4h-43.6l-0.3-21.8c0.4-0.1,0.6-0.6,0.5-1c-0.1-0.4-0.6-0.6-1-0.5
	s-0.6,0.6-0.5,1c0.1,0.2,0.3,0.4,0.5,0.5l-0.3,21.8h-5l-0.2-16.1c0.4-0.1,0.6-0.5,0.4-0.9c-0.1-0.4-0.5-0.6-0.9-0.4
	s-0.6,0.5-0.4,0.9c0.1,0.2,0.2,0.4,0.4,0.4l-0.2,16.1H728v4h-8v13l-58,10.3V274h-42v-3h-44v-2h2v-10h-17v10h1v2h-7v7h2v23h-91v32h-6
	v-3h-5v-6h-22v6h-8v-44h-16v44h-19v3H0v159.1h987.3V420.7z M575,271h-12v-2h12V271z"/>
<path class="st10" d="M630.5,67.6C646,56,667.3,46.1,691.7,40.1c5.2-1.3,10.3-2.3,15.4-3.1"/>
<path class="st0" d="M747,344.9c0-1.5,1.1-2.7,2.6-2.9h4.4v1h18v-1h2.2c1.5,0.2,2.7,1.4,2.8,3v2h1v-2c0.2-2-1.3-3.8-3.3-4
	c-0.2,0-0.3,0-0.5,0H772v-1h-18v1h-4.4c-2.3,0-4.6,1.6-4.6,3.9v2.1h2V344.9z"/>
<path class="st10" d="M707.2,30c-4.7,0.6-9.5,1.3-14.4,2.3c-24.4,4.8-45.9,13.6-61.9,24.4"/>
<path class="st11" d="M619.9,158c17.9-13.2,42.2-24.5,70.1-31.3c7.5-1.8,15.1-3.3,22.8-4.4"/>
<path class="st11" d="M711.8,114.6c-6.7,0.7-13.6,1.7-20.5,3.1c-27,5.3-50.9,14.9-69,26.6"/>
<path class="st10" d="M731,214.4c-13.4,1.5-26.6,3.8-39.7,7c-41.2,10.1-76.6,27.3-101,47.4"/>
<path class="st10" d="M728.4,204.4c-11.9,1-23.7,2.6-35.4,4.9c-37.5,7.4-70.5,20.9-95.2,37.4"/>
<path class="st10" d="M590.3,268.8c24.4-20,59.8-37.3,101-47.4c13.1-3.2,26.3-5.5,39.7-7"/>
<polygon class="st1" points="562.5,308.7 562.5,321.3 564.3,321.3 564.3,321.7 565.9,321.7 565.9,321.3 579.3,321.3 579.3,321.7 
	581,321.7 581,321.3 582.2,321.3 582.2,308.7 "/>
<rect x="564.1" y="310.2" class="st0" width="14.6" height="9.6"/>
<path class="st12" d="M582.2,312.9h8c0,0,3.1,0.1,3.1-4.6V302"/>
<path id="_Clipping_Path_4" class="st1" d="M893.9,283.7v14.8h11.9c2.7,0,4.9,2.2,4.9,4.8c0,0,0,0,0,0v150.8c0,3.4-2.8,6.2-6.2,6.2
	h-28.1v13h35.3c6.8,0,12.3-5.5,12.3-12.3V296c0-6.8-5.5-12.3-12.3-12.3H893.9z"/>
<g>
	<defs>
		<path id="SVGID_3_" d="M893.9,283.7v14.8h11.9c2.7,0,4.9,2.2,4.9,4.8c0,0,0,0,0,0v150.8c0,3.4-2.8,6.2-6.2,6.2h-28.1v13h35.3
			c6.8,0,12.3-5.5,12.3-12.3V296c0-6.8-5.5-12.3-12.3-12.3H893.9z"/>
	</defs>
	<clipPath id="SVGID_4_">
		<use xlink:href="#SVGID_3_"  style="overflow:visible;"/>
	</clipPath>
	<g class="st13">
		<line class="st5" x1="908.1" y1="299.1" x2="919.9" y2="287.2"/>
		<line class="st5" x1="909.4" y1="457.9" x2="920.7" y2="469.2"/>
		<line class="st5" x1="910.6" y1="414.6" x2="924" y2="414.6"/>
		<line class="st5" x1="910.6" y1="349.5" x2="924" y2="349.5"/>
	</g>
</g>
<polygon class="st1" points="897.3,282.3 897.3,280.5 896.3,280.5 896.3,279.6 894.3,279.6 894.3,303.1 896.3,303.1 896.3,302.2 
	897.3,302.2 897.3,300.4 896.3,300.4 896.3,282.3 "/>
<polygon class="st1" points="879.2,456.9 879.2,455.1 878.2,455.1 878.2,454.2 876.2,454.2 876.2,477.7 878.2,477.7 878.2,476.8 
	879.2,476.8 879.2,475.1 878.2,475.1 878.2,456.9 "/>
<rect x="407.1" y="281.8" class="st0" width="19.5" height="3.5"/>
<rect x="619.7" y="292.6" class="st14" width="11.5" height="9.5"/>
<rect x="619.7" y="281.8" class="st14" width="11.5" height="9.5"/>
<rect x="632.5" y="292.6" class="st14" width="11.5" height="9.5"/>
<rect x="632.5" y="281.8" class="st14" width="11.5" height="9.5"/>
<rect x="645.3" y="292.6" class="st14" width="11.5" height="9.5"/>
<rect x="645.3" y="281.8" class="st14" width="11.5" height="9.5"/>
<rect x="728.3" y="370.4" class="st14" width="23.3" height="9.5"/>
<rect x="728.3" y="359.7" class="st14" width="23.3" height="9.5"/>
<rect x="754.3" y="370.4" class="st14" width="23.3" height="9.5"/>
<rect x="754.3" y="359.7" class="st14" width="23.3" height="9.5"/>
<rect x="780.2" y="370.4" class="st14" width="23.3" height="9.5"/>
<rect x="780.2" y="359.7" class="st14" width="23.3" height="9.5"/>
<rect x="633" y="408.8" class="st14" width="23.3" height="2.8"/>
<rect x="633" y="405.6" class="st14" width="23.3" height="2.8"/>
<rect x="658.9" y="408.8" class="st14" width="23.3" height="2.8"/>
<rect x="658.9" y="405.6" class="st14" width="23.3" height="2.8"/>
<rect x="684.9" y="408.8" class="st14" width="23.3" height="2.8"/>
<rect x="684.9" y="405.6" class="st14" width="23.3" height="2.8"/>
<rect x="633" y="402" class="st14" width="23.3" height="2.8"/>
<rect x="633" y="398.8" class="st14" width="23.3" height="2.8"/>
<rect x="658.9" y="402" class="st14" width="23.3" height="2.8"/>
<rect x="658.9" y="398.8" class="st14" width="23.3" height="2.8"/>
<rect x="684.9" y="402" class="st14" width="23.3" height="2.8"/>
<rect x="684.9" y="398.8" class="st14" width="23.3" height="2.8"/>
<rect x="619.7" y="348.3" class="st14" width="11.5" height="9.5"/>
<rect x="619.7" y="337.6" class="st14" width="11.5" height="9.5"/>
<rect x="632.5" y="348.3" class="st14" width="11.5" height="9.5"/>
<rect x="632.5" y="337.6" class="st14" width="11.5" height="9.5"/>
<rect x="645.3" y="348.3" class="st14" width="11.5" height="9.5"/>
<rect x="645.3" y="337.6" class="st14" width="11.5" height="9.5"/>
<rect x="562.4" y="292.6" class="st14" width="11.5" height="9.5"/>
<rect x="562.4" y="281.8" class="st14" width="11.5" height="9.5"/>
<rect x="575.3" y="292.6" class="st14" width="11.5" height="9.5"/>
<rect x="575.3" y="281.8" class="st14" width="11.5" height="9.5"/>
<rect x="588.1" y="292.6" class="st14" width="11.5" height="9.5"/>
<rect x="588.1" y="281.8" class="st14" width="11.5" height="9.5"/>
<rect x="562.4" y="348.3" class="st14" width="11.5" height="9.5"/>
<rect x="562.5" y="337.6" class="st14" width="11.5" height="9.5"/>
<rect x="575.3" y="348.3" class="st14" width="11.5" height="9.5"/>
<rect x="575.3" y="337.6" class="st14" width="11.5" height="9.5"/>
<rect x="588.1" y="348.3" class="st14" width="11.5" height="9.5"/>
<rect x="588.1" y="337.6" class="st14" width="11.5" height="9.5"/>
<rect x="627.3" y="254.7" class="st14" width="2.4" height="0.5"/>
<rect x="642.5" y="240.6" class="st14" width="2.4" height="0.8"/>
<path class="st14" d="M646.6,274.7l-2.3-33.1h-1.4l-2,28.6h-10l-1.8-14.8h-1.4l-2.3,19.4h6l-0.4-3.5h9.8l-0.2,3.5L646.6,274.7
	L646.6,274.7z M631,271.1v-0.2h9.9v0.2H631z"/>
<polygon class="st1" points="620.5,364.4 620.5,376.9 622.3,376.9 622.3,377.4 623.9,377.4 623.9,376.9 637.4,376.9 637.4,377.4 
	639,377.4 639,376.9 640.3,376.9 640.3,364.4 "/>
<rect x="622.1" y="365.9" class="st0" width="14.6" height="9.6"/>
<path class="st12" d="M640.3,368.6h8c0,0,3.1,0.1,3.1-4.6v-6.2"/>
<line class="st15" x1="564.9" y1="310.9" x2="577.9" y2="310.9"/>
<line class="st15" x1="564.9" y1="311.8" x2="577.9" y2="311.8"/>
<line class="st15" x1="564.9" y1="312.8" x2="577.9" y2="312.8"/>
<line class="st15" x1="564.9" y1="313.7" x2="577.9" y2="313.7"/>
<line class="st15" x1="564.9" y1="314.6" x2="577.9" y2="314.6"/>
<line class="st15" x1="564.9" y1="315.5" x2="577.9" y2="315.5"/>
<line class="st15" x1="564.9" y1="316.4" x2="577.9" y2="316.4"/>
<line class="st15" x1="564.9" y1="317.3" x2="577.9" y2="317.3"/>
<line class="st15" x1="564.9" y1="318.3" x2="577.9" y2="318.3"/>
<line class="st15" x1="564.9" y1="319.2" x2="577.9" y2="319.2"/>
<line class="st15" x1="623.1" y1="366.5" x2="636.2" y2="366.5"/>
<line class="st15" x1="623.1" y1="367.4" x2="636.2" y2="367.4"/>
<line class="st15" x1="623.1" y1="368.3" x2="636.2" y2="368.3"/>
<line class="st15" x1="623.1" y1="369.3" x2="636.2" y2="369.3"/>
<line class="st15" x1="623.1" y1="370.2" x2="636.2" y2="370.2"/>
<line class="st15" x1="623.1" y1="371.1" x2="636.2" y2="371.1"/>
<line class="st15" x1="623.1" y1="372" x2="636.2" y2="372"/>
<line class="st15" x1="623.1" y1="372.9" x2="636.2" y2="372.9"/>
<line class="st15" x1="623.1" y1="373.9" x2="636.2" y2="373.9"/>
<line class="st15" x1="623.1" y1="374.8" x2="636.2" y2="374.8"/>
<path class="st0" d="M440.9,305.6c0-0.4-0.3-0.7-0.7-0.7c-0.4,0-0.7,0.3-0.7,0.7c0,0.3,0.2,0.6,0.5,0.7l-0.4,26.2h1.1l-0.4-26.2
	C440.7,306.2,440.9,305.9,440.9,305.6z"/>
<rect x="725" y="357.8" class="st16" width="80.3" height="24.2"/>
<polygon class="st0" points="797.4,328.3 801.4,331 805.3,333.6 797.4,333.6 789.4,333.6 793.4,331 "/>
<polygon class="st0" points="792.8,334.1 792.8,349 793.8,349 793.8,352.7 794.2,352.7 794.2,349 797.2,349 797.2,352.9 
	797.6,352.9 797.6,349 800.6,349 800.6,352.8 801.1,352.8 801.1,349 802,349 802,334.1 "/>
<rect x="631.2" y="396.8" class="st16" width="80" height="16.4"/>
<rect x="723.1" y="357.2" class="st16" width="84.2" height="25.4"/>
<polyline class="st16" points="788.5,382 788.5,401.9 711.1,401.9 "/>
<polyline class="st16" points="791.9,382 791.9,405.6 711,405.6 "/>
<rect x="755.3" y="399.9" class="st14" width="6.6" height="2.1"/>
<rect x="767.7" y="403.8" class="st14" width="6.6" height="2.1"/>
<line class="st16" x1="631.2" y1="401.6" x2="623.1" y2="401.6"/>
<line class="st16" x1="631.2" y1="407" x2="620.5" y2="407"/>
<line class="st16" x1="617.6" y1="433.2" x2="910.6" y2="433.2"/>
<line class="st17" x1="617.6" y1="428.3" x2="910.6" y2="428.3"/>
<line class="st16" x1="924" y1="433.2" x2="952.9" y2="433.2"/>
<line class="st17" x1="924" y1="428.3" x2="955" y2="428.3"/>
<rect x="882.9" y="406.1" class="st14" width="7.4" height="9.5"/>
<rect x="883.7" y="406.7" class="st0" width="5.9" height="3.6"/>
<line class="st16" x1="783" y1="405.6" x2="783" y2="428.3"/>
<line class="st16" x1="783" y1="408.8" x2="882.9" y2="408.8"/>
<line class="st16" x1="890.3" y1="412.3" x2="899.3" y2="412.3"/>
<polyline class="st16" points="878.9,433.2 878.9,414.6 882.9,414.6 "/>
<line class="st18" x1="882.9" y1="411" x2="783" y2="411"/>
<polyline class="st16" points="610.2,385.8 649.9,386.1 649.9,396.8 "/>
<polyline class="st18" points="596.7,302 596.7,316.5 606.9,316.5 606.9,383.6 "/>
<polyline class="st18" points="626,302 626,319.2 611,319.2 611,382 "/>
<polyline class="st18" points="596.7,357.7 596.7,365.9 603.9,365.9 603.9,380.7 "/>
<polyline class="st18" points="623.1,357.7 623.1,362.2 608.9,362.2 608.9,380.4 "/>
<line class="st12" x1="562.9" y1="304" x2="599.6" y2="304"/>
<line class="st12" x1="619.9" y1="304" x2="656.6" y2="304"/>
<line class="st12" x1="619.9" y1="359.8" x2="656.6" y2="359.8"/>
<line class="st12" x1="562.7" y1="359.8" x2="599.3" y2="359.8"/>
<rect x="598.2" y="365" class="st14" width="3" height="1.7"/>
<rect x="619" y="318.3" class="st14" width="3" height="1.7"/>
<rect x="599.7" y="315.8" class="st14" width="4.2" height="1.7"/>
<rect x="605" y="339.3" class="st14" width="7.8" height="1.7"/>
<rect x="891.1" y="426.4" class="st14" width="10.1" height="1.6"/>
<path class="st19" d="M627.6,463.9"/>
<line class="st11" x1="846.9" y1="453.2" x2="867.8" y2="453.2"/>
<line class="st11" x1="715.6" y1="442.9" x2="728.5" y2="442.9"/>
<line class="st11" x1="715.6" y1="446.6" x2="728.5" y2="446.6"/>
<line class="st11" x1="846.9" y1="459.4" x2="867.8" y2="459.4"/>
<line class="st11" x1="846.9" y1="465.7" x2="867.8" y2="465.7"/>
<line class="st11" x1="846.9" y1="471.9" x2="867.8" y2="471.9"/>
<circle class="st1" cx="797.9" cy="418" r="3"/>
<circle class="st1" cx="862.7" cy="419.1" r="3"/>
<line class="st11" x1="597.3" y1="476.7" x2="617.2" y2="476.7"/>
<line class="st11" x1="597.3" y1="480.7" x2="617.2" y2="480.7"/>
<line class="st11" x1="597.3" y1="492.1" x2="617.2" y2="492.1"/>
<line class="st11" x1="569.8" y1="476.7" x2="589.7" y2="476.7"/>
<line class="st11" x1="569.8" y1="480.7" x2="589.7" y2="480.7"/>
<line class="st11" x1="569.8" y1="492.1" x2="589.7" y2="492.1"/>
<rect x="682.4" y="429.3" class="st20" width="1.9" height="1.9"/>
<rect x="685.8" y="429.3" class="st20" width="1.9" height="1.9"/>
<rect x="689.1" y="429.3" class="st20" width="1.9" height="1.9"/>
<circle class="st21" cx="684" cy="442.1" r="1.7"/>
<circle class="st21" cx="689.1" cy="442.1" r="1.7"/>
<circle class="st21" cx="694.2" cy="442.1" r="1.7"/>
<line class="st22" x1="684" y1="443.8" x2="684" y2="442.9"/>
<line class="st22" x1="689.1" y1="441.2" x2="689.1" y2="440.3"/>
<line class="st22" x1="694.2" y1="441.2" x2="694.2" y2="440.3"/>
<circle class="st21" cx="684" cy="447.5" r="1.7"/>
<circle class="st21" cx="689.1" cy="447.5" r="1.7"/>
<circle class="st21" cx="694.2" cy="447.5" r="1.7"/>
<line class="st22" x1="684" y1="449.2" x2="684" y2="448.3"/>
<line class="st22" x1="689.1" y1="446.6" x2="689.1" y2="445.7"/>
<line class="st22" x1="694.2" y1="446.6" x2="694.2" y2="445.7"/>
<polygon class="st0" points="682.8,492.1 685.2,492.1 685.2,492.1 682.8,492.1 "/>
<polygon class="st0" points="725.3,492.1 727.7,492.1 727.7,492.1 725.3,492.1 "/>
<rect x="682.8" y="455.2" class="st0" width="2.4" height="2.4"/>
<rect x="725.3" y="455.2" class="st0" width="2.4" height="2.4"/>
<polyline class="st3" points="651.9,427.5 652.2,432.9 651.5,432.9 "/>
<polygon class="st3" points="987.3,420.8 987.3,334.4 959.4,335 959.4,335 959.4,276.7 865.7,276.7 865.7,421.2 933.9,421.2 
	933.9,421.3 "/>
</svg>
