<?xml version="1.0" encoding="utf-8"?>
<!-- Generator: Adobe Illustrator 19.2.0, SVG Export Plug-In . SVG Version: 6.00 Build 0)  -->
<svg version="1.1" id="Layer_1" xmlns="http://www.w3.org/2000/svg" xmlns:xlink="http://www.w3.org/1999/xlink" x="0px" y="0px"
	 viewBox="0 0 53.8 42.4" style="enable-background:new 0 0 53.8 42.4;" xml:space="preserve">
<style type="text/css">
	.st0{fill:#FFFFFF;}
</style>
<g sketch:type="MSPage">
	<path sketch:type="MSShapeGroup" class="st0" d="M46.1,8.1c1,0,1.9-0.8,1.9-1.9s-0.8-1.9-1.9-1.9H7.4c-1,0-1.9,0.8-1.9,1.9
		s0.8,1.9,1.9,1.9H46.1z M46.1,21.5c1,0,1.9-0.8,1.9-1.9s-0.8-1.9-1.9-1.9H7.4c-1,0-1.9,0.8-1.9,1.9s0.8,1.9,1.9,1.9H46.1z M46.1,35
		c1,0,1.9-0.8,1.9-1.9c0-1-0.8-1.9-1.9-1.9H7.4c-1,0-1.9,0.8-1.9,1.9c0,1,0.8,1.9,1.9,1.9H46.1z"/>
</g>
</svg>
