<svg id="Layer_4" data-name="Layer 4" xmlns="http://www.w3.org/2000/svg" viewBox="0 0 364.9 186.47">
  <defs>
    <style>
      .cls-1 {
        fill: #7e818c;
      }

      .cls-2, .cls-3, .cls-6, .cls-7, .cls-8, .cls-9 {
        fill: none;
        stroke-miterlimit: 10;
      }

      .cls-2, .cls-3 {
        stroke: #44495e;
      }

      .cls-2, .cls-9 {
        stroke-width: 3px;
      }

      .cls-4 {
        fill: #8d8f99;
      }

      .cls-5 {
        fill: #484a51;
      }

      .cls-6 {
        stroke: #7e818c;
      }

      .cls-6, .cls-7 {
        stroke-width: 2px;
      }

      .cls-7, .cls-9 {
        stroke: #484a51;
      }

      .cls-8 {
        stroke: #8d8f99;
      }
    </style>
  </defs>
  <title>_oil</title>
  <g id="oil">
    <rect class="cls-1" x="155.86" y="12.8" width="48.26" height="11.33"/>
    <rect class="cls-1" x="152.57" y="8.04" width="54.84" height="4.75" rx="2.17" ry="2.17"/>
    <line class="cls-2" x1="162.86" x2="162.86" y2="8.04"/>
    <line class="cls-2" x1="197.11" x2="197.11" y2="8.04"/>
    <line class="cls-2" x1="179.99" y1="2.38" x2="179.99" y2="8.04"/>
    <line class="cls-3" x1="169.93" y1="2.38" x2="190.04" y2="2.38"/>
    <rect class="cls-1" x="8.2" y="24.13" width="340.25" height="118.79" rx="20" ry="20"/>
    <rect class="cls-4" y="144.97" width="356.65" height="14.61"/>
    <polygon class="cls-5" points="310.54 155 305.13 132 276.55 132 271.14 149 257.85 149 227.47 132 129.18 132 98.8 149 84 149 78.58 132 50.01 132 44.6 155 8.65 155 8.65 165 348.65 165 348.65 155 310.54 155"/>
    <g>
      <circle class="cls-1" cx="46.89" cy="169.23" r="17.24"/>
      <circle class="cls-5" cx="46.89" cy="169.23" r="10.36"/>
      <g>
        <line class="cls-6" x1="42.67" y1="169.23" x2="51.11" y2="169.23"/>
        <line class="cls-6" x1="46.89" y1="165.01" x2="46.89" y2="173.45"/>
      </g>
    </g>
    <g>
      <circle class="cls-1" cx="133.96" cy="169.23" r="17.24"/>
      <circle class="cls-5" cx="133.96" cy="169.23" r="10.36"/>
      <g>
        <line class="cls-6" x1="129.74" y1="169.23" x2="138.17" y2="169.23"/>
        <line class="cls-6" x1="133.96" y1="165.01" x2="133.96" y2="173.45"/>
      </g>
    </g>
    <g>
      <circle class="cls-1" cx="221.02" cy="169.23" r="17.24"/>
      <circle class="cls-5" cx="221.02" cy="169.23" r="10.36"/>
      <g>
        <line class="cls-6" x1="216.8" y1="169.23" x2="225.24" y2="169.23"/>
        <line class="cls-6" x1="221.02" y1="165.01" x2="221.02" y2="173.45"/>
      </g>
    </g>
    <g>
      <circle class="cls-1" cx="308.08" cy="169.23" r="17.24"/>
      <circle class="cls-5" cx="308.08" cy="169.23" r="10.36"/>
      <g>
        <line class="cls-6" x1="303.87" y1="169.23" x2="312.3" y2="169.23"/>
        <line class="cls-6" x1="308.08" y1="165.01" x2="308.08" y2="173.45"/>
      </g>
    </g>
    <line class="cls-7" x1="154.45" y1="139.2" x2="188.71" y2="139.2"/>
    <g>
      <line class="cls-7" x1="162.86" y1="154.23" x2="162.86" y2="8.04"/>
      <line class="cls-7" x1="197.11" y1="8.04" x2="197.11" y2="154.23"/>
      <line class="cls-7" x1="162.86" y1="23.87" x2="197.11" y2="23.87"/>
      <line class="cls-7" x1="162.86" y1="47.03" x2="197.11" y2="47.03"/>
      <line class="cls-7" x1="162.86" y1="70.2" x2="197.11" y2="70.2"/>
      <line class="cls-7" x1="162.86" y1="93.36" x2="197.11" y2="93.36"/>
      <line class="cls-7" x1="162.86" y1="116.52" x2="197.11" y2="116.52"/>
    </g>
    <rect class="cls-4" x="59.26" y="24.13" width="9.75" height="108.23"/>
    <rect class="cls-4" x="285.97" y="24.13" width="9.75" height="108.23"/>
    <line class="cls-8" x1="356.65" y1="152.27" x2="364.9" y2="152.27"/>
    <line class="cls-8" x1="82.15" y1="48.2" x2="82.15" y2="56.35"/>
    <path class="cls-5" d="M2517.38,593.87c-2.06,3.39-6.68,10.38-6.68,14.08a6.68,6.68,0,0,0,13.36,0C2524.06,604.25,2519.54,597.26,2517.38,593.87Z" transform="translate(-2407.35 -520)"/>
    <circle class="cls-9" cx="110.03" cy="84.25" r="19.7"/>
  </g>
</svg>
