<svg id="Layer_2" data-name="Layer 2" xmlns="http://www.w3.org/2000/svg" xmlns:xlink="http://www.w3.org/1999/xlink" viewBox="0 0 365.67 744.54">
  <defs>
    <style>
      .cls-1, .cls-24, .cls-32 {
        fill: #566074;
      }

      .cls-10, .cls-2, .cls-8 {
        fill: #495469;
      }

      .cls-3 {
        fill: #44495e;
      }

      .cls-23, .cls-27, .cls-31, .cls-34, .cls-4 {
        fill: #29364f;
      }

      .cls-12, .cls-13, .cls-14, .cls-17, .cls-18, .cls-19, .cls-20, .cls-21, .cls-25, .cls-26, .cls-33, .cls-35, .cls-36, .cls-5, .cls-7, .cls-9 {
        fill: none;
      }

      .cls-10, .cls-27, .cls-28, .cls-29, .cls-5, .cls-7, .cls-8 {
        stroke: #29364f;
      }

      .cls-10, .cls-12, .cls-13, .cls-14, .cls-17, .cls-18, .cls-19, .cls-20, .cls-21, .cls-24, .cls-25, .cls-26, .cls-27, .cls-28, .cls-29, .cls-31, .cls-32, .cls-33, .cls-34, .cls-36, .cls-5, .cls-7, .cls-8, .cls-9 {
        stroke-miterlimit: 10;
      }

      .cls-10, .cls-17, .cls-20, .cls-25, .cls-29, .cls-31, .cls-34, .cls-5, .cls-9 {
        stroke-width: 0.25px;
      }

      .cls-28, .cls-29, .cls-6 {
        fill: #969ca9;
      }

      .cls-12, .cls-13, .cls-18, .cls-24, .cls-7, .cls-8 {
        stroke-width: 0.5px;
      }

      .cls-33, .cls-36, .cls-9 {
        stroke: #44495e;
      }

      .cls-11 {
        clip-path: url(#clip-path);
      }

      .cls-12, .cls-14, .cls-17, .cls-31, .cls-32 {
        stroke: #495469;
      }

      .cls-13, .cls-34 {
        stroke: #566074;
      }

      .cls-15 {
        clip-path: url(#clip-path-2);
      }

      .cls-16 {
        fill: #455066;
      }

      .cls-18, .cls-19, .cls-20 {
        stroke: #455066;
      }

      .cls-21, .cls-24, .cls-26 {
        stroke: #969ca9;
      }

      .cls-21 {
        stroke-width: 0.75px;
      }

      .cls-22 {
        clip-path: url(#clip-path-3);
      }

      .cls-23 {
        opacity: 0.47;
      }

      .cls-25 {
        stroke: #82ab59;
      }

      .cls-30 {
        fill: #6b5738;
      }

      .cls-32, .cls-33 {
        stroke-width: 0.1px;
      }

      .cls-36 {
        stroke-width: 6px;
      }
    </style>
    <clipPath id="clip-path" transform="translate(-1110.44)">
      <path id="_Clipping_Path_" data-name="&lt;Clipping Path&gt;" class="cls-1" d="M1187.41,552.37h-53.15V529.29a2.08,2.08,0,0,1,2.08-2.08h30v1.71h-0.58v0.63h0.58v0.39h1.41V518.56h-1.41v0.38h-0.58v0.63h0.58V521h-32.06a5.33,5.33,0,0,0-5.33,5.33v63.4h5.33V557h49.92a1.88,1.88,0,0,1,1.88,1.88V573.7h5.86V556.89A4.52,4.52,0,0,0,1187.41,552.37Z"/>
    </clipPath>
    <clipPath id="clip-path-2" transform="translate(-1110.44)">
      <path id="_Clipping_Path_2" data-name="&lt;Clipping Path&gt;" class="cls-2" d="M1418.28,563.08v8.57h6.93a2.82,2.82,0,0,1,2.82,2.82V662a3.58,3.58,0,0,1-3.58,3.58h-16.3v7.57h20.47a7.15,7.15,0,0,0,7.15-7.15V570.26a7.15,7.15,0,0,0-7.14-7.15Z"/>
    </clipPath>
    <clipPath id="clip-path-3" transform="translate(-1110.44)">
      <path id="_Clipping_Path_3" data-name="&lt;Clipping Path&gt;" class="cls-1" d="M1199.43,579.83a18,18,0,0,0-18,18V600H1131.1v46.41q3,5.77,6.43,11.3h79.87V597.8A18,18,0,0,0,1199.43,579.83Z"/>
    </clipPath>
  </defs>
  <title>optimised</title>
  <path id="bg" class="cls-3" d="M1369.1,302.54c0-30.76-2.44-46.33-20.67-46.33-17.67,0-30.9-.3-54.67,0-23.76-.3-37,0-54.67,0-18.22,0-20.67,15.57-20.67,46.33,2.16,98.63-107,159-107,259.67a182.33,182.33,0,1,0,364.67,0C1476.1,461.5,1366.94,401.16,1369.1,302.54Z" transform="translate(-1110.44)"/>
  <path class="cls-3" d="M1319.47,210a2.51,2.51,0,1,0,0-5h-60.11a2.51,2.51,0,1,0,0,5h60.11Z" transform="translate(-1110.44)"/>
  <path class="cls-3" d="M1329.43,220.48c2.14,0,3.88-1.11,3.88-2.48s-1.74-2.48-3.88-2.48h-80.49c-2.14,0-3.88,1.11-3.88,2.48s1.74,2.48,3.88,2.48h80.49Z" transform="translate(-1110.44)"/>
  <path class="cls-3" d="M1320.76,231.5a3,3,0,0,0,0-5.94h-61.34a3,3,0,0,0,0,5.94h61.34Z" transform="translate(-1110.44)"/>
  <g>
    <path id="ground" class="cls-4" d="M1156.62,683.37a182.3,182.3,0,0,0,272.3,0h-272.3Z" transform="translate(-1110.44)"/>
    <path class="cls-2" d="M1379.57,445.07l-16.57-1a1.23,1.23,0,0,1-1.23-1.23v-1.53h-5.13v-1.19h-5.24v1.19h-5.13v1.53a1.23,1.23,0,0,1-1.23,1.23h-16.56c-5.23,0-10.45,6.25-10.45,13.86V469.8h14.22v-8.21a5.31,5.31,0,0,1,5.31-5.3l32.93,1a5.32,5.32,0,0,1,5.3,5.3v7.21H1390V458.93C1390,451.32,1384.8,445.07,1379.57,445.07Z" transform="translate(-1110.44)"/>
    <rect class="cls-2" x="200.02" y="469.8" width="91.49" height="76.81"/>
    <rect class="cls-5" x="221.07" y="484.95" width="44.54" height="18.5"/>
    <g>
      <g>
        <rect class="cls-4" x="222.5" y="486.54" width="13.17" height="7.26"/>
        <rect class="cls-4" x="236.92" y="486.54" width="13.17" height="7.26"/>
        <rect class="cls-4" x="251" y="486.54" width="13.17" height="7.26"/>
      </g>
      <rect class="cls-6" x="222.5" y="494.61" width="13.17" height="7.26"/>
      <rect class="cls-6" x="236.92" y="494.61" width="13.17" height="7.26"/>
      <rect class="cls-6" x="251" y="494.61" width="13.17" height="7.26"/>
    </g>
    <rect class="cls-5" x="219.59" y="484.95" width="47.5" height="18.5"/>
    <line class="cls-7" x1="205.04" y1="484.95" x2="291.08" y2="484.95"/>
    <line class="cls-5" x1="204.58" y1="482.19" x2="291.08" y2="482.19"/>
    <line class="cls-5" x1="208.6" y1="503.45" x2="279.72" y2="503.45"/>
    <line class="cls-5" x1="209.39" y1="506.42" x2="277.28" y2="506.42"/>
    <path class="cls-5" d="M1374.61,506.42v20.83a3,3,0,0,1-3,3h-2a3.79,3.79,0,0,0-3.79,3.79V546.6" transform="translate(-1110.44)"/>
    <path class="cls-5" d="M1373.25,506.42v18.83c0,1.63-.06,3.86-2.27,3.79h-2a4.93,4.93,0,0,0-4.62,5V546.6" transform="translate(-1110.44)"/>
    <rect class="cls-4" x="252.9" y="540.92" width="2.52" height="1.01"/>
    <path class="cls-4" d="M1371.49,452.11a13.08,13.08,0,0,1-1.1,5.18h0.1c0.15,0,.3,0,0.45,0a13.73,13.73,0,0,0,1.05-5.23,14,14,0,0,0-1.94-7h-0.6A13.39,13.39,0,0,1,1371.49,452.11Z" transform="translate(-1110.44)"/>
    <path class="cls-4" d="M1336.55,451.11a13.38,13.38,0,0,1,2-7H1338a14,14,0,0,0-1.94,7,13.73,13.73,0,0,0,1.05,5.23c0.15,0,.3,0,0.45,0h0.09A13.08,13.08,0,0,1,1336.55,451.11Z" transform="translate(-1110.44)"/>
    <path class="cls-4" d="M1456.33,592.85V559h-54.39v83.92h39.58v0.06h14.77a181,181,0,0,0,16.24-50.09h-16.19Z" transform="translate(-1110.44)"/>
    <rect class="cls-2" x="221.13" y="548.73" width="86.95" height="83.27"/>
    <rect class="cls-8" x="218.71" y="546.6" width="89.38" height="4.77"/>
    <rect class="cls-4" x="275.33" y="561.49" width="9.88" height="12"/>
    <rect class="cls-4" x="267.33" y="614.7" width="35.17" height="6.29"/>
    <rect class="cls-4" x="267.42" y="621.62" width="35.17" height="5.25"/>
    <rect class="cls-4" x="286.57" y="561.49" width="9.88" height="12"/>
    <rect class="cls-4" x="275.33" y="574.87" width="9.88" height="12"/>
    <rect class="cls-4" x="286.57" y="574.87" width="9.88" height="12"/>
    <rect class="cls-4" x="275.33" y="588.24" width="9.88" height="12"/>
    <rect class="cls-4" x="286.57" y="588.24" width="9.88" height="12"/>
    <g>
      <rect class="cls-7" x="273.33" y="559.74" width="25.13" height="42.25"/>
      <line class="cls-7" x1="273.33" y1="564.49" x2="226.84" y2="564.49"/>
      <line class="cls-7" x1="273.33" y1="597.87" x2="241.84" y2="597.87"/>
      <line class="cls-7" x1="308.08" y1="559.74" x2="225.25" y2="559.74"/>
    </g>
    <path class="cls-4" d="M1426.53,441h-1v5h-14.14v-5h-1v5h-13.84v-5h-1v5.74l6,6.59v35.53l-16.75,21.52V546.6h19V510.37l16.75-21.52V453.37l6-6.64V441Zm-24.3,11.63-5.05-5.58h13.22v5.58h-8.16Zm9.16-5.58h13.51l-5.05,5.58h-8.46V447Z" transform="translate(-1110.44)"/>
    <g>
      <rect class="cls-9" x="291.08" y="456.24" width="19" height="0.25"/>
      <rect class="cls-9" x="291.08" y="453.66" width="19" height="0.25"/>
    </g>
    <g>
      <polygon class="cls-9" points="309.26 489.91 290.26 489.91 290.07 490.16 309.07 490.16 309.26 489.91"/>
      <rect class="cls-9" x="291.08" y="487.33" width="19" height="0.25"/>
    </g>
    <g>
      <polygon class="cls-9" points="275.34 509.08 294.34 509.08 294.53 508.83 275.53 508.83 275.34 509.08"/>
      <rect class="cls-9" x="274.33" y="511.41" width="19" height="0.25"/>
    </g>
    <polyline class="cls-9" points="308.21 456.37 308.21 487.58 290.21 511.66 290.21 546.6"/>
    <rect class="cls-7" x="265.92" y="613.29" width="38.17" height="15.42"/>
    <path class="cls-2" d="M1259.1,504.16L1248,515.45l0.09-11.3-11.06,11.3,0.07-11.3-11,10.38,0-10.38-11,10,0-10-11,11.3v-11.3l-12.35,11.3-5.44-43.25H1174.1l-6.36,43.33v25.38l-57.18,15.54c-0.08,1.9-.13,3.81-0.13,5.74a182.6,182.6,0,0,0,6,46.43H1259.1V504.16Z" transform="translate(-1110.44)"/>
    <circle class="cls-1" cx="100.21" cy="531.7" r="4.5"/>
    <circle class="cls-1" cx="122.49" cy="531.7" r="4.5"/>
    <circle class="cls-1" cx="77.93" cy="531.7" r="4.5"/>
    <path class="cls-7" d="M1167.77,531.7h14.76a5.83,5.83,0,0,1,11.67,0h10.62a5.83,5.83,0,1,1,11.67,0h10.62a5.83,5.83,0,0,1,11.67,0h10.66" transform="translate(-1110.44)"/>
    <rect class="cls-10" x="62.08" y="471.2" width="17.13" height="2" rx="1" ry="1"/>
    <line class="cls-7" x1="66.52" y1="473.2" x2="66.52" y2="531.7"/>
    <line class="cls-5" x1="57.33" y1="540.92" x2="136.53" y2="540.92"/>
    <line class="cls-7" x1="238.46" y1="608.63" x2="308.08" y2="608.63"/>
    <g>
      <path id="_Clipping_Path_4" data-name="&lt;Clipping Path&gt;" class="cls-1" d="M1187.41,552.37h-53.15V529.29a2.08,2.08,0,0,1,2.08-2.08h30v1.71h-0.58v0.63h0.58v0.39h1.41V518.56h-1.41v0.38h-0.58v0.63h0.58V521h-32.06a5.33,5.33,0,0,0-5.33,5.33v63.4h5.33V557h49.92a1.88,1.88,0,0,1,1.88,1.88V573.7h5.86V556.89A4.52,4.52,0,0,0,1187.41,552.37Z" transform="translate(-1110.44)"/>
      <g class="cls-11">
        <line class="cls-5" x1="43.08" y1="521.04" x2="43.08" y2="527.2"/>
        <line class="cls-5" x1="20.23" y1="522.45" x2="24.55" y2="527.73"/>
        <line class="cls-5" x1="18.5" y1="580.29" x2="23.83" y2="580.29"/>
        <line class="cls-5" x1="50.92" y1="552.37" x2="50.92" y2="557.04"/>
        <line class="cls-5" x1="74.97" y1="557.49" x2="80.14" y2="553.66"/>
      </g>
    </g>
    <rect class="cls-1" x="17.58" y="550.31" width="7.31" height="9.5"/>
    <rect class="cls-1" x="16.74" y="551.4" width="0.59" height="7.31"/>
    <g>
      <path class="cls-4" d="M1141,554.67a11.36,11.36,0,0,1-.37,2.37h0.26a11.72,11.72,0,0,0,.36-2.37,6,6,0,0,0-.46-2.3h-0.27A5.84,5.84,0,0,1,1141,554.67Z" transform="translate(-1110.44)"/>
      <path class="cls-4" d="M1128.94,546.84a10.06,10.06,0,0,1,5.33,0v-0.26a10.23,10.23,0,0,0-5.33,0v0.26Z" transform="translate(-1110.44)"/>
      <path class="cls-4" d="M1134.27,563.56v-0.26a10.06,10.06,0,0,1-5.33,0v0.26A10.23,10.23,0,0,0,1134.27,563.56Z" transform="translate(-1110.44)"/>
    </g>
    <path class="cls-4" d="M1311.84,398.37h-48.07c4.67,6.5,11.18,182.35-107.51,285.1h263.09C1300.66,580.72,1307.17,404.87,1311.84,398.37Z" transform="translate(-1110.44)"/>
    <path class="cls-12" d="M1265.37,437.6c9-6.72,21.37-12.46,35.54-15.92,3-.73,6-1.34,8.93-1.82" transform="translate(-1110.44)"/>
    <path class="cls-12" d="M1309.9,415.8c-2.75.34-5.53,0.78-8.35,1.34-14.16,2.81-26.65,7.92-35.93,14.16" transform="translate(-1110.44)"/>
    <path class="cls-13" d="M1259.21,490.11c10.36-7.68,24.5-14.22,40.7-18.18a134.71,134.71,0,0,1,13.23-2.54" transform="translate(-1110.44)"/>
    <path class="cls-13" d="M1312.58,464.91c-3.91.42-7.89,1-11.92,1.81-15.67,3.1-29.53,8.67-40.07,15.47" transform="translate(-1110.44)"/>
    <g>
      <path class="cls-12" d="M1323.71,522.85a178.78,178.78,0,0,0-23.06,4.07c-23.9,5.84-44.46,15.87-58.62,27.5" transform="translate(-1110.44)"/>
      <path class="cls-12" d="M1322.21,517.06a179.9,179.9,0,0,0-20.56,2.87c-21.76,4.31-40.95,12.15-55.26,21.71" transform="translate(-1110.44)"/>
      <path class="cls-12" d="M1242,554.43c14.16-11.63,34.72-21.67,58.62-27.5a178.78,178.78,0,0,1,23.06-4.07" transform="translate(-1110.44)"/>
    </g>
    <g>
      <path class="cls-12" d="M1342,575.8a174.08,174.08,0,0,0-32.57,3.39c-49.83,9.87-86.18,38.27-81.2,63.42l1.69-.33c4.33-22.22,36.16-45.76,78.51-56.1a172.12,172.12,0,0,1,36-5" transform="translate(-1110.44)"/>
      <path class="cls-12" d="M1344.44,581.23a172.12,172.12,0,0,0-36,5c-42.35,10.34-74.19,33.88-78.51,56.1" transform="translate(-1110.44)"/>
    </g>
    <g>
      <path class="cls-1" d="M1421.45,642.67V631.3l-52-8V602H1354v-2.21h-25.39l-0.17-12.67a0.47,0.47,0,1,0-.31,0L1328,599.83h-2.91l-0.12-9.31a0.4,0.4,0,1,0-.26,0l-0.12,9.31h-2.43V602h-4.7v7.67l-33.57,6v-58h-24.77v-2.26h-25.24v-1h0.83v-6h-9.9v6h0.82v1h-4.18V560h1.23v13.44h-53v18.3h-3.15v-1.93h-2.83v-3.23h-12.83v3.23h-4.67V564.33h-9.67v25.44h-10.58v1.93h-13.08a181.9,181.9,0,0,0,43.77,91.67h271.89a180.3,180.3,0,0,0,27.82-40.7h-34.9Zm-188.11-87.23h-7.18v-1h7.18v1Z" transform="translate(-1110.44)"/>
      <path class="cls-1" d="M1333.08,598.62a1.44,1.44,0,0,1,1.44-1.44h2.72v0.56h10v-0.56h1.53a1.47,1.47,0,0,1,1.47,1.47v1.17h1v-1.17a2.47,2.47,0,0,0-2.47-2.47h-1.53v-0.37h-10v0.38h-2.72a2.44,2.44,0,0,0-2.44,2.44v1.21h1v-1.21Z" transform="translate(-1110.44)"/>
    </g>
    <g>
      <polygon class="cls-2" points="115.45 577.56 115.45 584.87 116.51 584.87 116.51 585.15 117.46 585.15 117.46 584.87 125.25 584.87 125.25 585.15 126.2 585.15 126.2 584.87 126.93 584.87 126.93 577.56 115.45 577.56"/>
      <rect class="cls-1" x="116.4" y="578.43" width="8.5" height="5.56"/>
      <path class="cls-14" d="M1237.36,580H1242s1.8,0.06,1.8-2.69V573.7" transform="translate(-1110.44)"/>
    </g>
    <g>
      <path id="_Clipping_Path_5" data-name="&lt;Clipping Path&gt;" class="cls-2" d="M1418.28,563.08v8.57h6.93a2.82,2.82,0,0,1,2.82,2.82V662a3.58,3.58,0,0,1-3.58,3.58h-16.3v7.57h20.47a7.15,7.15,0,0,0,7.15-7.15V570.26a7.15,7.15,0,0,0-7.14-7.15Z" transform="translate(-1110.44)"/>
      <g class="cls-15">
        <g>
          <line class="cls-7" x1="316.1" y1="572" x2="322.98" y2="565.12"/>
          <line class="cls-7" x1="316.86" y1="664.18" x2="323.43" y2="670.76"/>
          <line class="cls-7" x1="317.58" y1="639.07" x2="325.33" y2="639.07"/>
          <line class="cls-7" x1="317.58" y1="601.24" x2="325.33" y2="601.24"/>
        </g>
      </g>
    </g>
    <polygon class="cls-2" points="309.81 562.23 309.81 561.23 309.26 561.23 309.26 560.66 308.08 560.66 308.08 574.33 309.26 574.33 309.26 573.79 309.81 573.79 309.81 572.79 309.26 572.79 309.26 562.23 309.81 562.23"/>
    <polygon class="cls-2" points="299.32 663.6 299.32 662.6 298.77 662.6 298.77 662.03 297.59 662.03 297.59 675.7 298.77 675.7 298.77 675.16 299.32 675.16 299.32 674.16 298.77 674.16 298.77 663.6 299.32 663.6"/>
    <rect class="cls-1" x="25.25" y="561.95" width="11.33" height="2.01"/>
    <g>
      <rect class="cls-16" x="1259.69" y="567.61" width="5.49" height="6.68" transform="translate(-418.95 1833.38) rotate(-90)"/>
      <rect class="cls-16" x="1259.69" y="561.36" width="5.49" height="6.68" transform="translate(-412.7 1827.13) rotate(-90)"/>
      <rect class="cls-16" x="1267.13" y="567.61" width="5.49" height="6.68" transform="translate(-411.51 1840.82) rotate(-90)"/>
      <rect class="cls-16" x="1267.13" y="561.36" width="5.49" height="6.68" transform="translate(-405.26 1834.57) rotate(-90)"/>
      <rect class="cls-16" x="1274.57" y="567.61" width="5.49" height="6.68" transform="translate(-404.07 1848.27) rotate(-90)"/>
      <rect class="cls-16" x="1274.57" y="561.36" width="5.49" height="6.68" transform="translate(-397.82 1842.02) rotate(-90)"/>
    </g>
    <g>
      <rect class="cls-16" x="1326.17" y="609.4" width="5.49" height="13.53" transform="translate(-397.67 1945.08) rotate(-90)"/>
      <rect class="cls-16" x="1326.17" y="603.15" width="5.49" height="13.53" transform="translate(-391.42 1938.83) rotate(-90)"/>
      <rect class="cls-16" x="1341.26" y="609.4" width="5.49" height="13.53" transform="translate(-382.59 1960.16) rotate(-90)"/>
      <rect class="cls-16" x="1341.26" y="603.15" width="5.49" height="13.53" transform="translate(-376.34 1953.91) rotate(-90)"/>
      <rect class="cls-16" x="1356.34" y="609.4" width="5.49" height="13.53" transform="translate(-367.51 1975.25) rotate(-90)"/>
      <rect class="cls-16" x="1356.34" y="603.15" width="5.49" height="13.53" transform="translate(-361.26 1969) rotate(-90)"/>
    </g>
    <g>
      <rect class="cls-16" x="1272.76" y="629.76" width="1.64" height="13.53" transform="translate(-473.38 1910.11) rotate(-90)"/>
      <rect class="cls-16" x="1272.76" y="627.89" width="1.64" height="13.53" transform="translate(-471.51 1908.24) rotate(-90)"/>
      <rect class="cls-16" x="1287.84" y="629.76" width="1.64" height="13.53" transform="translate(-458.3 1925.19) rotate(-90)"/>
      <rect class="cls-16" x="1287.84" y="627.89" width="1.64" height="13.53" transform="translate(-456.43 1923.32) rotate(-90)"/>
      <rect class="cls-16" x="1302.92" y="629.76" width="1.64" height="13.53" transform="translate(-443.22 1940.27) rotate(-90)"/>
      <rect class="cls-16" x="1302.92" y="627.89" width="1.64" height="13.53" transform="translate(-441.34 1938.4) rotate(-90)"/>
    </g>
    <g>
      <rect class="cls-16" x="1272.76" y="625.8" width="1.64" height="13.53" transform="translate(-469.42 1906.15) rotate(-90)"/>
      <rect class="cls-16" x="1272.76" y="623.93" width="1.64" height="13.53" transform="translate(-467.55 1904.28) rotate(-90)"/>
      <rect class="cls-16" x="1287.84" y="625.8" width="1.64" height="13.53" transform="translate(-454.34 1921.23) rotate(-90)"/>
      <rect class="cls-16" x="1287.84" y="623.93" width="1.64" height="13.53" transform="translate(-452.47 1919.36) rotate(-90)"/>
      <rect class="cls-16" x="1302.92" y="625.8" width="1.64" height="13.53" transform="translate(-439.26 1936.32) rotate(-90)"/>
      <rect class="cls-16" x="1302.92" y="623.93" width="1.64" height="13.53" transform="translate(-437.39 1934.45) rotate(-90)"/>
    </g>
    <g>
      <rect class="cls-16" x="1259.69" y="599.99" width="5.49" height="6.68" transform="translate(-451.33 1865.76) rotate(-90)"/>
      <rect class="cls-16" x="1259.69" y="593.74" width="5.49" height="6.68" transform="translate(-445.08 1859.51) rotate(-90)"/>
      <rect class="cls-16" x="1267.13" y="599.99" width="5.49" height="6.68" transform="translate(-443.89 1873.2) rotate(-90)"/>
      <rect class="cls-16" x="1267.13" y="593.74" width="5.49" height="6.68" transform="translate(-437.64 1866.95) rotate(-90)"/>
      <rect class="cls-16" x="1274.57" y="599.99" width="5.49" height="6.68" transform="translate(-436.45 1880.64) rotate(-90)"/>
      <rect class="cls-16" x="1274.57" y="593.74" width="5.49" height="6.68" transform="translate(-430.2 1874.39) rotate(-90)"/>
    </g>
    <g>
      <rect class="cls-16" x="1226.48" y="567.61" width="5.49" height="6.68" transform="translate(-452.16 1800.17) rotate(-90)"/>
      <rect class="cls-16" x="1226.48" y="561.36" width="5.49" height="6.68" transform="translate(-445.91 1793.92) rotate(-90)"/>
      <rect class="cls-16" x="1233.92" y="567.61" width="5.49" height="6.68" transform="translate(-444.72 1807.61) rotate(-90)"/>
      <rect class="cls-16" x="1233.92" y="561.36" width="5.49" height="6.68" transform="translate(-438.47 1801.36) rotate(-90)"/>
      <rect class="cls-16" x="1241.36" y="567.61" width="5.49" height="6.68" transform="translate(-437.28 1815.06) rotate(-90)"/>
      <rect class="cls-16" x="1241.36" y="561.36" width="5.49" height="6.68" transform="translate(-431.03 1808.81) rotate(-90)"/>
    </g>
    <g>
      <rect class="cls-16" x="1226.48" y="599.99" width="5.49" height="6.68" transform="translate(-484.54 1832.55) rotate(-90)"/>
      <rect class="cls-16" x="1226.48" y="593.74" width="5.49" height="6.68" transform="translate(-478.29 1826.3) rotate(-90)"/>
      <rect class="cls-16" x="1233.92" y="599.99" width="5.49" height="6.68" transform="translate(-477.1 1839.99) rotate(-90)"/>
      <rect class="cls-16" x="1233.92" y="593.74" width="5.49" height="6.68" transform="translate(-470.85 1833.74) rotate(-90)"/>
      <rect class="cls-16" x="1241.36" y="599.99" width="5.49" height="6.68" transform="translate(-469.66 1847.43) rotate(-90)"/>
      <rect class="cls-16" x="1241.36" y="593.74" width="5.49" height="6.68" transform="translate(-463.41 1841.18) rotate(-90)"/>
    </g>
    <rect class="cls-16" x="153.08" y="546.21" width="1.38" height="0.28"/>
    <rect class="cls-16" x="161.9" y="538.03" width="1.38" height="0.44"/>
    <path class="cls-16" d="M1274.77,557.87l-1.33-19.23h-0.84l-1.15,16.57h-5.83l-1-8.61h-0.84l-1.33,11.27h3.5l-0.24-2h5.71l-0.14,2h3.5Zm-9.08-2.11v-0.11h5.75v0.11h-5.73Z" transform="translate(-1110.44)"/>
    <g>
      <polygon class="cls-2" points="149.14 609.89 149.14 617.2 150.2 617.2 150.2 617.48 151.15 617.48 151.15 617.2 158.94 617.2 158.94 617.48 159.88 617.48 159.88 617.2 160.62 617.2 160.62 609.89 149.14 609.89"/>
      <rect class="cls-1" x="150.08" y="610.76" width="8.5" height="5.56"/>
      <path class="cls-14" d="M1271.05,612.33h4.67s1.8,0.06,1.8-2.69V606" transform="translate(-1110.44)"/>
    </g>
    <g>
      <line class="cls-17" x1="116.85" y1="578.87" x2="124.44" y2="578.87"/>
      <line class="cls-17" x1="116.85" y1="579.4" x2="124.44" y2="579.4"/>
      <line class="cls-17" x1="116.85" y1="579.94" x2="124.44" y2="579.94"/>
      <line class="cls-17" x1="116.85" y1="580.47" x2="124.44" y2="580.47"/>
      <line class="cls-17" x1="116.85" y1="581" x2="124.44" y2="581"/>
      <line class="cls-17" x1="116.85" y1="581.54" x2="124.44" y2="581.54"/>
      <line class="cls-17" x1="116.85" y1="582.07" x2="124.44" y2="582.07"/>
      <line class="cls-17" x1="116.85" y1="582.6" x2="124.44" y2="582.6"/>
      <line class="cls-17" x1="116.85" y1="583.14" x2="124.44" y2="583.14"/>
      <line class="cls-17" x1="116.85" y1="583.67" x2="124.44" y2="583.67"/>
    </g>
    <g>
      <line class="cls-17" x1="150.66" y1="611.14" x2="158.26" y2="611.14"/>
      <line class="cls-17" x1="150.66" y1="611.68" x2="158.26" y2="611.68"/>
      <line class="cls-17" x1="150.66" y1="612.21" x2="158.26" y2="612.21"/>
      <line class="cls-17" x1="150.66" y1="612.74" x2="158.26" y2="612.74"/>
      <line class="cls-17" x1="150.66" y1="613.28" x2="158.26" y2="613.28"/>
      <line class="cls-17" x1="150.66" y1="613.81" x2="158.26" y2="613.81"/>
      <line class="cls-17" x1="150.66" y1="614.34" x2="158.26" y2="614.34"/>
      <line class="cls-17" x1="150.66" y1="614.88" x2="158.26" y2="614.88"/>
      <line class="cls-17" x1="150.66" y1="615.41" x2="158.26" y2="615.41"/>
      <line class="cls-17" x1="150.66" y1="615.94" x2="158.26" y2="615.94"/>
    </g>
    <path class="cls-1" d="M1155.34,575.8a0.4,0.4,0,1,0-.53.37l-0.2,15.18h0.67l-0.2-15.18A0.4,0.4,0,0,0,1155.34,575.8Z" transform="translate(-1110.44)"/>
    <rect class="cls-18" x="209.83" y="606.08" width="46.62" height="14.04"/>
    <polygon class="cls-1" points="251.83 588.95 254.15 590.5 256.46 592.06 251.83 592.06 247.21 592.06 249.52 590.5 251.83 588.95"/>
    <polygon class="cls-1" points="249.18 592.31 249.18 601 249.75 601 249.75 603.12 250 603.12 250 601 251.71 601 251.71 603.22 251.96 603.22 251.96 601 253.73 601 253.73 603.17 253.98 603.17 253.98 601 254.49 601 254.49 592.31 249.18 592.31"/>
    <rect class="cls-18" x="155.34" y="628.7" width="46.42" height="9.54"/>
    <rect class="cls-18" x="208.7" y="605.74" width="48.88" height="14.72"/>
    <polyline class="cls-18" points="246.71 620.12 246.71 631.7 201.76 631.7"/>
    <polyline class="cls-18" points="248.65 620.12 248.65 633.83 201.7 633.83"/>
    <rect class="cls-16" x="227.4" y="630.55" width="3.84" height="1.2"/>
    <rect class="cls-16" x="234.61" y="632.79" width="3.84" height="1.2"/>
    <line class="cls-18" x1="155.34" y1="631.52" x2="150.66" y2="631.52"/>
    <line class="cls-18" x1="155.34" y1="634.66" x2="149.14" y2="634.66"/>
    <line class="cls-18" x1="147.47" y1="649.87" x2="317.58" y2="649.87"/>
    <line class="cls-19" x1="147.47" y1="646.99" x2="317.58" y2="646.99"/>
    <line class="cls-18" x1="325.33" y1="649.87" x2="342.14" y2="649.87"/>
    <line class="cls-19" x1="325.33" y1="646.99" x2="343.33" y2="646.99"/>
    <rect class="cls-16" x="301.5" y="634.15" width="4.27" height="5.53"/>
    <rect class="cls-1" x="301.93" y="634.46" width="3.43" height="2.1"/>
    <line class="cls-18" x1="243.46" y1="633.83" x2="243.46" y2="646.99"/>
    <line class="cls-18" x1="243.46" y1="635.7" x2="301.5" y2="635.7"/>
    <line class="cls-18" x1="305.77" y1="637.71" x2="311.01" y2="637.71"/>
    <polyline class="cls-18" points="299.17 649.87 299.17 639.08 301.5 639.08"/>
    <line class="cls-20" x1="301.5" y1="636.95" x2="243.46" y2="636.95"/>
    <polyline class="cls-18" points="143.17 622.37 166.22 622.49 166.22 628.7"/>
    <g>
      <polyline class="cls-20" points="135.33 573.7 135.33 582.11 141.27 582.11 141.27 621.04"/>
      <polyline class="cls-20" points="152.33 573.7 152.33 583.67 143.65 583.67 143.65 620.12"/>
      <polyline class="cls-20" points="135.33 606.03 135.33 610.76 139.5 610.76 139.5 619.37"/>
      <polyline class="cls-20" points="150.66 606.03 150.66 608.63 142.43 608.63 142.43 619.23"/>
    </g>
    <line class="cls-14" x1="115.72" y1="574.87" x2="137.01" y2="574.87"/>
    <line class="cls-14" x1="148.8" y1="574.87" x2="170.08" y2="574.87"/>
    <line class="cls-14" x1="148.8" y1="607.24" x2="170.08" y2="607.24"/>
    <line class="cls-14" x1="115.59" y1="607.24" x2="136.87" y2="607.24"/>
    <rect class="cls-16" x="136.18" y="610.27" width="1.76" height="0.99"/>
    <rect class="cls-16" x="148.26" y="583.18" width="1.76" height="0.99"/>
    <rect class="cls-16" x="137.06" y="581.7" width="2.44" height="0.99"/>
    <rect class="cls-16" x="140.18" y="595.36" width="4.51" height="0.99"/>
    <rect class="cls-16" x="306.23" y="645.93" width="5.88" height="0.94"/>
    <path class="cls-1" d="M1199.43,579.83a18,18,0,0,0-18,18V600H1131.1v46.41q3,5.77,6.43,11.3h79.87V597.8A18,18,0,0,0,1199.43,579.83Z" transform="translate(-1110.44)"/>
    <line class="cls-21" x1="152.33" y1="650.71" x2="183.33" y2="650.71"/>
    <path class="cls-21" d="M1262.77,665.24h3.33a2.42,2.42,0,0,1,2.42,2.42v8.2a2.42,2.42,0,0,0,2.42,2.42h0a2.42,2.42,0,0,0,2.42-2.42v-3.1a2.42,2.42,0,0,1,2.42-2.42h0a2.42,2.42,0,0,1,2.42,2.42v1a2.42,2.42,0,0,0,2.42,2.42h0a2.42,2.42,0,0,0,2.42-2.42V660.56a2.42,2.42,0,0,1,2.42-2.42h8.33" transform="translate(-1110.44)"/>
    <path class="cls-6" d="M1156.68,683.37h106.09V619.06H1219.6V597.61a20.17,20.17,0,1,0-40.33,0H1114v0A182.31,182.31,0,0,0,1156.68,683.37Z" transform="translate(-1110.44)"/>
    <g>
      <path id="_Clipping_Path_6" data-name="&lt;Clipping Path&gt;" class="cls-1" d="M1199.43,579.83a18,18,0,0,0-18,18V600H1131.1v46.41q3,5.77,6.43,11.3h79.87V597.8A18,18,0,0,0,1199.43,579.83Z" transform="translate(-1110.44)"/>
      <g class="cls-22">
        <polygon class="cls-23" points="14.33 575.63 14.33 664.44 123.47 577.4 14.33 575.63"/>
      </g>
    </g>
    <rect class="cls-6" x="184.33" y="646.95" width="28.13" height="36.59"/>
    <rect class="cls-6" x="183.33" y="646.13" width="30.13" height="16.06"/>
    <circle class="cls-24" cx="167.33" cy="649.71" r="4.63"/>
    <path class="cls-3" d="M1277.77,645.76a4,4,0,0,0-3.95,3.95h7.89A4,4,0,0,0,1277.77,645.76Z" transform="translate(-1110.44)"/>
    <path class="cls-25" d="M1263.69,667.66" transform="translate(-1110.44)"/>
    <polygon class="cls-6" points="293.49 655.46 290.54 642.39 289.01 642.39 286.06 655.46 255.83 655.46 252.88 642.39 251.35 642.39 248.4 655.46 243.46 655.46 243.46 683.37 297.71 683.37 297.71 655.46 293.49 655.46"/>
    <rect class="cls-3" x="247.65" y="658.27" width="29.38" height="19.88"/>
    <line class="cls-13" x1="280.58" y1="661.46" x2="292.71" y2="661.46"/>
    <line class="cls-13" x1="204.38" y1="655.5" x2="211.87" y2="655.5"/>
    <line class="cls-13" x1="204.38" y1="657.65" x2="211.87" y2="657.65"/>
    <line class="cls-13" x1="280.58" y1="665.08" x2="292.71" y2="665.08"/>
    <line class="cls-13" x1="280.58" y1="668.7" x2="292.71" y2="668.7"/>
    <line class="cls-13" x1="280.58" y1="672.32" x2="292.71" y2="672.32"/>
    <circle class="cls-2" cx="252.11" cy="641.03" r="1.73"/>
    <circle class="cls-2" cx="289.77" cy="641.66" r="1.73"/>
    <path class="cls-26" d="M1323.89,654.33h10.44a3.44,3.44,0,0,1,3.44,3.44v9.33a3.44,3.44,0,0,0,3.44,3.44h12.69" transform="translate(-1110.44)"/>
    <circle class="cls-27" cx="72.44" cy="634.25" r="18.46"/>
    <circle class="cls-28" cx="72.44" cy="634.25" r="14.77"/>
    <circle class="cls-27" cx="88.67" cy="600.04" r="12.83"/>
    <circle class="cls-6" cx="88.67" cy="600.04" r="10.27"/>
    <circle class="cls-27" cx="36" cy="610.71" r="8.5"/>
    <circle class="cls-28" cx="36" cy="610.71" r="6.8"/>
    <g>
      <line class="cls-7" x1="58.77" y1="646.65" x2="29.6" y2="616.29"/>
      <line class="cls-7" x1="40.32" y1="603.39" x2="78.3" y2="616.74"/>
      <line class="cls-7" x1="77.06" y1="594.57" x2="58.32" y2="622.36"/>
      <line class="cls-7" x1="101.31" y1="602.21" x2="90.13" y2="639.54"/>
    </g>
    <circle class="cls-7" cx="129.33" cy="646.78" r="19.41"/>
    <circle class="cls-8" cx="129.33" cy="646.78" r="15.25"/>
    <g>
      <circle class="cls-29" cx="129.33" cy="629.46" r="0.81"/>
      <circle class="cls-29" cx="112" cy="646.78" r="0.81"/>
      <circle class="cls-29" cx="129.33" cy="664.11" r="0.81"/>
      <circle class="cls-29" cx="146.66" cy="646.78" r="0.81"/>
    </g>
    <rect class="cls-30" x="59.91" y="664.92" width="42.92" height="13.03" rx="5.25" ry="5.25"/>
    <path class="cls-14" d="M1163.6,683.37v-8.43a3.51,3.51,0,0,1,3.51-3.51h49.4a3.51,3.51,0,0,1,3.51,3.51v8.43" transform="translate(-1110.44)"/>
    <rect class="cls-2" x="59.91" y="664.92" width="42.92" height="13.03" rx="5.25" ry="5.25"/>
    <rect class="cls-1" x="69.12" y="664.92" width="24.5" height="13.03"/>
    <rect class="cls-4" x="1238.92" y="645.91" width="1.82" height="1.82" transform="translate(-289.92 -687.25) rotate(45)"/>
    <g>
      <line class="cls-13" x1="188.05" y1="675.41" x2="208.75" y2="675.41"/>
      <line class="cls-13" x1="188.05" y1="677.71" x2="208.75" y2="677.71"/>
      <line class="cls-13" x1="188.05" y1="680" x2="208.75" y2="680"/>
    </g>
    <g>
      <line class="cls-13" x1="135.68" y1="675.11" x2="147.26" y2="675.11"/>
      <line class="cls-13" x1="135.68" y1="677.41" x2="147.26" y2="677.41"/>
      <line class="cls-13" x1="135.68" y1="679.71" x2="147.26" y2="679.71"/>
    </g>
    <g>
      <line class="cls-13" x1="119.7" y1="675.11" x2="131.29" y2="675.11"/>
      <line class="cls-13" x1="119.7" y1="677.41" x2="131.29" y2="677.41"/>
      <line class="cls-13" x1="119.7" y1="679.71" x2="131.29" y2="679.71"/>
    </g>
    <rect class="cls-6" x="206.76" y="644.04" width="2.57" height="1.72"/>
    <rect class="cls-31" x="185.08" y="647.6" width="1.11" height="1.11"/>
    <rect class="cls-31" x="185.08" y="649.38" width="1.11" height="1.11"/>
    <rect class="cls-31" x="185.08" y="651.16" width="1.11" height="1.11"/>
    <rect class="cls-31" x="187.03" y="647.6" width="1.11" height="1.11"/>
    <rect class="cls-31" x="187.03" y="649.38" width="1.11" height="1.11"/>
    <rect class="cls-31" x="187.03" y="651.16" width="1.11" height="1.11"/>
    <rect class="cls-31" x="188.97" y="647.6" width="1.11" height="1.11"/>
    <rect class="cls-31" x="188.97" y="649.38" width="1.11" height="1.11"/>
    <rect class="cls-31" x="188.97" y="651.16" width="1.11" height="1.11"/>
    <rect class="cls-3" x="191.65" y="647.6" width="20.23" height="4.67"/>
    <rect class="cls-3" x="195.7" y="653.96" width="2.01" height="5.18"/>
    <rect class="cls-3" x="198.46" y="653.96" width="2.01" height="5.18"/>
    <rect class="cls-3" x="201.21" y="653.96" width="2.01" height="5.18"/>
    <circle class="cls-32" cx="186.03" cy="655" r="1"/>
    <circle class="cls-32" cx="188.97" cy="655" r="1"/>
    <circle class="cls-32" cx="191.92" cy="655" r="1"/>
    <line class="cls-33" x1="186.03" y1="656" x2="186.03" y2="655.5"/>
    <line class="cls-33" x1="188.97" y1="654.51" x2="188.97" y2="654"/>
    <line class="cls-33" x1="191.92" y1="654.51" x2="191.92" y2="654"/>
    <circle class="cls-32" cx="186.03" cy="658.14" r="1"/>
    <circle class="cls-32" cx="188.97" cy="658.14" r="1"/>
    <circle class="cls-32" cx="191.92" cy="658.14" r="1"/>
    <line class="cls-33" x1="186.03" y1="659.14" x2="186.03" y2="658.64"/>
    <line class="cls-33" x1="188.97" y1="657.65" x2="188.97" y2="657.14"/>
    <line class="cls-33" x1="191.92" y1="657.65" x2="191.92" y2="657.14"/>
    <rect class="cls-1" x="185.33" y="681.29" width="1.39" height="1.39"/>
    <rect class="cls-1" x="210.01" y="681.29" width="1.39" height="1.39"/>
    <rect class="cls-1" x="185.33" y="662.63" width="1.39" height="1.39"/>
    <rect class="cls-1" x="210.01" y="662.63" width="1.39" height="1.39"/>
    <rect class="cls-6" x="226.33" y="659.14" width="2.13" height="5.98"/>
    <g>
      <polygon class="cls-2" points="209.24 638.91 208.06 638.91 208.04 638.91 206.85 638.91 206.13 641.45 209.96 641.45 209.24 638.91"/>
      <polygon class="cls-2" points="201.7 645.33 201.97 646.48 201.97 646.5 202.23 647.66 204.86 647.79 204.01 644.06 201.7 645.33"/>
      <polygon class="cls-2" points="204.26 650.2 205.33 650.72 205.35 650.73 206.42 651.24 208.16 649.27 204.71 647.61 204.26 650.2"/>
      <polygon class="cls-2" points="209.68 651.24 210.75 650.73 210.76 650.72 211.83 650.2 211.38 647.61 207.93 649.27 209.68 651.24"/>
      <polygon class="cls-2" points="213.86 647.66 214.13 646.5 214.13 646.48 214.39 645.33 212.09 644.06 211.24 647.79 213.86 647.66"/>
      <polygon class="cls-2" points="213.67 642.15 212.93 641.22 212.92 641.21 212.18 640.28 209.75 641.29 212.14 644.29 213.67 642.15"/>
      <polygon class="cls-2" points="203.92 640.28 203.18 641.21 203.17 641.22 202.43 642.15 203.96 644.29 206.34 641.29 203.92 640.28"/>
      <path class="cls-2" d="M1323.31,645.1a4.83,4.83,0,1,1-4.82-4.83A4.82,4.82,0,0,1,1323.31,645.1Z" transform="translate(-1110.44)"/>
    </g>
    <rect class="cls-4" x="205.42" y="654.75" width="0.42" height="1.56"/>
    <rect class="cls-4" x="207.92" y="656.87" width="0.42" height="1.56"/>
    <polyline class="cls-4" points="167.35 646.56 167.54 649.71 167.13 649.71"/>
    <circle class="cls-4" cx="281.71" cy="661.46" r="0.69"/>
    <circle class="cls-4" cx="285.38" cy="665.13" r="0.69"/>
    <circle class="cls-4" cx="288.08" cy="668.7" r="0.69"/>
    <circle class="cls-4" cx="285.38" cy="672.32" r="0.69"/>
    <rect class="cls-4" x="68.29" y="633.79" width="8.29" height="0.92"/>
    <rect class="cls-4" x="1178.73" y="633.79" width="8.29" height="0.92" transform="translate(706.68 -548.63) rotate(90)"/>
    <rect class="cls-4" x="1144.94" y="610.46" width="3" height="0.5" transform="translate(646.71 -535.73) rotate(90)"/>
    <rect class="cls-4" x="1196.1" y="599.54" width="6" height="1" transform="translate(688.71 -599.06) rotate(90)"/>
    <g>
      <polygon class="cls-34" points="129.4 646.82 129.4 634.96 133.92 642.79 129.4 646.82"/>
      <polygon class="cls-34" points="129.4 646.82 117.53 646.82 125.37 642.3 129.4 646.82"/>
      <polygon class="cls-34" points="129.4 646.82 129.4 658.69 124.88 650.85 129.4 646.82"/>
      <polygon class="cls-34" points="129.4 646.82 141.27 646.82 133.43 651.34 129.4 646.82"/>
      <circle class="cls-10" cx="129.33" cy="646.82" r="2.35"/>
    </g>
  </g>
  <path class="cls-35" d="M1368.1,302.54c0-30.76-2.44-46.33-20.67-46.33-17.67,0-30.9-.3-54.67,0-23.76-.3-37,0-54.67,0-18.22,0-20.67,15.57-20.67,46.33,2.14,97.63-107,158-107,259.67a182.33,182.33,0,1,0,364.67,0C1475.1,461.5,1365.94,401.16,1368.1,302.54Z" transform="translate(-1110.44)"/>
  <rect class="cls-3" x="122.49" y="238.86" width="118.34" height="73.5" rx="22" ry="22"/>
  <line class="cls-36" x1="177.37" x2="177.37" y2="207"/>
</svg>
