<svg id="Layer_2" data-name="Layer 2" xmlns="http://www.w3.org/2000/svg" xmlns:xlink="http://www.w3.org/1999/xlink" viewBox="0 0 147.34 40.1">
  <defs>
    <style>
      .cls-1 {
        fill: #7e818c;
      }

      .cls-2 {
        clip-path: url(#clip-path);
      }

      .cls-3 {
        fill: #484a51;
      }

      .cls-4 {
        fill: #8d8f99;
      }
    </style>
    <clipPath id="clip-path" transform="translate(-2155.67 -1175.4)">
      <path id="_Clipping_Path_" data-name="&lt;Clipping Path&gt;" class="cls-1" d="M2275.38,1193.72c6.49,0.36,13.84,2,19.31,5.65,2.67,1.77,5.84,5.49,2.63,8.32-2.41,2.12-6,2.78-9.1,3.32l-1.25.21a78.74,78.74,0,0,1-13,.65c-4.26,0-8.51,0-12.77.06l-18.3.06q-9.43,0-18.87,0c-10,0-22.15.19-32.14-1a109.57,109.57,0,0,1-15-2.85,31.64,31.64,0,0,1-6.26-2c-2.33-1.18-3.51-3-4.63-5.32-1.22-2.47-2.24-5-3.22-7.62-1.84-4.85-3.49-9.77-5-14.72-0.15-.48-0.43-1.4-0.66-2.17a0.69,0.69,0,0,1,.72-0.89l9.11,0.78a4,4,0,0,1,2.54,1.21c2.78,2.86,5.66,5.64,8.66,8.27a30.3,30.3,0,0,0,10.59,6.39,31.94,31.94,0,0,0,8.14,1.19c2.72,0.14,5.44.17,8.16,0.14C2219.34,1193.21,2268.54,1193.35,2275.38,1193.72Z"/>
    </clipPath>
  </defs>
  <title>plane</title>
  <g>
    <g>
      <path id="_Clipping_Path_2" data-name="&lt;Clipping Path&gt;" class="cls-1" d="M2275.38,1193.72c6.49,0.36,13.84,2,19.31,5.65,2.67,1.77,5.84,5.49,2.63,8.32-2.41,2.12-6,2.78-9.1,3.32l-1.25.21a78.74,78.74,0,0,1-13,.65c-4.26,0-8.51,0-12.77.06l-18.3.06q-9.43,0-18.87,0c-10,0-22.15.19-32.14-1a109.57,109.57,0,0,1-15-2.85,31.64,31.64,0,0,1-6.26-2c-2.33-1.18-3.51-3-4.63-5.32-1.22-2.47-2.24-5-3.22-7.62-1.84-4.85-3.49-9.77-5-14.72-0.15-.48-0.43-1.4-0.66-2.17a0.69,0.69,0,0,1,.72-0.89l9.11,0.78a4,4,0,0,1,2.54,1.21c2.78,2.86,5.66,5.64,8.66,8.27a30.3,30.3,0,0,0,10.59,6.39,31.94,31.94,0,0,0,8.14,1.19c2.72,0.14,5.44.17,8.16,0.14C2219.34,1193.21,2268.54,1193.35,2275.38,1193.72Z" transform="translate(-2155.67 -1175.4)"/>
      <g class="cls-2">
        <rect class="cls-3" x="2155.67" y="1207.69" width="145.86" height="5.43" transform="translate(2301.53 1245.42) rotate(-180)"/>
        <rect class="cls-3" x="2284.4" y="1197.56" width="18.61" height="2.87" rx="1.44" ry="1.44" transform="translate(2431.74 1222.6) rotate(180)"/>
      </g>
    </g>
    <rect class="cls-3" x="2164.05" y="1197.7" width="25.79" height="6" rx="3" ry="3" transform="translate(2198.23 1226) rotate(180)"/>
    <path class="cls-3" d="M2233.92,1205.62h19.4a4.94,4.94,0,0,1,4.94,4.94v0a4.94,4.94,0,0,1-4.94,4.94h-19.4a0,0,0,0,1,0,0v-9.87A0,0,0,0,1,2233.92,1205.62Z" transform="translate(2336.51 1245.73) rotate(-180)"/>
    <rect class="cls-4" x="2223.02" y="1204.62" width="27.88" height="4.44" rx="2.22" ry="2.22" transform="translate(2318.24 1238.29) rotate(-180)"/>
    <rect class="cls-3" x="2265.69" y="1196.7" width="3.41" height="4.5" rx="1.19" ry="1.19" transform="matrix(-1, 0, 0, -1, 2379.12, 1222.5)"/>
    <rect class="cls-3" x="2261.19" y="1196.7" width="3.41" height="4.5" rx="1.19" ry="1.19" transform="matrix(-1, 0, 0, -1, 2370.12, 1222.5)"/>
    <rect class="cls-3" x="2256.69" y="1196.7" width="3.41" height="4.5" rx="1.19" ry="1.19" transform="matrix(-1, 0, 0, -1, 2361.12, 1222.5)"/>
    <rect class="cls-3" x="2252.19" y="1196.7" width="3.41" height="4.5" rx="1.19" ry="1.19" transform="matrix(-1, 0, 0, -1, 2352.12, 1222.5)"/>
    <rect class="cls-3" x="2247.69" y="1196.7" width="3.41" height="4.5" rx="1.19" ry="1.19" transform="matrix(-1, 0, 0, -1, 2343.13, 1222.5)"/>
    <rect class="cls-3" x="2243.19" y="1196.7" width="3.41" height="4.5" rx="1.19" ry="1.19" transform="matrix(-1, 0, 0, -1, 2334.13, 1222.5)"/>
    <rect class="cls-3" x="2238.69" y="1196.7" width="3.41" height="4.5" rx="1.19" ry="1.19" transform="matrix(-1, 0, 0, -1, 2325.13, 1222.5)"/>
    <rect class="cls-3" x="2234.2" y="1196.7" width="3.41" height="4.5" rx="1.19" ry="1.19" transform="matrix(-1, 0, 0, -1, 2316.13, 1222.5)"/>
    <rect class="cls-3" x="2229.7" y="1196.7" width="3.41" height="4.5" rx="1.19" ry="1.19" transform="matrix(-1, 0, 0, -1, 2307.13, 1222.5)"/>
    <rect class="cls-3" x="2225.2" y="1196.7" width="3.41" height="4.5" rx="1.19" ry="1.19" transform="matrix(-1, 0, 0, -1, 2298.14, 1222.5)"/>
    <rect class="cls-3" x="2220.7" y="1196.7" width="3.41" height="4.5" rx="1.19" ry="1.19" transform="matrix(-1, 0, 0, -1, 2289.14, 1222.5)"/>
    <rect class="cls-3" x="2216.2" y="1196.7" width="3.41" height="4.5" rx="1.19" ry="1.19" transform="matrix(-1, 0, 0, -1, 2280.14, 1222.5)"/>
    <rect class="cls-3" x="2211.7" y="1196.7" width="3.41" height="4.5" rx="1.19" ry="1.19" transform="matrix(-1, 0, 0, -1, 2271.14, 1222.5)"/>
    <rect class="cls-3" x="2207.2" y="1196.7" width="3.41" height="4.5" rx="1.19" ry="1.19" transform="matrix(-1, 0, 0, -1, 2262.14, 1222.5)"/>
    <rect class="cls-3" x="2202.7" y="1196.7" width="3.41" height="4.5" rx="1.19" ry="1.19" transform="matrix(-1, 0, 0, -1, 2253.15, 1222.5)"/>
    <rect class="cls-3" x="2198.2" y="1196.7" width="3.41" height="4.5" rx="1.19" ry="1.19" transform="matrix(-1, 0, 0, -1, 2244.15, 1222.5)"/>
  </g>
</svg>
