<?xml version="1.0" encoding="utf-8"?>
<!-- Generator: Adobe Illustrator 19.2.1, SVG Export Plug-In . SVG Version: 6.00 Build 0)  -->
<svg version="1.1" id="Layer_2" xmlns="http://www.w3.org/2000/svg" xmlns:xlink="http://www.w3.org/1999/xlink" x="0px" y="0px"
	 viewBox="0 0 143.1 41.6" style="enable-background:new 0 0 143.1 41.6;" xml:space="preserve">
<style type="text/css">
	.st0{fill:none;stroke:#2F404F;stroke-width:1.5;stroke-miterlimit:10;}
	.st1{clip-path:url(#SVGID_2_);fill:#FF6B6B;stroke:#2F404F;stroke-width:1.5;stroke-miterlimit:10;}
	.st2{clip-path:url(#SVGID_2_);fill:#F7FFF7;stroke:#2F404F;stroke-width:1.5;stroke-miterlimit:10;}
	.st3{fill:#FFFFFF;stroke:#2F404F;stroke-width:1.5;stroke-miterlimit:10;}
</style>
<title>plane</title>
<g>
	<g>
		<path id="_Clipping_Path_2" class="st0" d="M106.2,19.5c4.7,0.3,10.1,1.5,14.1,4.2c2,1.3,4.2,4,1.9,6c-1.7,1.5-4.4,2-6.6,2.4
			l-0.9,0.1c-3.1,0.4-6.3,0.6-9.5,0.5c-3.1,0-6.2,0-9.3,0.1l-13.3,0.1c-4.6,0-9.2,0-13.8,0c-7.3,0-16.1,0.1-23.4-0.7
			c-3.7-0.4-7.4-1.2-10.9-2c-1.6-0.3-3.1-0.8-4.6-1.5c-1.7-0.9-2.6-2.2-3.4-3.9c-0.9-1.8-1.6-3.6-2.3-5.5c-1.2-3.6-2.5-7.3-3.6-10.9
			c-0.1-0.4-0.3-1-0.5-1.6c-0.1-0.3,0.1-0.5,0.4-0.7c0.1,0,0.1,0,0.2,0l6.6,0.6c0.7,0.1,1.4,0.4,1.8,0.9c2,2.1,4.2,4.1,6.3,6
			c2.3,2,4.9,3.6,7.7,4.7c2,0.5,3.9,0.8,5.9,0.9c2,0.1,3.9,0.1,6,0.1C65.4,19.2,101.2,19.2,106.2,19.5z"/>
		<g>
			<g>
				<defs>
					<path id="SVGID_1_" d="M106.2,19.5c4.7,0.3,10.1,1.5,14.1,4.2c2,1.3,4.2,4,1.9,6c-1.7,1.5-4.4,2-6.6,2.4l-0.9,0.1
						c-3.1,0.4-6.3,0.6-9.5,0.5c-3.1,0-6.2,0-9.3,0.1l-13.3,0.1c-4.6,0-9.2,0-13.8,0c-7.3,0-16.1,0.1-23.4-0.7
						c-3.7-0.4-7.4-1.2-10.9-2c-1.6-0.3-3.1-0.8-4.6-1.5c-1.7-0.9-2.6-2.2-3.4-3.9c-0.9-1.8-1.6-3.6-2.3-5.5
						c-1.2-3.6-2.5-7.3-3.6-10.9c-0.1-0.4-0.3-1-0.5-1.6c-0.1-0.3,0.1-0.5,0.4-0.7c0.1,0,0.1,0,0.2,0l6.6,0.6
						c0.7,0.1,1.4,0.4,1.8,0.9c2,2.1,4.2,4.1,6.3,6c2.3,2,4.9,3.6,7.7,4.7c2,0.5,3.9,0.8,5.9,0.9c2,0.1,3.9,0.1,6,0.1
						C65.4,19.2,101.2,19.2,106.2,19.5z"/>
				</defs>
				<use xlink:href="#SVGID_1_"  style="overflow:visible;fill:#FFFFFF;"/>
				<clipPath id="SVGID_2_">
					<use xlink:href="#SVGID_1_"  style="overflow:visible;"/>
				</clipPath>
				<rect x="19" y="29.7" class="st1" width="106.3" height="3.9"/>
				<path class="st2" d="M125.3,24.4h-11.4c-0.6,0-1-0.4-1-1l0,0c0-0.6,0.4-1,1-1h11.4c0.6,0,1,0.4,1,1l0,0
					C126.3,24,125.8,24.4,125.3,24.4z"/>
				<use xlink:href="#SVGID_1_"  style="overflow:visible;fill:none;stroke:#2F404F;stroke-width:1.5;stroke-miterlimit:10;"/>
			</g>
		</g>
	</g>
	<path class="st3" d="M36.6,26.8H22.1c-1.2,0-2.2-0.9-2.2-2.2l0,0c0-1.2,0.9-2.2,2.2-2.2h14.4c1.2,0,2.2,0.9,2.2,2.2l0,0
		C38.8,25.9,37.7,26.8,36.6,26.8z"/>
	<path class="st3" d="M93.7,35.4H79.6c-2,0-3.6-1.6-3.6-3.6l0,0c0-2,1.6-3.6,3.6-3.6h14.1l0,0V35.4L93.7,35.4z"/>
	<path class="st0" d="M100.7,25H100c-0.5,0-0.9-0.4-0.9-0.9v-1.5c0-0.5,0.4-0.9,0.9-0.9h0.7c0.5,0,0.9,0.4,0.9,0.9v1.5
		C101.6,24.6,101.2,25,100.7,25z"/>
	<path class="st0" d="M97.4,25h-0.7c-0.5,0-0.9-0.4-0.9-0.9v-1.5c0-0.5,0.4-0.9,0.9-0.9h0.7c0.5,0,0.9,0.4,0.9,0.9v1.5
		C98.3,24.6,97.9,25,97.4,25z"/>
	<path class="st0" d="M94.2,25h-0.7c-0.5,0-0.9-0.4-0.9-0.9v-1.5c0-0.5,0.4-0.9,0.9-0.9h0.7c0.5,0,0.9,0.4,0.9,0.9v1.5
		C95,24.6,94.7,25,94.2,25z"/>
	<path class="st0" d="M90.9,25h-0.7c-0.5,0-0.9-0.4-0.9-0.9v-1.5c0-0.5,0.4-0.9,0.9-0.9h0.7c0.5,0,0.9,0.4,0.9,0.9v1.5
		C91.7,24.6,91.4,25,90.9,25z"/>
	<path class="st0" d="M87.7,25h-0.7c-0.5,0-0.9-0.4-0.9-0.9v-1.5c0-0.5,0.4-0.9,0.9-0.9h0.7c0.5,0,0.9,0.4,0.9,0.9v1.5
		C88.5,24.6,88.1,25,87.7,25z"/>
	<path class="st0" d="M84.4,25h-0.7c-0.5,0-0.9-0.4-0.9-0.9v-1.5c0-0.5,0.4-0.9,0.9-0.9h0.7c0.5,0,0.9,0.4,0.9,0.9v1.5
		C85.2,24.6,84.8,25,84.4,25z"/>
	<path class="st0" d="M81.1,25h-0.7c-0.5,0-0.9-0.4-0.9-0.9v-1.5c0-0.5,0.4-0.9,0.9-0.9h0.7c0.5,0,0.9,0.4,0.9,0.9v1.5
		C81.9,24.6,81.5,25,81.1,25z"/>
	<path class="st0" d="M77.8,25H77c-0.5,0-0.9-0.4-0.9-0.9v-1.5c0-0.5,0.4-0.9,0.9-0.9h0.7c0.5,0,0.9,0.4,0.9,0.9v1.5
		C78.6,24.6,78.3,25,77.8,25z"/>
	<path class="st0" d="M74.5,25h-0.7c-0.5,0-0.9-0.4-0.9-0.9v-1.5c0-0.5,0.4-0.9,0.9-0.9h0.7c0.5,0,0.9,0.4,0.9,0.9v1.5
		C75.4,24.6,75,25,74.5,25z"/>
	<path class="st0" d="M71.3,25h-0.7c-0.5,0-0.9-0.4-0.9-0.9v-1.5c0-0.5,0.4-0.9,0.9-0.9h0.7c0.5,0,0.9,0.4,0.9,0.9v1.5
		C72.1,24.6,71.7,25,71.3,25z"/>
	<path class="st0" d="M68,25h-0.7c-0.5,0-0.9-0.4-0.9-0.9v-1.5c0-0.5,0.4-0.9,0.9-0.9H68c0.5,0,0.9,0.4,0.9,0.9v1.5
		C68.8,24.6,68.4,25,68,25z"/>
	<path class="st0" d="M64.7,25H64c-0.5,0-0.9-0.4-0.9-0.9v-1.5c0-0.5,0.4-0.9,0.9-0.9h0.7c0.5,0,0.9,0.4,0.9,0.9v1.5
		C65.5,24.6,65.2,25,64.7,25z"/>
	<path class="st0" d="M61.4,25h-0.7c-0.5,0-0.9-0.4-0.9-0.9v-1.5c0-0.5,0.4-0.9,0.9-0.9h0.7c0.5,0,0.9,0.4,0.9,0.9v1.5
		C62.2,24.6,61.9,25,61.4,25z"/>
	<path class="st0" d="M58.2,25h-0.7c-0.5,0-0.9-0.4-0.9-0.9v-1.5c0-0.5,0.4-0.9,0.9-0.9h0.7c0.5,0,0.9,0.4,0.9,0.9v1.5
		C59,24.6,58.6,25,58.2,25z"/>
	<path class="st0" d="M54.9,25h-0.7c-0.5,0-0.9-0.4-0.9-0.9v-1.5c0-0.5,0.4-0.9,0.9-0.9h0.7c0.5,0,0.9,0.4,0.9,0.9v1.5
		C55.7,24.6,55.3,25,54.9,25z"/>
	<path class="st0" d="M51.6,25h-0.7c-0.5,0-0.9-0.4-0.9-0.9v-1.5c0-0.5,0.4-0.9,0.9-0.9h0.7c0.5,0,0.9,0.4,0.9,0.9v1.5
		C52.4,24.6,52,25,51.6,25z"/>
</g>
</svg>
