<?xml version="1.0" encoding="utf-8"?>
<!-- Generator: Adobe Illustrator 19.2.1, SVG Export Plug-In . SVG Version: 6.00 Build 0)  -->
<svg version="1.1" id="Layer_2" xmlns="http://www.w3.org/2000/svg" xmlns:xlink="http://www.w3.org/1999/xlink" x="0px" y="0px"
	 viewBox="0 0 147.3 40.1" style="enable-background:new 0 0 147.3 40.1;" xml:space="preserve">
<style type="text/css">
	.st0{fill:#D9D9D9;}
	.st1{clip-path:url(#SVGID_2_);}
	.st2{fill:#284B63;}
</style>
<title>plane</title>
<g>
	<g>
		<path id="_Clipping_Path_2" class="st0" d="M119.7,18.3c6.5,0.4,13.8,2,19.3,5.7c2.7,1.8,5.8,5.5,2.6,8.3c-2.4,2.1-6,2.8-9.1,3.3
			l-1.3,0.2c-4.3,0.6-8.7,0.8-13,0.7c-4.3,0-8.5,0-12.8,0.1l-18.3,0.1c-6.3,0-12.6,0-18.9,0c-10,0-22.1,0.2-32.1-1
			c-5.1-0.6-10.1-1.6-15-2.8c-2.2-0.4-4.2-1.1-6.3-2c-2.3-1.2-3.5-3-4.6-5.3c-1.2-2.5-2.2-5-3.2-7.6C5.3,13,3.6,8,2.1,3.1
			C2,2.6,1.7,1.7,1.4,0.9C1.3,0.5,1.5,0.2,1.9,0C2,0,2.1,0,2.2,0l9.1,0.8c1,0.1,1.9,0.5,2.5,1.2c2.8,2.9,5.7,5.6,8.7,8.3
			c3.1,2.8,6.7,5,10.6,6.4c2.7,0.7,5.4,1.1,8.1,1.2c2.7,0.1,5.4,0.2,8.2,0.1C63.7,17.8,112.9,17.9,119.7,18.3z"/>
		<g>
			<defs>
				<path id="SVGID_1_" d="M119.7,18.3c6.5,0.4,13.8,2,19.3,5.7c2.7,1.8,5.8,5.5,2.6,8.3c-2.4,2.1-6,2.8-9.1,3.3l-1.3,0.2
					c-4.3,0.6-8.7,0.8-13,0.7c-4.3,0-8.5,0-12.8,0.1l-18.3,0.1c-6.3,0-12.6,0-18.9,0c-10,0-22.1,0.2-32.1-1
					c-5.1-0.6-10.1-1.6-15-2.8c-2.2-0.4-4.2-1.1-6.3-2c-2.3-1.2-3.5-3-4.6-5.3c-1.2-2.5-2.2-5-3.2-7.6C5.3,13,3.6,8,2.1,3.1
					C2,2.6,1.7,1.7,1.4,0.9C1.3,0.5,1.5,0.2,1.9,0C2,0,2.1,0,2.2,0l9.1,0.8c1,0.1,1.9,0.5,2.5,1.2c2.8,2.9,5.7,5.6,8.7,8.3
					c3.1,2.8,6.7,5,10.6,6.4c2.7,0.7,5.4,1.1,8.1,1.2c2.7,0.1,5.4,0.2,8.2,0.1C63.7,17.8,112.9,17.9,119.7,18.3z"/>
			</defs>
			<clipPath id="SVGID_2_">
				<use xlink:href="#SVGID_1_"  style="overflow:visible;"/>
			</clipPath>
			<g class="st1">
				<rect y="32.3" class="st2" width="145.9" height="5.4"/>
				<path class="st2" d="M145.9,25h-15.7c-0.8,0-1.4-0.6-1.4-1.4v0c0-0.8,0.6-1.4,1.4-1.4h15.7c0.8,0,1.4,0.6,1.4,1.4v0
					C147.3,24.4,146.7,25,145.9,25z"/>
			</g>
		</g>
	</g>
	<path class="st2" d="M31.2,28.3H11.4c-1.7,0-3-1.3-3-3l0,0c0-1.7,1.3-3,3-3h19.8c1.7,0,3,1.3,3,3l0,0C34.2,27,32.8,28.3,31.2,28.3z
		"/>
	<path class="st2" d="M102.6,40.1H83.2c-2.7,0-4.9-2.2-4.9-4.9l0,0c0-2.7,2.2-4.9,4.9-4.9h19.4l0,0V40.1L102.6,40.1z"/>
	<path class="st2" d="M112.2,25.8h-1c-0.7,0-1.2-0.5-1.2-1.2v-2.1c0-0.7,0.5-1.2,1.2-1.2h1c0.7,0,1.2,0.5,1.2,1.2v2.1
		C113.4,25.3,112.9,25.8,112.2,25.8z"/>
	<path class="st2" d="M107.7,25.8h-1c-0.7,0-1.2-0.5-1.2-1.2v-2.1c0-0.7,0.5-1.2,1.2-1.2h1c0.7,0,1.2,0.5,1.2,1.2v2.1
		C108.9,25.3,108.4,25.8,107.7,25.8z"/>
	<path class="st2" d="M103.2,25.8h-1c-0.7,0-1.2-0.5-1.2-1.2v-2.1c0-0.7,0.5-1.2,1.2-1.2h1c0.7,0,1.2,0.5,1.2,1.2v2.1
		C104.4,25.3,103.9,25.8,103.2,25.8z"/>
	<path class="st2" d="M98.7,25.8h-1c-0.7,0-1.2-0.5-1.2-1.2v-2.1c0-0.7,0.5-1.2,1.2-1.2h1c0.7,0,1.2,0.5,1.2,1.2v2.1
		C99.9,25.3,99.4,25.8,98.7,25.8z"/>
	<path class="st2" d="M94.3,25.8h-1c-0.7,0-1.2-0.5-1.2-1.2v-2.1c0-0.7,0.5-1.2,1.2-1.2h1c0.7,0,1.2,0.5,1.2,1.2v2.1
		C95.4,25.3,94.9,25.8,94.3,25.8z"/>
	<path class="st2" d="M89.8,25.8h-1c-0.7,0-1.2-0.5-1.2-1.2v-2.1c0-0.7,0.5-1.2,1.2-1.2h1c0.7,0,1.2,0.5,1.2,1.2v2.1
		C90.9,25.3,90.4,25.8,89.8,25.8z"/>
	<path class="st2" d="M85.3,25.8h-1c-0.7,0-1.2-0.5-1.2-1.2v-2.1c0-0.7,0.5-1.2,1.2-1.2h1c0.7,0,1.2,0.5,1.2,1.2v2.1
		C86.4,25.3,85.9,25.8,85.3,25.8z"/>
	<path class="st2" d="M80.7,25.8h-1c-0.7,0-1.2-0.5-1.2-1.2v-2.1c0-0.7,0.5-1.2,1.2-1.2h1c0.7,0,1.2,0.5,1.2,1.2v2.1
		C81.9,25.3,81.4,25.8,80.7,25.8z"/>
	<path class="st2" d="M76.2,25.8h-1c-0.7,0-1.2-0.5-1.2-1.2v-2.1c0-0.7,0.5-1.2,1.2-1.2h1c0.7,0,1.2,0.5,1.2,1.2v2.1
		C77.4,25.3,76.9,25.8,76.2,25.8z"/>
	<path class="st2" d="M71.8,25.8h-1c-0.7,0-1.2-0.5-1.2-1.2v-2.1c0-0.7,0.5-1.2,1.2-1.2h1c0.7,0,1.2,0.5,1.2,1.2v2.1
		C72.9,25.3,72.4,25.8,71.8,25.8z"/>
	<path class="st2" d="M67.3,25.8h-1c-0.7,0-1.2-0.5-1.2-1.2v-2.1c0-0.7,0.5-1.2,1.2-1.2h1c0.7,0,1.2,0.5,1.2,1.2v2.1
		C68.4,25.3,67.9,25.8,67.3,25.8z"/>
	<path class="st2" d="M62.8,25.8h-1c-0.7,0-1.2-0.5-1.2-1.2v-2.1c0-0.7,0.5-1.2,1.2-1.2h1c0.7,0,1.2,0.5,1.2,1.2v2.1
		C63.9,25.3,63.4,25.8,62.8,25.8z"/>
	<path class="st2" d="M58.3,25.8h-1c-0.7,0-1.2-0.5-1.2-1.2v-2.1c0-0.7,0.5-1.2,1.2-1.2h1c0.7,0,1.2,0.5,1.2,1.2v2.1
		C59.4,25.3,58.9,25.8,58.3,25.8z"/>
	<path class="st2" d="M53.8,25.8h-1c-0.7,0-1.2-0.5-1.2-1.2v-2.1c0-0.7,0.5-1.2,1.2-1.2h1c0.7,0,1.2,0.5,1.2,1.2v2.1
		C54.9,25.3,54.4,25.8,53.8,25.8z"/>
	<path class="st2" d="M49.3,25.8h-1c-0.7,0-1.2-0.5-1.2-1.2v-2.1c0-0.7,0.5-1.2,1.2-1.2h1c0.7,0,1.2,0.5,1.2,1.2v2.1
		C50.4,25.3,49.9,25.8,49.3,25.8z"/>
	<path class="st2" d="M44.8,25.8h-1c-0.7,0-1.2-0.5-1.2-1.2v-2.1c0-0.7,0.5-1.2,1.2-1.2h1c0.7,0,1.2,0.5,1.2,1.2v2.1
		C45.9,25.3,45.4,25.8,44.8,25.8z"/>
</g>
</svg>
