<svg id="Layer_2" data-name="Layer 2" xmlns="http://www.w3.org/2000/svg" viewBox="0 0 249.07 159"><defs><style>.cls-1{fill:#44495e;}.cls-2,.cls-3{fill:#7e818c;}.cls-3{stroke:#7e818c;stroke-miterlimit:10;stroke-width:2px;}</style></defs><title>satellite</title><polygon class="cls-1" points="150.81 0 150.81 22 171.81 22 171.81 137 175.81 137 175.81 22 197.81 22 197.81 0 150.81 0"/><rect class="cls-1" x="150.81" y="137" width="47" height="22"/><circle class="cls-2" cx="2107.33" cy="1437.56" r="47.24" transform="translate(-1464.56 2034.58) rotate(-84.33)"/><polygon class="cls-1" points="141.36 81.56 0 79.56 141.36 77.56 141.36 81.56"/><polygon class="cls-1" points="131.88 59.33 69.81 36.24 133.16 55.54 131.88 59.33"/><polygon class="cls-1" points="133.16 103.59 69.81 122.89 131.88 99.8 133.16 103.59"/><circle class="cls-1" cx="242.36" cy="79.56" r="6.72"/><path class="cls-1" d="M2115,1391c-1-.16-1.82-0.3-2.83-0.4a46,46,0,0,0-12.17.39v93.21c1,0.16,1.82.3,2.83,0.41a46,46,0,0,0,12.17-.39V1391Z" transform="translate(-1933.19 -1358)"/><line class="cls-3" x1="221.38" y1="79.56" x2="235.64" y2="79.56"/></svg>