<?xml version="1.0" encoding="utf-8"?>
<!-- Generator: Adobe Illustrator 19.2.0, SVG Export Plug-In . SVG Version: 6.00 Build 0)  -->
<svg version="1.1" id="Layer_1" xmlns="http://www.w3.org/2000/svg" xmlns:xlink="http://www.w3.org/1999/xlink" x="0px" y="0px"
	 viewBox="0 0 166.3 34" style="enable-background:new 0 0 166.3 34;" xml:space="preserve">
<style type="text/css">
	.st0{fill:none;stroke:#2F404F;stroke-width:6;stroke-miterlimit:10;}
</style>
<title>road-line-2</title>
<g>
	<path class="st0" d="M-3.8,3c40.7,0,40.7,28,81.3,28c40.7,0,40.7-28,81.3-28c40.7,0,40.7,28,81.3,28c40.7,0,40.7-28,81.3-28
		C362,3,362,31,402.7,31c40.7,0,40.7-28,81.3-28s40.7,28,81.3,28c40.7,0,40.7-28,81.3-28c40.6,0,40.6,28,81.3,28
		c40.6,0,40.6-28,81.3-28c40.7,0,40.7,28,81.3,28c40.6,0,40.6-28,81.3-28c40.6,0,40.6,28,81.3,28c40.6,0,40.6-28,81.3-28
		c40.7,0,40.7,28,81.3,28c40.7,0,40.7-28,81.3-28c40.7,0,40.7,28,81.3,28c40.7,0,40.7-28,81.3-28c40.7,0,40.7,28,81.3,28
		c40.7,0,40.7-28,81.3-28c40.7,0,40.7,28,81.3,28c40.7,0,40.7-28,81.3-28c40.7,0,40.7,28,81.3,28c40.7,0,40.7-28,81.3-28
		c40.7,0,40.7,28,81.3,28c40.7,0,40.7-28,81.3-28c40.7,0,40.7,28,81.3,28c40.7,0,40.7-28,81.3-28c40.7,0,40.7,28,81.3,28
		c40.7,0,40.7-28,81.3-28c40.7,0,40.7,28,81.3,28c40.7,0,40.7-28,81.3-28c40.7,0,40.7,28,81.3,28c40.7,0,40.7-28,81.3-28
		c40.7,0,40.7,28,81.3,28c40.7,0,40.7-28,81.3-28c40.7,0,40.7,28,81.3,28c40.7,0,40.7-28,81.3-28c40.7,0,40.7,28,81.3,28
		c40.7,0,40.7-28,81.3-28c40.7,0,40.7,28,81.3,28c40.7,0,40.7-28,81.3-28c40.7,0,40.7,28,81.3,28c40.7,0,40.7-28,81.3-28
		c40.7,0,40.7,28,81.3,28s40.7-28,81.3-28"/>
</g>
</svg>
