<?xml version="1.0" encoding="utf-8"?>
<!-- Generator: Adobe Illustrator 19.2.1, SVG Export Plug-In . SVG Version: 6.00 Build 0)  -->
<svg version="1.1" id="Layer_2" xmlns="http://www.w3.org/2000/svg" xmlns:xlink="http://www.w3.org/1999/xlink" x="0px" y="0px"
	 viewBox="0 0 216.3 90.1" style="enable-background:new 0 0 216.3 90.1;" xml:space="preserve">
<style type="text/css">
	.st0{fill:#FFFFFF;stroke:#2F404F;stroke-miterlimit:10;}
	.st1{fill:#FFFFFF;stroke:#2F404F;stroke-width:2;stroke-miterlimit:10;}
	.st2{fill:#2F404F;}
	.st3{fill:none;stroke:#2F404F;stroke-width:2;stroke-miterlimit:10;}
</style>
<title>truck</title>
<rect x="123.5" y="46.1" class="st0" width="23.4" height="13.1"/>
<rect x="98.9" y="32.8" class="st0" width="23.4" height="13.1"/>
<rect x="122.3" y="32.8" class="st0" width="23.4" height="13.1"/>
<rect x="111.8" y="19.7" class="st0" width="23.4" height="13.1"/>
<rect x="162.3" y="23.2" class="st0" width="18.2" height="13.1"/>
<rect x="180.5" y="23.2" class="st0" width="18.2" height="13.1"/>
<rect x="166.4" y="12.8" class="st0" width="24.1" height="10.4"/>
<rect x="87.7" y="45.9" class="st0" width="17.9" height="9.8"/>
<rect x="105.6" y="45.9" class="st0" width="17.9" height="9.8"/>
<rect x="9.3" y="32.8" class="st1" width="73" height="22.9"/>
<path class="st1" d="M142.4,36.1h72.3c0,0-14.8,34-36.8,42.8c-4.5,1.8-11.1,5.3-12.8,10.2c-5.4,0-136.6,0-136.6,0S3.4,84,1.1,55.4
	c79.5,0,122.1-0.1,122.1-0.1S139.9,54.7,142.4,36.1z"/>
<circle class="st1" cx="53" cy="70.8" r="6.5"/>
<circle class="st1" cx="23.4" cy="42.1" r="4.7"/>
<circle class="st1" cx="72.2" cy="70.8" r="6.5"/>
<circle class="st1" cx="43.7" cy="42.8" r="4.7"/>
<circle class="st1" cx="91.4" cy="70.8" r="6.5"/>
<circle class="st1" cx="110.6" cy="70.8" r="6.5"/>
<path class="st2" d="M192.5,50.1l-3.5,3.6l1.9,0.5c-1,3.5-3.8,6-7.1,6.2V47.9c1.1-0.3,1.7-1.4,1.5-2.5s-1.4-1.7-2.5-1.5
	c-1.1,0.3-1.7,1.4-1.5,2.5c0.2,0.7,0.7,1.3,1.5,1.5v12.5c-3.3-0.2-6.1-2.7-7.1-6.2l2-0.5l-3.5-3.6l-1.4,4.8l1.9-0.5
	c0.5,1.8,1.6,3.5,3,4.8c3.2,2.9,8.1,2.9,11.3,0c1.4-1.3,2.5-3,3-4.8l2,0.5L192.5,50.1z M174.2,53.5l0.4-1.5l1.1,1.1L174.2,53.5z
	 M182.2,45.9c0-0.6,0.5-1,1-1s1,0.5,1,1c0,0.6-0.5,1-1,1C182.7,46.9,182.2,46.5,182.2,45.9C182.2,45.9,182.2,45.9,182.2,45.9
	L182.2,45.9z M190.9,53.1L192,52l0.4,1.5L190.9,53.1z"/>
<rect x="13.7" y="1" class="st1" width="23" height="31.8"/>
<path class="st1" d="M65.7,32.8"/>
<path class="st1" d="M82.3,46.9H64.9c-2.6,0-4.8-2.1-4.8-4.8v-1.3c0-2.6,2.1-4.8,4.8-4.8h17.4V46.9z"/>
<line class="st3" x1="13.7" y1="8.8" x2="36.7" y2="8.8"/>
<circle class="st1" cx="33.8" cy="70.8" r="6.5"/>
</svg>
