<svg id="Layer_2" data-name="Layer 2" xmlns="http://www.w3.org/2000/svg" viewBox="0 0 586.5 392">
  <defs>
    <style>
      .smoke-1 {
        fill: none;
        stroke: #2f404f;
        stroke-miterlimit: 10;
        stroke-width: 6px;
      }
    </style>
  </defs>
  <title>smoke</title>
  <path id="smoke-line-1" class="smoke-1" d="M221.53,389V354c0-8.38,8.06-15.17,18-15.17h122c11,0,20-7.54,20-16.85s-9-16.85-20-16.85h-233c-11,0-20-7.54-20-16.85v-5.9c0-9.31,9-16.85,20-16.85h304c11,0,20-7.54,20-16.85V241.1c0-9.31-9-16.85-20-16.85h-359c-19.88,0-36-13.58-36-30.33s16.12-30.33,36-30.33H456.71c24.85,0,45-17,45-37.92s-20.15-37.92-45-37.92H384.53"/>
  <path id="smoke-line-2" class="smoke-1" d="M413.61,115H181.09c-24.58,0-44.5-12.82-44.5-28.64s19.92-28.64,44.5-28.64H541c23.47,0,42.5-12.25,42.5-27.36S564.51,3,541,3H293.26"/>
  <path id="smoke-line-3" class="smoke-1" d="M244,3H3"/>
</svg>
