<?xml version="1.0" encoding="utf-8"?>
<!-- Generator: Adobe Illustrator 19.2.1, SVG Export Plug-In . SVG Version: 6.00 Build 0)  -->
<svg version="1.1" id="c09d44e3-122b-4318-8269-8c1a0305c52b"
	 xmlns="http://www.w3.org/2000/svg" xmlns:xlink="http://www.w3.org/1999/xlink" x="0px" y="0px" viewBox="0 0 47.7 27.8"
	 style="enable-background:new 0 0 47.7 27.8;" xml:space="preserve">
<style type="text/css">
	.st0{fill:#FFFFFF;}
</style>
<title>spaceship</title>
<g>
	<path class="st0" d="M40.7,13.2C39.6,9.4,35.8,0,23.9,0C11.1,0,7.7,9.4,6.8,13.2c-4.5,1.6-6.8,3.7-6.8,6c0,4.1,8.4,8.5,23.8,8.5
		s23.8-4.3,23.8-8.5C47.7,16.9,45.2,14.8,40.7,13.2z M23.9,1.5c12.6,0,15.3,11.3,15.7,13.2c-1.3,2-7.4,4-15.7,4s-14.4-2-15.7-4
		C8.3,13,10.2,1.5,23.9,1.5z M23.9,26.2c-13.1,0-22.3-3.7-22.3-7c0-1.5,1.8-3,5-4.3v0.1l0.1,0.2c1.5,3,8.5,5.1,17.2,5.1
		s15.7-2.1,17.2-5.1l0.1-0.2l0,0c3.1,1.3,5,2.8,5,4.3C46.1,22.6,37,26.2,23.9,26.2z"/>
	<path class="st0" d="M23.9,22c-1.2,0-2.1,0.5-2.1,1.2s0.9,1.2,2.1,1.2s2.1-0.5,2.1-1.2S25.1,22,23.9,22z"/>
	<path class="st0" d="M33.5,21.1c-1.2,0.2-2,0.7-1.9,1.4s0.7,0.9,1.7,0.9c0.2,0,0.4,0,0.5,0c1.2-0.2,2-0.7,1.9-1.4
		S34.8,20.9,33.5,21.1z"/>
	<path class="st0" d="M42.7,17.6c-0.5,0-1,0.1-1.4,0.4c-0.6,0.2-1.1,0.7-1.4,1.3c-0.1,0.2-0.1,0.5,0,0.7c0.2,0.3,0.6,0.5,1,0.5
		c0.5,0,1-0.1,1.4-0.4c1.1-0.5,1.7-1.3,1.4-2C43.4,17.7,43,17.6,42.7,17.6z"/>
	<path class="st0" d="M14.5,21.1c-1.2-0.2-2.1,0.2-2.2,0.9c0,0.4,0.2,0.8,0.6,1c0.4,0.2,0.8,0.3,1.3,0.4c0.2,0,0.4,0,0.5,0
		c1,0,1.6-0.4,1.7-0.9S15.7,21.2,14.5,21.1z"/>
	<path class="st0" d="M6.8,18c-0.4-0.2-0.9-0.3-1.4-0.4c-0.4-0.1-0.8,0.2-1,0.5c-0.3,0.6,0.3,1.4,1.4,2c0.4,0.2,0.9,0.3,1.4,0.4
		c0.4,0.1,0.8-0.2,1-0.5C8.4,19.3,7.8,18.5,6.8,18z"/>
</g>
</svg>
