<svg id="Layer_2" data-name="Layer 2" xmlns="http://www.w3.org/2000/svg" viewBox="0 0 258.3 159.37">
  <defs>
    <style>
      .cls-1 {
        fill: #7e818c;
      }

      .cls-2 {
        fill: #484a51;
      }

      .cls-3, .cls-5 {
        fill: none;
        stroke-miterlimit: 10;
        stroke-width: 2px;
      }

      .cls-3 {
        stroke: #7e818c;
      }

      .cls-4 {
        fill: #8d8f99;
      }

      .cls-5 {
        stroke: #484a51;
      }
    </style>
  </defs>
  <title>truck</title>
  <g>
    <path class="cls-1" d="M2057.14,1824.11v-22.87c0-12,1.76-24.56-5.8-34.73a69.35,69.35,0,0,0-29-22.31c-12.94-5.28-27.45-3.78-41.09-3.74,0.25,10.35,0,20.76,0,31.12V1865H2085v-23.24a17.62,17.62,0,0,0-17.62-17.62h-10.27Z" transform="translate(-1826.72 -1724)"/>
    <polygon class="cls-2" points="149.63 0 125.28 0 125.28 8 150.28 8 150.28 119 155.28 119 155.28 0 149.63 0"/>
    <polygon class="cls-2" points="34.27 119 16.25 119 4.28 119 4.28 124 17.28 124 17.28 126.06 17.28 141 258.28 141 258.28 119 34.27 119"/>
    <g>
      <circle class="cls-1" cx="18.68" cy="140.69" r="18.68"/>
      <circle class="cls-2" cx="18.68" cy="140.69" r="11.22"/>
      <g>
        <line class="cls-3" x1="14.11" y1="140.69" x2="23.25" y2="140.69"/>
        <line class="cls-3" x1="18.68" y1="136.12" x2="18.68" y2="145.26"/>
      </g>
    </g>
    <rect class="cls-2" x="43.88" y="111.35" width="49.04" height="8.38"/>
    <path class="cls-4" d="M2057,1801.24c0-7.73.87-15.24-.65-23.24H2010v21.63c0,9.58,8.87,18.37,19.18,18.37H2057v-16.76Z" transform="translate(-1826.72 -1724)"/>
    <g>
      <circle class="cls-1" cx="196.64" cy="140.69" r="18.68"/>
      <circle class="cls-2" cx="196.64" cy="140.69" r="11.22"/>
      <g>
        <line class="cls-3" x1="192.07" y1="140.69" x2="201.21" y2="140.69"/>
        <line class="cls-3" x1="196.64" y1="136.12" x2="196.64" y2="145.26"/>
      </g>
    </g>
    <rect class="cls-2" x="214.93" y="114.06" width="39.56" height="11.03" rx="4.55" ry="4.55"/>
    <line class="cls-5" x1="168.26" y1="111.41" x2="176.2" y2="111.41"/>
    <line class="cls-5" x1="158.08" y1="111.35" x2="166.03" y2="111.35"/>
    <line class="cls-5" x1="168.26" y1="115.57" x2="176.2" y2="115.57"/>
    <line class="cls-5" x1="158.08" y1="115.52" x2="166.03" y2="115.52"/>
    <line class="cls-5" x1="168.26" y1="107.9" x2="176.2" y2="107.9"/>
    <line class="cls-5" x1="158.08" y1="107.84" x2="166.03" y2="107.84"/>
  </g>
</svg>
