<svg id="Layer_2" data-name="Layer 2" xmlns="http://www.w3.org/2000/svg" viewBox="0 0 2286 422.3">
  <defs>
    <style>
      .cls-1 {
        fill: none;
      }

      .city-windows {
        fill: #1A535C;
      }
    </style>
  </defs>
  <title>windows</title>

  <rect id="window" class="city-windows" x="1468.2" y="261.3" width="17.25" height="11.39"/>
  <rect id="window-2" data-name="window" class="city-windows" x="1423.75" y="288.2" width="17.25" height="11.39"/>
  <rect id="window-3" data-name="window" class="city-windows" x="1476.82" y="326.81" width="17.25" height="11.39"/>
  <rect id="window-4" data-name="window" class="city-windows" x="1543.75" y="345.9" width="17.25" height="11.39"/>
  <rect id="window-5" data-name="window" class="city-windows" x="1659.75" y="351.6" width="17.25" height="11.39"/>
  <rect id="window-6" data-name="window" class="city-windows" x="1890.75" y="321.11" width="17.25" height="11.39"/>
  <rect id="window-7" data-name="window" class="city-windows" x="1865.38" y="321.11" width="17.25" height="11.39"/>
  <rect id="window-8" data-name="window" class="city-windows" x="1840" y="321.11" width="17.25" height="11.39"/>
  <rect id="window-9" data-name="window" class="city-windows" x="2031" y="321.11" width="17.25" height="11.39"/>
  <rect id="window-10" data-name="window" class="city-windows" x="2246" y="244.81" width="17.25" height="11.39"/>
  <rect id="window-11" data-name="window" class="city-windows" x="2118.38" y="321.11" width="17.25" height="11.39"/>
  <rect id="window-12" data-name="window" class="city-windows" x="2254.62" y="178.81" width="17.25" height="11.39"/>
  <rect id="window-13" data-name="window" class="city-windows" x="1706.75" y="282.5" width="17.25" height="11.39"/>
  <rect id="window-14" data-name="window" class="city-windows" x="1743.75" y="235.81" width="17.25" height="11.39"/>
  <rect id="window-15" data-name="window" class="city-windows" x="1768.75" y="267" width="17.25" height="11.39"/>
  <rect id="window-16" data-name="window" class="city-windows" x="1981.75" y="255.61" width="17.25" height="11.39"/>
  <rect id="window-17" data-name="window" class="city-windows" x="2007.38" y="288.2" width="17.25" height="11.39"/>
  <rect id="window-18" data-name="window" class="city-windows" x="2007.38" y="255.61" width="17.25" height="11.39"/>
  <rect id="window-19" data-name="window" class="city-windows" x="2055.38" y="230.11" width="17.25" height="11.39"/>
  <rect id="window-20" data-name="window" class="city-windows" x="2215.38" y="205.45" width="17.25" height="11.39"/>
  <rect id="window-21" data-name="window" class="city-windows" x="2192.38" y="147.81" width="17.25" height="11.39"/>
  <rect id="window-22" data-name="window" class="city-windows" x="1224" y="342.81" width="17.25" height="11.39"/>
  <rect id="window-23" data-name="window" class="city-windows" x="1198" y="358.81" width="17.25" height="11.39"/>
  <rect id="window-24" data-name="window" class="city-windows" x="1168" y="358.81" width="17.25" height="11.39"/>
  <rect id="window-25" data-name="window" class="city-windows" x="1198" y="326.81" width="17.25" height="11.39"/>
  <rect id="window-26" data-name="window" class="city-windows" x="1339.38" y="315.41" width="17.25" height="11.39"/>
  <rect id="window-27" data-name="window" class="city-windows" x="1375.38" y="353.11" width="17.25" height="11.39"/>
  <rect id="window-28" data-name="window" class="city-windows" x="1392.62" y="337.11" width="17.25" height="11.39"/>
  <rect id="window-29" data-name="window" class="city-windows" x="884.38" y="340.2" width="17.25" height="11.39"/>
  <rect id="window-30" data-name="window" class="city-windows" x="939.38" y="321.11" width="17.25" height="11.39"/>
  <rect id="window-31" data-name="window" class="city-windows" x="1039.38" y="353.11" width="17.25" height="11.39"/>
  <rect id="window-32" data-name="window" class="city-windows" x="1115.38" y="340.2" width="17.25" height="11.39"/>
  <rect id="window-33" data-name="window" class="city-windows" x="771.38" y="326.81" width="17.25" height="11.39"/>
  <rect id="window-34" data-name="window" class="city-windows" x="679.38" y="249.91" width="17.25" height="11.39"/>
  <rect id="window-35" data-name="window" class="city-windows" x="679.38" y="267" width="17.25" height="11.39"/>
  <rect id="window-36" data-name="window" class="city-windows" x="423.75" y="249.91" width="17.25" height="11.39"/>
  <rect id="window-37" data-name="window" class="city-windows" x="452.38" y="267" width="17.25" height="11.39"/>
  <rect id="window-38" data-name="window" class="city-windows" x="423.75" y="282.5" width="17.25" height="11.39"/>
  <rect id="window-39" data-name="window" class="city-windows" x="380.38" y="309.71" width="17.25" height="11.39"/>
  <rect id="window-40" data-name="window" class="city-windows" x="354.75" y="288.2" width="17.25" height="11.39"/>
  <rect id="window-41" data-name="window" class="city-windows" x="215.38" y="304.02" width="17.25" height="11.39"/>
  <rect id="window-42" data-name="window" class="city-windows" x="477.38" y="309.71" width="17.25" height="11.39"/>
  <rect id="window-43" data-name="window" class="city-windows" x="189.38" y="321.11" width="17.25" height="11.39"/>
  <rect id="window-44" data-name="window" class="city-windows" x="91" y="348.5" width="17.25" height="11.39"/>
  <rect id="window-45" data-name="window" class="city-windows" x="621.55" y="224.41" width="17.25" height="11.39"/>
  <rect id="window-46" data-name="window" class="city-windows" x="638.8" y="282.5" width="17.25" height="11.39"/>
  <rect id="window-47" data-name="window" class="city-windows" x="707.8" y="208.85" width="17.25" height="11.39"/>
</svg>
