<svg id="Layer_2" data-name="Layer 2" xmlns="http://www.w3.org/2000/svg" viewBox="0 0 1454.18 608.73">
  <defs>
    <style>
      .cls-1 {
        fill: #7e818c;
      }
    </style>
  </defs>
  <title>worldmap</title>
  <path class="cls-1" d="M4213.47,1184.42c1.78,0.08,3.49,2.21,5.22,3.4-1,1.35-1.86,3-3.17,4-4.65,3.54-9.81,6.46-14.16,10.33-3.81,3.43-7.68,6.46-4.06,13.64,3.25,6.49-2.14,13.41-9.89,15.29-4.57,1.1-5.81,3.13-4.65,7.7,0.49,2-.87,4.46-1.4,6.73a56.89,56.89,0,0,0-5.18-3.29,54,54,0,0,0-5.56-2.08c0.56,1.71,1.46,3.41,1.59,5.18,0.11,1.46-.22,3.79-1.16,4.33a31.28,31.28,0,0,1-7.62,2.7c-13.57,3.75-27.08,7.79-40.78,11-9.16,2.11-11.59,10.33-15.38,16.51s-5.46,7.68-13.19,5c-15.87-5.51-26.7-13.32-29.32-31.32-0.76-5.21-7.6-9.41,2-12.54,0.51-.17.7-1.35,1-2-1.19-.4-2.89-1.54-3.54-1.1-6.57,4.27-7.83,1.17-9.11-5.06-0.65-3.24-4.43-7.59-7.51-8.27-11.68-2.57-24.14-6.67-35.34-4.68-8,1.44-9.91-4.54-15.1-5.22,0.48-1,.73-2.3,1.51-2.79,11.22-7.18,22.35-14.52,33.86-21.26,5.6-3.25,11.91-5.27,16.21-7.14,6,1.25,9.46,2.29,13,2.65,3,0.32,8.83.25,8.89-.25,1.44-10.94,12.18-8.43,18.1-11.89,20-11.65,41.51-15.51,63.93-5.65,2.86,1.24,6.65,1,9.86.52,9.11-1.4,15.68-1.35,19.37,10.24,4.49,14.18,8.41,14.37,22.59,7.16A19.38,19.38,0,0,1,4213.47,1184.42Zm568.78,368.44c3.51-6,7.6-12.13,9-18.73,1.14-5.6-.62-12.06-2.19-17.84-1-3.52-2.32-5.79-7.06-.94-6.62,6.76-16.08,10.67-24,16.3-2.11,1.52-4.33,5.11-4,7.41,1.37,9.67,9.83,15.21,23.62,15.37C4778.29,1554.24,4781.47,1554.24,4782.24,1552.86Zm-284.37,42.27c-4.79,3.89-9.54,7.84-14.06,12-1.78,1.67-4,3.92-4.19,6.1-0.59,5.65-.21,11.41-0.21,17.11l-2.46,1.1c3,4.81,5.29,12.76,9.27,13.76,8,2,9.08-6.56,11.08-12.4,2.46-7.25,5.14-14.45,7.18-21.81a50.79,50.79,0,0,0,1.6-13.22c0-1.89-1.89-3.76-2.94-5.65A35.57,35.57,0,0,0,4497.87,1595.13Zm-358.08-36.56c-15.54-6.1-31.83-10.3-47.24-16.68-4.48-1.84-7-2.06-10.65.21-1.14.71-3.22-.11-4.89-0.22,1-1.17,1.78-2.89,3-3.43,6.92-2.9,7.52-5.3,2-11.46-6.32-7.06-11.72-13.57-22.35-12.27-1.78.22-4.19-1.48-5.73-2.9-11.29-10.4-22.83-20-39.77-17.8-2.06.27-5,.08-6.3-1.14-4.94-4.4-7-1.19-9.3,2.65-0.81,1.33-2.4,2.17-3.64,3.24-0.38-1.65-1.4-3.49-1-4.94,1.52-5.44.29-7-4.87-4-8.7,5-14.37,13-28.24,10.29-13.4-2.65-16.62-1-15.32-16,0.89-10.25-.19-11.35-10.57-10.94-8.59.35-10.32-1.84-7.91-10.37,0.62-2.13,2-4,2.92-6.06,1.89-4.46.37-7.21-4.49-7.11s-8.81-.29-11.6,6.29c-2.68,6.3-10.46,7.76-17.26,4.25-9.43-4.87-13.46-20.19-9.37-34,1.71-5.79,14-11.22,22.84-10.87,4,0.17,8.27-1,12.19-2.33,10.08-3.4,19.89.1,25.48,8.7,2.51,3.83,6.35,6.79,9.59,10.14-0.32-5-.49-10-1-15-0.13-1.25-1.7-2.49-1.59-3.64,0.29-2.81.25-6.71,2-8.11,8.86-7.1,19-12.11,22.27-25,3-11.86,19.62-12,24.13-24.14,0.87-2.32,9.49-4.78,10.67-3.52,8.68,9.19,16.33-.62,24.34-0.63,1.73,0,3.48-2.94,5.21-4.51-1.79-.54-3.65-1-5.43-1.65-4.87-1.76-11.38-.81-12.67-8.57-0.22-1.29-4.94-2.29-7.64-2.54s-5.75.48-8.62,0.79c2.67-2.21,5-5.52,8.1-6.32,3.44-.92,8.84-1,11,1.08,3.67,3.54,5.87,2.44,9.25.56a127.88,127.88,0,0,1,12.27-5.64,32.83,32.83,0,0,1,4.79-1.29c-0.37,1.87-.63,3.78-1.13,5.62-0.84,3.08-1.79,6.16-2.73,9.22,6.21,0.21,12.38.48,18.57,0.4,0.21,0,1-4.67.44-5-6.94-3.57-14.84-6.29-8.68-16.75,0.17-.29-2.4-2.19-3.73-3.27-8.57-7-17.53-13.51-25.61-21-4.65-4.32-7.51-8.83-14-2-1.7,1.81-10.33.9-11.08-.79-5.19-12-16.75-10.48-25.94-12.33-8.71-1.76-14.29,4.86-11.59,13.33,2.3,7.18,11.3,14.51-4.52,16,0.27,2,.86,4.1.71,6.1a73,73,0,0,1-1.52,8.24c-2.4-1.33-5.68-2.08-7.06-4.1-5-7.49-11.48-10.86-20.62-12.4-10.79-1.83-21.21-6.38-31.48-10.51-7-2.84-7.14-8.38-1.29-12.33,6.92-4.62,15.62-6.86,22-12,8.18-6.62,14.43,6.75,22.24.6,1.78-1.4,6.32.67,9.6,1.13-3.35-2.08-6.62-4.3-10.06-6.22-2.84-1.57-5.89-2.79-8.86-4.16,3-.33,6.14-0.16,8.83-1.17,2.84-1.11,7.68-4.14,7.41-5-1.14-3.78-3.08-7.4,3-7.35s16.68,0.56,17,2.33c1.41,8,3.16,9.14,9.32,3.87,0.86-.71,3.16.32,4.81,0.51-0.68,1.44-1,3.6-2.14,4.17-4.25,2.16-8.79,3.7-13.14,5.62a27.17,27.17,0,0,0-4,2.64c1.32,0.89,2.51,2.3,3.92,2.59,10.06,2,20.11,4.08,30.24,5.57,5.92,0.87,12,.79,18,1a17,17,0,0,0,3.7-.67c-0.65-1.56-1-3.3-2-4.6-1.9-2.48-4.14-4.7-6.25-7,3.35,0.6,6.7,1.3,10.06,1.79,1.68,0.25,3.68.67,5.13,0,1.87-.81,3.35-2.6,5-4a45.16,45.16,0,0,1-4-2.67c-7.3-5.86-19.27-4.49-23.57-15.26-0.38-1-3.32-.94-5-1.49-9.81-3.24-19.49-7-29.46-9.64-11.68-3.06-23.78-4.54-34.37,3.37-3.94,3-5.29,2.37-6.4-1.87-1.62-6.24-6-4.62-9.56-2.7-2.7,1.48-4.6,4.35-6.87,6.6,2.57,2.24,5,4.71,7.79,6.54,1.33,0.87,3.6.19,5.29,0.73a58.53,58.53,0,0,1,6.71,3c-1.32,1.6-2.35,4-4,4.57-2.08.68-4.75,0.08-7-.49-8.48-2.14-16-6.06-21.8-12.83-0.08-.08-3.87,2-4,3.17-0.22,2.59,1.86,5.62,1.11,7.84s-5.21,5.79-5.56,5.56c-3.46-2.7-6.06-8-9.6-8.65s0.49,9.81-7.71,8.78c-6.68-.86-13.54-0.33-20.3-0.65-1.06-.06-2.08-1.4-3.11-2.16,0.86-.92,1.56-2.35,2.57-2.67,2.57-.76,5.37-0.81,8-1.54,1.57-.41,2.92-1.6,4.35-2.44-1.46-1.32-2.71-3.08-4.41-3.94-7.71-3.84-12.24-10.41-13.48-19.6-0.19-1.35-1.46-3.57-2.38-3.65-5-.49-10.14-0.52-15.22-0.59-3.76,0-7.64.68-11.3,0.08-8.78-1.43-17.43-4.35-26.19-4.79-4-.21-8.16,4.11-12.24,6.37,4,0.13,7.94.27,11.91,0.32,0.89,0,1.83-.63,2.65-0.49a48.67,48.67,0,0,1,4.86,1.46c-1.27,1.38-2.38,3.76-3.84,4a105.23,105.23,0,0,1-18.76,1.6c-5.76-.17-9.43,2.84-9.13,7.37,0.14,2.22,5.94,4.64,9.54,5.86a10.27,10.27,0,0,0,7.86-1c5.81-3.78,9.16-1.11,12.24,3.51,1.17,1.76,2.33,3.54,3.49,5.29-2.4.17-4.86,0.68-7.24,0.48-16.4-1.46-32.84-4.86-49.12-4.13-14.73.67-29.11,4.3-44.29,2.13-17.37-2.48-35.61-.51-52.4-4.78-14.84-3.73-27,.76-40,4.35-4,1.08-7.46,4-11.18,6.13,3.75,1.35,7.51,2.68,11.24,4a6.49,6.49,0,0,1,2.44,1.08,21.26,21.26,0,0,1,2.27,3.13c-1.4.65-2.79,1.84-4.17,1.84-1.71,0-3.46-1.62-5.11-1.48a114.16,114.16,0,0,0-12.83,2.08,4.08,4.08,0,0,0-.33,2.24c4,1.48,8,3.32,12.24,4,3.92,0.68,8.06.16,12.1,0.14-4,1.46-8.18,2.44-11.76,4.52-2.75,1.6-4.71,4.57-7,6.94,2.87,2.48,5.91,7.22,8.56,7,9-.71,15.84,5,24,6.32-6.38,3.68-12.75,7.38-19.13,11a13.86,13.86,0,0,0-2.44,1.14,25,25,0,0,0-2.54,2.92c1.24,0.25,2.57.87,3.75,0.68,12.84-2.3,23.91-12.4,38.21-8.75,0.86,0.22,3-2,3.52-3.54,1.79-5,5.62-8.54,10.65-9.38a5.76,5.76,0,0,0,2.52-1c9.49-6.91,19.57-4.3,29.51-1.65,11,2.92,22.76,3.1,30.67,14.54,2.9,4.19,8.71,6.35,9.46,13,0.22,1.84,3.84,3.32,5.89,5,0.29-2,.24-4,1-5.79,0.29-.65,3.22-1.08,3.67-0.54,4.76,5.6,8.1,13.65,14,16.75,12.13,6.27,13.73,15.54,12.49,26.37-3,18.6,9,28.7,20.18,39.32,4.1,3.91,8.67,7.65,11.59,12.37,6.87,11.08,13.45,22.3,23.19,31.18,1.79,1.65,4.57,2.21,6.92,3.27-0.94-2.06-1.57-4.3-2.79-6.14-3-4.48-6.35-8.7-9.27-13.22-0.73-1.13-.3-3-0.4-4.56,1.21,0.38,2.81.43,3.59,1.25,8.13,8.41,20,15.73,23.21,25.76,4.68,14.89,16.79,18,26.91,24.13,5.78,3.48,13.24,4.48,21.46,3.41,6.44-.83,13.6,7.6,21.07,10,6.84,2.16,11.92,4.08,15.1,11.49,3.52,8.22,18.49,16.59,22.62,13.37,8.76-6.87,10.1.92,12.19,5.51,4,8.7.62,16.72-6.57,21.45-11,7.24-2,19.51-8.27,27.59-0.22.27,1.6,2,2.32,3.06,3.87,5.94,8.19,11.67,11.49,17.92,5.67,10.78,10.7,21.65,23.14,26.75,8.81,3.64,10.78,11.14,9.64,20.21-2.54,20.32-4.54,40.7-12.62,59.88-1.33,3.16-1,7-1.4,10.54-0.7,7.51-.84,15.08-2.11,22.48-1.06,6.24-5.25,12.35-4.91,18.32,1.37,22,15.13,34.1,35,29.73a21.79,21.79,0,0,0,3.7-1.51c-0.94-.79-1.79-1.65-2.76-2.38-13.6-10.21-13.49-10.08-1.14-22.56,1.83-1.84,2.79-7.86,2.44-8-6-2.6-2.51-4.65-.56-8,2.67-4.64,14.32-6.08,6.21-15.21-0.13-.13,1.3-2.37,2.17-2.51,8.25-1.32,13.46-10.81,23.13-8.49,1.17,0.27,3.71-1.49,4.19-2.81,1.52-4.51,1-10.79,3.92-13.49,3.27-3,9.57-2.44,14.3-4.14,1.89-.67,3.16-3.11,4.64-4.83,3.7-4.33,7.45-8.65,11-13.06,2-2.43,5.46-5.29,5.21-7.64-1.59-14.79,9.79-17.45,19.35-19.1,10.49-1.83,16-9,17.32-16.57,2.71-15.7,7.7-29.19,17.8-41.94C4154,1568.84,4151.16,1563,4139.8,1558.57Zm906.72-283.34c-1.65.38-3.33,0.73-5,1.17-7.81,2.14-15.51,4.71-23.41,6.33a134.47,134.47,0,0,1-22.51,2.81c-12.62.37-13.6,1-17.3,13.56-3.91,13.24-17.27,17.53-26,26.19-0.32.3-2.49-.46-2.56-0.87-0.78-6.86-3.6-14.64-1.32-20.32,2.11-5.27,9.75-8.32,15-12.3,0.7-.54,1.76-0.63,2.4-1.22,2.32-2.11,4.51-4.32,6.75-6.51-5.59,1.52-7.33-10.48-14.65-3.91a59.76,59.76,0,0,1-13.51,9,28,28,0,0,1-11.32,2.64c-6.13.19-12.48,0.33-18.37-1-18.11-4.27-30.64,7-44.4,15-1.37.81-2.25,2.51-3.35,3.78,1.49,0.71,2.92,1.81,4.48,2.1,4.65,0.83,9.38,1.19,14.06,2,10.45,1.67,15.64,10.1,12.65,20.57-1,3.52-2.49,6.89-3.76,10.32-1.06-4-2.25-8-3.17-12.06-0.57-2.54-.75-5.18-1.08-7.75-1.68,2.22-3.56,4.32-5,6.7-8.27,13.4-16.81,25.88-35,27.24-4.4.33-8.19,6.46-12.67,9.29-7.18,4.51-2.32,8.65-.79,13.6,1,3.25-.44,7.79-2.1,11.11-0.83,1.65-4.57,1.81-7,2.65-0.52-2.14-2.14-4.84-1.4-6.37,3.75-7.83-6.18-6.67-6.68-10.49-0.94-7-3-7-9.59-5.86-3.86.65-8.86-6.33-14-.22-1.37,1.6-4.21,3.92-3.84,4.62a13.81,13.81,0,0,0,5.35,5.29c1.35,0.79,3.56,0,5.29.35a20.36,20.36,0,0,1,4.22,2c-0.59,1.11-.94,2.9-1.79,3.22-8.72,3.19-5.76,7.41-2.06,13,7.27,11,5.57,17.89-3.89,27.21-10,9.86-19.29,20.35-35.24,20.22-1.76,0-3.57,5.59-5.38,8.54-1.6,2.62-3.24,5.24-4.86,7.84a63,63,0,0,1-2.1-8,65.6,65.6,0,0,1-.14-8.48c-2.32,1.13-5.41,1.68-6.75,3.54-1.84,2.49-4.06,6.81-3,8.87,2.1,4.3,7.08,7.19,9.16,11.51,2.35,4.91,5.51,12.21,3.52,15.79-3.16,5.68-10.19,9.33-15.92,13.35-0.75.52-3.94-1.6-5.38-3.08-2.81-2.92-5-6.48-7.76-9.4-3.62-3.73-7.6-7.89-10.68.75a3.81,3.81,0,0,1-.73.9c-0.62,12.19-.4,35.15,9.18,41.84,13.22,9.25-5.54,26.46-9.38,8.6s-10-49.19-6.62-61.64c-0.43-7.73-.6-15.54-10.89-6.22-0.29.27-3.83-1.87-4.52-3.49-1.73-4-2-8.86-4.22-12.46-2.73-4.37-7.33-11.33-10.41-11-7.49.83-15,4.48-21.65,8.48a83.19,83.19,0,0,0-17.46,14.75c-3,3.24-4.48,8.14-6.08,12.49-2.76,7.56-5,15.32-7.79,22.83-0.29.71-4.94,1-5.3,0.24-5-9.56-9.78-19.19-14.08-29a75.7,75.7,0,0,1-4.56-15.51c-1-4.89,2.89-13.54-8.35-8.87-0.54.22-3.14-3.65-4.32-5.87-4.68-8.83-12.6-12.14-22.16-11.16-10.06,1-20.89,3.37-29-6.25-1-1.13-3.48-2.1-4.71-1.64-10.79,4-16.53-3.59-23.32-9.38-2.08-1.78-5.4-2.11-8.16-3.08,0.48,2.73.29,5.84,1.59,8.11,2.21,3.87,5.43,7.16,8.11,10.79,4.1,5.56,8,9.41,15.19,3.46,8.11-6.71,12.91,2.38,18.29,5.67,6,3.67.86,8.48-1.78,11.19-6.11,6.32-12.41,13-19.94,17.24-9.75,5.49-20.68,9-31.26,12.89-10.33,3.83-12.16,2.21-15.79-7.75-2.68-7.38-7.16-14.11-10.92-21.08-4.44-8.27-9-16.53-13.49-24.78-1.29-2.38-2.19-5.19-4-7-1.25-1.17-3.94-1.11-5.92-1-0.4,0-1.37,3.38-.75,4.49q14.5,26.6,29.46,53c1.75,3.08,5.73,5.52,6.25,8.62,1.83,11.43,8.43,9,15.91,6.87,5.73-1.65,11.78-2.25,17.68-3.33-2,6.27-3.06,13-6.1,18.64-5,9.46-11.19,17.65-21,23.87-8.4,5.38-15.65,14.22-20.3,23.18-2.67,5.13.9,13.51,1.56,20.41,0.75,7.87,2.92,16,1.51,23.53-0.89,4.75-6.59,9.32-11.18,12.43-7.3,5-13.24,9.6-9,19.68,0.78,1.83.71,5.89-.11,6.27-11.57,5-11.73,18-18.76,26.38-12.33,14.79-28.46,16.06-44.8,18-2.65.33-6.84-4.59-8.79-8-3.7-6.52-6.32-13.65-9.35-20.57-1.06-2.44-2.16-4.91-3-7.41-2.83-8.43-4.57-17.4-8.52-25.22-5.7-11.3-7.87-20.72.48-32.57,5.25-7.45-1.33-17.53-4-26.08a21.87,21.87,0,0,0-6.7-10.06c-8.83-7-7.3-15.18-4.24-24.14s0.57-12.33-7.87-10.13c-5.35,1.41-8.43,1-11.25-3.71-3.75-6.33-9-5.56-15.35-3.64-8,2.44-16.43,3.54-24.72,5.06-1.76.33-4-.59-5.37,0.21-15.19,8.67-21-4.75-29-12.35-3.89-3.67-6.81-8.41-10.89-11.81-7.6-6.3-9.41-13-5.76-22,1.75-4.37,4.11-9.79,3-13.83-4.71-16.56,4.91-26.59,15.54-35.65,4.89-4.16,9.43-7.1,10.83-14.19,1.73-9,9.79-12.6,17.6-15.11,8.92-2.87,18.11-5.08,27.29-7.06,7-1.52,14.19-2.25,21.27-3.35,0,0.32.1,0.6,0.14,0.9,4-.33,8.64-2,12-0.62,3.11,1.25,7.51,7.78,7,8.46-5.33,6.64.75,7.91,4.29,9.64a210.07,210.07,0,0,0,21.08,9c2.76,1,7.48,1.86,9,.4,12.67-12.37,26-3.44,39.13-2.06,6.54,0.7,13.14,1.64,19.65,1.29s14.46-15.41,11.25-20.62c-0.83-1.33-3.68-1.89-5.64-2-5.38-.19-10.79.51-16.16,0.11-8.92-.68-17.14-2.52-17.92-14.14-0.1-1.56-3.3-2.89-5.08-4.3-1.73,2.43-5.43,6.38-4.89,7.1,4.21,5.51,0,7.32-3.54,9.24-5.68,3.1-7-1.81-8.65-5.35-6.1-13.45-17.75-21.35-29.18-29.45-1.24-.87-3.27-0.63-4.94-0.94,0.43,1.89.27,4.46,1.43,5.52,4.35,3.86,8.81,7.83,13.87,10.57,4.3,2.35,5,4.52,2.41,8.27-3.91,5.73-4.3-.76-6.08-1.87-8.24-5.21-16.21-10.86-24.62-15.75-1.83-1.06-5.08,0-7.6.51s-5.14,2.64-7.56,2.38c-13.7-1.43-20.35,8.25-26.53,17.4-7,10.35-27.16,14.21-36.34,5.41-7-6.71,1.24-14.32-.19-21.6-0.13-.67,6.37-3.27,10-3.83s7.35,1.21,10.73.46c3.81-.84,8.91-2.4,10.54-5.3,2.86-5.06-.25-9.38-5.73-11.6a23.6,23.6,0,0,1-4.11-2.71c1.51-.9,3-2.49,4.56-2.57,17.41-.86,27.51-17.67,44.18-20.24,0.86-.13.63-4.43,1.71-6.32,1.38-2.43,3.59-4.4,5.43-6.57,1.56,1.65,3.62,3,4.56,5,4.49,9.24,13.06,5.86,20.1,6.38,5.18,0.37,10.48-.92,15.73-1.52,1.25-.16,3.59-0.52,3.6-0.87,0.43-11.06,11.56-11,17.48-16,3.41-2.92,10.11-1.87,15.26-2.94,1.56-.33,2.87-1.67,4.3-2.57-1.48-1.29-2.9-3.65-4.43-3.71-4.92-.21-10.06-0.3-14.76,1-5.25,1.41-9.65,1.08-10.57-4.41-0.46-2.76,2.76-6.19,4.49-9.21,0.38-.68,1.65-0.78,2.29-1.4,2.11-2,4.14-4.17,6.21-6.29-0.6-.56-1.33-1.68-1.76-1.59-3.68.87-7.7,1.29-10.86,3.14-4,2.37-7,6.86-11.1,8.78-5.59,2.64-11.13,3.3-3.4,10.49,2.94,2.73-6.37,16.49-12.35,18.16-6.6,1.83-14.32,5.87-16.18-6.24-0.89-5.67-4.21-5.65-8.7-2.25-6,4.54-11.45,2.62-14.32-3.87-2.67-6.06-3-11.49,4.62-15.89,11.94-6.92,22.16-17.54,34.72-22.53,14.79-5.87,31.15-8.81,47.08-10.25,9.41-.86,19.3,3.64,29,5.73,9.25,2,18.53,3.94,27.73,6.14,1.29,0.32,2.24,2.06,3.35,3.13-1,.83-1.86,2.22-2.94,2.35-5.75.79-11.56,1.11-17.29,2-1.33.21-3.6,1.83-3.52,2.57,0.17,1.54,2.32,4.27,2.52,4.16,5.86-2.87,13.14,4.92,18.62-2.83,1.81-2.57,6-4.64,9.18-4.83,4.7-.25,9.45,1.51,6.73-6.33-0.14-.4,4.38-2.43,6.75-3.68,3.08,12.67,11.62,2.83,17.18,3.44,8.19,0.94,16.78-1.46,25.14-2.71,7.78-1.19,15.49-3.76,23.26-3.84,7.49-.08,15,2.32,22.48,3.48a48.66,48.66,0,0,0,6.46.19,46.4,46.4,0,0,1-2.37-5.21c-0.68-2.1-2-5.62-1.3-6.22,4.46-3.44,9.21-7,14.45-8.81,1.84-.62,8.08,4.87,7.73,5.73-2.75,6.86,5.37,15.81-4.08,21.24-0.87.48-.7,2.75-1,4.19,1.29-.06,2.89.33,3.79-0.3,2.57-1.75,4.59-4.56,7.35-5.81,3.16-1.43,6.87-1.7,10.35-2.37,2.41-.44,4.87-0.63,7.22-1.27,0.22-.08.29-3.19-0.3-3.51-2.21-1.14-5.24-3-7-2.27-8.18,3.41-10.79.48-9.7-7.48,0.13-1,1.52-1.78,2.32-2.65,6.78,9.24,9.6-2.7,13.56-2.43,5.75,0.4,11.24,4.71,16.87,7.27,2.27,1,4.62,1.83,7,2.73a79.65,79.65,0,0,0-4.4-7.27c-0.75-1-2.51-1-3.54-1.89a13.53,13.53,0,0,1-2.1-3,16.93,16.93,0,0,1,3.27-1.52c16.91-3.83,33.83-7.67,50.81-11.25,3.41-.71,7-0.43,10.57-0.44s7.86,1.59,10.6.14c17.43-9.18,35.16-.76,52.67-1.52,4.52-.21,11.3.21,6.79,8.54-0.17.32,3.27,3.71,5,3.68,14.6-.27,29,5.68,43.91,0,6.76-2.57,15.7-3.6,17.64,8.06,0.24,1.49,3.38,3.65,5,3.52,10.64-1,21.22-2.41,31.81-3.79,1.33-.17,3.06-0.33,3.79-1.22,1.65-2,4.3-4.84,3.83-6.56-0.62-2.19-4-3.6-6.11-5.33-1.44-1.17-2.87-2.37-4.3-3.56,1.59-.54,3.16-1.52,4.75-1.51,4.94,0.06,9.91.3,14.83,0.84,2.6,0.3,5.13,1.4,7.7,2.13-1.65,1.48-3.59,2.76-4.89,4.51-0.65.84-.4,2.62-0.06,3.81,0.19,0.63,1.41,1.21,2.24,1.37q23.38,4.48,46.83,8.84c7.37,1.37,14.78,2.59,22.16,3.84,3.91,0.67,7.81,1.49,11.75,1.86,9.3,0.87,18.64,1.49,27.94,2.24,0.89,0.06,2.21.86,2.54,0.49,9.18-8.91,19.65-.49,29.43-2.21,8.6-1.49,11,3.38,12,11.76C5050,1265.06,5040.28,1268.82,5046.52,1275.23Zm-576.71,88.86c-2.37-2.92-4.44-6.14-7.18-8.65-2.92-2.7-7.94-4.06-9.38-7.21-2.64-5.71-4.83-5.87-8.3-1.51-5,6.29-8.94,5.79-13.32-.92-3.08-4.71-6.84-2.9-9.84.76-2.54,3.11-5.54,6-7.41,9.49-1.33,2.46-2.27,6.21-1.29,8.48,0.62,1.51,5.21,2.43,7.6,1.87,12.3-2.92,24.46-3.81,36.59.67,0.4,0.14.9,0,3.87,0Zm39.34-13.56a62.91,62.91,0,0,0,7.54-.81,46.7,46.7,0,0,0,6.64-2.52c-1.46-2.11-2.51-5.33-4.51-6.1-3-1.13-6.68-1-10-.56-3.44.48-6.68,2.24-10.13,2.89-9.59,1.81-11.6,5.75-6,13.56a25.83,25.83,0,0,0,8.89,7.84c4.94,2.49,4.79,3.71.73,7.25-6.78,5.92-6.11,8.73,2,11.78a61.63,61.63,0,0,0,8.27,2c9.41,0.19,11.7-2.37,8.92-10.51-2.08-6-5.48-11.59-8.3-17.33C4511.84,1355.54,4510.48,1353,4509.14,1350.54ZM4908.57,1613c-3.68-4.94-6.08-10.79-9.49-16-2.27-3.44-5.29-6.38-8-9.56-0.08,4.25.46,8.64-.37,12.75-1,4.81-.44,12.43-8,11.48-5-.63-10.08-4.29-13.92-7.86-1.79-1.68-.62-6.4-1.19-9.65-0.24-1.46-1.44-3.89-2.29-3.92-6.94-.25-15.26-2.38-20.49.63-6.57,3.79-10.22,13-20.08,6.48-0.33-.24-2.52,2.22-3.76,3.49-10.35,10.4-18.91,22.43-36.11,23.8-10.94.87-12.67,8.79-12.72,20.18,0,9.41,5,15.91,7.68,23.75,0.94,2.78,1.51,6.43.46,9-2.86,7-.65,11.81,6.54,10.57,8.75-1.49,19.54-2.19,25.21-7.65,7.51-7.24,16-7.13,24.21-9.43,10.3-2.86,17.1.68,23.8,10.64,0.71,1.08,3.49,2.24,3.71,2,9.37-10.91,14.46,1.13,16.54,5.18,5.4,10.52,11.62,16.08,21.38,12.64,16.83,2,22.21-7.86,27.94-18.57,9.68-18.14,9.22-32.67-3.43-48.75C4920.6,1626.86,4914.1,1620.28,4908.57,1613Zm-59.39-72.62c-0.73-.17-1.84,1.3-2.79,2,3.3,4.24,5.87,9.51,10.06,12.45,7.59,5.33,20.8,2.24,22.61,16.86,0.35,2.9,12.83,7.45,13.32,6.75,8.27-11.75,14.75-8.37,21.56,1.14,1.16,1.64,3.75,2.54,5.87,3.08,1.11,0.3,2.62-.89,3.86-1.37-0.52-2-.46-3.11-1-3.64-9-8.59-16.81-19.81-27.51-24.89C4881,1546,4864.65,1544.11,4849.19,1540.33Zm42.24-188c-4,1.57-8,7.22-8.94,11.73-4.3,20.33-7.83,23.68-27.64,25.83-4.94.56-9.79,3.83-14.13,6.7-1.25.84-1.48,5.14-.46,6.87,0.83,1.38,4.51,2.22,6.4,1.62,6.11-2,11.83-5.08,17.94-7,19.81-6.38,23.34-11.16,22.83-30.86,0-1.67,2.32-4.29,4.14-4.94,3.76-1.33,7.92-1.57,11.89-2.43a12.38,12.38,0,0,0,3.13-1.73c-0.49-1.11-.68-2.38-1.17-2.54C4900.7,1354.16,4895.13,1350.89,4891.43,1352.32ZM4768.08,1562.6c-22.49,3.32-28.45-14-28.45-14s-11.87,0-16.53,11.1c-0.78,1.84,1.32,8.24,20.49,10.22s31.75,0,31.75,0S4790.58,1559.29,4768.08,1562.6Zm-51.15,8.16c-6.18-2.41-6.4-1.56-5.08-8.16s-5.73-14-5.73-14c-19.73,3.06,3.1,26,10.83,31.91s21.38-4,16.1-4S4723.11,1573.19,4716.94,1570.76Zm116,0s-4.62-14.78-15.87-26-13.89,20.72-13.89,20.72C4805.77,1579.57,4832.9,1570.76,4832.9,1570.76Z" transform="translate(-3595.02 -1162.63)"/>
</svg>
